%TF.GenerationSoftware,KiCad,Pcbnew,(5.1.6)-1*%
%TF.CreationDate,2020-11-09T17:25:15+01:00*%
%TF.ProjectId,omodri_laas,6f6d6f64-7269-45f6-9c61-61732e6b6963,1.0*%
%TF.SameCoordinates,Original*%
%TF.FileFunction,Soldermask,Top*%
%TF.FilePolarity,Negative*%
%FSLAX46Y46*%
G04 Gerber Fmt 4.6, Leading zero omitted, Abs format (unit mm)*
G04 Created by KiCad (PCBNEW (5.1.6)-1) date 2020-11-09 17:25:15*
%MOMM*%
%LPD*%
G01*
G04 APERTURE LIST*
%ADD10C,0.100000*%
%ADD11C,3.600000*%
%ADD12R,3.600000X3.600000*%
%ADD13C,1.500000*%
%ADD14C,3.100000*%
%ADD15R,3.100000X3.100000*%
%ADD16C,0.550000*%
%ADD17R,0.800001X0.349999*%
%ADD18R,0.529999X0.475001*%
%ADD19R,3.400001X5.499999*%
%ADD20C,0.900000*%
%ADD21O,0.900000X0.700000*%
%ADD22R,0.300000X0.599999*%
%ADD23O,1.000000X1.500000*%
%ADD24R,1.100000X1.600000*%
%ADD25O,1.100000X1.100000*%
%ADD26R,1.100000X1.100000*%
%ADD27R,1.300000X0.800000*%
%ADD28R,1.300000X5.500000*%
%ADD29R,1.000000X1.800000*%
%ADD30R,1.320000X0.500000*%
%ADD31R,0.350000X0.500000*%
%ADD32R,0.800000X0.500000*%
%ADD33C,2.300000*%
%ADD34R,0.250000X0.350000*%
%ADD35R,0.300000X0.700000*%
%ADD36R,0.700000X0.300000*%
%ADD37O,1.500000X1.000000*%
%ADD38R,1.000000X0.900000*%
%ADD39R,4.700000X4.700000*%
G04 APERTURE END LIST*
D10*
%TO.C,Q1*%
G36*
X114100000Y-85575000D02*
G01*
X113800000Y-85575000D01*
X113800000Y-81425000D01*
X114100000Y-81425000D01*
X114100000Y-85575000D01*
G37*
X114100000Y-85575000D02*
X113800000Y-85575000D01*
X113800000Y-81425000D01*
X114100000Y-81425000D01*
X114100000Y-85575000D01*
G36*
X109800000Y-85575000D02*
G01*
X109500000Y-85575000D01*
X109500000Y-81425000D01*
X109800000Y-81425000D01*
X109800000Y-85575000D01*
G37*
X109800000Y-85575000D02*
X109500000Y-85575000D01*
X109500000Y-81425000D01*
X109800000Y-81425000D01*
X109800000Y-85575000D01*
%TO.C,Q3*%
G36*
X114100000Y-92575000D02*
G01*
X113800000Y-92575000D01*
X113800000Y-88425000D01*
X114100000Y-88425000D01*
X114100000Y-92575000D01*
G37*
X114100000Y-92575000D02*
X113800000Y-92575000D01*
X113800000Y-88425000D01*
X114100000Y-88425000D01*
X114100000Y-92575000D01*
G36*
X109800000Y-92575000D02*
G01*
X109500000Y-92575000D01*
X109500000Y-88425000D01*
X109800000Y-88425000D01*
X109800000Y-92575000D01*
G37*
X109800000Y-92575000D02*
X109500000Y-92575000D01*
X109500000Y-88425000D01*
X109800000Y-88425000D01*
X109800000Y-92575000D01*
%TO.C,Q4*%
G36*
X135900000Y-88424999D02*
G01*
X136200000Y-88424999D01*
X136200000Y-92574999D01*
X135900000Y-92574999D01*
X135900000Y-88424999D01*
G37*
X135900000Y-88424999D02*
X136200000Y-88424999D01*
X136200000Y-92574999D01*
X135900000Y-92574999D01*
X135900000Y-88424999D01*
G36*
X140200000Y-88424999D02*
G01*
X140500000Y-88424999D01*
X140500000Y-92574999D01*
X140200000Y-92574999D01*
X140200000Y-88424999D01*
G37*
X140200000Y-88424999D02*
X140500000Y-88424999D01*
X140500000Y-92574999D01*
X140200000Y-92574999D01*
X140200000Y-88424999D01*
%TO.C,Q6*%
G36*
X135900000Y-81424999D02*
G01*
X136200000Y-81424999D01*
X136200000Y-85574999D01*
X135900000Y-85574999D01*
X135900000Y-81424999D01*
G37*
X135900000Y-81424999D02*
X136200000Y-81424999D01*
X136200000Y-85574999D01*
X135900000Y-85574999D01*
X135900000Y-81424999D01*
G36*
X140200000Y-81424999D02*
G01*
X140500000Y-81424999D01*
X140500000Y-85574999D01*
X140200000Y-85574999D01*
X140200000Y-81424999D01*
G37*
X140200000Y-81424999D02*
X140500000Y-81424999D01*
X140500000Y-85574999D01*
X140200000Y-85574999D01*
X140200000Y-81424999D01*
%TD*%
D11*
%TO.C,J13*%
X127500000Y-88500000D03*
D12*
X122500000Y-88500000D03*
D13*
X130500000Y-98500000D03*
X119500000Y-98500000D03*
%TD*%
D14*
%TO.C,J12*%
X143250000Y-83500000D03*
X143250000Y-87000000D03*
D15*
X143250000Y-90500000D03*
D13*
X148250000Y-80500000D03*
X148250000Y-93500000D03*
%TD*%
D14*
%TO.C,J11*%
X106750000Y-90500000D03*
X106750000Y-87000000D03*
D15*
X106750000Y-83500000D03*
D13*
X101750000Y-93500000D03*
X101750000Y-80500000D03*
%TD*%
D16*
%TO.C,U1*%
X132200000Y-68100000D03*
X132200000Y-61700000D03*
X132200000Y-62500000D03*
X132200000Y-60100000D03*
X132200000Y-66500000D03*
X132200000Y-69700000D03*
X132200000Y-63300000D03*
X132200000Y-59300000D03*
X132200000Y-55300000D03*
X132200000Y-68900000D03*
X132200000Y-56900000D03*
X132200000Y-64900000D03*
X132200000Y-64100000D03*
X132200000Y-67300000D03*
X132200000Y-57700000D03*
X132200000Y-60900000D03*
X132200000Y-65700000D03*
X132200000Y-56100000D03*
X132200000Y-58500000D03*
X131400000Y-65700000D03*
X131400000Y-56900000D03*
X131400000Y-60100000D03*
X131400000Y-64900000D03*
X131400000Y-55300000D03*
X131400000Y-59300000D03*
X131400000Y-68900000D03*
X131400000Y-64100000D03*
X131400000Y-57700000D03*
X131400000Y-60900000D03*
X131400000Y-66500000D03*
X131400000Y-67300000D03*
X131400000Y-58500000D03*
X131400000Y-62500000D03*
X131400000Y-69700000D03*
X131400000Y-68100000D03*
X131400000Y-61700000D03*
X131400000Y-56100000D03*
X131400000Y-63300000D03*
X130600000Y-64100000D03*
X130600000Y-65700000D03*
X130600000Y-67300000D03*
X130600000Y-57700000D03*
X130600000Y-62500000D03*
X130600000Y-56900000D03*
X130600000Y-60900000D03*
X130600000Y-64900000D03*
X130600000Y-55300000D03*
X130600000Y-69700000D03*
X130600000Y-60100000D03*
X130600000Y-59300000D03*
X130600000Y-68100000D03*
X130600000Y-66500000D03*
X130600000Y-58500000D03*
X130600000Y-61700000D03*
X130600000Y-68900000D03*
X130600000Y-56100000D03*
X130600000Y-63300000D03*
X129800000Y-62500000D03*
X129800000Y-68900000D03*
X129800000Y-57700000D03*
X129800000Y-60900000D03*
X129800000Y-56100000D03*
X129800000Y-56900000D03*
X129800000Y-69700000D03*
X129800000Y-66500000D03*
X129800000Y-68100000D03*
X129800000Y-55300000D03*
X129800000Y-59300000D03*
X129800000Y-63300000D03*
X129800000Y-60100000D03*
X129800000Y-58500000D03*
X129800000Y-64100000D03*
X129800000Y-65700000D03*
X129800000Y-61700000D03*
X129800000Y-67300000D03*
X129800000Y-64900000D03*
X129000000Y-68100000D03*
X129000000Y-68900000D03*
X129000000Y-66500000D03*
X129000000Y-63300000D03*
X129000000Y-56900000D03*
X129000000Y-60100000D03*
X129000000Y-64100000D03*
X129000000Y-57700000D03*
X129000000Y-59300000D03*
X129000000Y-65700000D03*
X129000000Y-55300000D03*
X129000000Y-61700000D03*
X129000000Y-69700000D03*
X129000000Y-67300000D03*
X129000000Y-62500000D03*
X129000000Y-60900000D03*
X129000000Y-64900000D03*
X129000000Y-56100000D03*
X129000000Y-58500000D03*
X128200000Y-69700000D03*
X128200000Y-55300000D03*
X128200000Y-57700000D03*
X128200000Y-67300000D03*
X128200000Y-56900000D03*
X128200000Y-62500000D03*
X128200000Y-68900000D03*
X128200000Y-60100000D03*
X128200000Y-59300000D03*
X128200000Y-64100000D03*
X128200000Y-65700000D03*
X128200000Y-61700000D03*
X128200000Y-64900000D03*
X128200000Y-66500000D03*
X128200000Y-63300000D03*
X128200000Y-56100000D03*
X128200000Y-58500000D03*
X128200000Y-60900000D03*
X128200000Y-68100000D03*
X127400000Y-65700000D03*
X127400000Y-56100000D03*
X127400000Y-66500000D03*
X127400000Y-67300000D03*
X127400000Y-56900000D03*
X127400000Y-55300000D03*
X127400000Y-68100000D03*
X127400000Y-57700000D03*
X127400000Y-68900000D03*
X127400000Y-59300000D03*
X127400000Y-69700000D03*
X127400000Y-58500000D03*
X126600000Y-55300000D03*
X126600000Y-66500000D03*
X126600000Y-65700000D03*
X126600000Y-56100000D03*
X126600000Y-57700000D03*
X126600000Y-68100000D03*
X126600000Y-67300000D03*
X126600000Y-56900000D03*
X126600000Y-68900000D03*
X126600000Y-59300000D03*
X126600000Y-69700000D03*
X126600000Y-58500000D03*
X125000000Y-56100000D03*
X125800000Y-60900000D03*
X125000000Y-68100000D03*
X125000000Y-67300000D03*
X125000000Y-66500000D03*
X125800000Y-64100000D03*
X125000000Y-56900000D03*
X125000000Y-55300000D03*
X125000000Y-57700000D03*
X125000000Y-65700000D03*
X125800000Y-62500000D03*
X125000000Y-59300000D03*
X125000000Y-69700000D03*
X125800000Y-63300000D03*
X125000000Y-68900000D03*
X125000000Y-58500000D03*
X125800000Y-61700000D03*
X125800000Y-56100000D03*
X125800000Y-68900000D03*
X126600000Y-63300000D03*
X125800000Y-69700000D03*
X125800000Y-55300000D03*
X125800000Y-66500000D03*
X125800000Y-67300000D03*
X125800000Y-59300000D03*
X126600000Y-64100000D03*
X125800000Y-68100000D03*
X125800000Y-58500000D03*
X126600000Y-60900000D03*
X126600000Y-61700000D03*
X125800000Y-57700000D03*
X125800000Y-65700000D03*
X126600000Y-62500000D03*
X125800000Y-56900000D03*
X124200000Y-68900000D03*
X124200000Y-58500000D03*
X124200000Y-59300000D03*
X124200000Y-55300000D03*
X124200000Y-68100000D03*
X125000000Y-63300000D03*
X125000000Y-60900000D03*
X124200000Y-56100000D03*
X125000000Y-62500000D03*
X125000000Y-64100000D03*
X124200000Y-65700000D03*
X124200000Y-66500000D03*
X124200000Y-69700000D03*
X124200000Y-57700000D03*
X125000000Y-61700000D03*
X124200000Y-67300000D03*
X124200000Y-56900000D03*
X124200000Y-60900000D03*
X123400000Y-65700000D03*
X123400000Y-58500000D03*
X123400000Y-56100000D03*
X123400000Y-66500000D03*
X124200000Y-63300000D03*
X124200000Y-64100000D03*
X123400000Y-59300000D03*
X123400000Y-55300000D03*
X123400000Y-69700000D03*
X123400000Y-68100000D03*
X123400000Y-68900000D03*
X124200000Y-62500000D03*
X123400000Y-57700000D03*
X124200000Y-61700000D03*
X123400000Y-56900000D03*
X123400000Y-67300000D03*
X123400000Y-60900000D03*
X122600000Y-58500000D03*
X122600000Y-55300000D03*
X122600000Y-59300000D03*
X123400000Y-64100000D03*
X122600000Y-56100000D03*
X122600000Y-65700000D03*
X122600000Y-66500000D03*
X123400000Y-63300000D03*
X123400000Y-62500000D03*
X122600000Y-57700000D03*
X123400000Y-61700000D03*
X122600000Y-56900000D03*
X122600000Y-69700000D03*
X122600000Y-68100000D03*
X122600000Y-68900000D03*
X122600000Y-67300000D03*
X121800000Y-56100000D03*
X121800000Y-56900000D03*
X121800000Y-57700000D03*
X121800000Y-58500000D03*
X121800000Y-59300000D03*
X121800000Y-60100000D03*
X121800000Y-60900000D03*
X121800000Y-61700000D03*
X121800000Y-62500000D03*
X121800000Y-63300000D03*
X121800000Y-55300000D03*
X121800000Y-64100000D03*
X121800000Y-64900000D03*
X121800000Y-65700000D03*
X121800000Y-66500000D03*
X121000000Y-56100000D03*
X121000000Y-55300000D03*
X121000000Y-57700000D03*
X121000000Y-56900000D03*
X121000000Y-64900000D03*
X121000000Y-64100000D03*
X121000000Y-62500000D03*
X121000000Y-63300000D03*
X121000000Y-61700000D03*
X121000000Y-60900000D03*
X121000000Y-60100000D03*
X121000000Y-59300000D03*
X121000000Y-58500000D03*
X121800000Y-68100000D03*
X121000000Y-65700000D03*
X120200000Y-69700000D03*
X121800000Y-68900000D03*
X121800000Y-69700000D03*
X120200000Y-65700000D03*
X120200000Y-64900000D03*
X120200000Y-63300000D03*
X120200000Y-62500000D03*
X120200000Y-61700000D03*
X120200000Y-60900000D03*
X120200000Y-59300000D03*
X120200000Y-58500000D03*
X120200000Y-57700000D03*
X121000000Y-69700000D03*
X121000000Y-68900000D03*
X120200000Y-56100000D03*
X120200000Y-55300000D03*
X121000000Y-68100000D03*
X120200000Y-64100000D03*
X120200000Y-56900000D03*
X120200000Y-68900000D03*
X120200000Y-67300000D03*
X121000000Y-67300000D03*
X120200000Y-68100000D03*
X120200000Y-60100000D03*
X120200000Y-66500000D03*
X121000000Y-66500000D03*
X121800000Y-67300000D03*
X119400000Y-55300000D03*
X119400000Y-56100000D03*
X119400000Y-56900000D03*
X119400000Y-57700000D03*
X119400000Y-58500000D03*
X119400000Y-59300000D03*
X119400000Y-60100000D03*
X119400000Y-60900000D03*
X119400000Y-61700000D03*
X119400000Y-62500000D03*
X119400000Y-63300000D03*
X119400000Y-64100000D03*
X119400000Y-64900000D03*
X119400000Y-65700000D03*
X119400000Y-66500000D03*
X119400000Y-67300000D03*
X119400000Y-68100000D03*
X119400000Y-68900000D03*
X119400000Y-69700000D03*
X117800000Y-69700000D03*
X117800000Y-68900000D03*
X117800000Y-68100000D03*
X117800000Y-67300000D03*
X117800000Y-66500000D03*
X117800000Y-65700000D03*
X117800000Y-64900000D03*
X117800000Y-64100000D03*
X117800000Y-63300000D03*
X117800000Y-62500000D03*
X117800000Y-61700000D03*
X117800000Y-60900000D03*
X117800000Y-60100000D03*
X117800000Y-59300000D03*
X117800000Y-58500000D03*
X117800000Y-57700000D03*
X117800000Y-56900000D03*
X117800000Y-56100000D03*
X117800000Y-55300000D03*
X118600000Y-69700000D03*
X118600000Y-68900000D03*
X118600000Y-68100000D03*
X118600000Y-67300000D03*
X118600000Y-66500000D03*
X118600000Y-65700000D03*
X118600000Y-64900000D03*
X118600000Y-64100000D03*
X118600000Y-63300000D03*
X118600000Y-62500000D03*
X118600000Y-61700000D03*
X118600000Y-60900000D03*
X118600000Y-60100000D03*
X118600000Y-59300000D03*
X118600000Y-58500000D03*
X118600000Y-57700000D03*
X118600000Y-56900000D03*
X118600000Y-56100000D03*
X118600000Y-55300000D03*
%TD*%
D10*
%TO.C,L1*%
G36*
X127240245Y-84311539D02*
G01*
X127230866Y-84308694D01*
X127222221Y-84304073D01*
X127214645Y-84297855D01*
X127208427Y-84290279D01*
X127203806Y-84281634D01*
X127200961Y-84272255D01*
X127200000Y-84262500D01*
X127200000Y-83062500D01*
X127200961Y-83052745D01*
X127203806Y-83043366D01*
X127208427Y-83034721D01*
X127213523Y-83028303D01*
X128325000Y-81842728D01*
X128325000Y-80082272D01*
X127213523Y-78896697D01*
X127207553Y-78888924D01*
X127203213Y-78880135D01*
X127200672Y-78870668D01*
X127200000Y-78862500D01*
X127200000Y-77662500D01*
X127200961Y-77652745D01*
X127203806Y-77643366D01*
X127208427Y-77634721D01*
X127214645Y-77627145D01*
X127222221Y-77620927D01*
X127230866Y-77616306D01*
X127240245Y-77613461D01*
X127250000Y-77612500D01*
X128375000Y-77612500D01*
X128384755Y-77613461D01*
X128394134Y-77616306D01*
X128402779Y-77620927D01*
X128410355Y-77627145D01*
X129585355Y-78802145D01*
X129591573Y-78809721D01*
X129596194Y-78818366D01*
X129599039Y-78827745D01*
X129600000Y-78837500D01*
X129600000Y-83087500D01*
X129599039Y-83097255D01*
X129596194Y-83106634D01*
X129591573Y-83115279D01*
X129585355Y-83122855D01*
X128410355Y-84297855D01*
X128402779Y-84304073D01*
X128394134Y-84308694D01*
X128384755Y-84311539D01*
X128375000Y-84312500D01*
X127250000Y-84312500D01*
X127240245Y-84311539D01*
G37*
G36*
X125259755Y-77613461D02*
G01*
X125269134Y-77616306D01*
X125277779Y-77620927D01*
X125285355Y-77627145D01*
X125291573Y-77634721D01*
X125296194Y-77643366D01*
X125299039Y-77652745D01*
X125300000Y-77662500D01*
X125300000Y-78862500D01*
X125299039Y-78872255D01*
X125296194Y-78881634D01*
X125291573Y-78890279D01*
X125286477Y-78896697D01*
X124175000Y-80082272D01*
X124175000Y-81842728D01*
X125286477Y-83028303D01*
X125292447Y-83036076D01*
X125296787Y-83044865D01*
X125299328Y-83054332D01*
X125300000Y-83062500D01*
X125300000Y-84262500D01*
X125299039Y-84272255D01*
X125296194Y-84281634D01*
X125291573Y-84290279D01*
X125285355Y-84297855D01*
X125277779Y-84304073D01*
X125269134Y-84308694D01*
X125259755Y-84311539D01*
X125250000Y-84312500D01*
X124125000Y-84312500D01*
X124115245Y-84311539D01*
X124105866Y-84308694D01*
X124097221Y-84304073D01*
X124089645Y-84297855D01*
X122914645Y-83122855D01*
X122908427Y-83115279D01*
X122903806Y-83106634D01*
X122900961Y-83097255D01*
X122900000Y-83087500D01*
X122900000Y-78837500D01*
X122900961Y-78827745D01*
X122903806Y-78818366D01*
X122908427Y-78809721D01*
X122914645Y-78802145D01*
X124089645Y-77627145D01*
X124097221Y-77620927D01*
X124105866Y-77616306D01*
X124115245Y-77613461D01*
X124125000Y-77612500D01*
X125250000Y-77612500D01*
X125259755Y-77613461D01*
G37*
%TD*%
D17*
%TO.C,Q1*%
X109450000Y-80500000D03*
X109450000Y-80999999D03*
X109450000Y-81500000D03*
X109450000Y-81999999D03*
X109450000Y-82500001D03*
X109450000Y-83000000D03*
X109450000Y-83499999D03*
X109450000Y-84000001D03*
X109450000Y-84500000D03*
X109450000Y-85000001D03*
X109450000Y-85500000D03*
X114150000Y-85500000D03*
X114150000Y-85000001D03*
X114150000Y-84500000D03*
X114150000Y-84000001D03*
X114150000Y-83499999D03*
X114150000Y-83000000D03*
X114150000Y-82500001D03*
X114150000Y-81999999D03*
X114150000Y-81500000D03*
X114150000Y-80999999D03*
X114150000Y-80500000D03*
D18*
X109685000Y-79987001D03*
X109685000Y-86012999D03*
X113915000Y-86012999D03*
X113915000Y-79987001D03*
D19*
X111800000Y-83000000D03*
%TD*%
D17*
%TO.C,Q3*%
X109450000Y-87500000D03*
X109450000Y-87999999D03*
X109450000Y-88500000D03*
X109450000Y-88999999D03*
X109450000Y-89500001D03*
X109450000Y-90000000D03*
X109450000Y-90499999D03*
X109450000Y-91000001D03*
X109450000Y-91500000D03*
X109450000Y-92000001D03*
X109450000Y-92500000D03*
X114150000Y-92500000D03*
X114150000Y-92000001D03*
X114150000Y-91500000D03*
X114150000Y-91000001D03*
X114150000Y-90499999D03*
X114150000Y-90000000D03*
X114150000Y-89500001D03*
X114150000Y-88999999D03*
X114150000Y-88500000D03*
X114150000Y-87999999D03*
X114150000Y-87500000D03*
D18*
X109685000Y-86987001D03*
X109685000Y-93012999D03*
X113915000Y-93012999D03*
X113915000Y-86987001D03*
D19*
X111800000Y-90000000D03*
%TD*%
D17*
%TO.C,Q4*%
X140550000Y-93499999D03*
X140550000Y-93000000D03*
X140550000Y-92499999D03*
X140550000Y-92000000D03*
X140550000Y-91499998D03*
X140550000Y-90999999D03*
X140550000Y-90500000D03*
X140550000Y-89999998D03*
X140550000Y-89499999D03*
X140550000Y-88999998D03*
X140550000Y-88499999D03*
X135850000Y-88499999D03*
X135850000Y-88999998D03*
X135850000Y-89499999D03*
X135850000Y-89999998D03*
X135850000Y-90500000D03*
X135850000Y-90999999D03*
X135850000Y-91499998D03*
X135850000Y-92000000D03*
X135850000Y-92499999D03*
X135850000Y-93000000D03*
X135850000Y-93499999D03*
D18*
X140315000Y-94012998D03*
X140315000Y-87987000D03*
X136085000Y-87987000D03*
X136085000Y-94012998D03*
D19*
X138200000Y-90999999D03*
%TD*%
D17*
%TO.C,Q6*%
X140550000Y-86499999D03*
X140550000Y-86000000D03*
X140550000Y-85499999D03*
X140550000Y-85000000D03*
X140550000Y-84499998D03*
X140550000Y-83999999D03*
X140550000Y-83500000D03*
X140550000Y-82999998D03*
X140550000Y-82499999D03*
X140550000Y-81999998D03*
X140550000Y-81499999D03*
X135850000Y-81499999D03*
X135850000Y-81999998D03*
X135850000Y-82499999D03*
X135850000Y-82999998D03*
X135850000Y-83500000D03*
X135850000Y-83999999D03*
X135850000Y-84499998D03*
X135850000Y-85000000D03*
X135850000Y-85499999D03*
X135850000Y-86000000D03*
X135850000Y-86499999D03*
D18*
X140315000Y-87012998D03*
X140315000Y-80987000D03*
X136085000Y-80987000D03*
X136085000Y-87012998D03*
D19*
X138200000Y-83999999D03*
%TD*%
D20*
%TO.C,J15*%
X114270000Y-60740000D03*
D21*
X113000000Y-69260000D03*
%TD*%
D22*
%TO.C,U9*%
X141624999Y-55075000D03*
X141125000Y-55075000D03*
X140624998Y-55075000D03*
X140124999Y-55075000D03*
X139624997Y-55075000D03*
X139124998Y-55075000D03*
X138624999Y-55075000D03*
X138624999Y-56325000D03*
X139124998Y-56325000D03*
X139624997Y-56325000D03*
X140124999Y-56325000D03*
X140624998Y-56325000D03*
X141125000Y-56325000D03*
X141624999Y-56325000D03*
%TD*%
D23*
%TO.C,J2*%
X111500000Y-52700000D03*
X110250000Y-52700000D03*
X109000000Y-52700000D03*
X107750000Y-52700000D03*
G36*
G01*
X106000000Y-53200000D02*
X106000000Y-52200000D01*
G75*
G02*
X106250000Y-51950000I250000J0D01*
G01*
X106750000Y-51950000D01*
G75*
G02*
X107000000Y-52200000I0J-250000D01*
G01*
X107000000Y-53200000D01*
G75*
G02*
X106750000Y-53450000I-250000J0D01*
G01*
X106250000Y-53450000D01*
G75*
G02*
X106000000Y-53200000I0J250000D01*
G01*
G37*
%TD*%
%TO.C,J5*%
X106500000Y-97250000D03*
X107750000Y-97250000D03*
X109000000Y-97250000D03*
X110250000Y-97250000D03*
G36*
G01*
X112000000Y-96750000D02*
X112000000Y-97750000D01*
G75*
G02*
X111750000Y-98000000I-250000J0D01*
G01*
X111250000Y-98000000D01*
G75*
G02*
X111000000Y-97750000I0J250000D01*
G01*
X111000000Y-96750000D01*
G75*
G02*
X111250000Y-96500000I250000J0D01*
G01*
X111750000Y-96500000D01*
G75*
G02*
X112000000Y-96750000I0J-250000D01*
G01*
G37*
%TD*%
%TO.C,J6*%
X138500000Y-97250000D03*
X139750000Y-97250000D03*
X141000000Y-97250000D03*
X142250000Y-97250000D03*
G36*
G01*
X144000000Y-96750000D02*
X144000000Y-97750000D01*
G75*
G02*
X143750000Y-98000000I-250000J0D01*
G01*
X143250000Y-98000000D01*
G75*
G02*
X143000000Y-97750000I0J250000D01*
G01*
X143000000Y-96750000D01*
G75*
G02*
X143250000Y-96500000I250000J0D01*
G01*
X143750000Y-96500000D01*
G75*
G02*
X144000000Y-96750000I0J-250000D01*
G01*
G37*
%TD*%
%TO.C,U10*%
G36*
G01*
X144100000Y-64525000D02*
X144350000Y-64525000D01*
G75*
G02*
X144475000Y-64650000I0J-125000D01*
G01*
X144475000Y-65975000D01*
G75*
G02*
X144350000Y-66100000I-125000J0D01*
G01*
X144100000Y-66100000D01*
G75*
G02*
X143975000Y-65975000I0J125000D01*
G01*
X143975000Y-64650000D01*
G75*
G02*
X144100000Y-64525000I125000J0D01*
G01*
G37*
G36*
G01*
X143450000Y-64525000D02*
X143700000Y-64525000D01*
G75*
G02*
X143825000Y-64650000I0J-125000D01*
G01*
X143825000Y-65975000D01*
G75*
G02*
X143700000Y-66100000I-125000J0D01*
G01*
X143450000Y-66100000D01*
G75*
G02*
X143325000Y-65975000I0J125000D01*
G01*
X143325000Y-64650000D01*
G75*
G02*
X143450000Y-64525000I125000J0D01*
G01*
G37*
G36*
G01*
X142800000Y-64525000D02*
X143050000Y-64525000D01*
G75*
G02*
X143175000Y-64650000I0J-125000D01*
G01*
X143175000Y-65975000D01*
G75*
G02*
X143050000Y-66100000I-125000J0D01*
G01*
X142800000Y-66100000D01*
G75*
G02*
X142675000Y-65975000I0J125000D01*
G01*
X142675000Y-64650000D01*
G75*
G02*
X142800000Y-64525000I125000J0D01*
G01*
G37*
G36*
G01*
X142150000Y-64525000D02*
X142400000Y-64525000D01*
G75*
G02*
X142525000Y-64650000I0J-125000D01*
G01*
X142525000Y-65975000D01*
G75*
G02*
X142400000Y-66100000I-125000J0D01*
G01*
X142150000Y-66100000D01*
G75*
G02*
X142025000Y-65975000I0J125000D01*
G01*
X142025000Y-64650000D01*
G75*
G02*
X142150000Y-64525000I125000J0D01*
G01*
G37*
G36*
G01*
X141500000Y-64525000D02*
X141750000Y-64525000D01*
G75*
G02*
X141875000Y-64650000I0J-125000D01*
G01*
X141875000Y-65975000D01*
G75*
G02*
X141750000Y-66100000I-125000J0D01*
G01*
X141500000Y-66100000D01*
G75*
G02*
X141375000Y-65975000I0J125000D01*
G01*
X141375000Y-64650000D01*
G75*
G02*
X141500000Y-64525000I125000J0D01*
G01*
G37*
G36*
G01*
X140850000Y-64525000D02*
X141100000Y-64525000D01*
G75*
G02*
X141225000Y-64650000I0J-125000D01*
G01*
X141225000Y-65975000D01*
G75*
G02*
X141100000Y-66100000I-125000J0D01*
G01*
X140850000Y-66100000D01*
G75*
G02*
X140725000Y-65975000I0J125000D01*
G01*
X140725000Y-64650000D01*
G75*
G02*
X140850000Y-64525000I125000J0D01*
G01*
G37*
G36*
G01*
X140200000Y-64525000D02*
X140450000Y-64525000D01*
G75*
G02*
X140575000Y-64650000I0J-125000D01*
G01*
X140575000Y-65975000D01*
G75*
G02*
X140450000Y-66100000I-125000J0D01*
G01*
X140200000Y-66100000D01*
G75*
G02*
X140075000Y-65975000I0J125000D01*
G01*
X140075000Y-64650000D01*
G75*
G02*
X140200000Y-64525000I125000J0D01*
G01*
G37*
G36*
G01*
X139550000Y-64525000D02*
X139800000Y-64525000D01*
G75*
G02*
X139925000Y-64650000I0J-125000D01*
G01*
X139925000Y-65975000D01*
G75*
G02*
X139800000Y-66100000I-125000J0D01*
G01*
X139550000Y-66100000D01*
G75*
G02*
X139425000Y-65975000I0J125000D01*
G01*
X139425000Y-64650000D01*
G75*
G02*
X139550000Y-64525000I125000J0D01*
G01*
G37*
G36*
G01*
X139550000Y-58800000D02*
X139800000Y-58800000D01*
G75*
G02*
X139925000Y-58925000I0J-125000D01*
G01*
X139925000Y-60250000D01*
G75*
G02*
X139800000Y-60375000I-125000J0D01*
G01*
X139550000Y-60375000D01*
G75*
G02*
X139425000Y-60250000I0J125000D01*
G01*
X139425000Y-58925000D01*
G75*
G02*
X139550000Y-58800000I125000J0D01*
G01*
G37*
G36*
G01*
X140200000Y-58800000D02*
X140450000Y-58800000D01*
G75*
G02*
X140575000Y-58925000I0J-125000D01*
G01*
X140575000Y-60250000D01*
G75*
G02*
X140450000Y-60375000I-125000J0D01*
G01*
X140200000Y-60375000D01*
G75*
G02*
X140075000Y-60250000I0J125000D01*
G01*
X140075000Y-58925000D01*
G75*
G02*
X140200000Y-58800000I125000J0D01*
G01*
G37*
G36*
G01*
X140850000Y-58800000D02*
X141100000Y-58800000D01*
G75*
G02*
X141225000Y-58925000I0J-125000D01*
G01*
X141225000Y-60250000D01*
G75*
G02*
X141100000Y-60375000I-125000J0D01*
G01*
X140850000Y-60375000D01*
G75*
G02*
X140725000Y-60250000I0J125000D01*
G01*
X140725000Y-58925000D01*
G75*
G02*
X140850000Y-58800000I125000J0D01*
G01*
G37*
G36*
G01*
X141500000Y-58800000D02*
X141750000Y-58800000D01*
G75*
G02*
X141875000Y-58925000I0J-125000D01*
G01*
X141875000Y-60250000D01*
G75*
G02*
X141750000Y-60375000I-125000J0D01*
G01*
X141500000Y-60375000D01*
G75*
G02*
X141375000Y-60250000I0J125000D01*
G01*
X141375000Y-58925000D01*
G75*
G02*
X141500000Y-58800000I125000J0D01*
G01*
G37*
G36*
G01*
X142150000Y-58800000D02*
X142400000Y-58800000D01*
G75*
G02*
X142525000Y-58925000I0J-125000D01*
G01*
X142525000Y-60250000D01*
G75*
G02*
X142400000Y-60375000I-125000J0D01*
G01*
X142150000Y-60375000D01*
G75*
G02*
X142025000Y-60250000I0J125000D01*
G01*
X142025000Y-58925000D01*
G75*
G02*
X142150000Y-58800000I125000J0D01*
G01*
G37*
G36*
G01*
X142800000Y-58800000D02*
X143050000Y-58800000D01*
G75*
G02*
X143175000Y-58925000I0J-125000D01*
G01*
X143175000Y-60250000D01*
G75*
G02*
X143050000Y-60375000I-125000J0D01*
G01*
X142800000Y-60375000D01*
G75*
G02*
X142675000Y-60250000I0J125000D01*
G01*
X142675000Y-58925000D01*
G75*
G02*
X142800000Y-58800000I125000J0D01*
G01*
G37*
G36*
G01*
X143450000Y-58800000D02*
X143700000Y-58800000D01*
G75*
G02*
X143825000Y-58925000I0J-125000D01*
G01*
X143825000Y-60250000D01*
G75*
G02*
X143700000Y-60375000I-125000J0D01*
G01*
X143450000Y-60375000D01*
G75*
G02*
X143325000Y-60250000I0J125000D01*
G01*
X143325000Y-58925000D01*
G75*
G02*
X143450000Y-58800000I125000J0D01*
G01*
G37*
G36*
G01*
X144100000Y-58800000D02*
X144350000Y-58800000D01*
G75*
G02*
X144475000Y-58925000I0J-125000D01*
G01*
X144475000Y-60250000D01*
G75*
G02*
X144350000Y-60375000I-125000J0D01*
G01*
X144100000Y-60375000D01*
G75*
G02*
X143975000Y-60250000I0J125000D01*
G01*
X143975000Y-58925000D01*
G75*
G02*
X144100000Y-58800000I125000J0D01*
G01*
G37*
%TD*%
%TO.C,C92*%
G36*
G01*
X135437500Y-73643750D02*
X135437500Y-74606250D01*
G75*
G02*
X135168750Y-74875000I-268750J0D01*
G01*
X134631250Y-74875000D01*
G75*
G02*
X134362500Y-74606250I0J268750D01*
G01*
X134362500Y-73643750D01*
G75*
G02*
X134631250Y-73375000I268750J0D01*
G01*
X135168750Y-73375000D01*
G75*
G02*
X135437500Y-73643750I0J-268750D01*
G01*
G37*
G36*
G01*
X137312500Y-73643750D02*
X137312500Y-74606250D01*
G75*
G02*
X137043750Y-74875000I-268750J0D01*
G01*
X136506250Y-74875000D01*
G75*
G02*
X136237500Y-74606250I0J268750D01*
G01*
X136237500Y-73643750D01*
G75*
G02*
X136506250Y-73375000I268750J0D01*
G01*
X137043750Y-73375000D01*
G75*
G02*
X137312500Y-73643750I0J-268750D01*
G01*
G37*
%TD*%
%TO.C,R54*%
G36*
G01*
X147705000Y-76370000D02*
X147955000Y-76370000D01*
G75*
G02*
X148080000Y-76495000I0J-125000D01*
G01*
X148080000Y-76805000D01*
G75*
G02*
X147955000Y-76930000I-125000J0D01*
G01*
X147705000Y-76930000D01*
G75*
G02*
X147580000Y-76805000I0J125000D01*
G01*
X147580000Y-76495000D01*
G75*
G02*
X147705000Y-76370000I125000J0D01*
G01*
G37*
G36*
G01*
X147705000Y-75730000D02*
X147955000Y-75730000D01*
G75*
G02*
X148080000Y-75855000I0J-125000D01*
G01*
X148080000Y-76165000D01*
G75*
G02*
X147955000Y-76290000I-125000J0D01*
G01*
X147705000Y-76290000D01*
G75*
G02*
X147580000Y-76165000I0J125000D01*
G01*
X147580000Y-75855000D01*
G75*
G02*
X147705000Y-75730000I125000J0D01*
G01*
G37*
%TD*%
%TO.C,R55*%
G36*
G01*
X147705000Y-74820000D02*
X147955000Y-74820000D01*
G75*
G02*
X148080000Y-74945000I0J-125000D01*
G01*
X148080000Y-75255000D01*
G75*
G02*
X147955000Y-75380000I-125000J0D01*
G01*
X147705000Y-75380000D01*
G75*
G02*
X147580000Y-75255000I0J125000D01*
G01*
X147580000Y-74945000D01*
G75*
G02*
X147705000Y-74820000I125000J0D01*
G01*
G37*
G36*
G01*
X147705000Y-74180000D02*
X147955000Y-74180000D01*
G75*
G02*
X148080000Y-74305000I0J-125000D01*
G01*
X148080000Y-74615000D01*
G75*
G02*
X147955000Y-74740000I-125000J0D01*
G01*
X147705000Y-74740000D01*
G75*
G02*
X147580000Y-74615000I0J125000D01*
G01*
X147580000Y-74305000D01*
G75*
G02*
X147705000Y-74180000I125000J0D01*
G01*
G37*
%TD*%
%TO.C,R51*%
G36*
G01*
X147705000Y-77920000D02*
X147955000Y-77920000D01*
G75*
G02*
X148080000Y-78045000I0J-125000D01*
G01*
X148080000Y-78355000D01*
G75*
G02*
X147955000Y-78480000I-125000J0D01*
G01*
X147705000Y-78480000D01*
G75*
G02*
X147580000Y-78355000I0J125000D01*
G01*
X147580000Y-78045000D01*
G75*
G02*
X147705000Y-77920000I125000J0D01*
G01*
G37*
G36*
G01*
X147705000Y-77280000D02*
X147955000Y-77280000D01*
G75*
G02*
X148080000Y-77405000I0J-125000D01*
G01*
X148080000Y-77715000D01*
G75*
G02*
X147955000Y-77840000I-125000J0D01*
G01*
X147705000Y-77840000D01*
G75*
G02*
X147580000Y-77715000I0J125000D01*
G01*
X147580000Y-77405000D01*
G75*
G02*
X147705000Y-77280000I125000J0D01*
G01*
G37*
%TD*%
%TO.C,C101*%
G36*
G01*
X148655000Y-74820000D02*
X148905000Y-74820000D01*
G75*
G02*
X149030000Y-74945000I0J-125000D01*
G01*
X149030000Y-75255000D01*
G75*
G02*
X148905000Y-75380000I-125000J0D01*
G01*
X148655000Y-75380000D01*
G75*
G02*
X148530000Y-75255000I0J125000D01*
G01*
X148530000Y-74945000D01*
G75*
G02*
X148655000Y-74820000I125000J0D01*
G01*
G37*
G36*
G01*
X148655000Y-74180000D02*
X148905000Y-74180000D01*
G75*
G02*
X149030000Y-74305000I0J-125000D01*
G01*
X149030000Y-74615000D01*
G75*
G02*
X148905000Y-74740000I-125000J0D01*
G01*
X148655000Y-74740000D01*
G75*
G02*
X148530000Y-74615000I0J125000D01*
G01*
X148530000Y-74305000D01*
G75*
G02*
X148655000Y-74180000I125000J0D01*
G01*
G37*
%TD*%
%TO.C,C99*%
G36*
G01*
X148655000Y-77920000D02*
X148905000Y-77920000D01*
G75*
G02*
X149030000Y-78045000I0J-125000D01*
G01*
X149030000Y-78355000D01*
G75*
G02*
X148905000Y-78480000I-125000J0D01*
G01*
X148655000Y-78480000D01*
G75*
G02*
X148530000Y-78355000I0J125000D01*
G01*
X148530000Y-78045000D01*
G75*
G02*
X148655000Y-77920000I125000J0D01*
G01*
G37*
G36*
G01*
X148655000Y-77280000D02*
X148905000Y-77280000D01*
G75*
G02*
X149030000Y-77405000I0J-125000D01*
G01*
X149030000Y-77715000D01*
G75*
G02*
X148905000Y-77840000I-125000J0D01*
G01*
X148655000Y-77840000D01*
G75*
G02*
X148530000Y-77715000I0J125000D01*
G01*
X148530000Y-77405000D01*
G75*
G02*
X148655000Y-77280000I125000J0D01*
G01*
G37*
%TD*%
%TO.C,C100*%
G36*
G01*
X148655000Y-76375000D02*
X148905000Y-76375000D01*
G75*
G02*
X149030000Y-76500000I0J-125000D01*
G01*
X149030000Y-76810000D01*
G75*
G02*
X148905000Y-76935000I-125000J0D01*
G01*
X148655000Y-76935000D01*
G75*
G02*
X148530000Y-76810000I0J125000D01*
G01*
X148530000Y-76500000D01*
G75*
G02*
X148655000Y-76375000I125000J0D01*
G01*
G37*
G36*
G01*
X148655000Y-75735000D02*
X148905000Y-75735000D01*
G75*
G02*
X149030000Y-75860000I0J-125000D01*
G01*
X149030000Y-76170000D01*
G75*
G02*
X148905000Y-76295000I-125000J0D01*
G01*
X148655000Y-76295000D01*
G75*
G02*
X148530000Y-76170000I0J125000D01*
G01*
X148530000Y-75860000D01*
G75*
G02*
X148655000Y-75735000I125000J0D01*
G01*
G37*
%TD*%
%TO.C,C94*%
G36*
G01*
X141875000Y-71855000D02*
X141625000Y-71855000D01*
G75*
G02*
X141500000Y-71730000I0J125000D01*
G01*
X141500000Y-71420000D01*
G75*
G02*
X141625000Y-71295000I125000J0D01*
G01*
X141875000Y-71295000D01*
G75*
G02*
X142000000Y-71420000I0J-125000D01*
G01*
X142000000Y-71730000D01*
G75*
G02*
X141875000Y-71855000I-125000J0D01*
G01*
G37*
G36*
G01*
X141875000Y-72495000D02*
X141625000Y-72495000D01*
G75*
G02*
X141500000Y-72370000I0J125000D01*
G01*
X141500000Y-72060000D01*
G75*
G02*
X141625000Y-71935000I125000J0D01*
G01*
X141875000Y-71935000D01*
G75*
G02*
X142000000Y-72060000I0J-125000D01*
G01*
X142000000Y-72370000D01*
G75*
G02*
X141875000Y-72495000I-125000J0D01*
G01*
G37*
%TD*%
%TO.C,C2*%
G36*
G01*
X144135000Y-70150000D02*
X144385000Y-70150000D01*
G75*
G02*
X144510000Y-70275000I0J-125000D01*
G01*
X144510000Y-70585000D01*
G75*
G02*
X144385000Y-70710000I-125000J0D01*
G01*
X144135000Y-70710000D01*
G75*
G02*
X144010000Y-70585000I0J125000D01*
G01*
X144010000Y-70275000D01*
G75*
G02*
X144135000Y-70150000I125000J0D01*
G01*
G37*
G36*
G01*
X144135000Y-69510000D02*
X144385000Y-69510000D01*
G75*
G02*
X144510000Y-69635000I0J-125000D01*
G01*
X144510000Y-69945000D01*
G75*
G02*
X144385000Y-70070000I-125000J0D01*
G01*
X144135000Y-70070000D01*
G75*
G02*
X144010000Y-69945000I0J125000D01*
G01*
X144010000Y-69635000D01*
G75*
G02*
X144135000Y-69510000I125000J0D01*
G01*
G37*
%TD*%
%TO.C,C61*%
G36*
G01*
X115950000Y-98810000D02*
X116200000Y-98810000D01*
G75*
G02*
X116325000Y-98935000I0J-125000D01*
G01*
X116325000Y-99245000D01*
G75*
G02*
X116200000Y-99370000I-125000J0D01*
G01*
X115950000Y-99370000D01*
G75*
G02*
X115825000Y-99245000I0J125000D01*
G01*
X115825000Y-98935000D01*
G75*
G02*
X115950000Y-98810000I125000J0D01*
G01*
G37*
G36*
G01*
X115950000Y-98170000D02*
X116200000Y-98170000D01*
G75*
G02*
X116325000Y-98295000I0J-125000D01*
G01*
X116325000Y-98605000D01*
G75*
G02*
X116200000Y-98730000I-125000J0D01*
G01*
X115950000Y-98730000D01*
G75*
G02*
X115825000Y-98605000I0J125000D01*
G01*
X115825000Y-98295000D01*
G75*
G02*
X115950000Y-98170000I125000J0D01*
G01*
G37*
%TD*%
%TO.C,C62*%
G36*
G01*
X114875000Y-98810000D02*
X115125000Y-98810000D01*
G75*
G02*
X115250000Y-98935000I0J-125000D01*
G01*
X115250000Y-99245000D01*
G75*
G02*
X115125000Y-99370000I-125000J0D01*
G01*
X114875000Y-99370000D01*
G75*
G02*
X114750000Y-99245000I0J125000D01*
G01*
X114750000Y-98935000D01*
G75*
G02*
X114875000Y-98810000I125000J0D01*
G01*
G37*
G36*
G01*
X114875000Y-98170000D02*
X115125000Y-98170000D01*
G75*
G02*
X115250000Y-98295000I0J-125000D01*
G01*
X115250000Y-98605000D01*
G75*
G02*
X115125000Y-98730000I-125000J0D01*
G01*
X114875000Y-98730000D01*
G75*
G02*
X114750000Y-98605000I0J125000D01*
G01*
X114750000Y-98295000D01*
G75*
G02*
X114875000Y-98170000I125000J0D01*
G01*
G37*
%TD*%
%TO.C,C67*%
G36*
G01*
X110415000Y-60835000D02*
X110165000Y-60835000D01*
G75*
G02*
X110040000Y-60710000I0J125000D01*
G01*
X110040000Y-60400000D01*
G75*
G02*
X110165000Y-60275000I125000J0D01*
G01*
X110415000Y-60275000D01*
G75*
G02*
X110540000Y-60400000I0J-125000D01*
G01*
X110540000Y-60710000D01*
G75*
G02*
X110415000Y-60835000I-125000J0D01*
G01*
G37*
G36*
G01*
X110415000Y-61475000D02*
X110165000Y-61475000D01*
G75*
G02*
X110040000Y-61350000I0J125000D01*
G01*
X110040000Y-61040000D01*
G75*
G02*
X110165000Y-60915000I125000J0D01*
G01*
X110415000Y-60915000D01*
G75*
G02*
X110540000Y-61040000I0J-125000D01*
G01*
X110540000Y-61350000D01*
G75*
G02*
X110415000Y-61475000I-125000J0D01*
G01*
G37*
%TD*%
%TO.C,C69*%
G36*
G01*
X125325000Y-52830000D02*
X125075000Y-52830000D01*
G75*
G02*
X124950000Y-52705000I0J125000D01*
G01*
X124950000Y-52395000D01*
G75*
G02*
X125075000Y-52270000I125000J0D01*
G01*
X125325000Y-52270000D01*
G75*
G02*
X125450000Y-52395000I0J-125000D01*
G01*
X125450000Y-52705000D01*
G75*
G02*
X125325000Y-52830000I-125000J0D01*
G01*
G37*
G36*
G01*
X125325000Y-53470000D02*
X125075000Y-53470000D01*
G75*
G02*
X124950000Y-53345000I0J125000D01*
G01*
X124950000Y-53035000D01*
G75*
G02*
X125075000Y-52910000I125000J0D01*
G01*
X125325000Y-52910000D01*
G75*
G02*
X125450000Y-53035000I0J-125000D01*
G01*
X125450000Y-53345000D01*
G75*
G02*
X125325000Y-53470000I-125000J0D01*
G01*
G37*
%TD*%
%TO.C,C71*%
G36*
G01*
X120990000Y-53715000D02*
X120990000Y-53465000D01*
G75*
G02*
X121115000Y-53340000I125000J0D01*
G01*
X121425000Y-53340000D01*
G75*
G02*
X121550000Y-53465000I0J-125000D01*
G01*
X121550000Y-53715000D01*
G75*
G02*
X121425000Y-53840000I-125000J0D01*
G01*
X121115000Y-53840000D01*
G75*
G02*
X120990000Y-53715000I0J125000D01*
G01*
G37*
G36*
G01*
X120350000Y-53715000D02*
X120350000Y-53465000D01*
G75*
G02*
X120475000Y-53340000I125000J0D01*
G01*
X120785000Y-53340000D01*
G75*
G02*
X120910000Y-53465000I0J-125000D01*
G01*
X120910000Y-53715000D01*
G75*
G02*
X120785000Y-53840000I-125000J0D01*
G01*
X120475000Y-53840000D01*
G75*
G02*
X120350000Y-53715000I0J125000D01*
G01*
G37*
%TD*%
%TO.C,C80*%
G36*
G01*
X117340000Y-79120000D02*
X117340000Y-78870000D01*
G75*
G02*
X117465000Y-78745000I125000J0D01*
G01*
X117775000Y-78745000D01*
G75*
G02*
X117900000Y-78870000I0J-125000D01*
G01*
X117900000Y-79120000D01*
G75*
G02*
X117775000Y-79245000I-125000J0D01*
G01*
X117465000Y-79245000D01*
G75*
G02*
X117340000Y-79120000I0J125000D01*
G01*
G37*
G36*
G01*
X116700000Y-79120000D02*
X116700000Y-78870000D01*
G75*
G02*
X116825000Y-78745000I125000J0D01*
G01*
X117135000Y-78745000D01*
G75*
G02*
X117260000Y-78870000I0J-125000D01*
G01*
X117260000Y-79120000D01*
G75*
G02*
X117135000Y-79245000I-125000J0D01*
G01*
X116825000Y-79245000D01*
G75*
G02*
X116700000Y-79120000I0J125000D01*
G01*
G37*
%TD*%
%TO.C,C82*%
G36*
G01*
X102310000Y-75825000D02*
X102310000Y-76075000D01*
G75*
G02*
X102185000Y-76200000I-125000J0D01*
G01*
X101875000Y-76200000D01*
G75*
G02*
X101750000Y-76075000I0J125000D01*
G01*
X101750000Y-75825000D01*
G75*
G02*
X101875000Y-75700000I125000J0D01*
G01*
X102185000Y-75700000D01*
G75*
G02*
X102310000Y-75825000I0J-125000D01*
G01*
G37*
G36*
G01*
X102950000Y-75825000D02*
X102950000Y-76075000D01*
G75*
G02*
X102825000Y-76200000I-125000J0D01*
G01*
X102515000Y-76200000D01*
G75*
G02*
X102390000Y-76075000I0J125000D01*
G01*
X102390000Y-75825000D01*
G75*
G02*
X102515000Y-75700000I125000J0D01*
G01*
X102825000Y-75700000D01*
G75*
G02*
X102950000Y-75825000I0J-125000D01*
G01*
G37*
%TD*%
%TO.C,C87*%
G36*
G01*
X117340000Y-95125000D02*
X117340000Y-94875000D01*
G75*
G02*
X117465000Y-94750000I125000J0D01*
G01*
X117775000Y-94750000D01*
G75*
G02*
X117900000Y-94875000I0J-125000D01*
G01*
X117900000Y-95125000D01*
G75*
G02*
X117775000Y-95250000I-125000J0D01*
G01*
X117465000Y-95250000D01*
G75*
G02*
X117340000Y-95125000I0J125000D01*
G01*
G37*
G36*
G01*
X116700000Y-95125000D02*
X116700000Y-94875000D01*
G75*
G02*
X116825000Y-94750000I125000J0D01*
G01*
X117135000Y-94750000D01*
G75*
G02*
X117260000Y-94875000I0J-125000D01*
G01*
X117260000Y-95125000D01*
G75*
G02*
X117135000Y-95250000I-125000J0D01*
G01*
X116825000Y-95250000D01*
G75*
G02*
X116700000Y-95125000I0J125000D01*
G01*
G37*
%TD*%
%TO.C,C90*%
G36*
G01*
X138127500Y-76155000D02*
X138522500Y-76155000D01*
G75*
G02*
X138695000Y-76327500I0J-172500D01*
G01*
X138695000Y-76672500D01*
G75*
G02*
X138522500Y-76845000I-172500J0D01*
G01*
X138127500Y-76845000D01*
G75*
G02*
X137955000Y-76672500I0J172500D01*
G01*
X137955000Y-76327500D01*
G75*
G02*
X138127500Y-76155000I172500J0D01*
G01*
G37*
G36*
G01*
X138127500Y-75185000D02*
X138522500Y-75185000D01*
G75*
G02*
X138695000Y-75357500I0J-172500D01*
G01*
X138695000Y-75702500D01*
G75*
G02*
X138522500Y-75875000I-172500J0D01*
G01*
X138127500Y-75875000D01*
G75*
G02*
X137955000Y-75702500I0J172500D01*
G01*
X137955000Y-75357500D01*
G75*
G02*
X138127500Y-75185000I172500J0D01*
G01*
G37*
%TD*%
%TO.C,C91*%
G36*
G01*
X134700000Y-75795000D02*
X134700000Y-78005000D01*
G75*
G02*
X134430000Y-78275000I-270000J0D01*
G01*
X133620000Y-78275000D01*
G75*
G02*
X133350000Y-78005000I0J270000D01*
G01*
X133350000Y-75795000D01*
G75*
G02*
X133620000Y-75525000I270000J0D01*
G01*
X134430000Y-75525000D01*
G75*
G02*
X134700000Y-75795000I0J-270000D01*
G01*
G37*
G36*
G01*
X137500000Y-75795000D02*
X137500000Y-78005000D01*
G75*
G02*
X137230000Y-78275000I-270000J0D01*
G01*
X136420000Y-78275000D01*
G75*
G02*
X136150000Y-78005000I0J270000D01*
G01*
X136150000Y-75795000D01*
G75*
G02*
X136420000Y-75525000I270000J0D01*
G01*
X137230000Y-75525000D01*
G75*
G02*
X137500000Y-75795000I0J-270000D01*
G01*
G37*
%TD*%
%TO.C,C93*%
G36*
G01*
X140405000Y-72322500D02*
X140405000Y-71927500D01*
G75*
G02*
X140577500Y-71755000I172500J0D01*
G01*
X140922500Y-71755000D01*
G75*
G02*
X141095000Y-71927500I0J-172500D01*
G01*
X141095000Y-72322500D01*
G75*
G02*
X140922500Y-72495000I-172500J0D01*
G01*
X140577500Y-72495000D01*
G75*
G02*
X140405000Y-72322500I0J172500D01*
G01*
G37*
G36*
G01*
X139435000Y-72322500D02*
X139435000Y-71927500D01*
G75*
G02*
X139607500Y-71755000I172500J0D01*
G01*
X139952500Y-71755000D01*
G75*
G02*
X140125000Y-71927500I0J-172500D01*
G01*
X140125000Y-72322500D01*
G75*
G02*
X139952500Y-72495000I-172500J0D01*
G01*
X139607500Y-72495000D01*
G75*
G02*
X139435000Y-72322500I0J172500D01*
G01*
G37*
%TD*%
%TO.C,C95*%
G36*
G01*
X138706250Y-73050000D02*
X138143750Y-73050000D01*
G75*
G02*
X137900000Y-72806250I0J243750D01*
G01*
X137900000Y-72318750D01*
G75*
G02*
X138143750Y-72075000I243750J0D01*
G01*
X138706250Y-72075000D01*
G75*
G02*
X138950000Y-72318750I0J-243750D01*
G01*
X138950000Y-72806250D01*
G75*
G02*
X138706250Y-73050000I-243750J0D01*
G01*
G37*
G36*
G01*
X138706250Y-74625000D02*
X138143750Y-74625000D01*
G75*
G02*
X137900000Y-74381250I0J243750D01*
G01*
X137900000Y-73893750D01*
G75*
G02*
X138143750Y-73650000I243750J0D01*
G01*
X138706250Y-73650000D01*
G75*
G02*
X138950000Y-73893750I0J-243750D01*
G01*
X138950000Y-74381250D01*
G75*
G02*
X138706250Y-74625000I-243750J0D01*
G01*
G37*
%TD*%
%TO.C,C96*%
G36*
G01*
X132660000Y-94875000D02*
X132660000Y-95125000D01*
G75*
G02*
X132535000Y-95250000I-125000J0D01*
G01*
X132225000Y-95250000D01*
G75*
G02*
X132100000Y-95125000I0J125000D01*
G01*
X132100000Y-94875000D01*
G75*
G02*
X132225000Y-94750000I125000J0D01*
G01*
X132535000Y-94750000D01*
G75*
G02*
X132660000Y-94875000I0J-125000D01*
G01*
G37*
G36*
G01*
X133300000Y-94875000D02*
X133300000Y-95125000D01*
G75*
G02*
X133175000Y-95250000I-125000J0D01*
G01*
X132865000Y-95250000D01*
G75*
G02*
X132740000Y-95125000I0J125000D01*
G01*
X132740000Y-94875000D01*
G75*
G02*
X132865000Y-94750000I125000J0D01*
G01*
X133175000Y-94750000D01*
G75*
G02*
X133300000Y-94875000I0J-125000D01*
G01*
G37*
%TD*%
%TO.C,C103*%
G36*
G01*
X132660000Y-78875000D02*
X132660000Y-79125000D01*
G75*
G02*
X132535000Y-79250000I-125000J0D01*
G01*
X132225000Y-79250000D01*
G75*
G02*
X132100000Y-79125000I0J125000D01*
G01*
X132100000Y-78875000D01*
G75*
G02*
X132225000Y-78750000I125000J0D01*
G01*
X132535000Y-78750000D01*
G75*
G02*
X132660000Y-78875000I0J-125000D01*
G01*
G37*
G36*
G01*
X133300000Y-78875000D02*
X133300000Y-79125000D01*
G75*
G02*
X133175000Y-79250000I-125000J0D01*
G01*
X132865000Y-79250000D01*
G75*
G02*
X132740000Y-79125000I0J125000D01*
G01*
X132740000Y-78875000D01*
G75*
G02*
X132865000Y-78750000I125000J0D01*
G01*
X133175000Y-78750000D01*
G75*
G02*
X133300000Y-78875000I0J-125000D01*
G01*
G37*
%TD*%
%TO.C,D3*%
G36*
G01*
X101025000Y-73272500D02*
X101025000Y-73667500D01*
G75*
G02*
X100852500Y-73840000I-172500J0D01*
G01*
X100507500Y-73840000D01*
G75*
G02*
X100335000Y-73667500I0J172500D01*
G01*
X100335000Y-73272500D01*
G75*
G02*
X100507500Y-73100000I172500J0D01*
G01*
X100852500Y-73100000D01*
G75*
G02*
X101025000Y-73272500I0J-172500D01*
G01*
G37*
G36*
G01*
X101995000Y-73272500D02*
X101995000Y-73667500D01*
G75*
G02*
X101822500Y-73840000I-172500J0D01*
G01*
X101477500Y-73840000D01*
G75*
G02*
X101305000Y-73667500I0J172500D01*
G01*
X101305000Y-73272500D01*
G75*
G02*
X101477500Y-73100000I172500J0D01*
G01*
X101822500Y-73100000D01*
G75*
G02*
X101995000Y-73272500I0J-172500D01*
G01*
G37*
%TD*%
%TO.C,D4*%
G36*
G01*
X148455000Y-73407500D02*
X148455000Y-73012500D01*
G75*
G02*
X148627500Y-72840000I172500J0D01*
G01*
X148972500Y-72840000D01*
G75*
G02*
X149145000Y-73012500I0J-172500D01*
G01*
X149145000Y-73407500D01*
G75*
G02*
X148972500Y-73580000I-172500J0D01*
G01*
X148627500Y-73580000D01*
G75*
G02*
X148455000Y-73407500I0J172500D01*
G01*
G37*
G36*
G01*
X147485000Y-73407500D02*
X147485000Y-73012500D01*
G75*
G02*
X147657500Y-72840000I172500J0D01*
G01*
X148002500Y-72840000D01*
G75*
G02*
X148175000Y-73012500I0J-172500D01*
G01*
X148175000Y-73407500D01*
G75*
G02*
X148002500Y-73580000I-172500J0D01*
G01*
X147657500Y-73580000D01*
G75*
G02*
X147485000Y-73407500I0J172500D01*
G01*
G37*
%TD*%
D24*
%TO.C,D5*%
X109755000Y-64690000D03*
X106555000Y-64690000D03*
X109755000Y-69590000D03*
X106555000Y-69590000D03*
%TD*%
D25*
%TO.C,J9*%
X132760000Y-52650000D03*
X132760000Y-51380000D03*
X131490000Y-52650000D03*
X131490000Y-51380000D03*
X130220000Y-52650000D03*
X130220000Y-51380000D03*
X128950000Y-52650000D03*
D26*
X128950000Y-51380000D03*
%TD*%
%TO.C,R2*%
G36*
G01*
X145235000Y-69430000D02*
X144985000Y-69430000D01*
G75*
G02*
X144860000Y-69305000I0J125000D01*
G01*
X144860000Y-68995000D01*
G75*
G02*
X144985000Y-68870000I125000J0D01*
G01*
X145235000Y-68870000D01*
G75*
G02*
X145360000Y-68995000I0J-125000D01*
G01*
X145360000Y-69305000D01*
G75*
G02*
X145235000Y-69430000I-125000J0D01*
G01*
G37*
G36*
G01*
X145235000Y-70070000D02*
X144985000Y-70070000D01*
G75*
G02*
X144860000Y-69945000I0J125000D01*
G01*
X144860000Y-69635000D01*
G75*
G02*
X144985000Y-69510000I125000J0D01*
G01*
X145235000Y-69510000D01*
G75*
G02*
X145360000Y-69635000I0J-125000D01*
G01*
X145360000Y-69945000D01*
G75*
G02*
X145235000Y-70070000I-125000J0D01*
G01*
G37*
%TD*%
%TO.C,R3*%
G36*
G01*
X121219600Y-80088200D02*
X121219600Y-80338200D01*
G75*
G02*
X121094600Y-80463200I-125000J0D01*
G01*
X120784600Y-80463200D01*
G75*
G02*
X120659600Y-80338200I0J125000D01*
G01*
X120659600Y-80088200D01*
G75*
G02*
X120784600Y-79963200I125000J0D01*
G01*
X121094600Y-79963200D01*
G75*
G02*
X121219600Y-80088200I0J-125000D01*
G01*
G37*
G36*
G01*
X121859600Y-80088200D02*
X121859600Y-80338200D01*
G75*
G02*
X121734600Y-80463200I-125000J0D01*
G01*
X121424600Y-80463200D01*
G75*
G02*
X121299600Y-80338200I0J125000D01*
G01*
X121299600Y-80088200D01*
G75*
G02*
X121424600Y-79963200I125000J0D01*
G01*
X121734600Y-79963200D01*
G75*
G02*
X121859600Y-80088200I0J-125000D01*
G01*
G37*
%TD*%
%TO.C,R21*%
G36*
G01*
X105025000Y-61485000D02*
X104775000Y-61485000D01*
G75*
G02*
X104650000Y-61360000I0J125000D01*
G01*
X104650000Y-61050000D01*
G75*
G02*
X104775000Y-60925000I125000J0D01*
G01*
X105025000Y-60925000D01*
G75*
G02*
X105150000Y-61050000I0J-125000D01*
G01*
X105150000Y-61360000D01*
G75*
G02*
X105025000Y-61485000I-125000J0D01*
G01*
G37*
G36*
G01*
X105025000Y-62125000D02*
X104775000Y-62125000D01*
G75*
G02*
X104650000Y-62000000I0J125000D01*
G01*
X104650000Y-61690000D01*
G75*
G02*
X104775000Y-61565000I125000J0D01*
G01*
X105025000Y-61565000D01*
G75*
G02*
X105150000Y-61690000I0J-125000D01*
G01*
X105150000Y-62000000D01*
G75*
G02*
X105025000Y-62125000I-125000J0D01*
G01*
G37*
%TD*%
%TO.C,R22*%
G36*
G01*
X143935000Y-58275000D02*
X143935000Y-58025000D01*
G75*
G02*
X144060000Y-57900000I125000J0D01*
G01*
X144370000Y-57900000D01*
G75*
G02*
X144495000Y-58025000I0J-125000D01*
G01*
X144495000Y-58275000D01*
G75*
G02*
X144370000Y-58400000I-125000J0D01*
G01*
X144060000Y-58400000D01*
G75*
G02*
X143935000Y-58275000I0J125000D01*
G01*
G37*
G36*
G01*
X143295000Y-58275000D02*
X143295000Y-58025000D01*
G75*
G02*
X143420000Y-57900000I125000J0D01*
G01*
X143730000Y-57900000D01*
G75*
G02*
X143855000Y-58025000I0J-125000D01*
G01*
X143855000Y-58275000D01*
G75*
G02*
X143730000Y-58400000I-125000J0D01*
G01*
X143420000Y-58400000D01*
G75*
G02*
X143295000Y-58275000I0J125000D01*
G01*
G37*
%TD*%
%TO.C,R23*%
G36*
G01*
X140334998Y-57124999D02*
X140334998Y-57374999D01*
G75*
G02*
X140209998Y-57499999I-125000J0D01*
G01*
X139899998Y-57499999D01*
G75*
G02*
X139774998Y-57374999I0J125000D01*
G01*
X139774998Y-57124999D01*
G75*
G02*
X139899998Y-56999999I125000J0D01*
G01*
X140209998Y-56999999D01*
G75*
G02*
X140334998Y-57124999I0J-125000D01*
G01*
G37*
G36*
G01*
X140974998Y-57124999D02*
X140974998Y-57374999D01*
G75*
G02*
X140849998Y-57499999I-125000J0D01*
G01*
X140539998Y-57499999D01*
G75*
G02*
X140414998Y-57374999I0J125000D01*
G01*
X140414998Y-57124999D01*
G75*
G02*
X140539998Y-56999999I125000J0D01*
G01*
X140849998Y-56999999D01*
G75*
G02*
X140974998Y-57124999I0J-125000D01*
G01*
G37*
%TD*%
%TO.C,R24*%
G36*
G01*
X138834998Y-57124999D02*
X138834998Y-57374999D01*
G75*
G02*
X138709998Y-57499999I-125000J0D01*
G01*
X138399998Y-57499999D01*
G75*
G02*
X138274998Y-57374999I0J125000D01*
G01*
X138274998Y-57124999D01*
G75*
G02*
X138399998Y-56999999I125000J0D01*
G01*
X138709998Y-56999999D01*
G75*
G02*
X138834998Y-57124999I0J-125000D01*
G01*
G37*
G36*
G01*
X139474998Y-57124999D02*
X139474998Y-57374999D01*
G75*
G02*
X139349998Y-57499999I-125000J0D01*
G01*
X139039998Y-57499999D01*
G75*
G02*
X138914998Y-57374999I0J125000D01*
G01*
X138914998Y-57124999D01*
G75*
G02*
X139039998Y-56999999I125000J0D01*
G01*
X139349998Y-56999999D01*
G75*
G02*
X139474998Y-57124999I0J-125000D01*
G01*
G37*
%TD*%
%TO.C,R29*%
G36*
G01*
X120910000Y-52615000D02*
X120910000Y-52865000D01*
G75*
G02*
X120785000Y-52990000I-125000J0D01*
G01*
X120475000Y-52990000D01*
G75*
G02*
X120350000Y-52865000I0J125000D01*
G01*
X120350000Y-52615000D01*
G75*
G02*
X120475000Y-52490000I125000J0D01*
G01*
X120785000Y-52490000D01*
G75*
G02*
X120910000Y-52615000I0J-125000D01*
G01*
G37*
G36*
G01*
X121550000Y-52615000D02*
X121550000Y-52865000D01*
G75*
G02*
X121425000Y-52990000I-125000J0D01*
G01*
X121115000Y-52990000D01*
G75*
G02*
X120990000Y-52865000I0J125000D01*
G01*
X120990000Y-52615000D01*
G75*
G02*
X121115000Y-52490000I125000J0D01*
G01*
X121425000Y-52490000D01*
G75*
G02*
X121550000Y-52615000I0J-125000D01*
G01*
G37*
%TD*%
%TO.C,R30*%
G36*
G01*
X127075000Y-51740000D02*
X127325000Y-51740000D01*
G75*
G02*
X127450000Y-51865000I0J-125000D01*
G01*
X127450000Y-52175000D01*
G75*
G02*
X127325000Y-52300000I-125000J0D01*
G01*
X127075000Y-52300000D01*
G75*
G02*
X126950000Y-52175000I0J125000D01*
G01*
X126950000Y-51865000D01*
G75*
G02*
X127075000Y-51740000I125000J0D01*
G01*
G37*
G36*
G01*
X127075000Y-51100000D02*
X127325000Y-51100000D01*
G75*
G02*
X127450000Y-51225000I0J-125000D01*
G01*
X127450000Y-51535000D01*
G75*
G02*
X127325000Y-51660000I-125000J0D01*
G01*
X127075000Y-51660000D01*
G75*
G02*
X126950000Y-51535000I0J125000D01*
G01*
X126950000Y-51225000D01*
G75*
G02*
X127075000Y-51100000I125000J0D01*
G01*
G37*
%TD*%
D27*
%TO.C,R35*%
X118900000Y-79950000D03*
X115700000Y-79950000D03*
D28*
X118900000Y-83500000D03*
X115700000Y-83500000D03*
%TD*%
D27*
%TO.C,R44*%
X115700000Y-94050000D03*
X118900000Y-94050000D03*
D28*
X115700000Y-90500000D03*
X118900000Y-90500000D03*
%TD*%
D27*
%TO.C,R49*%
X131100000Y-94050000D03*
X134300000Y-94050000D03*
D28*
X131100000Y-90500000D03*
X134300000Y-90500000D03*
%TD*%
D27*
%TO.C,R58*%
X134300000Y-79950000D03*
X131100000Y-79950000D03*
D28*
X134300000Y-83500000D03*
X131100000Y-83500000D03*
%TD*%
D29*
%TO.C,SW1*%
X117800000Y-52090000D03*
X114400000Y-52090000D03*
%TD*%
D30*
%TO.C,U8*%
X106260000Y-62495000D03*
X106260000Y-61855000D03*
X106260000Y-61195000D03*
X106260000Y-60555000D03*
X108880000Y-60555000D03*
X108880000Y-61195000D03*
X108880000Y-61855000D03*
X108880000Y-62495000D03*
%TD*%
%TO.C,D1*%
G36*
G01*
X123670000Y-50987500D02*
X123670000Y-50592500D01*
G75*
G02*
X123842500Y-50420000I172500J0D01*
G01*
X124187500Y-50420000D01*
G75*
G02*
X124360000Y-50592500I0J-172500D01*
G01*
X124360000Y-50987500D01*
G75*
G02*
X124187500Y-51160000I-172500J0D01*
G01*
X123842500Y-51160000D01*
G75*
G02*
X123670000Y-50987500I0J172500D01*
G01*
G37*
G36*
G01*
X122700000Y-50987500D02*
X122700000Y-50592500D01*
G75*
G02*
X122872500Y-50420000I172500J0D01*
G01*
X123217500Y-50420000D01*
G75*
G02*
X123390000Y-50592500I0J-172500D01*
G01*
X123390000Y-50987500D01*
G75*
G02*
X123217500Y-51160000I-172500J0D01*
G01*
X122872500Y-51160000D01*
G75*
G02*
X122700000Y-50987500I0J172500D01*
G01*
G37*
%TD*%
D31*
%TO.C,Q7*%
X119575000Y-51590000D03*
X120025000Y-51590000D03*
D32*
X119800000Y-50890000D03*
%TD*%
%TO.C,R4*%
G36*
G01*
X121460000Y-50665000D02*
X121460000Y-50915000D01*
G75*
G02*
X121335000Y-51040000I-125000J0D01*
G01*
X121025000Y-51040000D01*
G75*
G02*
X120900000Y-50915000I0J125000D01*
G01*
X120900000Y-50665000D01*
G75*
G02*
X121025000Y-50540000I125000J0D01*
G01*
X121335000Y-50540000D01*
G75*
G02*
X121460000Y-50665000I0J-125000D01*
G01*
G37*
G36*
G01*
X122100000Y-50665000D02*
X122100000Y-50915000D01*
G75*
G02*
X121975000Y-51040000I-125000J0D01*
G01*
X121665000Y-51040000D01*
G75*
G02*
X121540000Y-50915000I0J125000D01*
G01*
X121540000Y-50665000D01*
G75*
G02*
X121665000Y-50540000I125000J0D01*
G01*
X121975000Y-50540000D01*
G75*
G02*
X122100000Y-50665000I0J-125000D01*
G01*
G37*
%TD*%
D33*
%TO.C,H1*%
X102000000Y-98000000D03*
%TD*%
%TO.C,H2*%
X148000000Y-52000000D03*
%TD*%
%TO.C,H3*%
X102000000Y-52000000D03*
%TD*%
%TO.C,H4*%
X148000000Y-98000000D03*
%TD*%
%TO.C,C20*%
G36*
G01*
X131450000Y-95845000D02*
X131450000Y-96095000D01*
G75*
G02*
X131325000Y-96220000I-125000J0D01*
G01*
X131015000Y-96220000D01*
G75*
G02*
X130890000Y-96095000I0J125000D01*
G01*
X130890000Y-95845000D01*
G75*
G02*
X131015000Y-95720000I125000J0D01*
G01*
X131325000Y-95720000D01*
G75*
G02*
X131450000Y-95845000I0J-125000D01*
G01*
G37*
G36*
G01*
X132090000Y-95845000D02*
X132090000Y-96095000D01*
G75*
G02*
X131965000Y-96220000I-125000J0D01*
G01*
X131655000Y-96220000D01*
G75*
G02*
X131530000Y-96095000I0J125000D01*
G01*
X131530000Y-95845000D01*
G75*
G02*
X131655000Y-95720000I125000J0D01*
G01*
X131965000Y-95720000D01*
G75*
G02*
X132090000Y-95845000I0J-125000D01*
G01*
G37*
%TD*%
%TO.C,C24*%
G36*
G01*
X135630000Y-96270000D02*
X135630000Y-96020000D01*
G75*
G02*
X135755000Y-95895000I125000J0D01*
G01*
X136065000Y-95895000D01*
G75*
G02*
X136190000Y-96020000I0J-125000D01*
G01*
X136190000Y-96270000D01*
G75*
G02*
X136065000Y-96395000I-125000J0D01*
G01*
X135755000Y-96395000D01*
G75*
G02*
X135630000Y-96270000I0J125000D01*
G01*
G37*
G36*
G01*
X134990000Y-96270000D02*
X134990000Y-96020000D01*
G75*
G02*
X135115000Y-95895000I125000J0D01*
G01*
X135425000Y-95895000D01*
G75*
G02*
X135550000Y-96020000I0J-125000D01*
G01*
X135550000Y-96270000D01*
G75*
G02*
X135425000Y-96395000I-125000J0D01*
G01*
X135115000Y-96395000D01*
G75*
G02*
X134990000Y-96270000I0J125000D01*
G01*
G37*
%TD*%
D34*
%TO.C,U7*%
X116075000Y-97595000D03*
D35*
X115650000Y-97420000D03*
D36*
X115000000Y-97420000D03*
X115000000Y-97020000D03*
X115000000Y-96620000D03*
X115000000Y-96220000D03*
X115000000Y-95820000D03*
D35*
X115650000Y-95820000D03*
D36*
X116300000Y-95820000D03*
X116300000Y-96220000D03*
X116300000Y-96620000D03*
X116300000Y-97020000D03*
X116300000Y-97420000D03*
%TD*%
D34*
%TO.C,U17*%
X133115000Y-95970000D03*
D35*
X133540000Y-96145000D03*
D36*
X134190000Y-96145000D03*
X134190000Y-96545000D03*
X134190000Y-96945000D03*
X134190000Y-97345000D03*
X134190000Y-97745000D03*
D35*
X133540000Y-97745000D03*
D36*
X132890000Y-97745000D03*
X132890000Y-97345000D03*
X132890000Y-96945000D03*
X132890000Y-96545000D03*
X132890000Y-96145000D03*
%TD*%
%TO.C,D13*%
G36*
G01*
X143535000Y-69430000D02*
X143285000Y-69430000D01*
G75*
G02*
X143160000Y-69305000I0J125000D01*
G01*
X143160000Y-68995000D01*
G75*
G02*
X143285000Y-68870000I125000J0D01*
G01*
X143535000Y-68870000D01*
G75*
G02*
X143660000Y-68995000I0J-125000D01*
G01*
X143660000Y-69305000D01*
G75*
G02*
X143535000Y-69430000I-125000J0D01*
G01*
G37*
G36*
G01*
X143535000Y-70070000D02*
X143285000Y-70070000D01*
G75*
G02*
X143160000Y-69945000I0J125000D01*
G01*
X143160000Y-69635000D01*
G75*
G02*
X143285000Y-69510000I125000J0D01*
G01*
X143535000Y-69510000D01*
G75*
G02*
X143660000Y-69635000I0J-125000D01*
G01*
X143660000Y-69945000D01*
G75*
G02*
X143535000Y-70070000I-125000J0D01*
G01*
G37*
%TD*%
%TO.C,R7*%
G36*
G01*
X126810000Y-53465000D02*
X126810000Y-53715000D01*
G75*
G02*
X126685000Y-53840000I-125000J0D01*
G01*
X126375000Y-53840000D01*
G75*
G02*
X126250000Y-53715000I0J125000D01*
G01*
X126250000Y-53465000D01*
G75*
G02*
X126375000Y-53340000I125000J0D01*
G01*
X126685000Y-53340000D01*
G75*
G02*
X126810000Y-53465000I0J-125000D01*
G01*
G37*
G36*
G01*
X127450000Y-53465000D02*
X127450000Y-53715000D01*
G75*
G02*
X127325000Y-53840000I-125000J0D01*
G01*
X127015000Y-53840000D01*
G75*
G02*
X126890000Y-53715000I0J125000D01*
G01*
X126890000Y-53465000D01*
G75*
G02*
X127015000Y-53340000I125000J0D01*
G01*
X127325000Y-53340000D01*
G75*
G02*
X127450000Y-53465000I0J-125000D01*
G01*
G37*
%TD*%
D23*
%TO.C,J1*%
X114450000Y-57250000D03*
X113200000Y-57250000D03*
X111950000Y-57250000D03*
X110700000Y-57250000D03*
X109450000Y-57250000D03*
X108200000Y-57250000D03*
X106950000Y-57250000D03*
X105700000Y-57250000D03*
X104450000Y-57250000D03*
X103200000Y-57250000D03*
G36*
G01*
X101450000Y-57750000D02*
X101450000Y-56750000D01*
G75*
G02*
X101700000Y-56500000I250000J0D01*
G01*
X102200000Y-56500000D01*
G75*
G02*
X102450000Y-56750000I0J-250000D01*
G01*
X102450000Y-57750000D01*
G75*
G02*
X102200000Y-58000000I-250000J0D01*
G01*
X101700000Y-58000000D01*
G75*
G02*
X101450000Y-57750000I0J250000D01*
G01*
G37*
%TD*%
D37*
%TO.C,J3*%
X102700000Y-67900000D03*
X102700000Y-69150000D03*
G36*
G01*
X103200000Y-70900000D02*
X102200000Y-70900000D01*
G75*
G02*
X101950000Y-70650000I0J250000D01*
G01*
X101950000Y-70150000D01*
G75*
G02*
X102200000Y-69900000I250000J0D01*
G01*
X103200000Y-69900000D01*
G75*
G02*
X103450000Y-70150000I0J-250000D01*
G01*
X103450000Y-70650000D01*
G75*
G02*
X103200000Y-70900000I-250000J0D01*
G01*
G37*
%TD*%
%TO.C,J4*%
X147300000Y-70400000D03*
X147300000Y-69150000D03*
G36*
G01*
X146800000Y-67400000D02*
X147800000Y-67400000D01*
G75*
G02*
X148050000Y-67650000I0J-250000D01*
G01*
X148050000Y-68150000D01*
G75*
G02*
X147800000Y-68400000I-250000J0D01*
G01*
X146800000Y-68400000D01*
G75*
G02*
X146550000Y-68150000I0J250000D01*
G01*
X146550000Y-67650000D01*
G75*
G02*
X146800000Y-67400000I250000J0D01*
G01*
G37*
%TD*%
%TO.C,J7*%
X102700000Y-60900000D03*
G36*
G01*
X103200000Y-62650000D02*
X102200000Y-62650000D01*
G75*
G02*
X101950000Y-62400000I0J250000D01*
G01*
X101950000Y-61900000D01*
G75*
G02*
X102200000Y-61650000I250000J0D01*
G01*
X103200000Y-61650000D01*
G75*
G02*
X103450000Y-61900000I0J-250000D01*
G01*
X103450000Y-62400000D01*
G75*
G02*
X103200000Y-62650000I-250000J0D01*
G01*
G37*
%TD*%
D38*
%TO.C,X1*%
X124000000Y-53190000D03*
X122600000Y-53190000D03*
X122600000Y-52090000D03*
X124000000Y-52090000D03*
%TD*%
D23*
%TO.C,J8*%
X143499998Y-52700000D03*
X142249998Y-52700000D03*
X140999998Y-52700000D03*
X139749998Y-52700000D03*
X138499998Y-52700000D03*
X137249998Y-52700000D03*
G36*
G01*
X135499998Y-53200000D02*
X135499998Y-52200000D01*
G75*
G02*
X135749998Y-51950000I250000J0D01*
G01*
X136249998Y-51950000D01*
G75*
G02*
X136499998Y-52200000I0J-250000D01*
G01*
X136499998Y-53200000D01*
G75*
G02*
X136249998Y-53450000I-250000J0D01*
G01*
X135749998Y-53450000D01*
G75*
G02*
X135499998Y-53200000I0J250000D01*
G01*
G37*
%TD*%
D37*
%TO.C,J10*%
X147300000Y-63999996D03*
X147300000Y-62749996D03*
X147300000Y-61499996D03*
X147300000Y-60249996D03*
X147300000Y-58999996D03*
X147300000Y-57749996D03*
G36*
G01*
X146800000Y-55999996D02*
X147800000Y-55999996D01*
G75*
G02*
X148050000Y-56249996I0J-250000D01*
G01*
X148050000Y-56749996D01*
G75*
G02*
X147800000Y-56999996I-250000J0D01*
G01*
X146800000Y-56999996D01*
G75*
G02*
X146550000Y-56749996I0J250000D01*
G01*
X146550000Y-56249996D01*
G75*
G02*
X146800000Y-55999996I250000J0D01*
G01*
G37*
%TD*%
D39*
%TO.C,U20*%
X143000000Y-76450000D03*
G36*
G01*
X140575000Y-73887500D02*
X140575000Y-73137500D01*
G75*
G02*
X140662500Y-73050000I87500J0D01*
G01*
X140837500Y-73050000D01*
G75*
G02*
X140925000Y-73137500I0J-87500D01*
G01*
X140925000Y-73887500D01*
G75*
G02*
X140837500Y-73975000I-87500J0D01*
G01*
X140662500Y-73975000D01*
G75*
G02*
X140575000Y-73887500I0J87500D01*
G01*
G37*
G36*
G01*
X141075000Y-73887500D02*
X141075000Y-73137500D01*
G75*
G02*
X141162500Y-73050000I87500J0D01*
G01*
X141337500Y-73050000D01*
G75*
G02*
X141425000Y-73137500I0J-87500D01*
G01*
X141425000Y-73887500D01*
G75*
G02*
X141337500Y-73975000I-87500J0D01*
G01*
X141162500Y-73975000D01*
G75*
G02*
X141075000Y-73887500I0J87500D01*
G01*
G37*
G36*
G01*
X141575000Y-73887500D02*
X141575000Y-73137500D01*
G75*
G02*
X141662500Y-73050000I87500J0D01*
G01*
X141837500Y-73050000D01*
G75*
G02*
X141925000Y-73137500I0J-87500D01*
G01*
X141925000Y-73887500D01*
G75*
G02*
X141837500Y-73975000I-87500J0D01*
G01*
X141662500Y-73975000D01*
G75*
G02*
X141575000Y-73887500I0J87500D01*
G01*
G37*
G36*
G01*
X142075000Y-73887500D02*
X142075000Y-73137500D01*
G75*
G02*
X142162500Y-73050000I87500J0D01*
G01*
X142337500Y-73050000D01*
G75*
G02*
X142425000Y-73137500I0J-87500D01*
G01*
X142425000Y-73887500D01*
G75*
G02*
X142337500Y-73975000I-87500J0D01*
G01*
X142162500Y-73975000D01*
G75*
G02*
X142075000Y-73887500I0J87500D01*
G01*
G37*
G36*
G01*
X142575000Y-73887500D02*
X142575000Y-73137500D01*
G75*
G02*
X142662500Y-73050000I87500J0D01*
G01*
X142837500Y-73050000D01*
G75*
G02*
X142925000Y-73137500I0J-87500D01*
G01*
X142925000Y-73887500D01*
G75*
G02*
X142837500Y-73975000I-87500J0D01*
G01*
X142662500Y-73975000D01*
G75*
G02*
X142575000Y-73887500I0J87500D01*
G01*
G37*
G36*
G01*
X143075000Y-73887500D02*
X143075000Y-73137500D01*
G75*
G02*
X143162500Y-73050000I87500J0D01*
G01*
X143337500Y-73050000D01*
G75*
G02*
X143425000Y-73137500I0J-87500D01*
G01*
X143425000Y-73887500D01*
G75*
G02*
X143337500Y-73975000I-87500J0D01*
G01*
X143162500Y-73975000D01*
G75*
G02*
X143075000Y-73887500I0J87500D01*
G01*
G37*
G36*
G01*
X143575000Y-73887500D02*
X143575000Y-73137500D01*
G75*
G02*
X143662500Y-73050000I87500J0D01*
G01*
X143837500Y-73050000D01*
G75*
G02*
X143925000Y-73137500I0J-87500D01*
G01*
X143925000Y-73887500D01*
G75*
G02*
X143837500Y-73975000I-87500J0D01*
G01*
X143662500Y-73975000D01*
G75*
G02*
X143575000Y-73887500I0J87500D01*
G01*
G37*
G36*
G01*
X144075000Y-73887500D02*
X144075000Y-73137500D01*
G75*
G02*
X144162500Y-73050000I87500J0D01*
G01*
X144337500Y-73050000D01*
G75*
G02*
X144425000Y-73137500I0J-87500D01*
G01*
X144425000Y-73887500D01*
G75*
G02*
X144337500Y-73975000I-87500J0D01*
G01*
X144162500Y-73975000D01*
G75*
G02*
X144075000Y-73887500I0J87500D01*
G01*
G37*
G36*
G01*
X144575000Y-73887500D02*
X144575000Y-73137500D01*
G75*
G02*
X144662500Y-73050000I87500J0D01*
G01*
X144837500Y-73050000D01*
G75*
G02*
X144925000Y-73137500I0J-87500D01*
G01*
X144925000Y-73887500D01*
G75*
G02*
X144837500Y-73975000I-87500J0D01*
G01*
X144662500Y-73975000D01*
G75*
G02*
X144575000Y-73887500I0J87500D01*
G01*
G37*
G36*
G01*
X145075000Y-73887500D02*
X145075000Y-73137500D01*
G75*
G02*
X145162500Y-73050000I87500J0D01*
G01*
X145337500Y-73050000D01*
G75*
G02*
X145425000Y-73137500I0J-87500D01*
G01*
X145425000Y-73887500D01*
G75*
G02*
X145337500Y-73975000I-87500J0D01*
G01*
X145162500Y-73975000D01*
G75*
G02*
X145075000Y-73887500I0J87500D01*
G01*
G37*
G36*
G01*
X145475000Y-74287500D02*
X145475000Y-74112500D01*
G75*
G02*
X145562500Y-74025000I87500J0D01*
G01*
X146312500Y-74025000D01*
G75*
G02*
X146400000Y-74112500I0J-87500D01*
G01*
X146400000Y-74287500D01*
G75*
G02*
X146312500Y-74375000I-87500J0D01*
G01*
X145562500Y-74375000D01*
G75*
G02*
X145475000Y-74287500I0J87500D01*
G01*
G37*
G36*
G01*
X145475000Y-74787500D02*
X145475000Y-74612500D01*
G75*
G02*
X145562500Y-74525000I87500J0D01*
G01*
X146312500Y-74525000D01*
G75*
G02*
X146400000Y-74612500I0J-87500D01*
G01*
X146400000Y-74787500D01*
G75*
G02*
X146312500Y-74875000I-87500J0D01*
G01*
X145562500Y-74875000D01*
G75*
G02*
X145475000Y-74787500I0J87500D01*
G01*
G37*
G36*
G01*
X145475000Y-75287500D02*
X145475000Y-75112500D01*
G75*
G02*
X145562500Y-75025000I87500J0D01*
G01*
X146312500Y-75025000D01*
G75*
G02*
X146400000Y-75112500I0J-87500D01*
G01*
X146400000Y-75287500D01*
G75*
G02*
X146312500Y-75375000I-87500J0D01*
G01*
X145562500Y-75375000D01*
G75*
G02*
X145475000Y-75287500I0J87500D01*
G01*
G37*
G36*
G01*
X145475000Y-75787500D02*
X145475000Y-75612500D01*
G75*
G02*
X145562500Y-75525000I87500J0D01*
G01*
X146312500Y-75525000D01*
G75*
G02*
X146400000Y-75612500I0J-87500D01*
G01*
X146400000Y-75787500D01*
G75*
G02*
X146312500Y-75875000I-87500J0D01*
G01*
X145562500Y-75875000D01*
G75*
G02*
X145475000Y-75787500I0J87500D01*
G01*
G37*
G36*
G01*
X145475000Y-76287500D02*
X145475000Y-76112500D01*
G75*
G02*
X145562500Y-76025000I87500J0D01*
G01*
X146312500Y-76025000D01*
G75*
G02*
X146400000Y-76112500I0J-87500D01*
G01*
X146400000Y-76287500D01*
G75*
G02*
X146312500Y-76375000I-87500J0D01*
G01*
X145562500Y-76375000D01*
G75*
G02*
X145475000Y-76287500I0J87500D01*
G01*
G37*
G36*
G01*
X145475000Y-76787500D02*
X145475000Y-76612500D01*
G75*
G02*
X145562500Y-76525000I87500J0D01*
G01*
X146312500Y-76525000D01*
G75*
G02*
X146400000Y-76612500I0J-87500D01*
G01*
X146400000Y-76787500D01*
G75*
G02*
X146312500Y-76875000I-87500J0D01*
G01*
X145562500Y-76875000D01*
G75*
G02*
X145475000Y-76787500I0J87500D01*
G01*
G37*
G36*
G01*
X145475000Y-77287500D02*
X145475000Y-77112500D01*
G75*
G02*
X145562500Y-77025000I87500J0D01*
G01*
X146312500Y-77025000D01*
G75*
G02*
X146400000Y-77112500I0J-87500D01*
G01*
X146400000Y-77287500D01*
G75*
G02*
X146312500Y-77375000I-87500J0D01*
G01*
X145562500Y-77375000D01*
G75*
G02*
X145475000Y-77287500I0J87500D01*
G01*
G37*
G36*
G01*
X145475000Y-77787500D02*
X145475000Y-77612500D01*
G75*
G02*
X145562500Y-77525000I87500J0D01*
G01*
X146312500Y-77525000D01*
G75*
G02*
X146400000Y-77612500I0J-87500D01*
G01*
X146400000Y-77787500D01*
G75*
G02*
X146312500Y-77875000I-87500J0D01*
G01*
X145562500Y-77875000D01*
G75*
G02*
X145475000Y-77787500I0J87500D01*
G01*
G37*
G36*
G01*
X145475000Y-78287500D02*
X145475000Y-78112500D01*
G75*
G02*
X145562500Y-78025000I87500J0D01*
G01*
X146312500Y-78025000D01*
G75*
G02*
X146400000Y-78112500I0J-87500D01*
G01*
X146400000Y-78287500D01*
G75*
G02*
X146312500Y-78375000I-87500J0D01*
G01*
X145562500Y-78375000D01*
G75*
G02*
X145475000Y-78287500I0J87500D01*
G01*
G37*
G36*
G01*
X145475000Y-78787500D02*
X145475000Y-78612500D01*
G75*
G02*
X145562500Y-78525000I87500J0D01*
G01*
X146312500Y-78525000D01*
G75*
G02*
X146400000Y-78612500I0J-87500D01*
G01*
X146400000Y-78787500D01*
G75*
G02*
X146312500Y-78875000I-87500J0D01*
G01*
X145562500Y-78875000D01*
G75*
G02*
X145475000Y-78787500I0J87500D01*
G01*
G37*
G36*
G01*
X145075000Y-79762500D02*
X145075000Y-79012500D01*
G75*
G02*
X145162500Y-78925000I87500J0D01*
G01*
X145337500Y-78925000D01*
G75*
G02*
X145425000Y-79012500I0J-87500D01*
G01*
X145425000Y-79762500D01*
G75*
G02*
X145337500Y-79850000I-87500J0D01*
G01*
X145162500Y-79850000D01*
G75*
G02*
X145075000Y-79762500I0J87500D01*
G01*
G37*
G36*
G01*
X144575000Y-79762500D02*
X144575000Y-79012500D01*
G75*
G02*
X144662500Y-78925000I87500J0D01*
G01*
X144837500Y-78925000D01*
G75*
G02*
X144925000Y-79012500I0J-87500D01*
G01*
X144925000Y-79762500D01*
G75*
G02*
X144837500Y-79850000I-87500J0D01*
G01*
X144662500Y-79850000D01*
G75*
G02*
X144575000Y-79762500I0J87500D01*
G01*
G37*
G36*
G01*
X144075000Y-79762500D02*
X144075000Y-79012500D01*
G75*
G02*
X144162500Y-78925000I87500J0D01*
G01*
X144337500Y-78925000D01*
G75*
G02*
X144425000Y-79012500I0J-87500D01*
G01*
X144425000Y-79762500D01*
G75*
G02*
X144337500Y-79850000I-87500J0D01*
G01*
X144162500Y-79850000D01*
G75*
G02*
X144075000Y-79762500I0J87500D01*
G01*
G37*
G36*
G01*
X143575000Y-79762500D02*
X143575000Y-79012500D01*
G75*
G02*
X143662500Y-78925000I87500J0D01*
G01*
X143837500Y-78925000D01*
G75*
G02*
X143925000Y-79012500I0J-87500D01*
G01*
X143925000Y-79762500D01*
G75*
G02*
X143837500Y-79850000I-87500J0D01*
G01*
X143662500Y-79850000D01*
G75*
G02*
X143575000Y-79762500I0J87500D01*
G01*
G37*
G36*
G01*
X143075000Y-79762500D02*
X143075000Y-79012500D01*
G75*
G02*
X143162500Y-78925000I87500J0D01*
G01*
X143337500Y-78925000D01*
G75*
G02*
X143425000Y-79012500I0J-87500D01*
G01*
X143425000Y-79762500D01*
G75*
G02*
X143337500Y-79850000I-87500J0D01*
G01*
X143162500Y-79850000D01*
G75*
G02*
X143075000Y-79762500I0J87500D01*
G01*
G37*
G36*
G01*
X142575000Y-79762500D02*
X142575000Y-79012500D01*
G75*
G02*
X142662500Y-78925000I87500J0D01*
G01*
X142837500Y-78925000D01*
G75*
G02*
X142925000Y-79012500I0J-87500D01*
G01*
X142925000Y-79762500D01*
G75*
G02*
X142837500Y-79850000I-87500J0D01*
G01*
X142662500Y-79850000D01*
G75*
G02*
X142575000Y-79762500I0J87500D01*
G01*
G37*
G36*
G01*
X142075000Y-79762500D02*
X142075000Y-79012500D01*
G75*
G02*
X142162500Y-78925000I87500J0D01*
G01*
X142337500Y-78925000D01*
G75*
G02*
X142425000Y-79012500I0J-87500D01*
G01*
X142425000Y-79762500D01*
G75*
G02*
X142337500Y-79850000I-87500J0D01*
G01*
X142162500Y-79850000D01*
G75*
G02*
X142075000Y-79762500I0J87500D01*
G01*
G37*
G36*
G01*
X141575000Y-79762500D02*
X141575000Y-79012500D01*
G75*
G02*
X141662500Y-78925000I87500J0D01*
G01*
X141837500Y-78925000D01*
G75*
G02*
X141925000Y-79012500I0J-87500D01*
G01*
X141925000Y-79762500D01*
G75*
G02*
X141837500Y-79850000I-87500J0D01*
G01*
X141662500Y-79850000D01*
G75*
G02*
X141575000Y-79762500I0J87500D01*
G01*
G37*
G36*
G01*
X141075000Y-79762500D02*
X141075000Y-79012500D01*
G75*
G02*
X141162500Y-78925000I87500J0D01*
G01*
X141337500Y-78925000D01*
G75*
G02*
X141425000Y-79012500I0J-87500D01*
G01*
X141425000Y-79762500D01*
G75*
G02*
X141337500Y-79850000I-87500J0D01*
G01*
X141162500Y-79850000D01*
G75*
G02*
X141075000Y-79762500I0J87500D01*
G01*
G37*
G36*
G01*
X140575000Y-79762500D02*
X140575000Y-79012500D01*
G75*
G02*
X140662500Y-78925000I87500J0D01*
G01*
X140837500Y-78925000D01*
G75*
G02*
X140925000Y-79012500I0J-87500D01*
G01*
X140925000Y-79762500D01*
G75*
G02*
X140837500Y-79850000I-87500J0D01*
G01*
X140662500Y-79850000D01*
G75*
G02*
X140575000Y-79762500I0J87500D01*
G01*
G37*
G36*
G01*
X139600000Y-78787500D02*
X139600000Y-78612500D01*
G75*
G02*
X139687500Y-78525000I87500J0D01*
G01*
X140437500Y-78525000D01*
G75*
G02*
X140525000Y-78612500I0J-87500D01*
G01*
X140525000Y-78787500D01*
G75*
G02*
X140437500Y-78875000I-87500J0D01*
G01*
X139687500Y-78875000D01*
G75*
G02*
X139600000Y-78787500I0J87500D01*
G01*
G37*
G36*
G01*
X139600000Y-78287500D02*
X139600000Y-78112500D01*
G75*
G02*
X139687500Y-78025000I87500J0D01*
G01*
X140437500Y-78025000D01*
G75*
G02*
X140525000Y-78112500I0J-87500D01*
G01*
X140525000Y-78287500D01*
G75*
G02*
X140437500Y-78375000I-87500J0D01*
G01*
X139687500Y-78375000D01*
G75*
G02*
X139600000Y-78287500I0J87500D01*
G01*
G37*
G36*
G01*
X139600000Y-77787500D02*
X139600000Y-77612500D01*
G75*
G02*
X139687500Y-77525000I87500J0D01*
G01*
X140437500Y-77525000D01*
G75*
G02*
X140525000Y-77612500I0J-87500D01*
G01*
X140525000Y-77787500D01*
G75*
G02*
X140437500Y-77875000I-87500J0D01*
G01*
X139687500Y-77875000D01*
G75*
G02*
X139600000Y-77787500I0J87500D01*
G01*
G37*
G36*
G01*
X139600000Y-77287500D02*
X139600000Y-77112500D01*
G75*
G02*
X139687500Y-77025000I87500J0D01*
G01*
X140437500Y-77025000D01*
G75*
G02*
X140525000Y-77112500I0J-87500D01*
G01*
X140525000Y-77287500D01*
G75*
G02*
X140437500Y-77375000I-87500J0D01*
G01*
X139687500Y-77375000D01*
G75*
G02*
X139600000Y-77287500I0J87500D01*
G01*
G37*
G36*
G01*
X139600000Y-76787500D02*
X139600000Y-76612500D01*
G75*
G02*
X139687500Y-76525000I87500J0D01*
G01*
X140437500Y-76525000D01*
G75*
G02*
X140525000Y-76612500I0J-87500D01*
G01*
X140525000Y-76787500D01*
G75*
G02*
X140437500Y-76875000I-87500J0D01*
G01*
X139687500Y-76875000D01*
G75*
G02*
X139600000Y-76787500I0J87500D01*
G01*
G37*
G36*
G01*
X139600000Y-76287500D02*
X139600000Y-76112500D01*
G75*
G02*
X139687500Y-76025000I87500J0D01*
G01*
X140437500Y-76025000D01*
G75*
G02*
X140525000Y-76112500I0J-87500D01*
G01*
X140525000Y-76287500D01*
G75*
G02*
X140437500Y-76375000I-87500J0D01*
G01*
X139687500Y-76375000D01*
G75*
G02*
X139600000Y-76287500I0J87500D01*
G01*
G37*
G36*
G01*
X139600000Y-75787500D02*
X139600000Y-75612500D01*
G75*
G02*
X139687500Y-75525000I87500J0D01*
G01*
X140437500Y-75525000D01*
G75*
G02*
X140525000Y-75612500I0J-87500D01*
G01*
X140525000Y-75787500D01*
G75*
G02*
X140437500Y-75875000I-87500J0D01*
G01*
X139687500Y-75875000D01*
G75*
G02*
X139600000Y-75787500I0J87500D01*
G01*
G37*
G36*
G01*
X139600000Y-75287500D02*
X139600000Y-75112500D01*
G75*
G02*
X139687500Y-75025000I87500J0D01*
G01*
X140437500Y-75025000D01*
G75*
G02*
X140525000Y-75112500I0J-87500D01*
G01*
X140525000Y-75287500D01*
G75*
G02*
X140437500Y-75375000I-87500J0D01*
G01*
X139687500Y-75375000D01*
G75*
G02*
X139600000Y-75287500I0J87500D01*
G01*
G37*
G36*
G01*
X139600000Y-74787500D02*
X139600000Y-74612500D01*
G75*
G02*
X139687500Y-74525000I87500J0D01*
G01*
X140437500Y-74525000D01*
G75*
G02*
X140525000Y-74612500I0J-87500D01*
G01*
X140525000Y-74787500D01*
G75*
G02*
X140437500Y-74875000I-87500J0D01*
G01*
X139687500Y-74875000D01*
G75*
G02*
X139600000Y-74787500I0J87500D01*
G01*
G37*
G36*
G01*
X139600000Y-74287500D02*
X139600000Y-74112500D01*
G75*
G02*
X139687500Y-74025000I87500J0D01*
G01*
X140437500Y-74025000D01*
G75*
G02*
X140525000Y-74112500I0J-87500D01*
G01*
X140525000Y-74287500D01*
G75*
G02*
X140437500Y-74375000I-87500J0D01*
G01*
X139687500Y-74375000D01*
G75*
G02*
X139600000Y-74287500I0J87500D01*
G01*
G37*
%TD*%
D20*
%TO.C,J16*%
X138270000Y-60740000D03*
D21*
X137000000Y-69260000D03*
%TD*%
M02*
