%TF.GenerationSoftware,KiCad,Pcbnew,(5.1.6)-1*%
%TF.CreationDate,2020-11-18T11:59:01+01:00*%
%TF.ProjectId,omodri_laas,6f6d6f64-7269-45f6-9c61-61732e6b6963,1.0*%
%TF.SameCoordinates,Original*%
%TF.FileFunction,Paste,Top*%
%TF.FilePolarity,Positive*%
%FSLAX46Y46*%
G04 Gerber Fmt 4.6, Leading zero omitted, Abs format (unit mm)*
G04 Created by KiCad (PCBNEW (5.1.6)-1) date 2020-11-18 11:59:01*
%MOMM*%
%LPD*%
G01*
G04 APERTURE LIST*
%ADD10C,0.100000*%
%ADD11C,0.300000*%
%ADD12C,0.350000*%
%ADD13R,0.700001X0.249999*%
%ADD14R,0.429999X0.375001*%
%ADD15R,0.200000X0.499999*%
%ADD16R,1.000000X1.500000*%
%ADD17R,1.200000X0.700000*%
%ADD18R,1.200000X5.400000*%
%ADD19R,0.900000X1.700000*%
%ADD20R,1.220000X0.400000*%
%ADD21R,0.250000X0.400000*%
%ADD22R,0.700000X0.400000*%
%ADD23R,0.150000X0.250000*%
%ADD24R,0.200000X0.600000*%
%ADD25R,0.600000X0.200000*%
%ADD26R,0.900000X0.800000*%
G04 APERTURE END LIST*
D10*
%TO.C,Q1*%
G36*
X113250000Y-85450000D02*
G01*
X111950000Y-85450000D01*
X111950000Y-84450000D01*
X113250000Y-84450000D01*
X113250000Y-85450000D01*
G37*
X113250000Y-85450000D02*
X111950000Y-85450000D01*
X111950000Y-84450000D01*
X113250000Y-84450000D01*
X113250000Y-85450000D01*
G36*
X111650000Y-85450000D02*
G01*
X110400000Y-85450000D01*
X110400000Y-84450000D01*
X111650000Y-84450000D01*
X111650000Y-85450000D01*
G37*
X111650000Y-85450000D02*
X110400000Y-85450000D01*
X110400000Y-84450000D01*
X111650000Y-84450000D01*
X111650000Y-85450000D01*
G36*
X113250000Y-84150000D02*
G01*
X111950000Y-84150000D01*
X111950000Y-83150000D01*
X113250000Y-83150000D01*
X113250000Y-84150000D01*
G37*
X113250000Y-84150000D02*
X111950000Y-84150000D01*
X111950000Y-83150000D01*
X113250000Y-83150000D01*
X113250000Y-84150000D01*
G36*
X111650000Y-84150000D02*
G01*
X110400000Y-84150000D01*
X110400000Y-83150000D01*
X111650000Y-83150000D01*
X111650000Y-84150000D01*
G37*
X111650000Y-84150000D02*
X110400000Y-84150000D01*
X110400000Y-83150000D01*
X111650000Y-83150000D01*
X111650000Y-84150000D01*
G36*
X113250000Y-82850000D02*
G01*
X111950000Y-82850000D01*
X111950000Y-81850000D01*
X113250000Y-81850000D01*
X113250000Y-82850000D01*
G37*
X113250000Y-82850000D02*
X111950000Y-82850000D01*
X111950000Y-81850000D01*
X113250000Y-81850000D01*
X113250000Y-82850000D01*
G36*
X111650000Y-82850000D02*
G01*
X110400000Y-82850000D01*
X110400000Y-81850000D01*
X111650000Y-81850000D01*
X111650000Y-82850000D01*
G37*
X111650000Y-82850000D02*
X110400000Y-82850000D01*
X110400000Y-81850000D01*
X111650000Y-81850000D01*
X111650000Y-82850000D01*
G36*
X113250000Y-81550000D02*
G01*
X111950000Y-81550000D01*
X111950000Y-80550000D01*
X113250000Y-80550000D01*
X113250000Y-81550000D01*
G37*
X113250000Y-81550000D02*
X111950000Y-81550000D01*
X111950000Y-80550000D01*
X113250000Y-80550000D01*
X113250000Y-81550000D01*
G36*
X111650000Y-81550000D02*
G01*
X110400000Y-81550000D01*
X110400000Y-80550000D01*
X111650000Y-80550000D01*
X111650000Y-81550000D01*
G37*
X111650000Y-81550000D02*
X110400000Y-81550000D01*
X110400000Y-80550000D01*
X111650000Y-80550000D01*
X111650000Y-81550000D01*
D11*
X109650000Y-85470000D02*
X109650000Y-81530000D01*
X113950000Y-85470000D02*
X113950000Y-81530000D01*
D10*
%TO.C,Q3*%
G36*
X113250000Y-92450000D02*
G01*
X111950000Y-92450000D01*
X111950000Y-91450000D01*
X113250000Y-91450000D01*
X113250000Y-92450000D01*
G37*
X113250000Y-92450000D02*
X111950000Y-92450000D01*
X111950000Y-91450000D01*
X113250000Y-91450000D01*
X113250000Y-92450000D01*
G36*
X111650000Y-92450000D02*
G01*
X110400000Y-92450000D01*
X110400000Y-91450000D01*
X111650000Y-91450000D01*
X111650000Y-92450000D01*
G37*
X111650000Y-92450000D02*
X110400000Y-92450000D01*
X110400000Y-91450000D01*
X111650000Y-91450000D01*
X111650000Y-92450000D01*
G36*
X113250000Y-91150000D02*
G01*
X111950000Y-91150000D01*
X111950000Y-90150000D01*
X113250000Y-90150000D01*
X113250000Y-91150000D01*
G37*
X113250000Y-91150000D02*
X111950000Y-91150000D01*
X111950000Y-90150000D01*
X113250000Y-90150000D01*
X113250000Y-91150000D01*
G36*
X111650000Y-91150000D02*
G01*
X110400000Y-91150000D01*
X110400000Y-90150000D01*
X111650000Y-90150000D01*
X111650000Y-91150000D01*
G37*
X111650000Y-91150000D02*
X110400000Y-91150000D01*
X110400000Y-90150000D01*
X111650000Y-90150000D01*
X111650000Y-91150000D01*
G36*
X113250000Y-89850000D02*
G01*
X111950000Y-89850000D01*
X111950000Y-88850000D01*
X113250000Y-88850000D01*
X113250000Y-89850000D01*
G37*
X113250000Y-89850000D02*
X111950000Y-89850000D01*
X111950000Y-88850000D01*
X113250000Y-88850000D01*
X113250000Y-89850000D01*
G36*
X111650000Y-89850000D02*
G01*
X110400000Y-89850000D01*
X110400000Y-88850000D01*
X111650000Y-88850000D01*
X111650000Y-89850000D01*
G37*
X111650000Y-89850000D02*
X110400000Y-89850000D01*
X110400000Y-88850000D01*
X111650000Y-88850000D01*
X111650000Y-89850000D01*
G36*
X113250000Y-88550000D02*
G01*
X111950000Y-88550000D01*
X111950000Y-87550000D01*
X113250000Y-87550000D01*
X113250000Y-88550000D01*
G37*
X113250000Y-88550000D02*
X111950000Y-88550000D01*
X111950000Y-87550000D01*
X113250000Y-87550000D01*
X113250000Y-88550000D01*
G36*
X111650000Y-88550000D02*
G01*
X110400000Y-88550000D01*
X110400000Y-87550000D01*
X111650000Y-87550000D01*
X111650000Y-88550000D01*
G37*
X111650000Y-88550000D02*
X110400000Y-88550000D01*
X110400000Y-87550000D01*
X111650000Y-87550000D01*
X111650000Y-88550000D01*
D11*
X109650000Y-92470000D02*
X109650000Y-88530000D01*
X113950000Y-92470000D02*
X113950000Y-88530000D01*
D10*
%TO.C,Q4*%
G36*
X136750000Y-88549999D02*
G01*
X138050000Y-88549999D01*
X138050000Y-89549999D01*
X136750000Y-89549999D01*
X136750000Y-88549999D01*
G37*
X136750000Y-88549999D02*
X138050000Y-88549999D01*
X138050000Y-89549999D01*
X136750000Y-89549999D01*
X136750000Y-88549999D01*
G36*
X138350000Y-88549999D02*
G01*
X139600000Y-88549999D01*
X139600000Y-89549999D01*
X138350000Y-89549999D01*
X138350000Y-88549999D01*
G37*
X138350000Y-88549999D02*
X139600000Y-88549999D01*
X139600000Y-89549999D01*
X138350000Y-89549999D01*
X138350000Y-88549999D01*
G36*
X136750000Y-89849999D02*
G01*
X138050000Y-89849999D01*
X138050000Y-90849999D01*
X136750000Y-90849999D01*
X136750000Y-89849999D01*
G37*
X136750000Y-89849999D02*
X138050000Y-89849999D01*
X138050000Y-90849999D01*
X136750000Y-90849999D01*
X136750000Y-89849999D01*
G36*
X138350000Y-89849999D02*
G01*
X139600000Y-89849999D01*
X139600000Y-90849999D01*
X138350000Y-90849999D01*
X138350000Y-89849999D01*
G37*
X138350000Y-89849999D02*
X139600000Y-89849999D01*
X139600000Y-90849999D01*
X138350000Y-90849999D01*
X138350000Y-89849999D01*
G36*
X136750000Y-91149999D02*
G01*
X138050000Y-91149999D01*
X138050000Y-92149999D01*
X136750000Y-92149999D01*
X136750000Y-91149999D01*
G37*
X136750000Y-91149999D02*
X138050000Y-91149999D01*
X138050000Y-92149999D01*
X136750000Y-92149999D01*
X136750000Y-91149999D01*
G36*
X138350000Y-91149999D02*
G01*
X139600000Y-91149999D01*
X139600000Y-92149999D01*
X138350000Y-92149999D01*
X138350000Y-91149999D01*
G37*
X138350000Y-91149999D02*
X139600000Y-91149999D01*
X139600000Y-92149999D01*
X138350000Y-92149999D01*
X138350000Y-91149999D01*
G36*
X136750000Y-92449999D02*
G01*
X138050000Y-92449999D01*
X138050000Y-93449999D01*
X136750000Y-93449999D01*
X136750000Y-92449999D01*
G37*
X136750000Y-92449999D02*
X138050000Y-92449999D01*
X138050000Y-93449999D01*
X136750000Y-93449999D01*
X136750000Y-92449999D01*
G36*
X138350000Y-92449999D02*
G01*
X139600000Y-92449999D01*
X139600000Y-93449999D01*
X138350000Y-93449999D01*
X138350000Y-92449999D01*
G37*
X138350000Y-92449999D02*
X139600000Y-92449999D01*
X139600000Y-93449999D01*
X138350000Y-93449999D01*
X138350000Y-92449999D01*
D11*
X140350000Y-88529999D02*
X140350000Y-92469999D01*
X136050000Y-88529999D02*
X136050000Y-92469999D01*
D10*
%TO.C,Q6*%
G36*
X136750000Y-81549999D02*
G01*
X138050000Y-81549999D01*
X138050000Y-82549999D01*
X136750000Y-82549999D01*
X136750000Y-81549999D01*
G37*
X136750000Y-81549999D02*
X138050000Y-81549999D01*
X138050000Y-82549999D01*
X136750000Y-82549999D01*
X136750000Y-81549999D01*
G36*
X138350000Y-81549999D02*
G01*
X139600000Y-81549999D01*
X139600000Y-82549999D01*
X138350000Y-82549999D01*
X138350000Y-81549999D01*
G37*
X138350000Y-81549999D02*
X139600000Y-81549999D01*
X139600000Y-82549999D01*
X138350000Y-82549999D01*
X138350000Y-81549999D01*
G36*
X136750000Y-82849999D02*
G01*
X138050000Y-82849999D01*
X138050000Y-83849999D01*
X136750000Y-83849999D01*
X136750000Y-82849999D01*
G37*
X136750000Y-82849999D02*
X138050000Y-82849999D01*
X138050000Y-83849999D01*
X136750000Y-83849999D01*
X136750000Y-82849999D01*
G36*
X138350000Y-82849999D02*
G01*
X139600000Y-82849999D01*
X139600000Y-83849999D01*
X138350000Y-83849999D01*
X138350000Y-82849999D01*
G37*
X138350000Y-82849999D02*
X139600000Y-82849999D01*
X139600000Y-83849999D01*
X138350000Y-83849999D01*
X138350000Y-82849999D01*
G36*
X136750000Y-84149999D02*
G01*
X138050000Y-84149999D01*
X138050000Y-85149999D01*
X136750000Y-85149999D01*
X136750000Y-84149999D01*
G37*
X136750000Y-84149999D02*
X138050000Y-84149999D01*
X138050000Y-85149999D01*
X136750000Y-85149999D01*
X136750000Y-84149999D01*
G36*
X138350000Y-84149999D02*
G01*
X139600000Y-84149999D01*
X139600000Y-85149999D01*
X138350000Y-85149999D01*
X138350000Y-84149999D01*
G37*
X138350000Y-84149999D02*
X139600000Y-84149999D01*
X139600000Y-85149999D01*
X138350000Y-85149999D01*
X138350000Y-84149999D01*
G36*
X136750000Y-85449999D02*
G01*
X138050000Y-85449999D01*
X138050000Y-86449999D01*
X136750000Y-86449999D01*
X136750000Y-85449999D01*
G37*
X136750000Y-85449999D02*
X138050000Y-85449999D01*
X138050000Y-86449999D01*
X136750000Y-86449999D01*
X136750000Y-85449999D01*
G36*
X138350000Y-85449999D02*
G01*
X139600000Y-85449999D01*
X139600000Y-86449999D01*
X138350000Y-86449999D01*
X138350000Y-85449999D01*
G37*
X138350000Y-85449999D02*
X139600000Y-85449999D01*
X139600000Y-86449999D01*
X138350000Y-86449999D01*
X138350000Y-85449999D01*
D11*
X140350000Y-81529999D02*
X140350000Y-85469999D01*
X136050000Y-81529999D02*
X136050000Y-85469999D01*
%TD*%
D12*
%TO.C,U1*%
X132200000Y-68100000D03*
X132200000Y-61700000D03*
X132200000Y-62500000D03*
X132200000Y-60100000D03*
X132200000Y-66500000D03*
X132200000Y-69700000D03*
X132200000Y-63300000D03*
X132200000Y-59300000D03*
X132200000Y-55300000D03*
X132200000Y-68900000D03*
X132200000Y-56900000D03*
X132200000Y-64900000D03*
X132200000Y-64100000D03*
X132200000Y-67300000D03*
X132200000Y-57700000D03*
X132200000Y-60900000D03*
X132200000Y-65700000D03*
X132200000Y-56100000D03*
X132200000Y-58500000D03*
X131400000Y-65700000D03*
X131400000Y-56900000D03*
X131400000Y-60100000D03*
X131400000Y-64900000D03*
X131400000Y-55300000D03*
X131400000Y-59300000D03*
X131400000Y-68900000D03*
X131400000Y-64100000D03*
X131400000Y-57700000D03*
X131400000Y-60900000D03*
X131400000Y-66500000D03*
X131400000Y-67300000D03*
X131400000Y-58500000D03*
X131400000Y-62500000D03*
X131400000Y-69700000D03*
X131400000Y-68100000D03*
X131400000Y-61700000D03*
X131400000Y-56100000D03*
X131400000Y-63300000D03*
X130600000Y-64100000D03*
X130600000Y-65700000D03*
X130600000Y-67300000D03*
X130600000Y-57700000D03*
X130600000Y-62500000D03*
X130600000Y-56900000D03*
X130600000Y-60900000D03*
X130600000Y-64900000D03*
X130600000Y-55300000D03*
X130600000Y-69700000D03*
X130600000Y-60100000D03*
X130600000Y-59300000D03*
X130600000Y-68100000D03*
X130600000Y-66500000D03*
X130600000Y-58500000D03*
X130600000Y-61700000D03*
X130600000Y-68900000D03*
X130600000Y-56100000D03*
X130600000Y-63300000D03*
X129800000Y-62500000D03*
X129800000Y-68900000D03*
X129800000Y-57700000D03*
X129800000Y-60900000D03*
X129800000Y-56100000D03*
X129800000Y-56900000D03*
X129800000Y-69700000D03*
X129800000Y-66500000D03*
X129800000Y-68100000D03*
X129800000Y-55300000D03*
X129800000Y-59300000D03*
X129800000Y-63300000D03*
X129800000Y-60100000D03*
X129800000Y-58500000D03*
X129800000Y-64100000D03*
X129800000Y-65700000D03*
X129800000Y-61700000D03*
X129800000Y-67300000D03*
X129800000Y-64900000D03*
X129000000Y-68100000D03*
X129000000Y-68900000D03*
X129000000Y-66500000D03*
X129000000Y-63300000D03*
X129000000Y-56900000D03*
X129000000Y-60100000D03*
X129000000Y-64100000D03*
X129000000Y-57700000D03*
X129000000Y-59300000D03*
X129000000Y-65700000D03*
X129000000Y-55300000D03*
X129000000Y-61700000D03*
X129000000Y-69700000D03*
X129000000Y-67300000D03*
X129000000Y-62500000D03*
X129000000Y-60900000D03*
X129000000Y-64900000D03*
X129000000Y-56100000D03*
X129000000Y-58500000D03*
X128200000Y-69700000D03*
X128200000Y-55300000D03*
X128200000Y-57700000D03*
X128200000Y-67300000D03*
X128200000Y-56900000D03*
X128200000Y-62500000D03*
X128200000Y-68900000D03*
X128200000Y-60100000D03*
X128200000Y-59300000D03*
X128200000Y-64100000D03*
X128200000Y-65700000D03*
X128200000Y-61700000D03*
X128200000Y-64900000D03*
X128200000Y-66500000D03*
X128200000Y-63300000D03*
X128200000Y-56100000D03*
X128200000Y-58500000D03*
X128200000Y-60900000D03*
X128200000Y-68100000D03*
X127400000Y-65700000D03*
X127400000Y-56100000D03*
X127400000Y-66500000D03*
X127400000Y-67300000D03*
X127400000Y-56900000D03*
X127400000Y-55300000D03*
X127400000Y-68100000D03*
X127400000Y-57700000D03*
X127400000Y-68900000D03*
X127400000Y-59300000D03*
X127400000Y-69700000D03*
X127400000Y-58500000D03*
X126600000Y-55300000D03*
X126600000Y-66500000D03*
X126600000Y-65700000D03*
X126600000Y-56100000D03*
X126600000Y-57700000D03*
X126600000Y-68100000D03*
X126600000Y-67300000D03*
X126600000Y-56900000D03*
X126600000Y-68900000D03*
X126600000Y-59300000D03*
X126600000Y-69700000D03*
X126600000Y-58500000D03*
X125000000Y-56100000D03*
X125800000Y-60900000D03*
X125000000Y-68100000D03*
X125000000Y-67300000D03*
X125000000Y-66500000D03*
X125800000Y-64100000D03*
X125000000Y-56900000D03*
X125000000Y-55300000D03*
X125000000Y-57700000D03*
X125000000Y-65700000D03*
X125800000Y-62500000D03*
X125000000Y-59300000D03*
X125000000Y-69700000D03*
X125800000Y-63300000D03*
X125000000Y-68900000D03*
X125000000Y-58500000D03*
X125800000Y-61700000D03*
X125800000Y-56100000D03*
X125800000Y-68900000D03*
X126600000Y-63300000D03*
X125800000Y-69700000D03*
X125800000Y-55300000D03*
X125800000Y-66500000D03*
X125800000Y-67300000D03*
X125800000Y-59300000D03*
X126600000Y-64100000D03*
X125800000Y-68100000D03*
X125800000Y-58500000D03*
X126600000Y-60900000D03*
X126600000Y-61700000D03*
X125800000Y-57700000D03*
X125800000Y-65700000D03*
X126600000Y-62500000D03*
X125800000Y-56900000D03*
X124200000Y-68900000D03*
X124200000Y-58500000D03*
X124200000Y-59300000D03*
X124200000Y-55300000D03*
X124200000Y-68100000D03*
X125000000Y-63300000D03*
X125000000Y-60900000D03*
X124200000Y-56100000D03*
X125000000Y-62500000D03*
X125000000Y-64100000D03*
X124200000Y-65700000D03*
X124200000Y-66500000D03*
X124200000Y-69700000D03*
X124200000Y-57700000D03*
X125000000Y-61700000D03*
X124200000Y-67300000D03*
X124200000Y-56900000D03*
X124200000Y-60900000D03*
X123400000Y-65700000D03*
X123400000Y-58500000D03*
X123400000Y-56100000D03*
X123400000Y-66500000D03*
X124200000Y-63300000D03*
X124200000Y-64100000D03*
X123400000Y-59300000D03*
X123400000Y-55300000D03*
X123400000Y-69700000D03*
X123400000Y-68100000D03*
X123400000Y-68900000D03*
X124200000Y-62500000D03*
X123400000Y-57700000D03*
X124200000Y-61700000D03*
X123400000Y-56900000D03*
X123400000Y-67300000D03*
X123400000Y-60900000D03*
X122600000Y-58500000D03*
X122600000Y-55300000D03*
X122600000Y-59300000D03*
X123400000Y-64100000D03*
X122600000Y-56100000D03*
X122600000Y-65700000D03*
X122600000Y-66500000D03*
X123400000Y-63300000D03*
X123400000Y-62500000D03*
X122600000Y-57700000D03*
X123400000Y-61700000D03*
X122600000Y-56900000D03*
X122600000Y-69700000D03*
X122600000Y-68100000D03*
X122600000Y-68900000D03*
X122600000Y-67300000D03*
X121800000Y-56100000D03*
X121800000Y-56900000D03*
X121800000Y-57700000D03*
X121800000Y-58500000D03*
X121800000Y-59300000D03*
X121800000Y-60100000D03*
X121800000Y-60900000D03*
X121800000Y-61700000D03*
X121800000Y-62500000D03*
X121800000Y-63300000D03*
X121800000Y-55300000D03*
X121800000Y-64100000D03*
X121800000Y-64900000D03*
X121800000Y-65700000D03*
X121800000Y-66500000D03*
X121000000Y-56100000D03*
X121000000Y-55300000D03*
X121000000Y-57700000D03*
X121000000Y-56900000D03*
X121000000Y-64900000D03*
X121000000Y-64100000D03*
X121000000Y-62500000D03*
X121000000Y-63300000D03*
X121000000Y-61700000D03*
X121000000Y-60900000D03*
X121000000Y-60100000D03*
X121000000Y-59300000D03*
X121000000Y-58500000D03*
X121800000Y-68100000D03*
X121000000Y-65700000D03*
X120200000Y-69700000D03*
X121800000Y-68900000D03*
X121800000Y-69700000D03*
X120200000Y-65700000D03*
X120200000Y-64900000D03*
X120200000Y-63300000D03*
X120200000Y-62500000D03*
X120200000Y-61700000D03*
X120200000Y-60900000D03*
X120200000Y-59300000D03*
X120200000Y-58500000D03*
X120200000Y-57700000D03*
X121000000Y-69700000D03*
X121000000Y-68900000D03*
X120200000Y-56100000D03*
X120200000Y-55300000D03*
X121000000Y-68100000D03*
X120200000Y-64100000D03*
X120200000Y-56900000D03*
X120200000Y-68900000D03*
X120200000Y-67300000D03*
X121000000Y-67300000D03*
X120200000Y-68100000D03*
X120200000Y-60100000D03*
X120200000Y-66500000D03*
X121000000Y-66500000D03*
X121800000Y-67300000D03*
X119400000Y-55300000D03*
X119400000Y-56100000D03*
X119400000Y-56900000D03*
X119400000Y-57700000D03*
X119400000Y-58500000D03*
X119400000Y-59300000D03*
X119400000Y-60100000D03*
X119400000Y-60900000D03*
X119400000Y-61700000D03*
X119400000Y-62500000D03*
X119400000Y-63300000D03*
X119400000Y-64100000D03*
X119400000Y-64900000D03*
X119400000Y-65700000D03*
X119400000Y-66500000D03*
X119400000Y-67300000D03*
X119400000Y-68100000D03*
X119400000Y-68900000D03*
X119400000Y-69700000D03*
X117800000Y-69700000D03*
X117800000Y-68900000D03*
X117800000Y-68100000D03*
X117800000Y-67300000D03*
X117800000Y-66500000D03*
X117800000Y-65700000D03*
X117800000Y-64900000D03*
X117800000Y-64100000D03*
X117800000Y-63300000D03*
X117800000Y-62500000D03*
X117800000Y-61700000D03*
X117800000Y-60900000D03*
X117800000Y-60100000D03*
X117800000Y-59300000D03*
X117800000Y-58500000D03*
X117800000Y-57700000D03*
X117800000Y-56900000D03*
X117800000Y-56100000D03*
X117800000Y-55300000D03*
X118600000Y-69700000D03*
X118600000Y-68900000D03*
X118600000Y-68100000D03*
X118600000Y-67300000D03*
X118600000Y-66500000D03*
X118600000Y-65700000D03*
X118600000Y-64900000D03*
X118600000Y-64100000D03*
X118600000Y-63300000D03*
X118600000Y-62500000D03*
X118600000Y-61700000D03*
X118600000Y-60900000D03*
X118600000Y-60100000D03*
X118600000Y-59300000D03*
X118600000Y-58500000D03*
X118600000Y-57700000D03*
X118600000Y-56900000D03*
X118600000Y-56100000D03*
X118600000Y-55300000D03*
%TD*%
D10*
%TO.C,L1*%
G36*
X127250000Y-83062500D02*
G01*
X128375000Y-81862500D01*
X128375000Y-80062500D01*
X127250000Y-78862500D01*
X127250000Y-77662500D01*
X128375000Y-77662500D01*
X129550000Y-78837500D01*
X129550000Y-83087500D01*
X128375000Y-84262500D01*
X127250000Y-84262500D01*
X127250000Y-83062500D01*
G37*
G36*
X125250000Y-78862500D02*
G01*
X124125000Y-80062500D01*
X124125000Y-81862500D01*
X125250000Y-83062500D01*
X125250000Y-84262500D01*
X124125000Y-84262500D01*
X122950000Y-83087500D01*
X122950000Y-78837500D01*
X124125000Y-77662500D01*
X125250000Y-77662500D01*
X125250000Y-78862500D01*
G37*
%TD*%
D13*
%TO.C,Q1*%
X109450000Y-80500000D03*
X109450000Y-80999999D03*
X109450000Y-81500000D03*
X109450000Y-81999999D03*
X109450000Y-82500001D03*
X109450000Y-83000000D03*
X109450000Y-83499999D03*
X109450000Y-84000001D03*
X109450000Y-84500000D03*
X109450000Y-85000001D03*
X109450000Y-85500000D03*
X114150000Y-85500000D03*
X114150000Y-85000001D03*
X114150000Y-84500000D03*
X114150000Y-84000001D03*
X114150000Y-83499999D03*
X114150000Y-83000000D03*
X114150000Y-82500001D03*
X114150000Y-81999999D03*
X114150000Y-81500000D03*
X114150000Y-80999999D03*
X114150000Y-80500000D03*
D14*
X109685000Y-79987001D03*
X109685000Y-86012999D03*
X113915000Y-86012999D03*
X113915000Y-79987001D03*
%TD*%
D13*
%TO.C,Q3*%
X109450000Y-87500000D03*
X109450000Y-87999999D03*
X109450000Y-88500000D03*
X109450000Y-88999999D03*
X109450000Y-89500001D03*
X109450000Y-90000000D03*
X109450000Y-90499999D03*
X109450000Y-91000001D03*
X109450000Y-91500000D03*
X109450000Y-92000001D03*
X109450000Y-92500000D03*
X114150000Y-92500000D03*
X114150000Y-92000001D03*
X114150000Y-91500000D03*
X114150000Y-91000001D03*
X114150000Y-90499999D03*
X114150000Y-90000000D03*
X114150000Y-89500001D03*
X114150000Y-88999999D03*
X114150000Y-88500000D03*
X114150000Y-87999999D03*
X114150000Y-87500000D03*
D14*
X109685000Y-86987001D03*
X109685000Y-93012999D03*
X113915000Y-93012999D03*
X113915000Y-86987001D03*
%TD*%
D13*
%TO.C,Q4*%
X140550000Y-93499999D03*
X140550000Y-93000000D03*
X140550000Y-92499999D03*
X140550000Y-92000000D03*
X140550000Y-91499998D03*
X140550000Y-90999999D03*
X140550000Y-90500000D03*
X140550000Y-89999998D03*
X140550000Y-89499999D03*
X140550000Y-88999998D03*
X140550000Y-88499999D03*
X135850000Y-88499999D03*
X135850000Y-88999998D03*
X135850000Y-89499999D03*
X135850000Y-89999998D03*
X135850000Y-90500000D03*
X135850000Y-90999999D03*
X135850000Y-91499998D03*
X135850000Y-92000000D03*
X135850000Y-92499999D03*
X135850000Y-93000000D03*
X135850000Y-93499999D03*
D14*
X140315000Y-94012998D03*
X140315000Y-87987000D03*
X136085000Y-87987000D03*
X136085000Y-94012998D03*
%TD*%
D13*
%TO.C,Q6*%
X140550000Y-86499999D03*
X140550000Y-86000000D03*
X140550000Y-85499999D03*
X140550000Y-85000000D03*
X140550000Y-84499998D03*
X140550000Y-83999999D03*
X140550000Y-83500000D03*
X140550000Y-82999998D03*
X140550000Y-82499999D03*
X140550000Y-81999998D03*
X140550000Y-81499999D03*
X135850000Y-81499999D03*
X135850000Y-81999998D03*
X135850000Y-82499999D03*
X135850000Y-82999998D03*
X135850000Y-83500000D03*
X135850000Y-83999999D03*
X135850000Y-84499998D03*
X135850000Y-85000000D03*
X135850000Y-85499999D03*
X135850000Y-86000000D03*
X135850000Y-86499999D03*
D14*
X140315000Y-87012998D03*
X140315000Y-80987000D03*
X136085000Y-80987000D03*
X136085000Y-87012998D03*
%TD*%
D15*
%TO.C,U9*%
X141624999Y-55075000D03*
X141125000Y-55075000D03*
X140624998Y-55075000D03*
X140124999Y-55075000D03*
X139624997Y-55075000D03*
X139124998Y-55075000D03*
X138624999Y-55075000D03*
X138624999Y-56325000D03*
X139124998Y-56325000D03*
X139624997Y-56325000D03*
X140124999Y-56325000D03*
X140624998Y-56325000D03*
X141125000Y-56325000D03*
X141624999Y-56325000D03*
%TD*%
%TO.C,U10*%
G36*
G01*
X144125000Y-64575000D02*
X144325000Y-64575000D01*
G75*
G02*
X144425000Y-64675000I0J-100000D01*
G01*
X144425000Y-65950000D01*
G75*
G02*
X144325000Y-66050000I-100000J0D01*
G01*
X144125000Y-66050000D01*
G75*
G02*
X144025000Y-65950000I0J100000D01*
G01*
X144025000Y-64675000D01*
G75*
G02*
X144125000Y-64575000I100000J0D01*
G01*
G37*
G36*
G01*
X143475000Y-64575000D02*
X143675000Y-64575000D01*
G75*
G02*
X143775000Y-64675000I0J-100000D01*
G01*
X143775000Y-65950000D01*
G75*
G02*
X143675000Y-66050000I-100000J0D01*
G01*
X143475000Y-66050000D01*
G75*
G02*
X143375000Y-65950000I0J100000D01*
G01*
X143375000Y-64675000D01*
G75*
G02*
X143475000Y-64575000I100000J0D01*
G01*
G37*
G36*
G01*
X142825000Y-64575000D02*
X143025000Y-64575000D01*
G75*
G02*
X143125000Y-64675000I0J-100000D01*
G01*
X143125000Y-65950000D01*
G75*
G02*
X143025000Y-66050000I-100000J0D01*
G01*
X142825000Y-66050000D01*
G75*
G02*
X142725000Y-65950000I0J100000D01*
G01*
X142725000Y-64675000D01*
G75*
G02*
X142825000Y-64575000I100000J0D01*
G01*
G37*
G36*
G01*
X142175000Y-64575000D02*
X142375000Y-64575000D01*
G75*
G02*
X142475000Y-64675000I0J-100000D01*
G01*
X142475000Y-65950000D01*
G75*
G02*
X142375000Y-66050000I-100000J0D01*
G01*
X142175000Y-66050000D01*
G75*
G02*
X142075000Y-65950000I0J100000D01*
G01*
X142075000Y-64675000D01*
G75*
G02*
X142175000Y-64575000I100000J0D01*
G01*
G37*
G36*
G01*
X141525000Y-64575000D02*
X141725000Y-64575000D01*
G75*
G02*
X141825000Y-64675000I0J-100000D01*
G01*
X141825000Y-65950000D01*
G75*
G02*
X141725000Y-66050000I-100000J0D01*
G01*
X141525000Y-66050000D01*
G75*
G02*
X141425000Y-65950000I0J100000D01*
G01*
X141425000Y-64675000D01*
G75*
G02*
X141525000Y-64575000I100000J0D01*
G01*
G37*
G36*
G01*
X140875000Y-64575000D02*
X141075000Y-64575000D01*
G75*
G02*
X141175000Y-64675000I0J-100000D01*
G01*
X141175000Y-65950000D01*
G75*
G02*
X141075000Y-66050000I-100000J0D01*
G01*
X140875000Y-66050000D01*
G75*
G02*
X140775000Y-65950000I0J100000D01*
G01*
X140775000Y-64675000D01*
G75*
G02*
X140875000Y-64575000I100000J0D01*
G01*
G37*
G36*
G01*
X140225000Y-64575000D02*
X140425000Y-64575000D01*
G75*
G02*
X140525000Y-64675000I0J-100000D01*
G01*
X140525000Y-65950000D01*
G75*
G02*
X140425000Y-66050000I-100000J0D01*
G01*
X140225000Y-66050000D01*
G75*
G02*
X140125000Y-65950000I0J100000D01*
G01*
X140125000Y-64675000D01*
G75*
G02*
X140225000Y-64575000I100000J0D01*
G01*
G37*
G36*
G01*
X139575000Y-64575000D02*
X139775000Y-64575000D01*
G75*
G02*
X139875000Y-64675000I0J-100000D01*
G01*
X139875000Y-65950000D01*
G75*
G02*
X139775000Y-66050000I-100000J0D01*
G01*
X139575000Y-66050000D01*
G75*
G02*
X139475000Y-65950000I0J100000D01*
G01*
X139475000Y-64675000D01*
G75*
G02*
X139575000Y-64575000I100000J0D01*
G01*
G37*
G36*
G01*
X139575000Y-58850000D02*
X139775000Y-58850000D01*
G75*
G02*
X139875000Y-58950000I0J-100000D01*
G01*
X139875000Y-60225000D01*
G75*
G02*
X139775000Y-60325000I-100000J0D01*
G01*
X139575000Y-60325000D01*
G75*
G02*
X139475000Y-60225000I0J100000D01*
G01*
X139475000Y-58950000D01*
G75*
G02*
X139575000Y-58850000I100000J0D01*
G01*
G37*
G36*
G01*
X140225000Y-58850000D02*
X140425000Y-58850000D01*
G75*
G02*
X140525000Y-58950000I0J-100000D01*
G01*
X140525000Y-60225000D01*
G75*
G02*
X140425000Y-60325000I-100000J0D01*
G01*
X140225000Y-60325000D01*
G75*
G02*
X140125000Y-60225000I0J100000D01*
G01*
X140125000Y-58950000D01*
G75*
G02*
X140225000Y-58850000I100000J0D01*
G01*
G37*
G36*
G01*
X140875000Y-58850000D02*
X141075000Y-58850000D01*
G75*
G02*
X141175000Y-58950000I0J-100000D01*
G01*
X141175000Y-60225000D01*
G75*
G02*
X141075000Y-60325000I-100000J0D01*
G01*
X140875000Y-60325000D01*
G75*
G02*
X140775000Y-60225000I0J100000D01*
G01*
X140775000Y-58950000D01*
G75*
G02*
X140875000Y-58850000I100000J0D01*
G01*
G37*
G36*
G01*
X141525000Y-58850000D02*
X141725000Y-58850000D01*
G75*
G02*
X141825000Y-58950000I0J-100000D01*
G01*
X141825000Y-60225000D01*
G75*
G02*
X141725000Y-60325000I-100000J0D01*
G01*
X141525000Y-60325000D01*
G75*
G02*
X141425000Y-60225000I0J100000D01*
G01*
X141425000Y-58950000D01*
G75*
G02*
X141525000Y-58850000I100000J0D01*
G01*
G37*
G36*
G01*
X142175000Y-58850000D02*
X142375000Y-58850000D01*
G75*
G02*
X142475000Y-58950000I0J-100000D01*
G01*
X142475000Y-60225000D01*
G75*
G02*
X142375000Y-60325000I-100000J0D01*
G01*
X142175000Y-60325000D01*
G75*
G02*
X142075000Y-60225000I0J100000D01*
G01*
X142075000Y-58950000D01*
G75*
G02*
X142175000Y-58850000I100000J0D01*
G01*
G37*
G36*
G01*
X142825000Y-58850000D02*
X143025000Y-58850000D01*
G75*
G02*
X143125000Y-58950000I0J-100000D01*
G01*
X143125000Y-60225000D01*
G75*
G02*
X143025000Y-60325000I-100000J0D01*
G01*
X142825000Y-60325000D01*
G75*
G02*
X142725000Y-60225000I0J100000D01*
G01*
X142725000Y-58950000D01*
G75*
G02*
X142825000Y-58850000I100000J0D01*
G01*
G37*
G36*
G01*
X143475000Y-58850000D02*
X143675000Y-58850000D01*
G75*
G02*
X143775000Y-58950000I0J-100000D01*
G01*
X143775000Y-60225000D01*
G75*
G02*
X143675000Y-60325000I-100000J0D01*
G01*
X143475000Y-60325000D01*
G75*
G02*
X143375000Y-60225000I0J100000D01*
G01*
X143375000Y-58950000D01*
G75*
G02*
X143475000Y-58850000I100000J0D01*
G01*
G37*
G36*
G01*
X144125000Y-58850000D02*
X144325000Y-58850000D01*
G75*
G02*
X144425000Y-58950000I0J-100000D01*
G01*
X144425000Y-60225000D01*
G75*
G02*
X144325000Y-60325000I-100000J0D01*
G01*
X144125000Y-60325000D01*
G75*
G02*
X144025000Y-60225000I0J100000D01*
G01*
X144025000Y-58950000D01*
G75*
G02*
X144125000Y-58850000I100000J0D01*
G01*
G37*
%TD*%
%TO.C,C92*%
G36*
G01*
X135387500Y-73668750D02*
X135387500Y-74581250D01*
G75*
G02*
X135143750Y-74825000I-243750J0D01*
G01*
X134656250Y-74825000D01*
G75*
G02*
X134412500Y-74581250I0J243750D01*
G01*
X134412500Y-73668750D01*
G75*
G02*
X134656250Y-73425000I243750J0D01*
G01*
X135143750Y-73425000D01*
G75*
G02*
X135387500Y-73668750I0J-243750D01*
G01*
G37*
G36*
G01*
X137262500Y-73668750D02*
X137262500Y-74581250D01*
G75*
G02*
X137018750Y-74825000I-243750J0D01*
G01*
X136531250Y-74825000D01*
G75*
G02*
X136287500Y-74581250I0J243750D01*
G01*
X136287500Y-73668750D01*
G75*
G02*
X136531250Y-73425000I243750J0D01*
G01*
X137018750Y-73425000D01*
G75*
G02*
X137262500Y-73668750I0J-243750D01*
G01*
G37*
%TD*%
%TO.C,R54*%
G36*
G01*
X147729500Y-76516000D02*
X147930500Y-76516000D01*
G75*
G02*
X148010000Y-76595500I0J-79500D01*
G01*
X148010000Y-76754500D01*
G75*
G02*
X147930500Y-76834000I-79500J0D01*
G01*
X147729500Y-76834000D01*
G75*
G02*
X147650000Y-76754500I0J79500D01*
G01*
X147650000Y-76595500D01*
G75*
G02*
X147729500Y-76516000I79500J0D01*
G01*
G37*
G36*
G01*
X147729500Y-75826000D02*
X147930500Y-75826000D01*
G75*
G02*
X148010000Y-75905500I0J-79500D01*
G01*
X148010000Y-76064500D01*
G75*
G02*
X147930500Y-76144000I-79500J0D01*
G01*
X147729500Y-76144000D01*
G75*
G02*
X147650000Y-76064500I0J79500D01*
G01*
X147650000Y-75905500D01*
G75*
G02*
X147729500Y-75826000I79500J0D01*
G01*
G37*
%TD*%
%TO.C,R55*%
G36*
G01*
X147729500Y-74966000D02*
X147930500Y-74966000D01*
G75*
G02*
X148010000Y-75045500I0J-79500D01*
G01*
X148010000Y-75204500D01*
G75*
G02*
X147930500Y-75284000I-79500J0D01*
G01*
X147729500Y-75284000D01*
G75*
G02*
X147650000Y-75204500I0J79500D01*
G01*
X147650000Y-75045500D01*
G75*
G02*
X147729500Y-74966000I79500J0D01*
G01*
G37*
G36*
G01*
X147729500Y-74276000D02*
X147930500Y-74276000D01*
G75*
G02*
X148010000Y-74355500I0J-79500D01*
G01*
X148010000Y-74514500D01*
G75*
G02*
X147930500Y-74594000I-79500J0D01*
G01*
X147729500Y-74594000D01*
G75*
G02*
X147650000Y-74514500I0J79500D01*
G01*
X147650000Y-74355500D01*
G75*
G02*
X147729500Y-74276000I79500J0D01*
G01*
G37*
%TD*%
%TO.C,R51*%
G36*
G01*
X147729500Y-78066000D02*
X147930500Y-78066000D01*
G75*
G02*
X148010000Y-78145500I0J-79500D01*
G01*
X148010000Y-78304500D01*
G75*
G02*
X147930500Y-78384000I-79500J0D01*
G01*
X147729500Y-78384000D01*
G75*
G02*
X147650000Y-78304500I0J79500D01*
G01*
X147650000Y-78145500D01*
G75*
G02*
X147729500Y-78066000I79500J0D01*
G01*
G37*
G36*
G01*
X147729500Y-77376000D02*
X147930500Y-77376000D01*
G75*
G02*
X148010000Y-77455500I0J-79500D01*
G01*
X148010000Y-77614500D01*
G75*
G02*
X147930500Y-77694000I-79500J0D01*
G01*
X147729500Y-77694000D01*
G75*
G02*
X147650000Y-77614500I0J79500D01*
G01*
X147650000Y-77455500D01*
G75*
G02*
X147729500Y-77376000I79500J0D01*
G01*
G37*
%TD*%
%TO.C,C101*%
G36*
G01*
X148679500Y-74966000D02*
X148880500Y-74966000D01*
G75*
G02*
X148960000Y-75045500I0J-79500D01*
G01*
X148960000Y-75204500D01*
G75*
G02*
X148880500Y-75284000I-79500J0D01*
G01*
X148679500Y-75284000D01*
G75*
G02*
X148600000Y-75204500I0J79500D01*
G01*
X148600000Y-75045500D01*
G75*
G02*
X148679500Y-74966000I79500J0D01*
G01*
G37*
G36*
G01*
X148679500Y-74276000D02*
X148880500Y-74276000D01*
G75*
G02*
X148960000Y-74355500I0J-79500D01*
G01*
X148960000Y-74514500D01*
G75*
G02*
X148880500Y-74594000I-79500J0D01*
G01*
X148679500Y-74594000D01*
G75*
G02*
X148600000Y-74514500I0J79500D01*
G01*
X148600000Y-74355500D01*
G75*
G02*
X148679500Y-74276000I79500J0D01*
G01*
G37*
%TD*%
%TO.C,C99*%
G36*
G01*
X148679500Y-78066000D02*
X148880500Y-78066000D01*
G75*
G02*
X148960000Y-78145500I0J-79500D01*
G01*
X148960000Y-78304500D01*
G75*
G02*
X148880500Y-78384000I-79500J0D01*
G01*
X148679500Y-78384000D01*
G75*
G02*
X148600000Y-78304500I0J79500D01*
G01*
X148600000Y-78145500D01*
G75*
G02*
X148679500Y-78066000I79500J0D01*
G01*
G37*
G36*
G01*
X148679500Y-77376000D02*
X148880500Y-77376000D01*
G75*
G02*
X148960000Y-77455500I0J-79500D01*
G01*
X148960000Y-77614500D01*
G75*
G02*
X148880500Y-77694000I-79500J0D01*
G01*
X148679500Y-77694000D01*
G75*
G02*
X148600000Y-77614500I0J79500D01*
G01*
X148600000Y-77455500D01*
G75*
G02*
X148679500Y-77376000I79500J0D01*
G01*
G37*
%TD*%
%TO.C,C100*%
G36*
G01*
X148679500Y-76516000D02*
X148880500Y-76516000D01*
G75*
G02*
X148960000Y-76595500I0J-79500D01*
G01*
X148960000Y-76754500D01*
G75*
G02*
X148880500Y-76834000I-79500J0D01*
G01*
X148679500Y-76834000D01*
G75*
G02*
X148600000Y-76754500I0J79500D01*
G01*
X148600000Y-76595500D01*
G75*
G02*
X148679500Y-76516000I79500J0D01*
G01*
G37*
G36*
G01*
X148679500Y-75826000D02*
X148880500Y-75826000D01*
G75*
G02*
X148960000Y-75905500I0J-79500D01*
G01*
X148960000Y-76064500D01*
G75*
G02*
X148880500Y-76144000I-79500J0D01*
G01*
X148679500Y-76144000D01*
G75*
G02*
X148600000Y-76064500I0J79500D01*
G01*
X148600000Y-75905500D01*
G75*
G02*
X148679500Y-75826000I79500J0D01*
G01*
G37*
%TD*%
%TO.C,C94*%
G36*
G01*
X141850500Y-71709000D02*
X141649500Y-71709000D01*
G75*
G02*
X141570000Y-71629500I0J79500D01*
G01*
X141570000Y-71470500D01*
G75*
G02*
X141649500Y-71391000I79500J0D01*
G01*
X141850500Y-71391000D01*
G75*
G02*
X141930000Y-71470500I0J-79500D01*
G01*
X141930000Y-71629500D01*
G75*
G02*
X141850500Y-71709000I-79500J0D01*
G01*
G37*
G36*
G01*
X141850500Y-72399000D02*
X141649500Y-72399000D01*
G75*
G02*
X141570000Y-72319500I0J79500D01*
G01*
X141570000Y-72160500D01*
G75*
G02*
X141649500Y-72081000I79500J0D01*
G01*
X141850500Y-72081000D01*
G75*
G02*
X141930000Y-72160500I0J-79500D01*
G01*
X141930000Y-72319500D01*
G75*
G02*
X141850500Y-72399000I-79500J0D01*
G01*
G37*
%TD*%
%TO.C,C2*%
G36*
G01*
X144159500Y-70296000D02*
X144360500Y-70296000D01*
G75*
G02*
X144440000Y-70375500I0J-79500D01*
G01*
X144440000Y-70534500D01*
G75*
G02*
X144360500Y-70614000I-79500J0D01*
G01*
X144159500Y-70614000D01*
G75*
G02*
X144080000Y-70534500I0J79500D01*
G01*
X144080000Y-70375500D01*
G75*
G02*
X144159500Y-70296000I79500J0D01*
G01*
G37*
G36*
G01*
X144159500Y-69606000D02*
X144360500Y-69606000D01*
G75*
G02*
X144440000Y-69685500I0J-79500D01*
G01*
X144440000Y-69844500D01*
G75*
G02*
X144360500Y-69924000I-79500J0D01*
G01*
X144159500Y-69924000D01*
G75*
G02*
X144080000Y-69844500I0J79500D01*
G01*
X144080000Y-69685500D01*
G75*
G02*
X144159500Y-69606000I79500J0D01*
G01*
G37*
%TD*%
%TO.C,C61*%
G36*
G01*
X115974500Y-98956000D02*
X116175500Y-98956000D01*
G75*
G02*
X116255000Y-99035500I0J-79500D01*
G01*
X116255000Y-99194500D01*
G75*
G02*
X116175500Y-99274000I-79500J0D01*
G01*
X115974500Y-99274000D01*
G75*
G02*
X115895000Y-99194500I0J79500D01*
G01*
X115895000Y-99035500D01*
G75*
G02*
X115974500Y-98956000I79500J0D01*
G01*
G37*
G36*
G01*
X115974500Y-98266000D02*
X116175500Y-98266000D01*
G75*
G02*
X116255000Y-98345500I0J-79500D01*
G01*
X116255000Y-98504500D01*
G75*
G02*
X116175500Y-98584000I-79500J0D01*
G01*
X115974500Y-98584000D01*
G75*
G02*
X115895000Y-98504500I0J79500D01*
G01*
X115895000Y-98345500D01*
G75*
G02*
X115974500Y-98266000I79500J0D01*
G01*
G37*
%TD*%
%TO.C,C62*%
G36*
G01*
X114899500Y-98956000D02*
X115100500Y-98956000D01*
G75*
G02*
X115180000Y-99035500I0J-79500D01*
G01*
X115180000Y-99194500D01*
G75*
G02*
X115100500Y-99274000I-79500J0D01*
G01*
X114899500Y-99274000D01*
G75*
G02*
X114820000Y-99194500I0J79500D01*
G01*
X114820000Y-99035500D01*
G75*
G02*
X114899500Y-98956000I79500J0D01*
G01*
G37*
G36*
G01*
X114899500Y-98266000D02*
X115100500Y-98266000D01*
G75*
G02*
X115180000Y-98345500I0J-79500D01*
G01*
X115180000Y-98504500D01*
G75*
G02*
X115100500Y-98584000I-79500J0D01*
G01*
X114899500Y-98584000D01*
G75*
G02*
X114820000Y-98504500I0J79500D01*
G01*
X114820000Y-98345500D01*
G75*
G02*
X114899500Y-98266000I79500J0D01*
G01*
G37*
%TD*%
%TO.C,C67*%
G36*
G01*
X110390500Y-60689000D02*
X110189500Y-60689000D01*
G75*
G02*
X110110000Y-60609500I0J79500D01*
G01*
X110110000Y-60450500D01*
G75*
G02*
X110189500Y-60371000I79500J0D01*
G01*
X110390500Y-60371000D01*
G75*
G02*
X110470000Y-60450500I0J-79500D01*
G01*
X110470000Y-60609500D01*
G75*
G02*
X110390500Y-60689000I-79500J0D01*
G01*
G37*
G36*
G01*
X110390500Y-61379000D02*
X110189500Y-61379000D01*
G75*
G02*
X110110000Y-61299500I0J79500D01*
G01*
X110110000Y-61140500D01*
G75*
G02*
X110189500Y-61061000I79500J0D01*
G01*
X110390500Y-61061000D01*
G75*
G02*
X110470000Y-61140500I0J-79500D01*
G01*
X110470000Y-61299500D01*
G75*
G02*
X110390500Y-61379000I-79500J0D01*
G01*
G37*
%TD*%
%TO.C,C69*%
G36*
G01*
X126350500Y-52859000D02*
X126149500Y-52859000D01*
G75*
G02*
X126070000Y-52779500I0J79500D01*
G01*
X126070000Y-52620500D01*
G75*
G02*
X126149500Y-52541000I79500J0D01*
G01*
X126350500Y-52541000D01*
G75*
G02*
X126430000Y-52620500I0J-79500D01*
G01*
X126430000Y-52779500D01*
G75*
G02*
X126350500Y-52859000I-79500J0D01*
G01*
G37*
G36*
G01*
X126350500Y-53549000D02*
X126149500Y-53549000D01*
G75*
G02*
X126070000Y-53469500I0J79500D01*
G01*
X126070000Y-53310500D01*
G75*
G02*
X126149500Y-53231000I79500J0D01*
G01*
X126350500Y-53231000D01*
G75*
G02*
X126430000Y-53310500I0J-79500D01*
G01*
X126430000Y-53469500D01*
G75*
G02*
X126350500Y-53549000I-79500J0D01*
G01*
G37*
%TD*%
%TO.C,C71*%
G36*
G01*
X119100500Y-51534000D02*
X118899500Y-51534000D01*
G75*
G02*
X118820000Y-51454500I0J79500D01*
G01*
X118820000Y-51295500D01*
G75*
G02*
X118899500Y-51216000I79500J0D01*
G01*
X119100500Y-51216000D01*
G75*
G02*
X119180000Y-51295500I0J-79500D01*
G01*
X119180000Y-51454500D01*
G75*
G02*
X119100500Y-51534000I-79500J0D01*
G01*
G37*
G36*
G01*
X119100500Y-52224000D02*
X118899500Y-52224000D01*
G75*
G02*
X118820000Y-52144500I0J79500D01*
G01*
X118820000Y-51985500D01*
G75*
G02*
X118899500Y-51906000I79500J0D01*
G01*
X119100500Y-51906000D01*
G75*
G02*
X119180000Y-51985500I0J-79500D01*
G01*
X119180000Y-52144500D01*
G75*
G02*
X119100500Y-52224000I-79500J0D01*
G01*
G37*
%TD*%
%TO.C,C80*%
G36*
G01*
X117486000Y-79095500D02*
X117486000Y-78894500D01*
G75*
G02*
X117565500Y-78815000I79500J0D01*
G01*
X117724500Y-78815000D01*
G75*
G02*
X117804000Y-78894500I0J-79500D01*
G01*
X117804000Y-79095500D01*
G75*
G02*
X117724500Y-79175000I-79500J0D01*
G01*
X117565500Y-79175000D01*
G75*
G02*
X117486000Y-79095500I0J79500D01*
G01*
G37*
G36*
G01*
X116796000Y-79095500D02*
X116796000Y-78894500D01*
G75*
G02*
X116875500Y-78815000I79500J0D01*
G01*
X117034500Y-78815000D01*
G75*
G02*
X117114000Y-78894500I0J-79500D01*
G01*
X117114000Y-79095500D01*
G75*
G02*
X117034500Y-79175000I-79500J0D01*
G01*
X116875500Y-79175000D01*
G75*
G02*
X116796000Y-79095500I0J79500D01*
G01*
G37*
%TD*%
%TO.C,C82*%
G36*
G01*
X102650500Y-75584000D02*
X102449500Y-75584000D01*
G75*
G02*
X102370000Y-75504500I0J79500D01*
G01*
X102370000Y-75345500D01*
G75*
G02*
X102449500Y-75266000I79500J0D01*
G01*
X102650500Y-75266000D01*
G75*
G02*
X102730000Y-75345500I0J-79500D01*
G01*
X102730000Y-75504500D01*
G75*
G02*
X102650500Y-75584000I-79500J0D01*
G01*
G37*
G36*
G01*
X102650500Y-76274000D02*
X102449500Y-76274000D01*
G75*
G02*
X102370000Y-76194500I0J79500D01*
G01*
X102370000Y-76035500D01*
G75*
G02*
X102449500Y-75956000I79500J0D01*
G01*
X102650500Y-75956000D01*
G75*
G02*
X102730000Y-76035500I0J-79500D01*
G01*
X102730000Y-76194500D01*
G75*
G02*
X102650500Y-76274000I-79500J0D01*
G01*
G37*
%TD*%
%TO.C,C87*%
G36*
G01*
X117486000Y-95100500D02*
X117486000Y-94899500D01*
G75*
G02*
X117565500Y-94820000I79500J0D01*
G01*
X117724500Y-94820000D01*
G75*
G02*
X117804000Y-94899500I0J-79500D01*
G01*
X117804000Y-95100500D01*
G75*
G02*
X117724500Y-95180000I-79500J0D01*
G01*
X117565500Y-95180000D01*
G75*
G02*
X117486000Y-95100500I0J79500D01*
G01*
G37*
G36*
G01*
X116796000Y-95100500D02*
X116796000Y-94899500D01*
G75*
G02*
X116875500Y-94820000I79500J0D01*
G01*
X117034500Y-94820000D01*
G75*
G02*
X117114000Y-94899500I0J-79500D01*
G01*
X117114000Y-95100500D01*
G75*
G02*
X117034500Y-95180000I-79500J0D01*
G01*
X116875500Y-95180000D01*
G75*
G02*
X116796000Y-95100500I0J79500D01*
G01*
G37*
%TD*%
%TO.C,C90*%
G36*
G01*
X138152500Y-76205000D02*
X138497500Y-76205000D01*
G75*
G02*
X138645000Y-76352500I0J-147500D01*
G01*
X138645000Y-76647500D01*
G75*
G02*
X138497500Y-76795000I-147500J0D01*
G01*
X138152500Y-76795000D01*
G75*
G02*
X138005000Y-76647500I0J147500D01*
G01*
X138005000Y-76352500D01*
G75*
G02*
X138152500Y-76205000I147500J0D01*
G01*
G37*
G36*
G01*
X138152500Y-75235000D02*
X138497500Y-75235000D01*
G75*
G02*
X138645000Y-75382500I0J-147500D01*
G01*
X138645000Y-75677500D01*
G75*
G02*
X138497500Y-75825000I-147500J0D01*
G01*
X138152500Y-75825000D01*
G75*
G02*
X138005000Y-75677500I0J147500D01*
G01*
X138005000Y-75382500D01*
G75*
G02*
X138152500Y-75235000I147500J0D01*
G01*
G37*
%TD*%
%TO.C,C91*%
G36*
G01*
X134650000Y-75825000D02*
X134650000Y-77975000D01*
G75*
G02*
X134400000Y-78225000I-250000J0D01*
G01*
X133650000Y-78225000D01*
G75*
G02*
X133400000Y-77975000I0J250000D01*
G01*
X133400000Y-75825000D01*
G75*
G02*
X133650000Y-75575000I250000J0D01*
G01*
X134400000Y-75575000D01*
G75*
G02*
X134650000Y-75825000I0J-250000D01*
G01*
G37*
G36*
G01*
X137450000Y-75825000D02*
X137450000Y-77975000D01*
G75*
G02*
X137200000Y-78225000I-250000J0D01*
G01*
X136450000Y-78225000D01*
G75*
G02*
X136200000Y-77975000I0J250000D01*
G01*
X136200000Y-75825000D01*
G75*
G02*
X136450000Y-75575000I250000J0D01*
G01*
X137200000Y-75575000D01*
G75*
G02*
X137450000Y-75825000I0J-250000D01*
G01*
G37*
%TD*%
%TO.C,C93*%
G36*
G01*
X140455000Y-72297500D02*
X140455000Y-71952500D01*
G75*
G02*
X140602500Y-71805000I147500J0D01*
G01*
X140897500Y-71805000D01*
G75*
G02*
X141045000Y-71952500I0J-147500D01*
G01*
X141045000Y-72297500D01*
G75*
G02*
X140897500Y-72445000I-147500J0D01*
G01*
X140602500Y-72445000D01*
G75*
G02*
X140455000Y-72297500I0J147500D01*
G01*
G37*
G36*
G01*
X139485000Y-72297500D02*
X139485000Y-71952500D01*
G75*
G02*
X139632500Y-71805000I147500J0D01*
G01*
X139927500Y-71805000D01*
G75*
G02*
X140075000Y-71952500I0J-147500D01*
G01*
X140075000Y-72297500D01*
G75*
G02*
X139927500Y-72445000I-147500J0D01*
G01*
X139632500Y-72445000D01*
G75*
G02*
X139485000Y-72297500I0J147500D01*
G01*
G37*
%TD*%
%TO.C,C95*%
G36*
G01*
X138681250Y-73000000D02*
X138168750Y-73000000D01*
G75*
G02*
X137950000Y-72781250I0J218750D01*
G01*
X137950000Y-72343750D01*
G75*
G02*
X138168750Y-72125000I218750J0D01*
G01*
X138681250Y-72125000D01*
G75*
G02*
X138900000Y-72343750I0J-218750D01*
G01*
X138900000Y-72781250D01*
G75*
G02*
X138681250Y-73000000I-218750J0D01*
G01*
G37*
G36*
G01*
X138681250Y-74575000D02*
X138168750Y-74575000D01*
G75*
G02*
X137950000Y-74356250I0J218750D01*
G01*
X137950000Y-73918750D01*
G75*
G02*
X138168750Y-73700000I218750J0D01*
G01*
X138681250Y-73700000D01*
G75*
G02*
X138900000Y-73918750I0J-218750D01*
G01*
X138900000Y-74356250D01*
G75*
G02*
X138681250Y-74575000I-218750J0D01*
G01*
G37*
%TD*%
%TO.C,C96*%
G36*
G01*
X132514000Y-94899500D02*
X132514000Y-95100500D01*
G75*
G02*
X132434500Y-95180000I-79500J0D01*
G01*
X132275500Y-95180000D01*
G75*
G02*
X132196000Y-95100500I0J79500D01*
G01*
X132196000Y-94899500D01*
G75*
G02*
X132275500Y-94820000I79500J0D01*
G01*
X132434500Y-94820000D01*
G75*
G02*
X132514000Y-94899500I0J-79500D01*
G01*
G37*
G36*
G01*
X133204000Y-94899500D02*
X133204000Y-95100500D01*
G75*
G02*
X133124500Y-95180000I-79500J0D01*
G01*
X132965500Y-95180000D01*
G75*
G02*
X132886000Y-95100500I0J79500D01*
G01*
X132886000Y-94899500D01*
G75*
G02*
X132965500Y-94820000I79500J0D01*
G01*
X133124500Y-94820000D01*
G75*
G02*
X133204000Y-94899500I0J-79500D01*
G01*
G37*
%TD*%
%TO.C,C103*%
G36*
G01*
X132514000Y-78899500D02*
X132514000Y-79100500D01*
G75*
G02*
X132434500Y-79180000I-79500J0D01*
G01*
X132275500Y-79180000D01*
G75*
G02*
X132196000Y-79100500I0J79500D01*
G01*
X132196000Y-78899500D01*
G75*
G02*
X132275500Y-78820000I79500J0D01*
G01*
X132434500Y-78820000D01*
G75*
G02*
X132514000Y-78899500I0J-79500D01*
G01*
G37*
G36*
G01*
X133204000Y-78899500D02*
X133204000Y-79100500D01*
G75*
G02*
X133124500Y-79180000I-79500J0D01*
G01*
X132965500Y-79180000D01*
G75*
G02*
X132886000Y-79100500I0J79500D01*
G01*
X132886000Y-78899500D01*
G75*
G02*
X132965500Y-78820000I79500J0D01*
G01*
X133124500Y-78820000D01*
G75*
G02*
X133204000Y-78899500I0J-79500D01*
G01*
G37*
%TD*%
%TO.C,D3*%
G36*
G01*
X101852500Y-73175000D02*
X101507500Y-73175000D01*
G75*
G02*
X101360000Y-73027500I0J147500D01*
G01*
X101360000Y-72732500D01*
G75*
G02*
X101507500Y-72585000I147500J0D01*
G01*
X101852500Y-72585000D01*
G75*
G02*
X102000000Y-72732500I0J-147500D01*
G01*
X102000000Y-73027500D01*
G75*
G02*
X101852500Y-73175000I-147500J0D01*
G01*
G37*
G36*
G01*
X101852500Y-74145000D02*
X101507500Y-74145000D01*
G75*
G02*
X101360000Y-73997500I0J147500D01*
G01*
X101360000Y-73702500D01*
G75*
G02*
X101507500Y-73555000I147500J0D01*
G01*
X101852500Y-73555000D01*
G75*
G02*
X102000000Y-73702500I0J-147500D01*
G01*
X102000000Y-73997500D01*
G75*
G02*
X101852500Y-74145000I-147500J0D01*
G01*
G37*
%TD*%
%TO.C,D4*%
G36*
G01*
X148405000Y-73382500D02*
X148405000Y-73037500D01*
G75*
G02*
X148552500Y-72890000I147500J0D01*
G01*
X148847500Y-72890000D01*
G75*
G02*
X148995000Y-73037500I0J-147500D01*
G01*
X148995000Y-73382500D01*
G75*
G02*
X148847500Y-73530000I-147500J0D01*
G01*
X148552500Y-73530000D01*
G75*
G02*
X148405000Y-73382500I0J147500D01*
G01*
G37*
G36*
G01*
X147435000Y-73382500D02*
X147435000Y-73037500D01*
G75*
G02*
X147582500Y-72890000I147500J0D01*
G01*
X147877500Y-72890000D01*
G75*
G02*
X148025000Y-73037500I0J-147500D01*
G01*
X148025000Y-73382500D01*
G75*
G02*
X147877500Y-73530000I-147500J0D01*
G01*
X147582500Y-73530000D01*
G75*
G02*
X147435000Y-73382500I0J147500D01*
G01*
G37*
%TD*%
D16*
%TO.C,D5*%
X109755000Y-64690000D03*
X106555000Y-64690000D03*
X109755000Y-69590000D03*
X106555000Y-69590000D03*
%TD*%
%TO.C,R2*%
G36*
G01*
X145210500Y-69284000D02*
X145009500Y-69284000D01*
G75*
G02*
X144930000Y-69204500I0J79500D01*
G01*
X144930000Y-69045500D01*
G75*
G02*
X145009500Y-68966000I79500J0D01*
G01*
X145210500Y-68966000D01*
G75*
G02*
X145290000Y-69045500I0J-79500D01*
G01*
X145290000Y-69204500D01*
G75*
G02*
X145210500Y-69284000I-79500J0D01*
G01*
G37*
G36*
G01*
X145210500Y-69974000D02*
X145009500Y-69974000D01*
G75*
G02*
X144930000Y-69894500I0J79500D01*
G01*
X144930000Y-69735500D01*
G75*
G02*
X145009500Y-69656000I79500J0D01*
G01*
X145210500Y-69656000D01*
G75*
G02*
X145290000Y-69735500I0J-79500D01*
G01*
X145290000Y-69894500D01*
G75*
G02*
X145210500Y-69974000I-79500J0D01*
G01*
G37*
%TD*%
%TO.C,R3*%
G36*
G01*
X121073600Y-80112700D02*
X121073600Y-80313700D01*
G75*
G02*
X120994100Y-80393200I-79500J0D01*
G01*
X120835100Y-80393200D01*
G75*
G02*
X120755600Y-80313700I0J79500D01*
G01*
X120755600Y-80112700D01*
G75*
G02*
X120835100Y-80033200I79500J0D01*
G01*
X120994100Y-80033200D01*
G75*
G02*
X121073600Y-80112700I0J-79500D01*
G01*
G37*
G36*
G01*
X121763600Y-80112700D02*
X121763600Y-80313700D01*
G75*
G02*
X121684100Y-80393200I-79500J0D01*
G01*
X121525100Y-80393200D01*
G75*
G02*
X121445600Y-80313700I0J79500D01*
G01*
X121445600Y-80112700D01*
G75*
G02*
X121525100Y-80033200I79500J0D01*
G01*
X121684100Y-80033200D01*
G75*
G02*
X121763600Y-80112700I0J-79500D01*
G01*
G37*
%TD*%
%TO.C,R21*%
G36*
G01*
X105000500Y-61339000D02*
X104799500Y-61339000D01*
G75*
G02*
X104720000Y-61259500I0J79500D01*
G01*
X104720000Y-61100500D01*
G75*
G02*
X104799500Y-61021000I79500J0D01*
G01*
X105000500Y-61021000D01*
G75*
G02*
X105080000Y-61100500I0J-79500D01*
G01*
X105080000Y-61259500D01*
G75*
G02*
X105000500Y-61339000I-79500J0D01*
G01*
G37*
G36*
G01*
X105000500Y-62029000D02*
X104799500Y-62029000D01*
G75*
G02*
X104720000Y-61949500I0J79500D01*
G01*
X104720000Y-61790500D01*
G75*
G02*
X104799500Y-61711000I79500J0D01*
G01*
X105000500Y-61711000D01*
G75*
G02*
X105080000Y-61790500I0J-79500D01*
G01*
X105080000Y-61949500D01*
G75*
G02*
X105000500Y-62029000I-79500J0D01*
G01*
G37*
%TD*%
%TO.C,R22*%
G36*
G01*
X144081000Y-58250500D02*
X144081000Y-58049500D01*
G75*
G02*
X144160500Y-57970000I79500J0D01*
G01*
X144319500Y-57970000D01*
G75*
G02*
X144399000Y-58049500I0J-79500D01*
G01*
X144399000Y-58250500D01*
G75*
G02*
X144319500Y-58330000I-79500J0D01*
G01*
X144160500Y-58330000D01*
G75*
G02*
X144081000Y-58250500I0J79500D01*
G01*
G37*
G36*
G01*
X143391000Y-58250500D02*
X143391000Y-58049500D01*
G75*
G02*
X143470500Y-57970000I79500J0D01*
G01*
X143629500Y-57970000D01*
G75*
G02*
X143709000Y-58049500I0J-79500D01*
G01*
X143709000Y-58250500D01*
G75*
G02*
X143629500Y-58330000I-79500J0D01*
G01*
X143470500Y-58330000D01*
G75*
G02*
X143391000Y-58250500I0J79500D01*
G01*
G37*
%TD*%
%TO.C,R23*%
G36*
G01*
X140188998Y-57149499D02*
X140188998Y-57350499D01*
G75*
G02*
X140109498Y-57429999I-79500J0D01*
G01*
X139950498Y-57429999D01*
G75*
G02*
X139870998Y-57350499I0J79500D01*
G01*
X139870998Y-57149499D01*
G75*
G02*
X139950498Y-57069999I79500J0D01*
G01*
X140109498Y-57069999D01*
G75*
G02*
X140188998Y-57149499I0J-79500D01*
G01*
G37*
G36*
G01*
X140878998Y-57149499D02*
X140878998Y-57350499D01*
G75*
G02*
X140799498Y-57429999I-79500J0D01*
G01*
X140640498Y-57429999D01*
G75*
G02*
X140560998Y-57350499I0J79500D01*
G01*
X140560998Y-57149499D01*
G75*
G02*
X140640498Y-57069999I79500J0D01*
G01*
X140799498Y-57069999D01*
G75*
G02*
X140878998Y-57149499I0J-79500D01*
G01*
G37*
%TD*%
%TO.C,R24*%
G36*
G01*
X138688998Y-57149499D02*
X138688998Y-57350499D01*
G75*
G02*
X138609498Y-57429999I-79500J0D01*
G01*
X138450498Y-57429999D01*
G75*
G02*
X138370998Y-57350499I0J79500D01*
G01*
X138370998Y-57149499D01*
G75*
G02*
X138450498Y-57069999I79500J0D01*
G01*
X138609498Y-57069999D01*
G75*
G02*
X138688998Y-57149499I0J-79500D01*
G01*
G37*
G36*
G01*
X139378998Y-57149499D02*
X139378998Y-57350499D01*
G75*
G02*
X139299498Y-57429999I-79500J0D01*
G01*
X139140498Y-57429999D01*
G75*
G02*
X139060998Y-57350499I0J79500D01*
G01*
X139060998Y-57149499D01*
G75*
G02*
X139140498Y-57069999I79500J0D01*
G01*
X139299498Y-57069999D01*
G75*
G02*
X139378998Y-57149499I0J-79500D01*
G01*
G37*
%TD*%
%TO.C,R29*%
G36*
G01*
X119749500Y-51906000D02*
X119950500Y-51906000D01*
G75*
G02*
X120030000Y-51985500I0J-79500D01*
G01*
X120030000Y-52144500D01*
G75*
G02*
X119950500Y-52224000I-79500J0D01*
G01*
X119749500Y-52224000D01*
G75*
G02*
X119670000Y-52144500I0J79500D01*
G01*
X119670000Y-51985500D01*
G75*
G02*
X119749500Y-51906000I79500J0D01*
G01*
G37*
G36*
G01*
X119749500Y-51216000D02*
X119950500Y-51216000D01*
G75*
G02*
X120030000Y-51295500I0J-79500D01*
G01*
X120030000Y-51454500D01*
G75*
G02*
X119950500Y-51534000I-79500J0D01*
G01*
X119749500Y-51534000D01*
G75*
G02*
X119670000Y-51454500I0J79500D01*
G01*
X119670000Y-51295500D01*
G75*
G02*
X119749500Y-51216000I79500J0D01*
G01*
G37*
%TD*%
%TO.C,R30*%
G36*
G01*
X127099500Y-51886000D02*
X127300500Y-51886000D01*
G75*
G02*
X127380000Y-51965500I0J-79500D01*
G01*
X127380000Y-52124500D01*
G75*
G02*
X127300500Y-52204000I-79500J0D01*
G01*
X127099500Y-52204000D01*
G75*
G02*
X127020000Y-52124500I0J79500D01*
G01*
X127020000Y-51965500D01*
G75*
G02*
X127099500Y-51886000I79500J0D01*
G01*
G37*
G36*
G01*
X127099500Y-51196000D02*
X127300500Y-51196000D01*
G75*
G02*
X127380000Y-51275500I0J-79500D01*
G01*
X127380000Y-51434500D01*
G75*
G02*
X127300500Y-51514000I-79500J0D01*
G01*
X127099500Y-51514000D01*
G75*
G02*
X127020000Y-51434500I0J79500D01*
G01*
X127020000Y-51275500D01*
G75*
G02*
X127099500Y-51196000I79500J0D01*
G01*
G37*
%TD*%
D17*
%TO.C,R35*%
X118900000Y-79950000D03*
X115700000Y-79950000D03*
D18*
X118900000Y-83500000D03*
X115700000Y-83500000D03*
%TD*%
D17*
%TO.C,R44*%
X115700000Y-94050000D03*
X118900000Y-94050000D03*
D18*
X115700000Y-90500000D03*
X118900000Y-90500000D03*
%TD*%
D17*
%TO.C,R49*%
X131100000Y-94050000D03*
X134300000Y-94050000D03*
D18*
X131100000Y-90500000D03*
X134300000Y-90500000D03*
%TD*%
D17*
%TO.C,R58*%
X134300000Y-79950000D03*
X131100000Y-79950000D03*
D18*
X134300000Y-83500000D03*
X131100000Y-83500000D03*
%TD*%
D19*
%TO.C,SW1*%
X117800000Y-52040000D03*
X114400000Y-52040000D03*
%TD*%
D20*
%TO.C,U8*%
X106260000Y-62495000D03*
X106260000Y-61855000D03*
X106260000Y-61195000D03*
X106260000Y-60555000D03*
X108880000Y-60555000D03*
X108880000Y-61195000D03*
X108880000Y-61855000D03*
X108880000Y-62495000D03*
%TD*%
%TO.C,D1*%
G36*
G01*
X122750000Y-50862500D02*
X122750000Y-50517500D01*
G75*
G02*
X122897500Y-50370000I147500J0D01*
G01*
X123192500Y-50370000D01*
G75*
G02*
X123340000Y-50517500I0J-147500D01*
G01*
X123340000Y-50862500D01*
G75*
G02*
X123192500Y-51010000I-147500J0D01*
G01*
X122897500Y-51010000D01*
G75*
G02*
X122750000Y-50862500I0J147500D01*
G01*
G37*
G36*
G01*
X123720000Y-50862500D02*
X123720000Y-50517500D01*
G75*
G02*
X123867500Y-50370000I147500J0D01*
G01*
X124162500Y-50370000D01*
G75*
G02*
X124310000Y-50517500I0J-147500D01*
G01*
X124310000Y-50862500D01*
G75*
G02*
X124162500Y-51010000I-147500J0D01*
G01*
X123867500Y-51010000D01*
G75*
G02*
X123720000Y-50862500I0J147500D01*
G01*
G37*
%TD*%
D21*
%TO.C,Q7*%
X120730000Y-52040000D03*
X121180000Y-52040000D03*
D22*
X120955000Y-51340000D03*
%TD*%
%TO.C,R4*%
G36*
G01*
X121909500Y-51206000D02*
X122110500Y-51206000D01*
G75*
G02*
X122190000Y-51285500I0J-79500D01*
G01*
X122190000Y-51444500D01*
G75*
G02*
X122110500Y-51524000I-79500J0D01*
G01*
X121909500Y-51524000D01*
G75*
G02*
X121830000Y-51444500I0J79500D01*
G01*
X121830000Y-51285500D01*
G75*
G02*
X121909500Y-51206000I79500J0D01*
G01*
G37*
G36*
G01*
X121909500Y-50516000D02*
X122110500Y-50516000D01*
G75*
G02*
X122190000Y-50595500I0J-79500D01*
G01*
X122190000Y-50754500D01*
G75*
G02*
X122110500Y-50834000I-79500J0D01*
G01*
X121909500Y-50834000D01*
G75*
G02*
X121830000Y-50754500I0J79500D01*
G01*
X121830000Y-50595500D01*
G75*
G02*
X121909500Y-50516000I79500J0D01*
G01*
G37*
%TD*%
%TO.C,C20*%
G36*
G01*
X131304000Y-95869500D02*
X131304000Y-96070500D01*
G75*
G02*
X131224500Y-96150000I-79500J0D01*
G01*
X131065500Y-96150000D01*
G75*
G02*
X130986000Y-96070500I0J79500D01*
G01*
X130986000Y-95869500D01*
G75*
G02*
X131065500Y-95790000I79500J0D01*
G01*
X131224500Y-95790000D01*
G75*
G02*
X131304000Y-95869500I0J-79500D01*
G01*
G37*
G36*
G01*
X131994000Y-95869500D02*
X131994000Y-96070500D01*
G75*
G02*
X131914500Y-96150000I-79500J0D01*
G01*
X131755500Y-96150000D01*
G75*
G02*
X131676000Y-96070500I0J79500D01*
G01*
X131676000Y-95869500D01*
G75*
G02*
X131755500Y-95790000I79500J0D01*
G01*
X131914500Y-95790000D01*
G75*
G02*
X131994000Y-95869500I0J-79500D01*
G01*
G37*
%TD*%
%TO.C,C24*%
G36*
G01*
X135776000Y-96245500D02*
X135776000Y-96044500D01*
G75*
G02*
X135855500Y-95965000I79500J0D01*
G01*
X136014500Y-95965000D01*
G75*
G02*
X136094000Y-96044500I0J-79500D01*
G01*
X136094000Y-96245500D01*
G75*
G02*
X136014500Y-96325000I-79500J0D01*
G01*
X135855500Y-96325000D01*
G75*
G02*
X135776000Y-96245500I0J79500D01*
G01*
G37*
G36*
G01*
X135086000Y-96245500D02*
X135086000Y-96044500D01*
G75*
G02*
X135165500Y-95965000I79500J0D01*
G01*
X135324500Y-95965000D01*
G75*
G02*
X135404000Y-96044500I0J-79500D01*
G01*
X135404000Y-96245500D01*
G75*
G02*
X135324500Y-96325000I-79500J0D01*
G01*
X135165500Y-96325000D01*
G75*
G02*
X135086000Y-96245500I0J79500D01*
G01*
G37*
%TD*%
D23*
%TO.C,U7*%
X116075000Y-97595000D03*
D24*
X115650000Y-97420000D03*
D25*
X115000000Y-97420000D03*
X115000000Y-97020000D03*
X115000000Y-96620000D03*
X115000000Y-96220000D03*
X115000000Y-95820000D03*
D24*
X115650000Y-95820000D03*
D25*
X116300000Y-95820000D03*
X116300000Y-96220000D03*
X116300000Y-96620000D03*
X116300000Y-97020000D03*
X116300000Y-97420000D03*
%TD*%
D23*
%TO.C,U17*%
X133115000Y-95970000D03*
D24*
X133540000Y-96145000D03*
D25*
X134190000Y-96145000D03*
X134190000Y-96545000D03*
X134190000Y-96945000D03*
X134190000Y-97345000D03*
X134190000Y-97745000D03*
D24*
X133540000Y-97745000D03*
D25*
X132890000Y-97745000D03*
X132890000Y-97345000D03*
X132890000Y-96945000D03*
X132890000Y-96545000D03*
X132890000Y-96145000D03*
%TD*%
%TO.C,R7*%
G36*
G01*
X127099500Y-53536000D02*
X127300500Y-53536000D01*
G75*
G02*
X127380000Y-53615500I0J-79500D01*
G01*
X127380000Y-53774500D01*
G75*
G02*
X127300500Y-53854000I-79500J0D01*
G01*
X127099500Y-53854000D01*
G75*
G02*
X127020000Y-53774500I0J79500D01*
G01*
X127020000Y-53615500D01*
G75*
G02*
X127099500Y-53536000I79500J0D01*
G01*
G37*
G36*
G01*
X127099500Y-52846000D02*
X127300500Y-52846000D01*
G75*
G02*
X127380000Y-52925500I0J-79500D01*
G01*
X127380000Y-53084500D01*
G75*
G02*
X127300500Y-53164000I-79500J0D01*
G01*
X127099500Y-53164000D01*
G75*
G02*
X127020000Y-53084500I0J79500D01*
G01*
X127020000Y-52925500D01*
G75*
G02*
X127099500Y-52846000I79500J0D01*
G01*
G37*
%TD*%
%TO.C,U20*%
G36*
G01*
X144260000Y-78407500D02*
X144260000Y-77942500D01*
G75*
G02*
X144492500Y-77710000I232500J0D01*
G01*
X144957500Y-77710000D01*
G75*
G02*
X145190000Y-77942500I0J-232500D01*
G01*
X145190000Y-78407500D01*
G75*
G02*
X144957500Y-78640000I-232500J0D01*
G01*
X144492500Y-78640000D01*
G75*
G02*
X144260000Y-78407500I0J232500D01*
G01*
G37*
G36*
G01*
X144260000Y-77257500D02*
X144260000Y-76792500D01*
G75*
G02*
X144492500Y-76560000I232500J0D01*
G01*
X144957500Y-76560000D01*
G75*
G02*
X145190000Y-76792500I0J-232500D01*
G01*
X145190000Y-77257500D01*
G75*
G02*
X144957500Y-77490000I-232500J0D01*
G01*
X144492500Y-77490000D01*
G75*
G02*
X144260000Y-77257500I0J232500D01*
G01*
G37*
G36*
G01*
X144260000Y-76107500D02*
X144260000Y-75642500D01*
G75*
G02*
X144492500Y-75410000I232500J0D01*
G01*
X144957500Y-75410000D01*
G75*
G02*
X145190000Y-75642500I0J-232500D01*
G01*
X145190000Y-76107500D01*
G75*
G02*
X144957500Y-76340000I-232500J0D01*
G01*
X144492500Y-76340000D01*
G75*
G02*
X144260000Y-76107500I0J232500D01*
G01*
G37*
G36*
G01*
X144260000Y-74957500D02*
X144260000Y-74492500D01*
G75*
G02*
X144492500Y-74260000I232500J0D01*
G01*
X144957500Y-74260000D01*
G75*
G02*
X145190000Y-74492500I0J-232500D01*
G01*
X145190000Y-74957500D01*
G75*
G02*
X144957500Y-75190000I-232500J0D01*
G01*
X144492500Y-75190000D01*
G75*
G02*
X144260000Y-74957500I0J232500D01*
G01*
G37*
G36*
G01*
X143110000Y-78407500D02*
X143110000Y-77942500D01*
G75*
G02*
X143342500Y-77710000I232500J0D01*
G01*
X143807500Y-77710000D01*
G75*
G02*
X144040000Y-77942500I0J-232500D01*
G01*
X144040000Y-78407500D01*
G75*
G02*
X143807500Y-78640000I-232500J0D01*
G01*
X143342500Y-78640000D01*
G75*
G02*
X143110000Y-78407500I0J232500D01*
G01*
G37*
G36*
G01*
X143110000Y-77257500D02*
X143110000Y-76792500D01*
G75*
G02*
X143342500Y-76560000I232500J0D01*
G01*
X143807500Y-76560000D01*
G75*
G02*
X144040000Y-76792500I0J-232500D01*
G01*
X144040000Y-77257500D01*
G75*
G02*
X143807500Y-77490000I-232500J0D01*
G01*
X143342500Y-77490000D01*
G75*
G02*
X143110000Y-77257500I0J232500D01*
G01*
G37*
G36*
G01*
X143110000Y-76107500D02*
X143110000Y-75642500D01*
G75*
G02*
X143342500Y-75410000I232500J0D01*
G01*
X143807500Y-75410000D01*
G75*
G02*
X144040000Y-75642500I0J-232500D01*
G01*
X144040000Y-76107500D01*
G75*
G02*
X143807500Y-76340000I-232500J0D01*
G01*
X143342500Y-76340000D01*
G75*
G02*
X143110000Y-76107500I0J232500D01*
G01*
G37*
G36*
G01*
X143110000Y-74957500D02*
X143110000Y-74492500D01*
G75*
G02*
X143342500Y-74260000I232500J0D01*
G01*
X143807500Y-74260000D01*
G75*
G02*
X144040000Y-74492500I0J-232500D01*
G01*
X144040000Y-74957500D01*
G75*
G02*
X143807500Y-75190000I-232500J0D01*
G01*
X143342500Y-75190000D01*
G75*
G02*
X143110000Y-74957500I0J232500D01*
G01*
G37*
G36*
G01*
X141960000Y-78407500D02*
X141960000Y-77942500D01*
G75*
G02*
X142192500Y-77710000I232500J0D01*
G01*
X142657500Y-77710000D01*
G75*
G02*
X142890000Y-77942500I0J-232500D01*
G01*
X142890000Y-78407500D01*
G75*
G02*
X142657500Y-78640000I-232500J0D01*
G01*
X142192500Y-78640000D01*
G75*
G02*
X141960000Y-78407500I0J232500D01*
G01*
G37*
G36*
G01*
X141960000Y-77257500D02*
X141960000Y-76792500D01*
G75*
G02*
X142192500Y-76560000I232500J0D01*
G01*
X142657500Y-76560000D01*
G75*
G02*
X142890000Y-76792500I0J-232500D01*
G01*
X142890000Y-77257500D01*
G75*
G02*
X142657500Y-77490000I-232500J0D01*
G01*
X142192500Y-77490000D01*
G75*
G02*
X141960000Y-77257500I0J232500D01*
G01*
G37*
G36*
G01*
X141960000Y-76107500D02*
X141960000Y-75642500D01*
G75*
G02*
X142192500Y-75410000I232500J0D01*
G01*
X142657500Y-75410000D01*
G75*
G02*
X142890000Y-75642500I0J-232500D01*
G01*
X142890000Y-76107500D01*
G75*
G02*
X142657500Y-76340000I-232500J0D01*
G01*
X142192500Y-76340000D01*
G75*
G02*
X141960000Y-76107500I0J232500D01*
G01*
G37*
G36*
G01*
X141960000Y-74957500D02*
X141960000Y-74492500D01*
G75*
G02*
X142192500Y-74260000I232500J0D01*
G01*
X142657500Y-74260000D01*
G75*
G02*
X142890000Y-74492500I0J-232500D01*
G01*
X142890000Y-74957500D01*
G75*
G02*
X142657500Y-75190000I-232500J0D01*
G01*
X142192500Y-75190000D01*
G75*
G02*
X141960000Y-74957500I0J232500D01*
G01*
G37*
G36*
G01*
X140810000Y-78407500D02*
X140810000Y-77942500D01*
G75*
G02*
X141042500Y-77710000I232500J0D01*
G01*
X141507500Y-77710000D01*
G75*
G02*
X141740000Y-77942500I0J-232500D01*
G01*
X141740000Y-78407500D01*
G75*
G02*
X141507500Y-78640000I-232500J0D01*
G01*
X141042500Y-78640000D01*
G75*
G02*
X140810000Y-78407500I0J232500D01*
G01*
G37*
G36*
G01*
X140810000Y-77257500D02*
X140810000Y-76792500D01*
G75*
G02*
X141042500Y-76560000I232500J0D01*
G01*
X141507500Y-76560000D01*
G75*
G02*
X141740000Y-76792500I0J-232500D01*
G01*
X141740000Y-77257500D01*
G75*
G02*
X141507500Y-77490000I-232500J0D01*
G01*
X141042500Y-77490000D01*
G75*
G02*
X140810000Y-77257500I0J232500D01*
G01*
G37*
G36*
G01*
X140810000Y-76107500D02*
X140810000Y-75642500D01*
G75*
G02*
X141042500Y-75410000I232500J0D01*
G01*
X141507500Y-75410000D01*
G75*
G02*
X141740000Y-75642500I0J-232500D01*
G01*
X141740000Y-76107500D01*
G75*
G02*
X141507500Y-76340000I-232500J0D01*
G01*
X141042500Y-76340000D01*
G75*
G02*
X140810000Y-76107500I0J232500D01*
G01*
G37*
G36*
G01*
X140810000Y-74957500D02*
X140810000Y-74492500D01*
G75*
G02*
X141042500Y-74260000I232500J0D01*
G01*
X141507500Y-74260000D01*
G75*
G02*
X141740000Y-74492500I0J-232500D01*
G01*
X141740000Y-74957500D01*
G75*
G02*
X141507500Y-75190000I-232500J0D01*
G01*
X141042500Y-75190000D01*
G75*
G02*
X140810000Y-74957500I0J232500D01*
G01*
G37*
G36*
G01*
X140625000Y-73862500D02*
X140625000Y-73162500D01*
G75*
G02*
X140687500Y-73100000I62500J0D01*
G01*
X140812500Y-73100000D01*
G75*
G02*
X140875000Y-73162500I0J-62500D01*
G01*
X140875000Y-73862500D01*
G75*
G02*
X140812500Y-73925000I-62500J0D01*
G01*
X140687500Y-73925000D01*
G75*
G02*
X140625000Y-73862500I0J62500D01*
G01*
G37*
G36*
G01*
X141125000Y-73862500D02*
X141125000Y-73162500D01*
G75*
G02*
X141187500Y-73100000I62500J0D01*
G01*
X141312500Y-73100000D01*
G75*
G02*
X141375000Y-73162500I0J-62500D01*
G01*
X141375000Y-73862500D01*
G75*
G02*
X141312500Y-73925000I-62500J0D01*
G01*
X141187500Y-73925000D01*
G75*
G02*
X141125000Y-73862500I0J62500D01*
G01*
G37*
G36*
G01*
X141625000Y-73862500D02*
X141625000Y-73162500D01*
G75*
G02*
X141687500Y-73100000I62500J0D01*
G01*
X141812500Y-73100000D01*
G75*
G02*
X141875000Y-73162500I0J-62500D01*
G01*
X141875000Y-73862500D01*
G75*
G02*
X141812500Y-73925000I-62500J0D01*
G01*
X141687500Y-73925000D01*
G75*
G02*
X141625000Y-73862500I0J62500D01*
G01*
G37*
G36*
G01*
X142125000Y-73862500D02*
X142125000Y-73162500D01*
G75*
G02*
X142187500Y-73100000I62500J0D01*
G01*
X142312500Y-73100000D01*
G75*
G02*
X142375000Y-73162500I0J-62500D01*
G01*
X142375000Y-73862500D01*
G75*
G02*
X142312500Y-73925000I-62500J0D01*
G01*
X142187500Y-73925000D01*
G75*
G02*
X142125000Y-73862500I0J62500D01*
G01*
G37*
G36*
G01*
X142625000Y-73862500D02*
X142625000Y-73162500D01*
G75*
G02*
X142687500Y-73100000I62500J0D01*
G01*
X142812500Y-73100000D01*
G75*
G02*
X142875000Y-73162500I0J-62500D01*
G01*
X142875000Y-73862500D01*
G75*
G02*
X142812500Y-73925000I-62500J0D01*
G01*
X142687500Y-73925000D01*
G75*
G02*
X142625000Y-73862500I0J62500D01*
G01*
G37*
G36*
G01*
X143125000Y-73862500D02*
X143125000Y-73162500D01*
G75*
G02*
X143187500Y-73100000I62500J0D01*
G01*
X143312500Y-73100000D01*
G75*
G02*
X143375000Y-73162500I0J-62500D01*
G01*
X143375000Y-73862500D01*
G75*
G02*
X143312500Y-73925000I-62500J0D01*
G01*
X143187500Y-73925000D01*
G75*
G02*
X143125000Y-73862500I0J62500D01*
G01*
G37*
G36*
G01*
X143625000Y-73862500D02*
X143625000Y-73162500D01*
G75*
G02*
X143687500Y-73100000I62500J0D01*
G01*
X143812500Y-73100000D01*
G75*
G02*
X143875000Y-73162500I0J-62500D01*
G01*
X143875000Y-73862500D01*
G75*
G02*
X143812500Y-73925000I-62500J0D01*
G01*
X143687500Y-73925000D01*
G75*
G02*
X143625000Y-73862500I0J62500D01*
G01*
G37*
G36*
G01*
X144125000Y-73862500D02*
X144125000Y-73162500D01*
G75*
G02*
X144187500Y-73100000I62500J0D01*
G01*
X144312500Y-73100000D01*
G75*
G02*
X144375000Y-73162500I0J-62500D01*
G01*
X144375000Y-73862500D01*
G75*
G02*
X144312500Y-73925000I-62500J0D01*
G01*
X144187500Y-73925000D01*
G75*
G02*
X144125000Y-73862500I0J62500D01*
G01*
G37*
G36*
G01*
X144625000Y-73862500D02*
X144625000Y-73162500D01*
G75*
G02*
X144687500Y-73100000I62500J0D01*
G01*
X144812500Y-73100000D01*
G75*
G02*
X144875000Y-73162500I0J-62500D01*
G01*
X144875000Y-73862500D01*
G75*
G02*
X144812500Y-73925000I-62500J0D01*
G01*
X144687500Y-73925000D01*
G75*
G02*
X144625000Y-73862500I0J62500D01*
G01*
G37*
G36*
G01*
X145125000Y-73862500D02*
X145125000Y-73162500D01*
G75*
G02*
X145187500Y-73100000I62500J0D01*
G01*
X145312500Y-73100000D01*
G75*
G02*
X145375000Y-73162500I0J-62500D01*
G01*
X145375000Y-73862500D01*
G75*
G02*
X145312500Y-73925000I-62500J0D01*
G01*
X145187500Y-73925000D01*
G75*
G02*
X145125000Y-73862500I0J62500D01*
G01*
G37*
G36*
G01*
X145525000Y-74262500D02*
X145525000Y-74137500D01*
G75*
G02*
X145587500Y-74075000I62500J0D01*
G01*
X146287500Y-74075000D01*
G75*
G02*
X146350000Y-74137500I0J-62500D01*
G01*
X146350000Y-74262500D01*
G75*
G02*
X146287500Y-74325000I-62500J0D01*
G01*
X145587500Y-74325000D01*
G75*
G02*
X145525000Y-74262500I0J62500D01*
G01*
G37*
G36*
G01*
X145525000Y-74762500D02*
X145525000Y-74637500D01*
G75*
G02*
X145587500Y-74575000I62500J0D01*
G01*
X146287500Y-74575000D01*
G75*
G02*
X146350000Y-74637500I0J-62500D01*
G01*
X146350000Y-74762500D01*
G75*
G02*
X146287500Y-74825000I-62500J0D01*
G01*
X145587500Y-74825000D01*
G75*
G02*
X145525000Y-74762500I0J62500D01*
G01*
G37*
G36*
G01*
X145525000Y-75262500D02*
X145525000Y-75137500D01*
G75*
G02*
X145587500Y-75075000I62500J0D01*
G01*
X146287500Y-75075000D01*
G75*
G02*
X146350000Y-75137500I0J-62500D01*
G01*
X146350000Y-75262500D01*
G75*
G02*
X146287500Y-75325000I-62500J0D01*
G01*
X145587500Y-75325000D01*
G75*
G02*
X145525000Y-75262500I0J62500D01*
G01*
G37*
G36*
G01*
X145525000Y-75762500D02*
X145525000Y-75637500D01*
G75*
G02*
X145587500Y-75575000I62500J0D01*
G01*
X146287500Y-75575000D01*
G75*
G02*
X146350000Y-75637500I0J-62500D01*
G01*
X146350000Y-75762500D01*
G75*
G02*
X146287500Y-75825000I-62500J0D01*
G01*
X145587500Y-75825000D01*
G75*
G02*
X145525000Y-75762500I0J62500D01*
G01*
G37*
G36*
G01*
X145525000Y-76262500D02*
X145525000Y-76137500D01*
G75*
G02*
X145587500Y-76075000I62500J0D01*
G01*
X146287500Y-76075000D01*
G75*
G02*
X146350000Y-76137500I0J-62500D01*
G01*
X146350000Y-76262500D01*
G75*
G02*
X146287500Y-76325000I-62500J0D01*
G01*
X145587500Y-76325000D01*
G75*
G02*
X145525000Y-76262500I0J62500D01*
G01*
G37*
G36*
G01*
X145525000Y-76762500D02*
X145525000Y-76637500D01*
G75*
G02*
X145587500Y-76575000I62500J0D01*
G01*
X146287500Y-76575000D01*
G75*
G02*
X146350000Y-76637500I0J-62500D01*
G01*
X146350000Y-76762500D01*
G75*
G02*
X146287500Y-76825000I-62500J0D01*
G01*
X145587500Y-76825000D01*
G75*
G02*
X145525000Y-76762500I0J62500D01*
G01*
G37*
G36*
G01*
X145525000Y-77262500D02*
X145525000Y-77137500D01*
G75*
G02*
X145587500Y-77075000I62500J0D01*
G01*
X146287500Y-77075000D01*
G75*
G02*
X146350000Y-77137500I0J-62500D01*
G01*
X146350000Y-77262500D01*
G75*
G02*
X146287500Y-77325000I-62500J0D01*
G01*
X145587500Y-77325000D01*
G75*
G02*
X145525000Y-77262500I0J62500D01*
G01*
G37*
G36*
G01*
X145525000Y-77762500D02*
X145525000Y-77637500D01*
G75*
G02*
X145587500Y-77575000I62500J0D01*
G01*
X146287500Y-77575000D01*
G75*
G02*
X146350000Y-77637500I0J-62500D01*
G01*
X146350000Y-77762500D01*
G75*
G02*
X146287500Y-77825000I-62500J0D01*
G01*
X145587500Y-77825000D01*
G75*
G02*
X145525000Y-77762500I0J62500D01*
G01*
G37*
G36*
G01*
X145525000Y-78262500D02*
X145525000Y-78137500D01*
G75*
G02*
X145587500Y-78075000I62500J0D01*
G01*
X146287500Y-78075000D01*
G75*
G02*
X146350000Y-78137500I0J-62500D01*
G01*
X146350000Y-78262500D01*
G75*
G02*
X146287500Y-78325000I-62500J0D01*
G01*
X145587500Y-78325000D01*
G75*
G02*
X145525000Y-78262500I0J62500D01*
G01*
G37*
G36*
G01*
X145525000Y-78762500D02*
X145525000Y-78637500D01*
G75*
G02*
X145587500Y-78575000I62500J0D01*
G01*
X146287500Y-78575000D01*
G75*
G02*
X146350000Y-78637500I0J-62500D01*
G01*
X146350000Y-78762500D01*
G75*
G02*
X146287500Y-78825000I-62500J0D01*
G01*
X145587500Y-78825000D01*
G75*
G02*
X145525000Y-78762500I0J62500D01*
G01*
G37*
G36*
G01*
X145125000Y-79737500D02*
X145125000Y-79037500D01*
G75*
G02*
X145187500Y-78975000I62500J0D01*
G01*
X145312500Y-78975000D01*
G75*
G02*
X145375000Y-79037500I0J-62500D01*
G01*
X145375000Y-79737500D01*
G75*
G02*
X145312500Y-79800000I-62500J0D01*
G01*
X145187500Y-79800000D01*
G75*
G02*
X145125000Y-79737500I0J62500D01*
G01*
G37*
G36*
G01*
X144625000Y-79737500D02*
X144625000Y-79037500D01*
G75*
G02*
X144687500Y-78975000I62500J0D01*
G01*
X144812500Y-78975000D01*
G75*
G02*
X144875000Y-79037500I0J-62500D01*
G01*
X144875000Y-79737500D01*
G75*
G02*
X144812500Y-79800000I-62500J0D01*
G01*
X144687500Y-79800000D01*
G75*
G02*
X144625000Y-79737500I0J62500D01*
G01*
G37*
G36*
G01*
X144125000Y-79737500D02*
X144125000Y-79037500D01*
G75*
G02*
X144187500Y-78975000I62500J0D01*
G01*
X144312500Y-78975000D01*
G75*
G02*
X144375000Y-79037500I0J-62500D01*
G01*
X144375000Y-79737500D01*
G75*
G02*
X144312500Y-79800000I-62500J0D01*
G01*
X144187500Y-79800000D01*
G75*
G02*
X144125000Y-79737500I0J62500D01*
G01*
G37*
G36*
G01*
X143625000Y-79737500D02*
X143625000Y-79037500D01*
G75*
G02*
X143687500Y-78975000I62500J0D01*
G01*
X143812500Y-78975000D01*
G75*
G02*
X143875000Y-79037500I0J-62500D01*
G01*
X143875000Y-79737500D01*
G75*
G02*
X143812500Y-79800000I-62500J0D01*
G01*
X143687500Y-79800000D01*
G75*
G02*
X143625000Y-79737500I0J62500D01*
G01*
G37*
G36*
G01*
X143125000Y-79737500D02*
X143125000Y-79037500D01*
G75*
G02*
X143187500Y-78975000I62500J0D01*
G01*
X143312500Y-78975000D01*
G75*
G02*
X143375000Y-79037500I0J-62500D01*
G01*
X143375000Y-79737500D01*
G75*
G02*
X143312500Y-79800000I-62500J0D01*
G01*
X143187500Y-79800000D01*
G75*
G02*
X143125000Y-79737500I0J62500D01*
G01*
G37*
G36*
G01*
X142625000Y-79737500D02*
X142625000Y-79037500D01*
G75*
G02*
X142687500Y-78975000I62500J0D01*
G01*
X142812500Y-78975000D01*
G75*
G02*
X142875000Y-79037500I0J-62500D01*
G01*
X142875000Y-79737500D01*
G75*
G02*
X142812500Y-79800000I-62500J0D01*
G01*
X142687500Y-79800000D01*
G75*
G02*
X142625000Y-79737500I0J62500D01*
G01*
G37*
G36*
G01*
X142125000Y-79737500D02*
X142125000Y-79037500D01*
G75*
G02*
X142187500Y-78975000I62500J0D01*
G01*
X142312500Y-78975000D01*
G75*
G02*
X142375000Y-79037500I0J-62500D01*
G01*
X142375000Y-79737500D01*
G75*
G02*
X142312500Y-79800000I-62500J0D01*
G01*
X142187500Y-79800000D01*
G75*
G02*
X142125000Y-79737500I0J62500D01*
G01*
G37*
G36*
G01*
X141625000Y-79737500D02*
X141625000Y-79037500D01*
G75*
G02*
X141687500Y-78975000I62500J0D01*
G01*
X141812500Y-78975000D01*
G75*
G02*
X141875000Y-79037500I0J-62500D01*
G01*
X141875000Y-79737500D01*
G75*
G02*
X141812500Y-79800000I-62500J0D01*
G01*
X141687500Y-79800000D01*
G75*
G02*
X141625000Y-79737500I0J62500D01*
G01*
G37*
G36*
G01*
X141125000Y-79737500D02*
X141125000Y-79037500D01*
G75*
G02*
X141187500Y-78975000I62500J0D01*
G01*
X141312500Y-78975000D01*
G75*
G02*
X141375000Y-79037500I0J-62500D01*
G01*
X141375000Y-79737500D01*
G75*
G02*
X141312500Y-79800000I-62500J0D01*
G01*
X141187500Y-79800000D01*
G75*
G02*
X141125000Y-79737500I0J62500D01*
G01*
G37*
G36*
G01*
X140625000Y-79737500D02*
X140625000Y-79037500D01*
G75*
G02*
X140687500Y-78975000I62500J0D01*
G01*
X140812500Y-78975000D01*
G75*
G02*
X140875000Y-79037500I0J-62500D01*
G01*
X140875000Y-79737500D01*
G75*
G02*
X140812500Y-79800000I-62500J0D01*
G01*
X140687500Y-79800000D01*
G75*
G02*
X140625000Y-79737500I0J62500D01*
G01*
G37*
G36*
G01*
X139650000Y-78762500D02*
X139650000Y-78637500D01*
G75*
G02*
X139712500Y-78575000I62500J0D01*
G01*
X140412500Y-78575000D01*
G75*
G02*
X140475000Y-78637500I0J-62500D01*
G01*
X140475000Y-78762500D01*
G75*
G02*
X140412500Y-78825000I-62500J0D01*
G01*
X139712500Y-78825000D01*
G75*
G02*
X139650000Y-78762500I0J62500D01*
G01*
G37*
G36*
G01*
X139650000Y-78262500D02*
X139650000Y-78137500D01*
G75*
G02*
X139712500Y-78075000I62500J0D01*
G01*
X140412500Y-78075000D01*
G75*
G02*
X140475000Y-78137500I0J-62500D01*
G01*
X140475000Y-78262500D01*
G75*
G02*
X140412500Y-78325000I-62500J0D01*
G01*
X139712500Y-78325000D01*
G75*
G02*
X139650000Y-78262500I0J62500D01*
G01*
G37*
G36*
G01*
X139650000Y-77762500D02*
X139650000Y-77637500D01*
G75*
G02*
X139712500Y-77575000I62500J0D01*
G01*
X140412500Y-77575000D01*
G75*
G02*
X140475000Y-77637500I0J-62500D01*
G01*
X140475000Y-77762500D01*
G75*
G02*
X140412500Y-77825000I-62500J0D01*
G01*
X139712500Y-77825000D01*
G75*
G02*
X139650000Y-77762500I0J62500D01*
G01*
G37*
G36*
G01*
X139650000Y-77262500D02*
X139650000Y-77137500D01*
G75*
G02*
X139712500Y-77075000I62500J0D01*
G01*
X140412500Y-77075000D01*
G75*
G02*
X140475000Y-77137500I0J-62500D01*
G01*
X140475000Y-77262500D01*
G75*
G02*
X140412500Y-77325000I-62500J0D01*
G01*
X139712500Y-77325000D01*
G75*
G02*
X139650000Y-77262500I0J62500D01*
G01*
G37*
G36*
G01*
X139650000Y-76762500D02*
X139650000Y-76637500D01*
G75*
G02*
X139712500Y-76575000I62500J0D01*
G01*
X140412500Y-76575000D01*
G75*
G02*
X140475000Y-76637500I0J-62500D01*
G01*
X140475000Y-76762500D01*
G75*
G02*
X140412500Y-76825000I-62500J0D01*
G01*
X139712500Y-76825000D01*
G75*
G02*
X139650000Y-76762500I0J62500D01*
G01*
G37*
G36*
G01*
X139650000Y-76262500D02*
X139650000Y-76137500D01*
G75*
G02*
X139712500Y-76075000I62500J0D01*
G01*
X140412500Y-76075000D01*
G75*
G02*
X140475000Y-76137500I0J-62500D01*
G01*
X140475000Y-76262500D01*
G75*
G02*
X140412500Y-76325000I-62500J0D01*
G01*
X139712500Y-76325000D01*
G75*
G02*
X139650000Y-76262500I0J62500D01*
G01*
G37*
G36*
G01*
X139650000Y-75762500D02*
X139650000Y-75637500D01*
G75*
G02*
X139712500Y-75575000I62500J0D01*
G01*
X140412500Y-75575000D01*
G75*
G02*
X140475000Y-75637500I0J-62500D01*
G01*
X140475000Y-75762500D01*
G75*
G02*
X140412500Y-75825000I-62500J0D01*
G01*
X139712500Y-75825000D01*
G75*
G02*
X139650000Y-75762500I0J62500D01*
G01*
G37*
G36*
G01*
X139650000Y-75262500D02*
X139650000Y-75137500D01*
G75*
G02*
X139712500Y-75075000I62500J0D01*
G01*
X140412500Y-75075000D01*
G75*
G02*
X140475000Y-75137500I0J-62500D01*
G01*
X140475000Y-75262500D01*
G75*
G02*
X140412500Y-75325000I-62500J0D01*
G01*
X139712500Y-75325000D01*
G75*
G02*
X139650000Y-75262500I0J62500D01*
G01*
G37*
G36*
G01*
X139650000Y-74762500D02*
X139650000Y-74637500D01*
G75*
G02*
X139712500Y-74575000I62500J0D01*
G01*
X140412500Y-74575000D01*
G75*
G02*
X140475000Y-74637500I0J-62500D01*
G01*
X140475000Y-74762500D01*
G75*
G02*
X140412500Y-74825000I-62500J0D01*
G01*
X139712500Y-74825000D01*
G75*
G02*
X139650000Y-74762500I0J62500D01*
G01*
G37*
G36*
G01*
X139650000Y-74262500D02*
X139650000Y-74137500D01*
G75*
G02*
X139712500Y-74075000I62500J0D01*
G01*
X140412500Y-74075000D01*
G75*
G02*
X140475000Y-74137500I0J-62500D01*
G01*
X140475000Y-74262500D01*
G75*
G02*
X140412500Y-74325000I-62500J0D01*
G01*
X139712500Y-74325000D01*
G75*
G02*
X139650000Y-74262500I0J62500D01*
G01*
G37*
%TD*%
D26*
%TO.C,X1*%
X125025000Y-51815000D03*
X123175000Y-51815000D03*
X123175000Y-53265000D03*
X125025000Y-53265000D03*
%TD*%
%TO.C,D13*%
G36*
G01*
X143510500Y-69284000D02*
X143309500Y-69284000D01*
G75*
G02*
X143230000Y-69204500I0J79500D01*
G01*
X143230000Y-69045500D01*
G75*
G02*
X143309500Y-68966000I79500J0D01*
G01*
X143510500Y-68966000D01*
G75*
G02*
X143590000Y-69045500I0J-79500D01*
G01*
X143590000Y-69204500D01*
G75*
G02*
X143510500Y-69284000I-79500J0D01*
G01*
G37*
G36*
G01*
X143510500Y-69974000D02*
X143309500Y-69974000D01*
G75*
G02*
X143230000Y-69894500I0J79500D01*
G01*
X143230000Y-69735500D01*
G75*
G02*
X143309500Y-69656000I79500J0D01*
G01*
X143510500Y-69656000D01*
G75*
G02*
X143590000Y-69735500I0J-79500D01*
G01*
X143590000Y-69894500D01*
G75*
G02*
X143510500Y-69974000I-79500J0D01*
G01*
G37*
%TD*%
%TO.C,D14*%
G36*
G01*
X119320000Y-53297500D02*
X119320000Y-53642500D01*
G75*
G02*
X119172500Y-53790000I-147500J0D01*
G01*
X118877500Y-53790000D01*
G75*
G02*
X118730000Y-53642500I0J147500D01*
G01*
X118730000Y-53297500D01*
G75*
G02*
X118877500Y-53150000I147500J0D01*
G01*
X119172500Y-53150000D01*
G75*
G02*
X119320000Y-53297500I0J-147500D01*
G01*
G37*
G36*
G01*
X120290000Y-53297500D02*
X120290000Y-53642500D01*
G75*
G02*
X120142500Y-53790000I-147500J0D01*
G01*
X119847500Y-53790000D01*
G75*
G02*
X119700000Y-53642500I0J147500D01*
G01*
X119700000Y-53297500D01*
G75*
G02*
X119847500Y-53150000I147500J0D01*
G01*
X120142500Y-53150000D01*
G75*
G02*
X120290000Y-53297500I0J-147500D01*
G01*
G37*
%TD*%
%TO.C,D15*%
G36*
G01*
X120685000Y-53642500D02*
X120685000Y-53297500D01*
G75*
G02*
X120832500Y-53150000I147500J0D01*
G01*
X121127500Y-53150000D01*
G75*
G02*
X121275000Y-53297500I0J-147500D01*
G01*
X121275000Y-53642500D01*
G75*
G02*
X121127500Y-53790000I-147500J0D01*
G01*
X120832500Y-53790000D01*
G75*
G02*
X120685000Y-53642500I0J147500D01*
G01*
G37*
G36*
G01*
X121655000Y-53642500D02*
X121655000Y-53297500D01*
G75*
G02*
X121802500Y-53150000I147500J0D01*
G01*
X122097500Y-53150000D01*
G75*
G02*
X122245000Y-53297500I0J-147500D01*
G01*
X122245000Y-53642500D01*
G75*
G02*
X122097500Y-53790000I-147500J0D01*
G01*
X121802500Y-53790000D01*
G75*
G02*
X121655000Y-53642500I0J147500D01*
G01*
G37*
%TD*%
M02*
