%TF.GenerationSoftware,KiCad,Pcbnew,(5.1.6)-1*%
%TF.CreationDate,2021-04-13T10:59:24+02:00*%
%TF.ProjectId,EcatExBrd,45636174-4578-4427-9264-2e6b69636164,1.0*%
%TF.SameCoordinates,Original*%
%TF.FileFunction,Soldermask,Bot*%
%TF.FilePolarity,Negative*%
%FSLAX46Y46*%
G04 Gerber Fmt 4.6, Leading zero omitted, Abs format (unit mm)*
G04 Created by KiCad (PCBNEW (5.1.6)-1) date 2021-04-13 10:59:24*
%MOMM*%
%LPD*%
G01*
G04 APERTURE LIST*
%ADD10R,0.304000X0.806399*%
%ADD11R,0.806399X0.304000*%
%ADD12R,2.487600X2.487600*%
%ADD13O,0.900000X0.700000*%
%ADD14C,0.900000*%
%ADD15R,0.400000X0.900000*%
%ADD16R,0.900000X0.400000*%
%ADD17R,2.300000X2.300000*%
%ADD18C,3.100000*%
%ADD19C,1.700000*%
%ADD20R,3.700000X0.910000*%
%ADD21R,3.700000X0.710000*%
%ADD22R,0.350000X0.550000*%
%ADD23R,0.350000X0.500000*%
%ADD24R,0.380000X0.300000*%
%ADD25C,2.300000*%
%ADD26O,1.100000X1.500000*%
%ADD27O,1.000000X1.500000*%
%ADD28O,1.500000X1.000000*%
%ADD29R,1.000000X1.800000*%
%ADD30R,0.750000X1.160000*%
%ADD31R,1.600000X1.400000*%
%ADD32R,0.400000X0.850000*%
%ADD33C,1.100000*%
G04 APERTURE END LIST*
D10*
%TO.C,U10*%
X109000000Y-85749800D03*
X109400002Y-85749800D03*
X109800001Y-85749800D03*
X110200001Y-85749800D03*
X110600000Y-85749800D03*
X111000002Y-85749800D03*
D11*
X111750201Y-86499999D03*
X111750201Y-86900001D03*
X111750201Y-87300000D03*
X111750201Y-87700000D03*
X111750201Y-88099999D03*
X111750201Y-88500001D03*
D10*
X111000002Y-89250200D03*
X110600000Y-89250200D03*
X110200001Y-89250200D03*
X109800001Y-89250200D03*
X109400002Y-89250200D03*
X109000000Y-89250200D03*
D11*
X108249801Y-88500001D03*
X108249801Y-88099999D03*
X108249801Y-87700000D03*
X108249801Y-87300000D03*
X108249801Y-86900001D03*
X108249801Y-86499999D03*
D12*
X110000001Y-87500000D03*
%TD*%
%TO.C,C39*%
G36*
G01*
X107425000Y-86779999D02*
X107175000Y-86779999D01*
G75*
G02*
X107050000Y-86654999I0J125000D01*
G01*
X107050000Y-86344999D01*
G75*
G02*
X107175000Y-86219999I125000J0D01*
G01*
X107425000Y-86219999D01*
G75*
G02*
X107550000Y-86344999I0J-125000D01*
G01*
X107550000Y-86654999D01*
G75*
G02*
X107425000Y-86779999I-125000J0D01*
G01*
G37*
G36*
G01*
X107425000Y-86139999D02*
X107175000Y-86139999D01*
G75*
G02*
X107050000Y-86014999I0J125000D01*
G01*
X107050000Y-85704999D01*
G75*
G02*
X107175000Y-85579999I125000J0D01*
G01*
X107425000Y-85579999D01*
G75*
G02*
X107550000Y-85704999I0J-125000D01*
G01*
X107550000Y-86014999D01*
G75*
G02*
X107425000Y-86139999I-125000J0D01*
G01*
G37*
%TD*%
%TO.C,C46*%
G36*
G01*
X140474999Y-90590000D02*
X140724999Y-90590000D01*
G75*
G02*
X140849999Y-90715000I0J-125000D01*
G01*
X140849999Y-91025000D01*
G75*
G02*
X140724999Y-91150000I-125000J0D01*
G01*
X140474999Y-91150000D01*
G75*
G02*
X140349999Y-91025000I0J125000D01*
G01*
X140349999Y-90715000D01*
G75*
G02*
X140474999Y-90590000I125000J0D01*
G01*
G37*
G36*
G01*
X140474999Y-89950000D02*
X140724999Y-89950000D01*
G75*
G02*
X140849999Y-90075000I0J-125000D01*
G01*
X140849999Y-90385000D01*
G75*
G02*
X140724999Y-90510000I-125000J0D01*
G01*
X140474999Y-90510000D01*
G75*
G02*
X140349999Y-90385000I0J125000D01*
G01*
X140349999Y-90075000D01*
G75*
G02*
X140474999Y-89950000I125000J0D01*
G01*
G37*
%TD*%
D13*
%TO.C,J2*%
X135730000Y-69260000D03*
D14*
X137000000Y-60740000D03*
%TD*%
D15*
%TO.C,U8*%
X123250000Y-72550000D03*
X123750000Y-72550000D03*
X124250000Y-72550000D03*
X124750000Y-72550000D03*
X125250000Y-72550000D03*
X125750000Y-72550000D03*
X126250000Y-72550000D03*
X126750000Y-72550000D03*
D16*
X127450000Y-73250000D03*
X127450000Y-73750000D03*
X127450000Y-74250000D03*
X127450000Y-74750000D03*
X127450000Y-75250000D03*
X127450000Y-75750000D03*
X127450000Y-76250000D03*
X127450000Y-76750000D03*
D15*
X126750000Y-77450000D03*
X126250000Y-77450000D03*
X125750000Y-77450000D03*
X125250000Y-77450000D03*
X124750000Y-77450000D03*
X124250000Y-77450000D03*
X123750000Y-77450000D03*
X123250000Y-77450000D03*
D16*
X122550000Y-76750000D03*
X122550000Y-76250000D03*
X122550000Y-75750000D03*
X122550000Y-75250000D03*
X122550000Y-74750000D03*
X122550000Y-74250000D03*
X122550000Y-73750000D03*
X122550000Y-73250000D03*
D17*
X125000000Y-75000000D03*
%TD*%
D18*
%TO.C,J5*%
X147000000Y-72870000D03*
D19*
X147000000Y-70000000D03*
X147000000Y-60000000D03*
D18*
X147000000Y-57130000D03*
D20*
X131700000Y-58390000D03*
X131700000Y-60230000D03*
X131700000Y-71610000D03*
X131700000Y-69770000D03*
D21*
X131700000Y-61430000D03*
X131700000Y-62450000D03*
X131700000Y-63470000D03*
X131700000Y-64490000D03*
X131700000Y-65510000D03*
X131700000Y-66530000D03*
X131700000Y-67550000D03*
X131700000Y-68570000D03*
%TD*%
D18*
%TO.C,J4*%
X103000000Y-57130000D03*
D19*
X103000000Y-60000000D03*
X103000000Y-70000000D03*
D18*
X103000000Y-72870000D03*
D20*
X118300000Y-71610000D03*
X118300000Y-69770000D03*
X118300000Y-58390000D03*
X118300000Y-60230000D03*
D21*
X118300000Y-68570000D03*
X118300000Y-67550000D03*
X118300000Y-66530000D03*
X118300000Y-65510000D03*
X118300000Y-64490000D03*
X118300000Y-63470000D03*
X118300000Y-62450000D03*
X118300000Y-61430000D03*
%TD*%
%TO.C,C26*%
G36*
G01*
X123890000Y-70225000D02*
X123890000Y-70475000D01*
G75*
G02*
X123765000Y-70600000I-125000J0D01*
G01*
X123455000Y-70600000D01*
G75*
G02*
X123330000Y-70475000I0J125000D01*
G01*
X123330000Y-70225000D01*
G75*
G02*
X123455000Y-70100000I125000J0D01*
G01*
X123765000Y-70100000D01*
G75*
G02*
X123890000Y-70225000I0J-125000D01*
G01*
G37*
G36*
G01*
X124530000Y-70225000D02*
X124530000Y-70475000D01*
G75*
G02*
X124405000Y-70600000I-125000J0D01*
G01*
X124095000Y-70600000D01*
G75*
G02*
X123970000Y-70475000I0J125000D01*
G01*
X123970000Y-70225000D01*
G75*
G02*
X124095000Y-70100000I125000J0D01*
G01*
X124405000Y-70100000D01*
G75*
G02*
X124530000Y-70225000I0J-125000D01*
G01*
G37*
%TD*%
D22*
%TO.C,U2*%
X112250000Y-55325000D03*
D23*
X111750000Y-55350000D03*
X111250000Y-55350000D03*
X111250000Y-54650000D03*
X111750000Y-54650000D03*
X112250000Y-54650000D03*
%TD*%
%TO.C,U5*%
X130400000Y-54100000D03*
X129900000Y-54100000D03*
X129400000Y-54100000D03*
X129400000Y-54800000D03*
X129900000Y-54800000D03*
D22*
X130400000Y-54775000D03*
%TD*%
D23*
%TO.C,U7*%
X119600000Y-75950000D03*
X120100000Y-75950000D03*
X120600000Y-75950000D03*
X120600000Y-75250000D03*
X120100000Y-75250000D03*
D22*
X119600000Y-75275000D03*
%TD*%
%TO.C,C1*%
G36*
G01*
X129475000Y-84090000D02*
X129725000Y-84090000D01*
G75*
G02*
X129850000Y-84215000I0J-125000D01*
G01*
X129850000Y-84525000D01*
G75*
G02*
X129725000Y-84650000I-125000J0D01*
G01*
X129475000Y-84650000D01*
G75*
G02*
X129350000Y-84525000I0J125000D01*
G01*
X129350000Y-84215000D01*
G75*
G02*
X129475000Y-84090000I125000J0D01*
G01*
G37*
G36*
G01*
X129475000Y-83450000D02*
X129725000Y-83450000D01*
G75*
G02*
X129850000Y-83575000I0J-125000D01*
G01*
X129850000Y-83885000D01*
G75*
G02*
X129725000Y-84010000I-125000J0D01*
G01*
X129475000Y-84010000D01*
G75*
G02*
X129350000Y-83885000I0J125000D01*
G01*
X129350000Y-83575000D01*
G75*
G02*
X129475000Y-83450000I125000J0D01*
G01*
G37*
%TD*%
%TO.C,C2*%
G36*
G01*
X124025000Y-83450000D02*
X124275000Y-83450000D01*
G75*
G02*
X124400000Y-83575000I0J-125000D01*
G01*
X124400000Y-83885000D01*
G75*
G02*
X124275000Y-84010000I-125000J0D01*
G01*
X124025000Y-84010000D01*
G75*
G02*
X123900000Y-83885000I0J125000D01*
G01*
X123900000Y-83575000D01*
G75*
G02*
X124025000Y-83450000I125000J0D01*
G01*
G37*
G36*
G01*
X124025000Y-82810000D02*
X124275000Y-82810000D01*
G75*
G02*
X124400000Y-82935000I0J-125000D01*
G01*
X124400000Y-83245000D01*
G75*
G02*
X124275000Y-83370000I-125000J0D01*
G01*
X124025000Y-83370000D01*
G75*
G02*
X123900000Y-83245000I0J125000D01*
G01*
X123900000Y-82935000D01*
G75*
G02*
X124025000Y-82810000I125000J0D01*
G01*
G37*
%TD*%
%TO.C,C3*%
G36*
G01*
X115075000Y-54170000D02*
X115325000Y-54170000D01*
G75*
G02*
X115450000Y-54295000I0J-125000D01*
G01*
X115450000Y-54605000D01*
G75*
G02*
X115325000Y-54730000I-125000J0D01*
G01*
X115075000Y-54730000D01*
G75*
G02*
X114950000Y-54605000I0J125000D01*
G01*
X114950000Y-54295000D01*
G75*
G02*
X115075000Y-54170000I125000J0D01*
G01*
G37*
G36*
G01*
X115075000Y-53530000D02*
X115325000Y-53530000D01*
G75*
G02*
X115450000Y-53655000I0J-125000D01*
G01*
X115450000Y-53965000D01*
G75*
G02*
X115325000Y-54090000I-125000J0D01*
G01*
X115075000Y-54090000D01*
G75*
G02*
X114950000Y-53965000I0J125000D01*
G01*
X114950000Y-53655000D01*
G75*
G02*
X115075000Y-53530000I125000J0D01*
G01*
G37*
%TD*%
%TO.C,C7*%
G36*
G01*
X138390000Y-55875000D02*
X138390000Y-56125000D01*
G75*
G02*
X138265000Y-56250000I-125000J0D01*
G01*
X137955000Y-56250000D01*
G75*
G02*
X137830000Y-56125000I0J125000D01*
G01*
X137830000Y-55875000D01*
G75*
G02*
X137955000Y-55750000I125000J0D01*
G01*
X138265000Y-55750000D01*
G75*
G02*
X138390000Y-55875000I0J-125000D01*
G01*
G37*
G36*
G01*
X139030000Y-55875000D02*
X139030000Y-56125000D01*
G75*
G02*
X138905000Y-56250000I-125000J0D01*
G01*
X138595000Y-56250000D01*
G75*
G02*
X138470000Y-56125000I0J125000D01*
G01*
X138470000Y-55875000D01*
G75*
G02*
X138595000Y-55750000I125000J0D01*
G01*
X138905000Y-55750000D01*
G75*
G02*
X139030000Y-55875000I0J-125000D01*
G01*
G37*
%TD*%
%TO.C,C8*%
G36*
G01*
X111875000Y-53600000D02*
X111625000Y-53600000D01*
G75*
G02*
X111500000Y-53475000I0J125000D01*
G01*
X111500000Y-53165000D01*
G75*
G02*
X111625000Y-53040000I125000J0D01*
G01*
X111875000Y-53040000D01*
G75*
G02*
X112000000Y-53165000I0J-125000D01*
G01*
X112000000Y-53475000D01*
G75*
G02*
X111875000Y-53600000I-125000J0D01*
G01*
G37*
G36*
G01*
X111875000Y-52960000D02*
X111625000Y-52960000D01*
G75*
G02*
X111500000Y-52835000I0J125000D01*
G01*
X111500000Y-52525000D01*
G75*
G02*
X111625000Y-52400000I125000J0D01*
G01*
X111875000Y-52400000D01*
G75*
G02*
X112000000Y-52525000I0J-125000D01*
G01*
X112000000Y-52835000D01*
G75*
G02*
X111875000Y-52960000I-125000J0D01*
G01*
G37*
%TD*%
%TO.C,C9*%
G36*
G01*
X126690000Y-59075000D02*
X126690000Y-58825000D01*
G75*
G02*
X126815000Y-58700000I125000J0D01*
G01*
X127125000Y-58700000D01*
G75*
G02*
X127250000Y-58825000I0J-125000D01*
G01*
X127250000Y-59075000D01*
G75*
G02*
X127125000Y-59200000I-125000J0D01*
G01*
X126815000Y-59200000D01*
G75*
G02*
X126690000Y-59075000I0J125000D01*
G01*
G37*
G36*
G01*
X126050000Y-59075000D02*
X126050000Y-58825000D01*
G75*
G02*
X126175000Y-58700000I125000J0D01*
G01*
X126485000Y-58700000D01*
G75*
G02*
X126610000Y-58825000I0J-125000D01*
G01*
X126610000Y-59075000D01*
G75*
G02*
X126485000Y-59200000I-125000J0D01*
G01*
X126175000Y-59200000D01*
G75*
G02*
X126050000Y-59075000I0J125000D01*
G01*
G37*
%TD*%
%TO.C,C10*%
G36*
G01*
X121140000Y-63595000D02*
X121140000Y-63345000D01*
G75*
G02*
X121265000Y-63220000I125000J0D01*
G01*
X121575000Y-63220000D01*
G75*
G02*
X121700000Y-63345000I0J-125000D01*
G01*
X121700000Y-63595000D01*
G75*
G02*
X121575000Y-63720000I-125000J0D01*
G01*
X121265000Y-63720000D01*
G75*
G02*
X121140000Y-63595000I0J125000D01*
G01*
G37*
G36*
G01*
X120500000Y-63595000D02*
X120500000Y-63345000D01*
G75*
G02*
X120625000Y-63220000I125000J0D01*
G01*
X120935000Y-63220000D01*
G75*
G02*
X121060000Y-63345000I0J-125000D01*
G01*
X121060000Y-63595000D01*
G75*
G02*
X120935000Y-63720000I-125000J0D01*
G01*
X120625000Y-63720000D01*
G75*
G02*
X120500000Y-63595000I0J125000D01*
G01*
G37*
%TD*%
%TO.C,C11*%
G36*
G01*
X121140000Y-64615000D02*
X121140000Y-64365000D01*
G75*
G02*
X121265000Y-64240000I125000J0D01*
G01*
X121575000Y-64240000D01*
G75*
G02*
X121700000Y-64365000I0J-125000D01*
G01*
X121700000Y-64615000D01*
G75*
G02*
X121575000Y-64740000I-125000J0D01*
G01*
X121265000Y-64740000D01*
G75*
G02*
X121140000Y-64615000I0J125000D01*
G01*
G37*
G36*
G01*
X120500000Y-64615000D02*
X120500000Y-64365000D01*
G75*
G02*
X120625000Y-64240000I125000J0D01*
G01*
X120935000Y-64240000D01*
G75*
G02*
X121060000Y-64365000I0J-125000D01*
G01*
X121060000Y-64615000D01*
G75*
G02*
X120935000Y-64740000I-125000J0D01*
G01*
X120625000Y-64740000D01*
G75*
G02*
X120500000Y-64615000I0J125000D01*
G01*
G37*
%TD*%
%TO.C,C12*%
G36*
G01*
X130120000Y-53280000D02*
X130120000Y-53030000D01*
G75*
G02*
X130245000Y-52905000I125000J0D01*
G01*
X130555000Y-52905000D01*
G75*
G02*
X130680000Y-53030000I0J-125000D01*
G01*
X130680000Y-53280000D01*
G75*
G02*
X130555000Y-53405000I-125000J0D01*
G01*
X130245000Y-53405000D01*
G75*
G02*
X130120000Y-53280000I0J125000D01*
G01*
G37*
G36*
G01*
X129480000Y-53280000D02*
X129480000Y-53030000D01*
G75*
G02*
X129605000Y-52905000I125000J0D01*
G01*
X129915000Y-52905000D01*
G75*
G02*
X130040000Y-53030000I0J-125000D01*
G01*
X130040000Y-53280000D01*
G75*
G02*
X129915000Y-53405000I-125000J0D01*
G01*
X129605000Y-53405000D01*
G75*
G02*
X129480000Y-53280000I0J125000D01*
G01*
G37*
%TD*%
%TO.C,C13*%
G36*
G01*
X126110000Y-59775000D02*
X126110000Y-59525000D01*
G75*
G02*
X126235000Y-59400000I125000J0D01*
G01*
X126545000Y-59400000D01*
G75*
G02*
X126670000Y-59525000I0J-125000D01*
G01*
X126670000Y-59775000D01*
G75*
G02*
X126545000Y-59900000I-125000J0D01*
G01*
X126235000Y-59900000D01*
G75*
G02*
X126110000Y-59775000I0J125000D01*
G01*
G37*
G36*
G01*
X125470000Y-59775000D02*
X125470000Y-59525000D01*
G75*
G02*
X125595000Y-59400000I125000J0D01*
G01*
X125905000Y-59400000D01*
G75*
G02*
X126030000Y-59525000I0J-125000D01*
G01*
X126030000Y-59775000D01*
G75*
G02*
X125905000Y-59900000I-125000J0D01*
G01*
X125595000Y-59900000D01*
G75*
G02*
X125470000Y-59775000I0J125000D01*
G01*
G37*
%TD*%
%TO.C,C14*%
G36*
G01*
X125210000Y-60225000D02*
X125210000Y-60475000D01*
G75*
G02*
X125085000Y-60600000I-125000J0D01*
G01*
X124775000Y-60600000D01*
G75*
G02*
X124650000Y-60475000I0J125000D01*
G01*
X124650000Y-60225000D01*
G75*
G02*
X124775000Y-60100000I125000J0D01*
G01*
X125085000Y-60100000D01*
G75*
G02*
X125210000Y-60225000I0J-125000D01*
G01*
G37*
G36*
G01*
X125850000Y-60225000D02*
X125850000Y-60475000D01*
G75*
G02*
X125725000Y-60600000I-125000J0D01*
G01*
X125415000Y-60600000D01*
G75*
G02*
X125290000Y-60475000I0J125000D01*
G01*
X125290000Y-60225000D01*
G75*
G02*
X125415000Y-60100000I125000J0D01*
G01*
X125725000Y-60100000D01*
G75*
G02*
X125850000Y-60225000I0J-125000D01*
G01*
G37*
%TD*%
%TO.C,C15*%
G36*
G01*
X126690000Y-60475000D02*
X126690000Y-60225000D01*
G75*
G02*
X126815000Y-60100000I125000J0D01*
G01*
X127125000Y-60100000D01*
G75*
G02*
X127250000Y-60225000I0J-125000D01*
G01*
X127250000Y-60475000D01*
G75*
G02*
X127125000Y-60600000I-125000J0D01*
G01*
X126815000Y-60600000D01*
G75*
G02*
X126690000Y-60475000I0J125000D01*
G01*
G37*
G36*
G01*
X126050000Y-60475000D02*
X126050000Y-60225000D01*
G75*
G02*
X126175000Y-60100000I125000J0D01*
G01*
X126485000Y-60100000D01*
G75*
G02*
X126610000Y-60225000I0J-125000D01*
G01*
X126610000Y-60475000D01*
G75*
G02*
X126485000Y-60600000I-125000J0D01*
G01*
X126175000Y-60600000D01*
G75*
G02*
X126050000Y-60475000I0J125000D01*
G01*
G37*
%TD*%
%TO.C,C17*%
G36*
G01*
X121875000Y-52190000D02*
X121625000Y-52190000D01*
G75*
G02*
X121500000Y-52065000I0J125000D01*
G01*
X121500000Y-51755000D01*
G75*
G02*
X121625000Y-51630000I125000J0D01*
G01*
X121875000Y-51630000D01*
G75*
G02*
X122000000Y-51755000I0J-125000D01*
G01*
X122000000Y-52065000D01*
G75*
G02*
X121875000Y-52190000I-125000J0D01*
G01*
G37*
G36*
G01*
X121875000Y-52830000D02*
X121625000Y-52830000D01*
G75*
G02*
X121500000Y-52705000I0J125000D01*
G01*
X121500000Y-52395000D01*
G75*
G02*
X121625000Y-52270000I125000J0D01*
G01*
X121875000Y-52270000D01*
G75*
G02*
X122000000Y-52395000I0J-125000D01*
G01*
X122000000Y-52705000D01*
G75*
G02*
X121875000Y-52830000I-125000J0D01*
G01*
G37*
%TD*%
%TO.C,C18*%
G36*
G01*
X121175000Y-52190000D02*
X120925000Y-52190000D01*
G75*
G02*
X120800000Y-52065000I0J125000D01*
G01*
X120800000Y-51755000D01*
G75*
G02*
X120925000Y-51630000I125000J0D01*
G01*
X121175000Y-51630000D01*
G75*
G02*
X121300000Y-51755000I0J-125000D01*
G01*
X121300000Y-52065000D01*
G75*
G02*
X121175000Y-52190000I-125000J0D01*
G01*
G37*
G36*
G01*
X121175000Y-52830000D02*
X120925000Y-52830000D01*
G75*
G02*
X120800000Y-52705000I0J125000D01*
G01*
X120800000Y-52395000D01*
G75*
G02*
X120925000Y-52270000I125000J0D01*
G01*
X121175000Y-52270000D01*
G75*
G02*
X121300000Y-52395000I0J-125000D01*
G01*
X121300000Y-52705000D01*
G75*
G02*
X121175000Y-52830000I-125000J0D01*
G01*
G37*
%TD*%
%TO.C,C19*%
G36*
G01*
X120475000Y-52190000D02*
X120225000Y-52190000D01*
G75*
G02*
X120100000Y-52065000I0J125000D01*
G01*
X120100000Y-51755000D01*
G75*
G02*
X120225000Y-51630000I125000J0D01*
G01*
X120475000Y-51630000D01*
G75*
G02*
X120600000Y-51755000I0J-125000D01*
G01*
X120600000Y-52065000D01*
G75*
G02*
X120475000Y-52190000I-125000J0D01*
G01*
G37*
G36*
G01*
X120475000Y-52830000D02*
X120225000Y-52830000D01*
G75*
G02*
X120100000Y-52705000I0J125000D01*
G01*
X120100000Y-52395000D01*
G75*
G02*
X120225000Y-52270000I125000J0D01*
G01*
X120475000Y-52270000D01*
G75*
G02*
X120600000Y-52395000I0J-125000D01*
G01*
X120600000Y-52705000D01*
G75*
G02*
X120475000Y-52830000I-125000J0D01*
G01*
G37*
%TD*%
%TO.C,C21*%
G36*
G01*
X106281250Y-53800000D02*
X105718750Y-53800000D01*
G75*
G02*
X105475000Y-53556250I0J243750D01*
G01*
X105475000Y-53068750D01*
G75*
G02*
X105718750Y-52825000I243750J0D01*
G01*
X106281250Y-52825000D01*
G75*
G02*
X106525000Y-53068750I0J-243750D01*
G01*
X106525000Y-53556250D01*
G75*
G02*
X106281250Y-53800000I-243750J0D01*
G01*
G37*
G36*
G01*
X106281250Y-55375000D02*
X105718750Y-55375000D01*
G75*
G02*
X105475000Y-55131250I0J243750D01*
G01*
X105475000Y-54643750D01*
G75*
G02*
X105718750Y-54400000I243750J0D01*
G01*
X106281250Y-54400000D01*
G75*
G02*
X106525000Y-54643750I0J-243750D01*
G01*
X106525000Y-55131250D01*
G75*
G02*
X106281250Y-55375000I-243750J0D01*
G01*
G37*
%TD*%
%TO.C,C22*%
G36*
G01*
X123310000Y-70925000D02*
X123310000Y-71175000D01*
G75*
G02*
X123185000Y-71300000I-125000J0D01*
G01*
X122875000Y-71300000D01*
G75*
G02*
X122750000Y-71175000I0J125000D01*
G01*
X122750000Y-70925000D01*
G75*
G02*
X122875000Y-70800000I125000J0D01*
G01*
X123185000Y-70800000D01*
G75*
G02*
X123310000Y-70925000I0J-125000D01*
G01*
G37*
G36*
G01*
X123950000Y-70925000D02*
X123950000Y-71175000D01*
G75*
G02*
X123825000Y-71300000I-125000J0D01*
G01*
X123515000Y-71300000D01*
G75*
G02*
X123390000Y-71175000I0J125000D01*
G01*
X123390000Y-70925000D01*
G75*
G02*
X123515000Y-70800000I125000J0D01*
G01*
X123825000Y-70800000D01*
G75*
G02*
X123950000Y-70925000I0J-125000D01*
G01*
G37*
%TD*%
%TO.C,C23*%
G36*
G01*
X128860000Y-66405000D02*
X128860000Y-66655000D01*
G75*
G02*
X128735000Y-66780000I-125000J0D01*
G01*
X128425000Y-66780000D01*
G75*
G02*
X128300000Y-66655000I0J125000D01*
G01*
X128300000Y-66405000D01*
G75*
G02*
X128425000Y-66280000I125000J0D01*
G01*
X128735000Y-66280000D01*
G75*
G02*
X128860000Y-66405000I0J-125000D01*
G01*
G37*
G36*
G01*
X129500000Y-66405000D02*
X129500000Y-66655000D01*
G75*
G02*
X129375000Y-66780000I-125000J0D01*
G01*
X129065000Y-66780000D01*
G75*
G02*
X128940000Y-66655000I0J125000D01*
G01*
X128940000Y-66405000D01*
G75*
G02*
X129065000Y-66280000I125000J0D01*
G01*
X129375000Y-66280000D01*
G75*
G02*
X129500000Y-66405000I0J-125000D01*
G01*
G37*
%TD*%
%TO.C,C24*%
G36*
G01*
X128860000Y-65385000D02*
X128860000Y-65635000D01*
G75*
G02*
X128735000Y-65760000I-125000J0D01*
G01*
X128425000Y-65760000D01*
G75*
G02*
X128300000Y-65635000I0J125000D01*
G01*
X128300000Y-65385000D01*
G75*
G02*
X128425000Y-65260000I125000J0D01*
G01*
X128735000Y-65260000D01*
G75*
G02*
X128860000Y-65385000I0J-125000D01*
G01*
G37*
G36*
G01*
X129500000Y-65385000D02*
X129500000Y-65635000D01*
G75*
G02*
X129375000Y-65760000I-125000J0D01*
G01*
X129065000Y-65760000D01*
G75*
G02*
X128940000Y-65635000I0J125000D01*
G01*
X128940000Y-65385000D01*
G75*
G02*
X129065000Y-65260000I125000J0D01*
G01*
X129375000Y-65260000D01*
G75*
G02*
X129500000Y-65385000I0J-125000D01*
G01*
G37*
%TD*%
%TO.C,C25*%
G36*
G01*
X118575000Y-75670000D02*
X118825000Y-75670000D01*
G75*
G02*
X118950000Y-75795000I0J-125000D01*
G01*
X118950000Y-76105000D01*
G75*
G02*
X118825000Y-76230000I-125000J0D01*
G01*
X118575000Y-76230000D01*
G75*
G02*
X118450000Y-76105000I0J125000D01*
G01*
X118450000Y-75795000D01*
G75*
G02*
X118575000Y-75670000I125000J0D01*
G01*
G37*
G36*
G01*
X118575000Y-75030000D02*
X118825000Y-75030000D01*
G75*
G02*
X118950000Y-75155000I0J-125000D01*
G01*
X118950000Y-75465000D01*
G75*
G02*
X118825000Y-75590000I-125000J0D01*
G01*
X118575000Y-75590000D01*
G75*
G02*
X118450000Y-75465000I0J125000D01*
G01*
X118450000Y-75155000D01*
G75*
G02*
X118575000Y-75030000I125000J0D01*
G01*
G37*
%TD*%
%TO.C,C27*%
G36*
G01*
X124790000Y-69775000D02*
X124790000Y-69525000D01*
G75*
G02*
X124915000Y-69400000I125000J0D01*
G01*
X125225000Y-69400000D01*
G75*
G02*
X125350000Y-69525000I0J-125000D01*
G01*
X125350000Y-69775000D01*
G75*
G02*
X125225000Y-69900000I-125000J0D01*
G01*
X124915000Y-69900000D01*
G75*
G02*
X124790000Y-69775000I0J125000D01*
G01*
G37*
G36*
G01*
X124150000Y-69775000D02*
X124150000Y-69525000D01*
G75*
G02*
X124275000Y-69400000I125000J0D01*
G01*
X124585000Y-69400000D01*
G75*
G02*
X124710000Y-69525000I0J-125000D01*
G01*
X124710000Y-69775000D01*
G75*
G02*
X124585000Y-69900000I-125000J0D01*
G01*
X124275000Y-69900000D01*
G75*
G02*
X124150000Y-69775000I0J125000D01*
G01*
G37*
%TD*%
%TO.C,C28*%
G36*
G01*
X123310000Y-69525000D02*
X123310000Y-69775000D01*
G75*
G02*
X123185000Y-69900000I-125000J0D01*
G01*
X122875000Y-69900000D01*
G75*
G02*
X122750000Y-69775000I0J125000D01*
G01*
X122750000Y-69525000D01*
G75*
G02*
X122875000Y-69400000I125000J0D01*
G01*
X123185000Y-69400000D01*
G75*
G02*
X123310000Y-69525000I0J-125000D01*
G01*
G37*
G36*
G01*
X123950000Y-69525000D02*
X123950000Y-69775000D01*
G75*
G02*
X123825000Y-69900000I-125000J0D01*
G01*
X123515000Y-69900000D01*
G75*
G02*
X123390000Y-69775000I0J125000D01*
G01*
X123390000Y-69525000D01*
G75*
G02*
X123515000Y-69400000I125000J0D01*
G01*
X123825000Y-69400000D01*
G75*
G02*
X123950000Y-69525000I0J-125000D01*
G01*
G37*
%TD*%
%TO.C,C30*%
G36*
G01*
X128125000Y-77810000D02*
X128375000Y-77810000D01*
G75*
G02*
X128500000Y-77935000I0J-125000D01*
G01*
X128500000Y-78245000D01*
G75*
G02*
X128375000Y-78370000I-125000J0D01*
G01*
X128125000Y-78370000D01*
G75*
G02*
X128000000Y-78245000I0J125000D01*
G01*
X128000000Y-77935000D01*
G75*
G02*
X128125000Y-77810000I125000J0D01*
G01*
G37*
G36*
G01*
X128125000Y-77170000D02*
X128375000Y-77170000D01*
G75*
G02*
X128500000Y-77295000I0J-125000D01*
G01*
X128500000Y-77605000D01*
G75*
G02*
X128375000Y-77730000I-125000J0D01*
G01*
X128125000Y-77730000D01*
G75*
G02*
X128000000Y-77605000I0J125000D01*
G01*
X128000000Y-77295000D01*
G75*
G02*
X128125000Y-77170000I125000J0D01*
G01*
G37*
%TD*%
%TO.C,C31*%
G36*
G01*
X128825000Y-77810000D02*
X129075000Y-77810000D01*
G75*
G02*
X129200000Y-77935000I0J-125000D01*
G01*
X129200000Y-78245000D01*
G75*
G02*
X129075000Y-78370000I-125000J0D01*
G01*
X128825000Y-78370000D01*
G75*
G02*
X128700000Y-78245000I0J125000D01*
G01*
X128700000Y-77935000D01*
G75*
G02*
X128825000Y-77810000I125000J0D01*
G01*
G37*
G36*
G01*
X128825000Y-77170000D02*
X129075000Y-77170000D01*
G75*
G02*
X129200000Y-77295000I0J-125000D01*
G01*
X129200000Y-77605000D01*
G75*
G02*
X129075000Y-77730000I-125000J0D01*
G01*
X128825000Y-77730000D01*
G75*
G02*
X128700000Y-77605000I0J125000D01*
G01*
X128700000Y-77295000D01*
G75*
G02*
X128825000Y-77170000I125000J0D01*
G01*
G37*
%TD*%
%TO.C,C32*%
G36*
G01*
X129525000Y-77810000D02*
X129775000Y-77810000D01*
G75*
G02*
X129900000Y-77935000I0J-125000D01*
G01*
X129900000Y-78245000D01*
G75*
G02*
X129775000Y-78370000I-125000J0D01*
G01*
X129525000Y-78370000D01*
G75*
G02*
X129400000Y-78245000I0J125000D01*
G01*
X129400000Y-77935000D01*
G75*
G02*
X129525000Y-77810000I125000J0D01*
G01*
G37*
G36*
G01*
X129525000Y-77170000D02*
X129775000Y-77170000D01*
G75*
G02*
X129900000Y-77295000I0J-125000D01*
G01*
X129900000Y-77605000D01*
G75*
G02*
X129775000Y-77730000I-125000J0D01*
G01*
X129525000Y-77730000D01*
G75*
G02*
X129400000Y-77605000I0J125000D01*
G01*
X129400000Y-77295000D01*
G75*
G02*
X129525000Y-77170000I125000J0D01*
G01*
G37*
%TD*%
%TO.C,C34*%
G36*
G01*
X144281250Y-53800000D02*
X143718750Y-53800000D01*
G75*
G02*
X143475000Y-53556250I0J243750D01*
G01*
X143475000Y-53068750D01*
G75*
G02*
X143718750Y-52825000I243750J0D01*
G01*
X144281250Y-52825000D01*
G75*
G02*
X144525000Y-53068750I0J-243750D01*
G01*
X144525000Y-53556250D01*
G75*
G02*
X144281250Y-53800000I-243750J0D01*
G01*
G37*
G36*
G01*
X144281250Y-55375000D02*
X143718750Y-55375000D01*
G75*
G02*
X143475000Y-55131250I0J243750D01*
G01*
X143475000Y-54643750D01*
G75*
G02*
X143718750Y-54400000I243750J0D01*
G01*
X144281250Y-54400000D01*
G75*
G02*
X144525000Y-54643750I0J-243750D01*
G01*
X144525000Y-55131250D01*
G75*
G02*
X144281250Y-55375000I-243750J0D01*
G01*
G37*
%TD*%
%TO.C,C36*%
G36*
G01*
X109001999Y-84675000D02*
X109001999Y-84925000D01*
G75*
G02*
X108876999Y-85050000I-125000J0D01*
G01*
X108566999Y-85050000D01*
G75*
G02*
X108441999Y-84925000I0J125000D01*
G01*
X108441999Y-84675000D01*
G75*
G02*
X108566999Y-84550000I125000J0D01*
G01*
X108876999Y-84550000D01*
G75*
G02*
X109001999Y-84675000I0J-125000D01*
G01*
G37*
G36*
G01*
X108361999Y-84675000D02*
X108361999Y-84925000D01*
G75*
G02*
X108236999Y-85050000I-125000J0D01*
G01*
X107926999Y-85050000D01*
G75*
G02*
X107801999Y-84925000I0J125000D01*
G01*
X107801999Y-84675000D01*
G75*
G02*
X107926999Y-84550000I125000J0D01*
G01*
X108236999Y-84550000D01*
G75*
G02*
X108361999Y-84675000I0J-125000D01*
G01*
G37*
%TD*%
%TO.C,C37*%
G36*
G01*
X112575000Y-87900000D02*
X112825000Y-87900000D01*
G75*
G02*
X112950000Y-88025000I0J-125000D01*
G01*
X112950000Y-88335000D01*
G75*
G02*
X112825000Y-88460000I-125000J0D01*
G01*
X112575000Y-88460000D01*
G75*
G02*
X112450000Y-88335000I0J125000D01*
G01*
X112450000Y-88025000D01*
G75*
G02*
X112575000Y-87900000I125000J0D01*
G01*
G37*
G36*
G01*
X112575000Y-88540000D02*
X112825000Y-88540000D01*
G75*
G02*
X112950000Y-88665000I0J-125000D01*
G01*
X112950000Y-88975000D01*
G75*
G02*
X112825000Y-89100000I-125000J0D01*
G01*
X112575000Y-89100000D01*
G75*
G02*
X112450000Y-88975000I0J125000D01*
G01*
X112450000Y-88665000D01*
G75*
G02*
X112575000Y-88540000I125000J0D01*
G01*
G37*
%TD*%
%TO.C,C38*%
G36*
G01*
X107550000Y-87974999D02*
X107550000Y-88224999D01*
G75*
G02*
X107425000Y-88349999I-125000J0D01*
G01*
X107115000Y-88349999D01*
G75*
G02*
X106990000Y-88224999I0J125000D01*
G01*
X106990000Y-87974999D01*
G75*
G02*
X107115000Y-87849999I125000J0D01*
G01*
X107425000Y-87849999D01*
G75*
G02*
X107550000Y-87974999I0J-125000D01*
G01*
G37*
G36*
G01*
X106910000Y-87974999D02*
X106910000Y-88224999D01*
G75*
G02*
X106785000Y-88349999I-125000J0D01*
G01*
X106475000Y-88349999D01*
G75*
G02*
X106350000Y-88224999I0J125000D01*
G01*
X106350000Y-87974999D01*
G75*
G02*
X106475000Y-87849999I125000J0D01*
G01*
X106785000Y-87849999D01*
G75*
G02*
X106910000Y-87974999I0J-125000D01*
G01*
G37*
%TD*%
%TO.C,C44*%
G36*
G01*
X137175000Y-89040000D02*
X137425000Y-89040000D01*
G75*
G02*
X137550000Y-89165000I0J-125000D01*
G01*
X137550000Y-89475000D01*
G75*
G02*
X137425000Y-89600000I-125000J0D01*
G01*
X137175000Y-89600000D01*
G75*
G02*
X137050000Y-89475000I0J125000D01*
G01*
X137050000Y-89165000D01*
G75*
G02*
X137175000Y-89040000I125000J0D01*
G01*
G37*
G36*
G01*
X137175000Y-88400000D02*
X137425000Y-88400000D01*
G75*
G02*
X137550000Y-88525000I0J-125000D01*
G01*
X137550000Y-88835000D01*
G75*
G02*
X137425000Y-88960000I-125000J0D01*
G01*
X137175000Y-88960000D01*
G75*
G02*
X137050000Y-88835000I0J125000D01*
G01*
X137050000Y-88525000D01*
G75*
G02*
X137175000Y-88400000I125000J0D01*
G01*
G37*
%TD*%
%TO.C,C45*%
G36*
G01*
X140840000Y-84925000D02*
X140840000Y-84675000D01*
G75*
G02*
X140965000Y-84550000I125000J0D01*
G01*
X141275000Y-84550000D01*
G75*
G02*
X141400000Y-84675000I0J-125000D01*
G01*
X141400000Y-84925000D01*
G75*
G02*
X141275000Y-85050000I-125000J0D01*
G01*
X140965000Y-85050000D01*
G75*
G02*
X140840000Y-84925000I0J125000D01*
G01*
G37*
G36*
G01*
X140200000Y-84925000D02*
X140200000Y-84675000D01*
G75*
G02*
X140325000Y-84550000I125000J0D01*
G01*
X140635000Y-84550000D01*
G75*
G02*
X140760000Y-84675000I0J-125000D01*
G01*
X140760000Y-84925000D01*
G75*
G02*
X140635000Y-85050000I-125000J0D01*
G01*
X140325000Y-85050000D01*
G75*
G02*
X140200000Y-84925000I0J125000D01*
G01*
G37*
%TD*%
%TO.C,C47*%
G36*
G01*
X138510000Y-90075000D02*
X138510000Y-90325000D01*
G75*
G02*
X138385000Y-90450000I-125000J0D01*
G01*
X138075000Y-90450000D01*
G75*
G02*
X137950000Y-90325000I0J125000D01*
G01*
X137950000Y-90075000D01*
G75*
G02*
X138075000Y-89950000I125000J0D01*
G01*
X138385000Y-89950000D01*
G75*
G02*
X138510000Y-90075000I0J-125000D01*
G01*
G37*
G36*
G01*
X139150000Y-90075000D02*
X139150000Y-90325000D01*
G75*
G02*
X139025000Y-90450000I-125000J0D01*
G01*
X138715000Y-90450000D01*
G75*
G02*
X138590000Y-90325000I0J125000D01*
G01*
X138590000Y-90075000D01*
G75*
G02*
X138715000Y-89950000I125000J0D01*
G01*
X139025000Y-89950000D01*
G75*
G02*
X139150000Y-90075000I0J-125000D01*
G01*
G37*
%TD*%
D24*
%TO.C,D1*%
X125000000Y-84700000D03*
X125000000Y-85100000D03*
%TD*%
%TO.C,D2*%
G36*
G01*
X112947500Y-51860000D02*
X112552500Y-51860000D01*
G75*
G02*
X112380000Y-51687500I0J172500D01*
G01*
X112380000Y-51342500D01*
G75*
G02*
X112552500Y-51170000I172500J0D01*
G01*
X112947500Y-51170000D01*
G75*
G02*
X113120000Y-51342500I0J-172500D01*
G01*
X113120000Y-51687500D01*
G75*
G02*
X112947500Y-51860000I-172500J0D01*
G01*
G37*
G36*
G01*
X112947500Y-52830000D02*
X112552500Y-52830000D01*
G75*
G02*
X112380000Y-52657500I0J172500D01*
G01*
X112380000Y-52312500D01*
G75*
G02*
X112552500Y-52140000I172500J0D01*
G01*
X112947500Y-52140000D01*
G75*
G02*
X113120000Y-52312500I0J-172500D01*
G01*
X113120000Y-52657500D01*
G75*
G02*
X112947500Y-52830000I-172500J0D01*
G01*
G37*
%TD*%
%TO.C,D3*%
G36*
G01*
X110947500Y-51860000D02*
X110552500Y-51860000D01*
G75*
G02*
X110380000Y-51687500I0J172500D01*
G01*
X110380000Y-51342500D01*
G75*
G02*
X110552500Y-51170000I172500J0D01*
G01*
X110947500Y-51170000D01*
G75*
G02*
X111120000Y-51342500I0J-172500D01*
G01*
X111120000Y-51687500D01*
G75*
G02*
X110947500Y-51860000I-172500J0D01*
G01*
G37*
G36*
G01*
X110947500Y-52830000D02*
X110552500Y-52830000D01*
G75*
G02*
X110380000Y-52657500I0J172500D01*
G01*
X110380000Y-52312500D01*
G75*
G02*
X110552500Y-52140000I172500J0D01*
G01*
X110947500Y-52140000D01*
G75*
G02*
X111120000Y-52312500I0J-172500D01*
G01*
X111120000Y-52657500D01*
G75*
G02*
X110947500Y-52830000I-172500J0D01*
G01*
G37*
%TD*%
%TO.C,FB2*%
G36*
G01*
X128855000Y-61148750D02*
X128855000Y-61711250D01*
G75*
G02*
X128611250Y-61955000I-243750J0D01*
G01*
X128123750Y-61955000D01*
G75*
G02*
X127880000Y-61711250I0J243750D01*
G01*
X127880000Y-61148750D01*
G75*
G02*
X128123750Y-60905000I243750J0D01*
G01*
X128611250Y-60905000D01*
G75*
G02*
X128855000Y-61148750I0J-243750D01*
G01*
G37*
G36*
G01*
X127280000Y-61148750D02*
X127280000Y-61711250D01*
G75*
G02*
X127036250Y-61955000I-243750J0D01*
G01*
X126548750Y-61955000D01*
G75*
G02*
X126305000Y-61711250I0J243750D01*
G01*
X126305000Y-61148750D01*
G75*
G02*
X126548750Y-60905000I243750J0D01*
G01*
X127036250Y-60905000D01*
G75*
G02*
X127280000Y-61148750I0J-243750D01*
G01*
G37*
%TD*%
%TO.C,FB3*%
G36*
G01*
X122725000Y-68851250D02*
X122725000Y-68288750D01*
G75*
G02*
X122968750Y-68045000I243750J0D01*
G01*
X123456250Y-68045000D01*
G75*
G02*
X123700000Y-68288750I0J-243750D01*
G01*
X123700000Y-68851250D01*
G75*
G02*
X123456250Y-69095000I-243750J0D01*
G01*
X122968750Y-69095000D01*
G75*
G02*
X122725000Y-68851250I0J243750D01*
G01*
G37*
G36*
G01*
X121150000Y-68851250D02*
X121150000Y-68288750D01*
G75*
G02*
X121393750Y-68045000I243750J0D01*
G01*
X121881250Y-68045000D01*
G75*
G02*
X122125000Y-68288750I0J-243750D01*
G01*
X122125000Y-68851250D01*
G75*
G02*
X121881250Y-69095000I-243750J0D01*
G01*
X121393750Y-69095000D01*
G75*
G02*
X121150000Y-68851250I0J243750D01*
G01*
G37*
%TD*%
D25*
%TO.C,H1*%
X102000000Y-98000000D03*
%TD*%
%TO.C,H2*%
X148000000Y-52000000D03*
%TD*%
%TO.C,H3*%
X102000000Y-52000000D03*
%TD*%
%TO.C,H4*%
X148000000Y-98000000D03*
%TD*%
D26*
%TO.C,J1*%
X126250000Y-88800000D03*
X125000000Y-88800000D03*
G36*
G01*
X123200000Y-89275000D02*
X123200000Y-88325000D01*
G75*
G02*
X123475000Y-88050000I275000J0D01*
G01*
X124025000Y-88050000D01*
G75*
G02*
X124300000Y-88325000I0J-275000D01*
G01*
X124300000Y-89275000D01*
G75*
G02*
X124025000Y-89550000I-275000J0D01*
G01*
X123475000Y-89550000D01*
G75*
G02*
X123200000Y-89275000I0J275000D01*
G01*
G37*
%TD*%
D13*
%TO.C,J3*%
X111730000Y-69260000D03*
D14*
X113000000Y-60740000D03*
%TD*%
D27*
%TO.C,J6*%
X110250000Y-97300000D03*
X109000000Y-97300000D03*
X107750000Y-97300000D03*
G36*
G01*
X106000000Y-97800000D02*
X106000000Y-96800000D01*
G75*
G02*
X106250000Y-96550000I250000J0D01*
G01*
X106750000Y-96550000D01*
G75*
G02*
X107000000Y-96800000I0J-250000D01*
G01*
X107000000Y-97800000D01*
G75*
G02*
X106750000Y-98050000I-250000J0D01*
G01*
X106250000Y-98050000D01*
G75*
G02*
X106000000Y-97800000I0J250000D01*
G01*
G37*
%TD*%
D28*
%TO.C,J7*%
X102700000Y-93500000D03*
X102700000Y-92250000D03*
X102700000Y-91000000D03*
X102700000Y-89750000D03*
X102700000Y-88500000D03*
G36*
G01*
X102200000Y-86750000D02*
X103200000Y-86750000D01*
G75*
G02*
X103450000Y-87000000I0J-250000D01*
G01*
X103450000Y-87500000D01*
G75*
G02*
X103200000Y-87750000I-250000J0D01*
G01*
X102200000Y-87750000D01*
G75*
G02*
X101950000Y-87500000I0J250000D01*
G01*
X101950000Y-87000000D01*
G75*
G02*
X102200000Y-86750000I250000J0D01*
G01*
G37*
%TD*%
D27*
%TO.C,J9*%
X143500000Y-97300000D03*
X142250000Y-97300000D03*
X141000000Y-97300000D03*
G36*
G01*
X139250000Y-97800000D02*
X139250000Y-96800000D01*
G75*
G02*
X139500000Y-96550000I250000J0D01*
G01*
X140000000Y-96550000D01*
G75*
G02*
X140250000Y-96800000I0J-250000D01*
G01*
X140250000Y-97800000D01*
G75*
G02*
X140000000Y-98050000I-250000J0D01*
G01*
X139500000Y-98050000D01*
G75*
G02*
X139250000Y-97800000I0J250000D01*
G01*
G37*
%TD*%
D28*
%TO.C,J10*%
X147300000Y-87250000D03*
X147300000Y-88500000D03*
X147300000Y-89750000D03*
X147300000Y-91000000D03*
X147300000Y-92250000D03*
G36*
G01*
X147800000Y-94000000D02*
X146800000Y-94000000D01*
G75*
G02*
X146550000Y-93750000I0J250000D01*
G01*
X146550000Y-93250000D01*
G75*
G02*
X146800000Y-93000000I250000J0D01*
G01*
X147800000Y-93000000D01*
G75*
G02*
X148050000Y-93250000I0J-250000D01*
G01*
X148050000Y-93750000D01*
G75*
G02*
X147800000Y-94000000I-250000J0D01*
G01*
G37*
%TD*%
%TO.C,R1*%
G36*
G01*
X121225000Y-72970000D02*
X121475000Y-72970000D01*
G75*
G02*
X121600000Y-73095000I0J-125000D01*
G01*
X121600000Y-73405000D01*
G75*
G02*
X121475000Y-73530000I-125000J0D01*
G01*
X121225000Y-73530000D01*
G75*
G02*
X121100000Y-73405000I0J125000D01*
G01*
X121100000Y-73095000D01*
G75*
G02*
X121225000Y-72970000I125000J0D01*
G01*
G37*
G36*
G01*
X121225000Y-72330000D02*
X121475000Y-72330000D01*
G75*
G02*
X121600000Y-72455000I0J-125000D01*
G01*
X121600000Y-72765000D01*
G75*
G02*
X121475000Y-72890000I-125000J0D01*
G01*
X121225000Y-72890000D01*
G75*
G02*
X121100000Y-72765000I0J125000D01*
G01*
X121100000Y-72455000D01*
G75*
G02*
X121225000Y-72330000I125000J0D01*
G01*
G37*
%TD*%
%TO.C,R2*%
G36*
G01*
X129960000Y-74125000D02*
X129960000Y-74375000D01*
G75*
G02*
X129835000Y-74500000I-125000J0D01*
G01*
X129525000Y-74500000D01*
G75*
G02*
X129400000Y-74375000I0J125000D01*
G01*
X129400000Y-74125000D01*
G75*
G02*
X129525000Y-74000000I125000J0D01*
G01*
X129835000Y-74000000D01*
G75*
G02*
X129960000Y-74125000I0J-125000D01*
G01*
G37*
G36*
G01*
X130600000Y-74125000D02*
X130600000Y-74375000D01*
G75*
G02*
X130475000Y-74500000I-125000J0D01*
G01*
X130165000Y-74500000D01*
G75*
G02*
X130040000Y-74375000I0J125000D01*
G01*
X130040000Y-74125000D01*
G75*
G02*
X130165000Y-74000000I125000J0D01*
G01*
X130475000Y-74000000D01*
G75*
G02*
X130600000Y-74125000I0J-125000D01*
G01*
G37*
%TD*%
%TO.C,R3*%
G36*
G01*
X126460000Y-50875000D02*
X126460000Y-51125000D01*
G75*
G02*
X126335000Y-51250000I-125000J0D01*
G01*
X126025000Y-51250000D01*
G75*
G02*
X125900000Y-51125000I0J125000D01*
G01*
X125900000Y-50875000D01*
G75*
G02*
X126025000Y-50750000I125000J0D01*
G01*
X126335000Y-50750000D01*
G75*
G02*
X126460000Y-50875000I0J-125000D01*
G01*
G37*
G36*
G01*
X127100000Y-50875000D02*
X127100000Y-51125000D01*
G75*
G02*
X126975000Y-51250000I-125000J0D01*
G01*
X126665000Y-51250000D01*
G75*
G02*
X126540000Y-51125000I0J125000D01*
G01*
X126540000Y-50875000D01*
G75*
G02*
X126665000Y-50750000I125000J0D01*
G01*
X126975000Y-50750000D01*
G75*
G02*
X127100000Y-50875000I0J-125000D01*
G01*
G37*
%TD*%
%TO.C,R4*%
G36*
G01*
X125030000Y-79450000D02*
X125030000Y-79700000D01*
G75*
G02*
X124905000Y-79825000I-125000J0D01*
G01*
X124595000Y-79825000D01*
G75*
G02*
X124470000Y-79700000I0J125000D01*
G01*
X124470000Y-79450000D01*
G75*
G02*
X124595000Y-79325000I125000J0D01*
G01*
X124905000Y-79325000D01*
G75*
G02*
X125030000Y-79450000I0J-125000D01*
G01*
G37*
G36*
G01*
X125670000Y-79450000D02*
X125670000Y-79700000D01*
G75*
G02*
X125545000Y-79825000I-125000J0D01*
G01*
X125235000Y-79825000D01*
G75*
G02*
X125110000Y-79700000I0J125000D01*
G01*
X125110000Y-79450000D01*
G75*
G02*
X125235000Y-79325000I125000J0D01*
G01*
X125545000Y-79325000D01*
G75*
G02*
X125670000Y-79450000I0J-125000D01*
G01*
G37*
%TD*%
%TO.C,R6*%
G36*
G01*
X124875000Y-86290000D02*
X125125000Y-86290000D01*
G75*
G02*
X125250000Y-86415000I0J-125000D01*
G01*
X125250000Y-86725000D01*
G75*
G02*
X125125000Y-86850000I-125000J0D01*
G01*
X124875000Y-86850000D01*
G75*
G02*
X124750000Y-86725000I0J125000D01*
G01*
X124750000Y-86415000D01*
G75*
G02*
X124875000Y-86290000I125000J0D01*
G01*
G37*
G36*
G01*
X124875000Y-85650000D02*
X125125000Y-85650000D01*
G75*
G02*
X125250000Y-85775000I0J-125000D01*
G01*
X125250000Y-86085000D01*
G75*
G02*
X125125000Y-86210000I-125000J0D01*
G01*
X124875000Y-86210000D01*
G75*
G02*
X124750000Y-86085000I0J125000D01*
G01*
X124750000Y-85775000D01*
G75*
G02*
X124875000Y-85650000I125000J0D01*
G01*
G37*
%TD*%
%TO.C,R7*%
G36*
G01*
X125125000Y-83370000D02*
X124875000Y-83370000D01*
G75*
G02*
X124750000Y-83245000I0J125000D01*
G01*
X124750000Y-82935000D01*
G75*
G02*
X124875000Y-82810000I125000J0D01*
G01*
X125125000Y-82810000D01*
G75*
G02*
X125250000Y-82935000I0J-125000D01*
G01*
X125250000Y-83245000D01*
G75*
G02*
X125125000Y-83370000I-125000J0D01*
G01*
G37*
G36*
G01*
X125125000Y-84010000D02*
X124875000Y-84010000D01*
G75*
G02*
X124750000Y-83885000I0J125000D01*
G01*
X124750000Y-83575000D01*
G75*
G02*
X124875000Y-83450000I125000J0D01*
G01*
X125125000Y-83450000D01*
G75*
G02*
X125250000Y-83575000I0J-125000D01*
G01*
X125250000Y-83885000D01*
G75*
G02*
X125125000Y-84010000I-125000J0D01*
G01*
G37*
%TD*%
%TO.C,R8*%
G36*
G01*
X113110000Y-53825000D02*
X113110000Y-53575000D01*
G75*
G02*
X113235000Y-53450000I125000J0D01*
G01*
X113545000Y-53450000D01*
G75*
G02*
X113670000Y-53575000I0J-125000D01*
G01*
X113670000Y-53825000D01*
G75*
G02*
X113545000Y-53950000I-125000J0D01*
G01*
X113235000Y-53950000D01*
G75*
G02*
X113110000Y-53825000I0J125000D01*
G01*
G37*
G36*
G01*
X112470000Y-53825000D02*
X112470000Y-53575000D01*
G75*
G02*
X112595000Y-53450000I125000J0D01*
G01*
X112905000Y-53450000D01*
G75*
G02*
X113030000Y-53575000I0J-125000D01*
G01*
X113030000Y-53825000D01*
G75*
G02*
X112905000Y-53950000I-125000J0D01*
G01*
X112595000Y-53950000D01*
G75*
G02*
X112470000Y-53825000I0J125000D01*
G01*
G37*
%TD*%
%TO.C,R9*%
G36*
G01*
X113595000Y-51875000D02*
X113845000Y-51875000D01*
G75*
G02*
X113970000Y-52000000I0J-125000D01*
G01*
X113970000Y-52310000D01*
G75*
G02*
X113845000Y-52435000I-125000J0D01*
G01*
X113595000Y-52435000D01*
G75*
G02*
X113470000Y-52310000I0J125000D01*
G01*
X113470000Y-52000000D01*
G75*
G02*
X113595000Y-51875000I125000J0D01*
G01*
G37*
G36*
G01*
X113595000Y-51235000D02*
X113845000Y-51235000D01*
G75*
G02*
X113970000Y-51360000I0J-125000D01*
G01*
X113970000Y-51670000D01*
G75*
G02*
X113845000Y-51795000I-125000J0D01*
G01*
X113595000Y-51795000D01*
G75*
G02*
X113470000Y-51670000I0J125000D01*
G01*
X113470000Y-51360000D01*
G75*
G02*
X113595000Y-51235000I125000J0D01*
G01*
G37*
%TD*%
%TO.C,R10*%
G36*
G01*
X110390000Y-53575000D02*
X110390000Y-53825000D01*
G75*
G02*
X110265000Y-53950000I-125000J0D01*
G01*
X109955000Y-53950000D01*
G75*
G02*
X109830000Y-53825000I0J125000D01*
G01*
X109830000Y-53575000D01*
G75*
G02*
X109955000Y-53450000I125000J0D01*
G01*
X110265000Y-53450000D01*
G75*
G02*
X110390000Y-53575000I0J-125000D01*
G01*
G37*
G36*
G01*
X111030000Y-53575000D02*
X111030000Y-53825000D01*
G75*
G02*
X110905000Y-53950000I-125000J0D01*
G01*
X110595000Y-53950000D01*
G75*
G02*
X110470000Y-53825000I0J125000D01*
G01*
X110470000Y-53575000D01*
G75*
G02*
X110595000Y-53450000I125000J0D01*
G01*
X110905000Y-53450000D01*
G75*
G02*
X111030000Y-53575000I0J-125000D01*
G01*
G37*
%TD*%
%TO.C,R11*%
G36*
G01*
X109655000Y-51875000D02*
X109905000Y-51875000D01*
G75*
G02*
X110030000Y-52000000I0J-125000D01*
G01*
X110030000Y-52310000D01*
G75*
G02*
X109905000Y-52435000I-125000J0D01*
G01*
X109655000Y-52435000D01*
G75*
G02*
X109530000Y-52310000I0J125000D01*
G01*
X109530000Y-52000000D01*
G75*
G02*
X109655000Y-51875000I125000J0D01*
G01*
G37*
G36*
G01*
X109655000Y-51235000D02*
X109905000Y-51235000D01*
G75*
G02*
X110030000Y-51360000I0J-125000D01*
G01*
X110030000Y-51670000D01*
G75*
G02*
X109905000Y-51795000I-125000J0D01*
G01*
X109655000Y-51795000D01*
G75*
G02*
X109530000Y-51670000I0J125000D01*
G01*
X109530000Y-51360000D01*
G75*
G02*
X109655000Y-51235000I125000J0D01*
G01*
G37*
%TD*%
%TO.C,R12*%
G36*
G01*
X138470000Y-55275000D02*
X138470000Y-55025000D01*
G75*
G02*
X138595000Y-54900000I125000J0D01*
G01*
X138905000Y-54900000D01*
G75*
G02*
X139030000Y-55025000I0J-125000D01*
G01*
X139030000Y-55275000D01*
G75*
G02*
X138905000Y-55400000I-125000J0D01*
G01*
X138595000Y-55400000D01*
G75*
G02*
X138470000Y-55275000I0J125000D01*
G01*
G37*
G36*
G01*
X137830000Y-55275000D02*
X137830000Y-55025000D01*
G75*
G02*
X137955000Y-54900000I125000J0D01*
G01*
X138265000Y-54900000D01*
G75*
G02*
X138390000Y-55025000I0J-125000D01*
G01*
X138390000Y-55275000D01*
G75*
G02*
X138265000Y-55400000I-125000J0D01*
G01*
X137955000Y-55400000D01*
G75*
G02*
X137830000Y-55275000I0J125000D01*
G01*
G37*
%TD*%
%TO.C,R16*%
G36*
G01*
X118160000Y-55475000D02*
X118160000Y-55725000D01*
G75*
G02*
X118035000Y-55850000I-125000J0D01*
G01*
X117725000Y-55850000D01*
G75*
G02*
X117600000Y-55725000I0J125000D01*
G01*
X117600000Y-55475000D01*
G75*
G02*
X117725000Y-55350000I125000J0D01*
G01*
X118035000Y-55350000D01*
G75*
G02*
X118160000Y-55475000I0J-125000D01*
G01*
G37*
G36*
G01*
X118800000Y-55475000D02*
X118800000Y-55725000D01*
G75*
G02*
X118675000Y-55850000I-125000J0D01*
G01*
X118365000Y-55850000D01*
G75*
G02*
X118240000Y-55725000I0J125000D01*
G01*
X118240000Y-55475000D01*
G75*
G02*
X118365000Y-55350000I125000J0D01*
G01*
X118675000Y-55350000D01*
G75*
G02*
X118800000Y-55475000I0J-125000D01*
G01*
G37*
%TD*%
%TO.C,R17*%
G36*
G01*
X116840000Y-55725000D02*
X116840000Y-55475000D01*
G75*
G02*
X116965000Y-55350000I125000J0D01*
G01*
X117275000Y-55350000D01*
G75*
G02*
X117400000Y-55475000I0J-125000D01*
G01*
X117400000Y-55725000D01*
G75*
G02*
X117275000Y-55850000I-125000J0D01*
G01*
X116965000Y-55850000D01*
G75*
G02*
X116840000Y-55725000I0J125000D01*
G01*
G37*
G36*
G01*
X116200000Y-55725000D02*
X116200000Y-55475000D01*
G75*
G02*
X116325000Y-55350000I125000J0D01*
G01*
X116635000Y-55350000D01*
G75*
G02*
X116760000Y-55475000I0J-125000D01*
G01*
X116760000Y-55725000D01*
G75*
G02*
X116635000Y-55850000I-125000J0D01*
G01*
X116325000Y-55850000D01*
G75*
G02*
X116200000Y-55725000I0J125000D01*
G01*
G37*
%TD*%
%TO.C,R18*%
G36*
G01*
X120290000Y-54875000D02*
X120290000Y-54625000D01*
G75*
G02*
X120415000Y-54500000I125000J0D01*
G01*
X120725000Y-54500000D01*
G75*
G02*
X120850000Y-54625000I0J-125000D01*
G01*
X120850000Y-54875000D01*
G75*
G02*
X120725000Y-55000000I-125000J0D01*
G01*
X120415000Y-55000000D01*
G75*
G02*
X120290000Y-54875000I0J125000D01*
G01*
G37*
G36*
G01*
X119650000Y-54875000D02*
X119650000Y-54625000D01*
G75*
G02*
X119775000Y-54500000I125000J0D01*
G01*
X120085000Y-54500000D01*
G75*
G02*
X120210000Y-54625000I0J-125000D01*
G01*
X120210000Y-54875000D01*
G75*
G02*
X120085000Y-55000000I-125000J0D01*
G01*
X119775000Y-55000000D01*
G75*
G02*
X119650000Y-54875000I0J125000D01*
G01*
G37*
%TD*%
%TO.C,R19*%
G36*
G01*
X123540000Y-51125000D02*
X123540000Y-50875000D01*
G75*
G02*
X123665000Y-50750000I125000J0D01*
G01*
X123975000Y-50750000D01*
G75*
G02*
X124100000Y-50875000I0J-125000D01*
G01*
X124100000Y-51125000D01*
G75*
G02*
X123975000Y-51250000I-125000J0D01*
G01*
X123665000Y-51250000D01*
G75*
G02*
X123540000Y-51125000I0J125000D01*
G01*
G37*
G36*
G01*
X122900000Y-51125000D02*
X122900000Y-50875000D01*
G75*
G02*
X123025000Y-50750000I125000J0D01*
G01*
X123335000Y-50750000D01*
G75*
G02*
X123460000Y-50875000I0J-125000D01*
G01*
X123460000Y-51125000D01*
G75*
G02*
X123335000Y-51250000I-125000J0D01*
G01*
X123025000Y-51250000D01*
G75*
G02*
X122900000Y-51125000I0J125000D01*
G01*
G37*
%TD*%
%TO.C,R20*%
G36*
G01*
X121290000Y-56915000D02*
X121290000Y-56665000D01*
G75*
G02*
X121415000Y-56540000I125000J0D01*
G01*
X121725000Y-56540000D01*
G75*
G02*
X121850000Y-56665000I0J-125000D01*
G01*
X121850000Y-56915000D01*
G75*
G02*
X121725000Y-57040000I-125000J0D01*
G01*
X121415000Y-57040000D01*
G75*
G02*
X121290000Y-56915000I0J125000D01*
G01*
G37*
G36*
G01*
X120650000Y-56915000D02*
X120650000Y-56665000D01*
G75*
G02*
X120775000Y-56540000I125000J0D01*
G01*
X121085000Y-56540000D01*
G75*
G02*
X121210000Y-56665000I0J-125000D01*
G01*
X121210000Y-56915000D01*
G75*
G02*
X121085000Y-57040000I-125000J0D01*
G01*
X120775000Y-57040000D01*
G75*
G02*
X120650000Y-56915000I0J125000D01*
G01*
G37*
%TD*%
%TO.C,R21*%
G36*
G01*
X127110000Y-58125000D02*
X127110000Y-58375000D01*
G75*
G02*
X126985000Y-58500000I-125000J0D01*
G01*
X126675000Y-58500000D01*
G75*
G02*
X126550000Y-58375000I0J125000D01*
G01*
X126550000Y-58125000D01*
G75*
G02*
X126675000Y-58000000I125000J0D01*
G01*
X126985000Y-58000000D01*
G75*
G02*
X127110000Y-58125000I0J-125000D01*
G01*
G37*
G36*
G01*
X127750000Y-58125000D02*
X127750000Y-58375000D01*
G75*
G02*
X127625000Y-58500000I-125000J0D01*
G01*
X127315000Y-58500000D01*
G75*
G02*
X127190000Y-58375000I0J125000D01*
G01*
X127190000Y-58125000D01*
G75*
G02*
X127315000Y-58000000I125000J0D01*
G01*
X127625000Y-58000000D01*
G75*
G02*
X127750000Y-58125000I0J-125000D01*
G01*
G37*
%TD*%
%TO.C,R22*%
G36*
G01*
X130180000Y-55625000D02*
X130180000Y-55875000D01*
G75*
G02*
X130055000Y-56000000I-125000J0D01*
G01*
X129745000Y-56000000D01*
G75*
G02*
X129620000Y-55875000I0J125000D01*
G01*
X129620000Y-55625000D01*
G75*
G02*
X129745000Y-55500000I125000J0D01*
G01*
X130055000Y-55500000D01*
G75*
G02*
X130180000Y-55625000I0J-125000D01*
G01*
G37*
G36*
G01*
X130820000Y-55625000D02*
X130820000Y-55875000D01*
G75*
G02*
X130695000Y-56000000I-125000J0D01*
G01*
X130385000Y-56000000D01*
G75*
G02*
X130260000Y-55875000I0J125000D01*
G01*
X130260000Y-55625000D01*
G75*
G02*
X130385000Y-55500000I125000J0D01*
G01*
X130695000Y-55500000D01*
G75*
G02*
X130820000Y-55625000I0J-125000D01*
G01*
G37*
%TD*%
%TO.C,R23*%
G36*
G01*
X120615000Y-60590000D02*
X120865000Y-60590000D01*
G75*
G02*
X120990000Y-60715000I0J-125000D01*
G01*
X120990000Y-61025000D01*
G75*
G02*
X120865000Y-61150000I-125000J0D01*
G01*
X120615000Y-61150000D01*
G75*
G02*
X120490000Y-61025000I0J125000D01*
G01*
X120490000Y-60715000D01*
G75*
G02*
X120615000Y-60590000I125000J0D01*
G01*
G37*
G36*
G01*
X120615000Y-59950000D02*
X120865000Y-59950000D01*
G75*
G02*
X120990000Y-60075000I0J-125000D01*
G01*
X120990000Y-60385000D01*
G75*
G02*
X120865000Y-60510000I-125000J0D01*
G01*
X120615000Y-60510000D01*
G75*
G02*
X120490000Y-60385000I0J125000D01*
G01*
X120490000Y-60075000D01*
G75*
G02*
X120615000Y-59950000I125000J0D01*
G01*
G37*
%TD*%
%TO.C,R24*%
G36*
G01*
X120615000Y-58750000D02*
X120865000Y-58750000D01*
G75*
G02*
X120990000Y-58875000I0J-125000D01*
G01*
X120990000Y-59185000D01*
G75*
G02*
X120865000Y-59310000I-125000J0D01*
G01*
X120615000Y-59310000D01*
G75*
G02*
X120490000Y-59185000I0J125000D01*
G01*
X120490000Y-58875000D01*
G75*
G02*
X120615000Y-58750000I125000J0D01*
G01*
G37*
G36*
G01*
X120615000Y-58110000D02*
X120865000Y-58110000D01*
G75*
G02*
X120990000Y-58235000I0J-125000D01*
G01*
X120990000Y-58545000D01*
G75*
G02*
X120865000Y-58670000I-125000J0D01*
G01*
X120615000Y-58670000D01*
G75*
G02*
X120490000Y-58545000I0J125000D01*
G01*
X120490000Y-58235000D01*
G75*
G02*
X120615000Y-58110000I125000J0D01*
G01*
G37*
%TD*%
%TO.C,R25*%
G36*
G01*
X120615000Y-71330000D02*
X120865000Y-71330000D01*
G75*
G02*
X120990000Y-71455000I0J-125000D01*
G01*
X120990000Y-71765000D01*
G75*
G02*
X120865000Y-71890000I-125000J0D01*
G01*
X120615000Y-71890000D01*
G75*
G02*
X120490000Y-71765000I0J125000D01*
G01*
X120490000Y-71455000D01*
G75*
G02*
X120615000Y-71330000I125000J0D01*
G01*
G37*
G36*
G01*
X120615000Y-70690000D02*
X120865000Y-70690000D01*
G75*
G02*
X120990000Y-70815000I0J-125000D01*
G01*
X120990000Y-71125000D01*
G75*
G02*
X120865000Y-71250000I-125000J0D01*
G01*
X120615000Y-71250000D01*
G75*
G02*
X120490000Y-71125000I0J125000D01*
G01*
X120490000Y-70815000D01*
G75*
G02*
X120615000Y-70690000I125000J0D01*
G01*
G37*
%TD*%
%TO.C,R26*%
G36*
G01*
X108481250Y-53600000D02*
X107518750Y-53600000D01*
G75*
G02*
X107250000Y-53331250I0J268750D01*
G01*
X107250000Y-52793750D01*
G75*
G02*
X107518750Y-52525000I268750J0D01*
G01*
X108481250Y-52525000D01*
G75*
G02*
X108750000Y-52793750I0J-268750D01*
G01*
X108750000Y-53331250D01*
G75*
G02*
X108481250Y-53600000I-268750J0D01*
G01*
G37*
G36*
G01*
X108481250Y-55475000D02*
X107518750Y-55475000D01*
G75*
G02*
X107250000Y-55206250I0J268750D01*
G01*
X107250000Y-54668750D01*
G75*
G02*
X107518750Y-54400000I268750J0D01*
G01*
X108481250Y-54400000D01*
G75*
G02*
X108750000Y-54668750I0J-268750D01*
G01*
X108750000Y-55206250D01*
G75*
G02*
X108481250Y-55475000I-268750J0D01*
G01*
G37*
%TD*%
%TO.C,R28*%
G36*
G01*
X129960000Y-75125000D02*
X129960000Y-75375000D01*
G75*
G02*
X129835000Y-75500000I-125000J0D01*
G01*
X129525000Y-75500000D01*
G75*
G02*
X129400000Y-75375000I0J125000D01*
G01*
X129400000Y-75125000D01*
G75*
G02*
X129525000Y-75000000I125000J0D01*
G01*
X129835000Y-75000000D01*
G75*
G02*
X129960000Y-75125000I0J-125000D01*
G01*
G37*
G36*
G01*
X130600000Y-75125000D02*
X130600000Y-75375000D01*
G75*
G02*
X130475000Y-75500000I-125000J0D01*
G01*
X130165000Y-75500000D01*
G75*
G02*
X130040000Y-75375000I0J125000D01*
G01*
X130040000Y-75125000D01*
G75*
G02*
X130165000Y-75000000I125000J0D01*
G01*
X130475000Y-75000000D01*
G75*
G02*
X130600000Y-75125000I0J-125000D01*
G01*
G37*
%TD*%
%TO.C,R29*%
G36*
G01*
X126660000Y-78750000D02*
X126660000Y-79000000D01*
G75*
G02*
X126535000Y-79125000I-125000J0D01*
G01*
X126225000Y-79125000D01*
G75*
G02*
X126100000Y-79000000I0J125000D01*
G01*
X126100000Y-78750000D01*
G75*
G02*
X126225000Y-78625000I125000J0D01*
G01*
X126535000Y-78625000D01*
G75*
G02*
X126660000Y-78750000I0J-125000D01*
G01*
G37*
G36*
G01*
X127300000Y-78750000D02*
X127300000Y-79000000D01*
G75*
G02*
X127175000Y-79125000I-125000J0D01*
G01*
X126865000Y-79125000D01*
G75*
G02*
X126740000Y-79000000I0J125000D01*
G01*
X126740000Y-78750000D01*
G75*
G02*
X126865000Y-78625000I125000J0D01*
G01*
X127175000Y-78625000D01*
G75*
G02*
X127300000Y-78750000I0J-125000D01*
G01*
G37*
%TD*%
%TO.C,R30*%
G36*
G01*
X128785000Y-73125000D02*
X128785000Y-73375000D01*
G75*
G02*
X128660000Y-73500000I-125000J0D01*
G01*
X128350000Y-73500000D01*
G75*
G02*
X128225000Y-73375000I0J125000D01*
G01*
X128225000Y-73125000D01*
G75*
G02*
X128350000Y-73000000I125000J0D01*
G01*
X128660000Y-73000000D01*
G75*
G02*
X128785000Y-73125000I0J-125000D01*
G01*
G37*
G36*
G01*
X129425000Y-73125000D02*
X129425000Y-73375000D01*
G75*
G02*
X129300000Y-73500000I-125000J0D01*
G01*
X128990000Y-73500000D01*
G75*
G02*
X128865000Y-73375000I0J125000D01*
G01*
X128865000Y-73125000D01*
G75*
G02*
X128990000Y-73000000I125000J0D01*
G01*
X129300000Y-73000000D01*
G75*
G02*
X129425000Y-73125000I0J-125000D01*
G01*
G37*
%TD*%
%TO.C,R31*%
G36*
G01*
X122890000Y-71875000D02*
X122890000Y-71625000D01*
G75*
G02*
X123015000Y-71500000I125000J0D01*
G01*
X123325000Y-71500000D01*
G75*
G02*
X123450000Y-71625000I0J-125000D01*
G01*
X123450000Y-71875000D01*
G75*
G02*
X123325000Y-72000000I-125000J0D01*
G01*
X123015000Y-72000000D01*
G75*
G02*
X122890000Y-71875000I0J125000D01*
G01*
G37*
G36*
G01*
X122250000Y-71875000D02*
X122250000Y-71625000D01*
G75*
G02*
X122375000Y-71500000I125000J0D01*
G01*
X122685000Y-71500000D01*
G75*
G02*
X122810000Y-71625000I0J-125000D01*
G01*
X122810000Y-71875000D01*
G75*
G02*
X122685000Y-72000000I-125000J0D01*
G01*
X122375000Y-72000000D01*
G75*
G02*
X122250000Y-71875000I0J125000D01*
G01*
G37*
%TD*%
%TO.C,R32*%
G36*
G01*
X119820000Y-74375000D02*
X119820000Y-74125000D01*
G75*
G02*
X119945000Y-74000000I125000J0D01*
G01*
X120255000Y-74000000D01*
G75*
G02*
X120380000Y-74125000I0J-125000D01*
G01*
X120380000Y-74375000D01*
G75*
G02*
X120255000Y-74500000I-125000J0D01*
G01*
X119945000Y-74500000D01*
G75*
G02*
X119820000Y-74375000I0J125000D01*
G01*
G37*
G36*
G01*
X119180000Y-74375000D02*
X119180000Y-74125000D01*
G75*
G02*
X119305000Y-74000000I125000J0D01*
G01*
X119615000Y-74000000D01*
G75*
G02*
X119740000Y-74125000I0J-125000D01*
G01*
X119740000Y-74375000D01*
G75*
G02*
X119615000Y-74500000I-125000J0D01*
G01*
X119305000Y-74500000D01*
G75*
G02*
X119180000Y-74375000I0J125000D01*
G01*
G37*
%TD*%
%TO.C,R33*%
G36*
G01*
X129375000Y-69410000D02*
X129125000Y-69410000D01*
G75*
G02*
X129000000Y-69285000I0J125000D01*
G01*
X129000000Y-68975000D01*
G75*
G02*
X129125000Y-68850000I125000J0D01*
G01*
X129375000Y-68850000D01*
G75*
G02*
X129500000Y-68975000I0J-125000D01*
G01*
X129500000Y-69285000D01*
G75*
G02*
X129375000Y-69410000I-125000J0D01*
G01*
G37*
G36*
G01*
X129375000Y-70050000D02*
X129125000Y-70050000D01*
G75*
G02*
X129000000Y-69925000I0J125000D01*
G01*
X129000000Y-69615000D01*
G75*
G02*
X129125000Y-69490000I125000J0D01*
G01*
X129375000Y-69490000D01*
G75*
G02*
X129500000Y-69615000I0J-125000D01*
G01*
X129500000Y-69925000D01*
G75*
G02*
X129375000Y-70050000I-125000J0D01*
G01*
G37*
%TD*%
%TO.C,R34*%
G36*
G01*
X129375000Y-71250000D02*
X129125000Y-71250000D01*
G75*
G02*
X129000000Y-71125000I0J125000D01*
G01*
X129000000Y-70815000D01*
G75*
G02*
X129125000Y-70690000I125000J0D01*
G01*
X129375000Y-70690000D01*
G75*
G02*
X129500000Y-70815000I0J-125000D01*
G01*
X129500000Y-71125000D01*
G75*
G02*
X129375000Y-71250000I-125000J0D01*
G01*
G37*
G36*
G01*
X129375000Y-71890000D02*
X129125000Y-71890000D01*
G75*
G02*
X129000000Y-71765000I0J125000D01*
G01*
X129000000Y-71455000D01*
G75*
G02*
X129125000Y-71330000I125000J0D01*
G01*
X129375000Y-71330000D01*
G75*
G02*
X129500000Y-71455000I0J-125000D01*
G01*
X129500000Y-71765000D01*
G75*
G02*
X129375000Y-71890000I-125000J0D01*
G01*
G37*
%TD*%
%TO.C,R35*%
G36*
G01*
X129375000Y-58670000D02*
X129125000Y-58670000D01*
G75*
G02*
X129000000Y-58545000I0J125000D01*
G01*
X129000000Y-58235000D01*
G75*
G02*
X129125000Y-58110000I125000J0D01*
G01*
X129375000Y-58110000D01*
G75*
G02*
X129500000Y-58235000I0J-125000D01*
G01*
X129500000Y-58545000D01*
G75*
G02*
X129375000Y-58670000I-125000J0D01*
G01*
G37*
G36*
G01*
X129375000Y-59310000D02*
X129125000Y-59310000D01*
G75*
G02*
X129000000Y-59185000I0J125000D01*
G01*
X129000000Y-58875000D01*
G75*
G02*
X129125000Y-58750000I125000J0D01*
G01*
X129375000Y-58750000D01*
G75*
G02*
X129500000Y-58875000I0J-125000D01*
G01*
X129500000Y-59185000D01*
G75*
G02*
X129375000Y-59310000I-125000J0D01*
G01*
G37*
%TD*%
%TO.C,R36*%
G36*
G01*
X142481250Y-53600000D02*
X141518750Y-53600000D01*
G75*
G02*
X141250000Y-53331250I0J268750D01*
G01*
X141250000Y-52793750D01*
G75*
G02*
X141518750Y-52525000I268750J0D01*
G01*
X142481250Y-52525000D01*
G75*
G02*
X142750000Y-52793750I0J-268750D01*
G01*
X142750000Y-53331250D01*
G75*
G02*
X142481250Y-53600000I-268750J0D01*
G01*
G37*
G36*
G01*
X142481250Y-55475000D02*
X141518750Y-55475000D01*
G75*
G02*
X141250000Y-55206250I0J268750D01*
G01*
X141250000Y-54668750D01*
G75*
G02*
X141518750Y-54400000I268750J0D01*
G01*
X142481250Y-54400000D01*
G75*
G02*
X142750000Y-54668750I0J-268750D01*
G01*
X142750000Y-55206250D01*
G75*
G02*
X142481250Y-55475000I-268750J0D01*
G01*
G37*
%TD*%
%TO.C,R39*%
G36*
G01*
X112825000Y-84860000D02*
X112575000Y-84860000D01*
G75*
G02*
X112450000Y-84735000I0J125000D01*
G01*
X112450000Y-84425000D01*
G75*
G02*
X112575000Y-84300000I125000J0D01*
G01*
X112825000Y-84300000D01*
G75*
G02*
X112950000Y-84425000I0J-125000D01*
G01*
X112950000Y-84735000D01*
G75*
G02*
X112825000Y-84860000I-125000J0D01*
G01*
G37*
G36*
G01*
X112825000Y-85500000D02*
X112575000Y-85500000D01*
G75*
G02*
X112450000Y-85375000I0J125000D01*
G01*
X112450000Y-85065000D01*
G75*
G02*
X112575000Y-84940000I125000J0D01*
G01*
X112825000Y-84940000D01*
G75*
G02*
X112950000Y-85065000I0J-125000D01*
G01*
X112950000Y-85375000D01*
G75*
G02*
X112825000Y-85500000I-125000J0D01*
G01*
G37*
%TD*%
%TO.C,R40*%
G36*
G01*
X112575000Y-85852001D02*
X112825000Y-85852001D01*
G75*
G02*
X112950000Y-85977001I0J-125000D01*
G01*
X112950000Y-86287001D01*
G75*
G02*
X112825000Y-86412001I-125000J0D01*
G01*
X112575000Y-86412001D01*
G75*
G02*
X112450000Y-86287001I0J125000D01*
G01*
X112450000Y-85977001D01*
G75*
G02*
X112575000Y-85852001I125000J0D01*
G01*
G37*
G36*
G01*
X112575000Y-86492001D02*
X112825000Y-86492001D01*
G75*
G02*
X112950000Y-86617001I0J-125000D01*
G01*
X112950000Y-86927001D01*
G75*
G02*
X112825000Y-87052001I-125000J0D01*
G01*
X112575000Y-87052001D01*
G75*
G02*
X112450000Y-86927001I0J125000D01*
G01*
X112450000Y-86617001D01*
G75*
G02*
X112575000Y-86492001I125000J0D01*
G01*
G37*
%TD*%
%TO.C,R47*%
G36*
G01*
X137425000Y-85960000D02*
X137175000Y-85960000D01*
G75*
G02*
X137050000Y-85835000I0J125000D01*
G01*
X137050000Y-85525000D01*
G75*
G02*
X137175000Y-85400000I125000J0D01*
G01*
X137425000Y-85400000D01*
G75*
G02*
X137550000Y-85525000I0J-125000D01*
G01*
X137550000Y-85835000D01*
G75*
G02*
X137425000Y-85960000I-125000J0D01*
G01*
G37*
G36*
G01*
X137425000Y-86600000D02*
X137175000Y-86600000D01*
G75*
G02*
X137050000Y-86475000I0J125000D01*
G01*
X137050000Y-86165000D01*
G75*
G02*
X137175000Y-86040000I125000J0D01*
G01*
X137425000Y-86040000D01*
G75*
G02*
X137550000Y-86165000I0J-125000D01*
G01*
X137550000Y-86475000D01*
G75*
G02*
X137425000Y-86600000I-125000J0D01*
G01*
G37*
%TD*%
%TO.C,R48*%
G36*
G01*
X138840000Y-84925000D02*
X138840000Y-84675000D01*
G75*
G02*
X138965000Y-84550000I125000J0D01*
G01*
X139275000Y-84550000D01*
G75*
G02*
X139400000Y-84675000I0J-125000D01*
G01*
X139400000Y-84925000D01*
G75*
G02*
X139275000Y-85050000I-125000J0D01*
G01*
X138965000Y-85050000D01*
G75*
G02*
X138840000Y-84925000I0J125000D01*
G01*
G37*
G36*
G01*
X138200000Y-84925000D02*
X138200000Y-84675000D01*
G75*
G02*
X138325000Y-84550000I125000J0D01*
G01*
X138635000Y-84550000D01*
G75*
G02*
X138760000Y-84675000I0J-125000D01*
G01*
X138760000Y-84925000D01*
G75*
G02*
X138635000Y-85050000I-125000J0D01*
G01*
X138325000Y-85050000D01*
G75*
G02*
X138200000Y-84925000I0J125000D01*
G01*
G37*
%TD*%
D29*
%TO.C,SW1*%
X138750000Y-53000000D03*
X135350000Y-53000000D03*
%TD*%
D30*
%TO.C,U1*%
X128250000Y-83730000D03*
X126350000Y-83730000D03*
X126350000Y-85930000D03*
X127300000Y-85930000D03*
X128250000Y-85930000D03*
%TD*%
D31*
%TO.C,U4*%
X117000000Y-53000000D03*
D32*
X116250000Y-54450000D03*
X116750000Y-54450000D03*
X117250000Y-54450000D03*
X117750000Y-54450000D03*
X117750000Y-51550000D03*
X117250000Y-51550000D03*
X116750000Y-51550000D03*
X116250000Y-51550000D03*
%TD*%
D17*
%TO.C,U6*%
X125000000Y-55000000D03*
D16*
X127450000Y-56750000D03*
X127450000Y-56250000D03*
X127450000Y-55750000D03*
X127450000Y-55250000D03*
X127450000Y-54750000D03*
X127450000Y-54250000D03*
X127450000Y-53750000D03*
X127450000Y-53250000D03*
D15*
X126750000Y-52550000D03*
X126250000Y-52550000D03*
X125750000Y-52550000D03*
X125250000Y-52550000D03*
X124750000Y-52550000D03*
X124250000Y-52550000D03*
X123750000Y-52550000D03*
X123250000Y-52550000D03*
D16*
X122550000Y-53250000D03*
X122550000Y-53750000D03*
X122550000Y-54250000D03*
X122550000Y-54750000D03*
X122550000Y-55250000D03*
X122550000Y-55750000D03*
X122550000Y-56250000D03*
X122550000Y-56750000D03*
D15*
X123250000Y-57450000D03*
X123750000Y-57450000D03*
X124250000Y-57450000D03*
X124750000Y-57450000D03*
X125250000Y-57450000D03*
X125750000Y-57450000D03*
X126250000Y-57450000D03*
X126750000Y-57450000D03*
%TD*%
D12*
%TO.C,U14*%
X140000000Y-87500000D03*
D10*
X138999999Y-89250200D03*
X139400001Y-89250200D03*
X139800000Y-89250200D03*
X140200000Y-89250200D03*
X140599999Y-89250200D03*
X141000001Y-89250200D03*
D11*
X141750200Y-88500001D03*
X141750200Y-88099999D03*
X141750200Y-87700000D03*
X141750200Y-87300000D03*
X141750200Y-86900001D03*
X141750200Y-86499999D03*
D10*
X141000001Y-85749800D03*
X140599999Y-85749800D03*
X140200000Y-85749800D03*
X139800000Y-85749800D03*
X139400001Y-85749800D03*
X138999999Y-85749800D03*
D11*
X138249800Y-86499999D03*
X138249800Y-86900001D03*
X138249800Y-87300000D03*
X138249800Y-87700000D03*
X138249800Y-88099999D03*
X138249800Y-88500001D03*
%TD*%
%TO.C,J8*%
G36*
G01*
X102200000Y-76600000D02*
X103200000Y-76600000D01*
G75*
G02*
X103450000Y-76850000I0J-250000D01*
G01*
X103450000Y-77350000D01*
G75*
G02*
X103200000Y-77600000I-250000J0D01*
G01*
X102200000Y-77600000D01*
G75*
G02*
X101950000Y-77350000I0J250000D01*
G01*
X101950000Y-76850000D01*
G75*
G02*
X102200000Y-76600000I250000J0D01*
G01*
G37*
D28*
X102700000Y-78350000D03*
X102700000Y-79600000D03*
X102700000Y-80850000D03*
X102700000Y-82100000D03*
X102700000Y-83350000D03*
%TD*%
%TO.C,J11*%
X147300000Y-77100000D03*
X147300000Y-78350000D03*
X147300000Y-79600000D03*
X147300000Y-80850000D03*
X147300000Y-82100000D03*
G36*
G01*
X147800000Y-83850000D02*
X146800000Y-83850000D01*
G75*
G02*
X146550000Y-83600000I0J250000D01*
G01*
X146550000Y-83100000D01*
G75*
G02*
X146800000Y-82850000I250000J0D01*
G01*
X147800000Y-82850000D01*
G75*
G02*
X148050000Y-83100000I0J-250000D01*
G01*
X148050000Y-83600000D01*
G75*
G02*
X147800000Y-83850000I-250000J0D01*
G01*
G37*
%TD*%
%TO.C,C16*%
G36*
G01*
X125025000Y-60977500D02*
X125025000Y-61372500D01*
G75*
G02*
X124852500Y-61545000I-172500J0D01*
G01*
X124507500Y-61545000D01*
G75*
G02*
X124335000Y-61372500I0J172500D01*
G01*
X124335000Y-60977500D01*
G75*
G02*
X124507500Y-60805000I172500J0D01*
G01*
X124852500Y-60805000D01*
G75*
G02*
X125025000Y-60977500I0J-172500D01*
G01*
G37*
G36*
G01*
X125995000Y-60977500D02*
X125995000Y-61372500D01*
G75*
G02*
X125822500Y-61545000I-172500J0D01*
G01*
X125477500Y-61545000D01*
G75*
G02*
X125305000Y-61372500I0J172500D01*
G01*
X125305000Y-60977500D01*
G75*
G02*
X125477500Y-60805000I172500J0D01*
G01*
X125822500Y-60805000D01*
G75*
G02*
X125995000Y-60977500I0J-172500D01*
G01*
G37*
%TD*%
%TO.C,C20*%
G36*
G01*
X119727500Y-51925000D02*
X119332500Y-51925000D01*
G75*
G02*
X119160000Y-51752500I0J172500D01*
G01*
X119160000Y-51407500D01*
G75*
G02*
X119332500Y-51235000I172500J0D01*
G01*
X119727500Y-51235000D01*
G75*
G02*
X119900000Y-51407500I0J-172500D01*
G01*
X119900000Y-51752500D01*
G75*
G02*
X119727500Y-51925000I-172500J0D01*
G01*
G37*
G36*
G01*
X119727500Y-52895000D02*
X119332500Y-52895000D01*
G75*
G02*
X119160000Y-52722500I0J172500D01*
G01*
X119160000Y-52377500D01*
G75*
G02*
X119332500Y-52205000I172500J0D01*
G01*
X119727500Y-52205000D01*
G75*
G02*
X119900000Y-52377500I0J-172500D01*
G01*
X119900000Y-52722500D01*
G75*
G02*
X119727500Y-52895000I-172500J0D01*
G01*
G37*
%TD*%
%TO.C,C29*%
G36*
G01*
X124005000Y-69022500D02*
X124005000Y-68627500D01*
G75*
G02*
X124177500Y-68455000I172500J0D01*
G01*
X124522500Y-68455000D01*
G75*
G02*
X124695000Y-68627500I0J-172500D01*
G01*
X124695000Y-69022500D01*
G75*
G02*
X124522500Y-69195000I-172500J0D01*
G01*
X124177500Y-69195000D01*
G75*
G02*
X124005000Y-69022500I0J172500D01*
G01*
G37*
G36*
G01*
X124975000Y-69022500D02*
X124975000Y-68627500D01*
G75*
G02*
X125147500Y-68455000I172500J0D01*
G01*
X125492500Y-68455000D01*
G75*
G02*
X125665000Y-68627500I0J-172500D01*
G01*
X125665000Y-69022500D01*
G75*
G02*
X125492500Y-69195000I-172500J0D01*
G01*
X125147500Y-69195000D01*
G75*
G02*
X124975000Y-69022500I0J172500D01*
G01*
G37*
%TD*%
%TO.C,C33*%
G36*
G01*
X130272500Y-77110000D02*
X130667500Y-77110000D01*
G75*
G02*
X130840000Y-77282500I0J-172500D01*
G01*
X130840000Y-77627500D01*
G75*
G02*
X130667500Y-77800000I-172500J0D01*
G01*
X130272500Y-77800000D01*
G75*
G02*
X130100000Y-77627500I0J172500D01*
G01*
X130100000Y-77282500D01*
G75*
G02*
X130272500Y-77110000I172500J0D01*
G01*
G37*
G36*
G01*
X130272500Y-78080000D02*
X130667500Y-78080000D01*
G75*
G02*
X130840000Y-78252500I0J-172500D01*
G01*
X130840000Y-78597500D01*
G75*
G02*
X130667500Y-78770000I-172500J0D01*
G01*
X130272500Y-78770000D01*
G75*
G02*
X130100000Y-78597500I0J172500D01*
G01*
X130100000Y-78252500D01*
G75*
G02*
X130272500Y-78080000I172500J0D01*
G01*
G37*
%TD*%
D33*
%TO.C,JP3*%
X135270000Y-85000000D03*
X134000000Y-83730000D03*
X134000000Y-85000000D03*
X134000000Y-86270000D03*
%TD*%
%TO.C,JP7*%
X116000000Y-83730000D03*
X116000000Y-85000000D03*
X116000000Y-86270000D03*
X114730000Y-85000000D03*
%TD*%
M02*
