%TF.GenerationSoftware,KiCad,Pcbnew,(5.1.6)-1*%
%TF.CreationDate,2021-04-13T10:59:24+02:00*%
%TF.ProjectId,EcatExBrd,45636174-4578-4427-9264-2e6b69636164,1.0*%
%TF.SameCoordinates,Original*%
%TF.FileFunction,Soldermask,Top*%
%TF.FilePolarity,Negative*%
%FSLAX46Y46*%
G04 Gerber Fmt 4.6, Leading zero omitted, Abs format (unit mm)*
G04 Created by KiCad (PCBNEW (5.1.6)-1) date 2021-04-13 10:59:24*
%MOMM*%
%LPD*%
G01*
G04 APERTURE LIST*
%ADD10R,0.560000X0.500000*%
%ADD11R,0.500000X0.560000*%
%ADD12R,3.200000X3.200000*%
%ADD13O,0.900000X0.700000*%
%ADD14C,0.900000*%
%ADD15C,0.500000*%
%ADD16C,3.100000*%
%ADD17C,1.700000*%
%ADD18R,0.500000X0.350000*%
%ADD19R,0.550000X0.350000*%
%ADD20R,0.350000X0.500000*%
%ADD21R,0.350000X0.550000*%
%ADD22R,0.600000X0.300000*%
%ADD23C,2.300000*%
%ADD24O,1.100000X1.500000*%
%ADD25O,1.000000X1.500000*%
%ADD26O,1.500000X1.000000*%
%ADD27R,2.487600X1.700200*%
%ADD28R,0.405600X0.806399*%
%ADD29R,0.300000X0.380000*%
%ADD30R,0.380000X0.300000*%
%ADD31C,1.100000*%
G04 APERTURE END LIST*
D10*
%TO.C,JP1*%
X126890000Y-87500000D03*
X126250000Y-87500000D03*
X125610000Y-87500000D03*
%TD*%
%TO.C,JP2*%
X108390000Y-96000000D03*
X107750000Y-96000000D03*
X107110000Y-96000000D03*
%TD*%
D11*
%TO.C,JP4*%
X104000000Y-89140000D03*
X104000000Y-88500000D03*
X104000000Y-87860000D03*
%TD*%
%TO.C,JP5*%
X104000000Y-78990000D03*
X104000000Y-78350000D03*
X104000000Y-77710000D03*
%TD*%
D10*
%TO.C,JP6*%
X141640000Y-96000000D03*
X141000000Y-96000000D03*
X140360000Y-96000000D03*
%TD*%
D11*
%TO.C,JP8*%
X146000000Y-91610000D03*
X146000000Y-92250000D03*
X146000000Y-92890000D03*
%TD*%
%TO.C,JP9*%
X146000000Y-81460000D03*
X146000000Y-82100000D03*
X146000000Y-82740000D03*
%TD*%
%TO.C,C35*%
G36*
G01*
X111595000Y-93566200D02*
X111845000Y-93566200D01*
G75*
G02*
X111970000Y-93691200I0J-125000D01*
G01*
X111970000Y-94001200D01*
G75*
G02*
X111845000Y-94126200I-125000J0D01*
G01*
X111595000Y-94126200D01*
G75*
G02*
X111470000Y-94001200I0J125000D01*
G01*
X111470000Y-93691200D01*
G75*
G02*
X111595000Y-93566200I125000J0D01*
G01*
G37*
G36*
G01*
X111595000Y-92926200D02*
X111845000Y-92926200D01*
G75*
G02*
X111970000Y-93051200I0J-125000D01*
G01*
X111970000Y-93361200D01*
G75*
G02*
X111845000Y-93486200I-125000J0D01*
G01*
X111595000Y-93486200D01*
G75*
G02*
X111470000Y-93361200I0J125000D01*
G01*
X111470000Y-93051200D01*
G75*
G02*
X111595000Y-92926200I125000J0D01*
G01*
G37*
%TD*%
%TO.C,U3*%
G36*
G01*
X126825000Y-71575000D02*
X127075000Y-71575000D01*
G75*
G02*
X127200000Y-71700000I0J-125000D01*
G01*
X127200000Y-73025000D01*
G75*
G02*
X127075000Y-73150000I-125000J0D01*
G01*
X126825000Y-73150000D01*
G75*
G02*
X126700000Y-73025000I0J125000D01*
G01*
X126700000Y-71700000D01*
G75*
G02*
X126825000Y-71575000I125000J0D01*
G01*
G37*
G36*
G01*
X126175000Y-71575000D02*
X126425000Y-71575000D01*
G75*
G02*
X126550000Y-71700000I0J-125000D01*
G01*
X126550000Y-73025000D01*
G75*
G02*
X126425000Y-73150000I-125000J0D01*
G01*
X126175000Y-73150000D01*
G75*
G02*
X126050000Y-73025000I0J125000D01*
G01*
X126050000Y-71700000D01*
G75*
G02*
X126175000Y-71575000I125000J0D01*
G01*
G37*
G36*
G01*
X125525000Y-71575000D02*
X125775000Y-71575000D01*
G75*
G02*
X125900000Y-71700000I0J-125000D01*
G01*
X125900000Y-73025000D01*
G75*
G02*
X125775000Y-73150000I-125000J0D01*
G01*
X125525000Y-73150000D01*
G75*
G02*
X125400000Y-73025000I0J125000D01*
G01*
X125400000Y-71700000D01*
G75*
G02*
X125525000Y-71575000I125000J0D01*
G01*
G37*
G36*
G01*
X124875000Y-71575000D02*
X125125000Y-71575000D01*
G75*
G02*
X125250000Y-71700000I0J-125000D01*
G01*
X125250000Y-73025000D01*
G75*
G02*
X125125000Y-73150000I-125000J0D01*
G01*
X124875000Y-73150000D01*
G75*
G02*
X124750000Y-73025000I0J125000D01*
G01*
X124750000Y-71700000D01*
G75*
G02*
X124875000Y-71575000I125000J0D01*
G01*
G37*
G36*
G01*
X124225000Y-71575000D02*
X124475000Y-71575000D01*
G75*
G02*
X124600000Y-71700000I0J-125000D01*
G01*
X124600000Y-73025000D01*
G75*
G02*
X124475000Y-73150000I-125000J0D01*
G01*
X124225000Y-73150000D01*
G75*
G02*
X124100000Y-73025000I0J125000D01*
G01*
X124100000Y-71700000D01*
G75*
G02*
X124225000Y-71575000I125000J0D01*
G01*
G37*
G36*
G01*
X123575000Y-71575000D02*
X123825000Y-71575000D01*
G75*
G02*
X123950000Y-71700000I0J-125000D01*
G01*
X123950000Y-73025000D01*
G75*
G02*
X123825000Y-73150000I-125000J0D01*
G01*
X123575000Y-73150000D01*
G75*
G02*
X123450000Y-73025000I0J125000D01*
G01*
X123450000Y-71700000D01*
G75*
G02*
X123575000Y-71575000I125000J0D01*
G01*
G37*
G36*
G01*
X122925000Y-71575000D02*
X123175000Y-71575000D01*
G75*
G02*
X123300000Y-71700000I0J-125000D01*
G01*
X123300000Y-73025000D01*
G75*
G02*
X123175000Y-73150000I-125000J0D01*
G01*
X122925000Y-73150000D01*
G75*
G02*
X122800000Y-73025000I0J125000D01*
G01*
X122800000Y-71700000D01*
G75*
G02*
X122925000Y-71575000I125000J0D01*
G01*
G37*
G36*
G01*
X122925000Y-65850000D02*
X123175000Y-65850000D01*
G75*
G02*
X123300000Y-65975000I0J-125000D01*
G01*
X123300000Y-67300000D01*
G75*
G02*
X123175000Y-67425000I-125000J0D01*
G01*
X122925000Y-67425000D01*
G75*
G02*
X122800000Y-67300000I0J125000D01*
G01*
X122800000Y-65975000D01*
G75*
G02*
X122925000Y-65850000I125000J0D01*
G01*
G37*
G36*
G01*
X123575000Y-65850000D02*
X123825000Y-65850000D01*
G75*
G02*
X123950000Y-65975000I0J-125000D01*
G01*
X123950000Y-67300000D01*
G75*
G02*
X123825000Y-67425000I-125000J0D01*
G01*
X123575000Y-67425000D01*
G75*
G02*
X123450000Y-67300000I0J125000D01*
G01*
X123450000Y-65975000D01*
G75*
G02*
X123575000Y-65850000I125000J0D01*
G01*
G37*
G36*
G01*
X124225000Y-65850000D02*
X124475000Y-65850000D01*
G75*
G02*
X124600000Y-65975000I0J-125000D01*
G01*
X124600000Y-67300000D01*
G75*
G02*
X124475000Y-67425000I-125000J0D01*
G01*
X124225000Y-67425000D01*
G75*
G02*
X124100000Y-67300000I0J125000D01*
G01*
X124100000Y-65975000D01*
G75*
G02*
X124225000Y-65850000I125000J0D01*
G01*
G37*
G36*
G01*
X124875000Y-65850000D02*
X125125000Y-65850000D01*
G75*
G02*
X125250000Y-65975000I0J-125000D01*
G01*
X125250000Y-67300000D01*
G75*
G02*
X125125000Y-67425000I-125000J0D01*
G01*
X124875000Y-67425000D01*
G75*
G02*
X124750000Y-67300000I0J125000D01*
G01*
X124750000Y-65975000D01*
G75*
G02*
X124875000Y-65850000I125000J0D01*
G01*
G37*
G36*
G01*
X125525000Y-65850000D02*
X125775000Y-65850000D01*
G75*
G02*
X125900000Y-65975000I0J-125000D01*
G01*
X125900000Y-67300000D01*
G75*
G02*
X125775000Y-67425000I-125000J0D01*
G01*
X125525000Y-67425000D01*
G75*
G02*
X125400000Y-67300000I0J125000D01*
G01*
X125400000Y-65975000D01*
G75*
G02*
X125525000Y-65850000I125000J0D01*
G01*
G37*
G36*
G01*
X126175000Y-65850000D02*
X126425000Y-65850000D01*
G75*
G02*
X126550000Y-65975000I0J-125000D01*
G01*
X126550000Y-67300000D01*
G75*
G02*
X126425000Y-67425000I-125000J0D01*
G01*
X126175000Y-67425000D01*
G75*
G02*
X126050000Y-67300000I0J125000D01*
G01*
X126050000Y-65975000D01*
G75*
G02*
X126175000Y-65850000I125000J0D01*
G01*
G37*
G36*
G01*
X126825000Y-65850000D02*
X127075000Y-65850000D01*
G75*
G02*
X127200000Y-65975000I0J-125000D01*
G01*
X127200000Y-67300000D01*
G75*
G02*
X127075000Y-67425000I-125000J0D01*
G01*
X126825000Y-67425000D01*
G75*
G02*
X126700000Y-67300000I0J125000D01*
G01*
X126700000Y-65975000D01*
G75*
G02*
X126825000Y-65850000I125000J0D01*
G01*
G37*
%TD*%
D12*
%TO.C,U16*%
X140300000Y-78227500D03*
G36*
G01*
X138625000Y-76315000D02*
X138625000Y-75415000D01*
G75*
G02*
X138712500Y-75327500I87500J0D01*
G01*
X138887500Y-75327500D01*
G75*
G02*
X138975000Y-75415000I0J-87500D01*
G01*
X138975000Y-76315000D01*
G75*
G02*
X138887500Y-76402500I-87500J0D01*
G01*
X138712500Y-76402500D01*
G75*
G02*
X138625000Y-76315000I0J87500D01*
G01*
G37*
G36*
G01*
X139125000Y-76315000D02*
X139125000Y-75415000D01*
G75*
G02*
X139212500Y-75327500I87500J0D01*
G01*
X139387500Y-75327500D01*
G75*
G02*
X139475000Y-75415000I0J-87500D01*
G01*
X139475000Y-76315000D01*
G75*
G02*
X139387500Y-76402500I-87500J0D01*
G01*
X139212500Y-76402500D01*
G75*
G02*
X139125000Y-76315000I0J87500D01*
G01*
G37*
G36*
G01*
X139625000Y-76315000D02*
X139625000Y-75415000D01*
G75*
G02*
X139712500Y-75327500I87500J0D01*
G01*
X139887500Y-75327500D01*
G75*
G02*
X139975000Y-75415000I0J-87500D01*
G01*
X139975000Y-76315000D01*
G75*
G02*
X139887500Y-76402500I-87500J0D01*
G01*
X139712500Y-76402500D01*
G75*
G02*
X139625000Y-76315000I0J87500D01*
G01*
G37*
G36*
G01*
X140125000Y-76315000D02*
X140125000Y-75415000D01*
G75*
G02*
X140212500Y-75327500I87500J0D01*
G01*
X140387500Y-75327500D01*
G75*
G02*
X140475000Y-75415000I0J-87500D01*
G01*
X140475000Y-76315000D01*
G75*
G02*
X140387500Y-76402500I-87500J0D01*
G01*
X140212500Y-76402500D01*
G75*
G02*
X140125000Y-76315000I0J87500D01*
G01*
G37*
G36*
G01*
X140625000Y-76315000D02*
X140625000Y-75415000D01*
G75*
G02*
X140712500Y-75327500I87500J0D01*
G01*
X140887500Y-75327500D01*
G75*
G02*
X140975000Y-75415000I0J-87500D01*
G01*
X140975000Y-76315000D01*
G75*
G02*
X140887500Y-76402500I-87500J0D01*
G01*
X140712500Y-76402500D01*
G75*
G02*
X140625000Y-76315000I0J87500D01*
G01*
G37*
G36*
G01*
X141125000Y-76315000D02*
X141125000Y-75415000D01*
G75*
G02*
X141212500Y-75327500I87500J0D01*
G01*
X141387500Y-75327500D01*
G75*
G02*
X141475000Y-75415000I0J-87500D01*
G01*
X141475000Y-76315000D01*
G75*
G02*
X141387500Y-76402500I-87500J0D01*
G01*
X141212500Y-76402500D01*
G75*
G02*
X141125000Y-76315000I0J87500D01*
G01*
G37*
G36*
G01*
X141625000Y-76315000D02*
X141625000Y-75415000D01*
G75*
G02*
X141712500Y-75327500I87500J0D01*
G01*
X141887500Y-75327500D01*
G75*
G02*
X141975000Y-75415000I0J-87500D01*
G01*
X141975000Y-76315000D01*
G75*
G02*
X141887500Y-76402500I-87500J0D01*
G01*
X141712500Y-76402500D01*
G75*
G02*
X141625000Y-76315000I0J87500D01*
G01*
G37*
G36*
G01*
X142125000Y-76815000D02*
X142125000Y-76640000D01*
G75*
G02*
X142212500Y-76552500I87500J0D01*
G01*
X143112500Y-76552500D01*
G75*
G02*
X143200000Y-76640000I0J-87500D01*
G01*
X143200000Y-76815000D01*
G75*
G02*
X143112500Y-76902500I-87500J0D01*
G01*
X142212500Y-76902500D01*
G75*
G02*
X142125000Y-76815000I0J87500D01*
G01*
G37*
G36*
G01*
X142125000Y-77315000D02*
X142125000Y-77140000D01*
G75*
G02*
X142212500Y-77052500I87500J0D01*
G01*
X143112500Y-77052500D01*
G75*
G02*
X143200000Y-77140000I0J-87500D01*
G01*
X143200000Y-77315000D01*
G75*
G02*
X143112500Y-77402500I-87500J0D01*
G01*
X142212500Y-77402500D01*
G75*
G02*
X142125000Y-77315000I0J87500D01*
G01*
G37*
G36*
G01*
X142125000Y-77815000D02*
X142125000Y-77640000D01*
G75*
G02*
X142212500Y-77552500I87500J0D01*
G01*
X143112500Y-77552500D01*
G75*
G02*
X143200000Y-77640000I0J-87500D01*
G01*
X143200000Y-77815000D01*
G75*
G02*
X143112500Y-77902500I-87500J0D01*
G01*
X142212500Y-77902500D01*
G75*
G02*
X142125000Y-77815000I0J87500D01*
G01*
G37*
G36*
G01*
X142125000Y-78315000D02*
X142125000Y-78140000D01*
G75*
G02*
X142212500Y-78052500I87500J0D01*
G01*
X143112500Y-78052500D01*
G75*
G02*
X143200000Y-78140000I0J-87500D01*
G01*
X143200000Y-78315000D01*
G75*
G02*
X143112500Y-78402500I-87500J0D01*
G01*
X142212500Y-78402500D01*
G75*
G02*
X142125000Y-78315000I0J87500D01*
G01*
G37*
G36*
G01*
X142125000Y-78815000D02*
X142125000Y-78640000D01*
G75*
G02*
X142212500Y-78552500I87500J0D01*
G01*
X143112500Y-78552500D01*
G75*
G02*
X143200000Y-78640000I0J-87500D01*
G01*
X143200000Y-78815000D01*
G75*
G02*
X143112500Y-78902500I-87500J0D01*
G01*
X142212500Y-78902500D01*
G75*
G02*
X142125000Y-78815000I0J87500D01*
G01*
G37*
G36*
G01*
X142125000Y-79315000D02*
X142125000Y-79140000D01*
G75*
G02*
X142212500Y-79052500I87500J0D01*
G01*
X143112500Y-79052500D01*
G75*
G02*
X143200000Y-79140000I0J-87500D01*
G01*
X143200000Y-79315000D01*
G75*
G02*
X143112500Y-79402500I-87500J0D01*
G01*
X142212500Y-79402500D01*
G75*
G02*
X142125000Y-79315000I0J87500D01*
G01*
G37*
G36*
G01*
X142125000Y-79815000D02*
X142125000Y-79640000D01*
G75*
G02*
X142212500Y-79552500I87500J0D01*
G01*
X143112500Y-79552500D01*
G75*
G02*
X143200000Y-79640000I0J-87500D01*
G01*
X143200000Y-79815000D01*
G75*
G02*
X143112500Y-79902500I-87500J0D01*
G01*
X142212500Y-79902500D01*
G75*
G02*
X142125000Y-79815000I0J87500D01*
G01*
G37*
G36*
G01*
X141625000Y-81040000D02*
X141625000Y-80140000D01*
G75*
G02*
X141712500Y-80052500I87500J0D01*
G01*
X141887500Y-80052500D01*
G75*
G02*
X141975000Y-80140000I0J-87500D01*
G01*
X141975000Y-81040000D01*
G75*
G02*
X141887500Y-81127500I-87500J0D01*
G01*
X141712500Y-81127500D01*
G75*
G02*
X141625000Y-81040000I0J87500D01*
G01*
G37*
G36*
G01*
X141125000Y-81040000D02*
X141125000Y-80140000D01*
G75*
G02*
X141212500Y-80052500I87500J0D01*
G01*
X141387500Y-80052500D01*
G75*
G02*
X141475000Y-80140000I0J-87500D01*
G01*
X141475000Y-81040000D01*
G75*
G02*
X141387500Y-81127500I-87500J0D01*
G01*
X141212500Y-81127500D01*
G75*
G02*
X141125000Y-81040000I0J87500D01*
G01*
G37*
G36*
G01*
X140625000Y-81040000D02*
X140625000Y-80140000D01*
G75*
G02*
X140712500Y-80052500I87500J0D01*
G01*
X140887500Y-80052500D01*
G75*
G02*
X140975000Y-80140000I0J-87500D01*
G01*
X140975000Y-81040000D01*
G75*
G02*
X140887500Y-81127500I-87500J0D01*
G01*
X140712500Y-81127500D01*
G75*
G02*
X140625000Y-81040000I0J87500D01*
G01*
G37*
G36*
G01*
X140125000Y-81040000D02*
X140125000Y-80140000D01*
G75*
G02*
X140212500Y-80052500I87500J0D01*
G01*
X140387500Y-80052500D01*
G75*
G02*
X140475000Y-80140000I0J-87500D01*
G01*
X140475000Y-81040000D01*
G75*
G02*
X140387500Y-81127500I-87500J0D01*
G01*
X140212500Y-81127500D01*
G75*
G02*
X140125000Y-81040000I0J87500D01*
G01*
G37*
G36*
G01*
X139625000Y-81040000D02*
X139625000Y-80140000D01*
G75*
G02*
X139712500Y-80052500I87500J0D01*
G01*
X139887500Y-80052500D01*
G75*
G02*
X139975000Y-80140000I0J-87500D01*
G01*
X139975000Y-81040000D01*
G75*
G02*
X139887500Y-81127500I-87500J0D01*
G01*
X139712500Y-81127500D01*
G75*
G02*
X139625000Y-81040000I0J87500D01*
G01*
G37*
G36*
G01*
X139125000Y-81040000D02*
X139125000Y-80140000D01*
G75*
G02*
X139212500Y-80052500I87500J0D01*
G01*
X139387500Y-80052500D01*
G75*
G02*
X139475000Y-80140000I0J-87500D01*
G01*
X139475000Y-81040000D01*
G75*
G02*
X139387500Y-81127500I-87500J0D01*
G01*
X139212500Y-81127500D01*
G75*
G02*
X139125000Y-81040000I0J87500D01*
G01*
G37*
G36*
G01*
X138625000Y-81040000D02*
X138625000Y-80140000D01*
G75*
G02*
X138712500Y-80052500I87500J0D01*
G01*
X138887500Y-80052500D01*
G75*
G02*
X138975000Y-80140000I0J-87500D01*
G01*
X138975000Y-81040000D01*
G75*
G02*
X138887500Y-81127500I-87500J0D01*
G01*
X138712500Y-81127500D01*
G75*
G02*
X138625000Y-81040000I0J87500D01*
G01*
G37*
G36*
G01*
X137400000Y-79815000D02*
X137400000Y-79640000D01*
G75*
G02*
X137487500Y-79552500I87500J0D01*
G01*
X138387500Y-79552500D01*
G75*
G02*
X138475000Y-79640000I0J-87500D01*
G01*
X138475000Y-79815000D01*
G75*
G02*
X138387500Y-79902500I-87500J0D01*
G01*
X137487500Y-79902500D01*
G75*
G02*
X137400000Y-79815000I0J87500D01*
G01*
G37*
G36*
G01*
X137400000Y-79315000D02*
X137400000Y-79140000D01*
G75*
G02*
X137487500Y-79052500I87500J0D01*
G01*
X138387500Y-79052500D01*
G75*
G02*
X138475000Y-79140000I0J-87500D01*
G01*
X138475000Y-79315000D01*
G75*
G02*
X138387500Y-79402500I-87500J0D01*
G01*
X137487500Y-79402500D01*
G75*
G02*
X137400000Y-79315000I0J87500D01*
G01*
G37*
G36*
G01*
X137400000Y-78815000D02*
X137400000Y-78640000D01*
G75*
G02*
X137487500Y-78552500I87500J0D01*
G01*
X138387500Y-78552500D01*
G75*
G02*
X138475000Y-78640000I0J-87500D01*
G01*
X138475000Y-78815000D01*
G75*
G02*
X138387500Y-78902500I-87500J0D01*
G01*
X137487500Y-78902500D01*
G75*
G02*
X137400000Y-78815000I0J87500D01*
G01*
G37*
G36*
G01*
X137400000Y-78315000D02*
X137400000Y-78140000D01*
G75*
G02*
X137487500Y-78052500I87500J0D01*
G01*
X138387500Y-78052500D01*
G75*
G02*
X138475000Y-78140000I0J-87500D01*
G01*
X138475000Y-78315000D01*
G75*
G02*
X138387500Y-78402500I-87500J0D01*
G01*
X137487500Y-78402500D01*
G75*
G02*
X137400000Y-78315000I0J87500D01*
G01*
G37*
G36*
G01*
X137400000Y-77815000D02*
X137400000Y-77640000D01*
G75*
G02*
X137487500Y-77552500I87500J0D01*
G01*
X138387500Y-77552500D01*
G75*
G02*
X138475000Y-77640000I0J-87500D01*
G01*
X138475000Y-77815000D01*
G75*
G02*
X138387500Y-77902500I-87500J0D01*
G01*
X137487500Y-77902500D01*
G75*
G02*
X137400000Y-77815000I0J87500D01*
G01*
G37*
G36*
G01*
X137400000Y-77315000D02*
X137400000Y-77140000D01*
G75*
G02*
X137487500Y-77052500I87500J0D01*
G01*
X138387500Y-77052500D01*
G75*
G02*
X138475000Y-77140000I0J-87500D01*
G01*
X138475000Y-77315000D01*
G75*
G02*
X138387500Y-77402500I-87500J0D01*
G01*
X137487500Y-77402500D01*
G75*
G02*
X137400000Y-77315000I0J87500D01*
G01*
G37*
G36*
G01*
X137400000Y-76815000D02*
X137400000Y-76640000D01*
G75*
G02*
X137487500Y-76552500I87500J0D01*
G01*
X138387500Y-76552500D01*
G75*
G02*
X138475000Y-76640000I0J-87500D01*
G01*
X138475000Y-76815000D01*
G75*
G02*
X138387500Y-76902500I-87500J0D01*
G01*
X137487500Y-76902500D01*
G75*
G02*
X137400000Y-76815000I0J87500D01*
G01*
G37*
%TD*%
D13*
%TO.C,J2*%
X135730000Y-69260000D03*
D14*
X137000000Y-60740000D03*
D15*
X138750000Y-67857500D03*
X138750000Y-67222500D03*
X138750000Y-66587500D03*
X138750000Y-65952500D03*
X138750000Y-65317500D03*
X138750000Y-64682500D03*
X138750000Y-64047500D03*
X138750000Y-63412500D03*
X138750000Y-62777500D03*
X138750000Y-62142500D03*
X137790000Y-67857500D03*
X137790000Y-67222500D03*
X137790000Y-66587500D03*
X137790000Y-65952500D03*
X137790000Y-65317500D03*
X137790000Y-64682500D03*
X137790000Y-64047500D03*
X137790000Y-63412500D03*
X137790000Y-62777500D03*
X137790000Y-62142500D03*
X136210000Y-67857500D03*
X136210000Y-67222500D03*
X136210000Y-66587500D03*
X136210000Y-65952500D03*
X136210000Y-65317500D03*
X136210000Y-64682500D03*
X136210000Y-64047500D03*
X136210000Y-63412500D03*
X136210000Y-62777500D03*
X136210000Y-62142500D03*
X135250000Y-67857500D03*
X135250000Y-67222500D03*
X135250000Y-66587500D03*
X135250000Y-65952500D03*
X135250000Y-65317500D03*
X135250000Y-64682500D03*
X135250000Y-64047500D03*
X135250000Y-63412500D03*
X135250000Y-62142500D03*
X135250000Y-62777500D03*
%TD*%
%TO.C,R27*%
G36*
G01*
X123525000Y-64760000D02*
X123275000Y-64760000D01*
G75*
G02*
X123150000Y-64635000I0J125000D01*
G01*
X123150000Y-64325000D01*
G75*
G02*
X123275000Y-64200000I125000J0D01*
G01*
X123525000Y-64200000D01*
G75*
G02*
X123650000Y-64325000I0J-125000D01*
G01*
X123650000Y-64635000D01*
G75*
G02*
X123525000Y-64760000I-125000J0D01*
G01*
G37*
G36*
G01*
X123525000Y-65400000D02*
X123275000Y-65400000D01*
G75*
G02*
X123150000Y-65275000I0J125000D01*
G01*
X123150000Y-64965000D01*
G75*
G02*
X123275000Y-64840000I125000J0D01*
G01*
X123525000Y-64840000D01*
G75*
G02*
X123650000Y-64965000I0J-125000D01*
G01*
X123650000Y-65275000D01*
G75*
G02*
X123525000Y-65400000I-125000J0D01*
G01*
G37*
%TD*%
D16*
%TO.C,J5*%
X147000000Y-72870000D03*
D17*
X147000000Y-70000000D03*
X147000000Y-60000000D03*
D16*
X147000000Y-57130000D03*
%TD*%
%TO.C,J4*%
X103000000Y-57130000D03*
D17*
X103000000Y-60000000D03*
X103000000Y-70000000D03*
D16*
X103000000Y-72870000D03*
%TD*%
D18*
%TO.C,U17*%
X106850000Y-90625000D03*
X106850000Y-91125000D03*
X106850000Y-91625000D03*
X106150000Y-91625000D03*
X106150000Y-91125000D03*
D19*
X106175000Y-90625000D03*
%TD*%
D18*
%TO.C,U18*%
X114400000Y-81500000D03*
X114400000Y-82000000D03*
X114400000Y-82500000D03*
X113700000Y-82500000D03*
X113700000Y-82000000D03*
D19*
X113725000Y-81500000D03*
%TD*%
D20*
%TO.C,U19*%
X142500000Y-87900000D03*
X143000000Y-87900000D03*
X143500000Y-87900000D03*
X143500000Y-88600000D03*
X143000000Y-88600000D03*
D21*
X142500000Y-88575000D03*
%TD*%
D18*
%TO.C,U20*%
X135800000Y-77727500D03*
X135800000Y-77227500D03*
X135800000Y-76727500D03*
X136500000Y-76727500D03*
X136500000Y-77227500D03*
D19*
X136475000Y-77727500D03*
%TD*%
%TO.C,C5*%
G36*
G01*
X122690000Y-74175000D02*
X122690000Y-74425000D01*
G75*
G02*
X122565000Y-74550000I-125000J0D01*
G01*
X122255000Y-74550000D01*
G75*
G02*
X122130000Y-74425000I0J125000D01*
G01*
X122130000Y-74175000D01*
G75*
G02*
X122255000Y-74050000I125000J0D01*
G01*
X122565000Y-74050000D01*
G75*
G02*
X122690000Y-74175000I0J-125000D01*
G01*
G37*
G36*
G01*
X123330000Y-74175000D02*
X123330000Y-74425000D01*
G75*
G02*
X123205000Y-74550000I-125000J0D01*
G01*
X122895000Y-74550000D01*
G75*
G02*
X122770000Y-74425000I0J125000D01*
G01*
X122770000Y-74175000D01*
G75*
G02*
X122895000Y-74050000I125000J0D01*
G01*
X123205000Y-74050000D01*
G75*
G02*
X123330000Y-74175000I0J-125000D01*
G01*
G37*
%TD*%
%TO.C,C6*%
G36*
G01*
X124710000Y-64625000D02*
X124710000Y-64375000D01*
G75*
G02*
X124835000Y-64250000I125000J0D01*
G01*
X125145000Y-64250000D01*
G75*
G02*
X125270000Y-64375000I0J-125000D01*
G01*
X125270000Y-64625000D01*
G75*
G02*
X125145000Y-64750000I-125000J0D01*
G01*
X124835000Y-64750000D01*
G75*
G02*
X124710000Y-64625000I0J125000D01*
G01*
G37*
G36*
G01*
X124070000Y-64625000D02*
X124070000Y-64375000D01*
G75*
G02*
X124195000Y-64250000I125000J0D01*
G01*
X124505000Y-64250000D01*
G75*
G02*
X124630000Y-64375000I0J-125000D01*
G01*
X124630000Y-64625000D01*
G75*
G02*
X124505000Y-64750000I-125000J0D01*
G01*
X124195000Y-64750000D01*
G75*
G02*
X124070000Y-64625000I0J125000D01*
G01*
G37*
%TD*%
%TO.C,C40*%
G36*
G01*
X106570000Y-89855000D02*
X106570000Y-89605000D01*
G75*
G02*
X106695000Y-89480000I125000J0D01*
G01*
X107005000Y-89480000D01*
G75*
G02*
X107130000Y-89605000I0J-125000D01*
G01*
X107130000Y-89855000D01*
G75*
G02*
X107005000Y-89980000I-125000J0D01*
G01*
X106695000Y-89980000D01*
G75*
G02*
X106570000Y-89855000I0J125000D01*
G01*
G37*
G36*
G01*
X105930000Y-89855000D02*
X105930000Y-89605000D01*
G75*
G02*
X106055000Y-89480000I125000J0D01*
G01*
X106365000Y-89480000D01*
G75*
G02*
X106490000Y-89605000I0J-125000D01*
G01*
X106490000Y-89855000D01*
G75*
G02*
X106365000Y-89980000I-125000J0D01*
G01*
X106055000Y-89980000D01*
G75*
G02*
X105930000Y-89855000I0J125000D01*
G01*
G37*
%TD*%
%TO.C,C41*%
G36*
G01*
X109310000Y-77530000D02*
X109310000Y-77280000D01*
G75*
G02*
X109435000Y-77155000I125000J0D01*
G01*
X109745000Y-77155000D01*
G75*
G02*
X109870000Y-77280000I0J-125000D01*
G01*
X109870000Y-77530000D01*
G75*
G02*
X109745000Y-77655000I-125000J0D01*
G01*
X109435000Y-77655000D01*
G75*
G02*
X109310000Y-77530000I0J125000D01*
G01*
G37*
G36*
G01*
X108670000Y-77530000D02*
X108670000Y-77280000D01*
G75*
G02*
X108795000Y-77155000I125000J0D01*
G01*
X109105000Y-77155000D01*
G75*
G02*
X109230000Y-77280000I0J-125000D01*
G01*
X109230000Y-77530000D01*
G75*
G02*
X109105000Y-77655000I-125000J0D01*
G01*
X108795000Y-77655000D01*
G75*
G02*
X108670000Y-77530000I0J125000D01*
G01*
G37*
%TD*%
%TO.C,C42*%
G36*
G01*
X110860000Y-77530000D02*
X110860000Y-77280000D01*
G75*
G02*
X110985000Y-77155000I125000J0D01*
G01*
X111295000Y-77155000D01*
G75*
G02*
X111420000Y-77280000I0J-125000D01*
G01*
X111420000Y-77530000D01*
G75*
G02*
X111295000Y-77655000I-125000J0D01*
G01*
X110985000Y-77655000D01*
G75*
G02*
X110860000Y-77530000I0J125000D01*
G01*
G37*
G36*
G01*
X110220000Y-77530000D02*
X110220000Y-77280000D01*
G75*
G02*
X110345000Y-77155000I125000J0D01*
G01*
X110655000Y-77155000D01*
G75*
G02*
X110780000Y-77280000I0J-125000D01*
G01*
X110780000Y-77530000D01*
G75*
G02*
X110655000Y-77655000I-125000J0D01*
G01*
X110345000Y-77655000D01*
G75*
G02*
X110220000Y-77530000I0J125000D01*
G01*
G37*
%TD*%
%TO.C,C43*%
G36*
G01*
X144875000Y-93716200D02*
X145125000Y-93716200D01*
G75*
G02*
X145250000Y-93841200I0J-125000D01*
G01*
X145250000Y-94151200D01*
G75*
G02*
X145125000Y-94276200I-125000J0D01*
G01*
X144875000Y-94276200D01*
G75*
G02*
X144750000Y-94151200I0J125000D01*
G01*
X144750000Y-93841200D01*
G75*
G02*
X144875000Y-93716200I125000J0D01*
G01*
G37*
G36*
G01*
X144875000Y-93076200D02*
X145125000Y-93076200D01*
G75*
G02*
X145250000Y-93201200I0J-125000D01*
G01*
X145250000Y-93511200D01*
G75*
G02*
X145125000Y-93636200I-125000J0D01*
G01*
X144875000Y-93636200D01*
G75*
G02*
X144750000Y-93511200I0J125000D01*
G01*
X144750000Y-93201200D01*
G75*
G02*
X144875000Y-93076200I125000J0D01*
G01*
G37*
%TD*%
%TO.C,C48*%
G36*
G01*
X142375000Y-86640000D02*
X142625000Y-86640000D01*
G75*
G02*
X142750000Y-86765000I0J-125000D01*
G01*
X142750000Y-87075000D01*
G75*
G02*
X142625000Y-87200000I-125000J0D01*
G01*
X142375000Y-87200000D01*
G75*
G02*
X142250000Y-87075000I0J125000D01*
G01*
X142250000Y-86765000D01*
G75*
G02*
X142375000Y-86640000I125000J0D01*
G01*
G37*
G36*
G01*
X142375000Y-86000000D02*
X142625000Y-86000000D01*
G75*
G02*
X142750000Y-86125000I0J-125000D01*
G01*
X142750000Y-86435000D01*
G75*
G02*
X142625000Y-86560000I-125000J0D01*
G01*
X142375000Y-86560000D01*
G75*
G02*
X142250000Y-86435000I0J125000D01*
G01*
X142250000Y-86125000D01*
G75*
G02*
X142375000Y-86000000I125000J0D01*
G01*
G37*
%TD*%
%TO.C,C49*%
G36*
G01*
X141060000Y-81702500D02*
X141060000Y-81952500D01*
G75*
G02*
X140935000Y-82077500I-125000J0D01*
G01*
X140625000Y-82077500D01*
G75*
G02*
X140500000Y-81952500I0J125000D01*
G01*
X140500000Y-81702500D01*
G75*
G02*
X140625000Y-81577500I125000J0D01*
G01*
X140935000Y-81577500D01*
G75*
G02*
X141060000Y-81702500I0J-125000D01*
G01*
G37*
G36*
G01*
X141700000Y-81702500D02*
X141700000Y-81952500D01*
G75*
G02*
X141575000Y-82077500I-125000J0D01*
G01*
X141265000Y-82077500D01*
G75*
G02*
X141140000Y-81952500I0J125000D01*
G01*
X141140000Y-81702500D01*
G75*
G02*
X141265000Y-81577500I125000J0D01*
G01*
X141575000Y-81577500D01*
G75*
G02*
X141700000Y-81702500I0J-125000D01*
G01*
G37*
%TD*%
%TO.C,C50*%
G36*
G01*
X139440000Y-81702500D02*
X139440000Y-81952500D01*
G75*
G02*
X139315000Y-82077500I-125000J0D01*
G01*
X139005000Y-82077500D01*
G75*
G02*
X138880000Y-81952500I0J125000D01*
G01*
X138880000Y-81702500D01*
G75*
G02*
X139005000Y-81577500I125000J0D01*
G01*
X139315000Y-81577500D01*
G75*
G02*
X139440000Y-81702500I0J-125000D01*
G01*
G37*
G36*
G01*
X140080000Y-81702500D02*
X140080000Y-81952500D01*
G75*
G02*
X139955000Y-82077500I-125000J0D01*
G01*
X139645000Y-82077500D01*
G75*
G02*
X139520000Y-81952500I0J125000D01*
G01*
X139520000Y-81702500D01*
G75*
G02*
X139645000Y-81577500I125000J0D01*
G01*
X139955000Y-81577500D01*
G75*
G02*
X140080000Y-81702500I0J-125000D01*
G01*
G37*
%TD*%
D22*
%TO.C,D6*%
X104112500Y-91125000D03*
X104112500Y-91625000D03*
X104112500Y-90625000D03*
X104112500Y-92125000D03*
X104887500Y-90625000D03*
X104887500Y-91125000D03*
X104112500Y-92625000D03*
X104887500Y-91625000D03*
X104887500Y-92625000D03*
X104887500Y-92125000D03*
%TD*%
%TO.C,D11*%
X145887500Y-89625000D03*
X145887500Y-89125000D03*
X145887500Y-90125000D03*
X145887500Y-88625000D03*
X145112500Y-90125000D03*
X145112500Y-89625000D03*
X145887500Y-88125000D03*
X145112500Y-89125000D03*
X145112500Y-88125000D03*
X145112500Y-88625000D03*
%TD*%
%TO.C,FB1*%
G36*
G01*
X124837500Y-62518750D02*
X124837500Y-63081250D01*
G75*
G02*
X124593750Y-63325000I-243750J0D01*
G01*
X124106250Y-63325000D01*
G75*
G02*
X123862500Y-63081250I0J243750D01*
G01*
X123862500Y-62518750D01*
G75*
G02*
X124106250Y-62275000I243750J0D01*
G01*
X124593750Y-62275000D01*
G75*
G02*
X124837500Y-62518750I0J-243750D01*
G01*
G37*
G36*
G01*
X126412500Y-62518750D02*
X126412500Y-63081250D01*
G75*
G02*
X126168750Y-63325000I-243750J0D01*
G01*
X125681250Y-63325000D01*
G75*
G02*
X125437500Y-63081250I0J243750D01*
G01*
X125437500Y-62518750D01*
G75*
G02*
X125681250Y-62275000I243750J0D01*
G01*
X126168750Y-62275000D01*
G75*
G02*
X126412500Y-62518750I0J-243750D01*
G01*
G37*
%TD*%
D23*
%TO.C,H1*%
X102000000Y-98000000D03*
%TD*%
%TO.C,H2*%
X148000000Y-52000000D03*
%TD*%
%TO.C,H3*%
X102000000Y-52000000D03*
%TD*%
%TO.C,H4*%
X148000000Y-98000000D03*
%TD*%
D24*
%TO.C,J1*%
X126250000Y-88800000D03*
X125000000Y-88800000D03*
G36*
G01*
X123200000Y-89275000D02*
X123200000Y-88325000D01*
G75*
G02*
X123475000Y-88050000I275000J0D01*
G01*
X124025000Y-88050000D01*
G75*
G02*
X124300000Y-88325000I0J-275000D01*
G01*
X124300000Y-89275000D01*
G75*
G02*
X124025000Y-89550000I-275000J0D01*
G01*
X123475000Y-89550000D01*
G75*
G02*
X123200000Y-89275000I0J275000D01*
G01*
G37*
%TD*%
D13*
%TO.C,J3*%
X111730000Y-69260000D03*
D14*
X113000000Y-60740000D03*
D15*
X114750000Y-67857500D03*
X114750000Y-67222500D03*
X114750000Y-66587500D03*
X114750000Y-65952500D03*
X114750000Y-65317500D03*
X114750000Y-64682500D03*
X114750000Y-64047500D03*
X114750000Y-63412500D03*
X114750000Y-62777500D03*
X114750000Y-62142500D03*
X113790000Y-67857500D03*
X113790000Y-67222500D03*
X113790000Y-66587500D03*
X113790000Y-65952500D03*
X113790000Y-65317500D03*
X113790000Y-64682500D03*
X113790000Y-64047500D03*
X113790000Y-63412500D03*
X113790000Y-62777500D03*
X113790000Y-62142500D03*
X112210000Y-67857500D03*
X112210000Y-67222500D03*
X112210000Y-66587500D03*
X112210000Y-65952500D03*
X112210000Y-65317500D03*
X112210000Y-64682500D03*
X112210000Y-64047500D03*
X112210000Y-63412500D03*
X112210000Y-62777500D03*
X112210000Y-62142500D03*
X111250000Y-67857500D03*
X111250000Y-67222500D03*
X111250000Y-66587500D03*
X111250000Y-65952500D03*
X111250000Y-65317500D03*
X111250000Y-64682500D03*
X111250000Y-64047500D03*
X111250000Y-63412500D03*
X111250000Y-62142500D03*
X111250000Y-62777500D03*
%TD*%
D25*
%TO.C,J6*%
X110250000Y-97300000D03*
X109000000Y-97300000D03*
X107750000Y-97300000D03*
G36*
G01*
X106000000Y-97800000D02*
X106000000Y-96800000D01*
G75*
G02*
X106250000Y-96550000I250000J0D01*
G01*
X106750000Y-96550000D01*
G75*
G02*
X107000000Y-96800000I0J-250000D01*
G01*
X107000000Y-97800000D01*
G75*
G02*
X106750000Y-98050000I-250000J0D01*
G01*
X106250000Y-98050000D01*
G75*
G02*
X106000000Y-97800000I0J250000D01*
G01*
G37*
%TD*%
D26*
%TO.C,J7*%
X102700000Y-93500000D03*
X102700000Y-92250000D03*
X102700000Y-91000000D03*
X102700000Y-89750000D03*
X102700000Y-88500000D03*
G36*
G01*
X102200000Y-86750000D02*
X103200000Y-86750000D01*
G75*
G02*
X103450000Y-87000000I0J-250000D01*
G01*
X103450000Y-87500000D01*
G75*
G02*
X103200000Y-87750000I-250000J0D01*
G01*
X102200000Y-87750000D01*
G75*
G02*
X101950000Y-87500000I0J250000D01*
G01*
X101950000Y-87000000D01*
G75*
G02*
X102200000Y-86750000I250000J0D01*
G01*
G37*
%TD*%
D25*
%TO.C,J9*%
X143500000Y-97300000D03*
X142250000Y-97300000D03*
X141000000Y-97300000D03*
G36*
G01*
X139250000Y-97800000D02*
X139250000Y-96800000D01*
G75*
G02*
X139500000Y-96550000I250000J0D01*
G01*
X140000000Y-96550000D01*
G75*
G02*
X140250000Y-96800000I0J-250000D01*
G01*
X140250000Y-97800000D01*
G75*
G02*
X140000000Y-98050000I-250000J0D01*
G01*
X139500000Y-98050000D01*
G75*
G02*
X139250000Y-97800000I0J250000D01*
G01*
G37*
%TD*%
D26*
%TO.C,J10*%
X147300000Y-87250000D03*
X147300000Y-88500000D03*
X147300000Y-89750000D03*
X147300000Y-91000000D03*
X147300000Y-92250000D03*
G36*
G01*
X147800000Y-94000000D02*
X146800000Y-94000000D01*
G75*
G02*
X146550000Y-93750000I0J250000D01*
G01*
X146550000Y-93250000D01*
G75*
G02*
X146800000Y-93000000I250000J0D01*
G01*
X147800000Y-93000000D01*
G75*
G02*
X148050000Y-93250000I0J-250000D01*
G01*
X148050000Y-93750000D01*
G75*
G02*
X147800000Y-94000000I-250000J0D01*
G01*
G37*
%TD*%
%TO.C,R14*%
G36*
G01*
X126975000Y-64840000D02*
X127225000Y-64840000D01*
G75*
G02*
X127350000Y-64965000I0J-125000D01*
G01*
X127350000Y-65275000D01*
G75*
G02*
X127225000Y-65400000I-125000J0D01*
G01*
X126975000Y-65400000D01*
G75*
G02*
X126850000Y-65275000I0J125000D01*
G01*
X126850000Y-64965000D01*
G75*
G02*
X126975000Y-64840000I125000J0D01*
G01*
G37*
G36*
G01*
X126975000Y-64200000D02*
X127225000Y-64200000D01*
G75*
G02*
X127350000Y-64325000I0J-125000D01*
G01*
X127350000Y-64635000D01*
G75*
G02*
X127225000Y-64760000I-125000J0D01*
G01*
X126975000Y-64760000D01*
G75*
G02*
X126850000Y-64635000I0J125000D01*
G01*
X126850000Y-64325000D01*
G75*
G02*
X126975000Y-64200000I125000J0D01*
G01*
G37*
%TD*%
%TO.C,R15*%
G36*
G01*
X126175000Y-64840000D02*
X126425000Y-64840000D01*
G75*
G02*
X126550000Y-64965000I0J-125000D01*
G01*
X126550000Y-65275000D01*
G75*
G02*
X126425000Y-65400000I-125000J0D01*
G01*
X126175000Y-65400000D01*
G75*
G02*
X126050000Y-65275000I0J125000D01*
G01*
X126050000Y-64965000D01*
G75*
G02*
X126175000Y-64840000I125000J0D01*
G01*
G37*
G36*
G01*
X126175000Y-64200000D02*
X126425000Y-64200000D01*
G75*
G02*
X126550000Y-64325000I0J-125000D01*
G01*
X126550000Y-64635000D01*
G75*
G02*
X126425000Y-64760000I-125000J0D01*
G01*
X126175000Y-64760000D01*
G75*
G02*
X126050000Y-64635000I0J125000D01*
G01*
X126050000Y-64325000D01*
G75*
G02*
X126175000Y-64200000I125000J0D01*
G01*
G37*
%TD*%
%TO.C,R37*%
G36*
G01*
X128125000Y-70540000D02*
X128375000Y-70540000D01*
G75*
G02*
X128500000Y-70665000I0J-125000D01*
G01*
X128500000Y-70975000D01*
G75*
G02*
X128375000Y-71100000I-125000J0D01*
G01*
X128125000Y-71100000D01*
G75*
G02*
X128000000Y-70975000I0J125000D01*
G01*
X128000000Y-70665000D01*
G75*
G02*
X128125000Y-70540000I125000J0D01*
G01*
G37*
G36*
G01*
X128125000Y-69900000D02*
X128375000Y-69900000D01*
G75*
G02*
X128500000Y-70025000I0J-125000D01*
G01*
X128500000Y-70335000D01*
G75*
G02*
X128375000Y-70460000I-125000J0D01*
G01*
X128125000Y-70460000D01*
G75*
G02*
X128000000Y-70335000I0J125000D01*
G01*
X128000000Y-70025000D01*
G75*
G02*
X128125000Y-69900000I125000J0D01*
G01*
G37*
%TD*%
%TO.C,R38*%
G36*
G01*
X109665000Y-96125000D02*
X109665000Y-95875000D01*
G75*
G02*
X109790000Y-95750000I125000J0D01*
G01*
X110100000Y-95750000D01*
G75*
G02*
X110225000Y-95875000I0J-125000D01*
G01*
X110225000Y-96125000D01*
G75*
G02*
X110100000Y-96250000I-125000J0D01*
G01*
X109790000Y-96250000D01*
G75*
G02*
X109665000Y-96125000I0J125000D01*
G01*
G37*
G36*
G01*
X109025000Y-96125000D02*
X109025000Y-95875000D01*
G75*
G02*
X109150000Y-95750000I125000J0D01*
G01*
X109460000Y-95750000D01*
G75*
G02*
X109585000Y-95875000I0J-125000D01*
G01*
X109585000Y-96125000D01*
G75*
G02*
X109460000Y-96250000I-125000J0D01*
G01*
X109150000Y-96250000D01*
G75*
G02*
X109025000Y-96125000I0J125000D01*
G01*
G37*
%TD*%
%TO.C,R41*%
G36*
G01*
X122875000Y-76040000D02*
X123125000Y-76040000D01*
G75*
G02*
X123250000Y-76165000I0J-125000D01*
G01*
X123250000Y-76475000D01*
G75*
G02*
X123125000Y-76600000I-125000J0D01*
G01*
X122875000Y-76600000D01*
G75*
G02*
X122750000Y-76475000I0J125000D01*
G01*
X122750000Y-76165000D01*
G75*
G02*
X122875000Y-76040000I125000J0D01*
G01*
G37*
G36*
G01*
X122875000Y-75400000D02*
X123125000Y-75400000D01*
G75*
G02*
X123250000Y-75525000I0J-125000D01*
G01*
X123250000Y-75835000D01*
G75*
G02*
X123125000Y-75960000I-125000J0D01*
G01*
X122875000Y-75960000D01*
G75*
G02*
X122750000Y-75835000I0J125000D01*
G01*
X122750000Y-75525000D01*
G75*
G02*
X122875000Y-75400000I125000J0D01*
G01*
G37*
%TD*%
%TO.C,R42*%
G36*
G01*
X105375000Y-89340000D02*
X105125000Y-89340000D01*
G75*
G02*
X105000000Y-89215000I0J125000D01*
G01*
X105000000Y-88905000D01*
G75*
G02*
X105125000Y-88780000I125000J0D01*
G01*
X105375000Y-88780000D01*
G75*
G02*
X105500000Y-88905000I0J-125000D01*
G01*
X105500000Y-89215000D01*
G75*
G02*
X105375000Y-89340000I-125000J0D01*
G01*
G37*
G36*
G01*
X105375000Y-89980000D02*
X105125000Y-89980000D01*
G75*
G02*
X105000000Y-89855000I0J125000D01*
G01*
X105000000Y-89545000D01*
G75*
G02*
X105125000Y-89420000I125000J0D01*
G01*
X105375000Y-89420000D01*
G75*
G02*
X105500000Y-89545000I0J-125000D01*
G01*
X105500000Y-89855000D01*
G75*
G02*
X105375000Y-89980000I-125000J0D01*
G01*
G37*
%TD*%
%TO.C,R43*%
G36*
G01*
X114085000Y-80525000D02*
X114085000Y-80275000D01*
G75*
G02*
X114210000Y-80150000I125000J0D01*
G01*
X114520000Y-80150000D01*
G75*
G02*
X114645000Y-80275000I0J-125000D01*
G01*
X114645000Y-80525000D01*
G75*
G02*
X114520000Y-80650000I-125000J0D01*
G01*
X114210000Y-80650000D01*
G75*
G02*
X114085000Y-80525000I0J125000D01*
G01*
G37*
G36*
G01*
X113445000Y-80525000D02*
X113445000Y-80275000D01*
G75*
G02*
X113570000Y-80150000I125000J0D01*
G01*
X113880000Y-80150000D01*
G75*
G02*
X114005000Y-80275000I0J-125000D01*
G01*
X114005000Y-80525000D01*
G75*
G02*
X113880000Y-80650000I-125000J0D01*
G01*
X113570000Y-80650000D01*
G75*
G02*
X113445000Y-80525000I0J125000D01*
G01*
G37*
%TD*%
%TO.C,R44*%
G36*
G01*
X106325000Y-82360000D02*
X106575000Y-82360000D01*
G75*
G02*
X106700000Y-82485000I0J-125000D01*
G01*
X106700000Y-82795000D01*
G75*
G02*
X106575000Y-82920000I-125000J0D01*
G01*
X106325000Y-82920000D01*
G75*
G02*
X106200000Y-82795000I0J125000D01*
G01*
X106200000Y-82485000D01*
G75*
G02*
X106325000Y-82360000I125000J0D01*
G01*
G37*
G36*
G01*
X106325000Y-81720000D02*
X106575000Y-81720000D01*
G75*
G02*
X106700000Y-81845000I0J-125000D01*
G01*
X106700000Y-82155000D01*
G75*
G02*
X106575000Y-82280000I-125000J0D01*
G01*
X106325000Y-82280000D01*
G75*
G02*
X106200000Y-82155000I0J125000D01*
G01*
X106200000Y-81845000D01*
G75*
G02*
X106325000Y-81720000I125000J0D01*
G01*
G37*
%TD*%
%TO.C,R45*%
G36*
G01*
X126375000Y-76040000D02*
X126625000Y-76040000D01*
G75*
G02*
X126750000Y-76165000I0J-125000D01*
G01*
X126750000Y-76475000D01*
G75*
G02*
X126625000Y-76600000I-125000J0D01*
G01*
X126375000Y-76600000D01*
G75*
G02*
X126250000Y-76475000I0J125000D01*
G01*
X126250000Y-76165000D01*
G75*
G02*
X126375000Y-76040000I125000J0D01*
G01*
G37*
G36*
G01*
X126375000Y-75400000D02*
X126625000Y-75400000D01*
G75*
G02*
X126750000Y-75525000I0J-125000D01*
G01*
X126750000Y-75835000D01*
G75*
G02*
X126625000Y-75960000I-125000J0D01*
G01*
X126375000Y-75960000D01*
G75*
G02*
X126250000Y-75835000I0J125000D01*
G01*
X126250000Y-75525000D01*
G75*
G02*
X126375000Y-75400000I125000J0D01*
G01*
G37*
%TD*%
%TO.C,R46*%
G36*
G01*
X142915000Y-96125000D02*
X142915000Y-95875000D01*
G75*
G02*
X143040000Y-95750000I125000J0D01*
G01*
X143350000Y-95750000D01*
G75*
G02*
X143475000Y-95875000I0J-125000D01*
G01*
X143475000Y-96125000D01*
G75*
G02*
X143350000Y-96250000I-125000J0D01*
G01*
X143040000Y-96250000D01*
G75*
G02*
X142915000Y-96125000I0J125000D01*
G01*
G37*
G36*
G01*
X142275000Y-96125000D02*
X142275000Y-95875000D01*
G75*
G02*
X142400000Y-95750000I125000J0D01*
G01*
X142710000Y-95750000D01*
G75*
G02*
X142835000Y-95875000I0J-125000D01*
G01*
X142835000Y-96125000D01*
G75*
G02*
X142710000Y-96250000I-125000J0D01*
G01*
X142400000Y-96250000D01*
G75*
G02*
X142275000Y-96125000I0J125000D01*
G01*
G37*
%TD*%
%TO.C,R49*%
G36*
G01*
X127375000Y-76040000D02*
X127625000Y-76040000D01*
G75*
G02*
X127750000Y-76165000I0J-125000D01*
G01*
X127750000Y-76475000D01*
G75*
G02*
X127625000Y-76600000I-125000J0D01*
G01*
X127375000Y-76600000D01*
G75*
G02*
X127250000Y-76475000I0J125000D01*
G01*
X127250000Y-76165000D01*
G75*
G02*
X127375000Y-76040000I125000J0D01*
G01*
G37*
G36*
G01*
X127375000Y-75400000D02*
X127625000Y-75400000D01*
G75*
G02*
X127750000Y-75525000I0J-125000D01*
G01*
X127750000Y-75835000D01*
G75*
G02*
X127625000Y-75960000I-125000J0D01*
G01*
X127375000Y-75960000D01*
G75*
G02*
X127250000Y-75835000I0J125000D01*
G01*
X127250000Y-75525000D01*
G75*
G02*
X127375000Y-75400000I125000J0D01*
G01*
G37*
%TD*%
%TO.C,R50*%
G36*
G01*
X144875000Y-91540000D02*
X145125000Y-91540000D01*
G75*
G02*
X145250000Y-91665000I0J-125000D01*
G01*
X145250000Y-91975000D01*
G75*
G02*
X145125000Y-92100000I-125000J0D01*
G01*
X144875000Y-92100000D01*
G75*
G02*
X144750000Y-91975000I0J125000D01*
G01*
X144750000Y-91665000D01*
G75*
G02*
X144875000Y-91540000I125000J0D01*
G01*
G37*
G36*
G01*
X144875000Y-90900000D02*
X145125000Y-90900000D01*
G75*
G02*
X145250000Y-91025000I0J-125000D01*
G01*
X145250000Y-91335000D01*
G75*
G02*
X145125000Y-91460000I-125000J0D01*
G01*
X144875000Y-91460000D01*
G75*
G02*
X144750000Y-91335000I0J125000D01*
G01*
X144750000Y-91025000D01*
G75*
G02*
X144875000Y-90900000I125000J0D01*
G01*
G37*
%TD*%
%TO.C,R51*%
G36*
G01*
X136115000Y-78525000D02*
X136115000Y-78775000D01*
G75*
G02*
X135990000Y-78900000I-125000J0D01*
G01*
X135680000Y-78900000D01*
G75*
G02*
X135555000Y-78775000I0J125000D01*
G01*
X135555000Y-78525000D01*
G75*
G02*
X135680000Y-78400000I125000J0D01*
G01*
X135990000Y-78400000D01*
G75*
G02*
X136115000Y-78525000I0J-125000D01*
G01*
G37*
G36*
G01*
X136755000Y-78525000D02*
X136755000Y-78775000D01*
G75*
G02*
X136630000Y-78900000I-125000J0D01*
G01*
X136320000Y-78900000D01*
G75*
G02*
X136195000Y-78775000I0J125000D01*
G01*
X136195000Y-78525000D01*
G75*
G02*
X136320000Y-78400000I125000J0D01*
G01*
X136630000Y-78400000D01*
G75*
G02*
X136755000Y-78525000I0J-125000D01*
G01*
G37*
%TD*%
%TO.C,R52*%
G36*
G01*
X144025000Y-76867500D02*
X143775000Y-76867500D01*
G75*
G02*
X143650000Y-76742500I0J125000D01*
G01*
X143650000Y-76432500D01*
G75*
G02*
X143775000Y-76307500I125000J0D01*
G01*
X144025000Y-76307500D01*
G75*
G02*
X144150000Y-76432500I0J-125000D01*
G01*
X144150000Y-76742500D01*
G75*
G02*
X144025000Y-76867500I-125000J0D01*
G01*
G37*
G36*
G01*
X144025000Y-77507500D02*
X143775000Y-77507500D01*
G75*
G02*
X143650000Y-77382500I0J125000D01*
G01*
X143650000Y-77072500D01*
G75*
G02*
X143775000Y-76947500I125000J0D01*
G01*
X144025000Y-76947500D01*
G75*
G02*
X144150000Y-77072500I0J-125000D01*
G01*
X144150000Y-77382500D01*
G75*
G02*
X144025000Y-77507500I-125000J0D01*
G01*
G37*
%TD*%
%TO.C,R53*%
G36*
G01*
X129040000Y-72487500D02*
X129040000Y-72237500D01*
G75*
G02*
X129165000Y-72112500I125000J0D01*
G01*
X129475000Y-72112500D01*
G75*
G02*
X129600000Y-72237500I0J-125000D01*
G01*
X129600000Y-72487500D01*
G75*
G02*
X129475000Y-72612500I-125000J0D01*
G01*
X129165000Y-72612500D01*
G75*
G02*
X129040000Y-72487500I0J125000D01*
G01*
G37*
G36*
G01*
X128400000Y-72487500D02*
X128400000Y-72237500D01*
G75*
G02*
X128525000Y-72112500I125000J0D01*
G01*
X128835000Y-72112500D01*
G75*
G02*
X128960000Y-72237500I0J-125000D01*
G01*
X128960000Y-72487500D01*
G75*
G02*
X128835000Y-72612500I-125000J0D01*
G01*
X128525000Y-72612500D01*
G75*
G02*
X128400000Y-72487500I0J125000D01*
G01*
G37*
%TD*%
D27*
%TO.C,U9*%
X109625000Y-92350000D03*
D28*
X110599999Y-93846200D03*
X109950001Y-93846200D03*
X109299999Y-93846200D03*
X108650001Y-93846200D03*
X108650001Y-90853800D03*
X109299999Y-90853800D03*
X109950001Y-90853800D03*
X110599999Y-90853800D03*
%TD*%
D12*
%TO.C,U12*%
X110000000Y-81000000D03*
G36*
G01*
X111675000Y-82912500D02*
X111675000Y-83812500D01*
G75*
G02*
X111587500Y-83900000I-87500J0D01*
G01*
X111412500Y-83900000D01*
G75*
G02*
X111325000Y-83812500I0J87500D01*
G01*
X111325000Y-82912500D01*
G75*
G02*
X111412500Y-82825000I87500J0D01*
G01*
X111587500Y-82825000D01*
G75*
G02*
X111675000Y-82912500I0J-87500D01*
G01*
G37*
G36*
G01*
X111175000Y-82912500D02*
X111175000Y-83812500D01*
G75*
G02*
X111087500Y-83900000I-87500J0D01*
G01*
X110912500Y-83900000D01*
G75*
G02*
X110825000Y-83812500I0J87500D01*
G01*
X110825000Y-82912500D01*
G75*
G02*
X110912500Y-82825000I87500J0D01*
G01*
X111087500Y-82825000D01*
G75*
G02*
X111175000Y-82912500I0J-87500D01*
G01*
G37*
G36*
G01*
X110675000Y-82912500D02*
X110675000Y-83812500D01*
G75*
G02*
X110587500Y-83900000I-87500J0D01*
G01*
X110412500Y-83900000D01*
G75*
G02*
X110325000Y-83812500I0J87500D01*
G01*
X110325000Y-82912500D01*
G75*
G02*
X110412500Y-82825000I87500J0D01*
G01*
X110587500Y-82825000D01*
G75*
G02*
X110675000Y-82912500I0J-87500D01*
G01*
G37*
G36*
G01*
X110175000Y-82912500D02*
X110175000Y-83812500D01*
G75*
G02*
X110087500Y-83900000I-87500J0D01*
G01*
X109912500Y-83900000D01*
G75*
G02*
X109825000Y-83812500I0J87500D01*
G01*
X109825000Y-82912500D01*
G75*
G02*
X109912500Y-82825000I87500J0D01*
G01*
X110087500Y-82825000D01*
G75*
G02*
X110175000Y-82912500I0J-87500D01*
G01*
G37*
G36*
G01*
X109675000Y-82912500D02*
X109675000Y-83812500D01*
G75*
G02*
X109587500Y-83900000I-87500J0D01*
G01*
X109412500Y-83900000D01*
G75*
G02*
X109325000Y-83812500I0J87500D01*
G01*
X109325000Y-82912500D01*
G75*
G02*
X109412500Y-82825000I87500J0D01*
G01*
X109587500Y-82825000D01*
G75*
G02*
X109675000Y-82912500I0J-87500D01*
G01*
G37*
G36*
G01*
X109175000Y-82912500D02*
X109175000Y-83812500D01*
G75*
G02*
X109087500Y-83900000I-87500J0D01*
G01*
X108912500Y-83900000D01*
G75*
G02*
X108825000Y-83812500I0J87500D01*
G01*
X108825000Y-82912500D01*
G75*
G02*
X108912500Y-82825000I87500J0D01*
G01*
X109087500Y-82825000D01*
G75*
G02*
X109175000Y-82912500I0J-87500D01*
G01*
G37*
G36*
G01*
X108675000Y-82912500D02*
X108675000Y-83812500D01*
G75*
G02*
X108587500Y-83900000I-87500J0D01*
G01*
X108412500Y-83900000D01*
G75*
G02*
X108325000Y-83812500I0J87500D01*
G01*
X108325000Y-82912500D01*
G75*
G02*
X108412500Y-82825000I87500J0D01*
G01*
X108587500Y-82825000D01*
G75*
G02*
X108675000Y-82912500I0J-87500D01*
G01*
G37*
G36*
G01*
X108175000Y-82412500D02*
X108175000Y-82587500D01*
G75*
G02*
X108087500Y-82675000I-87500J0D01*
G01*
X107187500Y-82675000D01*
G75*
G02*
X107100000Y-82587500I0J87500D01*
G01*
X107100000Y-82412500D01*
G75*
G02*
X107187500Y-82325000I87500J0D01*
G01*
X108087500Y-82325000D01*
G75*
G02*
X108175000Y-82412500I0J-87500D01*
G01*
G37*
G36*
G01*
X108175000Y-81912500D02*
X108175000Y-82087500D01*
G75*
G02*
X108087500Y-82175000I-87500J0D01*
G01*
X107187500Y-82175000D01*
G75*
G02*
X107100000Y-82087500I0J87500D01*
G01*
X107100000Y-81912500D01*
G75*
G02*
X107187500Y-81825000I87500J0D01*
G01*
X108087500Y-81825000D01*
G75*
G02*
X108175000Y-81912500I0J-87500D01*
G01*
G37*
G36*
G01*
X108175000Y-81412500D02*
X108175000Y-81587500D01*
G75*
G02*
X108087500Y-81675000I-87500J0D01*
G01*
X107187500Y-81675000D01*
G75*
G02*
X107100000Y-81587500I0J87500D01*
G01*
X107100000Y-81412500D01*
G75*
G02*
X107187500Y-81325000I87500J0D01*
G01*
X108087500Y-81325000D01*
G75*
G02*
X108175000Y-81412500I0J-87500D01*
G01*
G37*
G36*
G01*
X108175000Y-80912500D02*
X108175000Y-81087500D01*
G75*
G02*
X108087500Y-81175000I-87500J0D01*
G01*
X107187500Y-81175000D01*
G75*
G02*
X107100000Y-81087500I0J87500D01*
G01*
X107100000Y-80912500D01*
G75*
G02*
X107187500Y-80825000I87500J0D01*
G01*
X108087500Y-80825000D01*
G75*
G02*
X108175000Y-80912500I0J-87500D01*
G01*
G37*
G36*
G01*
X108175000Y-80412500D02*
X108175000Y-80587500D01*
G75*
G02*
X108087500Y-80675000I-87500J0D01*
G01*
X107187500Y-80675000D01*
G75*
G02*
X107100000Y-80587500I0J87500D01*
G01*
X107100000Y-80412500D01*
G75*
G02*
X107187500Y-80325000I87500J0D01*
G01*
X108087500Y-80325000D01*
G75*
G02*
X108175000Y-80412500I0J-87500D01*
G01*
G37*
G36*
G01*
X108175000Y-79912500D02*
X108175000Y-80087500D01*
G75*
G02*
X108087500Y-80175000I-87500J0D01*
G01*
X107187500Y-80175000D01*
G75*
G02*
X107100000Y-80087500I0J87500D01*
G01*
X107100000Y-79912500D01*
G75*
G02*
X107187500Y-79825000I87500J0D01*
G01*
X108087500Y-79825000D01*
G75*
G02*
X108175000Y-79912500I0J-87500D01*
G01*
G37*
G36*
G01*
X108175000Y-79412500D02*
X108175000Y-79587500D01*
G75*
G02*
X108087500Y-79675000I-87500J0D01*
G01*
X107187500Y-79675000D01*
G75*
G02*
X107100000Y-79587500I0J87500D01*
G01*
X107100000Y-79412500D01*
G75*
G02*
X107187500Y-79325000I87500J0D01*
G01*
X108087500Y-79325000D01*
G75*
G02*
X108175000Y-79412500I0J-87500D01*
G01*
G37*
G36*
G01*
X108675000Y-78187500D02*
X108675000Y-79087500D01*
G75*
G02*
X108587500Y-79175000I-87500J0D01*
G01*
X108412500Y-79175000D01*
G75*
G02*
X108325000Y-79087500I0J87500D01*
G01*
X108325000Y-78187500D01*
G75*
G02*
X108412500Y-78100000I87500J0D01*
G01*
X108587500Y-78100000D01*
G75*
G02*
X108675000Y-78187500I0J-87500D01*
G01*
G37*
G36*
G01*
X109175000Y-78187500D02*
X109175000Y-79087500D01*
G75*
G02*
X109087500Y-79175000I-87500J0D01*
G01*
X108912500Y-79175000D01*
G75*
G02*
X108825000Y-79087500I0J87500D01*
G01*
X108825000Y-78187500D01*
G75*
G02*
X108912500Y-78100000I87500J0D01*
G01*
X109087500Y-78100000D01*
G75*
G02*
X109175000Y-78187500I0J-87500D01*
G01*
G37*
G36*
G01*
X109675000Y-78187500D02*
X109675000Y-79087500D01*
G75*
G02*
X109587500Y-79175000I-87500J0D01*
G01*
X109412500Y-79175000D01*
G75*
G02*
X109325000Y-79087500I0J87500D01*
G01*
X109325000Y-78187500D01*
G75*
G02*
X109412500Y-78100000I87500J0D01*
G01*
X109587500Y-78100000D01*
G75*
G02*
X109675000Y-78187500I0J-87500D01*
G01*
G37*
G36*
G01*
X110175000Y-78187500D02*
X110175000Y-79087500D01*
G75*
G02*
X110087500Y-79175000I-87500J0D01*
G01*
X109912500Y-79175000D01*
G75*
G02*
X109825000Y-79087500I0J87500D01*
G01*
X109825000Y-78187500D01*
G75*
G02*
X109912500Y-78100000I87500J0D01*
G01*
X110087500Y-78100000D01*
G75*
G02*
X110175000Y-78187500I0J-87500D01*
G01*
G37*
G36*
G01*
X110675000Y-78187500D02*
X110675000Y-79087500D01*
G75*
G02*
X110587500Y-79175000I-87500J0D01*
G01*
X110412500Y-79175000D01*
G75*
G02*
X110325000Y-79087500I0J87500D01*
G01*
X110325000Y-78187500D01*
G75*
G02*
X110412500Y-78100000I87500J0D01*
G01*
X110587500Y-78100000D01*
G75*
G02*
X110675000Y-78187500I0J-87500D01*
G01*
G37*
G36*
G01*
X111175000Y-78187500D02*
X111175000Y-79087500D01*
G75*
G02*
X111087500Y-79175000I-87500J0D01*
G01*
X110912500Y-79175000D01*
G75*
G02*
X110825000Y-79087500I0J87500D01*
G01*
X110825000Y-78187500D01*
G75*
G02*
X110912500Y-78100000I87500J0D01*
G01*
X111087500Y-78100000D01*
G75*
G02*
X111175000Y-78187500I0J-87500D01*
G01*
G37*
G36*
G01*
X111675000Y-78187500D02*
X111675000Y-79087500D01*
G75*
G02*
X111587500Y-79175000I-87500J0D01*
G01*
X111412500Y-79175000D01*
G75*
G02*
X111325000Y-79087500I0J87500D01*
G01*
X111325000Y-78187500D01*
G75*
G02*
X111412500Y-78100000I87500J0D01*
G01*
X111587500Y-78100000D01*
G75*
G02*
X111675000Y-78187500I0J-87500D01*
G01*
G37*
G36*
G01*
X112900000Y-79412500D02*
X112900000Y-79587500D01*
G75*
G02*
X112812500Y-79675000I-87500J0D01*
G01*
X111912500Y-79675000D01*
G75*
G02*
X111825000Y-79587500I0J87500D01*
G01*
X111825000Y-79412500D01*
G75*
G02*
X111912500Y-79325000I87500J0D01*
G01*
X112812500Y-79325000D01*
G75*
G02*
X112900000Y-79412500I0J-87500D01*
G01*
G37*
G36*
G01*
X112900000Y-79912500D02*
X112900000Y-80087500D01*
G75*
G02*
X112812500Y-80175000I-87500J0D01*
G01*
X111912500Y-80175000D01*
G75*
G02*
X111825000Y-80087500I0J87500D01*
G01*
X111825000Y-79912500D01*
G75*
G02*
X111912500Y-79825000I87500J0D01*
G01*
X112812500Y-79825000D01*
G75*
G02*
X112900000Y-79912500I0J-87500D01*
G01*
G37*
G36*
G01*
X112900000Y-80412500D02*
X112900000Y-80587500D01*
G75*
G02*
X112812500Y-80675000I-87500J0D01*
G01*
X111912500Y-80675000D01*
G75*
G02*
X111825000Y-80587500I0J87500D01*
G01*
X111825000Y-80412500D01*
G75*
G02*
X111912500Y-80325000I87500J0D01*
G01*
X112812500Y-80325000D01*
G75*
G02*
X112900000Y-80412500I0J-87500D01*
G01*
G37*
G36*
G01*
X112900000Y-80912500D02*
X112900000Y-81087500D01*
G75*
G02*
X112812500Y-81175000I-87500J0D01*
G01*
X111912500Y-81175000D01*
G75*
G02*
X111825000Y-81087500I0J87500D01*
G01*
X111825000Y-80912500D01*
G75*
G02*
X111912500Y-80825000I87500J0D01*
G01*
X112812500Y-80825000D01*
G75*
G02*
X112900000Y-80912500I0J-87500D01*
G01*
G37*
G36*
G01*
X112900000Y-81412500D02*
X112900000Y-81587500D01*
G75*
G02*
X112812500Y-81675000I-87500J0D01*
G01*
X111912500Y-81675000D01*
G75*
G02*
X111825000Y-81587500I0J87500D01*
G01*
X111825000Y-81412500D01*
G75*
G02*
X111912500Y-81325000I87500J0D01*
G01*
X112812500Y-81325000D01*
G75*
G02*
X112900000Y-81412500I0J-87500D01*
G01*
G37*
G36*
G01*
X112900000Y-81912500D02*
X112900000Y-82087500D01*
G75*
G02*
X112812500Y-82175000I-87500J0D01*
G01*
X111912500Y-82175000D01*
G75*
G02*
X111825000Y-82087500I0J87500D01*
G01*
X111825000Y-81912500D01*
G75*
G02*
X111912500Y-81825000I87500J0D01*
G01*
X112812500Y-81825000D01*
G75*
G02*
X112900000Y-81912500I0J-87500D01*
G01*
G37*
G36*
G01*
X112900000Y-82412500D02*
X112900000Y-82587500D01*
G75*
G02*
X112812500Y-82675000I-87500J0D01*
G01*
X111912500Y-82675000D01*
G75*
G02*
X111825000Y-82587500I0J87500D01*
G01*
X111825000Y-82412500D01*
G75*
G02*
X111912500Y-82325000I87500J0D01*
G01*
X112812500Y-82325000D01*
G75*
G02*
X112900000Y-82412500I0J-87500D01*
G01*
G37*
%TD*%
D27*
%TO.C,U13*%
X142875000Y-92500000D03*
D28*
X143849999Y-93996200D03*
X143200001Y-93996200D03*
X142549999Y-93996200D03*
X141900001Y-93996200D03*
X141900001Y-91003800D03*
X142549999Y-91003800D03*
X143200001Y-91003800D03*
X143849999Y-91003800D03*
%TD*%
%TO.C,R54*%
G36*
G01*
X103875000Y-80265000D02*
X104125000Y-80265000D01*
G75*
G02*
X104250000Y-80390000I0J-125000D01*
G01*
X104250000Y-80700000D01*
G75*
G02*
X104125000Y-80825000I-125000J0D01*
G01*
X103875000Y-80825000D01*
G75*
G02*
X103750000Y-80700000I0J125000D01*
G01*
X103750000Y-80390000D01*
G75*
G02*
X103875000Y-80265000I125000J0D01*
G01*
G37*
G36*
G01*
X103875000Y-79625000D02*
X104125000Y-79625000D01*
G75*
G02*
X104250000Y-79750000I0J-125000D01*
G01*
X104250000Y-80060000D01*
G75*
G02*
X104125000Y-80185000I-125000J0D01*
G01*
X103875000Y-80185000D01*
G75*
G02*
X103750000Y-80060000I0J125000D01*
G01*
X103750000Y-79750000D01*
G75*
G02*
X103875000Y-79625000I125000J0D01*
G01*
G37*
%TD*%
%TO.C,R55*%
G36*
G01*
X103875000Y-82765000D02*
X104125000Y-82765000D01*
G75*
G02*
X104250000Y-82890000I0J-125000D01*
G01*
X104250000Y-83200000D01*
G75*
G02*
X104125000Y-83325000I-125000J0D01*
G01*
X103875000Y-83325000D01*
G75*
G02*
X103750000Y-83200000I0J125000D01*
G01*
X103750000Y-82890000D01*
G75*
G02*
X103875000Y-82765000I125000J0D01*
G01*
G37*
G36*
G01*
X103875000Y-82125000D02*
X104125000Y-82125000D01*
G75*
G02*
X104250000Y-82250000I0J-125000D01*
G01*
X104250000Y-82560000D01*
G75*
G02*
X104125000Y-82685000I-125000J0D01*
G01*
X103875000Y-82685000D01*
G75*
G02*
X103750000Y-82560000I0J125000D01*
G01*
X103750000Y-82250000D01*
G75*
G02*
X103875000Y-82125000I125000J0D01*
G01*
G37*
%TD*%
%TO.C,R57*%
G36*
G01*
X146125000Y-80185000D02*
X145875000Y-80185000D01*
G75*
G02*
X145750000Y-80060000I0J125000D01*
G01*
X145750000Y-79750000D01*
G75*
G02*
X145875000Y-79625000I125000J0D01*
G01*
X146125000Y-79625000D01*
G75*
G02*
X146250000Y-79750000I0J-125000D01*
G01*
X146250000Y-80060000D01*
G75*
G02*
X146125000Y-80185000I-125000J0D01*
G01*
G37*
G36*
G01*
X146125000Y-80825000D02*
X145875000Y-80825000D01*
G75*
G02*
X145750000Y-80700000I0J125000D01*
G01*
X145750000Y-80390000D01*
G75*
G02*
X145875000Y-80265000I125000J0D01*
G01*
X146125000Y-80265000D01*
G75*
G02*
X146250000Y-80390000I0J-125000D01*
G01*
X146250000Y-80700000D01*
G75*
G02*
X146125000Y-80825000I-125000J0D01*
G01*
G37*
%TD*%
%TO.C,R58*%
G36*
G01*
X146125000Y-77685000D02*
X145875000Y-77685000D01*
G75*
G02*
X145750000Y-77560000I0J125000D01*
G01*
X145750000Y-77250000D01*
G75*
G02*
X145875000Y-77125000I125000J0D01*
G01*
X146125000Y-77125000D01*
G75*
G02*
X146250000Y-77250000I0J-125000D01*
G01*
X146250000Y-77560000D01*
G75*
G02*
X146125000Y-77685000I-125000J0D01*
G01*
G37*
G36*
G01*
X146125000Y-78325000D02*
X145875000Y-78325000D01*
G75*
G02*
X145750000Y-78200000I0J125000D01*
G01*
X145750000Y-77890000D01*
G75*
G02*
X145875000Y-77765000I125000J0D01*
G01*
X146125000Y-77765000D01*
G75*
G02*
X146250000Y-77890000I0J-125000D01*
G01*
X146250000Y-78200000D01*
G75*
G02*
X146125000Y-78325000I-125000J0D01*
G01*
G37*
%TD*%
%TO.C,J8*%
G36*
G01*
X102200000Y-76600000D02*
X103200000Y-76600000D01*
G75*
G02*
X103450000Y-76850000I0J-250000D01*
G01*
X103450000Y-77350000D01*
G75*
G02*
X103200000Y-77600000I-250000J0D01*
G01*
X102200000Y-77600000D01*
G75*
G02*
X101950000Y-77350000I0J250000D01*
G01*
X101950000Y-76850000D01*
G75*
G02*
X102200000Y-76600000I250000J0D01*
G01*
G37*
D26*
X102700000Y-78350000D03*
X102700000Y-79600000D03*
X102700000Y-80850000D03*
X102700000Y-82100000D03*
X102700000Y-83350000D03*
%TD*%
%TO.C,J11*%
X147300000Y-77100000D03*
X147300000Y-78350000D03*
X147300000Y-79600000D03*
X147300000Y-80850000D03*
X147300000Y-82100000D03*
G36*
G01*
X147800000Y-83850000D02*
X146800000Y-83850000D01*
G75*
G02*
X146550000Y-83600000I0J250000D01*
G01*
X146550000Y-83100000D01*
G75*
G02*
X146800000Y-82850000I250000J0D01*
G01*
X147800000Y-82850000D01*
G75*
G02*
X148050000Y-83100000I0J-250000D01*
G01*
X148050000Y-83600000D01*
G75*
G02*
X147800000Y-83850000I-250000J0D01*
G01*
G37*
%TD*%
%TO.C,C51*%
G36*
G01*
X115475000Y-81780000D02*
X115225000Y-81780000D01*
G75*
G02*
X115100000Y-81655000I0J125000D01*
G01*
X115100000Y-81345000D01*
G75*
G02*
X115225000Y-81220000I125000J0D01*
G01*
X115475000Y-81220000D01*
G75*
G02*
X115600000Y-81345000I0J-125000D01*
G01*
X115600000Y-81655000D01*
G75*
G02*
X115475000Y-81780000I-125000J0D01*
G01*
G37*
G36*
G01*
X115475000Y-82420000D02*
X115225000Y-82420000D01*
G75*
G02*
X115100000Y-82295000I0J125000D01*
G01*
X115100000Y-81985000D01*
G75*
G02*
X115225000Y-81860000I125000J0D01*
G01*
X115475000Y-81860000D01*
G75*
G02*
X115600000Y-81985000I0J-125000D01*
G01*
X115600000Y-82295000D01*
G75*
G02*
X115475000Y-82420000I-125000J0D01*
G01*
G37*
%TD*%
%TO.C,C52*%
G36*
G01*
X134725000Y-76807500D02*
X134975000Y-76807500D01*
G75*
G02*
X135100000Y-76932500I0J-125000D01*
G01*
X135100000Y-77242500D01*
G75*
G02*
X134975000Y-77367500I-125000J0D01*
G01*
X134725000Y-77367500D01*
G75*
G02*
X134600000Y-77242500I0J125000D01*
G01*
X134600000Y-76932500D01*
G75*
G02*
X134725000Y-76807500I125000J0D01*
G01*
G37*
G36*
G01*
X134725000Y-77447500D02*
X134975000Y-77447500D01*
G75*
G02*
X135100000Y-77572500I0J-125000D01*
G01*
X135100000Y-77882500D01*
G75*
G02*
X134975000Y-78007500I-125000J0D01*
G01*
X134725000Y-78007500D01*
G75*
G02*
X134600000Y-77882500I0J125000D01*
G01*
X134600000Y-77572500D01*
G75*
G02*
X134725000Y-77447500I125000J0D01*
G01*
G37*
%TD*%
%TO.C,C4*%
G36*
G01*
X127170000Y-62997500D02*
X127170000Y-62602500D01*
G75*
G02*
X127342500Y-62430000I172500J0D01*
G01*
X127687500Y-62430000D01*
G75*
G02*
X127860000Y-62602500I0J-172500D01*
G01*
X127860000Y-62997500D01*
G75*
G02*
X127687500Y-63170000I-172500J0D01*
G01*
X127342500Y-63170000D01*
G75*
G02*
X127170000Y-62997500I0J172500D01*
G01*
G37*
G36*
G01*
X128140000Y-62997500D02*
X128140000Y-62602500D01*
G75*
G02*
X128312500Y-62430000I172500J0D01*
G01*
X128657500Y-62430000D01*
G75*
G02*
X128830000Y-62602500I0J-172500D01*
G01*
X128830000Y-62997500D01*
G75*
G02*
X128657500Y-63170000I-172500J0D01*
G01*
X128312500Y-63170000D01*
G75*
G02*
X128140000Y-62997500I0J172500D01*
G01*
G37*
%TD*%
D29*
%TO.C,D4*%
X110345000Y-95000000D03*
X109945000Y-95000000D03*
%TD*%
%TO.C,D5*%
X109305000Y-95000000D03*
X108905000Y-95000000D03*
%TD*%
D30*
%TO.C,D7*%
X105000000Y-79505000D03*
X105000000Y-79905000D03*
%TD*%
%TO.C,D8*%
X105000000Y-80545000D03*
X105000000Y-80945000D03*
%TD*%
%TO.C,D9*%
X105000000Y-82005000D03*
X105000000Y-82405000D03*
%TD*%
%TO.C,D10*%
X105000000Y-83045000D03*
X105000000Y-83445000D03*
%TD*%
D29*
%TO.C,D12*%
X143600000Y-95000000D03*
X143200000Y-95000000D03*
%TD*%
%TO.C,D13*%
X142550000Y-95000000D03*
X142150000Y-95000000D03*
%TD*%
D30*
%TO.C,D14*%
X145000000Y-80545000D03*
X145000000Y-80945000D03*
%TD*%
%TO.C,D15*%
X145000000Y-79505000D03*
X145000000Y-79905000D03*
%TD*%
%TO.C,D16*%
X145000000Y-78445000D03*
X145000000Y-78045000D03*
%TD*%
%TO.C,D17*%
X145000000Y-77405000D03*
X145000000Y-77005000D03*
%TD*%
D31*
%TO.C,JP3*%
X135270000Y-85000000D03*
X134000000Y-83730000D03*
X134000000Y-85000000D03*
X134000000Y-86270000D03*
%TD*%
%TO.C,JP7*%
X116000000Y-83730000D03*
X116000000Y-85000000D03*
X116000000Y-86270000D03*
X114730000Y-85000000D03*
%TD*%
M02*
