%TF.GenerationSoftware,KiCad,Pcbnew,(5.1.6)-1*%
%TF.CreationDate,2021-04-13T10:59:24+02:00*%
%TF.ProjectId,EcatExBrd,45636174-4578-4427-9264-2e6b69636164,1.0*%
%TF.SameCoordinates,Original*%
%TF.FileFunction,Legend,Bot*%
%TF.FilePolarity,Positive*%
%FSLAX46Y46*%
G04 Gerber Fmt 4.6, Leading zero omitted, Abs format (unit mm)*
G04 Created by KiCad (PCBNEW (5.1.6)-1) date 2021-04-13 10:59:24*
%MOMM*%
%LPD*%
G01*
G04 APERTURE LIST*
%ADD10C,0.120000*%
%ADD11C,0.100000*%
%ADD12C,0.152400*%
%ADD13C,0.150000*%
G04 APERTURE END LIST*
D10*
X121428571Y-90600000D02*
X121142857Y-90600000D01*
X121485714Y-90771428D02*
X121285714Y-90171428D01*
X121085714Y-90771428D01*
X120885714Y-90371428D02*
X120885714Y-90771428D01*
X120885714Y-90428571D02*
X120857142Y-90400000D01*
X120800000Y-90371428D01*
X120714285Y-90371428D01*
X120657142Y-90400000D01*
X120628571Y-90457142D01*
X120628571Y-90771428D01*
X120085714Y-90771428D02*
X120085714Y-90457142D01*
X120114285Y-90400000D01*
X120171428Y-90371428D01*
X120285714Y-90371428D01*
X120342857Y-90400000D01*
X120085714Y-90742857D02*
X120142857Y-90771428D01*
X120285714Y-90771428D01*
X120342857Y-90742857D01*
X120371428Y-90685714D01*
X120371428Y-90628571D01*
X120342857Y-90571428D01*
X120285714Y-90542857D01*
X120142857Y-90542857D01*
X120085714Y-90514285D01*
X119714285Y-90771428D02*
X119771428Y-90742857D01*
X119800000Y-90685714D01*
X119800000Y-90171428D01*
X119400000Y-90771428D02*
X119457142Y-90742857D01*
X119485714Y-90714285D01*
X119514285Y-90657142D01*
X119514285Y-90485714D01*
X119485714Y-90428571D01*
X119457142Y-90400000D01*
X119400000Y-90371428D01*
X119314285Y-90371428D01*
X119257142Y-90400000D01*
X119228571Y-90428571D01*
X119200000Y-90485714D01*
X119200000Y-90657142D01*
X119228571Y-90714285D01*
X119257142Y-90742857D01*
X119314285Y-90771428D01*
X119400000Y-90771428D01*
X118685714Y-90371428D02*
X118685714Y-90857142D01*
X118714285Y-90914285D01*
X118742857Y-90942857D01*
X118800000Y-90971428D01*
X118885714Y-90971428D01*
X118942857Y-90942857D01*
X118685714Y-90742857D02*
X118742857Y-90771428D01*
X118857142Y-90771428D01*
X118914285Y-90742857D01*
X118942857Y-90714285D01*
X118971428Y-90657142D01*
X118971428Y-90485714D01*
X118942857Y-90428571D01*
X118914285Y-90400000D01*
X118857142Y-90371428D01*
X118742857Y-90371428D01*
X118685714Y-90400000D01*
X117942857Y-90771428D02*
X117942857Y-90171428D01*
X117657142Y-90371428D02*
X117657142Y-90771428D01*
X117657142Y-90428571D02*
X117628571Y-90400000D01*
X117571428Y-90371428D01*
X117485714Y-90371428D01*
X117428571Y-90400000D01*
X117400000Y-90457142D01*
X117400000Y-90771428D01*
X107800000Y-85171428D02*
X107800000Y-85314285D01*
X107942857Y-85257142D02*
X107800000Y-85314285D01*
X107657142Y-85257142D01*
X107885714Y-85428571D02*
X107800000Y-85314285D01*
X107714285Y-85428571D01*
X137800000Y-89571428D02*
X137800000Y-89714285D01*
X137942857Y-89657142D02*
X137800000Y-89714285D01*
X137657142Y-89657142D01*
X137885714Y-89828571D02*
X137800000Y-89714285D01*
X137714285Y-89828571D01*
X145285714Y-76842857D02*
X145200000Y-76871428D01*
X145057143Y-76871428D01*
X145000000Y-76842857D01*
X144971428Y-76814285D01*
X144942857Y-76757142D01*
X144942857Y-76700000D01*
X144971428Y-76642857D01*
X145000000Y-76614285D01*
X145057143Y-76585714D01*
X145171428Y-76557142D01*
X145228571Y-76528571D01*
X145257143Y-76500000D01*
X145285714Y-76442857D01*
X145285714Y-76385714D01*
X145257143Y-76328571D01*
X145228571Y-76300000D01*
X145171428Y-76271428D01*
X145028571Y-76271428D01*
X144942857Y-76300000D01*
X144714285Y-76842857D02*
X144628571Y-76871428D01*
X144485714Y-76871428D01*
X144428571Y-76842857D01*
X144400000Y-76814285D01*
X144371428Y-76757142D01*
X144371428Y-76700000D01*
X144400000Y-76642857D01*
X144428571Y-76614285D01*
X144485714Y-76585714D01*
X144600000Y-76557142D01*
X144657143Y-76528571D01*
X144685714Y-76500000D01*
X144714285Y-76442857D01*
X144714285Y-76385714D01*
X144685714Y-76328571D01*
X144657143Y-76300000D01*
X144600000Y-76271428D01*
X144457143Y-76271428D01*
X144371428Y-76300000D01*
X144114285Y-76871428D02*
X144114285Y-76271428D01*
X143400000Y-76242857D02*
X143914285Y-77014285D01*
X143000000Y-76557142D02*
X142914285Y-76585714D01*
X142885714Y-76614285D01*
X142857143Y-76671428D01*
X142857143Y-76757142D01*
X142885714Y-76814285D01*
X142914285Y-76842857D01*
X142971428Y-76871428D01*
X143200000Y-76871428D01*
X143200000Y-76271428D01*
X143000000Y-76271428D01*
X142942857Y-76300000D01*
X142914285Y-76328571D01*
X142885714Y-76385714D01*
X142885714Y-76442857D01*
X142914285Y-76500000D01*
X142942857Y-76528571D01*
X143000000Y-76557142D01*
X143200000Y-76557142D01*
X142600000Y-76871428D02*
X142600000Y-76471428D01*
X142600000Y-76271428D02*
X142628571Y-76300000D01*
X142600000Y-76328571D01*
X142571428Y-76300000D01*
X142600000Y-76271428D01*
X142600000Y-76328571D01*
X142342857Y-76842857D02*
X142257143Y-76871428D01*
X142114285Y-76871428D01*
X142057143Y-76842857D01*
X142028571Y-76814285D01*
X142000000Y-76757142D01*
X142000000Y-76700000D01*
X142028571Y-76642857D01*
X142057143Y-76614285D01*
X142114285Y-76585714D01*
X142228571Y-76557142D01*
X142285714Y-76528571D01*
X142314285Y-76500000D01*
X142342857Y-76442857D01*
X142342857Y-76385714D01*
X142314285Y-76328571D01*
X142285714Y-76300000D01*
X142228571Y-76271428D01*
X142085714Y-76271428D01*
X142000000Y-76300000D01*
X141771428Y-76842857D02*
X141685714Y-76871428D01*
X141542857Y-76871428D01*
X141485714Y-76842857D01*
X141457143Y-76814285D01*
X141428571Y-76757142D01*
X141428571Y-76700000D01*
X141457143Y-76642857D01*
X141485714Y-76614285D01*
X141542857Y-76585714D01*
X141657143Y-76557142D01*
X141714285Y-76528571D01*
X141742857Y-76500000D01*
X141771428Y-76442857D01*
X141771428Y-76385714D01*
X141742857Y-76328571D01*
X141714285Y-76300000D01*
X141657143Y-76271428D01*
X141514285Y-76271428D01*
X141428571Y-76300000D01*
X145285713Y-87042857D02*
X145199999Y-87071428D01*
X145057142Y-87071428D01*
X144999999Y-87042857D01*
X144971428Y-87014285D01*
X144942856Y-86957142D01*
X144942856Y-86900000D01*
X144971428Y-86842857D01*
X144999999Y-86814285D01*
X145057142Y-86785714D01*
X145171428Y-86757142D01*
X145228570Y-86728571D01*
X145257142Y-86700000D01*
X145285713Y-86642857D01*
X145285713Y-86585714D01*
X145257142Y-86528571D01*
X145228570Y-86500000D01*
X145171428Y-86471428D01*
X145028570Y-86471428D01*
X144942856Y-86500000D01*
X144685713Y-87071428D02*
X144685713Y-86471428D01*
X144457142Y-86471428D01*
X144399999Y-86500000D01*
X144371428Y-86528571D01*
X144342856Y-86585714D01*
X144342856Y-86671428D01*
X144371428Y-86728571D01*
X144399999Y-86757142D01*
X144457142Y-86785714D01*
X144685713Y-86785714D01*
X144085713Y-87071428D02*
X144085713Y-86471428D01*
X141128571Y-95371428D02*
X141328571Y-95085714D01*
X141471428Y-95371428D02*
X141471428Y-94771428D01*
X141242857Y-94771428D01*
X141185714Y-94800000D01*
X141157142Y-94828571D01*
X141128571Y-94885714D01*
X141128571Y-94971428D01*
X141157142Y-95028571D01*
X141185714Y-95057142D01*
X141242857Y-95085714D01*
X141471428Y-95085714D01*
X140900000Y-95342857D02*
X140814285Y-95371428D01*
X140671428Y-95371428D01*
X140614285Y-95342857D01*
X140585714Y-95314285D01*
X140557142Y-95257142D01*
X140557142Y-95200000D01*
X140585714Y-95142857D01*
X140614285Y-95114285D01*
X140671428Y-95085714D01*
X140785714Y-95057142D01*
X140842857Y-95028571D01*
X140871428Y-95000000D01*
X140900000Y-94942857D01*
X140900000Y-94885714D01*
X140871428Y-94828571D01*
X140842857Y-94800000D01*
X140785714Y-94771428D01*
X140642857Y-94771428D01*
X140557142Y-94800000D01*
X140300000Y-95142857D02*
X139842857Y-95142857D01*
X139300000Y-94971428D02*
X139300000Y-95371428D01*
X139442857Y-94742857D02*
X139585714Y-95171428D01*
X139214285Y-95171428D01*
X138900000Y-95028571D02*
X138957142Y-95000000D01*
X138985714Y-94971428D01*
X139014285Y-94914285D01*
X139014285Y-94885714D01*
X138985714Y-94828571D01*
X138957142Y-94800000D01*
X138900000Y-94771428D01*
X138785714Y-94771428D01*
X138728571Y-94800000D01*
X138700000Y-94828571D01*
X138671428Y-94885714D01*
X138671428Y-94914285D01*
X138700000Y-94971428D01*
X138728571Y-95000000D01*
X138785714Y-95028571D01*
X138900000Y-95028571D01*
X138957142Y-95057142D01*
X138985714Y-95085714D01*
X139014285Y-95142857D01*
X139014285Y-95257142D01*
X138985714Y-95314285D01*
X138957142Y-95342857D01*
X138900000Y-95371428D01*
X138785714Y-95371428D01*
X138728571Y-95342857D01*
X138700000Y-95314285D01*
X138671428Y-95257142D01*
X138671428Y-95142857D01*
X138700000Y-95085714D01*
X138728571Y-95057142D01*
X138785714Y-95028571D01*
X138128571Y-94771428D02*
X138414285Y-94771428D01*
X138442857Y-95057142D01*
X138414285Y-95028571D01*
X138357142Y-95000000D01*
X138214285Y-95000000D01*
X138157142Y-95028571D01*
X138128571Y-95057142D01*
X138100000Y-95114285D01*
X138100000Y-95257142D01*
X138128571Y-95314285D01*
X138157142Y-95342857D01*
X138214285Y-95371428D01*
X138357142Y-95371428D01*
X138414285Y-95342857D01*
X138442857Y-95314285D01*
X107628571Y-95371428D02*
X107828571Y-95085714D01*
X107971428Y-95371428D02*
X107971428Y-94771428D01*
X107742857Y-94771428D01*
X107685714Y-94800000D01*
X107657142Y-94828571D01*
X107628571Y-94885714D01*
X107628571Y-94971428D01*
X107657142Y-95028571D01*
X107685714Y-95057142D01*
X107742857Y-95085714D01*
X107971428Y-95085714D01*
X107400000Y-95342857D02*
X107314285Y-95371428D01*
X107171428Y-95371428D01*
X107114285Y-95342857D01*
X107085714Y-95314285D01*
X107057142Y-95257142D01*
X107057142Y-95200000D01*
X107085714Y-95142857D01*
X107114285Y-95114285D01*
X107171428Y-95085714D01*
X107285714Y-95057142D01*
X107342857Y-95028571D01*
X107371428Y-95000000D01*
X107400000Y-94942857D01*
X107400000Y-94885714D01*
X107371428Y-94828571D01*
X107342857Y-94800000D01*
X107285714Y-94771428D01*
X107142857Y-94771428D01*
X107057142Y-94800000D01*
X106800000Y-95142857D02*
X106342857Y-95142857D01*
X105800000Y-94971428D02*
X105800000Y-95371428D01*
X105942857Y-94742857D02*
X106085714Y-95171428D01*
X105714285Y-95171428D01*
X105400000Y-95028571D02*
X105457142Y-95000000D01*
X105485714Y-94971428D01*
X105514285Y-94914285D01*
X105514285Y-94885714D01*
X105485714Y-94828571D01*
X105457142Y-94800000D01*
X105400000Y-94771428D01*
X105285714Y-94771428D01*
X105228571Y-94800000D01*
X105200000Y-94828571D01*
X105171428Y-94885714D01*
X105171428Y-94914285D01*
X105200000Y-94971428D01*
X105228571Y-95000000D01*
X105285714Y-95028571D01*
X105400000Y-95028571D01*
X105457142Y-95057142D01*
X105485714Y-95085714D01*
X105514285Y-95142857D01*
X105514285Y-95257142D01*
X105485714Y-95314285D01*
X105457142Y-95342857D01*
X105400000Y-95371428D01*
X105285714Y-95371428D01*
X105228571Y-95342857D01*
X105200000Y-95314285D01*
X105171428Y-95257142D01*
X105171428Y-95142857D01*
X105200000Y-95085714D01*
X105228571Y-95057142D01*
X105285714Y-95028571D01*
X104628571Y-94771428D02*
X104914285Y-94771428D01*
X104942857Y-95057142D01*
X104914285Y-95028571D01*
X104857142Y-95000000D01*
X104714285Y-95000000D01*
X104657142Y-95028571D01*
X104628571Y-95057142D01*
X104600000Y-95114285D01*
X104600000Y-95257142D01*
X104628571Y-95314285D01*
X104657142Y-95342857D01*
X104714285Y-95371428D01*
X104857142Y-95371428D01*
X104914285Y-95342857D01*
X104942857Y-95314285D01*
X105828571Y-86942857D02*
X105742857Y-86971428D01*
X105600000Y-86971428D01*
X105542857Y-86942857D01*
X105514286Y-86914285D01*
X105485714Y-86857142D01*
X105485714Y-86800000D01*
X105514286Y-86742857D01*
X105542857Y-86714285D01*
X105600000Y-86685714D01*
X105714286Y-86657142D01*
X105771428Y-86628571D01*
X105800000Y-86600000D01*
X105828571Y-86542857D01*
X105828571Y-86485714D01*
X105800000Y-86428571D01*
X105771428Y-86400000D01*
X105714286Y-86371428D01*
X105571428Y-86371428D01*
X105485714Y-86400000D01*
X105228571Y-86971428D02*
X105228571Y-86371428D01*
X105000000Y-86371428D01*
X104942857Y-86400000D01*
X104914286Y-86428571D01*
X104885714Y-86485714D01*
X104885714Y-86571428D01*
X104914286Y-86628571D01*
X104942857Y-86657142D01*
X105000000Y-86685714D01*
X105228571Y-86685714D01*
X104628571Y-86971428D02*
X104628571Y-86371428D01*
X108457143Y-76742857D02*
X108371429Y-76771428D01*
X108228572Y-76771428D01*
X108171429Y-76742857D01*
X108142857Y-76714285D01*
X108114286Y-76657142D01*
X108114286Y-76600000D01*
X108142857Y-76542857D01*
X108171429Y-76514285D01*
X108228572Y-76485714D01*
X108342857Y-76457142D01*
X108400000Y-76428571D01*
X108428572Y-76400000D01*
X108457143Y-76342857D01*
X108457143Y-76285714D01*
X108428572Y-76228571D01*
X108400000Y-76200000D01*
X108342857Y-76171428D01*
X108200000Y-76171428D01*
X108114286Y-76200000D01*
X107885714Y-76742857D02*
X107800000Y-76771428D01*
X107657143Y-76771428D01*
X107600000Y-76742857D01*
X107571429Y-76714285D01*
X107542857Y-76657142D01*
X107542857Y-76600000D01*
X107571429Y-76542857D01*
X107600000Y-76514285D01*
X107657143Y-76485714D01*
X107771429Y-76457142D01*
X107828572Y-76428571D01*
X107857143Y-76400000D01*
X107885714Y-76342857D01*
X107885714Y-76285714D01*
X107857143Y-76228571D01*
X107828572Y-76200000D01*
X107771429Y-76171428D01*
X107628572Y-76171428D01*
X107542857Y-76200000D01*
X107285714Y-76771428D02*
X107285714Y-76171428D01*
X106571429Y-76142857D02*
X107085714Y-76914285D01*
X106171429Y-76457142D02*
X106085714Y-76485714D01*
X106057143Y-76514285D01*
X106028572Y-76571428D01*
X106028572Y-76657142D01*
X106057143Y-76714285D01*
X106085714Y-76742857D01*
X106142857Y-76771428D01*
X106371429Y-76771428D01*
X106371429Y-76171428D01*
X106171429Y-76171428D01*
X106114286Y-76200000D01*
X106085714Y-76228571D01*
X106057143Y-76285714D01*
X106057143Y-76342857D01*
X106085714Y-76400000D01*
X106114286Y-76428571D01*
X106171429Y-76457142D01*
X106371429Y-76457142D01*
X105771429Y-76771428D02*
X105771429Y-76371428D01*
X105771429Y-76171428D02*
X105800000Y-76200000D01*
X105771429Y-76228571D01*
X105742857Y-76200000D01*
X105771429Y-76171428D01*
X105771429Y-76228571D01*
X105514286Y-76742857D02*
X105428572Y-76771428D01*
X105285714Y-76771428D01*
X105228572Y-76742857D01*
X105200000Y-76714285D01*
X105171429Y-76657142D01*
X105171429Y-76600000D01*
X105200000Y-76542857D01*
X105228572Y-76514285D01*
X105285714Y-76485714D01*
X105400000Y-76457142D01*
X105457143Y-76428571D01*
X105485714Y-76400000D01*
X105514286Y-76342857D01*
X105514286Y-76285714D01*
X105485714Y-76228571D01*
X105457143Y-76200000D01*
X105400000Y-76171428D01*
X105257143Y-76171428D01*
X105171429Y-76200000D01*
X104942857Y-76742857D02*
X104857143Y-76771428D01*
X104714286Y-76771428D01*
X104657143Y-76742857D01*
X104628572Y-76714285D01*
X104600000Y-76657142D01*
X104600000Y-76600000D01*
X104628572Y-76542857D01*
X104657143Y-76514285D01*
X104714286Y-76485714D01*
X104828572Y-76457142D01*
X104885714Y-76428571D01*
X104914286Y-76400000D01*
X104942857Y-76342857D01*
X104942857Y-76285714D01*
X104914286Y-76228571D01*
X104885714Y-76200000D01*
X104828572Y-76171428D01*
X104685714Y-76171428D01*
X104600000Y-76200000D01*
X132614285Y-86542857D02*
X132528571Y-86571428D01*
X132385714Y-86571428D01*
X132328571Y-86542857D01*
X132300000Y-86514285D01*
X132271428Y-86457142D01*
X132271428Y-86400000D01*
X132300000Y-86342857D01*
X132328571Y-86314285D01*
X132385714Y-86285714D01*
X132500000Y-86257142D01*
X132557142Y-86228571D01*
X132585714Y-86200000D01*
X132614285Y-86142857D01*
X132614285Y-86085714D01*
X132585714Y-86028571D01*
X132557142Y-86000000D01*
X132500000Y-85971428D01*
X132357142Y-85971428D01*
X132271428Y-86000000D01*
X132014285Y-86571428D02*
X132014285Y-85971428D01*
X131785714Y-85971428D01*
X131728571Y-86000000D01*
X131700000Y-86028571D01*
X131671428Y-86085714D01*
X131671428Y-86171428D01*
X131700000Y-86228571D01*
X131728571Y-86257142D01*
X131785714Y-86285714D01*
X132014285Y-86285714D01*
X131414285Y-86571428D02*
X131414285Y-85971428D01*
X132228571Y-85471428D02*
X132428571Y-85185714D01*
X132571428Y-85471428D02*
X132571428Y-84871428D01*
X132342857Y-84871428D01*
X132285714Y-84900000D01*
X132257142Y-84928571D01*
X132228571Y-84985714D01*
X132228571Y-85071428D01*
X132257142Y-85128571D01*
X132285714Y-85157142D01*
X132342857Y-85185714D01*
X132571428Y-85185714D01*
X132000000Y-85442857D02*
X131914285Y-85471428D01*
X131771428Y-85471428D01*
X131714285Y-85442857D01*
X131685714Y-85414285D01*
X131657142Y-85357142D01*
X131657142Y-85300000D01*
X131685714Y-85242857D01*
X131714285Y-85214285D01*
X131771428Y-85185714D01*
X131885714Y-85157142D01*
X131942857Y-85128571D01*
X131971428Y-85100000D01*
X132000000Y-85042857D01*
X132000000Y-84985714D01*
X131971428Y-84928571D01*
X131942857Y-84900000D01*
X131885714Y-84871428D01*
X131742857Y-84871428D01*
X131657142Y-84900000D01*
X131400000Y-85242857D02*
X130942857Y-85242857D01*
X130400000Y-85071428D02*
X130400000Y-85471428D01*
X130542857Y-84842857D02*
X130685714Y-85271428D01*
X130314285Y-85271428D01*
X130000000Y-85128571D02*
X130057142Y-85100000D01*
X130085714Y-85071428D01*
X130114285Y-85014285D01*
X130114285Y-84985714D01*
X130085714Y-84928571D01*
X130057142Y-84900000D01*
X130000000Y-84871428D01*
X129885714Y-84871428D01*
X129828571Y-84900000D01*
X129800000Y-84928571D01*
X129771428Y-84985714D01*
X129771428Y-85014285D01*
X129800000Y-85071428D01*
X129828571Y-85100000D01*
X129885714Y-85128571D01*
X130000000Y-85128571D01*
X130057142Y-85157142D01*
X130085714Y-85185714D01*
X130114285Y-85242857D01*
X130114285Y-85357142D01*
X130085714Y-85414285D01*
X130057142Y-85442857D01*
X130000000Y-85471428D01*
X129885714Y-85471428D01*
X129828571Y-85442857D01*
X129800000Y-85414285D01*
X129771428Y-85357142D01*
X129771428Y-85242857D01*
X129800000Y-85185714D01*
X129828571Y-85157142D01*
X129885714Y-85128571D01*
X129228571Y-84871428D02*
X129514285Y-84871428D01*
X129542857Y-85157142D01*
X129514285Y-85128571D01*
X129457142Y-85100000D01*
X129314285Y-85100000D01*
X129257142Y-85128571D01*
X129228571Y-85157142D01*
X129200000Y-85214285D01*
X129200000Y-85357142D01*
X129228571Y-85414285D01*
X129257142Y-85442857D01*
X129314285Y-85471428D01*
X129457142Y-85471428D01*
X129514285Y-85442857D01*
X129542857Y-85414285D01*
X132614285Y-83432857D02*
X132528571Y-83461428D01*
X132385714Y-83461428D01*
X132328571Y-83432857D01*
X132300000Y-83404285D01*
X132271428Y-83347142D01*
X132271428Y-83290000D01*
X132300000Y-83232857D01*
X132328571Y-83204285D01*
X132385714Y-83175714D01*
X132500000Y-83147142D01*
X132557142Y-83118571D01*
X132585714Y-83090000D01*
X132614285Y-83032857D01*
X132614285Y-82975714D01*
X132585714Y-82918571D01*
X132557142Y-82890000D01*
X132500000Y-82861428D01*
X132357142Y-82861428D01*
X132271428Y-82890000D01*
X132042857Y-83432857D02*
X131957142Y-83461428D01*
X131814285Y-83461428D01*
X131757142Y-83432857D01*
X131728571Y-83404285D01*
X131700000Y-83347142D01*
X131700000Y-83290000D01*
X131728571Y-83232857D01*
X131757142Y-83204285D01*
X131814285Y-83175714D01*
X131928571Y-83147142D01*
X131985714Y-83118571D01*
X132014285Y-83090000D01*
X132042857Y-83032857D01*
X132042857Y-82975714D01*
X132014285Y-82918571D01*
X131985714Y-82890000D01*
X131928571Y-82861428D01*
X131785714Y-82861428D01*
X131700000Y-82890000D01*
X131442857Y-83461428D02*
X131442857Y-82861428D01*
X130728571Y-82832857D02*
X131242857Y-83604285D01*
X132371428Y-84167142D02*
X132285714Y-84195714D01*
X132257142Y-84224285D01*
X132228571Y-84281428D01*
X132228571Y-84367142D01*
X132257142Y-84424285D01*
X132285714Y-84452857D01*
X132342857Y-84481428D01*
X132571428Y-84481428D01*
X132571428Y-83881428D01*
X132371428Y-83881428D01*
X132314285Y-83910000D01*
X132285714Y-83938571D01*
X132257142Y-83995714D01*
X132257142Y-84052857D01*
X132285714Y-84110000D01*
X132314285Y-84138571D01*
X132371428Y-84167142D01*
X132571428Y-84167142D01*
X131971428Y-84481428D02*
X131971428Y-84081428D01*
X131971428Y-83881428D02*
X132000000Y-83910000D01*
X131971428Y-83938571D01*
X131942857Y-83910000D01*
X131971428Y-83881428D01*
X131971428Y-83938571D01*
X131714285Y-84452857D02*
X131628571Y-84481428D01*
X131485714Y-84481428D01*
X131428571Y-84452857D01*
X131400000Y-84424285D01*
X131371428Y-84367142D01*
X131371428Y-84310000D01*
X131400000Y-84252857D01*
X131428571Y-84224285D01*
X131485714Y-84195714D01*
X131600000Y-84167142D01*
X131657142Y-84138571D01*
X131685714Y-84110000D01*
X131714285Y-84052857D01*
X131714285Y-83995714D01*
X131685714Y-83938571D01*
X131657142Y-83910000D01*
X131600000Y-83881428D01*
X131457142Y-83881428D01*
X131371428Y-83910000D01*
X131142857Y-84452857D02*
X131057142Y-84481428D01*
X130914285Y-84481428D01*
X130857142Y-84452857D01*
X130828571Y-84424285D01*
X130800000Y-84367142D01*
X130800000Y-84310000D01*
X130828571Y-84252857D01*
X130857142Y-84224285D01*
X130914285Y-84195714D01*
X131028571Y-84167142D01*
X131085714Y-84138571D01*
X131114285Y-84110000D01*
X131142857Y-84052857D01*
X131142857Y-83995714D01*
X131114285Y-83938571D01*
X131085714Y-83910000D01*
X131028571Y-83881428D01*
X130885714Y-83881428D01*
X130800000Y-83910000D01*
X118714285Y-86542857D02*
X118628571Y-86571428D01*
X118485714Y-86571428D01*
X118428571Y-86542857D01*
X118400000Y-86514285D01*
X118371428Y-86457142D01*
X118371428Y-86400000D01*
X118400000Y-86342857D01*
X118428571Y-86314285D01*
X118485714Y-86285714D01*
X118600000Y-86257142D01*
X118657142Y-86228571D01*
X118685714Y-86200000D01*
X118714285Y-86142857D01*
X118714285Y-86085714D01*
X118685714Y-86028571D01*
X118657142Y-86000000D01*
X118600000Y-85971428D01*
X118457142Y-85971428D01*
X118371428Y-86000000D01*
X118114285Y-86571428D02*
X118114285Y-85971428D01*
X117885714Y-85971428D01*
X117828571Y-86000000D01*
X117800000Y-86028571D01*
X117771428Y-86085714D01*
X117771428Y-86171428D01*
X117800000Y-86228571D01*
X117828571Y-86257142D01*
X117885714Y-86285714D01*
X118114285Y-86285714D01*
X117514285Y-86571428D02*
X117514285Y-85971428D01*
X120428571Y-85271428D02*
X120628571Y-84985714D01*
X120771428Y-85271428D02*
X120771428Y-84671428D01*
X120542857Y-84671428D01*
X120485714Y-84700000D01*
X120457142Y-84728571D01*
X120428571Y-84785714D01*
X120428571Y-84871428D01*
X120457142Y-84928571D01*
X120485714Y-84957142D01*
X120542857Y-84985714D01*
X120771428Y-84985714D01*
X120200000Y-85242857D02*
X120114285Y-85271428D01*
X119971428Y-85271428D01*
X119914285Y-85242857D01*
X119885714Y-85214285D01*
X119857142Y-85157142D01*
X119857142Y-85100000D01*
X119885714Y-85042857D01*
X119914285Y-85014285D01*
X119971428Y-84985714D01*
X120085714Y-84957142D01*
X120142857Y-84928571D01*
X120171428Y-84900000D01*
X120200000Y-84842857D01*
X120200000Y-84785714D01*
X120171428Y-84728571D01*
X120142857Y-84700000D01*
X120085714Y-84671428D01*
X119942857Y-84671428D01*
X119857142Y-84700000D01*
X119600000Y-85042857D02*
X119142857Y-85042857D01*
X118600000Y-84871428D02*
X118600000Y-85271428D01*
X118742857Y-84642857D02*
X118885714Y-85071428D01*
X118514285Y-85071428D01*
X118200000Y-84928571D02*
X118257142Y-84900000D01*
X118285714Y-84871428D01*
X118314285Y-84814285D01*
X118314285Y-84785714D01*
X118285714Y-84728571D01*
X118257142Y-84700000D01*
X118200000Y-84671428D01*
X118085714Y-84671428D01*
X118028571Y-84700000D01*
X118000000Y-84728571D01*
X117971428Y-84785714D01*
X117971428Y-84814285D01*
X118000000Y-84871428D01*
X118028571Y-84900000D01*
X118085714Y-84928571D01*
X118200000Y-84928571D01*
X118257142Y-84957142D01*
X118285714Y-84985714D01*
X118314285Y-85042857D01*
X118314285Y-85157142D01*
X118285714Y-85214285D01*
X118257142Y-85242857D01*
X118200000Y-85271428D01*
X118085714Y-85271428D01*
X118028571Y-85242857D01*
X118000000Y-85214285D01*
X117971428Y-85157142D01*
X117971428Y-85042857D01*
X118000000Y-84985714D01*
X118028571Y-84957142D01*
X118085714Y-84928571D01*
X117428571Y-84671428D02*
X117714285Y-84671428D01*
X117742857Y-84957142D01*
X117714285Y-84928571D01*
X117657142Y-84900000D01*
X117514285Y-84900000D01*
X117457142Y-84928571D01*
X117428571Y-84957142D01*
X117400000Y-85014285D01*
X117400000Y-85157142D01*
X117428571Y-85214285D01*
X117457142Y-85242857D01*
X117514285Y-85271428D01*
X117657142Y-85271428D01*
X117714285Y-85242857D01*
X117742857Y-85214285D01*
X121228571Y-83842857D02*
X121142857Y-83871428D01*
X121000000Y-83871428D01*
X120942857Y-83842857D01*
X120914285Y-83814285D01*
X120885714Y-83757142D01*
X120885714Y-83700000D01*
X120914285Y-83642857D01*
X120942857Y-83614285D01*
X121000000Y-83585714D01*
X121114285Y-83557142D01*
X121171428Y-83528571D01*
X121200000Y-83500000D01*
X121228571Y-83442857D01*
X121228571Y-83385714D01*
X121200000Y-83328571D01*
X121171428Y-83300000D01*
X121114285Y-83271428D01*
X120971428Y-83271428D01*
X120885714Y-83300000D01*
X120657142Y-83842857D02*
X120571428Y-83871428D01*
X120428571Y-83871428D01*
X120371428Y-83842857D01*
X120342857Y-83814285D01*
X120314285Y-83757142D01*
X120314285Y-83700000D01*
X120342857Y-83642857D01*
X120371428Y-83614285D01*
X120428571Y-83585714D01*
X120542857Y-83557142D01*
X120600000Y-83528571D01*
X120628571Y-83500000D01*
X120657142Y-83442857D01*
X120657142Y-83385714D01*
X120628571Y-83328571D01*
X120600000Y-83300000D01*
X120542857Y-83271428D01*
X120400000Y-83271428D01*
X120314285Y-83300000D01*
X120057142Y-83871428D02*
X120057142Y-83271428D01*
X119342857Y-83242857D02*
X119857142Y-84014285D01*
X118942857Y-83557142D02*
X118857142Y-83585714D01*
X118828571Y-83614285D01*
X118800000Y-83671428D01*
X118800000Y-83757142D01*
X118828571Y-83814285D01*
X118857142Y-83842857D01*
X118914285Y-83871428D01*
X119142857Y-83871428D01*
X119142857Y-83271428D01*
X118942857Y-83271428D01*
X118885714Y-83300000D01*
X118857142Y-83328571D01*
X118828571Y-83385714D01*
X118828571Y-83442857D01*
X118857142Y-83500000D01*
X118885714Y-83528571D01*
X118942857Y-83557142D01*
X119142857Y-83557142D01*
X118542857Y-83871428D02*
X118542857Y-83471428D01*
X118542857Y-83271428D02*
X118571428Y-83300000D01*
X118542857Y-83328571D01*
X118514285Y-83300000D01*
X118542857Y-83271428D01*
X118542857Y-83328571D01*
X118285714Y-83842857D02*
X118200000Y-83871428D01*
X118057142Y-83871428D01*
X118000000Y-83842857D01*
X117971428Y-83814285D01*
X117942857Y-83757142D01*
X117942857Y-83700000D01*
X117971428Y-83642857D01*
X118000000Y-83614285D01*
X118057142Y-83585714D01*
X118171428Y-83557142D01*
X118228571Y-83528571D01*
X118257142Y-83500000D01*
X118285714Y-83442857D01*
X118285714Y-83385714D01*
X118257142Y-83328571D01*
X118228571Y-83300000D01*
X118171428Y-83271428D01*
X118028571Y-83271428D01*
X117942857Y-83300000D01*
X117714285Y-83842857D02*
X117628571Y-83871428D01*
X117485714Y-83871428D01*
X117428571Y-83842857D01*
X117400000Y-83814285D01*
X117371428Y-83757142D01*
X117371428Y-83700000D01*
X117400000Y-83642857D01*
X117428571Y-83614285D01*
X117485714Y-83585714D01*
X117600000Y-83557142D01*
X117657142Y-83528571D01*
X117685714Y-83500000D01*
X117714285Y-83442857D01*
X117714285Y-83385714D01*
X117685714Y-83328571D01*
X117657142Y-83300000D01*
X117600000Y-83271428D01*
X117457142Y-83271428D01*
X117371428Y-83300000D01*
X111500000Y-77500000D02*
X111500000Y-80500000D01*
X113500000Y-78500000D02*
X114500000Y-78500000D01*
X114500000Y-80500000D02*
X115500000Y-80500000D01*
X113500000Y-79500000D02*
X114500000Y-79500000D01*
X110500000Y-80500000D02*
X110500000Y-79500000D01*
D11*
G36*
X115200000Y-79400000D02*
G01*
X114800000Y-79400000D01*
X114800000Y-77800000D01*
X115200000Y-77800000D01*
X115200000Y-79400000D01*
G37*
X115200000Y-79400000D02*
X114800000Y-79400000D01*
X114800000Y-77800000D01*
X115200000Y-77800000D01*
X115200000Y-79400000D01*
D10*
X114500000Y-78500000D02*
X114500000Y-77500000D01*
X113500000Y-79500000D02*
X113500000Y-78500000D01*
X109500000Y-78500000D02*
X110500000Y-78500000D01*
X114500000Y-77500000D02*
X115500000Y-77500000D01*
X110500000Y-78500000D02*
X110500000Y-77500000D01*
X110500000Y-77500000D02*
X111500000Y-77500000D01*
X110500000Y-80500000D02*
X111500000Y-80500000D01*
X115500000Y-77500000D02*
X115500000Y-80500000D01*
X109500000Y-79500000D02*
X110500000Y-79500000D01*
D11*
G36*
X111200000Y-79200000D02*
G01*
X109800000Y-79200000D01*
X109800000Y-78800000D01*
X111200000Y-78800000D01*
X111200000Y-79200000D01*
G37*
X111200000Y-79200000D02*
X109800000Y-79200000D01*
X109800000Y-78800000D01*
X111200000Y-78800000D01*
X111200000Y-79200000D01*
D10*
X109500000Y-79500000D02*
X109500000Y-78500000D01*
X107614285Y-81342857D02*
X107528571Y-81371428D01*
X107385714Y-81371428D01*
X107328571Y-81342857D01*
X107300000Y-81314285D01*
X107271428Y-81257142D01*
X107271428Y-81200000D01*
X107300000Y-81142857D01*
X107328571Y-81114285D01*
X107385714Y-81085714D01*
X107500000Y-81057142D01*
X107557142Y-81028571D01*
X107585714Y-81000000D01*
X107614285Y-80942857D01*
X107614285Y-80885714D01*
X107585714Y-80828571D01*
X107557142Y-80800000D01*
X107500000Y-80771428D01*
X107357142Y-80771428D01*
X107271428Y-80800000D01*
X107014285Y-81371428D02*
X107014285Y-80771428D01*
X106785714Y-80771428D01*
X106728571Y-80800000D01*
X106700000Y-80828571D01*
X106671428Y-80885714D01*
X106671428Y-80971428D01*
X106700000Y-81028571D01*
X106728571Y-81057142D01*
X106785714Y-81085714D01*
X107014285Y-81085714D01*
X106414285Y-81371428D02*
X106414285Y-80771428D01*
X112328571Y-81371428D02*
X112528571Y-81085714D01*
X112671428Y-81371428D02*
X112671428Y-80771428D01*
X112442857Y-80771428D01*
X112385714Y-80800000D01*
X112357142Y-80828571D01*
X112328571Y-80885714D01*
X112328571Y-80971428D01*
X112357142Y-81028571D01*
X112385714Y-81057142D01*
X112442857Y-81085714D01*
X112671428Y-81085714D01*
X112100000Y-81342857D02*
X112014285Y-81371428D01*
X111871428Y-81371428D01*
X111814285Y-81342857D01*
X111785714Y-81314285D01*
X111757142Y-81257142D01*
X111757142Y-81200000D01*
X111785714Y-81142857D01*
X111814285Y-81114285D01*
X111871428Y-81085714D01*
X111985714Y-81057142D01*
X112042857Y-81028571D01*
X112071428Y-81000000D01*
X112100000Y-80942857D01*
X112100000Y-80885714D01*
X112071428Y-80828571D01*
X112042857Y-80800000D01*
X111985714Y-80771428D01*
X111842857Y-80771428D01*
X111757142Y-80800000D01*
X111500000Y-81142857D02*
X111042857Y-81142857D01*
X110500000Y-80971428D02*
X110500000Y-81371428D01*
X110642857Y-80742857D02*
X110785714Y-81171428D01*
X110414285Y-81171428D01*
X110100000Y-81028571D02*
X110157142Y-81000000D01*
X110185714Y-80971428D01*
X110214285Y-80914285D01*
X110214285Y-80885714D01*
X110185714Y-80828571D01*
X110157142Y-80800000D01*
X110100000Y-80771428D01*
X109985714Y-80771428D01*
X109928571Y-80800000D01*
X109900000Y-80828571D01*
X109871428Y-80885714D01*
X109871428Y-80914285D01*
X109900000Y-80971428D01*
X109928571Y-81000000D01*
X109985714Y-81028571D01*
X110100000Y-81028571D01*
X110157142Y-81057142D01*
X110185714Y-81085714D01*
X110214285Y-81142857D01*
X110214285Y-81257142D01*
X110185714Y-81314285D01*
X110157142Y-81342857D01*
X110100000Y-81371428D01*
X109985714Y-81371428D01*
X109928571Y-81342857D01*
X109900000Y-81314285D01*
X109871428Y-81257142D01*
X109871428Y-81142857D01*
X109900000Y-81085714D01*
X109928571Y-81057142D01*
X109985714Y-81028571D01*
X109328571Y-80771428D02*
X109614285Y-80771428D01*
X109642857Y-81057142D01*
X109614285Y-81028571D01*
X109557142Y-81000000D01*
X109414285Y-81000000D01*
X109357142Y-81028571D01*
X109328571Y-81057142D01*
X109300000Y-81114285D01*
X109300000Y-81257142D01*
X109328571Y-81314285D01*
X109357142Y-81342857D01*
X109414285Y-81371428D01*
X109557142Y-81371428D01*
X109614285Y-81342857D01*
X109642857Y-81314285D01*
X116928571Y-77142857D02*
X116842857Y-77171428D01*
X116700000Y-77171428D01*
X116642857Y-77142857D01*
X116614285Y-77114285D01*
X116585714Y-77057142D01*
X116585714Y-77000000D01*
X116614285Y-76942857D01*
X116642857Y-76914285D01*
X116700000Y-76885714D01*
X116814285Y-76857142D01*
X116871428Y-76828571D01*
X116900000Y-76800000D01*
X116928571Y-76742857D01*
X116928571Y-76685714D01*
X116900000Y-76628571D01*
X116871428Y-76600000D01*
X116814285Y-76571428D01*
X116671428Y-76571428D01*
X116585714Y-76600000D01*
X116357142Y-77142857D02*
X116271428Y-77171428D01*
X116128571Y-77171428D01*
X116071428Y-77142857D01*
X116042857Y-77114285D01*
X116014285Y-77057142D01*
X116014285Y-77000000D01*
X116042857Y-76942857D01*
X116071428Y-76914285D01*
X116128571Y-76885714D01*
X116242857Y-76857142D01*
X116300000Y-76828571D01*
X116328571Y-76800000D01*
X116357142Y-76742857D01*
X116357142Y-76685714D01*
X116328571Y-76628571D01*
X116300000Y-76600000D01*
X116242857Y-76571428D01*
X116100000Y-76571428D01*
X116014285Y-76600000D01*
X115757142Y-77171428D02*
X115757142Y-76571428D01*
X115042857Y-76542857D02*
X115557142Y-77314285D01*
X114642857Y-76857142D02*
X114557142Y-76885714D01*
X114528571Y-76914285D01*
X114500000Y-76971428D01*
X114500000Y-77057142D01*
X114528571Y-77114285D01*
X114557142Y-77142857D01*
X114614285Y-77171428D01*
X114842857Y-77171428D01*
X114842857Y-76571428D01*
X114642857Y-76571428D01*
X114585714Y-76600000D01*
X114557142Y-76628571D01*
X114528571Y-76685714D01*
X114528571Y-76742857D01*
X114557142Y-76800000D01*
X114585714Y-76828571D01*
X114642857Y-76857142D01*
X114842857Y-76857142D01*
X114242857Y-77171428D02*
X114242857Y-76771428D01*
X114242857Y-76571428D02*
X114271428Y-76600000D01*
X114242857Y-76628571D01*
X114214285Y-76600000D01*
X114242857Y-76571428D01*
X114242857Y-76628571D01*
X113985714Y-77142857D02*
X113900000Y-77171428D01*
X113757142Y-77171428D01*
X113700000Y-77142857D01*
X113671428Y-77114285D01*
X113642857Y-77057142D01*
X113642857Y-77000000D01*
X113671428Y-76942857D01*
X113700000Y-76914285D01*
X113757142Y-76885714D01*
X113871428Y-76857142D01*
X113928571Y-76828571D01*
X113957142Y-76800000D01*
X113985714Y-76742857D01*
X113985714Y-76685714D01*
X113957142Y-76628571D01*
X113928571Y-76600000D01*
X113871428Y-76571428D01*
X113728571Y-76571428D01*
X113642857Y-76600000D01*
X113414285Y-77142857D02*
X113328571Y-77171428D01*
X113185714Y-77171428D01*
X113128571Y-77142857D01*
X113100000Y-77114285D01*
X113071428Y-77057142D01*
X113071428Y-77000000D01*
X113100000Y-76942857D01*
X113128571Y-76914285D01*
X113185714Y-76885714D01*
X113300000Y-76857142D01*
X113357142Y-76828571D01*
X113385714Y-76800000D01*
X113414285Y-76742857D01*
X113414285Y-76685714D01*
X113385714Y-76628571D01*
X113357142Y-76600000D01*
X113300000Y-76571428D01*
X113157142Y-76571428D01*
X113071428Y-76600000D01*
X106500000Y-78500000D02*
X106500000Y-77500000D01*
X106500000Y-80500000D02*
X107500000Y-80500000D01*
X105500000Y-78500000D02*
X106500000Y-78500000D01*
X106500000Y-77500000D02*
X107500000Y-77500000D01*
X105500000Y-79500000D02*
X106500000Y-79500000D01*
X105500000Y-79500000D02*
X105500000Y-78500000D01*
D11*
G36*
X107200000Y-80200000D02*
G01*
X106800000Y-80200000D01*
X106800000Y-78600000D01*
X107200000Y-78600000D01*
X107200000Y-80200000D01*
G37*
X107200000Y-80200000D02*
X106800000Y-80200000D01*
X106800000Y-78600000D01*
X107200000Y-78600000D01*
X107200000Y-80200000D01*
D10*
X106500000Y-80500000D02*
X106500000Y-79500000D01*
X107500000Y-77500000D02*
X107500000Y-80500000D01*
X114500000Y-80500000D02*
X114500000Y-79500000D01*
D11*
G36*
X143200000Y-80200000D02*
G01*
X142800000Y-80200000D01*
X142800000Y-78600000D01*
X143200000Y-78600000D01*
X143200000Y-80200000D01*
G37*
X143200000Y-80200000D02*
X142800000Y-80200000D01*
X142800000Y-78600000D01*
X143200000Y-78600000D01*
X143200000Y-80200000D01*
D10*
X142500000Y-80500000D02*
X142500000Y-77500000D01*
X143500000Y-77500000D02*
X143500000Y-78500000D01*
X144500000Y-79500000D02*
X143500000Y-79500000D01*
X143500000Y-79500000D02*
X143500000Y-80500000D01*
X143500000Y-80500000D02*
X142500000Y-80500000D01*
X143500000Y-77500000D02*
X142500000Y-77500000D01*
X144500000Y-78500000D02*
X143500000Y-78500000D01*
X144500000Y-78500000D02*
X144500000Y-79500000D01*
X143614285Y-81342857D02*
X143528571Y-81371428D01*
X143385714Y-81371428D01*
X143328571Y-81342857D01*
X143300000Y-81314285D01*
X143271428Y-81257142D01*
X143271428Y-81200000D01*
X143300000Y-81142857D01*
X143328571Y-81114285D01*
X143385714Y-81085714D01*
X143500000Y-81057142D01*
X143557142Y-81028571D01*
X143585714Y-81000000D01*
X143614285Y-80942857D01*
X143614285Y-80885714D01*
X143585714Y-80828571D01*
X143557142Y-80800000D01*
X143500000Y-80771428D01*
X143357142Y-80771428D01*
X143271428Y-80800000D01*
X143014285Y-81371428D02*
X143014285Y-80771428D01*
X142785714Y-80771428D01*
X142728571Y-80800000D01*
X142700000Y-80828571D01*
X142671428Y-80885714D01*
X142671428Y-80971428D01*
X142700000Y-81028571D01*
X142728571Y-81057142D01*
X142785714Y-81085714D01*
X143014285Y-81085714D01*
X142414285Y-81371428D02*
X142414285Y-80771428D01*
X140500000Y-79500000D02*
X139500000Y-79500000D01*
X139500000Y-77500000D02*
X138500000Y-77500000D01*
X140500000Y-78500000D02*
X139500000Y-78500000D01*
D11*
G36*
X140200000Y-79200000D02*
G01*
X138800000Y-79200000D01*
X138800000Y-78800000D01*
X140200000Y-78800000D01*
X140200000Y-79200000D01*
G37*
X140200000Y-79200000D02*
X138800000Y-79200000D01*
X138800000Y-78800000D01*
X140200000Y-78800000D01*
X140200000Y-79200000D01*
D10*
X139500000Y-79500000D02*
X139500000Y-80500000D01*
X140500000Y-78500000D02*
X140500000Y-79500000D01*
X139500000Y-80500000D02*
X138500000Y-80500000D01*
X138500000Y-80500000D02*
X138500000Y-77500000D01*
X140328571Y-81371428D02*
X140528571Y-81085714D01*
X140671428Y-81371428D02*
X140671428Y-80771428D01*
X140442857Y-80771428D01*
X140385714Y-80800000D01*
X140357142Y-80828571D01*
X140328571Y-80885714D01*
X140328571Y-80971428D01*
X140357142Y-81028571D01*
X140385714Y-81057142D01*
X140442857Y-81085714D01*
X140671428Y-81085714D01*
X140100000Y-81342857D02*
X140014285Y-81371428D01*
X139871428Y-81371428D01*
X139814285Y-81342857D01*
X139785714Y-81314285D01*
X139757142Y-81257142D01*
X139757142Y-81200000D01*
X139785714Y-81142857D01*
X139814285Y-81114285D01*
X139871428Y-81085714D01*
X139985714Y-81057142D01*
X140042857Y-81028571D01*
X140071428Y-81000000D01*
X140100000Y-80942857D01*
X140100000Y-80885714D01*
X140071428Y-80828571D01*
X140042857Y-80800000D01*
X139985714Y-80771428D01*
X139842857Y-80771428D01*
X139757142Y-80800000D01*
X139500000Y-81142857D02*
X139042857Y-81142857D01*
X138500000Y-80971428D02*
X138500000Y-81371428D01*
X138642857Y-80742857D02*
X138785714Y-81171428D01*
X138414285Y-81171428D01*
X138100000Y-81028571D02*
X138157142Y-81000000D01*
X138185714Y-80971428D01*
X138214285Y-80914285D01*
X138214285Y-80885714D01*
X138185714Y-80828571D01*
X138157142Y-80800000D01*
X138100000Y-80771428D01*
X137985714Y-80771428D01*
X137928571Y-80800000D01*
X137900000Y-80828571D01*
X137871428Y-80885714D01*
X137871428Y-80914285D01*
X137900000Y-80971428D01*
X137928571Y-81000000D01*
X137985714Y-81028571D01*
X138100000Y-81028571D01*
X138157142Y-81057142D01*
X138185714Y-81085714D01*
X138214285Y-81142857D01*
X138214285Y-81257142D01*
X138185714Y-81314285D01*
X138157142Y-81342857D01*
X138100000Y-81371428D01*
X137985714Y-81371428D01*
X137928571Y-81342857D01*
X137900000Y-81314285D01*
X137871428Y-81257142D01*
X137871428Y-81142857D01*
X137900000Y-81085714D01*
X137928571Y-81057142D01*
X137985714Y-81028571D01*
X137328571Y-80771428D02*
X137614285Y-80771428D01*
X137642857Y-81057142D01*
X137614285Y-81028571D01*
X137557142Y-81000000D01*
X137414285Y-81000000D01*
X137357142Y-81028571D01*
X137328571Y-81057142D01*
X137300000Y-81114285D01*
X137300000Y-81257142D01*
X137328571Y-81314285D01*
X137357142Y-81342857D01*
X137414285Y-81371428D01*
X137557142Y-81371428D01*
X137614285Y-81342857D01*
X137642857Y-81314285D01*
X139500000Y-77500000D02*
X139500000Y-78500000D01*
X136928571Y-77142857D02*
X136842857Y-77171428D01*
X136700000Y-77171428D01*
X136642857Y-77142857D01*
X136614285Y-77114285D01*
X136585714Y-77057142D01*
X136585714Y-77000000D01*
X136614285Y-76942857D01*
X136642857Y-76914285D01*
X136700000Y-76885714D01*
X136814285Y-76857142D01*
X136871428Y-76828571D01*
X136900000Y-76800000D01*
X136928571Y-76742857D01*
X136928571Y-76685714D01*
X136900000Y-76628571D01*
X136871428Y-76600000D01*
X136814285Y-76571428D01*
X136671428Y-76571428D01*
X136585714Y-76600000D01*
X136357142Y-77142857D02*
X136271428Y-77171428D01*
X136128571Y-77171428D01*
X136071428Y-77142857D01*
X136042857Y-77114285D01*
X136014285Y-77057142D01*
X136014285Y-77000000D01*
X136042857Y-76942857D01*
X136071428Y-76914285D01*
X136128571Y-76885714D01*
X136242857Y-76857142D01*
X136300000Y-76828571D01*
X136328571Y-76800000D01*
X136357142Y-76742857D01*
X136357142Y-76685714D01*
X136328571Y-76628571D01*
X136300000Y-76600000D01*
X136242857Y-76571428D01*
X136100000Y-76571428D01*
X136014285Y-76600000D01*
X135757142Y-77171428D02*
X135757142Y-76571428D01*
X135042857Y-76542857D02*
X135557142Y-77314285D01*
X134642857Y-76857142D02*
X134557142Y-76885714D01*
X134528571Y-76914285D01*
X134500000Y-76971428D01*
X134500000Y-77057142D01*
X134528571Y-77114285D01*
X134557142Y-77142857D01*
X134614285Y-77171428D01*
X134842857Y-77171428D01*
X134842857Y-76571428D01*
X134642857Y-76571428D01*
X134585714Y-76600000D01*
X134557142Y-76628571D01*
X134528571Y-76685714D01*
X134528571Y-76742857D01*
X134557142Y-76800000D01*
X134585714Y-76828571D01*
X134642857Y-76857142D01*
X134842857Y-76857142D01*
X134242857Y-77171428D02*
X134242857Y-76771428D01*
X134242857Y-76571428D02*
X134271428Y-76600000D01*
X134242857Y-76628571D01*
X134214285Y-76600000D01*
X134242857Y-76571428D01*
X134242857Y-76628571D01*
X133985714Y-77142857D02*
X133900000Y-77171428D01*
X133757142Y-77171428D01*
X133700000Y-77142857D01*
X133671428Y-77114285D01*
X133642857Y-77057142D01*
X133642857Y-77000000D01*
X133671428Y-76942857D01*
X133700000Y-76914285D01*
X133757142Y-76885714D01*
X133871428Y-76857142D01*
X133928571Y-76828571D01*
X133957142Y-76800000D01*
X133985714Y-76742857D01*
X133985714Y-76685714D01*
X133957142Y-76628571D01*
X133928571Y-76600000D01*
X133871428Y-76571428D01*
X133728571Y-76571428D01*
X133642857Y-76600000D01*
X133414285Y-77142857D02*
X133328571Y-77171428D01*
X133185714Y-77171428D01*
X133128571Y-77142857D01*
X133100000Y-77114285D01*
X133071428Y-77057142D01*
X133071428Y-77000000D01*
X133100000Y-76942857D01*
X133128571Y-76914285D01*
X133185714Y-76885714D01*
X133300000Y-76857142D01*
X133357142Y-76828571D01*
X133385714Y-76800000D01*
X133414285Y-76742857D01*
X133414285Y-76685714D01*
X133385714Y-76628571D01*
X133357142Y-76600000D01*
X133300000Y-76571428D01*
X133157142Y-76571428D01*
X133071428Y-76600000D01*
D11*
G36*
X135200000Y-79400000D02*
G01*
X134800000Y-79400000D01*
X134800000Y-77800000D01*
X135200000Y-77800000D01*
X135200000Y-79400000D01*
G37*
X135200000Y-79400000D02*
X134800000Y-79400000D01*
X134800000Y-77800000D01*
X135200000Y-77800000D01*
X135200000Y-79400000D01*
D10*
X134500000Y-80500000D02*
X134500000Y-77500000D01*
X135500000Y-77500000D02*
X134500000Y-77500000D01*
X135500000Y-80500000D02*
X134500000Y-80500000D01*
X135500000Y-79500000D02*
X135500000Y-80500000D01*
X136500000Y-78500000D02*
X136500000Y-79500000D01*
X136500000Y-79500000D02*
X135500000Y-79500000D01*
X136500000Y-78500000D02*
X135500000Y-78500000D01*
X135500000Y-77500000D02*
X135500000Y-78500000D01*
D12*
%TO.C,U10*%
X111930401Y-85569600D02*
X111930401Y-86065259D01*
X111930401Y-89430400D02*
X111434742Y-89430400D01*
X108069601Y-89430400D02*
X108069601Y-88934741D01*
X108069601Y-85569600D02*
X108565260Y-85569600D01*
X111434742Y-85569600D02*
X111930401Y-85569600D01*
X111930401Y-88934741D02*
X111930401Y-89430400D01*
X108565260Y-89430400D02*
X108069601Y-89430400D01*
X108069601Y-86065259D02*
X108069601Y-85569600D01*
%TO.C,U8*%
X122320300Y-72789419D02*
X122320300Y-72320300D01*
X122789419Y-77679700D02*
X122320300Y-77679700D01*
X127679700Y-77210581D02*
X127679700Y-77679700D01*
X127210581Y-72320300D02*
X127679700Y-72320300D01*
X122320300Y-72320300D02*
X122789419Y-72320300D01*
X122320300Y-77679700D02*
X122320300Y-77210581D01*
X127679700Y-77679700D02*
X127210581Y-77679700D01*
X127679700Y-72320300D02*
X127679700Y-72789419D01*
D13*
%TO.C,J5*%
X152000000Y-73500000D02*
X152000000Y-56500000D01*
X131500000Y-56500000D02*
X152000000Y-56500000D01*
X131500000Y-73500000D02*
X131500000Y-72500000D01*
X131500000Y-72500000D02*
X130000000Y-72500000D01*
X152000000Y-73500000D02*
X131500000Y-73500000D01*
X131500000Y-56500000D02*
X131500000Y-57500000D01*
%TO.C,J4*%
X98000000Y-56500000D02*
X98000000Y-73500000D01*
X118500000Y-73500000D02*
X98000000Y-73500000D01*
X118500000Y-56500000D02*
X118500000Y-57500000D01*
X118500000Y-57500000D02*
X120000000Y-57500000D01*
X98000000Y-56500000D02*
X118500000Y-56500000D01*
X118500000Y-73500000D02*
X118500000Y-72500000D01*
D12*
%TO.C,U2*%
X112550000Y-54400000D02*
X112550000Y-55100000D01*
X110950000Y-55600000D02*
X110950000Y-54400000D01*
%TO.C,U5*%
X129100000Y-55050000D02*
X129100000Y-53850000D01*
X130700000Y-53850000D02*
X130700000Y-54550000D01*
%TO.C,U7*%
X120900000Y-75000000D02*
X120900000Y-76200000D01*
X119300000Y-76200000D02*
X119300000Y-75500000D01*
D10*
%TO.C,C21*%
X105490000Y-54262779D02*
X105490000Y-53937221D01*
X106510000Y-54262779D02*
X106510000Y-53937221D01*
%TO.C,C34*%
X143490000Y-54262779D02*
X143490000Y-53937221D01*
X144510000Y-54262779D02*
X144510000Y-53937221D01*
%TO.C,D1*%
X125200000Y-85300000D02*
X124800000Y-85300000D01*
D11*
%TO.C,D2*%
X112800000Y-53090000D02*
G75*
G03*
X112800000Y-53090000I-50000J0D01*
G01*
%TO.C,D3*%
X110800000Y-53090000D02*
G75*
G03*
X110800000Y-53090000I-50000J0D01*
G01*
D10*
%TO.C,FB2*%
X127742779Y-60920000D02*
X127417221Y-60920000D01*
X127742779Y-61940000D02*
X127417221Y-61940000D01*
%TO.C,FB3*%
X122262221Y-68060000D02*
X122587779Y-68060000D01*
X122262221Y-69080000D02*
X122587779Y-69080000D01*
%TO.C,J1*%
X126000000Y-90650000D02*
X127200000Y-90650000D01*
X126000000Y-90950000D02*
X126000000Y-90650000D01*
X125250000Y-90950000D02*
X126000000Y-90950000D01*
X125250000Y-90650000D02*
X125250000Y-90950000D01*
X124750000Y-90650000D02*
X125250000Y-90650000D01*
X124750000Y-90950000D02*
X124750000Y-90650000D01*
X124000000Y-90950000D02*
X124750000Y-90950000D01*
X124000000Y-90650000D02*
X124000000Y-90950000D01*
X122800000Y-90650000D02*
X124000000Y-90650000D01*
X127200000Y-90650000D02*
X127200000Y-91100000D01*
X127500000Y-90650000D02*
X127200000Y-90650000D01*
X127500000Y-89550000D02*
X127500000Y-90650000D01*
X127800000Y-89550000D02*
X127500000Y-89550000D01*
X122800000Y-90650000D02*
X122800000Y-91100000D01*
X122500000Y-90650000D02*
X122800000Y-90650000D01*
X122500000Y-89550000D02*
X122500000Y-90650000D01*
X122200000Y-89550000D02*
X122500000Y-89550000D01*
X127500000Y-88800000D02*
X127800000Y-88800000D01*
X127500000Y-87800000D02*
X127500000Y-88800000D01*
X122500000Y-87800000D02*
X127500000Y-87800000D01*
X122500000Y-88800000D02*
X122500000Y-87800000D01*
X122200000Y-88800000D02*
X122500000Y-88800000D01*
X121890000Y-87190000D02*
X123800000Y-87190000D01*
X121890000Y-89100000D02*
X121890000Y-87190000D01*
X127800000Y-91100000D02*
X122200000Y-91100000D01*
X127800000Y-87500000D02*
X127800000Y-91100000D01*
X122200000Y-87500000D02*
X127800000Y-87500000D01*
X122200000Y-91100000D02*
X122200000Y-87500000D01*
%TO.C,J6*%
X104950000Y-99600000D02*
X104950000Y-96000000D01*
X104950000Y-96000000D02*
X111800000Y-96000000D01*
X111800000Y-96000000D02*
X111800000Y-99600000D01*
X111800000Y-99600000D02*
X104950000Y-99600000D01*
X104640000Y-97600000D02*
X104640000Y-95690000D01*
X104640000Y-95690000D02*
X106550000Y-95690000D01*
X104950000Y-97300000D02*
X105250000Y-97300000D01*
X105250000Y-97300000D02*
X105250000Y-96300000D01*
X105250000Y-96300000D02*
X111500000Y-96300000D01*
X111500000Y-96300000D02*
X111500000Y-97300000D01*
X111500000Y-97300000D02*
X111800000Y-97300000D01*
X104950000Y-98050000D02*
X105250000Y-98050000D01*
X105250000Y-98050000D02*
X105250000Y-99150000D01*
X105250000Y-99150000D02*
X105550000Y-99150000D01*
X105550000Y-99150000D02*
X105550000Y-99600000D01*
X111800000Y-98050000D02*
X111500000Y-98050000D01*
X111500000Y-98050000D02*
X111500000Y-99150000D01*
X111500000Y-99150000D02*
X111200000Y-99150000D01*
X111200000Y-99150000D02*
X111200000Y-99600000D01*
X105550000Y-99150000D02*
X106750000Y-99150000D01*
X106750000Y-99150000D02*
X106750000Y-99450000D01*
X106750000Y-99450000D02*
X107500000Y-99450000D01*
X107500000Y-99450000D02*
X107500000Y-99150000D01*
X107500000Y-99150000D02*
X109250000Y-99150000D01*
X109250000Y-99150000D02*
X109250000Y-99450000D01*
X109250000Y-99450000D02*
X110000000Y-99450000D01*
X110000000Y-99450000D02*
X110000000Y-99150000D01*
X110000000Y-99150000D02*
X111200000Y-99150000D01*
%TO.C,J7*%
X100400000Y-85700000D02*
X104000000Y-85700000D01*
X104000000Y-85700000D02*
X104000000Y-95050000D01*
X104000000Y-95050000D02*
X100400000Y-95050000D01*
X100400000Y-95050000D02*
X100400000Y-85700000D01*
X102400000Y-85390000D02*
X104310000Y-85390000D01*
X104310000Y-85390000D02*
X104310000Y-87300000D01*
X102700000Y-85700000D02*
X102700000Y-86000000D01*
X102700000Y-86000000D02*
X103700000Y-86000000D01*
X103700000Y-86000000D02*
X103700000Y-94750000D01*
X103700000Y-94750000D02*
X102700000Y-94750000D01*
X102700000Y-94750000D02*
X102700000Y-95050000D01*
X101950000Y-85700000D02*
X101950000Y-86000000D01*
X101950000Y-86000000D02*
X100850000Y-86000000D01*
X100850000Y-86000000D02*
X100850000Y-86300000D01*
X100850000Y-86300000D02*
X100400000Y-86300000D01*
X101950000Y-95050000D02*
X101950000Y-94750000D01*
X101950000Y-94750000D02*
X100850000Y-94750000D01*
X100850000Y-94750000D02*
X100850000Y-94450000D01*
X100850000Y-94450000D02*
X100400000Y-94450000D01*
X100850000Y-86300000D02*
X100850000Y-87500000D01*
X100850000Y-87500000D02*
X100550000Y-87500000D01*
X100550000Y-87500000D02*
X100550000Y-88250000D01*
X100550000Y-88250000D02*
X100850000Y-88250000D01*
X100850000Y-88250000D02*
X100850000Y-92500000D01*
X100850000Y-92500000D02*
X100550000Y-92500000D01*
X100550000Y-92500000D02*
X100550000Y-93250000D01*
X100550000Y-93250000D02*
X100850000Y-93250000D01*
X100850000Y-93250000D02*
X100850000Y-94450000D01*
%TO.C,J9*%
X138200000Y-99600000D02*
X138200000Y-96000000D01*
X138200000Y-96000000D02*
X145050000Y-96000000D01*
X145050000Y-96000000D02*
X145050000Y-99600000D01*
X145050000Y-99600000D02*
X138200000Y-99600000D01*
X137890000Y-97600000D02*
X137890000Y-95690000D01*
X137890000Y-95690000D02*
X139800000Y-95690000D01*
X138200000Y-97300000D02*
X138500000Y-97300000D01*
X138500000Y-97300000D02*
X138500000Y-96300000D01*
X138500000Y-96300000D02*
X144750000Y-96300000D01*
X144750000Y-96300000D02*
X144750000Y-97300000D01*
X144750000Y-97300000D02*
X145050000Y-97300000D01*
X138200000Y-98050000D02*
X138500000Y-98050000D01*
X138500000Y-98050000D02*
X138500000Y-99150000D01*
X138500000Y-99150000D02*
X138800000Y-99150000D01*
X138800000Y-99150000D02*
X138800000Y-99600000D01*
X145050000Y-98050000D02*
X144750000Y-98050000D01*
X144750000Y-98050000D02*
X144750000Y-99150000D01*
X144750000Y-99150000D02*
X144450000Y-99150000D01*
X144450000Y-99150000D02*
X144450000Y-99600000D01*
X138800000Y-99150000D02*
X140000000Y-99150000D01*
X140000000Y-99150000D02*
X140000000Y-99450000D01*
X140000000Y-99450000D02*
X140750000Y-99450000D01*
X140750000Y-99450000D02*
X140750000Y-99150000D01*
X140750000Y-99150000D02*
X142500000Y-99150000D01*
X142500000Y-99150000D02*
X142500000Y-99450000D01*
X142500000Y-99450000D02*
X143250000Y-99450000D01*
X143250000Y-99450000D02*
X143250000Y-99150000D01*
X143250000Y-99150000D02*
X144450000Y-99150000D01*
%TO.C,J10*%
X149600000Y-95050000D02*
X146000000Y-95050000D01*
X146000000Y-95050000D02*
X146000000Y-85700000D01*
X146000000Y-85700000D02*
X149600000Y-85700000D01*
X149600000Y-85700000D02*
X149600000Y-95050000D01*
X147600000Y-95360000D02*
X145690000Y-95360000D01*
X145690000Y-95360000D02*
X145690000Y-93450000D01*
X147300000Y-95050000D02*
X147300000Y-94750000D01*
X147300000Y-94750000D02*
X146300000Y-94750000D01*
X146300000Y-94750000D02*
X146300000Y-86000000D01*
X146300000Y-86000000D02*
X147300000Y-86000000D01*
X147300000Y-86000000D02*
X147300000Y-85700000D01*
X148050000Y-95050000D02*
X148050000Y-94750000D01*
X148050000Y-94750000D02*
X149150000Y-94750000D01*
X149150000Y-94750000D02*
X149150000Y-94450000D01*
X149150000Y-94450000D02*
X149600000Y-94450000D01*
X148050000Y-85700000D02*
X148050000Y-86000000D01*
X148050000Y-86000000D02*
X149150000Y-86000000D01*
X149150000Y-86000000D02*
X149150000Y-86300000D01*
X149150000Y-86300000D02*
X149600000Y-86300000D01*
X149150000Y-94450000D02*
X149150000Y-93250000D01*
X149150000Y-93250000D02*
X149450000Y-93250000D01*
X149450000Y-93250000D02*
X149450000Y-92500000D01*
X149450000Y-92500000D02*
X149150000Y-92500000D01*
X149150000Y-92500000D02*
X149150000Y-88250000D01*
X149150000Y-88250000D02*
X149450000Y-88250000D01*
X149450000Y-88250000D02*
X149450000Y-87500000D01*
X149450000Y-87500000D02*
X149150000Y-87500000D01*
X149150000Y-87500000D02*
X149150000Y-86300000D01*
%TO.C,R26*%
X107290000Y-54258578D02*
X107290000Y-53741422D01*
X108710000Y-54258578D02*
X108710000Y-53741422D01*
%TO.C,R36*%
X141290000Y-54258578D02*
X141290000Y-53741422D01*
X142710000Y-54258578D02*
X142710000Y-53741422D01*
%TO.C,SW1*%
X138700000Y-54400000D02*
X138700000Y-54100000D01*
X135400000Y-54400000D02*
X138700000Y-54400000D01*
X135400000Y-54100000D02*
X135400000Y-54400000D01*
X138700000Y-51600000D02*
X138700000Y-51900000D01*
X135400000Y-51600000D02*
X138700000Y-51600000D01*
X135400000Y-51900000D02*
X135400000Y-51600000D01*
%TO.C,U1*%
X128910000Y-83930000D02*
X128910000Y-86380000D01*
X125690000Y-85730000D02*
X125690000Y-83930000D01*
D13*
%TO.C,U4*%
X115875000Y-53000000D02*
X115875000Y-54500000D01*
X118125000Y-51500000D02*
X118125000Y-54500000D01*
D12*
%TO.C,U6*%
X122320300Y-57679700D02*
X122320300Y-57210581D01*
X122320300Y-52320300D02*
X122789419Y-52320300D01*
X127679700Y-52320300D02*
X127679700Y-52789419D01*
X127679700Y-57679700D02*
X127210581Y-57679700D01*
X122789419Y-57679700D02*
X122320300Y-57679700D01*
X122320300Y-52789419D02*
X122320300Y-52320300D01*
X127210581Y-52320300D02*
X127679700Y-52320300D01*
X127679700Y-57210581D02*
X127679700Y-57679700D01*
%TO.C,U14*%
X138565259Y-89430400D02*
X138069600Y-89430400D01*
X141930400Y-88934741D02*
X141930400Y-89430400D01*
X141434741Y-85569600D02*
X141930400Y-85569600D01*
X138069600Y-86065259D02*
X138069600Y-85569600D01*
X138069600Y-89430400D02*
X138069600Y-88934741D01*
X141930400Y-89430400D02*
X141434741Y-89430400D01*
X141930400Y-85569600D02*
X141930400Y-86065259D01*
X138069600Y-85569600D02*
X138565259Y-85569600D01*
D10*
%TO.C,J8*%
X100850000Y-83100000D02*
X100850000Y-84300000D01*
X100550000Y-83100000D02*
X100850000Y-83100000D01*
X100550000Y-82350000D02*
X100550000Y-83100000D01*
X100850000Y-82350000D02*
X100550000Y-82350000D01*
X100850000Y-78100000D02*
X100850000Y-82350000D01*
X100550000Y-78100000D02*
X100850000Y-78100000D01*
X100550000Y-77350000D02*
X100550000Y-78100000D01*
X100850000Y-77350000D02*
X100550000Y-77350000D01*
X100850000Y-76150000D02*
X100850000Y-77350000D01*
X100850000Y-84300000D02*
X100400000Y-84300000D01*
X100850000Y-84600000D02*
X100850000Y-84300000D01*
X101950000Y-84600000D02*
X100850000Y-84600000D01*
X101950000Y-84900000D02*
X101950000Y-84600000D01*
X100850000Y-76150000D02*
X100400000Y-76150000D01*
X100850000Y-75850000D02*
X100850000Y-76150000D01*
X101950000Y-75850000D02*
X100850000Y-75850000D01*
X101950000Y-75550000D02*
X101950000Y-75850000D01*
X102700000Y-84600000D02*
X102700000Y-84900000D01*
X103700000Y-84600000D02*
X102700000Y-84600000D01*
X103700000Y-75850000D02*
X103700000Y-84600000D01*
X102700000Y-75850000D02*
X103700000Y-75850000D01*
X102700000Y-75550000D02*
X102700000Y-75850000D01*
X104310000Y-75240000D02*
X104310000Y-77150000D01*
X102400000Y-75240000D02*
X104310000Y-75240000D01*
X100400000Y-84900000D02*
X100400000Y-75550000D01*
X104000000Y-84900000D02*
X100400000Y-84900000D01*
X104000000Y-75550000D02*
X104000000Y-84900000D01*
X100400000Y-75550000D02*
X104000000Y-75550000D01*
%TO.C,J11*%
X149600000Y-84900000D02*
X146000000Y-84900000D01*
X146000000Y-84900000D02*
X146000000Y-75550000D01*
X146000000Y-75550000D02*
X149600000Y-75550000D01*
X149600000Y-75550000D02*
X149600000Y-84900000D01*
X147600000Y-85210000D02*
X145690000Y-85210000D01*
X145690000Y-85210000D02*
X145690000Y-83300000D01*
X147300000Y-84900000D02*
X147300000Y-84600000D01*
X147300000Y-84600000D02*
X146300000Y-84600000D01*
X146300000Y-84600000D02*
X146300000Y-75850000D01*
X146300000Y-75850000D02*
X147300000Y-75850000D01*
X147300000Y-75850000D02*
X147300000Y-75550000D01*
X148050000Y-84900000D02*
X148050000Y-84600000D01*
X148050000Y-84600000D02*
X149150000Y-84600000D01*
X149150000Y-84600000D02*
X149150000Y-84300000D01*
X149150000Y-84300000D02*
X149600000Y-84300000D01*
X148050000Y-75550000D02*
X148050000Y-75850000D01*
X148050000Y-75850000D02*
X149150000Y-75850000D01*
X149150000Y-75850000D02*
X149150000Y-76150000D01*
X149150000Y-76150000D02*
X149600000Y-76150000D01*
X149150000Y-84300000D02*
X149150000Y-83100000D01*
X149150000Y-83100000D02*
X149450000Y-83100000D01*
X149450000Y-83100000D02*
X149450000Y-82350000D01*
X149450000Y-82350000D02*
X149150000Y-82350000D01*
X149150000Y-82350000D02*
X149150000Y-78100000D01*
X149150000Y-78100000D02*
X149450000Y-78100000D01*
X149450000Y-78100000D02*
X149450000Y-77350000D01*
X149450000Y-77350000D02*
X149150000Y-77350000D01*
X149150000Y-77350000D02*
X149150000Y-76150000D01*
%TO.C,JP3*%
X132900000Y-86000000D02*
X132900000Y-87000000D01*
X132900000Y-87000000D02*
X133400000Y-87000000D01*
X132900000Y-84000000D02*
X132900000Y-83000000D01*
X132900000Y-83000000D02*
X133400000Y-83000000D01*
X134600000Y-87000000D02*
X135100000Y-87000000D01*
X135100000Y-87000000D02*
X135100000Y-86500000D01*
X134600000Y-83000000D02*
X135100000Y-83000000D01*
X135100000Y-83000000D02*
X135100000Y-83500000D01*
X135500000Y-83900000D02*
X136000000Y-83900000D01*
X136000000Y-83900000D02*
X136000000Y-84400000D01*
X135500000Y-86100000D02*
X136000000Y-86100000D01*
X136000000Y-86100000D02*
X136000000Y-85600000D01*
%TO.C,JP7*%
X114000000Y-83900000D02*
X114000000Y-84400000D01*
X114500000Y-83900000D02*
X114000000Y-83900000D01*
X114000000Y-86100000D02*
X114000000Y-85600000D01*
X114500000Y-86100000D02*
X114000000Y-86100000D01*
X114900000Y-87000000D02*
X114900000Y-86500000D01*
X115400000Y-87000000D02*
X114900000Y-87000000D01*
X114900000Y-83000000D02*
X114900000Y-83500000D01*
X115400000Y-83000000D02*
X114900000Y-83000000D01*
X117100000Y-87000000D02*
X116600000Y-87000000D01*
X117100000Y-86000000D02*
X117100000Y-87000000D01*
X117100000Y-83000000D02*
X116600000Y-83000000D01*
X117100000Y-84000000D02*
X117100000Y-83000000D01*
%TO.C,U10*%
X109442857Y-89871428D02*
X109442857Y-90357142D01*
X109414285Y-90414285D01*
X109385714Y-90442857D01*
X109328571Y-90471428D01*
X109214285Y-90471428D01*
X109157142Y-90442857D01*
X109128571Y-90414285D01*
X109100000Y-90357142D01*
X109100000Y-89871428D01*
X108500000Y-90471428D02*
X108842857Y-90471428D01*
X108671428Y-90471428D02*
X108671428Y-89871428D01*
X108728571Y-89957142D01*
X108785714Y-90014285D01*
X108842857Y-90042857D01*
X108128571Y-89871428D02*
X108071428Y-89871428D01*
X108014285Y-89900000D01*
X107985714Y-89928571D01*
X107957142Y-89985714D01*
X107928571Y-90100000D01*
X107928571Y-90242857D01*
X107957142Y-90357142D01*
X107985714Y-90414285D01*
X108014285Y-90442857D01*
X108071428Y-90471428D01*
X108128571Y-90471428D01*
X108185714Y-90442857D01*
X108214285Y-90414285D01*
X108242857Y-90357142D01*
X108271428Y-90242857D01*
X108271428Y-90100000D01*
X108242857Y-89985714D01*
X108214285Y-89928571D01*
X108185714Y-89900000D01*
X108128571Y-89871428D01*
%TO.C,C39*%
X107514285Y-84114285D02*
X107542857Y-84085714D01*
X107571428Y-84000000D01*
X107571428Y-83942857D01*
X107542857Y-83857142D01*
X107485714Y-83800000D01*
X107428571Y-83771428D01*
X107314285Y-83742857D01*
X107228571Y-83742857D01*
X107114285Y-83771428D01*
X107057142Y-83800000D01*
X107000000Y-83857142D01*
X106971428Y-83942857D01*
X106971428Y-84000000D01*
X107000000Y-84085714D01*
X107028571Y-84114285D01*
X106971428Y-84314285D02*
X106971428Y-84685714D01*
X107200000Y-84485714D01*
X107200000Y-84571428D01*
X107228571Y-84628571D01*
X107257142Y-84657142D01*
X107314285Y-84685714D01*
X107457142Y-84685714D01*
X107514285Y-84657142D01*
X107542857Y-84628571D01*
X107571428Y-84571428D01*
X107571428Y-84400000D01*
X107542857Y-84342857D01*
X107514285Y-84314285D01*
X107571428Y-84971428D02*
X107571428Y-85085714D01*
X107542857Y-85142857D01*
X107514285Y-85171428D01*
X107428571Y-85228571D01*
X107314285Y-85257142D01*
X107085714Y-85257142D01*
X107028571Y-85228571D01*
X107000000Y-85200000D01*
X106971428Y-85142857D01*
X106971428Y-85028571D01*
X107000000Y-84971428D01*
X107028571Y-84942857D01*
X107085714Y-84914285D01*
X107228571Y-84914285D01*
X107285714Y-84942857D01*
X107314285Y-84971428D01*
X107342857Y-85028571D01*
X107342857Y-85142857D01*
X107314285Y-85200000D01*
X107285714Y-85228571D01*
X107228571Y-85257142D01*
%TO.C,C46*%
X141714285Y-90214285D02*
X141742857Y-90185714D01*
X141771428Y-90100000D01*
X141771428Y-90042857D01*
X141742857Y-89957142D01*
X141685714Y-89900000D01*
X141628571Y-89871428D01*
X141514285Y-89842857D01*
X141428571Y-89842857D01*
X141314285Y-89871428D01*
X141257142Y-89900000D01*
X141200000Y-89957142D01*
X141171428Y-90042857D01*
X141171428Y-90100000D01*
X141200000Y-90185714D01*
X141228571Y-90214285D01*
X141371428Y-90728571D02*
X141771428Y-90728571D01*
X141142857Y-90585714D02*
X141571428Y-90442857D01*
X141571428Y-90814285D01*
X141171428Y-91300000D02*
X141171428Y-91185714D01*
X141200000Y-91128571D01*
X141228571Y-91100000D01*
X141314285Y-91042857D01*
X141428571Y-91014285D01*
X141657142Y-91014285D01*
X141714285Y-91042857D01*
X141742857Y-91071428D01*
X141771428Y-91128571D01*
X141771428Y-91242857D01*
X141742857Y-91300000D01*
X141714285Y-91328571D01*
X141657142Y-91357142D01*
X141514285Y-91357142D01*
X141457142Y-91328571D01*
X141428571Y-91300000D01*
X141400000Y-91242857D01*
X141400000Y-91128571D01*
X141428571Y-91071428D01*
X141457142Y-91042857D01*
X141514285Y-91014285D01*
%TO.C,U8*%
X123057142Y-78071428D02*
X123057142Y-78557142D01*
X123028571Y-78614285D01*
X123000000Y-78642857D01*
X122942857Y-78671428D01*
X122828571Y-78671428D01*
X122771428Y-78642857D01*
X122742857Y-78614285D01*
X122714285Y-78557142D01*
X122714285Y-78071428D01*
X122342857Y-78328571D02*
X122400000Y-78300000D01*
X122428571Y-78271428D01*
X122457142Y-78214285D01*
X122457142Y-78185714D01*
X122428571Y-78128571D01*
X122400000Y-78100000D01*
X122342857Y-78071428D01*
X122228571Y-78071428D01*
X122171428Y-78100000D01*
X122142857Y-78128571D01*
X122114285Y-78185714D01*
X122114285Y-78214285D01*
X122142857Y-78271428D01*
X122171428Y-78300000D01*
X122228571Y-78328571D01*
X122342857Y-78328571D01*
X122400000Y-78357142D01*
X122428571Y-78385714D01*
X122457142Y-78442857D01*
X122457142Y-78557142D01*
X122428571Y-78614285D01*
X122400000Y-78642857D01*
X122342857Y-78671428D01*
X122228571Y-78671428D01*
X122171428Y-78642857D01*
X122142857Y-78614285D01*
X122114285Y-78557142D01*
X122114285Y-78442857D01*
X122142857Y-78385714D01*
X122171428Y-78357142D01*
X122228571Y-78328571D01*
%TO.C,J5*%
X147100000Y-54671428D02*
X147100000Y-55100000D01*
X147128571Y-55185714D01*
X147185714Y-55242857D01*
X147271428Y-55271428D01*
X147328571Y-55271428D01*
X146528571Y-54671428D02*
X146814285Y-54671428D01*
X146842857Y-54957142D01*
X146814285Y-54928571D01*
X146757142Y-54900000D01*
X146614285Y-54900000D01*
X146557142Y-54928571D01*
X146528571Y-54957142D01*
X146500000Y-55014285D01*
X146500000Y-55157142D01*
X146528571Y-55214285D01*
X146557142Y-55242857D01*
X146614285Y-55271428D01*
X146757142Y-55271428D01*
X146814285Y-55242857D01*
X146842857Y-55214285D01*
%TO.C,J4*%
X103200000Y-54671428D02*
X103200000Y-55100000D01*
X103228571Y-55185714D01*
X103285714Y-55242857D01*
X103371428Y-55271428D01*
X103428571Y-55271428D01*
X102657142Y-54871428D02*
X102657142Y-55271428D01*
X102800000Y-54642857D02*
X102942857Y-55071428D01*
X102571428Y-55071428D01*
%TO.C,C26*%
X127085714Y-70514285D02*
X127114285Y-70542857D01*
X127200000Y-70571428D01*
X127257142Y-70571428D01*
X127342857Y-70542857D01*
X127400000Y-70485714D01*
X127428571Y-70428571D01*
X127457142Y-70314285D01*
X127457142Y-70228571D01*
X127428571Y-70114285D01*
X127400000Y-70057142D01*
X127342857Y-70000000D01*
X127257142Y-69971428D01*
X127200000Y-69971428D01*
X127114285Y-70000000D01*
X127085714Y-70028571D01*
X126857142Y-70028571D02*
X126828571Y-70000000D01*
X126771428Y-69971428D01*
X126628571Y-69971428D01*
X126571428Y-70000000D01*
X126542857Y-70028571D01*
X126514285Y-70085714D01*
X126514285Y-70142857D01*
X126542857Y-70228571D01*
X126885714Y-70571428D01*
X126514285Y-70571428D01*
X126000000Y-69971428D02*
X126114285Y-69971428D01*
X126171428Y-70000000D01*
X126200000Y-70028571D01*
X126257142Y-70114285D01*
X126285714Y-70228571D01*
X126285714Y-70457142D01*
X126257142Y-70514285D01*
X126228571Y-70542857D01*
X126171428Y-70571428D01*
X126057142Y-70571428D01*
X126000000Y-70542857D01*
X125971428Y-70514285D01*
X125942857Y-70457142D01*
X125942857Y-70314285D01*
X125971428Y-70257142D01*
X126000000Y-70228571D01*
X126057142Y-70200000D01*
X126171428Y-70200000D01*
X126228571Y-70228571D01*
X126257142Y-70257142D01*
X126285714Y-70314285D01*
%TO.C,U2*%
X113857142Y-54671428D02*
X113857142Y-55157142D01*
X113828571Y-55214285D01*
X113800000Y-55242857D01*
X113742857Y-55271428D01*
X113628571Y-55271428D01*
X113571428Y-55242857D01*
X113542857Y-55214285D01*
X113514285Y-55157142D01*
X113514285Y-54671428D01*
X113257142Y-54728571D02*
X113228571Y-54700000D01*
X113171428Y-54671428D01*
X113028571Y-54671428D01*
X112971428Y-54700000D01*
X112942857Y-54728571D01*
X112914285Y-54785714D01*
X112914285Y-54842857D01*
X112942857Y-54928571D01*
X113285714Y-55271428D01*
X112914285Y-55271428D01*
%TO.C,U5*%
X131957142Y-54121428D02*
X131957142Y-54607142D01*
X131928571Y-54664285D01*
X131900000Y-54692857D01*
X131842857Y-54721428D01*
X131728571Y-54721428D01*
X131671428Y-54692857D01*
X131642857Y-54664285D01*
X131614285Y-54607142D01*
X131614285Y-54121428D01*
X131042857Y-54121428D02*
X131328571Y-54121428D01*
X131357142Y-54407142D01*
X131328571Y-54378571D01*
X131271428Y-54350000D01*
X131128571Y-54350000D01*
X131071428Y-54378571D01*
X131042857Y-54407142D01*
X131014285Y-54464285D01*
X131014285Y-54607142D01*
X131042857Y-54664285D01*
X131071428Y-54692857D01*
X131128571Y-54721428D01*
X131271428Y-54721428D01*
X131328571Y-54692857D01*
X131357142Y-54664285D01*
%TO.C,U7*%
X120557142Y-76571428D02*
X120557142Y-77057142D01*
X120528571Y-77114285D01*
X120500000Y-77142857D01*
X120442857Y-77171428D01*
X120328571Y-77171428D01*
X120271428Y-77142857D01*
X120242857Y-77114285D01*
X120214285Y-77057142D01*
X120214285Y-76571428D01*
X119985714Y-76571428D02*
X119585714Y-76571428D01*
X119842857Y-77171428D01*
%TO.C,C1*%
X129814285Y-82600000D02*
X129842857Y-82571428D01*
X129871428Y-82485714D01*
X129871428Y-82428571D01*
X129842857Y-82342857D01*
X129785714Y-82285714D01*
X129728571Y-82257142D01*
X129614285Y-82228571D01*
X129528571Y-82228571D01*
X129414285Y-82257142D01*
X129357142Y-82285714D01*
X129300000Y-82342857D01*
X129271428Y-82428571D01*
X129271428Y-82485714D01*
X129300000Y-82571428D01*
X129328571Y-82600000D01*
X129871428Y-83171428D02*
X129871428Y-82828571D01*
X129871428Y-83000000D02*
X129271428Y-83000000D01*
X129357142Y-82942857D01*
X129414285Y-82885714D01*
X129442857Y-82828571D01*
%TO.C,C2*%
X124314285Y-81900000D02*
X124342857Y-81871428D01*
X124371428Y-81785714D01*
X124371428Y-81728571D01*
X124342857Y-81642857D01*
X124285714Y-81585714D01*
X124228571Y-81557142D01*
X124114285Y-81528571D01*
X124028571Y-81528571D01*
X123914285Y-81557142D01*
X123857142Y-81585714D01*
X123800000Y-81642857D01*
X123771428Y-81728571D01*
X123771428Y-81785714D01*
X123800000Y-81871428D01*
X123828571Y-81900000D01*
X123828571Y-82128571D02*
X123800000Y-82157142D01*
X123771428Y-82214285D01*
X123771428Y-82357142D01*
X123800000Y-82414285D01*
X123828571Y-82442857D01*
X123885714Y-82471428D01*
X123942857Y-82471428D01*
X124028571Y-82442857D01*
X124371428Y-82100000D01*
X124371428Y-82471428D01*
%TO.C,C3*%
X115414285Y-52700000D02*
X115442857Y-52671428D01*
X115471428Y-52585714D01*
X115471428Y-52528571D01*
X115442857Y-52442857D01*
X115385714Y-52385714D01*
X115328571Y-52357142D01*
X115214285Y-52328571D01*
X115128571Y-52328571D01*
X115014285Y-52357142D01*
X114957142Y-52385714D01*
X114900000Y-52442857D01*
X114871428Y-52528571D01*
X114871428Y-52585714D01*
X114900000Y-52671428D01*
X114928571Y-52700000D01*
X114871428Y-52900000D02*
X114871428Y-53271428D01*
X115100000Y-53071428D01*
X115100000Y-53157142D01*
X115128571Y-53214285D01*
X115157142Y-53242857D01*
X115214285Y-53271428D01*
X115357142Y-53271428D01*
X115414285Y-53242857D01*
X115442857Y-53214285D01*
X115471428Y-53157142D01*
X115471428Y-52985714D01*
X115442857Y-52928571D01*
X115414285Y-52900000D01*
%TO.C,C7*%
X137100000Y-56214285D02*
X137128571Y-56242857D01*
X137214285Y-56271428D01*
X137271428Y-56271428D01*
X137357142Y-56242857D01*
X137414285Y-56185714D01*
X137442857Y-56128571D01*
X137471428Y-56014285D01*
X137471428Y-55928571D01*
X137442857Y-55814285D01*
X137414285Y-55757142D01*
X137357142Y-55700000D01*
X137271428Y-55671428D01*
X137214285Y-55671428D01*
X137128571Y-55700000D01*
X137100000Y-55728571D01*
X136900000Y-55671428D02*
X136500000Y-55671428D01*
X136757142Y-56271428D01*
%TO.C,C8*%
X111964285Y-51500000D02*
X111992857Y-51471428D01*
X112021428Y-51385714D01*
X112021428Y-51328571D01*
X111992857Y-51242857D01*
X111935714Y-51185714D01*
X111878571Y-51157142D01*
X111764285Y-51128571D01*
X111678571Y-51128571D01*
X111564285Y-51157142D01*
X111507142Y-51185714D01*
X111450000Y-51242857D01*
X111421428Y-51328571D01*
X111421428Y-51385714D01*
X111450000Y-51471428D01*
X111478571Y-51500000D01*
X111678571Y-51842857D02*
X111650000Y-51785714D01*
X111621428Y-51757142D01*
X111564285Y-51728571D01*
X111535714Y-51728571D01*
X111478571Y-51757142D01*
X111450000Y-51785714D01*
X111421428Y-51842857D01*
X111421428Y-51957142D01*
X111450000Y-52014285D01*
X111478571Y-52042857D01*
X111535714Y-52071428D01*
X111564285Y-52071428D01*
X111621428Y-52042857D01*
X111650000Y-52014285D01*
X111678571Y-51957142D01*
X111678571Y-51842857D01*
X111707142Y-51785714D01*
X111735714Y-51757142D01*
X111792857Y-51728571D01*
X111907142Y-51728571D01*
X111964285Y-51757142D01*
X111992857Y-51785714D01*
X112021428Y-51842857D01*
X112021428Y-51957142D01*
X111992857Y-52014285D01*
X111964285Y-52042857D01*
X111907142Y-52071428D01*
X111792857Y-52071428D01*
X111735714Y-52042857D01*
X111707142Y-52014285D01*
X111678571Y-51957142D01*
%TO.C,C9*%
X123800000Y-59114285D02*
X123828571Y-59142857D01*
X123914285Y-59171428D01*
X123971428Y-59171428D01*
X124057142Y-59142857D01*
X124114285Y-59085714D01*
X124142857Y-59028571D01*
X124171428Y-58914285D01*
X124171428Y-58828571D01*
X124142857Y-58714285D01*
X124114285Y-58657142D01*
X124057142Y-58600000D01*
X123971428Y-58571428D01*
X123914285Y-58571428D01*
X123828571Y-58600000D01*
X123800000Y-58628571D01*
X123514285Y-59171428D02*
X123400000Y-59171428D01*
X123342857Y-59142857D01*
X123314285Y-59114285D01*
X123257142Y-59028571D01*
X123228571Y-58914285D01*
X123228571Y-58685714D01*
X123257142Y-58628571D01*
X123285714Y-58600000D01*
X123342857Y-58571428D01*
X123457142Y-58571428D01*
X123514285Y-58600000D01*
X123542857Y-58628571D01*
X123571428Y-58685714D01*
X123571428Y-58828571D01*
X123542857Y-58885714D01*
X123514285Y-58914285D01*
X123457142Y-58942857D01*
X123342857Y-58942857D01*
X123285714Y-58914285D01*
X123257142Y-58885714D01*
X123228571Y-58828571D01*
%TO.C,C10*%
X123085714Y-63714285D02*
X123114285Y-63742857D01*
X123200000Y-63771428D01*
X123257142Y-63771428D01*
X123342857Y-63742857D01*
X123400000Y-63685714D01*
X123428571Y-63628571D01*
X123457142Y-63514285D01*
X123457142Y-63428571D01*
X123428571Y-63314285D01*
X123400000Y-63257142D01*
X123342857Y-63200000D01*
X123257142Y-63171428D01*
X123200000Y-63171428D01*
X123114285Y-63200000D01*
X123085714Y-63228571D01*
X122514285Y-63771428D02*
X122857142Y-63771428D01*
X122685714Y-63771428D02*
X122685714Y-63171428D01*
X122742857Y-63257142D01*
X122800000Y-63314285D01*
X122857142Y-63342857D01*
X122142857Y-63171428D02*
X122085714Y-63171428D01*
X122028571Y-63200000D01*
X122000000Y-63228571D01*
X121971428Y-63285714D01*
X121942857Y-63400000D01*
X121942857Y-63542857D01*
X121971428Y-63657142D01*
X122000000Y-63714285D01*
X122028571Y-63742857D01*
X122085714Y-63771428D01*
X122142857Y-63771428D01*
X122200000Y-63742857D01*
X122228571Y-63714285D01*
X122257142Y-63657142D01*
X122285714Y-63542857D01*
X122285714Y-63400000D01*
X122257142Y-63285714D01*
X122228571Y-63228571D01*
X122200000Y-63200000D01*
X122142857Y-63171428D01*
%TO.C,C11*%
X123085714Y-64714285D02*
X123114285Y-64742857D01*
X123200000Y-64771428D01*
X123257142Y-64771428D01*
X123342857Y-64742857D01*
X123400000Y-64685714D01*
X123428571Y-64628571D01*
X123457142Y-64514285D01*
X123457142Y-64428571D01*
X123428571Y-64314285D01*
X123400000Y-64257142D01*
X123342857Y-64200000D01*
X123257142Y-64171428D01*
X123200000Y-64171428D01*
X123114285Y-64200000D01*
X123085714Y-64228571D01*
X122514285Y-64771428D02*
X122857142Y-64771428D01*
X122685714Y-64771428D02*
X122685714Y-64171428D01*
X122742857Y-64257142D01*
X122800000Y-64314285D01*
X122857142Y-64342857D01*
X121942857Y-64771428D02*
X122285714Y-64771428D01*
X122114285Y-64771428D02*
X122114285Y-64171428D01*
X122171428Y-64257142D01*
X122228571Y-64314285D01*
X122285714Y-64342857D01*
%TO.C,C12*%
X132185714Y-53414285D02*
X132214285Y-53442857D01*
X132300000Y-53471428D01*
X132357142Y-53471428D01*
X132442857Y-53442857D01*
X132500000Y-53385714D01*
X132528571Y-53328571D01*
X132557142Y-53214285D01*
X132557142Y-53128571D01*
X132528571Y-53014285D01*
X132500000Y-52957142D01*
X132442857Y-52900000D01*
X132357142Y-52871428D01*
X132300000Y-52871428D01*
X132214285Y-52900000D01*
X132185714Y-52928571D01*
X131614285Y-53471428D02*
X131957142Y-53471428D01*
X131785714Y-53471428D02*
X131785714Y-52871428D01*
X131842857Y-52957142D01*
X131900000Y-53014285D01*
X131957142Y-53042857D01*
X131385714Y-52928571D02*
X131357142Y-52900000D01*
X131300000Y-52871428D01*
X131157142Y-52871428D01*
X131100000Y-52900000D01*
X131071428Y-52928571D01*
X131042857Y-52985714D01*
X131042857Y-53042857D01*
X131071428Y-53128571D01*
X131414285Y-53471428D01*
X131042857Y-53471428D01*
%TO.C,C13*%
X123785714Y-59914285D02*
X123814285Y-59942857D01*
X123900000Y-59971428D01*
X123957142Y-59971428D01*
X124042857Y-59942857D01*
X124100000Y-59885714D01*
X124128571Y-59828571D01*
X124157142Y-59714285D01*
X124157142Y-59628571D01*
X124128571Y-59514285D01*
X124100000Y-59457142D01*
X124042857Y-59400000D01*
X123957142Y-59371428D01*
X123900000Y-59371428D01*
X123814285Y-59400000D01*
X123785714Y-59428571D01*
X123214285Y-59971428D02*
X123557142Y-59971428D01*
X123385714Y-59971428D02*
X123385714Y-59371428D01*
X123442857Y-59457142D01*
X123500000Y-59514285D01*
X123557142Y-59542857D01*
X123014285Y-59371428D02*
X122642857Y-59371428D01*
X122842857Y-59600000D01*
X122757142Y-59600000D01*
X122700000Y-59628571D01*
X122671428Y-59657142D01*
X122642857Y-59714285D01*
X122642857Y-59857142D01*
X122671428Y-59914285D01*
X122700000Y-59942857D01*
X122757142Y-59971428D01*
X122928571Y-59971428D01*
X122985714Y-59942857D01*
X123014285Y-59914285D01*
%TO.C,C14*%
X123785714Y-60714285D02*
X123814285Y-60742857D01*
X123900000Y-60771428D01*
X123957142Y-60771428D01*
X124042857Y-60742857D01*
X124100000Y-60685714D01*
X124128571Y-60628571D01*
X124157142Y-60514285D01*
X124157142Y-60428571D01*
X124128571Y-60314285D01*
X124100000Y-60257142D01*
X124042857Y-60200000D01*
X123957142Y-60171428D01*
X123900000Y-60171428D01*
X123814285Y-60200000D01*
X123785714Y-60228571D01*
X123214285Y-60771428D02*
X123557142Y-60771428D01*
X123385714Y-60771428D02*
X123385714Y-60171428D01*
X123442857Y-60257142D01*
X123500000Y-60314285D01*
X123557142Y-60342857D01*
X122700000Y-60371428D02*
X122700000Y-60771428D01*
X122842857Y-60142857D02*
X122985714Y-60571428D01*
X122614285Y-60571428D01*
%TO.C,C15*%
X128685714Y-60514285D02*
X128714285Y-60542857D01*
X128800000Y-60571428D01*
X128857142Y-60571428D01*
X128942857Y-60542857D01*
X129000000Y-60485714D01*
X129028571Y-60428571D01*
X129057142Y-60314285D01*
X129057142Y-60228571D01*
X129028571Y-60114285D01*
X129000000Y-60057142D01*
X128942857Y-60000000D01*
X128857142Y-59971428D01*
X128800000Y-59971428D01*
X128714285Y-60000000D01*
X128685714Y-60028571D01*
X128114285Y-60571428D02*
X128457142Y-60571428D01*
X128285714Y-60571428D02*
X128285714Y-59971428D01*
X128342857Y-60057142D01*
X128400000Y-60114285D01*
X128457142Y-60142857D01*
X127571428Y-59971428D02*
X127857142Y-59971428D01*
X127885714Y-60257142D01*
X127857142Y-60228571D01*
X127800000Y-60200000D01*
X127657142Y-60200000D01*
X127600000Y-60228571D01*
X127571428Y-60257142D01*
X127542857Y-60314285D01*
X127542857Y-60457142D01*
X127571428Y-60514285D01*
X127600000Y-60542857D01*
X127657142Y-60571428D01*
X127800000Y-60571428D01*
X127857142Y-60542857D01*
X127885714Y-60514285D01*
%TO.C,C17*%
X123385714Y-51914285D02*
X123414285Y-51942857D01*
X123500000Y-51971428D01*
X123557142Y-51971428D01*
X123642857Y-51942857D01*
X123700000Y-51885714D01*
X123728571Y-51828571D01*
X123757142Y-51714285D01*
X123757142Y-51628571D01*
X123728571Y-51514285D01*
X123700000Y-51457142D01*
X123642857Y-51400000D01*
X123557142Y-51371428D01*
X123500000Y-51371428D01*
X123414285Y-51400000D01*
X123385714Y-51428571D01*
X122814285Y-51971428D02*
X123157142Y-51971428D01*
X122985714Y-51971428D02*
X122985714Y-51371428D01*
X123042857Y-51457142D01*
X123100000Y-51514285D01*
X123157142Y-51542857D01*
X122614285Y-51371428D02*
X122214285Y-51371428D01*
X122471428Y-51971428D01*
%TO.C,C18*%
X121485714Y-51214285D02*
X121514285Y-51242857D01*
X121600000Y-51271428D01*
X121657142Y-51271428D01*
X121742857Y-51242857D01*
X121800000Y-51185714D01*
X121828571Y-51128571D01*
X121857142Y-51014285D01*
X121857142Y-50928571D01*
X121828571Y-50814285D01*
X121800000Y-50757142D01*
X121742857Y-50700000D01*
X121657142Y-50671428D01*
X121600000Y-50671428D01*
X121514285Y-50700000D01*
X121485714Y-50728571D01*
X120914285Y-51271428D02*
X121257142Y-51271428D01*
X121085714Y-51271428D02*
X121085714Y-50671428D01*
X121142857Y-50757142D01*
X121200000Y-50814285D01*
X121257142Y-50842857D01*
X120571428Y-50928571D02*
X120628571Y-50900000D01*
X120657142Y-50871428D01*
X120685714Y-50814285D01*
X120685714Y-50785714D01*
X120657142Y-50728571D01*
X120628571Y-50700000D01*
X120571428Y-50671428D01*
X120457142Y-50671428D01*
X120400000Y-50700000D01*
X120371428Y-50728571D01*
X120342857Y-50785714D01*
X120342857Y-50814285D01*
X120371428Y-50871428D01*
X120400000Y-50900000D01*
X120457142Y-50928571D01*
X120571428Y-50928571D01*
X120628571Y-50957142D01*
X120657142Y-50985714D01*
X120685714Y-51042857D01*
X120685714Y-51157142D01*
X120657142Y-51214285D01*
X120628571Y-51242857D01*
X120571428Y-51271428D01*
X120457142Y-51271428D01*
X120400000Y-51242857D01*
X120371428Y-51214285D01*
X120342857Y-51157142D01*
X120342857Y-51042857D01*
X120371428Y-50985714D01*
X120400000Y-50957142D01*
X120457142Y-50928571D01*
%TO.C,C19*%
X120685714Y-53614285D02*
X120714285Y-53642857D01*
X120800000Y-53671428D01*
X120857142Y-53671428D01*
X120942857Y-53642857D01*
X121000000Y-53585714D01*
X121028571Y-53528571D01*
X121057142Y-53414285D01*
X121057142Y-53328571D01*
X121028571Y-53214285D01*
X121000000Y-53157142D01*
X120942857Y-53100000D01*
X120857142Y-53071428D01*
X120800000Y-53071428D01*
X120714285Y-53100000D01*
X120685714Y-53128571D01*
X120114285Y-53671428D02*
X120457142Y-53671428D01*
X120285714Y-53671428D02*
X120285714Y-53071428D01*
X120342857Y-53157142D01*
X120400000Y-53214285D01*
X120457142Y-53242857D01*
X119828571Y-53671428D02*
X119714285Y-53671428D01*
X119657142Y-53642857D01*
X119628571Y-53614285D01*
X119571428Y-53528571D01*
X119542857Y-53414285D01*
X119542857Y-53185714D01*
X119571428Y-53128571D01*
X119600000Y-53100000D01*
X119657142Y-53071428D01*
X119771428Y-53071428D01*
X119828571Y-53100000D01*
X119857142Y-53128571D01*
X119885714Y-53185714D01*
X119885714Y-53328571D01*
X119857142Y-53385714D01*
X119828571Y-53414285D01*
X119771428Y-53442857D01*
X119657142Y-53442857D01*
X119600000Y-53414285D01*
X119571428Y-53385714D01*
X119542857Y-53328571D01*
%TO.C,C21*%
X106385714Y-52414285D02*
X106414285Y-52442857D01*
X106500000Y-52471428D01*
X106557142Y-52471428D01*
X106642857Y-52442857D01*
X106700000Y-52385714D01*
X106728571Y-52328571D01*
X106757142Y-52214285D01*
X106757142Y-52128571D01*
X106728571Y-52014285D01*
X106700000Y-51957142D01*
X106642857Y-51900000D01*
X106557142Y-51871428D01*
X106500000Y-51871428D01*
X106414285Y-51900000D01*
X106385714Y-51928571D01*
X106157142Y-51928571D02*
X106128571Y-51900000D01*
X106071428Y-51871428D01*
X105928571Y-51871428D01*
X105871428Y-51900000D01*
X105842857Y-51928571D01*
X105814285Y-51985714D01*
X105814285Y-52042857D01*
X105842857Y-52128571D01*
X106185714Y-52471428D01*
X105814285Y-52471428D01*
X105242857Y-52471428D02*
X105585714Y-52471428D01*
X105414285Y-52471428D02*
X105414285Y-51871428D01*
X105471428Y-51957142D01*
X105528571Y-52014285D01*
X105585714Y-52042857D01*
%TO.C,C22*%
X127085714Y-71314285D02*
X127114285Y-71342857D01*
X127200000Y-71371428D01*
X127257142Y-71371428D01*
X127342857Y-71342857D01*
X127400000Y-71285714D01*
X127428571Y-71228571D01*
X127457142Y-71114285D01*
X127457142Y-71028571D01*
X127428571Y-70914285D01*
X127400000Y-70857142D01*
X127342857Y-70800000D01*
X127257142Y-70771428D01*
X127200000Y-70771428D01*
X127114285Y-70800000D01*
X127085714Y-70828571D01*
X126857142Y-70828571D02*
X126828571Y-70800000D01*
X126771428Y-70771428D01*
X126628571Y-70771428D01*
X126571428Y-70800000D01*
X126542857Y-70828571D01*
X126514285Y-70885714D01*
X126514285Y-70942857D01*
X126542857Y-71028571D01*
X126885714Y-71371428D01*
X126514285Y-71371428D01*
X126285714Y-70828571D02*
X126257142Y-70800000D01*
X126200000Y-70771428D01*
X126057142Y-70771428D01*
X126000000Y-70800000D01*
X125971428Y-70828571D01*
X125942857Y-70885714D01*
X125942857Y-70942857D01*
X125971428Y-71028571D01*
X126314285Y-71371428D01*
X125942857Y-71371428D01*
%TO.C,C23*%
X127685714Y-66814285D02*
X127714285Y-66842857D01*
X127800000Y-66871428D01*
X127857142Y-66871428D01*
X127942857Y-66842857D01*
X128000000Y-66785714D01*
X128028571Y-66728571D01*
X128057142Y-66614285D01*
X128057142Y-66528571D01*
X128028571Y-66414285D01*
X128000000Y-66357142D01*
X127942857Y-66300000D01*
X127857142Y-66271428D01*
X127800000Y-66271428D01*
X127714285Y-66300000D01*
X127685714Y-66328571D01*
X127457142Y-66328571D02*
X127428571Y-66300000D01*
X127371428Y-66271428D01*
X127228571Y-66271428D01*
X127171428Y-66300000D01*
X127142857Y-66328571D01*
X127114285Y-66385714D01*
X127114285Y-66442857D01*
X127142857Y-66528571D01*
X127485714Y-66871428D01*
X127114285Y-66871428D01*
X126914285Y-66271428D02*
X126542857Y-66271428D01*
X126742857Y-66500000D01*
X126657142Y-66500000D01*
X126600000Y-66528571D01*
X126571428Y-66557142D01*
X126542857Y-66614285D01*
X126542857Y-66757142D01*
X126571428Y-66814285D01*
X126600000Y-66842857D01*
X126657142Y-66871428D01*
X126828571Y-66871428D01*
X126885714Y-66842857D01*
X126914285Y-66814285D01*
%TO.C,C24*%
X127685714Y-65714285D02*
X127714285Y-65742857D01*
X127800000Y-65771428D01*
X127857142Y-65771428D01*
X127942857Y-65742857D01*
X128000000Y-65685714D01*
X128028571Y-65628571D01*
X128057142Y-65514285D01*
X128057142Y-65428571D01*
X128028571Y-65314285D01*
X128000000Y-65257142D01*
X127942857Y-65200000D01*
X127857142Y-65171428D01*
X127800000Y-65171428D01*
X127714285Y-65200000D01*
X127685714Y-65228571D01*
X127457142Y-65228571D02*
X127428571Y-65200000D01*
X127371428Y-65171428D01*
X127228571Y-65171428D01*
X127171428Y-65200000D01*
X127142857Y-65228571D01*
X127114285Y-65285714D01*
X127114285Y-65342857D01*
X127142857Y-65428571D01*
X127485714Y-65771428D01*
X127114285Y-65771428D01*
X126600000Y-65371428D02*
X126600000Y-65771428D01*
X126742857Y-65142857D02*
X126885714Y-65571428D01*
X126514285Y-65571428D01*
%TO.C,C25*%
X117785714Y-75914285D02*
X117814285Y-75942857D01*
X117900000Y-75971428D01*
X117957142Y-75971428D01*
X118042857Y-75942857D01*
X118100000Y-75885714D01*
X118128571Y-75828571D01*
X118157142Y-75714285D01*
X118157142Y-75628571D01*
X118128571Y-75514285D01*
X118100000Y-75457142D01*
X118042857Y-75400000D01*
X117957142Y-75371428D01*
X117900000Y-75371428D01*
X117814285Y-75400000D01*
X117785714Y-75428571D01*
X117557142Y-75428571D02*
X117528571Y-75400000D01*
X117471428Y-75371428D01*
X117328571Y-75371428D01*
X117271428Y-75400000D01*
X117242857Y-75428571D01*
X117214285Y-75485714D01*
X117214285Y-75542857D01*
X117242857Y-75628571D01*
X117585714Y-75971428D01*
X117214285Y-75971428D01*
X116671428Y-75371428D02*
X116957142Y-75371428D01*
X116985714Y-75657142D01*
X116957142Y-75628571D01*
X116900000Y-75600000D01*
X116757142Y-75600000D01*
X116700000Y-75628571D01*
X116671428Y-75657142D01*
X116642857Y-75714285D01*
X116642857Y-75857142D01*
X116671428Y-75914285D01*
X116700000Y-75942857D01*
X116757142Y-75971428D01*
X116900000Y-75971428D01*
X116957142Y-75942857D01*
X116985714Y-75914285D01*
%TO.C,C27*%
X127085714Y-69714285D02*
X127114285Y-69742857D01*
X127200000Y-69771428D01*
X127257142Y-69771428D01*
X127342857Y-69742857D01*
X127400000Y-69685714D01*
X127428571Y-69628571D01*
X127457142Y-69514285D01*
X127457142Y-69428571D01*
X127428571Y-69314285D01*
X127400000Y-69257142D01*
X127342857Y-69200000D01*
X127257142Y-69171428D01*
X127200000Y-69171428D01*
X127114285Y-69200000D01*
X127085714Y-69228571D01*
X126857142Y-69228571D02*
X126828571Y-69200000D01*
X126771428Y-69171428D01*
X126628571Y-69171428D01*
X126571428Y-69200000D01*
X126542857Y-69228571D01*
X126514285Y-69285714D01*
X126514285Y-69342857D01*
X126542857Y-69428571D01*
X126885714Y-69771428D01*
X126514285Y-69771428D01*
X126314285Y-69171428D02*
X125914285Y-69171428D01*
X126171428Y-69771428D01*
%TO.C,C28*%
X122085714Y-70014285D02*
X122114285Y-70042857D01*
X122200000Y-70071428D01*
X122257142Y-70071428D01*
X122342857Y-70042857D01*
X122400000Y-69985714D01*
X122428571Y-69928571D01*
X122457142Y-69814285D01*
X122457142Y-69728571D01*
X122428571Y-69614285D01*
X122400000Y-69557142D01*
X122342857Y-69500000D01*
X122257142Y-69471428D01*
X122200000Y-69471428D01*
X122114285Y-69500000D01*
X122085714Y-69528571D01*
X121857142Y-69528571D02*
X121828571Y-69500000D01*
X121771428Y-69471428D01*
X121628571Y-69471428D01*
X121571428Y-69500000D01*
X121542857Y-69528571D01*
X121514285Y-69585714D01*
X121514285Y-69642857D01*
X121542857Y-69728571D01*
X121885714Y-70071428D01*
X121514285Y-70071428D01*
X121171428Y-69728571D02*
X121228571Y-69700000D01*
X121257142Y-69671428D01*
X121285714Y-69614285D01*
X121285714Y-69585714D01*
X121257142Y-69528571D01*
X121228571Y-69500000D01*
X121171428Y-69471428D01*
X121057142Y-69471428D01*
X121000000Y-69500000D01*
X120971428Y-69528571D01*
X120942857Y-69585714D01*
X120942857Y-69614285D01*
X120971428Y-69671428D01*
X121000000Y-69700000D01*
X121057142Y-69728571D01*
X121171428Y-69728571D01*
X121228571Y-69757142D01*
X121257142Y-69785714D01*
X121285714Y-69842857D01*
X121285714Y-69957142D01*
X121257142Y-70014285D01*
X121228571Y-70042857D01*
X121171428Y-70071428D01*
X121057142Y-70071428D01*
X121000000Y-70042857D01*
X120971428Y-70014285D01*
X120942857Y-69957142D01*
X120942857Y-69842857D01*
X120971428Y-69785714D01*
X121000000Y-69757142D01*
X121057142Y-69728571D01*
%TO.C,C30*%
X128514285Y-79414285D02*
X128542857Y-79385714D01*
X128571428Y-79300000D01*
X128571428Y-79242857D01*
X128542857Y-79157142D01*
X128485714Y-79100000D01*
X128428571Y-79071428D01*
X128314285Y-79042857D01*
X128228571Y-79042857D01*
X128114285Y-79071428D01*
X128057142Y-79100000D01*
X128000000Y-79157142D01*
X127971428Y-79242857D01*
X127971428Y-79300000D01*
X128000000Y-79385714D01*
X128028571Y-79414285D01*
X127971428Y-79614285D02*
X127971428Y-79985714D01*
X128200000Y-79785714D01*
X128200000Y-79871428D01*
X128228571Y-79928571D01*
X128257142Y-79957142D01*
X128314285Y-79985714D01*
X128457142Y-79985714D01*
X128514285Y-79957142D01*
X128542857Y-79928571D01*
X128571428Y-79871428D01*
X128571428Y-79700000D01*
X128542857Y-79642857D01*
X128514285Y-79614285D01*
X127971428Y-80357142D02*
X127971428Y-80414285D01*
X128000000Y-80471428D01*
X128028571Y-80500000D01*
X128085714Y-80528571D01*
X128200000Y-80557142D01*
X128342857Y-80557142D01*
X128457142Y-80528571D01*
X128514285Y-80500000D01*
X128542857Y-80471428D01*
X128571428Y-80414285D01*
X128571428Y-80357142D01*
X128542857Y-80300000D01*
X128514285Y-80271428D01*
X128457142Y-80242857D01*
X128342857Y-80214285D01*
X128200000Y-80214285D01*
X128085714Y-80242857D01*
X128028571Y-80271428D01*
X128000000Y-80300000D01*
X127971428Y-80357142D01*
%TO.C,C31*%
X129414285Y-79414285D02*
X129442857Y-79385714D01*
X129471428Y-79300000D01*
X129471428Y-79242857D01*
X129442857Y-79157142D01*
X129385714Y-79100000D01*
X129328571Y-79071428D01*
X129214285Y-79042857D01*
X129128571Y-79042857D01*
X129014285Y-79071428D01*
X128957142Y-79100000D01*
X128900000Y-79157142D01*
X128871428Y-79242857D01*
X128871428Y-79300000D01*
X128900000Y-79385714D01*
X128928571Y-79414285D01*
X128871428Y-79614285D02*
X128871428Y-79985714D01*
X129100000Y-79785714D01*
X129100000Y-79871428D01*
X129128571Y-79928571D01*
X129157142Y-79957142D01*
X129214285Y-79985714D01*
X129357142Y-79985714D01*
X129414285Y-79957142D01*
X129442857Y-79928571D01*
X129471428Y-79871428D01*
X129471428Y-79700000D01*
X129442857Y-79642857D01*
X129414285Y-79614285D01*
X129471428Y-80557142D02*
X129471428Y-80214285D01*
X129471428Y-80385714D02*
X128871428Y-80385714D01*
X128957142Y-80328571D01*
X129014285Y-80271428D01*
X129042857Y-80214285D01*
%TO.C,C32*%
X130314285Y-79414285D02*
X130342857Y-79385714D01*
X130371428Y-79300000D01*
X130371428Y-79242857D01*
X130342857Y-79157142D01*
X130285714Y-79100000D01*
X130228571Y-79071428D01*
X130114285Y-79042857D01*
X130028571Y-79042857D01*
X129914285Y-79071428D01*
X129857142Y-79100000D01*
X129800000Y-79157142D01*
X129771428Y-79242857D01*
X129771428Y-79300000D01*
X129800000Y-79385714D01*
X129828571Y-79414285D01*
X129771428Y-79614285D02*
X129771428Y-79985714D01*
X130000000Y-79785714D01*
X130000000Y-79871428D01*
X130028571Y-79928571D01*
X130057142Y-79957142D01*
X130114285Y-79985714D01*
X130257142Y-79985714D01*
X130314285Y-79957142D01*
X130342857Y-79928571D01*
X130371428Y-79871428D01*
X130371428Y-79700000D01*
X130342857Y-79642857D01*
X130314285Y-79614285D01*
X129828571Y-80214285D02*
X129800000Y-80242857D01*
X129771428Y-80300000D01*
X129771428Y-80442857D01*
X129800000Y-80500000D01*
X129828571Y-80528571D01*
X129885714Y-80557142D01*
X129942857Y-80557142D01*
X130028571Y-80528571D01*
X130371428Y-80185714D01*
X130371428Y-80557142D01*
%TO.C,C34*%
X144385714Y-52414285D02*
X144414285Y-52442857D01*
X144500000Y-52471428D01*
X144557142Y-52471428D01*
X144642857Y-52442857D01*
X144700000Y-52385714D01*
X144728571Y-52328571D01*
X144757142Y-52214285D01*
X144757142Y-52128571D01*
X144728571Y-52014285D01*
X144700000Y-51957142D01*
X144642857Y-51900000D01*
X144557142Y-51871428D01*
X144500000Y-51871428D01*
X144414285Y-51900000D01*
X144385714Y-51928571D01*
X144185714Y-51871428D02*
X143814285Y-51871428D01*
X144014285Y-52100000D01*
X143928571Y-52100000D01*
X143871428Y-52128571D01*
X143842857Y-52157142D01*
X143814285Y-52214285D01*
X143814285Y-52357142D01*
X143842857Y-52414285D01*
X143871428Y-52442857D01*
X143928571Y-52471428D01*
X144100000Y-52471428D01*
X144157142Y-52442857D01*
X144185714Y-52414285D01*
X143300000Y-52071428D02*
X143300000Y-52471428D01*
X143442857Y-51842857D02*
X143585714Y-52271428D01*
X143214285Y-52271428D01*
%TO.C,C36*%
X110485714Y-85014285D02*
X110514285Y-85042857D01*
X110600000Y-85071428D01*
X110657142Y-85071428D01*
X110742857Y-85042857D01*
X110800000Y-84985714D01*
X110828571Y-84928571D01*
X110857142Y-84814285D01*
X110857142Y-84728571D01*
X110828571Y-84614285D01*
X110800000Y-84557142D01*
X110742857Y-84500000D01*
X110657142Y-84471428D01*
X110600000Y-84471428D01*
X110514285Y-84500000D01*
X110485714Y-84528571D01*
X110285714Y-84471428D02*
X109914285Y-84471428D01*
X110114285Y-84700000D01*
X110028571Y-84700000D01*
X109971428Y-84728571D01*
X109942857Y-84757142D01*
X109914285Y-84814285D01*
X109914285Y-84957142D01*
X109942857Y-85014285D01*
X109971428Y-85042857D01*
X110028571Y-85071428D01*
X110200000Y-85071428D01*
X110257142Y-85042857D01*
X110285714Y-85014285D01*
X109400000Y-84471428D02*
X109514285Y-84471428D01*
X109571428Y-84500000D01*
X109600000Y-84528571D01*
X109657142Y-84614285D01*
X109685714Y-84728571D01*
X109685714Y-84957142D01*
X109657142Y-85014285D01*
X109628571Y-85042857D01*
X109571428Y-85071428D01*
X109457142Y-85071428D01*
X109400000Y-85042857D01*
X109371428Y-85014285D01*
X109342857Y-84957142D01*
X109342857Y-84814285D01*
X109371428Y-84757142D01*
X109400000Y-84728571D01*
X109457142Y-84700000D01*
X109571428Y-84700000D01*
X109628571Y-84728571D01*
X109657142Y-84757142D01*
X109685714Y-84814285D01*
%TO.C,C37*%
X112914285Y-89714285D02*
X112942857Y-89685714D01*
X112971428Y-89600000D01*
X112971428Y-89542857D01*
X112942857Y-89457142D01*
X112885714Y-89400000D01*
X112828571Y-89371428D01*
X112714285Y-89342857D01*
X112628571Y-89342857D01*
X112514285Y-89371428D01*
X112457142Y-89400000D01*
X112400000Y-89457142D01*
X112371428Y-89542857D01*
X112371428Y-89600000D01*
X112400000Y-89685714D01*
X112428571Y-89714285D01*
X112371428Y-89914285D02*
X112371428Y-90285714D01*
X112600000Y-90085714D01*
X112600000Y-90171428D01*
X112628571Y-90228571D01*
X112657142Y-90257142D01*
X112714285Y-90285714D01*
X112857142Y-90285714D01*
X112914285Y-90257142D01*
X112942857Y-90228571D01*
X112971428Y-90171428D01*
X112971428Y-90000000D01*
X112942857Y-89942857D01*
X112914285Y-89914285D01*
X112371428Y-90485714D02*
X112371428Y-90885714D01*
X112971428Y-90628571D01*
%TO.C,C38*%
X107335714Y-89214285D02*
X107364285Y-89242857D01*
X107450000Y-89271428D01*
X107507142Y-89271428D01*
X107592857Y-89242857D01*
X107650000Y-89185714D01*
X107678571Y-89128571D01*
X107707142Y-89014285D01*
X107707142Y-88928571D01*
X107678571Y-88814285D01*
X107650000Y-88757142D01*
X107592857Y-88700000D01*
X107507142Y-88671428D01*
X107450000Y-88671428D01*
X107364285Y-88700000D01*
X107335714Y-88728571D01*
X107135714Y-88671428D02*
X106764285Y-88671428D01*
X106964285Y-88900000D01*
X106878571Y-88900000D01*
X106821428Y-88928571D01*
X106792857Y-88957142D01*
X106764285Y-89014285D01*
X106764285Y-89157142D01*
X106792857Y-89214285D01*
X106821428Y-89242857D01*
X106878571Y-89271428D01*
X107050000Y-89271428D01*
X107107142Y-89242857D01*
X107135714Y-89214285D01*
X106421428Y-88928571D02*
X106478571Y-88900000D01*
X106507142Y-88871428D01*
X106535714Y-88814285D01*
X106535714Y-88785714D01*
X106507142Y-88728571D01*
X106478571Y-88700000D01*
X106421428Y-88671428D01*
X106307142Y-88671428D01*
X106250000Y-88700000D01*
X106221428Y-88728571D01*
X106192857Y-88785714D01*
X106192857Y-88814285D01*
X106221428Y-88871428D01*
X106250000Y-88900000D01*
X106307142Y-88928571D01*
X106421428Y-88928571D01*
X106478571Y-88957142D01*
X106507142Y-88985714D01*
X106535714Y-89042857D01*
X106535714Y-89157142D01*
X106507142Y-89214285D01*
X106478571Y-89242857D01*
X106421428Y-89271428D01*
X106307142Y-89271428D01*
X106250000Y-89242857D01*
X106221428Y-89214285D01*
X106192857Y-89157142D01*
X106192857Y-89042857D01*
X106221428Y-88985714D01*
X106250000Y-88957142D01*
X106307142Y-88928571D01*
%TO.C,C44*%
X136714285Y-88614285D02*
X136742857Y-88585714D01*
X136771428Y-88500000D01*
X136771428Y-88442857D01*
X136742857Y-88357142D01*
X136685714Y-88300000D01*
X136628571Y-88271428D01*
X136514285Y-88242857D01*
X136428571Y-88242857D01*
X136314285Y-88271428D01*
X136257142Y-88300000D01*
X136200000Y-88357142D01*
X136171428Y-88442857D01*
X136171428Y-88500000D01*
X136200000Y-88585714D01*
X136228571Y-88614285D01*
X136371428Y-89128571D02*
X136771428Y-89128571D01*
X136142857Y-88985714D02*
X136571428Y-88842857D01*
X136571428Y-89214285D01*
X136371428Y-89700000D02*
X136771428Y-89700000D01*
X136142857Y-89557142D02*
X136571428Y-89414285D01*
X136571428Y-89785714D01*
%TO.C,C45*%
X141185714Y-84214285D02*
X141214285Y-84242857D01*
X141300000Y-84271428D01*
X141357142Y-84271428D01*
X141442857Y-84242857D01*
X141500000Y-84185714D01*
X141528571Y-84128571D01*
X141557142Y-84014285D01*
X141557142Y-83928571D01*
X141528571Y-83814285D01*
X141500000Y-83757142D01*
X141442857Y-83700000D01*
X141357142Y-83671428D01*
X141300000Y-83671428D01*
X141214285Y-83700000D01*
X141185714Y-83728571D01*
X140671428Y-83871428D02*
X140671428Y-84271428D01*
X140814285Y-83642857D02*
X140957142Y-84071428D01*
X140585714Y-84071428D01*
X140071428Y-83671428D02*
X140357142Y-83671428D01*
X140385714Y-83957142D01*
X140357142Y-83928571D01*
X140300000Y-83900000D01*
X140157142Y-83900000D01*
X140100000Y-83928571D01*
X140071428Y-83957142D01*
X140042857Y-84014285D01*
X140042857Y-84157142D01*
X140071428Y-84214285D01*
X140100000Y-84242857D01*
X140157142Y-84271428D01*
X140300000Y-84271428D01*
X140357142Y-84242857D01*
X140385714Y-84214285D01*
%TO.C,C47*%
X138935714Y-91314285D02*
X138964285Y-91342857D01*
X139050000Y-91371428D01*
X139107142Y-91371428D01*
X139192857Y-91342857D01*
X139250000Y-91285714D01*
X139278571Y-91228571D01*
X139307142Y-91114285D01*
X139307142Y-91028571D01*
X139278571Y-90914285D01*
X139250000Y-90857142D01*
X139192857Y-90800000D01*
X139107142Y-90771428D01*
X139050000Y-90771428D01*
X138964285Y-90800000D01*
X138935714Y-90828571D01*
X138421428Y-90971428D02*
X138421428Y-91371428D01*
X138564285Y-90742857D02*
X138707142Y-91171428D01*
X138335714Y-91171428D01*
X138164285Y-90771428D02*
X137764285Y-90771428D01*
X138021428Y-91371428D01*
%TO.C,D1*%
X124471428Y-84457142D02*
X123871428Y-84457142D01*
X123871428Y-84600000D01*
X123900000Y-84685714D01*
X123957142Y-84742857D01*
X124014285Y-84771428D01*
X124128571Y-84800000D01*
X124214285Y-84800000D01*
X124328571Y-84771428D01*
X124385714Y-84742857D01*
X124442857Y-84685714D01*
X124471428Y-84600000D01*
X124471428Y-84457142D01*
X124471428Y-85371428D02*
X124471428Y-85028571D01*
X124471428Y-85200000D02*
X123871428Y-85200000D01*
X123957142Y-85142857D01*
X124014285Y-85085714D01*
X124042857Y-85028571D01*
%TO.C,D2*%
X113192857Y-50871428D02*
X113192857Y-50271428D01*
X113050000Y-50271428D01*
X112964285Y-50300000D01*
X112907142Y-50357142D01*
X112878571Y-50414285D01*
X112850000Y-50528571D01*
X112850000Y-50614285D01*
X112878571Y-50728571D01*
X112907142Y-50785714D01*
X112964285Y-50842857D01*
X113050000Y-50871428D01*
X113192857Y-50871428D01*
X112621428Y-50328571D02*
X112592857Y-50300000D01*
X112535714Y-50271428D01*
X112392857Y-50271428D01*
X112335714Y-50300000D01*
X112307142Y-50328571D01*
X112278571Y-50385714D01*
X112278571Y-50442857D01*
X112307142Y-50528571D01*
X112650000Y-50871428D01*
X112278571Y-50871428D01*
%TO.C,D3*%
X111182857Y-50871428D02*
X111182857Y-50271428D01*
X111040000Y-50271428D01*
X110954285Y-50300000D01*
X110897142Y-50357142D01*
X110868571Y-50414285D01*
X110840000Y-50528571D01*
X110840000Y-50614285D01*
X110868571Y-50728571D01*
X110897142Y-50785714D01*
X110954285Y-50842857D01*
X111040000Y-50871428D01*
X111182857Y-50871428D01*
X110640000Y-50271428D02*
X110268571Y-50271428D01*
X110468571Y-50500000D01*
X110382857Y-50500000D01*
X110325714Y-50528571D01*
X110297142Y-50557142D01*
X110268571Y-50614285D01*
X110268571Y-50757142D01*
X110297142Y-50814285D01*
X110325714Y-50842857D01*
X110382857Y-50871428D01*
X110554285Y-50871428D01*
X110611428Y-50842857D01*
X110640000Y-50814285D01*
%TO.C,FB2*%
X128100000Y-62657142D02*
X128300000Y-62657142D01*
X128300000Y-62971428D02*
X128300000Y-62371428D01*
X128014285Y-62371428D01*
X127585714Y-62657142D02*
X127500000Y-62685714D01*
X127471428Y-62714285D01*
X127442857Y-62771428D01*
X127442857Y-62857142D01*
X127471428Y-62914285D01*
X127500000Y-62942857D01*
X127557142Y-62971428D01*
X127785714Y-62971428D01*
X127785714Y-62371428D01*
X127585714Y-62371428D01*
X127528571Y-62400000D01*
X127500000Y-62428571D01*
X127471428Y-62485714D01*
X127471428Y-62542857D01*
X127500000Y-62600000D01*
X127528571Y-62628571D01*
X127585714Y-62657142D01*
X127785714Y-62657142D01*
X127214285Y-62428571D02*
X127185714Y-62400000D01*
X127128571Y-62371428D01*
X126985714Y-62371428D01*
X126928571Y-62400000D01*
X126900000Y-62428571D01*
X126871428Y-62485714D01*
X126871428Y-62542857D01*
X126900000Y-62628571D01*
X127242857Y-62971428D01*
X126871428Y-62971428D01*
%TO.C,FB3*%
X122925000Y-67357142D02*
X123125000Y-67357142D01*
X123125000Y-67671428D02*
X123125000Y-67071428D01*
X122839285Y-67071428D01*
X122410714Y-67357142D02*
X122325000Y-67385714D01*
X122296428Y-67414285D01*
X122267857Y-67471428D01*
X122267857Y-67557142D01*
X122296428Y-67614285D01*
X122325000Y-67642857D01*
X122382142Y-67671428D01*
X122610714Y-67671428D01*
X122610714Y-67071428D01*
X122410714Y-67071428D01*
X122353571Y-67100000D01*
X122325000Y-67128571D01*
X122296428Y-67185714D01*
X122296428Y-67242857D01*
X122325000Y-67300000D01*
X122353571Y-67328571D01*
X122410714Y-67357142D01*
X122610714Y-67357142D01*
X122067857Y-67071428D02*
X121696428Y-67071428D01*
X121896428Y-67300000D01*
X121810714Y-67300000D01*
X121753571Y-67328571D01*
X121725000Y-67357142D01*
X121696428Y-67414285D01*
X121696428Y-67557142D01*
X121725000Y-67614285D01*
X121753571Y-67642857D01*
X121810714Y-67671428D01*
X121982142Y-67671428D01*
X122039285Y-67642857D01*
X122067857Y-67614285D01*
%TO.C,J1*%
X121300000Y-89271428D02*
X121300000Y-89700000D01*
X121328571Y-89785714D01*
X121385714Y-89842857D01*
X121471428Y-89871428D01*
X121528571Y-89871428D01*
X120700000Y-89871428D02*
X121042857Y-89871428D01*
X120871428Y-89871428D02*
X120871428Y-89271428D01*
X120928571Y-89357142D01*
X120985714Y-89414285D01*
X121042857Y-89442857D01*
%TO.C,J6*%
X105200000Y-93871428D02*
X105200000Y-94300000D01*
X105228571Y-94385714D01*
X105285714Y-94442857D01*
X105371428Y-94471428D01*
X105428571Y-94471428D01*
X104657142Y-93871428D02*
X104771428Y-93871428D01*
X104828571Y-93900000D01*
X104857142Y-93928571D01*
X104914285Y-94014285D01*
X104942857Y-94128571D01*
X104942857Y-94357142D01*
X104914285Y-94414285D01*
X104885714Y-94442857D01*
X104828571Y-94471428D01*
X104714285Y-94471428D01*
X104657142Y-94442857D01*
X104628571Y-94414285D01*
X104600000Y-94357142D01*
X104600000Y-94214285D01*
X104628571Y-94157142D01*
X104657142Y-94128571D01*
X104714285Y-94100000D01*
X104828571Y-94100000D01*
X104885714Y-94128571D01*
X104914285Y-94157142D01*
X104942857Y-94214285D01*
%TO.C,J7*%
X105200000Y-85471428D02*
X105200000Y-85900000D01*
X105228571Y-85985714D01*
X105285714Y-86042857D01*
X105371428Y-86071428D01*
X105428571Y-86071428D01*
X104971428Y-85471428D02*
X104571428Y-85471428D01*
X104828571Y-86071428D01*
%TO.C,J9*%
X138700000Y-93871428D02*
X138700000Y-94300000D01*
X138728571Y-94385714D01*
X138785714Y-94442857D01*
X138871428Y-94471428D01*
X138928571Y-94471428D01*
X138385714Y-94471428D02*
X138271428Y-94471428D01*
X138214285Y-94442857D01*
X138185714Y-94414285D01*
X138128571Y-94328571D01*
X138100000Y-94214285D01*
X138100000Y-93985714D01*
X138128571Y-93928571D01*
X138157142Y-93900000D01*
X138214285Y-93871428D01*
X138328571Y-93871428D01*
X138385714Y-93900000D01*
X138414285Y-93928571D01*
X138442857Y-93985714D01*
X138442857Y-94128571D01*
X138414285Y-94185714D01*
X138385714Y-94214285D01*
X138328571Y-94242857D01*
X138214285Y-94242857D01*
X138157142Y-94214285D01*
X138128571Y-94185714D01*
X138100000Y-94128571D01*
%TO.C,J10*%
X145085714Y-85571428D02*
X145085714Y-86000000D01*
X145114285Y-86085714D01*
X145171428Y-86142857D01*
X145257142Y-86171428D01*
X145314285Y-86171428D01*
X144485714Y-86171428D02*
X144828571Y-86171428D01*
X144657142Y-86171428D02*
X144657142Y-85571428D01*
X144714285Y-85657142D01*
X144771428Y-85714285D01*
X144828571Y-85742857D01*
X144114285Y-85571428D02*
X144057142Y-85571428D01*
X144000000Y-85600000D01*
X143971428Y-85628571D01*
X143942857Y-85685714D01*
X143914285Y-85800000D01*
X143914285Y-85942857D01*
X143942857Y-86057142D01*
X143971428Y-86114285D01*
X144000000Y-86142857D01*
X144057142Y-86171428D01*
X144114285Y-86171428D01*
X144171428Y-86142857D01*
X144200000Y-86114285D01*
X144228571Y-86057142D01*
X144257142Y-85942857D01*
X144257142Y-85800000D01*
X144228571Y-85685714D01*
X144200000Y-85628571D01*
X144171428Y-85600000D01*
X144114285Y-85571428D01*
%TO.C,R1*%
X120771428Y-72800000D02*
X120485714Y-72600000D01*
X120771428Y-72457142D02*
X120171428Y-72457142D01*
X120171428Y-72685714D01*
X120200000Y-72742857D01*
X120228571Y-72771428D01*
X120285714Y-72800000D01*
X120371428Y-72800000D01*
X120428571Y-72771428D01*
X120457142Y-72742857D01*
X120485714Y-72685714D01*
X120485714Y-72457142D01*
X120771428Y-73371428D02*
X120771428Y-73028571D01*
X120771428Y-73200000D02*
X120171428Y-73200000D01*
X120257142Y-73142857D01*
X120314285Y-73085714D01*
X120342857Y-73028571D01*
%TO.C,R2*%
X131400000Y-74571428D02*
X131600000Y-74285714D01*
X131742857Y-74571428D02*
X131742857Y-73971428D01*
X131514285Y-73971428D01*
X131457142Y-74000000D01*
X131428571Y-74028571D01*
X131400000Y-74085714D01*
X131400000Y-74171428D01*
X131428571Y-74228571D01*
X131457142Y-74257142D01*
X131514285Y-74285714D01*
X131742857Y-74285714D01*
X131171428Y-74028571D02*
X131142857Y-74000000D01*
X131085714Y-73971428D01*
X130942857Y-73971428D01*
X130885714Y-74000000D01*
X130857142Y-74028571D01*
X130828571Y-74085714D01*
X130828571Y-74142857D01*
X130857142Y-74228571D01*
X131200000Y-74571428D01*
X130828571Y-74571428D01*
%TO.C,R3*%
X127900000Y-51271428D02*
X128100000Y-50985714D01*
X128242857Y-51271428D02*
X128242857Y-50671428D01*
X128014285Y-50671428D01*
X127957142Y-50700000D01*
X127928571Y-50728571D01*
X127900000Y-50785714D01*
X127900000Y-50871428D01*
X127928571Y-50928571D01*
X127957142Y-50957142D01*
X128014285Y-50985714D01*
X128242857Y-50985714D01*
X127700000Y-50671428D02*
X127328571Y-50671428D01*
X127528571Y-50900000D01*
X127442857Y-50900000D01*
X127385714Y-50928571D01*
X127357142Y-50957142D01*
X127328571Y-51014285D01*
X127328571Y-51157142D01*
X127357142Y-51214285D01*
X127385714Y-51242857D01*
X127442857Y-51271428D01*
X127614285Y-51271428D01*
X127671428Y-51242857D01*
X127700000Y-51214285D01*
%TO.C,R4*%
X125170000Y-80671428D02*
X125370000Y-80385714D01*
X125512857Y-80671428D02*
X125512857Y-80071428D01*
X125284285Y-80071428D01*
X125227142Y-80100000D01*
X125198571Y-80128571D01*
X125170000Y-80185714D01*
X125170000Y-80271428D01*
X125198571Y-80328571D01*
X125227142Y-80357142D01*
X125284285Y-80385714D01*
X125512857Y-80385714D01*
X124655714Y-80271428D02*
X124655714Y-80671428D01*
X124798571Y-80042857D02*
X124941428Y-80471428D01*
X124570000Y-80471428D01*
%TO.C,R6*%
X124471428Y-86150000D02*
X124185714Y-85950000D01*
X124471428Y-85807142D02*
X123871428Y-85807142D01*
X123871428Y-86035714D01*
X123900000Y-86092857D01*
X123928571Y-86121428D01*
X123985714Y-86150000D01*
X124071428Y-86150000D01*
X124128571Y-86121428D01*
X124157142Y-86092857D01*
X124185714Y-86035714D01*
X124185714Y-85807142D01*
X123871428Y-86664285D02*
X123871428Y-86550000D01*
X123900000Y-86492857D01*
X123928571Y-86464285D01*
X124014285Y-86407142D01*
X124128571Y-86378571D01*
X124357142Y-86378571D01*
X124414285Y-86407142D01*
X124442857Y-86435714D01*
X124471428Y-86492857D01*
X124471428Y-86607142D01*
X124442857Y-86664285D01*
X124414285Y-86692857D01*
X124357142Y-86721428D01*
X124214285Y-86721428D01*
X124157142Y-86692857D01*
X124128571Y-86664285D01*
X124100000Y-86607142D01*
X124100000Y-86492857D01*
X124128571Y-86435714D01*
X124157142Y-86407142D01*
X124214285Y-86378571D01*
%TO.C,R7*%
X125371428Y-81900000D02*
X125085714Y-81700000D01*
X125371428Y-81557142D02*
X124771428Y-81557142D01*
X124771428Y-81785714D01*
X124800000Y-81842857D01*
X124828571Y-81871428D01*
X124885714Y-81900000D01*
X124971428Y-81900000D01*
X125028571Y-81871428D01*
X125057142Y-81842857D01*
X125085714Y-81785714D01*
X125085714Y-81557142D01*
X124771428Y-82100000D02*
X124771428Y-82500000D01*
X125371428Y-82242857D01*
%TO.C,R8*%
X114571428Y-53600000D02*
X114285714Y-53400000D01*
X114571428Y-53257142D02*
X113971428Y-53257142D01*
X113971428Y-53485714D01*
X114000000Y-53542857D01*
X114028571Y-53571428D01*
X114085714Y-53600000D01*
X114171428Y-53600000D01*
X114228571Y-53571428D01*
X114257142Y-53542857D01*
X114285714Y-53485714D01*
X114285714Y-53257142D01*
X114228571Y-53942857D02*
X114200000Y-53885714D01*
X114171428Y-53857142D01*
X114114285Y-53828571D01*
X114085714Y-53828571D01*
X114028571Y-53857142D01*
X114000000Y-53885714D01*
X113971428Y-53942857D01*
X113971428Y-54057142D01*
X114000000Y-54114285D01*
X114028571Y-54142857D01*
X114085714Y-54171428D01*
X114114285Y-54171428D01*
X114171428Y-54142857D01*
X114200000Y-54114285D01*
X114228571Y-54057142D01*
X114228571Y-53942857D01*
X114257142Y-53885714D01*
X114285714Y-53857142D01*
X114342857Y-53828571D01*
X114457142Y-53828571D01*
X114514285Y-53857142D01*
X114542857Y-53885714D01*
X114571428Y-53942857D01*
X114571428Y-54057142D01*
X114542857Y-54114285D01*
X114514285Y-54142857D01*
X114457142Y-54171428D01*
X114342857Y-54171428D01*
X114285714Y-54142857D01*
X114257142Y-54114285D01*
X114228571Y-54057142D01*
%TO.C,R9*%
X114871428Y-51700000D02*
X114585714Y-51500000D01*
X114871428Y-51357142D02*
X114271428Y-51357142D01*
X114271428Y-51585714D01*
X114300000Y-51642857D01*
X114328571Y-51671428D01*
X114385714Y-51700000D01*
X114471428Y-51700000D01*
X114528571Y-51671428D01*
X114557142Y-51642857D01*
X114585714Y-51585714D01*
X114585714Y-51357142D01*
X114871428Y-51985714D02*
X114871428Y-52100000D01*
X114842857Y-52157142D01*
X114814285Y-52185714D01*
X114728571Y-52242857D01*
X114614285Y-52271428D01*
X114385714Y-52271428D01*
X114328571Y-52242857D01*
X114300000Y-52214285D01*
X114271428Y-52157142D01*
X114271428Y-52042857D01*
X114300000Y-51985714D01*
X114328571Y-51957142D01*
X114385714Y-51928571D01*
X114528571Y-51928571D01*
X114585714Y-51957142D01*
X114614285Y-51985714D01*
X114642857Y-52042857D01*
X114642857Y-52157142D01*
X114614285Y-52214285D01*
X114585714Y-52242857D01*
X114528571Y-52271428D01*
%TO.C,R10*%
X110285714Y-54871428D02*
X110485714Y-54585714D01*
X110628571Y-54871428D02*
X110628571Y-54271428D01*
X110400000Y-54271428D01*
X110342857Y-54300000D01*
X110314285Y-54328571D01*
X110285714Y-54385714D01*
X110285714Y-54471428D01*
X110314285Y-54528571D01*
X110342857Y-54557142D01*
X110400000Y-54585714D01*
X110628571Y-54585714D01*
X109714285Y-54871428D02*
X110057142Y-54871428D01*
X109885714Y-54871428D02*
X109885714Y-54271428D01*
X109942857Y-54357142D01*
X110000000Y-54414285D01*
X110057142Y-54442857D01*
X109342857Y-54271428D02*
X109285714Y-54271428D01*
X109228571Y-54300000D01*
X109200000Y-54328571D01*
X109171428Y-54385714D01*
X109142857Y-54500000D01*
X109142857Y-54642857D01*
X109171428Y-54757142D01*
X109200000Y-54814285D01*
X109228571Y-54842857D01*
X109285714Y-54871428D01*
X109342857Y-54871428D01*
X109400000Y-54842857D01*
X109428571Y-54814285D01*
X109457142Y-54757142D01*
X109485714Y-54642857D01*
X109485714Y-54500000D01*
X109457142Y-54385714D01*
X109428571Y-54328571D01*
X109400000Y-54300000D01*
X109342857Y-54271428D01*
%TO.C,R11*%
X109271428Y-51414285D02*
X108985714Y-51214285D01*
X109271428Y-51071428D02*
X108671428Y-51071428D01*
X108671428Y-51300000D01*
X108700000Y-51357142D01*
X108728571Y-51385714D01*
X108785714Y-51414285D01*
X108871428Y-51414285D01*
X108928571Y-51385714D01*
X108957142Y-51357142D01*
X108985714Y-51300000D01*
X108985714Y-51071428D01*
X109271428Y-51985714D02*
X109271428Y-51642857D01*
X109271428Y-51814285D02*
X108671428Y-51814285D01*
X108757142Y-51757142D01*
X108814285Y-51700000D01*
X108842857Y-51642857D01*
X109271428Y-52557142D02*
X109271428Y-52214285D01*
X109271428Y-52385714D02*
X108671428Y-52385714D01*
X108757142Y-52328571D01*
X108814285Y-52271428D01*
X108842857Y-52214285D01*
%TO.C,R12*%
X137085714Y-55371428D02*
X137285714Y-55085714D01*
X137428571Y-55371428D02*
X137428571Y-54771428D01*
X137200000Y-54771428D01*
X137142857Y-54800000D01*
X137114285Y-54828571D01*
X137085714Y-54885714D01*
X137085714Y-54971428D01*
X137114285Y-55028571D01*
X137142857Y-55057142D01*
X137200000Y-55085714D01*
X137428571Y-55085714D01*
X136514285Y-55371428D02*
X136857142Y-55371428D01*
X136685714Y-55371428D02*
X136685714Y-54771428D01*
X136742857Y-54857142D01*
X136800000Y-54914285D01*
X136857142Y-54942857D01*
X136285714Y-54828571D02*
X136257142Y-54800000D01*
X136200000Y-54771428D01*
X136057142Y-54771428D01*
X136000000Y-54800000D01*
X135971428Y-54828571D01*
X135942857Y-54885714D01*
X135942857Y-54942857D01*
X135971428Y-55028571D01*
X136314285Y-55371428D01*
X135942857Y-55371428D01*
%TO.C,R16*%
X120185714Y-55971428D02*
X120385714Y-55685714D01*
X120528571Y-55971428D02*
X120528571Y-55371428D01*
X120300000Y-55371428D01*
X120242857Y-55400000D01*
X120214285Y-55428571D01*
X120185714Y-55485714D01*
X120185714Y-55571428D01*
X120214285Y-55628571D01*
X120242857Y-55657142D01*
X120300000Y-55685714D01*
X120528571Y-55685714D01*
X119614285Y-55971428D02*
X119957142Y-55971428D01*
X119785714Y-55971428D02*
X119785714Y-55371428D01*
X119842857Y-55457142D01*
X119900000Y-55514285D01*
X119957142Y-55542857D01*
X119100000Y-55371428D02*
X119214285Y-55371428D01*
X119271428Y-55400000D01*
X119300000Y-55428571D01*
X119357142Y-55514285D01*
X119385714Y-55628571D01*
X119385714Y-55857142D01*
X119357142Y-55914285D01*
X119328571Y-55942857D01*
X119271428Y-55971428D01*
X119157142Y-55971428D01*
X119100000Y-55942857D01*
X119071428Y-55914285D01*
X119042857Y-55857142D01*
X119042857Y-55714285D01*
X119071428Y-55657142D01*
X119100000Y-55628571D01*
X119157142Y-55600000D01*
X119271428Y-55600000D01*
X119328571Y-55628571D01*
X119357142Y-55657142D01*
X119385714Y-55714285D01*
%TO.C,R17*%
X115585714Y-55971428D02*
X115785714Y-55685714D01*
X115928571Y-55971428D02*
X115928571Y-55371428D01*
X115700000Y-55371428D01*
X115642857Y-55400000D01*
X115614285Y-55428571D01*
X115585714Y-55485714D01*
X115585714Y-55571428D01*
X115614285Y-55628571D01*
X115642857Y-55657142D01*
X115700000Y-55685714D01*
X115928571Y-55685714D01*
X115014285Y-55971428D02*
X115357142Y-55971428D01*
X115185714Y-55971428D02*
X115185714Y-55371428D01*
X115242857Y-55457142D01*
X115300000Y-55514285D01*
X115357142Y-55542857D01*
X114814285Y-55371428D02*
X114414285Y-55371428D01*
X114671428Y-55971428D01*
%TO.C,R18*%
X121771428Y-54414285D02*
X121485714Y-54214285D01*
X121771428Y-54071428D02*
X121171428Y-54071428D01*
X121171428Y-54300000D01*
X121200000Y-54357142D01*
X121228571Y-54385714D01*
X121285714Y-54414285D01*
X121371428Y-54414285D01*
X121428571Y-54385714D01*
X121457142Y-54357142D01*
X121485714Y-54300000D01*
X121485714Y-54071428D01*
X121771428Y-54985714D02*
X121771428Y-54642857D01*
X121771428Y-54814285D02*
X121171428Y-54814285D01*
X121257142Y-54757142D01*
X121314285Y-54700000D01*
X121342857Y-54642857D01*
X121428571Y-55328571D02*
X121400000Y-55271428D01*
X121371428Y-55242857D01*
X121314285Y-55214285D01*
X121285714Y-55214285D01*
X121228571Y-55242857D01*
X121200000Y-55271428D01*
X121171428Y-55328571D01*
X121171428Y-55442857D01*
X121200000Y-55500000D01*
X121228571Y-55528571D01*
X121285714Y-55557142D01*
X121314285Y-55557142D01*
X121371428Y-55528571D01*
X121400000Y-55500000D01*
X121428571Y-55442857D01*
X121428571Y-55328571D01*
X121457142Y-55271428D01*
X121485714Y-55242857D01*
X121542857Y-55214285D01*
X121657142Y-55214285D01*
X121714285Y-55242857D01*
X121742857Y-55271428D01*
X121771428Y-55328571D01*
X121771428Y-55442857D01*
X121742857Y-55500000D01*
X121714285Y-55528571D01*
X121657142Y-55557142D01*
X121542857Y-55557142D01*
X121485714Y-55528571D01*
X121457142Y-55500000D01*
X121428571Y-55442857D01*
%TO.C,R19*%
X125385714Y-51271428D02*
X125585714Y-50985714D01*
X125728571Y-51271428D02*
X125728571Y-50671428D01*
X125500000Y-50671428D01*
X125442857Y-50700000D01*
X125414285Y-50728571D01*
X125385714Y-50785714D01*
X125385714Y-50871428D01*
X125414285Y-50928571D01*
X125442857Y-50957142D01*
X125500000Y-50985714D01*
X125728571Y-50985714D01*
X124814285Y-51271428D02*
X125157142Y-51271428D01*
X124985714Y-51271428D02*
X124985714Y-50671428D01*
X125042857Y-50757142D01*
X125100000Y-50814285D01*
X125157142Y-50842857D01*
X124528571Y-51271428D02*
X124414285Y-51271428D01*
X124357142Y-51242857D01*
X124328571Y-51214285D01*
X124271428Y-51128571D01*
X124242857Y-51014285D01*
X124242857Y-50785714D01*
X124271428Y-50728571D01*
X124300000Y-50700000D01*
X124357142Y-50671428D01*
X124471428Y-50671428D01*
X124528571Y-50700000D01*
X124557142Y-50728571D01*
X124585714Y-50785714D01*
X124585714Y-50928571D01*
X124557142Y-50985714D01*
X124528571Y-51014285D01*
X124471428Y-51042857D01*
X124357142Y-51042857D01*
X124300000Y-51014285D01*
X124271428Y-50985714D01*
X124242857Y-50928571D01*
%TO.C,R20*%
X119985714Y-57071428D02*
X120185714Y-56785714D01*
X120328571Y-57071428D02*
X120328571Y-56471428D01*
X120100000Y-56471428D01*
X120042857Y-56500000D01*
X120014285Y-56528571D01*
X119985714Y-56585714D01*
X119985714Y-56671428D01*
X120014285Y-56728571D01*
X120042857Y-56757142D01*
X120100000Y-56785714D01*
X120328571Y-56785714D01*
X119757142Y-56528571D02*
X119728571Y-56500000D01*
X119671428Y-56471428D01*
X119528571Y-56471428D01*
X119471428Y-56500000D01*
X119442857Y-56528571D01*
X119414285Y-56585714D01*
X119414285Y-56642857D01*
X119442857Y-56728571D01*
X119785714Y-57071428D01*
X119414285Y-57071428D01*
X119042857Y-56471428D02*
X118985714Y-56471428D01*
X118928571Y-56500000D01*
X118900000Y-56528571D01*
X118871428Y-56585714D01*
X118842857Y-56700000D01*
X118842857Y-56842857D01*
X118871428Y-56957142D01*
X118900000Y-57014285D01*
X118928571Y-57042857D01*
X118985714Y-57071428D01*
X119042857Y-57071428D01*
X119100000Y-57042857D01*
X119128571Y-57014285D01*
X119157142Y-56957142D01*
X119185714Y-56842857D01*
X119185714Y-56700000D01*
X119157142Y-56585714D01*
X119128571Y-56528571D01*
X119100000Y-56500000D01*
X119042857Y-56471428D01*
%TO.C,R21*%
X125585714Y-58671428D02*
X125785714Y-58385714D01*
X125928571Y-58671428D02*
X125928571Y-58071428D01*
X125700000Y-58071428D01*
X125642857Y-58100000D01*
X125614285Y-58128571D01*
X125585714Y-58185714D01*
X125585714Y-58271428D01*
X125614285Y-58328571D01*
X125642857Y-58357142D01*
X125700000Y-58385714D01*
X125928571Y-58385714D01*
X125357142Y-58128571D02*
X125328571Y-58100000D01*
X125271428Y-58071428D01*
X125128571Y-58071428D01*
X125071428Y-58100000D01*
X125042857Y-58128571D01*
X125014285Y-58185714D01*
X125014285Y-58242857D01*
X125042857Y-58328571D01*
X125385714Y-58671428D01*
X125014285Y-58671428D01*
X124442857Y-58671428D02*
X124785714Y-58671428D01*
X124614285Y-58671428D02*
X124614285Y-58071428D01*
X124671428Y-58157142D01*
X124728571Y-58214285D01*
X124785714Y-58242857D01*
%TO.C,R22*%
X132285714Y-56096428D02*
X132485714Y-55810714D01*
X132628571Y-56096428D02*
X132628571Y-55496428D01*
X132400000Y-55496428D01*
X132342857Y-55525000D01*
X132314285Y-55553571D01*
X132285714Y-55610714D01*
X132285714Y-55696428D01*
X132314285Y-55753571D01*
X132342857Y-55782142D01*
X132400000Y-55810714D01*
X132628571Y-55810714D01*
X132057142Y-55553571D02*
X132028571Y-55525000D01*
X131971428Y-55496428D01*
X131828571Y-55496428D01*
X131771428Y-55525000D01*
X131742857Y-55553571D01*
X131714285Y-55610714D01*
X131714285Y-55667857D01*
X131742857Y-55753571D01*
X132085714Y-56096428D01*
X131714285Y-56096428D01*
X131485714Y-55553571D02*
X131457142Y-55525000D01*
X131400000Y-55496428D01*
X131257142Y-55496428D01*
X131200000Y-55525000D01*
X131171428Y-55553571D01*
X131142857Y-55610714D01*
X131142857Y-55667857D01*
X131171428Y-55753571D01*
X131514285Y-56096428D01*
X131142857Y-56096428D01*
%TO.C,R23*%
X121871428Y-60214285D02*
X121585714Y-60014285D01*
X121871428Y-59871428D02*
X121271428Y-59871428D01*
X121271428Y-60100000D01*
X121300000Y-60157142D01*
X121328571Y-60185714D01*
X121385714Y-60214285D01*
X121471428Y-60214285D01*
X121528571Y-60185714D01*
X121557142Y-60157142D01*
X121585714Y-60100000D01*
X121585714Y-59871428D01*
X121328571Y-60442857D02*
X121300000Y-60471428D01*
X121271428Y-60528571D01*
X121271428Y-60671428D01*
X121300000Y-60728571D01*
X121328571Y-60757142D01*
X121385714Y-60785714D01*
X121442857Y-60785714D01*
X121528571Y-60757142D01*
X121871428Y-60414285D01*
X121871428Y-60785714D01*
X121271428Y-60985714D02*
X121271428Y-61357142D01*
X121500000Y-61157142D01*
X121500000Y-61242857D01*
X121528571Y-61300000D01*
X121557142Y-61328571D01*
X121614285Y-61357142D01*
X121757142Y-61357142D01*
X121814285Y-61328571D01*
X121842857Y-61300000D01*
X121871428Y-61242857D01*
X121871428Y-61071428D01*
X121842857Y-61014285D01*
X121814285Y-60985714D01*
%TO.C,R24*%
X121871428Y-58314285D02*
X121585714Y-58114285D01*
X121871428Y-57971428D02*
X121271428Y-57971428D01*
X121271428Y-58200000D01*
X121300000Y-58257142D01*
X121328571Y-58285714D01*
X121385714Y-58314285D01*
X121471428Y-58314285D01*
X121528571Y-58285714D01*
X121557142Y-58257142D01*
X121585714Y-58200000D01*
X121585714Y-57971428D01*
X121328571Y-58542857D02*
X121300000Y-58571428D01*
X121271428Y-58628571D01*
X121271428Y-58771428D01*
X121300000Y-58828571D01*
X121328571Y-58857142D01*
X121385714Y-58885714D01*
X121442857Y-58885714D01*
X121528571Y-58857142D01*
X121871428Y-58514285D01*
X121871428Y-58885714D01*
X121471428Y-59400000D02*
X121871428Y-59400000D01*
X121242857Y-59257142D02*
X121671428Y-59114285D01*
X121671428Y-59485714D01*
%TO.C,R25*%
X121871428Y-70914285D02*
X121585714Y-70714285D01*
X121871428Y-70571428D02*
X121271428Y-70571428D01*
X121271428Y-70800000D01*
X121300000Y-70857142D01*
X121328571Y-70885714D01*
X121385714Y-70914285D01*
X121471428Y-70914285D01*
X121528571Y-70885714D01*
X121557142Y-70857142D01*
X121585714Y-70800000D01*
X121585714Y-70571428D01*
X121328571Y-71142857D02*
X121300000Y-71171428D01*
X121271428Y-71228571D01*
X121271428Y-71371428D01*
X121300000Y-71428571D01*
X121328571Y-71457142D01*
X121385714Y-71485714D01*
X121442857Y-71485714D01*
X121528571Y-71457142D01*
X121871428Y-71114285D01*
X121871428Y-71485714D01*
X121271428Y-72028571D02*
X121271428Y-71742857D01*
X121557142Y-71714285D01*
X121528571Y-71742857D01*
X121500000Y-71800000D01*
X121500000Y-71942857D01*
X121528571Y-72000000D01*
X121557142Y-72028571D01*
X121614285Y-72057142D01*
X121757142Y-72057142D01*
X121814285Y-72028571D01*
X121842857Y-72000000D01*
X121871428Y-71942857D01*
X121871428Y-71800000D01*
X121842857Y-71742857D01*
X121814285Y-71714285D01*
%TO.C,R26*%
X108385714Y-56271428D02*
X108585714Y-55985714D01*
X108728571Y-56271428D02*
X108728571Y-55671428D01*
X108500000Y-55671428D01*
X108442857Y-55700000D01*
X108414285Y-55728571D01*
X108385714Y-55785714D01*
X108385714Y-55871428D01*
X108414285Y-55928571D01*
X108442857Y-55957142D01*
X108500000Y-55985714D01*
X108728571Y-55985714D01*
X108157142Y-55728571D02*
X108128571Y-55700000D01*
X108071428Y-55671428D01*
X107928571Y-55671428D01*
X107871428Y-55700000D01*
X107842857Y-55728571D01*
X107814285Y-55785714D01*
X107814285Y-55842857D01*
X107842857Y-55928571D01*
X108185714Y-56271428D01*
X107814285Y-56271428D01*
X107300000Y-55671428D02*
X107414285Y-55671428D01*
X107471428Y-55700000D01*
X107500000Y-55728571D01*
X107557142Y-55814285D01*
X107585714Y-55928571D01*
X107585714Y-56157142D01*
X107557142Y-56214285D01*
X107528571Y-56242857D01*
X107471428Y-56271428D01*
X107357142Y-56271428D01*
X107300000Y-56242857D01*
X107271428Y-56214285D01*
X107242857Y-56157142D01*
X107242857Y-56014285D01*
X107271428Y-55957142D01*
X107300000Y-55928571D01*
X107357142Y-55900000D01*
X107471428Y-55900000D01*
X107528571Y-55928571D01*
X107557142Y-55957142D01*
X107585714Y-56014285D01*
%TO.C,R28*%
X131985714Y-75571428D02*
X132185714Y-75285714D01*
X132328571Y-75571428D02*
X132328571Y-74971428D01*
X132100000Y-74971428D01*
X132042857Y-75000000D01*
X132014285Y-75028571D01*
X131985714Y-75085714D01*
X131985714Y-75171428D01*
X132014285Y-75228571D01*
X132042857Y-75257142D01*
X132100000Y-75285714D01*
X132328571Y-75285714D01*
X131757142Y-75028571D02*
X131728571Y-75000000D01*
X131671428Y-74971428D01*
X131528571Y-74971428D01*
X131471428Y-75000000D01*
X131442857Y-75028571D01*
X131414285Y-75085714D01*
X131414285Y-75142857D01*
X131442857Y-75228571D01*
X131785714Y-75571428D01*
X131414285Y-75571428D01*
X131071428Y-75228571D02*
X131128571Y-75200000D01*
X131157142Y-75171428D01*
X131185714Y-75114285D01*
X131185714Y-75085714D01*
X131157142Y-75028571D01*
X131128571Y-75000000D01*
X131071428Y-74971428D01*
X130957142Y-74971428D01*
X130900000Y-75000000D01*
X130871428Y-75028571D01*
X130842857Y-75085714D01*
X130842857Y-75114285D01*
X130871428Y-75171428D01*
X130900000Y-75200000D01*
X130957142Y-75228571D01*
X131071428Y-75228571D01*
X131128571Y-75257142D01*
X131157142Y-75285714D01*
X131185714Y-75342857D01*
X131185714Y-75457142D01*
X131157142Y-75514285D01*
X131128571Y-75542857D01*
X131071428Y-75571428D01*
X130957142Y-75571428D01*
X130900000Y-75542857D01*
X130871428Y-75514285D01*
X130842857Y-75457142D01*
X130842857Y-75342857D01*
X130871428Y-75285714D01*
X130900000Y-75257142D01*
X130957142Y-75228571D01*
%TO.C,R29*%
X127085714Y-79971428D02*
X127285714Y-79685714D01*
X127428571Y-79971428D02*
X127428571Y-79371428D01*
X127200000Y-79371428D01*
X127142857Y-79400000D01*
X127114285Y-79428571D01*
X127085714Y-79485714D01*
X127085714Y-79571428D01*
X127114285Y-79628571D01*
X127142857Y-79657142D01*
X127200000Y-79685714D01*
X127428571Y-79685714D01*
X126857142Y-79428571D02*
X126828571Y-79400000D01*
X126771428Y-79371428D01*
X126628571Y-79371428D01*
X126571428Y-79400000D01*
X126542857Y-79428571D01*
X126514285Y-79485714D01*
X126514285Y-79542857D01*
X126542857Y-79628571D01*
X126885714Y-79971428D01*
X126514285Y-79971428D01*
X126228571Y-79971428D02*
X126114285Y-79971428D01*
X126057142Y-79942857D01*
X126028571Y-79914285D01*
X125971428Y-79828571D01*
X125942857Y-79714285D01*
X125942857Y-79485714D01*
X125971428Y-79428571D01*
X126000000Y-79400000D01*
X126057142Y-79371428D01*
X126171428Y-79371428D01*
X126228571Y-79400000D01*
X126257142Y-79428571D01*
X126285714Y-79485714D01*
X126285714Y-79628571D01*
X126257142Y-79685714D01*
X126228571Y-79714285D01*
X126171428Y-79742857D01*
X126057142Y-79742857D01*
X126000000Y-79714285D01*
X125971428Y-79685714D01*
X125942857Y-79628571D01*
%TO.C,R30*%
X130885714Y-73471428D02*
X131085714Y-73185714D01*
X131228571Y-73471428D02*
X131228571Y-72871428D01*
X131000000Y-72871428D01*
X130942857Y-72900000D01*
X130914285Y-72928571D01*
X130885714Y-72985714D01*
X130885714Y-73071428D01*
X130914285Y-73128571D01*
X130942857Y-73157142D01*
X131000000Y-73185714D01*
X131228571Y-73185714D01*
X130685714Y-72871428D02*
X130314285Y-72871428D01*
X130514285Y-73100000D01*
X130428571Y-73100000D01*
X130371428Y-73128571D01*
X130342857Y-73157142D01*
X130314285Y-73214285D01*
X130314285Y-73357142D01*
X130342857Y-73414285D01*
X130371428Y-73442857D01*
X130428571Y-73471428D01*
X130600000Y-73471428D01*
X130657142Y-73442857D01*
X130685714Y-73414285D01*
X129942857Y-72871428D02*
X129885714Y-72871428D01*
X129828571Y-72900000D01*
X129800000Y-72928571D01*
X129771428Y-72985714D01*
X129742857Y-73100000D01*
X129742857Y-73242857D01*
X129771428Y-73357142D01*
X129800000Y-73414285D01*
X129828571Y-73442857D01*
X129885714Y-73471428D01*
X129942857Y-73471428D01*
X130000000Y-73442857D01*
X130028571Y-73414285D01*
X130057142Y-73357142D01*
X130085714Y-73242857D01*
X130085714Y-73100000D01*
X130057142Y-72985714D01*
X130028571Y-72928571D01*
X130000000Y-72900000D01*
X129942857Y-72871428D01*
%TO.C,R31*%
X125185714Y-71971428D02*
X125385714Y-71685714D01*
X125528571Y-71971428D02*
X125528571Y-71371428D01*
X125300000Y-71371428D01*
X125242857Y-71400000D01*
X125214285Y-71428571D01*
X125185714Y-71485714D01*
X125185714Y-71571428D01*
X125214285Y-71628571D01*
X125242857Y-71657142D01*
X125300000Y-71685714D01*
X125528571Y-71685714D01*
X124985714Y-71371428D02*
X124614285Y-71371428D01*
X124814285Y-71600000D01*
X124728571Y-71600000D01*
X124671428Y-71628571D01*
X124642857Y-71657142D01*
X124614285Y-71714285D01*
X124614285Y-71857142D01*
X124642857Y-71914285D01*
X124671428Y-71942857D01*
X124728571Y-71971428D01*
X124900000Y-71971428D01*
X124957142Y-71942857D01*
X124985714Y-71914285D01*
X124042857Y-71971428D02*
X124385714Y-71971428D01*
X124214285Y-71971428D02*
X124214285Y-71371428D01*
X124271428Y-71457142D01*
X124328571Y-71514285D01*
X124385714Y-71542857D01*
%TO.C,R32*%
X118585714Y-74571428D02*
X118785714Y-74285714D01*
X118928571Y-74571428D02*
X118928571Y-73971428D01*
X118700000Y-73971428D01*
X118642857Y-74000000D01*
X118614285Y-74028571D01*
X118585714Y-74085714D01*
X118585714Y-74171428D01*
X118614285Y-74228571D01*
X118642857Y-74257142D01*
X118700000Y-74285714D01*
X118928571Y-74285714D01*
X118385714Y-73971428D02*
X118014285Y-73971428D01*
X118214285Y-74200000D01*
X118128571Y-74200000D01*
X118071428Y-74228571D01*
X118042857Y-74257142D01*
X118014285Y-74314285D01*
X118014285Y-74457142D01*
X118042857Y-74514285D01*
X118071428Y-74542857D01*
X118128571Y-74571428D01*
X118300000Y-74571428D01*
X118357142Y-74542857D01*
X118385714Y-74514285D01*
X117785714Y-74028571D02*
X117757142Y-74000000D01*
X117700000Y-73971428D01*
X117557142Y-73971428D01*
X117500000Y-74000000D01*
X117471428Y-74028571D01*
X117442857Y-74085714D01*
X117442857Y-74142857D01*
X117471428Y-74228571D01*
X117814285Y-74571428D01*
X117442857Y-74571428D01*
%TO.C,R33*%
X128771428Y-69014285D02*
X128485714Y-68814285D01*
X128771428Y-68671428D02*
X128171428Y-68671428D01*
X128171428Y-68900000D01*
X128200000Y-68957142D01*
X128228571Y-68985714D01*
X128285714Y-69014285D01*
X128371428Y-69014285D01*
X128428571Y-68985714D01*
X128457142Y-68957142D01*
X128485714Y-68900000D01*
X128485714Y-68671428D01*
X128171428Y-69214285D02*
X128171428Y-69585714D01*
X128400000Y-69385714D01*
X128400000Y-69471428D01*
X128428571Y-69528571D01*
X128457142Y-69557142D01*
X128514285Y-69585714D01*
X128657142Y-69585714D01*
X128714285Y-69557142D01*
X128742857Y-69528571D01*
X128771428Y-69471428D01*
X128771428Y-69300000D01*
X128742857Y-69242857D01*
X128714285Y-69214285D01*
X128171428Y-69785714D02*
X128171428Y-70157142D01*
X128400000Y-69957142D01*
X128400000Y-70042857D01*
X128428571Y-70100000D01*
X128457142Y-70128571D01*
X128514285Y-70157142D01*
X128657142Y-70157142D01*
X128714285Y-70128571D01*
X128742857Y-70100000D01*
X128771428Y-70042857D01*
X128771428Y-69871428D01*
X128742857Y-69814285D01*
X128714285Y-69785714D01*
%TO.C,R34*%
X128771428Y-70914285D02*
X128485714Y-70714285D01*
X128771428Y-70571428D02*
X128171428Y-70571428D01*
X128171428Y-70800000D01*
X128200000Y-70857142D01*
X128228571Y-70885714D01*
X128285714Y-70914285D01*
X128371428Y-70914285D01*
X128428571Y-70885714D01*
X128457142Y-70857142D01*
X128485714Y-70800000D01*
X128485714Y-70571428D01*
X128171428Y-71114285D02*
X128171428Y-71485714D01*
X128400000Y-71285714D01*
X128400000Y-71371428D01*
X128428571Y-71428571D01*
X128457142Y-71457142D01*
X128514285Y-71485714D01*
X128657142Y-71485714D01*
X128714285Y-71457142D01*
X128742857Y-71428571D01*
X128771428Y-71371428D01*
X128771428Y-71200000D01*
X128742857Y-71142857D01*
X128714285Y-71114285D01*
X128371428Y-72000000D02*
X128771428Y-72000000D01*
X128142857Y-71857142D02*
X128571428Y-71714285D01*
X128571428Y-72085714D01*
%TO.C,R35*%
X128771428Y-58314285D02*
X128485714Y-58114285D01*
X128771428Y-57971428D02*
X128171428Y-57971428D01*
X128171428Y-58200000D01*
X128200000Y-58257142D01*
X128228571Y-58285714D01*
X128285714Y-58314285D01*
X128371428Y-58314285D01*
X128428571Y-58285714D01*
X128457142Y-58257142D01*
X128485714Y-58200000D01*
X128485714Y-57971428D01*
X128171428Y-58514285D02*
X128171428Y-58885714D01*
X128400000Y-58685714D01*
X128400000Y-58771428D01*
X128428571Y-58828571D01*
X128457142Y-58857142D01*
X128514285Y-58885714D01*
X128657142Y-58885714D01*
X128714285Y-58857142D01*
X128742857Y-58828571D01*
X128771428Y-58771428D01*
X128771428Y-58600000D01*
X128742857Y-58542857D01*
X128714285Y-58514285D01*
X128171428Y-59428571D02*
X128171428Y-59142857D01*
X128457142Y-59114285D01*
X128428571Y-59142857D01*
X128400000Y-59200000D01*
X128400000Y-59342857D01*
X128428571Y-59400000D01*
X128457142Y-59428571D01*
X128514285Y-59457142D01*
X128657142Y-59457142D01*
X128714285Y-59428571D01*
X128742857Y-59400000D01*
X128771428Y-59342857D01*
X128771428Y-59200000D01*
X128742857Y-59142857D01*
X128714285Y-59114285D01*
%TO.C,R36*%
X142385714Y-52171428D02*
X142585714Y-51885714D01*
X142728571Y-52171428D02*
X142728571Y-51571428D01*
X142500000Y-51571428D01*
X142442857Y-51600000D01*
X142414285Y-51628571D01*
X142385714Y-51685714D01*
X142385714Y-51771428D01*
X142414285Y-51828571D01*
X142442857Y-51857142D01*
X142500000Y-51885714D01*
X142728571Y-51885714D01*
X142185714Y-51571428D02*
X141814285Y-51571428D01*
X142014285Y-51800000D01*
X141928571Y-51800000D01*
X141871428Y-51828571D01*
X141842857Y-51857142D01*
X141814285Y-51914285D01*
X141814285Y-52057142D01*
X141842857Y-52114285D01*
X141871428Y-52142857D01*
X141928571Y-52171428D01*
X142100000Y-52171428D01*
X142157142Y-52142857D01*
X142185714Y-52114285D01*
X141300000Y-51571428D02*
X141414285Y-51571428D01*
X141471428Y-51600000D01*
X141500000Y-51628571D01*
X141557142Y-51714285D01*
X141585714Y-51828571D01*
X141585714Y-52057142D01*
X141557142Y-52114285D01*
X141528571Y-52142857D01*
X141471428Y-52171428D01*
X141357142Y-52171428D01*
X141300000Y-52142857D01*
X141271428Y-52114285D01*
X141242857Y-52057142D01*
X141242857Y-51914285D01*
X141271428Y-51857142D01*
X141300000Y-51828571D01*
X141357142Y-51800000D01*
X141471428Y-51800000D01*
X141528571Y-51828571D01*
X141557142Y-51857142D01*
X141585714Y-51914285D01*
%TO.C,R39*%
X112971428Y-82914285D02*
X112685714Y-82714285D01*
X112971428Y-82571428D02*
X112371428Y-82571428D01*
X112371428Y-82800000D01*
X112400000Y-82857142D01*
X112428571Y-82885714D01*
X112485714Y-82914285D01*
X112571428Y-82914285D01*
X112628571Y-82885714D01*
X112657142Y-82857142D01*
X112685714Y-82800000D01*
X112685714Y-82571428D01*
X112371428Y-83114285D02*
X112371428Y-83485714D01*
X112600000Y-83285714D01*
X112600000Y-83371428D01*
X112628571Y-83428571D01*
X112657142Y-83457142D01*
X112714285Y-83485714D01*
X112857142Y-83485714D01*
X112914285Y-83457142D01*
X112942857Y-83428571D01*
X112971428Y-83371428D01*
X112971428Y-83200000D01*
X112942857Y-83142857D01*
X112914285Y-83114285D01*
X112971428Y-83771428D02*
X112971428Y-83885714D01*
X112942857Y-83942857D01*
X112914285Y-83971428D01*
X112828571Y-84028571D01*
X112714285Y-84057142D01*
X112485714Y-84057142D01*
X112428571Y-84028571D01*
X112400000Y-84000000D01*
X112371428Y-83942857D01*
X112371428Y-83828571D01*
X112400000Y-83771428D01*
X112428571Y-83742857D01*
X112485714Y-83714285D01*
X112628571Y-83714285D01*
X112685714Y-83742857D01*
X112714285Y-83771428D01*
X112742857Y-83828571D01*
X112742857Y-83942857D01*
X112714285Y-84000000D01*
X112685714Y-84028571D01*
X112628571Y-84057142D01*
%TO.C,R40*%
X113771428Y-86014285D02*
X113485714Y-85814285D01*
X113771428Y-85671428D02*
X113171428Y-85671428D01*
X113171428Y-85900000D01*
X113200000Y-85957142D01*
X113228571Y-85985714D01*
X113285714Y-86014285D01*
X113371428Y-86014285D01*
X113428571Y-85985714D01*
X113457142Y-85957142D01*
X113485714Y-85900000D01*
X113485714Y-85671428D01*
X113371428Y-86528571D02*
X113771428Y-86528571D01*
X113142857Y-86385714D02*
X113571428Y-86242857D01*
X113571428Y-86614285D01*
X113171428Y-86957142D02*
X113171428Y-87014285D01*
X113200000Y-87071428D01*
X113228571Y-87100000D01*
X113285714Y-87128571D01*
X113400000Y-87157142D01*
X113542857Y-87157142D01*
X113657142Y-87128571D01*
X113714285Y-87100000D01*
X113742857Y-87071428D01*
X113771428Y-87014285D01*
X113771428Y-86957142D01*
X113742857Y-86900000D01*
X113714285Y-86871428D01*
X113657142Y-86842857D01*
X113542857Y-86814285D01*
X113400000Y-86814285D01*
X113285714Y-86842857D01*
X113228571Y-86871428D01*
X113200000Y-86900000D01*
X113171428Y-86957142D01*
%TO.C,R47*%
X137571428Y-84014285D02*
X137285714Y-83814285D01*
X137571428Y-83671428D02*
X136971428Y-83671428D01*
X136971428Y-83900000D01*
X137000000Y-83957142D01*
X137028571Y-83985714D01*
X137085714Y-84014285D01*
X137171428Y-84014285D01*
X137228571Y-83985714D01*
X137257142Y-83957142D01*
X137285714Y-83900000D01*
X137285714Y-83671428D01*
X137171428Y-84528571D02*
X137571428Y-84528571D01*
X136942857Y-84385714D02*
X137371428Y-84242857D01*
X137371428Y-84614285D01*
X136971428Y-84785714D02*
X136971428Y-85185714D01*
X137571428Y-84928571D01*
%TO.C,R48*%
X139185714Y-84271428D02*
X139385714Y-83985714D01*
X139528571Y-84271428D02*
X139528571Y-83671428D01*
X139300000Y-83671428D01*
X139242857Y-83700000D01*
X139214285Y-83728571D01*
X139185714Y-83785714D01*
X139185714Y-83871428D01*
X139214285Y-83928571D01*
X139242857Y-83957142D01*
X139300000Y-83985714D01*
X139528571Y-83985714D01*
X138671428Y-83871428D02*
X138671428Y-84271428D01*
X138814285Y-83642857D02*
X138957142Y-84071428D01*
X138585714Y-84071428D01*
X138271428Y-83928571D02*
X138328571Y-83900000D01*
X138357142Y-83871428D01*
X138385714Y-83814285D01*
X138385714Y-83785714D01*
X138357142Y-83728571D01*
X138328571Y-83700000D01*
X138271428Y-83671428D01*
X138157142Y-83671428D01*
X138100000Y-83700000D01*
X138071428Y-83728571D01*
X138042857Y-83785714D01*
X138042857Y-83814285D01*
X138071428Y-83871428D01*
X138100000Y-83900000D01*
X138157142Y-83928571D01*
X138271428Y-83928571D01*
X138328571Y-83957142D01*
X138357142Y-83985714D01*
X138385714Y-84042857D01*
X138385714Y-84157142D01*
X138357142Y-84214285D01*
X138328571Y-84242857D01*
X138271428Y-84271428D01*
X138157142Y-84271428D01*
X138100000Y-84242857D01*
X138071428Y-84214285D01*
X138042857Y-84157142D01*
X138042857Y-84042857D01*
X138071428Y-83985714D01*
X138100000Y-83957142D01*
X138157142Y-83928571D01*
%TO.C,SW1*%
X137800000Y-51142857D02*
X137714285Y-51171428D01*
X137571428Y-51171428D01*
X137514285Y-51142857D01*
X137485714Y-51114285D01*
X137457142Y-51057142D01*
X137457142Y-51000000D01*
X137485714Y-50942857D01*
X137514285Y-50914285D01*
X137571428Y-50885714D01*
X137685714Y-50857142D01*
X137742857Y-50828571D01*
X137771428Y-50800000D01*
X137800000Y-50742857D01*
X137800000Y-50685714D01*
X137771428Y-50628571D01*
X137742857Y-50600000D01*
X137685714Y-50571428D01*
X137542857Y-50571428D01*
X137457142Y-50600000D01*
X137257142Y-50571428D02*
X137114285Y-51171428D01*
X137000000Y-50742857D01*
X136885714Y-51171428D01*
X136742857Y-50571428D01*
X136200000Y-51171428D02*
X136542857Y-51171428D01*
X136371428Y-51171428D02*
X136371428Y-50571428D01*
X136428571Y-50657142D01*
X136485714Y-50714285D01*
X136542857Y-50742857D01*
%TO.C,U1*%
X127757142Y-82171428D02*
X127757142Y-82657142D01*
X127728571Y-82714285D01*
X127700000Y-82742857D01*
X127642857Y-82771428D01*
X127528571Y-82771428D01*
X127471428Y-82742857D01*
X127442857Y-82714285D01*
X127414285Y-82657142D01*
X127414285Y-82171428D01*
X126814285Y-82771428D02*
X127157142Y-82771428D01*
X126985714Y-82771428D02*
X126985714Y-82171428D01*
X127042857Y-82257142D01*
X127100000Y-82314285D01*
X127157142Y-82342857D01*
%TO.C,U4*%
X118371428Y-53842857D02*
X118857142Y-53842857D01*
X118914285Y-53871428D01*
X118942857Y-53900000D01*
X118971428Y-53957142D01*
X118971428Y-54071428D01*
X118942857Y-54128571D01*
X118914285Y-54157142D01*
X118857142Y-54185714D01*
X118371428Y-54185714D01*
X118571428Y-54728571D02*
X118971428Y-54728571D01*
X118342857Y-54585714D02*
X118771428Y-54442857D01*
X118771428Y-54814285D01*
%TO.C,U6*%
X129057142Y-52171428D02*
X129057142Y-52657142D01*
X129028571Y-52714285D01*
X129000000Y-52742857D01*
X128942857Y-52771428D01*
X128828571Y-52771428D01*
X128771428Y-52742857D01*
X128742857Y-52714285D01*
X128714285Y-52657142D01*
X128714285Y-52171428D01*
X128171428Y-52171428D02*
X128285714Y-52171428D01*
X128342857Y-52200000D01*
X128371428Y-52228571D01*
X128428571Y-52314285D01*
X128457142Y-52428571D01*
X128457142Y-52657142D01*
X128428571Y-52714285D01*
X128400000Y-52742857D01*
X128342857Y-52771428D01*
X128228571Y-52771428D01*
X128171428Y-52742857D01*
X128142857Y-52714285D01*
X128114285Y-52657142D01*
X128114285Y-52514285D01*
X128142857Y-52457142D01*
X128171428Y-52428571D01*
X128228571Y-52400000D01*
X128342857Y-52400000D01*
X128400000Y-52428571D01*
X128428571Y-52457142D01*
X128457142Y-52514285D01*
%TO.C,U14*%
X137442857Y-87171428D02*
X137442857Y-87657142D01*
X137414285Y-87714285D01*
X137385714Y-87742857D01*
X137328571Y-87771428D01*
X137214285Y-87771428D01*
X137157142Y-87742857D01*
X137128571Y-87714285D01*
X137100000Y-87657142D01*
X137100000Y-87171428D01*
X136500000Y-87771428D02*
X136842857Y-87771428D01*
X136671428Y-87771428D02*
X136671428Y-87171428D01*
X136728571Y-87257142D01*
X136785714Y-87314285D01*
X136842857Y-87342857D01*
X135985714Y-87371428D02*
X135985714Y-87771428D01*
X136128571Y-87142857D02*
X136271428Y-87571428D01*
X135900000Y-87571428D01*
%TO.C,J8*%
X105200000Y-75271428D02*
X105200000Y-75700000D01*
X105228571Y-75785714D01*
X105285714Y-75842857D01*
X105371428Y-75871428D01*
X105428571Y-75871428D01*
X104828571Y-75528571D02*
X104885714Y-75500000D01*
X104914285Y-75471428D01*
X104942857Y-75414285D01*
X104942857Y-75385714D01*
X104914285Y-75328571D01*
X104885714Y-75300000D01*
X104828571Y-75271428D01*
X104714285Y-75271428D01*
X104657142Y-75300000D01*
X104628571Y-75328571D01*
X104600000Y-75385714D01*
X104600000Y-75414285D01*
X104628571Y-75471428D01*
X104657142Y-75500000D01*
X104714285Y-75528571D01*
X104828571Y-75528571D01*
X104885714Y-75557142D01*
X104914285Y-75585714D01*
X104942857Y-75642857D01*
X104942857Y-75757142D01*
X104914285Y-75814285D01*
X104885714Y-75842857D01*
X104828571Y-75871428D01*
X104714285Y-75871428D01*
X104657142Y-75842857D01*
X104628571Y-75814285D01*
X104600000Y-75757142D01*
X104600000Y-75642857D01*
X104628571Y-75585714D01*
X104657142Y-75557142D01*
X104714285Y-75528571D01*
%TO.C,J11*%
X145085714Y-75271428D02*
X145085714Y-75700000D01*
X145114285Y-75785714D01*
X145171428Y-75842857D01*
X145257142Y-75871428D01*
X145314285Y-75871428D01*
X144485714Y-75871428D02*
X144828571Y-75871428D01*
X144657142Y-75871428D02*
X144657142Y-75271428D01*
X144714285Y-75357142D01*
X144771428Y-75414285D01*
X144828571Y-75442857D01*
X143914285Y-75871428D02*
X144257142Y-75871428D01*
X144085714Y-75871428D02*
X144085714Y-75271428D01*
X144142857Y-75357142D01*
X144200000Y-75414285D01*
X144257142Y-75442857D01*
%TO.C,C16*%
X123785714Y-61514285D02*
X123814285Y-61542857D01*
X123900000Y-61571428D01*
X123957142Y-61571428D01*
X124042857Y-61542857D01*
X124100000Y-61485714D01*
X124128571Y-61428571D01*
X124157142Y-61314285D01*
X124157142Y-61228571D01*
X124128571Y-61114285D01*
X124100000Y-61057142D01*
X124042857Y-61000000D01*
X123957142Y-60971428D01*
X123900000Y-60971428D01*
X123814285Y-61000000D01*
X123785714Y-61028571D01*
X123214285Y-61571428D02*
X123557142Y-61571428D01*
X123385714Y-61571428D02*
X123385714Y-60971428D01*
X123442857Y-61057142D01*
X123500000Y-61114285D01*
X123557142Y-61142857D01*
X122700000Y-60971428D02*
X122814285Y-60971428D01*
X122871428Y-61000000D01*
X122900000Y-61028571D01*
X122957142Y-61114285D01*
X122985714Y-61228571D01*
X122985714Y-61457142D01*
X122957142Y-61514285D01*
X122928571Y-61542857D01*
X122871428Y-61571428D01*
X122757142Y-61571428D01*
X122700000Y-61542857D01*
X122671428Y-61514285D01*
X122642857Y-61457142D01*
X122642857Y-61314285D01*
X122671428Y-61257142D01*
X122700000Y-61228571D01*
X122757142Y-61200000D01*
X122871428Y-61200000D01*
X122928571Y-61228571D01*
X122957142Y-61257142D01*
X122985714Y-61314285D01*
%TO.C,C20*%
X118914285Y-51614285D02*
X118942857Y-51585714D01*
X118971428Y-51500000D01*
X118971428Y-51442857D01*
X118942857Y-51357142D01*
X118885714Y-51300000D01*
X118828571Y-51271428D01*
X118714285Y-51242857D01*
X118628571Y-51242857D01*
X118514285Y-51271428D01*
X118457142Y-51300000D01*
X118400000Y-51357142D01*
X118371428Y-51442857D01*
X118371428Y-51500000D01*
X118400000Y-51585714D01*
X118428571Y-51614285D01*
X118428571Y-51842857D02*
X118400000Y-51871428D01*
X118371428Y-51928571D01*
X118371428Y-52071428D01*
X118400000Y-52128571D01*
X118428571Y-52157142D01*
X118485714Y-52185714D01*
X118542857Y-52185714D01*
X118628571Y-52157142D01*
X118971428Y-51814285D01*
X118971428Y-52185714D01*
X118371428Y-52557142D02*
X118371428Y-52614285D01*
X118400000Y-52671428D01*
X118428571Y-52700000D01*
X118485714Y-52728571D01*
X118600000Y-52757142D01*
X118742857Y-52757142D01*
X118857142Y-52728571D01*
X118914285Y-52700000D01*
X118942857Y-52671428D01*
X118971428Y-52614285D01*
X118971428Y-52557142D01*
X118942857Y-52500000D01*
X118914285Y-52471428D01*
X118857142Y-52442857D01*
X118742857Y-52414285D01*
X118600000Y-52414285D01*
X118485714Y-52442857D01*
X118428571Y-52471428D01*
X118400000Y-52500000D01*
X118371428Y-52557142D01*
%TO.C,C29*%
X127085714Y-68914285D02*
X127114285Y-68942857D01*
X127200000Y-68971428D01*
X127257142Y-68971428D01*
X127342857Y-68942857D01*
X127400000Y-68885714D01*
X127428571Y-68828571D01*
X127457142Y-68714285D01*
X127457142Y-68628571D01*
X127428571Y-68514285D01*
X127400000Y-68457142D01*
X127342857Y-68400000D01*
X127257142Y-68371428D01*
X127200000Y-68371428D01*
X127114285Y-68400000D01*
X127085714Y-68428571D01*
X126857142Y-68428571D02*
X126828571Y-68400000D01*
X126771428Y-68371428D01*
X126628571Y-68371428D01*
X126571428Y-68400000D01*
X126542857Y-68428571D01*
X126514285Y-68485714D01*
X126514285Y-68542857D01*
X126542857Y-68628571D01*
X126885714Y-68971428D01*
X126514285Y-68971428D01*
X126228571Y-68971428D02*
X126114285Y-68971428D01*
X126057142Y-68942857D01*
X126028571Y-68914285D01*
X125971428Y-68828571D01*
X125942857Y-68714285D01*
X125942857Y-68485714D01*
X125971428Y-68428571D01*
X126000000Y-68400000D01*
X126057142Y-68371428D01*
X126171428Y-68371428D01*
X126228571Y-68400000D01*
X126257142Y-68428571D01*
X126285714Y-68485714D01*
X126285714Y-68628571D01*
X126257142Y-68685714D01*
X126228571Y-68714285D01*
X126171428Y-68742857D01*
X126057142Y-68742857D01*
X126000000Y-68714285D01*
X125971428Y-68685714D01*
X125942857Y-68628571D01*
%TO.C,C33*%
X131214285Y-79414285D02*
X131242857Y-79385714D01*
X131271428Y-79300000D01*
X131271428Y-79242857D01*
X131242857Y-79157142D01*
X131185714Y-79100000D01*
X131128571Y-79071428D01*
X131014285Y-79042857D01*
X130928571Y-79042857D01*
X130814285Y-79071428D01*
X130757142Y-79100000D01*
X130700000Y-79157142D01*
X130671428Y-79242857D01*
X130671428Y-79300000D01*
X130700000Y-79385714D01*
X130728571Y-79414285D01*
X130671428Y-79614285D02*
X130671428Y-79985714D01*
X130900000Y-79785714D01*
X130900000Y-79871428D01*
X130928571Y-79928571D01*
X130957142Y-79957142D01*
X131014285Y-79985714D01*
X131157142Y-79985714D01*
X131214285Y-79957142D01*
X131242857Y-79928571D01*
X131271428Y-79871428D01*
X131271428Y-79700000D01*
X131242857Y-79642857D01*
X131214285Y-79614285D01*
X130671428Y-80185714D02*
X130671428Y-80557142D01*
X130900000Y-80357142D01*
X130900000Y-80442857D01*
X130928571Y-80500000D01*
X130957142Y-80528571D01*
X131014285Y-80557142D01*
X131157142Y-80557142D01*
X131214285Y-80528571D01*
X131242857Y-80500000D01*
X131271428Y-80442857D01*
X131271428Y-80271428D01*
X131242857Y-80214285D01*
X131214285Y-80185714D01*
%TO.C,JP3*%
X134500000Y-82071428D02*
X134500000Y-82500000D01*
X134528571Y-82585714D01*
X134585714Y-82642857D01*
X134671428Y-82671428D01*
X134728571Y-82671428D01*
X134214285Y-82671428D02*
X134214285Y-82071428D01*
X133985714Y-82071428D01*
X133928571Y-82100000D01*
X133900000Y-82128571D01*
X133871428Y-82185714D01*
X133871428Y-82271428D01*
X133900000Y-82328571D01*
X133928571Y-82357142D01*
X133985714Y-82385714D01*
X134214285Y-82385714D01*
X133671428Y-82071428D02*
X133300000Y-82071428D01*
X133500000Y-82300000D01*
X133414285Y-82300000D01*
X133357142Y-82328571D01*
X133328571Y-82357142D01*
X133300000Y-82414285D01*
X133300000Y-82557142D01*
X133328571Y-82614285D01*
X133357142Y-82642857D01*
X133414285Y-82671428D01*
X133585714Y-82671428D01*
X133642857Y-82642857D01*
X133671428Y-82614285D01*
%TO.C,JP7*%
X116600000Y-82071428D02*
X116600000Y-82500000D01*
X116628571Y-82585714D01*
X116685714Y-82642857D01*
X116771428Y-82671428D01*
X116828571Y-82671428D01*
X116314285Y-82671428D02*
X116314285Y-82071428D01*
X116085714Y-82071428D01*
X116028571Y-82100000D01*
X116000000Y-82128571D01*
X115971428Y-82185714D01*
X115971428Y-82271428D01*
X116000000Y-82328571D01*
X116028571Y-82357142D01*
X116085714Y-82385714D01*
X116314285Y-82385714D01*
X115771428Y-82071428D02*
X115371428Y-82071428D01*
X115628571Y-82671428D01*
%TD*%
M02*
