%TF.GenerationSoftware,KiCad,Pcbnew,(5.1.6)-1*%
%TF.CreationDate,2021-04-13T10:59:24+02:00*%
%TF.ProjectId,EcatExBrd,45636174-4578-4427-9264-2e6b69636164,1.0*%
%TF.SameCoordinates,Original*%
%TF.FileFunction,Legend,Top*%
%TF.FilePolarity,Positive*%
%FSLAX46Y46*%
G04 Gerber Fmt 4.6, Leading zero omitted, Abs format (unit mm)*
G04 Created by KiCad (PCBNEW (5.1.6)-1) date 2021-04-13 10:59:24*
%MOMM*%
%LPD*%
G01*
G04 APERTURE LIST*
%ADD10C,0.300000*%
%ADD11C,0.120000*%
%ADD12C,0.100000*%
%ADD13C,0.152400*%
%ADD14C,0.010000*%
G04 APERTURE END LIST*
D10*
X121300000Y-89000000D02*
X121300000Y-88000000D01*
X132300000Y-89000000D02*
X132300000Y-88000000D01*
D11*
X128471428Y-89671428D02*
X128471428Y-90100000D01*
X128442857Y-90185714D01*
X128385714Y-90242857D01*
X128300000Y-90271428D01*
X128242857Y-90271428D01*
X128757142Y-90271428D02*
X128757142Y-89671428D01*
X128985714Y-89671428D01*
X129042857Y-89700000D01*
X129071428Y-89728571D01*
X129100000Y-89785714D01*
X129100000Y-89871428D01*
X129071428Y-89928571D01*
X129042857Y-89957142D01*
X128985714Y-89985714D01*
X128757142Y-89985714D01*
X129300000Y-90271428D02*
X129614285Y-89871428D01*
X129300000Y-89871428D02*
X129614285Y-90271428D01*
X130300000Y-90214285D02*
X130328571Y-90242857D01*
X130300000Y-90271428D01*
X130271428Y-90242857D01*
X130300000Y-90214285D01*
X130300000Y-90271428D01*
X130300000Y-89900000D02*
X130328571Y-89928571D01*
X130300000Y-89957142D01*
X130271428Y-89928571D01*
X130300000Y-89900000D01*
X130300000Y-89957142D01*
X130985714Y-89671428D02*
X131357142Y-89671428D01*
X131157142Y-89900000D01*
X131242857Y-89900000D01*
X131300000Y-89928571D01*
X131328571Y-89957142D01*
X131357142Y-90014285D01*
X131357142Y-90157142D01*
X131328571Y-90214285D01*
X131300000Y-90242857D01*
X131242857Y-90271428D01*
X131071428Y-90271428D01*
X131014285Y-90242857D01*
X130985714Y-90214285D01*
X131614285Y-90214285D02*
X131642857Y-90242857D01*
X131614285Y-90271428D01*
X131585714Y-90242857D01*
X131614285Y-90214285D01*
X131614285Y-90271428D01*
X131842857Y-89671428D02*
X132214285Y-89671428D01*
X132014285Y-89900000D01*
X132100000Y-89900000D01*
X132157142Y-89928571D01*
X132185714Y-89957142D01*
X132214285Y-90014285D01*
X132214285Y-90157142D01*
X132185714Y-90214285D01*
X132157142Y-90242857D01*
X132100000Y-90271428D01*
X131928571Y-90271428D01*
X131871428Y-90242857D01*
X131842857Y-90214285D01*
X132385714Y-89671428D02*
X132585714Y-90271428D01*
X132785714Y-89671428D01*
D12*
G36*
X131700000Y-88700000D02*
G01*
X130300000Y-88700000D01*
X130300000Y-88300000D01*
X131700000Y-88300000D01*
X131700000Y-88700000D01*
G37*
X131700000Y-88700000D02*
X130300000Y-88700000D01*
X130300000Y-88300000D01*
X131700000Y-88300000D01*
X131700000Y-88700000D01*
D11*
X129000000Y-89000000D02*
X129000000Y-88000000D01*
X132000000Y-89000000D02*
X129000000Y-89000000D01*
X132000000Y-89000000D02*
X132000000Y-88000000D01*
X132000000Y-88000000D02*
X129000000Y-88000000D01*
X121000000Y-89000000D02*
X121000000Y-88000000D01*
D12*
G36*
X119700000Y-88700000D02*
G01*
X118300000Y-88700000D01*
X118300000Y-88300000D01*
X119700000Y-88300000D01*
X119700000Y-88700000D01*
G37*
X119700000Y-88700000D02*
X118300000Y-88700000D01*
X118300000Y-88300000D01*
X119700000Y-88300000D01*
X119700000Y-88700000D01*
D11*
X118000000Y-89000000D02*
X118000000Y-88000000D01*
X121000000Y-89000000D02*
X118000000Y-89000000D01*
X121000000Y-88000000D02*
X118000000Y-88000000D01*
X144400000Y-90371428D02*
X144400000Y-90514285D01*
X144257142Y-90457142D02*
X144400000Y-90514285D01*
X144542857Y-90457142D01*
X144314285Y-90628571D02*
X144400000Y-90514285D01*
X144485714Y-90628571D01*
X111100000Y-90071428D02*
X111100000Y-90214285D01*
X110957142Y-90157142D02*
X111100000Y-90214285D01*
X111242857Y-90157142D01*
X111014285Y-90328571D02*
X111100000Y-90214285D01*
X111185714Y-90328571D01*
X117471428Y-89671428D02*
X117471428Y-90100000D01*
X117442857Y-90185714D01*
X117385714Y-90242857D01*
X117300000Y-90271428D01*
X117242857Y-90271428D01*
X117757142Y-90271428D02*
X117757142Y-89671428D01*
X117985714Y-89671428D01*
X118042857Y-89700000D01*
X118071428Y-89728571D01*
X118100000Y-89785714D01*
X118100000Y-89871428D01*
X118071428Y-89928571D01*
X118042857Y-89957142D01*
X117985714Y-89985714D01*
X117757142Y-89985714D01*
X118300000Y-90271428D02*
X118614285Y-89871428D01*
X118300000Y-89871428D02*
X118614285Y-90271428D01*
X119300000Y-90214285D02*
X119328571Y-90242857D01*
X119300000Y-90271428D01*
X119271428Y-90242857D01*
X119300000Y-90214285D01*
X119300000Y-90271428D01*
X119300000Y-89900000D02*
X119328571Y-89928571D01*
X119300000Y-89957142D01*
X119271428Y-89928571D01*
X119300000Y-89900000D01*
X119300000Y-89957142D01*
X120328571Y-89671428D02*
X120042857Y-89671428D01*
X120014285Y-89957142D01*
X120042857Y-89928571D01*
X120100000Y-89900000D01*
X120242857Y-89900000D01*
X120300000Y-89928571D01*
X120328571Y-89957142D01*
X120357142Y-90014285D01*
X120357142Y-90157142D01*
X120328571Y-90214285D01*
X120300000Y-90242857D01*
X120242857Y-90271428D01*
X120100000Y-90271428D01*
X120042857Y-90242857D01*
X120014285Y-90214285D01*
X120614285Y-90214285D02*
X120642857Y-90242857D01*
X120614285Y-90271428D01*
X120585714Y-90242857D01*
X120614285Y-90214285D01*
X120614285Y-90271428D01*
X121014285Y-89671428D02*
X121071428Y-89671428D01*
X121128571Y-89700000D01*
X121157142Y-89728571D01*
X121185714Y-89785714D01*
X121214285Y-89900000D01*
X121214285Y-90042857D01*
X121185714Y-90157142D01*
X121157142Y-90214285D01*
X121128571Y-90242857D01*
X121071428Y-90271428D01*
X121014285Y-90271428D01*
X120957142Y-90242857D01*
X120928571Y-90214285D01*
X120900000Y-90157142D01*
X120871428Y-90042857D01*
X120871428Y-89900000D01*
X120900000Y-89785714D01*
X120928571Y-89728571D01*
X120957142Y-89700000D01*
X121014285Y-89671428D01*
X121385714Y-89671428D02*
X121585714Y-90271428D01*
X121785714Y-89671428D01*
D10*
X120285714Y-79628571D02*
X120285714Y-81128571D01*
X121000000Y-80414285D02*
X121071428Y-80557142D01*
X121214285Y-80628571D01*
X120285714Y-80414285D02*
X120357142Y-80557142D01*
X120500000Y-80628571D01*
X120785714Y-80628571D01*
X120928571Y-80557142D01*
X121000000Y-80414285D01*
X121000000Y-79628571D01*
X122142857Y-79128571D02*
X122428571Y-79128571D01*
X122571428Y-79200000D01*
X122714285Y-79342857D01*
X122785714Y-79628571D01*
X122785714Y-80128571D01*
X122714285Y-80414285D01*
X122571428Y-80557142D01*
X122428571Y-80628571D01*
X122142857Y-80628571D01*
X122000000Y-80557142D01*
X121857142Y-80414285D01*
X121785714Y-80128571D01*
X121785714Y-79628571D01*
X121857142Y-79342857D01*
X122000000Y-79200000D01*
X122142857Y-79128571D01*
X123428571Y-80628571D02*
X123428571Y-79128571D01*
X123928571Y-80200000D01*
X124428571Y-79128571D01*
X124428571Y-80628571D01*
X125428571Y-79128571D02*
X125714285Y-79128571D01*
X125857142Y-79200000D01*
X126000000Y-79342857D01*
X126071428Y-79628571D01*
X126071428Y-80128571D01*
X126000000Y-80414285D01*
X125857142Y-80557142D01*
X125714285Y-80628571D01*
X125428571Y-80628571D01*
X125285714Y-80557142D01*
X125142857Y-80414285D01*
X125071428Y-80128571D01*
X125071428Y-79628571D01*
X125142857Y-79342857D01*
X125285714Y-79200000D01*
X125428571Y-79128571D01*
X126714285Y-80628571D02*
X126714285Y-79128571D01*
X127071428Y-79128571D01*
X127285714Y-79200000D01*
X127428571Y-79342857D01*
X127500000Y-79485714D01*
X127571428Y-79771428D01*
X127571428Y-79985714D01*
X127500000Y-80271428D01*
X127428571Y-80414285D01*
X127285714Y-80557142D01*
X127071428Y-80628571D01*
X126714285Y-80628571D01*
X129071428Y-80628571D02*
X128571428Y-79914285D01*
X128214285Y-80628571D02*
X128214285Y-79128571D01*
X128785714Y-79128571D01*
X128928571Y-79200000D01*
X129000000Y-79271428D01*
X129071428Y-79414285D01*
X129071428Y-79628571D01*
X129000000Y-79771428D01*
X128928571Y-79842857D01*
X128785714Y-79914285D01*
X128214285Y-79914285D01*
X129714285Y-80628571D02*
X129714285Y-79128571D01*
X120000000Y-82392857D02*
X120500000Y-82392857D01*
X120714285Y-83178571D02*
X120000000Y-83178571D01*
X120000000Y-81678571D01*
X120714285Y-81678571D01*
X121214285Y-83178571D02*
X122000000Y-82178571D01*
X121214285Y-82178571D02*
X122000000Y-83178571D01*
X122357142Y-82178571D02*
X122928571Y-82178571D01*
X122571428Y-81678571D02*
X122571428Y-82964285D01*
X122642857Y-83107142D01*
X122785714Y-83178571D01*
X122928571Y-83178571D01*
X124000000Y-83107142D02*
X123857142Y-83178571D01*
X123571428Y-83178571D01*
X123428571Y-83107142D01*
X123357142Y-82964285D01*
X123357142Y-82392857D01*
X123428571Y-82250000D01*
X123571428Y-82178571D01*
X123857142Y-82178571D01*
X124000000Y-82250000D01*
X124071428Y-82392857D01*
X124071428Y-82535714D01*
X123357142Y-82678571D01*
X124714285Y-82178571D02*
X124714285Y-83178571D01*
X124714285Y-82321428D02*
X124785714Y-82250000D01*
X124928571Y-82178571D01*
X125142857Y-82178571D01*
X125285714Y-82250000D01*
X125357142Y-82392857D01*
X125357142Y-83178571D01*
X126000000Y-83107142D02*
X126142857Y-83178571D01*
X126428571Y-83178571D01*
X126571428Y-83107142D01*
X126642857Y-82964285D01*
X126642857Y-82892857D01*
X126571428Y-82750000D01*
X126428571Y-82678571D01*
X126214285Y-82678571D01*
X126071428Y-82607142D01*
X126000000Y-82464285D01*
X126000000Y-82392857D01*
X126071428Y-82250000D01*
X126214285Y-82178571D01*
X126428571Y-82178571D01*
X126571428Y-82250000D01*
X127285714Y-83178571D02*
X127285714Y-82178571D01*
X127285714Y-81678571D02*
X127214285Y-81750000D01*
X127285714Y-81821428D01*
X127357142Y-81750000D01*
X127285714Y-81678571D01*
X127285714Y-81821428D01*
X128214285Y-83178571D02*
X128071428Y-83107142D01*
X128000000Y-83035714D01*
X127928571Y-82892857D01*
X127928571Y-82464285D01*
X128000000Y-82321428D01*
X128071428Y-82250000D01*
X128214285Y-82178571D01*
X128428571Y-82178571D01*
X128571428Y-82250000D01*
X128642857Y-82321428D01*
X128714285Y-82464285D01*
X128714285Y-82892857D01*
X128642857Y-83035714D01*
X128571428Y-83107142D01*
X128428571Y-83178571D01*
X128214285Y-83178571D01*
X129357142Y-82178571D02*
X129357142Y-83178571D01*
X129357142Y-82321428D02*
X129428571Y-82250000D01*
X129571428Y-82178571D01*
X129785714Y-82178571D01*
X129928571Y-82250000D01*
X130000000Y-82392857D01*
X130000000Y-83178571D01*
X122607142Y-84942857D02*
X122821428Y-85014285D01*
X122892857Y-85085714D01*
X122964285Y-85228571D01*
X122964285Y-85442857D01*
X122892857Y-85585714D01*
X122821428Y-85657142D01*
X122678571Y-85728571D01*
X122107142Y-85728571D01*
X122107142Y-84228571D01*
X122607142Y-84228571D01*
X122750000Y-84300000D01*
X122821428Y-84371428D01*
X122892857Y-84514285D01*
X122892857Y-84657142D01*
X122821428Y-84800000D01*
X122750000Y-84871428D01*
X122607142Y-84942857D01*
X122107142Y-84942857D01*
X123821428Y-85728571D02*
X123678571Y-85657142D01*
X123607142Y-85585714D01*
X123535714Y-85442857D01*
X123535714Y-85014285D01*
X123607142Y-84871428D01*
X123678571Y-84800000D01*
X123821428Y-84728571D01*
X124035714Y-84728571D01*
X124178571Y-84800000D01*
X124250000Y-84871428D01*
X124321428Y-85014285D01*
X124321428Y-85442857D01*
X124250000Y-85585714D01*
X124178571Y-85657142D01*
X124035714Y-85728571D01*
X123821428Y-85728571D01*
X125607142Y-85728571D02*
X125607142Y-84942857D01*
X125535714Y-84800000D01*
X125392857Y-84728571D01*
X125107142Y-84728571D01*
X124964285Y-84800000D01*
X125607142Y-85657142D02*
X125464285Y-85728571D01*
X125107142Y-85728571D01*
X124964285Y-85657142D01*
X124892857Y-85514285D01*
X124892857Y-85371428D01*
X124964285Y-85228571D01*
X125107142Y-85157142D01*
X125464285Y-85157142D01*
X125607142Y-85085714D01*
X126321428Y-85728571D02*
X126321428Y-84728571D01*
X126321428Y-85014285D02*
X126392857Y-84871428D01*
X126464285Y-84800000D01*
X126607142Y-84728571D01*
X126750000Y-84728571D01*
X127892857Y-85728571D02*
X127892857Y-84228571D01*
X127892857Y-85657142D02*
X127750000Y-85728571D01*
X127464285Y-85728571D01*
X127321428Y-85657142D01*
X127250000Y-85585714D01*
X127178571Y-85442857D01*
X127178571Y-85014285D01*
X127250000Y-84871428D01*
X127321428Y-84800000D01*
X127464285Y-84728571D01*
X127750000Y-84728571D01*
X127892857Y-84800000D01*
D11*
%TO.C,JP1*%
X127250000Y-87200000D02*
X127250000Y-87800000D01*
%TO.C,JP2*%
X108750000Y-95700000D02*
X108750000Y-96300000D01*
%TO.C,JP4*%
X104300000Y-89500000D02*
X103700000Y-89500000D01*
%TO.C,JP5*%
X104300000Y-79350000D02*
X103700000Y-79350000D01*
%TO.C,JP6*%
X142000000Y-95700000D02*
X142000000Y-96300000D01*
%TO.C,JP8*%
X145700000Y-91250000D02*
X146300000Y-91250000D01*
%TO.C,JP9*%
X145700000Y-81100000D02*
X146300000Y-81100000D01*
%TO.C,U3*%
X127610000Y-69500000D02*
X127610000Y-65900000D01*
X127610000Y-69500000D02*
X127610000Y-71700000D01*
X122390000Y-69500000D02*
X122390000Y-67300000D01*
X122390000Y-69500000D02*
X122390000Y-71700000D01*
%TO.C,U16*%
X142185000Y-75617500D02*
X142910000Y-75617500D01*
X142910000Y-75617500D02*
X142910000Y-76342500D01*
X138415000Y-80837500D02*
X137690000Y-80837500D01*
X137690000Y-80837500D02*
X137690000Y-80112500D01*
X142185000Y-80837500D02*
X142910000Y-80837500D01*
X142910000Y-80837500D02*
X142910000Y-80112500D01*
X138415000Y-75617500D02*
X137690000Y-75617500D01*
%TO.C,J2*%
X135250000Y-69197500D02*
X138750000Y-69197500D01*
X138750000Y-60802500D02*
X135250000Y-60802500D01*
X134500000Y-69530000D02*
X135500000Y-70530000D01*
X134500000Y-60470000D02*
X135500000Y-59470000D01*
X135500000Y-59470000D02*
X139500000Y-59470000D01*
X135500000Y-70530000D02*
X139500000Y-70530000D01*
X139500000Y-70530000D02*
X139500000Y-59470000D01*
X134500000Y-69530000D02*
X134500000Y-60470000D01*
X136210000Y-68697500D02*
X137790000Y-68697500D01*
X137790000Y-61302500D02*
X136210000Y-61302500D01*
X135250000Y-69197500D02*
X135250000Y-68500000D01*
X138750000Y-69197500D02*
X138750000Y-68500000D01*
X135250000Y-60802500D02*
X135250000Y-61500000D01*
X138750000Y-60802500D02*
X138750000Y-61500000D01*
D13*
%TO.C,U17*%
X105900000Y-91925000D02*
X107100000Y-91925000D01*
X107100000Y-90325000D02*
X106400000Y-90325000D01*
%TO.C,U18*%
X113450000Y-82800000D02*
X114650000Y-82800000D01*
X114650000Y-81200000D02*
X113950000Y-81200000D01*
%TO.C,U19*%
X143800000Y-88850000D02*
X143800000Y-87650000D01*
X142200000Y-87650000D02*
X142200000Y-88350000D01*
%TO.C,U20*%
X136750000Y-76427500D02*
X135550000Y-76427500D01*
X135550000Y-78027500D02*
X136250000Y-78027500D01*
D11*
%TO.C,D6*%
X105000000Y-90275000D02*
X104500000Y-90275000D01*
X105000000Y-92975000D02*
X104000000Y-92975000D01*
%TO.C,D11*%
X145000000Y-90475000D02*
X145500000Y-90475000D01*
X145000000Y-87775000D02*
X146000000Y-87775000D01*
%TO.C,FB1*%
X125300279Y-62290000D02*
X124974721Y-62290000D01*
X125300279Y-63310000D02*
X124974721Y-63310000D01*
%TO.C,J3*%
X111250000Y-69197500D02*
X114750000Y-69197500D01*
X114750000Y-60802500D02*
X111250000Y-60802500D01*
X110500000Y-69530000D02*
X111500000Y-70530000D01*
X110500000Y-60470000D02*
X111500000Y-59470000D01*
X111500000Y-59470000D02*
X115500000Y-59470000D01*
X111500000Y-70530000D02*
X115500000Y-70530000D01*
X115500000Y-70530000D02*
X115500000Y-59470000D01*
X110500000Y-69530000D02*
X110500000Y-60470000D01*
X112210000Y-68697500D02*
X113790000Y-68697500D01*
X113790000Y-61302500D02*
X112210000Y-61302500D01*
X111250000Y-69197500D02*
X111250000Y-68500000D01*
X114750000Y-69197500D02*
X114750000Y-68500000D01*
X111250000Y-60802500D02*
X111250000Y-61500000D01*
X114750000Y-60802500D02*
X114750000Y-61500000D01*
D13*
%TO.C,U9*%
X107948600Y-90673600D02*
X107948600Y-94026400D01*
X107948600Y-94026400D02*
X108164461Y-94026400D01*
X111301400Y-94026400D02*
X111301400Y-90673600D01*
X111301400Y-90673600D02*
X111085539Y-90673600D01*
X108164461Y-90673600D02*
X107948600Y-90673600D01*
X111085539Y-94026400D02*
X111301400Y-94026400D01*
D11*
%TO.C,U12*%
X108115000Y-83610000D02*
X107390000Y-83610000D01*
X107390000Y-83610000D02*
X107390000Y-82885000D01*
X111885000Y-78390000D02*
X112610000Y-78390000D01*
X112610000Y-78390000D02*
X112610000Y-79115000D01*
X108115000Y-78390000D02*
X107390000Y-78390000D01*
X107390000Y-78390000D02*
X107390000Y-79115000D01*
X111885000Y-83610000D02*
X112610000Y-83610000D01*
D13*
%TO.C,U13*%
X141198600Y-90823600D02*
X141198600Y-94176400D01*
X141198600Y-94176400D02*
X141414461Y-94176400D01*
X144551400Y-94176400D02*
X144551400Y-90823600D01*
X144551400Y-90823600D02*
X144335539Y-90823600D01*
X141414461Y-90823600D02*
X141198600Y-90823600D01*
X144335539Y-94176400D02*
X144551400Y-94176400D01*
D11*
%TO.C,D4*%
X110545000Y-95200000D02*
X110545000Y-94800000D01*
%TO.C,D5*%
X108705000Y-94800000D02*
X108705000Y-95200000D01*
%TO.C,D7*%
X105200000Y-79305000D02*
X104800000Y-79305000D01*
%TO.C,D8*%
X104800000Y-81145000D02*
X105200000Y-81145000D01*
%TO.C,D9*%
X105200000Y-81805000D02*
X104800000Y-81805000D01*
%TO.C,D10*%
X104800000Y-83645000D02*
X105200000Y-83645000D01*
%TO.C,D12*%
X143800000Y-95200000D02*
X143800000Y-94800000D01*
%TO.C,D13*%
X141950000Y-94800000D02*
X141950000Y-95200000D01*
%TO.C,D14*%
X144800000Y-81145000D02*
X145200000Y-81145000D01*
%TO.C,D15*%
X145200000Y-79305000D02*
X144800000Y-79305000D01*
%TO.C,D16*%
X144800000Y-78645000D02*
X145200000Y-78645000D01*
%TO.C,D17*%
X145200000Y-76805000D02*
X144800000Y-76805000D01*
D14*
%TO.C,G1*%
G36*
X134871044Y-53350048D02*
G01*
X134758317Y-53537726D01*
X134576091Y-53795172D01*
X134346000Y-54094109D01*
X134089679Y-54406261D01*
X133828763Y-54703352D01*
X133624077Y-54918377D01*
X133382816Y-55163063D01*
X133254796Y-55304998D01*
X133231035Y-55358626D01*
X133302549Y-55338391D01*
X133389304Y-55295853D01*
X133614976Y-55167989D01*
X133910618Y-54985139D01*
X134176359Y-54810844D01*
X134424954Y-54651814D01*
X134615694Y-54547090D01*
X134709927Y-54517717D01*
X134712051Y-54519162D01*
X134678217Y-54592969D01*
X134512541Y-54728814D01*
X134235790Y-54915361D01*
X133868734Y-55141275D01*
X133432142Y-55395221D01*
X132946782Y-55665866D01*
X132433423Y-55941874D01*
X131912834Y-56211911D01*
X131405785Y-56464641D01*
X130933043Y-56688730D01*
X130515378Y-56872844D01*
X130173559Y-57005648D01*
X130127000Y-57021475D01*
X129259845Y-57272016D01*
X128349800Y-57468896D01*
X127438732Y-57606609D01*
X126568509Y-57679644D01*
X125780998Y-57682494D01*
X125364500Y-57648086D01*
X125155144Y-57587103D01*
X125089334Y-57467026D01*
X125089333Y-57466432D01*
X125102894Y-57411304D01*
X125159453Y-57371551D01*
X125282826Y-57344494D01*
X125496830Y-57327456D01*
X125825281Y-57317759D01*
X126291994Y-57312723D01*
X126465167Y-57311707D01*
X127250041Y-57295152D01*
X127927638Y-57249206D01*
X128558653Y-57165928D01*
X129203778Y-57037378D01*
X129897975Y-56862583D01*
X130261285Y-56757915D01*
X130479766Y-56682166D01*
X130549910Y-56640298D01*
X130468208Y-56637276D01*
X130231153Y-56678060D01*
X129991277Y-56730602D01*
X129438969Y-56832709D01*
X128757762Y-56917247D01*
X127987495Y-56980847D01*
X127168007Y-57020137D01*
X126429758Y-57031929D01*
X125903162Y-57029000D01*
X125522865Y-57017538D01*
X125265894Y-56993646D01*
X125109278Y-56953426D01*
X125030045Y-56892978D01*
X125005224Y-56808406D01*
X125004761Y-56790108D01*
X125018225Y-56747900D01*
X125071010Y-56715105D01*
X125181803Y-56690546D01*
X125369292Y-56673046D01*
X125652165Y-56661428D01*
X126049109Y-56654515D01*
X126578811Y-56651130D01*
X127227261Y-56650106D01*
X127953249Y-56647805D01*
X128535775Y-56640647D01*
X129000675Y-56627276D01*
X129373783Y-56606336D01*
X129680936Y-56576472D01*
X129842242Y-56552222D01*
X130705556Y-56552222D01*
X130717178Y-56602557D01*
X130762000Y-56608667D01*
X130831690Y-56577689D01*
X130818445Y-56552222D01*
X130717965Y-56542089D01*
X130705556Y-56552222D01*
X129842242Y-56552222D01*
X129947967Y-56536328D01*
X130145057Y-56496999D01*
X130206480Y-56481667D01*
X130931334Y-56481667D01*
X130973667Y-56524000D01*
X131016000Y-56481667D01*
X130973667Y-56439334D01*
X130931334Y-56481667D01*
X130206480Y-56481667D01*
X130943031Y-56297815D01*
X131638907Y-56074171D01*
X132205331Y-55835392D01*
X132413969Y-55723575D01*
X132719821Y-55511061D01*
X133093183Y-55201832D01*
X133496515Y-54831980D01*
X133892275Y-54437598D01*
X134242923Y-54054779D01*
X134510916Y-53719616D01*
X134537043Y-53682420D01*
X134702461Y-53455230D01*
X134830341Y-53303590D01*
X134892635Y-53260413D01*
X134871044Y-53350048D01*
G37*
X134871044Y-53350048D02*
X134758317Y-53537726D01*
X134576091Y-53795172D01*
X134346000Y-54094109D01*
X134089679Y-54406261D01*
X133828763Y-54703352D01*
X133624077Y-54918377D01*
X133382816Y-55163063D01*
X133254796Y-55304998D01*
X133231035Y-55358626D01*
X133302549Y-55338391D01*
X133389304Y-55295853D01*
X133614976Y-55167989D01*
X133910618Y-54985139D01*
X134176359Y-54810844D01*
X134424954Y-54651814D01*
X134615694Y-54547090D01*
X134709927Y-54517717D01*
X134712051Y-54519162D01*
X134678217Y-54592969D01*
X134512541Y-54728814D01*
X134235790Y-54915361D01*
X133868734Y-55141275D01*
X133432142Y-55395221D01*
X132946782Y-55665866D01*
X132433423Y-55941874D01*
X131912834Y-56211911D01*
X131405785Y-56464641D01*
X130933043Y-56688730D01*
X130515378Y-56872844D01*
X130173559Y-57005648D01*
X130127000Y-57021475D01*
X129259845Y-57272016D01*
X128349800Y-57468896D01*
X127438732Y-57606609D01*
X126568509Y-57679644D01*
X125780998Y-57682494D01*
X125364500Y-57648086D01*
X125155144Y-57587103D01*
X125089334Y-57467026D01*
X125089333Y-57466432D01*
X125102894Y-57411304D01*
X125159453Y-57371551D01*
X125282826Y-57344494D01*
X125496830Y-57327456D01*
X125825281Y-57317759D01*
X126291994Y-57312723D01*
X126465167Y-57311707D01*
X127250041Y-57295152D01*
X127927638Y-57249206D01*
X128558653Y-57165928D01*
X129203778Y-57037378D01*
X129897975Y-56862583D01*
X130261285Y-56757915D01*
X130479766Y-56682166D01*
X130549910Y-56640298D01*
X130468208Y-56637276D01*
X130231153Y-56678060D01*
X129991277Y-56730602D01*
X129438969Y-56832709D01*
X128757762Y-56917247D01*
X127987495Y-56980847D01*
X127168007Y-57020137D01*
X126429758Y-57031929D01*
X125903162Y-57029000D01*
X125522865Y-57017538D01*
X125265894Y-56993646D01*
X125109278Y-56953426D01*
X125030045Y-56892978D01*
X125005224Y-56808406D01*
X125004761Y-56790108D01*
X125018225Y-56747900D01*
X125071010Y-56715105D01*
X125181803Y-56690546D01*
X125369292Y-56673046D01*
X125652165Y-56661428D01*
X126049109Y-56654515D01*
X126578811Y-56651130D01*
X127227261Y-56650106D01*
X127953249Y-56647805D01*
X128535775Y-56640647D01*
X129000675Y-56627276D01*
X129373783Y-56606336D01*
X129680936Y-56576472D01*
X129842242Y-56552222D01*
X130705556Y-56552222D01*
X130717178Y-56602557D01*
X130762000Y-56608667D01*
X130831690Y-56577689D01*
X130818445Y-56552222D01*
X130717965Y-56542089D01*
X130705556Y-56552222D01*
X129842242Y-56552222D01*
X129947967Y-56536328D01*
X130145057Y-56496999D01*
X130206480Y-56481667D01*
X130931334Y-56481667D01*
X130973667Y-56524000D01*
X131016000Y-56481667D01*
X130973667Y-56439334D01*
X130931334Y-56481667D01*
X130206480Y-56481667D01*
X130943031Y-56297815D01*
X131638907Y-56074171D01*
X132205331Y-55835392D01*
X132413969Y-55723575D01*
X132719821Y-55511061D01*
X133093183Y-55201832D01*
X133496515Y-54831980D01*
X133892275Y-54437598D01*
X134242923Y-54054779D01*
X134510916Y-53719616D01*
X134537043Y-53682420D01*
X134702461Y-53455230D01*
X134830341Y-53303590D01*
X134892635Y-53260413D01*
X134871044Y-53350048D01*
G36*
X131300997Y-54853760D02*
G01*
X131354667Y-54918062D01*
X131285042Y-55012094D01*
X131164167Y-55078275D01*
X130973667Y-55151093D01*
X131185334Y-55200010D01*
X131445484Y-55249664D01*
X131607802Y-55272631D01*
X131791110Y-55358262D01*
X131853901Y-55525828D01*
X131776584Y-55721292D01*
X131772347Y-55726479D01*
X131618911Y-55802201D01*
X131348245Y-55839988D01*
X131007790Y-55841367D01*
X130644987Y-55807864D01*
X130307277Y-55741004D01*
X130105834Y-55672868D01*
X129887183Y-55582434D01*
X129781920Y-55561064D01*
X129748642Y-55609169D01*
X129746000Y-55676432D01*
X129685839Y-55809147D01*
X129525677Y-55840380D01*
X129295991Y-55776577D01*
X129027262Y-55624181D01*
X128899813Y-55523779D01*
X130487138Y-55523779D01*
X130525713Y-55605598D01*
X130530962Y-55609057D01*
X130697369Y-55644816D01*
X130747758Y-55634111D01*
X130898277Y-55608466D01*
X131140235Y-55593914D01*
X131234592Y-55592667D01*
X131459398Y-55575558D01*
X131592797Y-55532355D01*
X131608667Y-55508000D01*
X131533054Y-55457228D01*
X131342007Y-55427007D01*
X131232664Y-55423334D01*
X130993925Y-55406508D01*
X130834303Y-55364132D01*
X130806398Y-55342007D01*
X130713241Y-55326987D01*
X130591529Y-55401619D01*
X130487138Y-55523779D01*
X128899813Y-55523779D01*
X128854192Y-55487840D01*
X128476000Y-55154942D01*
X128476000Y-55825694D01*
X127839051Y-55838026D01*
X127485582Y-55835854D01*
X127271976Y-55809625D01*
X127169904Y-55754905D01*
X127156376Y-55731198D01*
X127133729Y-55576439D01*
X127132275Y-55343641D01*
X127375334Y-55343641D01*
X127388266Y-55489299D01*
X127456772Y-55564175D01*
X127625414Y-55597694D01*
X127777500Y-55609195D01*
X128020274Y-55619214D01*
X128141801Y-55589180D01*
X128189782Y-55490417D01*
X128206451Y-55351340D01*
X128213881Y-55147840D01*
X128196141Y-55031555D01*
X128193044Y-55027488D01*
X128092776Y-55015090D01*
X127884823Y-55029711D01*
X127764093Y-55045595D01*
X127526075Y-55091032D01*
X127411994Y-55155758D01*
X127377123Y-55274067D01*
X127375334Y-55343641D01*
X127132275Y-55343641D01*
X127132207Y-55332847D01*
X127137159Y-55242520D01*
X127163667Y-54873000D01*
X127828672Y-54860039D01*
X128167053Y-54857274D01*
X128388884Y-54874947D01*
X128546855Y-54927794D01*
X128693652Y-55030549D01*
X128812600Y-55135206D01*
X129004649Y-55300007D01*
X129144685Y-55404283D01*
X129184762Y-55423334D01*
X129220528Y-55349027D01*
X129237729Y-55167256D01*
X129237988Y-55139719D01*
X129746000Y-55139719D01*
X129770018Y-55236019D01*
X129870552Y-55274700D01*
X130090323Y-55270061D01*
X130127000Y-55267252D01*
X130354277Y-55234044D01*
X130490562Y-55184922D01*
X130508000Y-55160808D01*
X130434552Y-55106767D01*
X130260925Y-55084667D01*
X130031956Y-55067455D01*
X129879925Y-55033275D01*
X129769677Y-55040663D01*
X129746000Y-55139719D01*
X129237988Y-55139719D01*
X129238000Y-55138520D01*
X129238000Y-54853707D01*
X129863959Y-54839193D01*
X130257749Y-54844819D01*
X130504888Y-54885464D01*
X130607201Y-54941963D01*
X130721182Y-55016289D01*
X130827555Y-54948886D01*
X130831247Y-54944957D01*
X130970887Y-54864645D01*
X131150464Y-54833065D01*
X131300997Y-54853760D01*
G37*
X131300997Y-54853760D02*
X131354667Y-54918062D01*
X131285042Y-55012094D01*
X131164167Y-55078275D01*
X130973667Y-55151093D01*
X131185334Y-55200010D01*
X131445484Y-55249664D01*
X131607802Y-55272631D01*
X131791110Y-55358262D01*
X131853901Y-55525828D01*
X131776584Y-55721292D01*
X131772347Y-55726479D01*
X131618911Y-55802201D01*
X131348245Y-55839988D01*
X131007790Y-55841367D01*
X130644987Y-55807864D01*
X130307277Y-55741004D01*
X130105834Y-55672868D01*
X129887183Y-55582434D01*
X129781920Y-55561064D01*
X129748642Y-55609169D01*
X129746000Y-55676432D01*
X129685839Y-55809147D01*
X129525677Y-55840380D01*
X129295991Y-55776577D01*
X129027262Y-55624181D01*
X128899813Y-55523779D01*
X130487138Y-55523779D01*
X130525713Y-55605598D01*
X130530962Y-55609057D01*
X130697369Y-55644816D01*
X130747758Y-55634111D01*
X130898277Y-55608466D01*
X131140235Y-55593914D01*
X131234592Y-55592667D01*
X131459398Y-55575558D01*
X131592797Y-55532355D01*
X131608667Y-55508000D01*
X131533054Y-55457228D01*
X131342007Y-55427007D01*
X131232664Y-55423334D01*
X130993925Y-55406508D01*
X130834303Y-55364132D01*
X130806398Y-55342007D01*
X130713241Y-55326987D01*
X130591529Y-55401619D01*
X130487138Y-55523779D01*
X128899813Y-55523779D01*
X128854192Y-55487840D01*
X128476000Y-55154942D01*
X128476000Y-55825694D01*
X127839051Y-55838026D01*
X127485582Y-55835854D01*
X127271976Y-55809625D01*
X127169904Y-55754905D01*
X127156376Y-55731198D01*
X127133729Y-55576439D01*
X127132275Y-55343641D01*
X127375334Y-55343641D01*
X127388266Y-55489299D01*
X127456772Y-55564175D01*
X127625414Y-55597694D01*
X127777500Y-55609195D01*
X128020274Y-55619214D01*
X128141801Y-55589180D01*
X128189782Y-55490417D01*
X128206451Y-55351340D01*
X128213881Y-55147840D01*
X128196141Y-55031555D01*
X128193044Y-55027488D01*
X128092776Y-55015090D01*
X127884823Y-55029711D01*
X127764093Y-55045595D01*
X127526075Y-55091032D01*
X127411994Y-55155758D01*
X127377123Y-55274067D01*
X127375334Y-55343641D01*
X127132275Y-55343641D01*
X127132207Y-55332847D01*
X127137159Y-55242520D01*
X127163667Y-54873000D01*
X127828672Y-54860039D01*
X128167053Y-54857274D01*
X128388884Y-54874947D01*
X128546855Y-54927794D01*
X128693652Y-55030549D01*
X128812600Y-55135206D01*
X129004649Y-55300007D01*
X129144685Y-55404283D01*
X129184762Y-55423334D01*
X129220528Y-55349027D01*
X129237729Y-55167256D01*
X129237988Y-55139719D01*
X129746000Y-55139719D01*
X129770018Y-55236019D01*
X129870552Y-55274700D01*
X130090323Y-55270061D01*
X130127000Y-55267252D01*
X130354277Y-55234044D01*
X130490562Y-55184922D01*
X130508000Y-55160808D01*
X130434552Y-55106767D01*
X130260925Y-55084667D01*
X130031956Y-55067455D01*
X129879925Y-55033275D01*
X129769677Y-55040663D01*
X129746000Y-55139719D01*
X129237988Y-55139719D01*
X129238000Y-55138520D01*
X129238000Y-54853707D01*
X129863959Y-54839193D01*
X130257749Y-54844819D01*
X130504888Y-54885464D01*
X130607201Y-54941963D01*
X130721182Y-55016289D01*
X130827555Y-54948886D01*
X130831247Y-54944957D01*
X130970887Y-54864645D01*
X131150464Y-54833065D01*
X131300997Y-54853760D01*
G36*
X131044948Y-53008065D02*
G01*
X131160831Y-53105017D01*
X131162020Y-53108455D01*
X131112813Y-53191691D01*
X130949511Y-53260193D01*
X130935818Y-53263348D01*
X130732747Y-53327446D01*
X130695668Y-53391157D01*
X130821270Y-53450827D01*
X131106245Y-53502803D01*
X131158591Y-53509248D01*
X131525968Y-53572975D01*
X131748561Y-53667748D01*
X131849976Y-53806792D01*
X131862667Y-53903653D01*
X131825816Y-54087402D01*
X131700393Y-54211733D01*
X131464091Y-54285797D01*
X131094604Y-54318745D01*
X130841337Y-54322667D01*
X130472618Y-54318335D01*
X130235899Y-54300460D01*
X130093961Y-54261721D01*
X130009585Y-54194799D01*
X129980351Y-54153334D01*
X129880226Y-54050562D01*
X129713490Y-53998968D01*
X129431057Y-53984046D01*
X129407334Y-53984000D01*
X129115607Y-53997026D01*
X128942793Y-54045773D01*
X128839806Y-54144747D01*
X128834316Y-54153334D01*
X128662022Y-54289965D01*
X128430202Y-54322098D01*
X128212571Y-54249734D01*
X128117685Y-54153334D01*
X127957031Y-54036121D01*
X127700404Y-53978847D01*
X127410422Y-53982100D01*
X127149702Y-54046464D01*
X127003773Y-54142903D01*
X126901617Y-54222833D01*
X126745509Y-54273334D01*
X126497414Y-54301719D01*
X126119299Y-54315300D01*
X126105775Y-54315551D01*
X125743267Y-54319205D01*
X125510941Y-54308447D01*
X125369747Y-54274786D01*
X125280636Y-54209729D01*
X125215765Y-54122016D01*
X125138706Y-53925235D01*
X125101662Y-53666956D01*
X125102680Y-53397857D01*
X125139804Y-53168613D01*
X125211077Y-53029903D01*
X125258667Y-53010334D01*
X125338597Y-53060279D01*
X125392670Y-53227780D01*
X125428000Y-53518334D01*
X125470334Y-54026334D01*
X126699708Y-54111000D01*
X126981950Y-53678308D01*
X127338165Y-53678308D01*
X127394623Y-53723331D01*
X127546928Y-53730000D01*
X127719543Y-53717628D01*
X127756448Y-53658158D01*
X127714000Y-53560667D01*
X127618842Y-53427164D01*
X127562054Y-53391334D01*
X127474732Y-53454708D01*
X127394982Y-53560667D01*
X127338165Y-53678308D01*
X126981950Y-53678308D01*
X127058687Y-53560667D01*
X127244803Y-53298884D01*
X127412165Y-53104630D01*
X127529641Y-53013182D01*
X127544393Y-53010334D01*
X127650189Y-53074653D01*
X127820458Y-53245782D01*
X128023764Y-53490975D01*
X128089565Y-53578238D01*
X128508011Y-54146142D01*
X128821765Y-53678444D01*
X129193797Y-53678444D01*
X129260128Y-53723608D01*
X129405072Y-53730000D01*
X129577268Y-53719059D01*
X129611079Y-53663484D01*
X129557018Y-53560667D01*
X129451732Y-53428826D01*
X129389946Y-53391334D01*
X129306561Y-53456804D01*
X129238000Y-53560667D01*
X129193797Y-53678444D01*
X128821765Y-53678444D01*
X128870326Y-53606057D01*
X129055551Y-53339775D01*
X129213623Y-53130109D01*
X129314551Y-53016511D01*
X129323696Y-53009697D01*
X129428601Y-52996699D01*
X129562340Y-53086860D01*
X129741430Y-53295929D01*
X129978873Y-53634380D01*
X130296784Y-54111000D01*
X130910392Y-54086124D01*
X131258957Y-54061244D01*
X131457251Y-54018712D01*
X131523793Y-53954412D01*
X131524000Y-53949717D01*
X131441495Y-53869927D01*
X131193046Y-53812084D01*
X131021750Y-53792643D01*
X130682162Y-53754152D01*
X130478035Y-53701127D01*
X130375592Y-53613373D01*
X130341054Y-53470695D01*
X130338667Y-53384241D01*
X130379778Y-53177904D01*
X130533242Y-53059901D01*
X130565951Y-53046729D01*
X130829060Y-52986814D01*
X131044948Y-53008065D01*
G37*
X131044948Y-53008065D02*
X131160831Y-53105017D01*
X131162020Y-53108455D01*
X131112813Y-53191691D01*
X130949511Y-53260193D01*
X130935818Y-53263348D01*
X130732747Y-53327446D01*
X130695668Y-53391157D01*
X130821270Y-53450827D01*
X131106245Y-53502803D01*
X131158591Y-53509248D01*
X131525968Y-53572975D01*
X131748561Y-53667748D01*
X131849976Y-53806792D01*
X131862667Y-53903653D01*
X131825816Y-54087402D01*
X131700393Y-54211733D01*
X131464091Y-54285797D01*
X131094604Y-54318745D01*
X130841337Y-54322667D01*
X130472618Y-54318335D01*
X130235899Y-54300460D01*
X130093961Y-54261721D01*
X130009585Y-54194799D01*
X129980351Y-54153334D01*
X129880226Y-54050562D01*
X129713490Y-53998968D01*
X129431057Y-53984046D01*
X129407334Y-53984000D01*
X129115607Y-53997026D01*
X128942793Y-54045773D01*
X128839806Y-54144747D01*
X128834316Y-54153334D01*
X128662022Y-54289965D01*
X128430202Y-54322098D01*
X128212571Y-54249734D01*
X128117685Y-54153334D01*
X127957031Y-54036121D01*
X127700404Y-53978847D01*
X127410422Y-53982100D01*
X127149702Y-54046464D01*
X127003773Y-54142903D01*
X126901617Y-54222833D01*
X126745509Y-54273334D01*
X126497414Y-54301719D01*
X126119299Y-54315300D01*
X126105775Y-54315551D01*
X125743267Y-54319205D01*
X125510941Y-54308447D01*
X125369747Y-54274786D01*
X125280636Y-54209729D01*
X125215765Y-54122016D01*
X125138706Y-53925235D01*
X125101662Y-53666956D01*
X125102680Y-53397857D01*
X125139804Y-53168613D01*
X125211077Y-53029903D01*
X125258667Y-53010334D01*
X125338597Y-53060279D01*
X125392670Y-53227780D01*
X125428000Y-53518334D01*
X125470334Y-54026334D01*
X126699708Y-54111000D01*
X126981950Y-53678308D01*
X127338165Y-53678308D01*
X127394623Y-53723331D01*
X127546928Y-53730000D01*
X127719543Y-53717628D01*
X127756448Y-53658158D01*
X127714000Y-53560667D01*
X127618842Y-53427164D01*
X127562054Y-53391334D01*
X127474732Y-53454708D01*
X127394982Y-53560667D01*
X127338165Y-53678308D01*
X126981950Y-53678308D01*
X127058687Y-53560667D01*
X127244803Y-53298884D01*
X127412165Y-53104630D01*
X127529641Y-53013182D01*
X127544393Y-53010334D01*
X127650189Y-53074653D01*
X127820458Y-53245782D01*
X128023764Y-53490975D01*
X128089565Y-53578238D01*
X128508011Y-54146142D01*
X128821765Y-53678444D01*
X129193797Y-53678444D01*
X129260128Y-53723608D01*
X129405072Y-53730000D01*
X129577268Y-53719059D01*
X129611079Y-53663484D01*
X129557018Y-53560667D01*
X129451732Y-53428826D01*
X129389946Y-53391334D01*
X129306561Y-53456804D01*
X129238000Y-53560667D01*
X129193797Y-53678444D01*
X128821765Y-53678444D01*
X128870326Y-53606057D01*
X129055551Y-53339775D01*
X129213623Y-53130109D01*
X129314551Y-53016511D01*
X129323696Y-53009697D01*
X129428601Y-52996699D01*
X129562340Y-53086860D01*
X129741430Y-53295929D01*
X129978873Y-53634380D01*
X130296784Y-54111000D01*
X130910392Y-54086124D01*
X131258957Y-54061244D01*
X131457251Y-54018712D01*
X131523793Y-53954412D01*
X131524000Y-53949717D01*
X131441495Y-53869927D01*
X131193046Y-53812084D01*
X131021750Y-53792643D01*
X130682162Y-53754152D01*
X130478035Y-53701127D01*
X130375592Y-53613373D01*
X130341054Y-53470695D01*
X130338667Y-53384241D01*
X130379778Y-53177904D01*
X130533242Y-53059901D01*
X130565951Y-53046729D01*
X130829060Y-52986814D01*
X131044948Y-53008065D01*
%TO.C,G2*%
G36*
X118099119Y-58544928D02*
G01*
X118202495Y-58648549D01*
X118257161Y-58831354D01*
X118269339Y-59031999D01*
X118266029Y-59197314D01*
X118249819Y-59284709D01*
X118211287Y-59318009D01*
X118154810Y-59321607D01*
X118011817Y-59331157D01*
X117938477Y-59345633D01*
X117810441Y-59348908D01*
X117722144Y-59326299D01*
X117623558Y-59246842D01*
X117603383Y-59145848D01*
X117723747Y-59145848D01*
X117735265Y-59174587D01*
X117805293Y-59209219D01*
X117926501Y-59215366D01*
X117930529Y-59214993D01*
X118052471Y-59183243D01*
X118103419Y-59106695D01*
X118107448Y-59084870D01*
X118102843Y-59003076D01*
X118038390Y-58973085D01*
X117973701Y-58970341D01*
X117840649Y-58997123D01*
X117748831Y-59062906D01*
X117723747Y-59145848D01*
X117603383Y-59145848D01*
X117602160Y-59139727D01*
X117646428Y-59027231D01*
X117744835Y-58931633D01*
X117885858Y-58875211D01*
X117958943Y-58868537D01*
X118073038Y-58856673D01*
X118109433Y-58812133D01*
X118106713Y-58779459D01*
X118052567Y-58710177D01*
X117916856Y-58682278D01*
X117912099Y-58682041D01*
X117780122Y-58675218D01*
X117694791Y-58669711D01*
X117690461Y-58669315D01*
X117654801Y-58646388D01*
X117689514Y-58603692D01*
X117769534Y-58556892D01*
X117869797Y-58521651D01*
X117941823Y-58512225D01*
X118099119Y-58544928D01*
G37*
X118099119Y-58544928D02*
X118202495Y-58648549D01*
X118257161Y-58831354D01*
X118269339Y-59031999D01*
X118266029Y-59197314D01*
X118249819Y-59284709D01*
X118211287Y-59318009D01*
X118154810Y-59321607D01*
X118011817Y-59331157D01*
X117938477Y-59345633D01*
X117810441Y-59348908D01*
X117722144Y-59326299D01*
X117623558Y-59246842D01*
X117603383Y-59145848D01*
X117723747Y-59145848D01*
X117735265Y-59174587D01*
X117805293Y-59209219D01*
X117926501Y-59215366D01*
X117930529Y-59214993D01*
X118052471Y-59183243D01*
X118103419Y-59106695D01*
X118107448Y-59084870D01*
X118102843Y-59003076D01*
X118038390Y-58973085D01*
X117973701Y-58970341D01*
X117840649Y-58997123D01*
X117748831Y-59062906D01*
X117723747Y-59145848D01*
X117603383Y-59145848D01*
X117602160Y-59139727D01*
X117646428Y-59027231D01*
X117744835Y-58931633D01*
X117885858Y-58875211D01*
X117958943Y-58868537D01*
X118073038Y-58856673D01*
X118109433Y-58812133D01*
X118106713Y-58779459D01*
X118052567Y-58710177D01*
X117916856Y-58682278D01*
X117912099Y-58682041D01*
X117780122Y-58675218D01*
X117694791Y-58669711D01*
X117690461Y-58669315D01*
X117654801Y-58646388D01*
X117689514Y-58603692D01*
X117769534Y-58556892D01*
X117869797Y-58521651D01*
X117941823Y-58512225D01*
X118099119Y-58544928D01*
G36*
X119651779Y-58171558D02*
G01*
X119674108Y-58229066D01*
X119687292Y-58344291D01*
X119693402Y-58533088D01*
X119694589Y-58740713D01*
X119693840Y-58991521D01*
X119689330Y-59157665D01*
X119677665Y-59256286D01*
X119655453Y-59304521D01*
X119619300Y-59319511D01*
X119580060Y-59319196D01*
X119452630Y-59327438D01*
X119389179Y-59343848D01*
X119285181Y-59345778D01*
X119220926Y-59321176D01*
X119115693Y-59209410D01*
X119058714Y-59046652D01*
X119055693Y-58983471D01*
X119195001Y-58983471D01*
X119233188Y-59117502D01*
X119316754Y-59202004D01*
X119402396Y-59215600D01*
X119470782Y-59193805D01*
X119504748Y-59135582D01*
X119515826Y-59013556D01*
X119516433Y-58944890D01*
X119512261Y-58793804D01*
X119491159Y-58718430D01*
X119440245Y-58692753D01*
X119390404Y-58690381D01*
X119278977Y-58724484D01*
X119215869Y-58828310D01*
X119195001Y-58983471D01*
X119055693Y-58983471D01*
X119050036Y-58865216D01*
X119089702Y-58697418D01*
X119177760Y-58575573D01*
X119219841Y-58549847D01*
X119346850Y-58518506D01*
X119443852Y-58553669D01*
X119503789Y-58582728D01*
X119532509Y-58557839D01*
X119541360Y-58459521D01*
X119541884Y-58385402D01*
X119551840Y-58234270D01*
X119585705Y-58165334D01*
X119618237Y-58155912D01*
X119651779Y-58171558D01*
G37*
X119651779Y-58171558D02*
X119674108Y-58229066D01*
X119687292Y-58344291D01*
X119693402Y-58533088D01*
X119694589Y-58740713D01*
X119693840Y-58991521D01*
X119689330Y-59157665D01*
X119677665Y-59256286D01*
X119655453Y-59304521D01*
X119619300Y-59319511D01*
X119580060Y-59319196D01*
X119452630Y-59327438D01*
X119389179Y-59343848D01*
X119285181Y-59345778D01*
X119220926Y-59321176D01*
X119115693Y-59209410D01*
X119058714Y-59046652D01*
X119055693Y-58983471D01*
X119195001Y-58983471D01*
X119233188Y-59117502D01*
X119316754Y-59202004D01*
X119402396Y-59215600D01*
X119470782Y-59193805D01*
X119504748Y-59135582D01*
X119515826Y-59013556D01*
X119516433Y-58944890D01*
X119512261Y-58793804D01*
X119491159Y-58718430D01*
X119440245Y-58692753D01*
X119390404Y-58690381D01*
X119278977Y-58724484D01*
X119215869Y-58828310D01*
X119195001Y-58983471D01*
X119055693Y-58983471D01*
X119050036Y-58865216D01*
X119089702Y-58697418D01*
X119177760Y-58575573D01*
X119219841Y-58549847D01*
X119346850Y-58518506D01*
X119443852Y-58553669D01*
X119503789Y-58582728D01*
X119532509Y-58557839D01*
X119541360Y-58459521D01*
X119541884Y-58385402D01*
X119551840Y-58234270D01*
X119585705Y-58165334D01*
X119618237Y-58155912D01*
X119651779Y-58171558D01*
G36*
X121592593Y-58581046D02*
G01*
X121685304Y-58730391D01*
X121727457Y-58966465D01*
X121730662Y-59074888D01*
X121726016Y-59224676D01*
X121704197Y-59298270D01*
X121653382Y-59321138D01*
X121616132Y-59321607D01*
X121473140Y-59331157D01*
X121399800Y-59345633D01*
X121271764Y-59348908D01*
X121183467Y-59326299D01*
X121093295Y-59251573D01*
X121072710Y-59145848D01*
X121185069Y-59145848D01*
X121196588Y-59174587D01*
X121266615Y-59209219D01*
X121387823Y-59215366D01*
X121391851Y-59214993D01*
X121513794Y-59183243D01*
X121564742Y-59106695D01*
X121568771Y-59084870D01*
X121564166Y-59003076D01*
X121499712Y-58973085D01*
X121435024Y-58970341D01*
X121301971Y-58997123D01*
X121210153Y-59062906D01*
X121185069Y-59145848D01*
X121072710Y-59145848D01*
X121068938Y-59126478D01*
X121107336Y-58981686D01*
X121224789Y-58896523D01*
X121424689Y-58868538D01*
X121425637Y-58868537D01*
X121537288Y-58855805D01*
X121571254Y-58808485D01*
X121568524Y-58779459D01*
X121522866Y-58715473D01*
X121403949Y-58681549D01*
X121335733Y-58674729D01*
X121187971Y-58650641D01*
X121125630Y-58611742D01*
X121154364Y-58567061D01*
X121247094Y-58533127D01*
X121447223Y-58516076D01*
X121592593Y-58581046D01*
G37*
X121592593Y-58581046D02*
X121685304Y-58730391D01*
X121727457Y-58966465D01*
X121730662Y-59074888D01*
X121726016Y-59224676D01*
X121704197Y-59298270D01*
X121653382Y-59321138D01*
X121616132Y-59321607D01*
X121473140Y-59331157D01*
X121399800Y-59345633D01*
X121271764Y-59348908D01*
X121183467Y-59326299D01*
X121093295Y-59251573D01*
X121072710Y-59145848D01*
X121185069Y-59145848D01*
X121196588Y-59174587D01*
X121266615Y-59209219D01*
X121387823Y-59215366D01*
X121391851Y-59214993D01*
X121513794Y-59183243D01*
X121564742Y-59106695D01*
X121568771Y-59084870D01*
X121564166Y-59003076D01*
X121499712Y-58973085D01*
X121435024Y-58970341D01*
X121301971Y-58997123D01*
X121210153Y-59062906D01*
X121185069Y-59145848D01*
X121072710Y-59145848D01*
X121068938Y-59126478D01*
X121107336Y-58981686D01*
X121224789Y-58896523D01*
X121424689Y-58868538D01*
X121425637Y-58868537D01*
X121537288Y-58855805D01*
X121571254Y-58808485D01*
X121568524Y-58779459D01*
X121522866Y-58715473D01*
X121403949Y-58681549D01*
X121335733Y-58674729D01*
X121187971Y-58650641D01*
X121125630Y-58611742D01*
X121154364Y-58567061D01*
X121247094Y-58533127D01*
X121447223Y-58516076D01*
X121592593Y-58581046D01*
G36*
X123065391Y-58600421D02*
G01*
X123143243Y-58736930D01*
X123155912Y-58834369D01*
X123148753Y-58914959D01*
X123109842Y-58955157D01*
X123013025Y-58968934D01*
X122901403Y-58970341D01*
X122736236Y-58980024D01*
X122657862Y-59011530D01*
X122646894Y-59040461D01*
X122690482Y-59147092D01*
X122807187Y-59204761D01*
X122975921Y-59203100D01*
X122977198Y-59202862D01*
X123108815Y-59196114D01*
X123156433Y-59228920D01*
X123113539Y-59284369D01*
X123025344Y-59327913D01*
X122909670Y-59366062D01*
X122828230Y-59366593D01*
X122748698Y-59342230D01*
X122634034Y-59252452D01*
X122562534Y-59101309D01*
X122538791Y-58921647D01*
X122562616Y-58775611D01*
X122669240Y-58775611D01*
X122671942Y-58833898D01*
X122770392Y-58864755D01*
X122850501Y-58868537D01*
X122995692Y-58855806D01*
X123044269Y-58818004D01*
X123042595Y-58808547D01*
X122967176Y-58710723D01*
X122852216Y-58671640D01*
X122764453Y-58694278D01*
X122669240Y-58775611D01*
X122562616Y-58775611D01*
X122567396Y-58746316D01*
X122646894Y-58614028D01*
X122790900Y-58527579D01*
X122939171Y-58526840D01*
X123065391Y-58600421D01*
G37*
X123065391Y-58600421D02*
X123143243Y-58736930D01*
X123155912Y-58834369D01*
X123148753Y-58914959D01*
X123109842Y-58955157D01*
X123013025Y-58968934D01*
X122901403Y-58970341D01*
X122736236Y-58980024D01*
X122657862Y-59011530D01*
X122646894Y-59040461D01*
X122690482Y-59147092D01*
X122807187Y-59204761D01*
X122975921Y-59203100D01*
X122977198Y-59202862D01*
X123108815Y-59196114D01*
X123156433Y-59228920D01*
X123113539Y-59284369D01*
X123025344Y-59327913D01*
X122909670Y-59366062D01*
X122828230Y-59366593D01*
X122748698Y-59342230D01*
X122634034Y-59252452D01*
X122562534Y-59101309D01*
X122538791Y-58921647D01*
X122562616Y-58775611D01*
X122669240Y-58775611D01*
X122671942Y-58833898D01*
X122770392Y-58864755D01*
X122850501Y-58868537D01*
X122995692Y-58855806D01*
X123044269Y-58818004D01*
X123042595Y-58808547D01*
X122967176Y-58710723D01*
X122852216Y-58671640D01*
X122764453Y-58694278D01*
X122669240Y-58775611D01*
X122562616Y-58775611D01*
X122567396Y-58746316D01*
X122646894Y-58614028D01*
X122790900Y-58527579D01*
X122939171Y-58526840D01*
X123065391Y-58600421D01*
G36*
X117317926Y-57213821D02*
G01*
X117366552Y-57267477D01*
X117405212Y-57370582D01*
X117438836Y-57562626D01*
X117424469Y-57753712D01*
X117367283Y-57905696D01*
X117326182Y-57953528D01*
X117215932Y-57991507D01*
X117098471Y-57985366D01*
X116945892Y-57954850D01*
X116945892Y-58290672D01*
X116948835Y-58468135D01*
X116960648Y-58560601D01*
X116985804Y-58584784D01*
X117019443Y-58565452D01*
X117145438Y-58518439D01*
X117279637Y-58551385D01*
X117383360Y-58653887D01*
X117389258Y-58664930D01*
X117431022Y-58793880D01*
X117452471Y-58954125D01*
X117453979Y-59115471D01*
X117435918Y-59247729D01*
X117398661Y-59320705D01*
X117381098Y-59326654D01*
X117334039Y-59294659D01*
X117305190Y-59188602D01*
X117292019Y-59039237D01*
X117259739Y-58820846D01*
X117190719Y-58696781D01*
X117084329Y-58666182D01*
X117029163Y-58680683D01*
X116979991Y-58724878D01*
X116954057Y-58824143D01*
X116945935Y-59000564D01*
X116945892Y-59019645D01*
X116940082Y-59197508D01*
X116919475Y-59293228D01*
X116879304Y-59325969D01*
X116869539Y-59326654D01*
X116843692Y-59314425D01*
X116824286Y-59269624D01*
X116810447Y-59180075D01*
X116801299Y-59033603D01*
X116795968Y-58818036D01*
X116793578Y-58521196D01*
X116793187Y-58264411D01*
X116793187Y-57589300D01*
X116945892Y-57589300D01*
X116956921Y-57747419D01*
X117001009Y-57825610D01*
X117094657Y-57844392D01*
X117147594Y-57840113D01*
X117233625Y-57815096D01*
X117275810Y-57746381D01*
X117293189Y-57623473D01*
X117287956Y-57462165D01*
X117234423Y-57367701D01*
X117222531Y-57358211D01*
X117106332Y-57317599D01*
X117012168Y-57365667D01*
X116955495Y-57489502D01*
X116945892Y-57589300D01*
X116793187Y-57589300D01*
X116793187Y-57202168D01*
X117069308Y-57195803D01*
X117229105Y-57195269D01*
X117317926Y-57213821D01*
G37*
X117317926Y-57213821D02*
X117366552Y-57267477D01*
X117405212Y-57370582D01*
X117438836Y-57562626D01*
X117424469Y-57753712D01*
X117367283Y-57905696D01*
X117326182Y-57953528D01*
X117215932Y-57991507D01*
X117098471Y-57985366D01*
X116945892Y-57954850D01*
X116945892Y-58290672D01*
X116948835Y-58468135D01*
X116960648Y-58560601D01*
X116985804Y-58584784D01*
X117019443Y-58565452D01*
X117145438Y-58518439D01*
X117279637Y-58551385D01*
X117383360Y-58653887D01*
X117389258Y-58664930D01*
X117431022Y-58793880D01*
X117452471Y-58954125D01*
X117453979Y-59115471D01*
X117435918Y-59247729D01*
X117398661Y-59320705D01*
X117381098Y-59326654D01*
X117334039Y-59294659D01*
X117305190Y-59188602D01*
X117292019Y-59039237D01*
X117259739Y-58820846D01*
X117190719Y-58696781D01*
X117084329Y-58666182D01*
X117029163Y-58680683D01*
X116979991Y-58724878D01*
X116954057Y-58824143D01*
X116945935Y-59000564D01*
X116945892Y-59019645D01*
X116940082Y-59197508D01*
X116919475Y-59293228D01*
X116879304Y-59325969D01*
X116869539Y-59326654D01*
X116843692Y-59314425D01*
X116824286Y-59269624D01*
X116810447Y-59180075D01*
X116801299Y-59033603D01*
X116795968Y-58818036D01*
X116793578Y-58521196D01*
X116793187Y-58264411D01*
X116793187Y-57589300D01*
X116945892Y-57589300D01*
X116956921Y-57747419D01*
X117001009Y-57825610D01*
X117094657Y-57844392D01*
X117147594Y-57840113D01*
X117233625Y-57815096D01*
X117275810Y-57746381D01*
X117293189Y-57623473D01*
X117287956Y-57462165D01*
X117234423Y-57367701D01*
X117222531Y-57358211D01*
X117106332Y-57317599D01*
X117012168Y-57365667D01*
X116955495Y-57489502D01*
X116945892Y-57589300D01*
X116793187Y-57589300D01*
X116793187Y-57202168D01*
X117069308Y-57195803D01*
X117229105Y-57195269D01*
X117317926Y-57213821D01*
G36*
X118616984Y-58542999D02*
G01*
X118625652Y-58569359D01*
X118648378Y-58597868D01*
X118699202Y-58565452D01*
X118787637Y-58527897D01*
X118893435Y-58522882D01*
X118975730Y-58547232D01*
X118996693Y-58588577D01*
X118944307Y-58630090D01*
X118831116Y-58662880D01*
X118818536Y-58664930D01*
X118727087Y-58682937D01*
X118675680Y-58718613D01*
X118650836Y-58797324D01*
X118639075Y-58944433D01*
X118635948Y-59008517D01*
X118620358Y-59194586D01*
X118592885Y-59295243D01*
X118549015Y-59326612D01*
X118546870Y-59326654D01*
X118508676Y-59305506D01*
X118485766Y-59230464D01*
X118474979Y-59084127D01*
X118472946Y-58919439D01*
X118476542Y-58710501D01*
X118489591Y-58585109D01*
X118515480Y-58525188D01*
X118549299Y-58512225D01*
X118616984Y-58542999D01*
G37*
X118616984Y-58542999D02*
X118625652Y-58569359D01*
X118648378Y-58597868D01*
X118699202Y-58565452D01*
X118787637Y-58527897D01*
X118893435Y-58522882D01*
X118975730Y-58547232D01*
X118996693Y-58588577D01*
X118944307Y-58630090D01*
X118831116Y-58662880D01*
X118818536Y-58664930D01*
X118727087Y-58682937D01*
X118675680Y-58718613D01*
X118650836Y-58797324D01*
X118639075Y-58944433D01*
X118635948Y-59008517D01*
X118620358Y-59194586D01*
X118592885Y-59295243D01*
X118549015Y-59326612D01*
X118546870Y-59326654D01*
X118508676Y-59305506D01*
X118485766Y-59230464D01*
X118474979Y-59084127D01*
X118472946Y-58919439D01*
X118476542Y-58710501D01*
X118489591Y-58585109D01*
X118515480Y-58525188D01*
X118549299Y-58512225D01*
X118616984Y-58542999D01*
G36*
X120967528Y-58536693D02*
G01*
X120961935Y-58619207D01*
X120921590Y-58773430D01*
X120875421Y-58919439D01*
X120808367Y-59105002D01*
X120745479Y-59246267D01*
X120697292Y-59320620D01*
X120685668Y-59326654D01*
X120641277Y-59282112D01*
X120584522Y-59166858D01*
X120541164Y-59046694D01*
X120490508Y-58896142D01*
X120450190Y-58794513D01*
X120432666Y-58766734D01*
X120407836Y-58810959D01*
X120364390Y-58925467D01*
X120324167Y-59046694D01*
X120253404Y-59222634D01*
X120181108Y-59316976D01*
X120114671Y-59322229D01*
X120085591Y-59288477D01*
X120060506Y-59222156D01*
X120018385Y-59089641D01*
X119979910Y-58959503D01*
X119929597Y-58788478D01*
X119886699Y-58650062D01*
X119866427Y-58590465D01*
X119873079Y-58523809D01*
X119916240Y-58512225D01*
X119985327Y-58561550D01*
X120044113Y-58703430D01*
X120050793Y-58728557D01*
X120105748Y-58933607D01*
X120147540Y-59042593D01*
X120184467Y-59058964D01*
X120224828Y-58986172D01*
X120276922Y-58827667D01*
X120278288Y-58823159D01*
X120334635Y-58665350D01*
X120389264Y-58558903D01*
X120428427Y-58527376D01*
X120473300Y-58581419D01*
X120535147Y-58704228D01*
X120592199Y-58846925D01*
X120700830Y-59148497D01*
X120760659Y-58919439D01*
X120813855Y-58719695D01*
X120850860Y-58598884D01*
X120880410Y-58537233D01*
X120911240Y-58514969D01*
X120940555Y-58512225D01*
X120967528Y-58536693D01*
G37*
X120967528Y-58536693D02*
X120961935Y-58619207D01*
X120921590Y-58773430D01*
X120875421Y-58919439D01*
X120808367Y-59105002D01*
X120745479Y-59246267D01*
X120697292Y-59320620D01*
X120685668Y-59326654D01*
X120641277Y-59282112D01*
X120584522Y-59166858D01*
X120541164Y-59046694D01*
X120490508Y-58896142D01*
X120450190Y-58794513D01*
X120432666Y-58766734D01*
X120407836Y-58810959D01*
X120364390Y-58925467D01*
X120324167Y-59046694D01*
X120253404Y-59222634D01*
X120181108Y-59316976D01*
X120114671Y-59322229D01*
X120085591Y-59288477D01*
X120060506Y-59222156D01*
X120018385Y-59089641D01*
X119979910Y-58959503D01*
X119929597Y-58788478D01*
X119886699Y-58650062D01*
X119866427Y-58590465D01*
X119873079Y-58523809D01*
X119916240Y-58512225D01*
X119985327Y-58561550D01*
X120044113Y-58703430D01*
X120050793Y-58728557D01*
X120105748Y-58933607D01*
X120147540Y-59042593D01*
X120184467Y-59058964D01*
X120224828Y-58986172D01*
X120276922Y-58827667D01*
X120278288Y-58823159D01*
X120334635Y-58665350D01*
X120389264Y-58558903D01*
X120428427Y-58527376D01*
X120473300Y-58581419D01*
X120535147Y-58704228D01*
X120592199Y-58846925D01*
X120700830Y-59148497D01*
X120760659Y-58919439D01*
X120813855Y-58719695D01*
X120850860Y-58598884D01*
X120880410Y-58537233D01*
X120911240Y-58514969D01*
X120940555Y-58512225D01*
X120967528Y-58536693D01*
G36*
X122078270Y-58545070D02*
G01*
X122086974Y-58573307D01*
X122101998Y-58608720D01*
X122148056Y-58573307D01*
X122243613Y-58524977D01*
X122362674Y-58514862D01*
X122453927Y-58545167D01*
X122466564Y-58559609D01*
X122459643Y-58621510D01*
X122373803Y-58668588D01*
X122240956Y-58687735D01*
X122170427Y-58696067D01*
X122130182Y-58733120D01*
X122109653Y-58822491D01*
X122098271Y-58987773D01*
X122097271Y-59008517D01*
X122081681Y-59194586D01*
X122054208Y-59295243D01*
X122010338Y-59326612D01*
X122008193Y-59326654D01*
X121969999Y-59305506D01*
X121947088Y-59230464D01*
X121936302Y-59084127D01*
X121934269Y-58919439D01*
X121937865Y-58710501D01*
X121950913Y-58585109D01*
X121976803Y-58525188D01*
X122010621Y-58512225D01*
X122078270Y-58545070D01*
G37*
X122078270Y-58545070D02*
X122086974Y-58573307D01*
X122101998Y-58608720D01*
X122148056Y-58573307D01*
X122243613Y-58524977D01*
X122362674Y-58514862D01*
X122453927Y-58545167D01*
X122466564Y-58559609D01*
X122459643Y-58621510D01*
X122373803Y-58668588D01*
X122240956Y-58687735D01*
X122170427Y-58696067D01*
X122130182Y-58733120D01*
X122109653Y-58822491D01*
X122098271Y-58987773D01*
X122097271Y-59008517D01*
X122081681Y-59194586D01*
X122054208Y-59295243D01*
X122010338Y-59326612D01*
X122008193Y-59326654D01*
X121969999Y-59305506D01*
X121947088Y-59230464D01*
X121936302Y-59084127D01*
X121934269Y-58919439D01*
X121937865Y-58710501D01*
X121950913Y-58585109D01*
X121976803Y-58525188D01*
X122010621Y-58512225D01*
X122078270Y-58545070D01*
G36*
X116430469Y-57226403D02*
G01*
X116539840Y-57340945D01*
X116587172Y-57534901D01*
X116589579Y-57604837D01*
X116553761Y-57803159D01*
X116459233Y-57940688D01*
X116325385Y-58007464D01*
X116171608Y-57993529D01*
X116023710Y-57895454D01*
X115954261Y-57800852D01*
X115933178Y-57682519D01*
X115939443Y-57589300D01*
X116080561Y-57589300D01*
X116088766Y-57723212D01*
X116109043Y-57808602D01*
X116114496Y-57816567D01*
X116205038Y-57848711D01*
X116328065Y-57838192D01*
X116426103Y-57790005D01*
X116426694Y-57789419D01*
X116481327Y-57671658D01*
X116474600Y-57523354D01*
X116410645Y-57391905D01*
X116390207Y-57370766D01*
X116272230Y-57310783D01*
X116170207Y-57340699D01*
X116101000Y-57448612D01*
X116080561Y-57589300D01*
X115939443Y-57589300D01*
X115941102Y-57564620D01*
X115983361Y-57361610D01*
X116062144Y-57242619D01*
X116189994Y-57192728D01*
X116257061Y-57188778D01*
X116430469Y-57226403D01*
G37*
X116430469Y-57226403D02*
X116539840Y-57340945D01*
X116587172Y-57534901D01*
X116589579Y-57604837D01*
X116553761Y-57803159D01*
X116459233Y-57940688D01*
X116325385Y-58007464D01*
X116171608Y-57993529D01*
X116023710Y-57895454D01*
X115954261Y-57800852D01*
X115933178Y-57682519D01*
X115939443Y-57589300D01*
X116080561Y-57589300D01*
X116088766Y-57723212D01*
X116109043Y-57808602D01*
X116114496Y-57816567D01*
X116205038Y-57848711D01*
X116328065Y-57838192D01*
X116426103Y-57790005D01*
X116426694Y-57789419D01*
X116481327Y-57671658D01*
X116474600Y-57523354D01*
X116410645Y-57391905D01*
X116390207Y-57370766D01*
X116272230Y-57310783D01*
X116170207Y-57340699D01*
X116101000Y-57448612D01*
X116080561Y-57589300D01*
X115939443Y-57589300D01*
X115941102Y-57564620D01*
X115983361Y-57361610D01*
X116062144Y-57242619D01*
X116189994Y-57192728D01*
X116257061Y-57188778D01*
X116430469Y-57226403D01*
G36*
X118151025Y-57265988D02*
G01*
X118244410Y-57396198D01*
X118269339Y-57530965D01*
X118260334Y-57597525D01*
X118216849Y-57632193D01*
X118114178Y-57645199D01*
X117989379Y-57646894D01*
X117807498Y-57657603D01*
X117723597Y-57691028D01*
X117735993Y-57749115D01*
X117833260Y-57827495D01*
X117951260Y-57879515D01*
X118056539Y-57855407D01*
X118059229Y-57853981D01*
X118152007Y-57833373D01*
X118206892Y-57865258D01*
X118198778Y-57924253D01*
X118161331Y-57957216D01*
X118014353Y-58003498D01*
X117851097Y-57990253D01*
X117717611Y-57923999D01*
X117686854Y-57890077D01*
X117620934Y-57727219D01*
X117611462Y-57538179D01*
X117633133Y-57456187D01*
X117742060Y-57456187D01*
X117764670Y-57516102D01*
X117883487Y-57543257D01*
X117945214Y-57545090D01*
X118066782Y-57534079D01*
X118109174Y-57493854D01*
X118107640Y-57461468D01*
X118045320Y-57345723D01*
X117938941Y-57308029D01*
X117820086Y-57359012D01*
X117815403Y-57363151D01*
X117742060Y-57456187D01*
X117633133Y-57456187D01*
X117656791Y-57366681D01*
X117709419Y-57290581D01*
X117857097Y-57201832D01*
X118013110Y-57197417D01*
X118151025Y-57265988D01*
G37*
X118151025Y-57265988D02*
X118244410Y-57396198D01*
X118269339Y-57530965D01*
X118260334Y-57597525D01*
X118216849Y-57632193D01*
X118114178Y-57645199D01*
X117989379Y-57646894D01*
X117807498Y-57657603D01*
X117723597Y-57691028D01*
X117735993Y-57749115D01*
X117833260Y-57827495D01*
X117951260Y-57879515D01*
X118056539Y-57855407D01*
X118059229Y-57853981D01*
X118152007Y-57833373D01*
X118206892Y-57865258D01*
X118198778Y-57924253D01*
X118161331Y-57957216D01*
X118014353Y-58003498D01*
X117851097Y-57990253D01*
X117717611Y-57923999D01*
X117686854Y-57890077D01*
X117620934Y-57727219D01*
X117611462Y-57538179D01*
X117633133Y-57456187D01*
X117742060Y-57456187D01*
X117764670Y-57516102D01*
X117883487Y-57543257D01*
X117945214Y-57545090D01*
X118066782Y-57534079D01*
X118109174Y-57493854D01*
X118107640Y-57461468D01*
X118045320Y-57345723D01*
X117938941Y-57308029D01*
X117820086Y-57359012D01*
X117815403Y-57363151D01*
X117742060Y-57456187D01*
X117633133Y-57456187D01*
X117656791Y-57366681D01*
X117709419Y-57290581D01*
X117857097Y-57201832D01*
X118013110Y-57197417D01*
X118151025Y-57265988D01*
G36*
X118952041Y-57207150D02*
G01*
X119029319Y-57273370D01*
X119070141Y-57404089D01*
X119083559Y-57615960D01*
X119083768Y-57657074D01*
X119075502Y-57861612D01*
X119054603Y-57972950D01*
X119026913Y-57989171D01*
X118998277Y-57908363D01*
X118974538Y-57728610D01*
X118971816Y-57693751D01*
X118937392Y-57468255D01*
X118875028Y-57333792D01*
X118787480Y-57293171D01*
X118677506Y-57349202D01*
X118654738Y-57370570D01*
X118595963Y-57494992D01*
X118574811Y-57711866D01*
X118574750Y-57726883D01*
X118566278Y-57879061D01*
X118544449Y-57979423D01*
X118523848Y-58003207D01*
X118498640Y-57955582D01*
X118480926Y-57825560D01*
X118473116Y-57632421D01*
X118472946Y-57595992D01*
X118478899Y-57394330D01*
X118495152Y-57252617D01*
X118519294Y-57190135D01*
X118523848Y-57188778D01*
X118571588Y-57228719D01*
X118574750Y-57249860D01*
X118589774Y-57285273D01*
X118635832Y-57249860D01*
X118731015Y-57202824D01*
X118829259Y-57188778D01*
X118952041Y-57207150D01*
G37*
X118952041Y-57207150D02*
X119029319Y-57273370D01*
X119070141Y-57404089D01*
X119083559Y-57615960D01*
X119083768Y-57657074D01*
X119075502Y-57861612D01*
X119054603Y-57972950D01*
X119026913Y-57989171D01*
X118998277Y-57908363D01*
X118974538Y-57728610D01*
X118971816Y-57693751D01*
X118937392Y-57468255D01*
X118875028Y-57333792D01*
X118787480Y-57293171D01*
X118677506Y-57349202D01*
X118654738Y-57370570D01*
X118595963Y-57494992D01*
X118574811Y-57711866D01*
X118574750Y-57726883D01*
X118566278Y-57879061D01*
X118544449Y-57979423D01*
X118523848Y-58003207D01*
X118498640Y-57955582D01*
X118480926Y-57825560D01*
X118473116Y-57632421D01*
X118472946Y-57595992D01*
X118478899Y-57394330D01*
X118495152Y-57252617D01*
X118519294Y-57190135D01*
X118523848Y-57188778D01*
X118571588Y-57228719D01*
X118574750Y-57249860D01*
X118589774Y-57285273D01*
X118635832Y-57249860D01*
X118731015Y-57202824D01*
X118829259Y-57188778D01*
X118952041Y-57207150D01*
G36*
X120110934Y-57206860D02*
G01*
X120217023Y-57252016D01*
X120241065Y-57317383D01*
X120232490Y-57335930D01*
X120167632Y-57365934D01*
X120102061Y-57341621D01*
X119954443Y-57293640D01*
X119848120Y-57321783D01*
X119812829Y-57372071D01*
X119820767Y-57463106D01*
X119914309Y-57523700D01*
X120064719Y-57544311D01*
X120200194Y-57584765D01*
X120277316Y-57683468D01*
X120281640Y-57809084D01*
X120229245Y-57901196D01*
X120101487Y-57976705D01*
X119929836Y-58001447D01*
X119759978Y-57973020D01*
X119678818Y-57930122D01*
X119623052Y-57863802D01*
X119653446Y-57826762D01*
X119756628Y-57826911D01*
X119827322Y-57842309D01*
X119966059Y-57865088D01*
X120066533Y-57861993D01*
X120134785Y-57812465D01*
X120133573Y-57736174D01*
X120070927Y-57672384D01*
X120024867Y-57658222D01*
X119841060Y-57623862D01*
X119734584Y-57583038D01*
X119681069Y-57524617D01*
X119669711Y-57495993D01*
X119664418Y-57347451D01*
X119744061Y-57240823D01*
X119895349Y-57191284D01*
X119938164Y-57189557D01*
X120110934Y-57206860D01*
G37*
X120110934Y-57206860D02*
X120217023Y-57252016D01*
X120241065Y-57317383D01*
X120232490Y-57335930D01*
X120167632Y-57365934D01*
X120102061Y-57341621D01*
X119954443Y-57293640D01*
X119848120Y-57321783D01*
X119812829Y-57372071D01*
X119820767Y-57463106D01*
X119914309Y-57523700D01*
X120064719Y-57544311D01*
X120200194Y-57584765D01*
X120277316Y-57683468D01*
X120281640Y-57809084D01*
X120229245Y-57901196D01*
X120101487Y-57976705D01*
X119929836Y-58001447D01*
X119759978Y-57973020D01*
X119678818Y-57930122D01*
X119623052Y-57863802D01*
X119653446Y-57826762D01*
X119756628Y-57826911D01*
X119827322Y-57842309D01*
X119966059Y-57865088D01*
X120066533Y-57861993D01*
X120134785Y-57812465D01*
X120133573Y-57736174D01*
X120070927Y-57672384D01*
X120024867Y-57658222D01*
X119841060Y-57623862D01*
X119734584Y-57583038D01*
X119681069Y-57524617D01*
X119669711Y-57495993D01*
X119664418Y-57347451D01*
X119744061Y-57240823D01*
X119895349Y-57191284D01*
X119938164Y-57189557D01*
X120110934Y-57206860D01*
G36*
X120923701Y-57231425D02*
G01*
X121025585Y-57356507D01*
X121067891Y-57559736D01*
X121068938Y-57604837D01*
X121032955Y-57806229D01*
X120936766Y-57944399D01*
X120798008Y-58008643D01*
X120634317Y-57988261D01*
X120531473Y-57930957D01*
X120467770Y-57855488D01*
X120438022Y-57731399D01*
X120432666Y-57595992D01*
X120438888Y-57542718D01*
X120559920Y-57542718D01*
X120576607Y-57719882D01*
X120634329Y-57816618D01*
X120744576Y-57849923D01*
X120768003Y-57850501D01*
X120884229Y-57828016D01*
X120940505Y-57743885D01*
X120946232Y-57723247D01*
X120959277Y-57557135D01*
X120922346Y-57412477D01*
X120845369Y-57325637D01*
X120836632Y-57321829D01*
X120709036Y-57318626D01*
X120607347Y-57394097D01*
X120560487Y-57525154D01*
X120559920Y-57542718D01*
X120438888Y-57542718D01*
X120457349Y-57384654D01*
X120536638Y-57254133D01*
X120678392Y-57194809D01*
X120765367Y-57188778D01*
X120923701Y-57231425D01*
G37*
X120923701Y-57231425D02*
X121025585Y-57356507D01*
X121067891Y-57559736D01*
X121068938Y-57604837D01*
X121032955Y-57806229D01*
X120936766Y-57944399D01*
X120798008Y-58008643D01*
X120634317Y-57988261D01*
X120531473Y-57930957D01*
X120467770Y-57855488D01*
X120438022Y-57731399D01*
X120432666Y-57595992D01*
X120438888Y-57542718D01*
X120559920Y-57542718D01*
X120576607Y-57719882D01*
X120634329Y-57816618D01*
X120744576Y-57849923D01*
X120768003Y-57850501D01*
X120884229Y-57828016D01*
X120940505Y-57743885D01*
X120946232Y-57723247D01*
X120959277Y-57557135D01*
X120922346Y-57412477D01*
X120845369Y-57325637D01*
X120836632Y-57321829D01*
X120709036Y-57318626D01*
X120607347Y-57394097D01*
X120560487Y-57525154D01*
X120559920Y-57542718D01*
X120438888Y-57542718D01*
X120457349Y-57384654D01*
X120536638Y-57254133D01*
X120678392Y-57194809D01*
X120765367Y-57188778D01*
X120923701Y-57231425D01*
G36*
X121898897Y-57210212D02*
G01*
X121921853Y-57286173D01*
X121932457Y-57434153D01*
X121934269Y-57587309D01*
X121934269Y-57985841D01*
X121680493Y-57991622D01*
X121474414Y-57976739D01*
X121351918Y-57922543D01*
X121349632Y-57920316D01*
X121305372Y-57831115D01*
X121278050Y-57688877D01*
X121267795Y-57523593D01*
X121274735Y-57365257D01*
X121299003Y-57243860D01*
X121340725Y-57189395D01*
X121346469Y-57188778D01*
X121391084Y-57217727D01*
X121419122Y-57315323D01*
X121435098Y-57497691D01*
X121435547Y-57506914D01*
X121445835Y-57680281D01*
X121463968Y-57775420D01*
X121502331Y-57815804D01*
X121573310Y-57824909D01*
X121603407Y-57825050D01*
X121686825Y-57820822D01*
X121733841Y-57792487D01*
X121756842Y-57716571D01*
X121768213Y-57569601D01*
X121771267Y-57506914D01*
X121786857Y-57320845D01*
X121814330Y-57220188D01*
X121858200Y-57188819D01*
X121860345Y-57188778D01*
X121898897Y-57210212D01*
G37*
X121898897Y-57210212D02*
X121921853Y-57286173D01*
X121932457Y-57434153D01*
X121934269Y-57587309D01*
X121934269Y-57985841D01*
X121680493Y-57991622D01*
X121474414Y-57976739D01*
X121351918Y-57922543D01*
X121349632Y-57920316D01*
X121305372Y-57831115D01*
X121278050Y-57688877D01*
X121267795Y-57523593D01*
X121274735Y-57365257D01*
X121299003Y-57243860D01*
X121340725Y-57189395D01*
X121346469Y-57188778D01*
X121391084Y-57217727D01*
X121419122Y-57315323D01*
X121435098Y-57497691D01*
X121435547Y-57506914D01*
X121445835Y-57680281D01*
X121463968Y-57775420D01*
X121502331Y-57815804D01*
X121573310Y-57824909D01*
X121603407Y-57825050D01*
X121686825Y-57820822D01*
X121733841Y-57792487D01*
X121756842Y-57716571D01*
X121768213Y-57569601D01*
X121771267Y-57506914D01*
X121786857Y-57320845D01*
X121814330Y-57220188D01*
X121858200Y-57188819D01*
X121860345Y-57188778D01*
X121898897Y-57210212D01*
G36*
X122281877Y-57221623D02*
G01*
X122290581Y-57249860D01*
X122305606Y-57285273D01*
X122351664Y-57249860D01*
X122434465Y-57205869D01*
X122542742Y-57188959D01*
X122639178Y-57198845D01*
X122686456Y-57235241D01*
X122685120Y-57252405D01*
X122623875Y-57302555D01*
X122535760Y-57321065D01*
X122407808Y-57339159D01*
X122333414Y-57395063D01*
X122298900Y-57509965D01*
X122290581Y-57700800D01*
X122284614Y-57877148D01*
X122263482Y-57971401D01*
X122222343Y-58002745D01*
X122214229Y-58003207D01*
X122175053Y-57984027D01*
X122151542Y-57914436D01*
X122140307Y-57776358D01*
X122137876Y-57595992D01*
X122141472Y-57387054D01*
X122154520Y-57261662D01*
X122180410Y-57201741D01*
X122214229Y-57188778D01*
X122281877Y-57221623D01*
G37*
X122281877Y-57221623D02*
X122290581Y-57249860D01*
X122305606Y-57285273D01*
X122351664Y-57249860D01*
X122434465Y-57205869D01*
X122542742Y-57188959D01*
X122639178Y-57198845D01*
X122686456Y-57235241D01*
X122685120Y-57252405D01*
X122623875Y-57302555D01*
X122535760Y-57321065D01*
X122407808Y-57339159D01*
X122333414Y-57395063D01*
X122298900Y-57509965D01*
X122290581Y-57700800D01*
X122284614Y-57877148D01*
X122263482Y-57971401D01*
X122222343Y-58002745D01*
X122214229Y-58003207D01*
X122175053Y-57984027D01*
X122151542Y-57914436D01*
X122140307Y-57776358D01*
X122137876Y-57595992D01*
X122141472Y-57387054D01*
X122154520Y-57261662D01*
X122180410Y-57201741D01*
X122214229Y-57188778D01*
X122281877Y-57221623D01*
G36*
X123237916Y-57215235D02*
G01*
X123304856Y-57260599D01*
X123333146Y-57335907D01*
X123287048Y-57373779D01*
X123191540Y-57358936D01*
X123164834Y-57346258D01*
X123043997Y-57330210D01*
X122933875Y-57392266D01*
X122862752Y-57510256D01*
X122850501Y-57592646D01*
X122888683Y-57748449D01*
X122999680Y-57834288D01*
X123140623Y-57849213D01*
X123283044Y-57843887D01*
X123340611Y-57858261D01*
X123329543Y-57899831D01*
X123308617Y-57926854D01*
X123211874Y-57980041D01*
X123067328Y-58001662D01*
X122925212Y-57987588D01*
X122866411Y-57963215D01*
X122769528Y-57847076D01*
X122725369Y-57678343D01*
X122735457Y-57492415D01*
X122801317Y-57324690D01*
X122836905Y-57277856D01*
X122949230Y-57212415D01*
X123098481Y-57190966D01*
X123237916Y-57215235D01*
G37*
X123237916Y-57215235D02*
X123304856Y-57260599D01*
X123333146Y-57335907D01*
X123287048Y-57373779D01*
X123191540Y-57358936D01*
X123164834Y-57346258D01*
X123043997Y-57330210D01*
X122933875Y-57392266D01*
X122862752Y-57510256D01*
X122850501Y-57592646D01*
X122888683Y-57748449D01*
X122999680Y-57834288D01*
X123140623Y-57849213D01*
X123283044Y-57843887D01*
X123340611Y-57858261D01*
X123329543Y-57899831D01*
X123308617Y-57926854D01*
X123211874Y-57980041D01*
X123067328Y-58001662D01*
X122925212Y-57987588D01*
X122866411Y-57963215D01*
X122769528Y-57847076D01*
X122725369Y-57678343D01*
X122735457Y-57492415D01*
X122801317Y-57324690D01*
X122836905Y-57277856D01*
X122949230Y-57212415D01*
X123098481Y-57190966D01*
X123237916Y-57215235D01*
G36*
X123946784Y-57229181D02*
G01*
X124060695Y-57332927D01*
X124119875Y-57483372D01*
X124123046Y-57530965D01*
X124112967Y-57599976D01*
X124065558Y-57634410D01*
X123955062Y-57646000D01*
X123868537Y-57646894D01*
X123707280Y-57655437D01*
X123628975Y-57684519D01*
X123614028Y-57721456D01*
X123657231Y-57812337D01*
X123759595Y-57866625D01*
X123880249Y-57866653D01*
X123916350Y-57852154D01*
X124007651Y-57833024D01*
X124060577Y-57866971D01*
X124049883Y-57927120D01*
X124015039Y-57957216D01*
X123863558Y-58000778D01*
X123693358Y-57977784D01*
X123563126Y-57901403D01*
X123485803Y-57761297D01*
X123462297Y-57577495D01*
X123482473Y-57461468D01*
X123623021Y-57461468D01*
X123634933Y-57518948D01*
X123715398Y-57542611D01*
X123788452Y-57545090D01*
X123926266Y-57526807D01*
X123970341Y-57474970D01*
X123934395Y-57386847D01*
X123889721Y-57337942D01*
X123785140Y-57305154D01*
X123684025Y-57351220D01*
X123623536Y-57458932D01*
X123623021Y-57461468D01*
X123482473Y-57461468D01*
X123494254Y-57393721D01*
X123540562Y-57301907D01*
X123660329Y-57203294D01*
X123804533Y-57182511D01*
X123946784Y-57229181D01*
G37*
X123946784Y-57229181D02*
X124060695Y-57332927D01*
X124119875Y-57483372D01*
X124123046Y-57530965D01*
X124112967Y-57599976D01*
X124065558Y-57634410D01*
X123955062Y-57646000D01*
X123868537Y-57646894D01*
X123707280Y-57655437D01*
X123628975Y-57684519D01*
X123614028Y-57721456D01*
X123657231Y-57812337D01*
X123759595Y-57866625D01*
X123880249Y-57866653D01*
X123916350Y-57852154D01*
X124007651Y-57833024D01*
X124060577Y-57866971D01*
X124049883Y-57927120D01*
X124015039Y-57957216D01*
X123863558Y-58000778D01*
X123693358Y-57977784D01*
X123563126Y-57901403D01*
X123485803Y-57761297D01*
X123462297Y-57577495D01*
X123482473Y-57461468D01*
X123623021Y-57461468D01*
X123634933Y-57518948D01*
X123715398Y-57542611D01*
X123788452Y-57545090D01*
X123926266Y-57526807D01*
X123970341Y-57474970D01*
X123934395Y-57386847D01*
X123889721Y-57337942D01*
X123785140Y-57305154D01*
X123684025Y-57351220D01*
X123623536Y-57458932D01*
X123623021Y-57461468D01*
X123482473Y-57461468D01*
X123494254Y-57393721D01*
X123540562Y-57301907D01*
X123660329Y-57203294D01*
X123804533Y-57182511D01*
X123946784Y-57229181D01*
G36*
X120275199Y-50832415D02*
G01*
X120420792Y-50852234D01*
X120480663Y-50886602D01*
X120481874Y-50889680D01*
X120499579Y-50968756D01*
X120527035Y-51117712D01*
X120558603Y-51305796D01*
X120561716Y-51325236D01*
X120620995Y-51697166D01*
X120902202Y-51821529D01*
X121062680Y-51888153D01*
X121190202Y-51933287D01*
X121246143Y-51945892D01*
X121313943Y-51917060D01*
X121438358Y-51840478D01*
X121595742Y-51731021D01*
X121641614Y-51697166D01*
X121974352Y-51448440D01*
X122266756Y-51743927D01*
X122410379Y-51891899D01*
X122493071Y-52001052D01*
X122515997Y-52098190D01*
X122480325Y-52210118D01*
X122387219Y-52363643D01*
X122299386Y-52494099D01*
X122102166Y-52785772D01*
X122242908Y-53099393D01*
X122383650Y-53413013D01*
X122680703Y-53472687D01*
X122914232Y-53518527D01*
X123066566Y-53554725D01*
X123154859Y-53597945D01*
X123196262Y-53664854D01*
X123207926Y-53772115D01*
X123207003Y-53936395D01*
X123206814Y-53983874D01*
X123206814Y-54381961D01*
X122914128Y-54439696D01*
X122679441Y-54488095D01*
X122523041Y-54531747D01*
X122423159Y-54584672D01*
X122358023Y-54660892D01*
X122305863Y-54774426D01*
X122277888Y-54849455D01*
X122216059Y-55007899D01*
X122162356Y-55127161D01*
X122136259Y-55171014D01*
X122143019Y-55231402D01*
X122201615Y-55343061D01*
X122276552Y-55450974D01*
X122419584Y-55643110D01*
X122500515Y-55779982D01*
X122519749Y-55886679D01*
X122477694Y-55988292D01*
X122374756Y-56109909D01*
X122288654Y-56198144D01*
X122152292Y-56330725D01*
X122040927Y-56428947D01*
X121975192Y-56474834D01*
X121969549Y-56476153D01*
X121908694Y-56448772D01*
X121789980Y-56376639D01*
X121637961Y-56274766D01*
X121622481Y-56263948D01*
X121464903Y-56155482D01*
X121362603Y-56097868D01*
X121287595Y-56083385D01*
X121211893Y-56104311D01*
X121148949Y-56133295D01*
X120977935Y-56214846D01*
X120689348Y-55524170D01*
X120400762Y-54833494D01*
X120583206Y-54683108D01*
X120779897Y-54478374D01*
X120886828Y-54252803D01*
X120916233Y-54007915D01*
X120872140Y-53717309D01*
X120750036Y-53468171D01*
X120565179Y-53272905D01*
X120332830Y-53143916D01*
X120068248Y-53093609D01*
X119827154Y-53122575D01*
X119550578Y-53241808D01*
X119341066Y-53423177D01*
X119202437Y-53649254D01*
X119138510Y-53902605D01*
X119153102Y-54165802D01*
X119250034Y-54421412D01*
X119433123Y-54652006D01*
X119482581Y-54695378D01*
X119664512Y-54845341D01*
X119493753Y-55266258D01*
X119398307Y-55498970D01*
X119299938Y-55734664D01*
X119217108Y-55929184D01*
X119203546Y-55960371D01*
X119135094Y-56111802D01*
X119087390Y-56185465D01*
X119040476Y-56196901D01*
X118974396Y-56161655D01*
X118958469Y-56151253D01*
X118861803Y-56095159D01*
X118779759Y-56078583D01*
X118686208Y-56107584D01*
X118555021Y-56188218D01*
X118435297Y-56272545D01*
X118288960Y-56374430D01*
X118176376Y-56447425D01*
X118121452Y-56476047D01*
X118121073Y-56476061D01*
X118071790Y-56444379D01*
X117967423Y-56360313D01*
X117828003Y-56240194D01*
X117786339Y-56203154D01*
X117481495Y-55930339D01*
X117725695Y-55563097D01*
X117969895Y-55195854D01*
X117819039Y-54873481D01*
X117668182Y-54551108D01*
X117370664Y-54491338D01*
X117137012Y-54445472D01*
X116984561Y-54409267D01*
X116896168Y-54366075D01*
X116854688Y-54299252D01*
X116842979Y-54192150D01*
X116843894Y-54028124D01*
X116844088Y-53980055D01*
X116844088Y-53581967D01*
X117136774Y-53524947D01*
X117325960Y-53488117D01*
X117496609Y-53454943D01*
X117574523Y-53439824D01*
X117669593Y-53403157D01*
X117746967Y-53320151D01*
X117827696Y-53166833D01*
X117841757Y-53135472D01*
X117907544Y-52978310D01*
X117951897Y-52856262D01*
X117963928Y-52806167D01*
X117936073Y-52742156D01*
X117862206Y-52619988D01*
X117756880Y-52463338D01*
X117728867Y-52423704D01*
X117493806Y-52094296D01*
X118105486Y-51457294D01*
X118827274Y-51957740D01*
X119044599Y-51871768D01*
X119245635Y-51786854D01*
X119375219Y-51707196D01*
X119454326Y-51606131D01*
X119503934Y-51456998D01*
X119544490Y-51236395D01*
X119611128Y-50826052D01*
X120036220Y-50826052D01*
X120275199Y-50832415D01*
G37*
X120275199Y-50832415D02*
X120420792Y-50852234D01*
X120480663Y-50886602D01*
X120481874Y-50889680D01*
X120499579Y-50968756D01*
X120527035Y-51117712D01*
X120558603Y-51305796D01*
X120561716Y-51325236D01*
X120620995Y-51697166D01*
X120902202Y-51821529D01*
X121062680Y-51888153D01*
X121190202Y-51933287D01*
X121246143Y-51945892D01*
X121313943Y-51917060D01*
X121438358Y-51840478D01*
X121595742Y-51731021D01*
X121641614Y-51697166D01*
X121974352Y-51448440D01*
X122266756Y-51743927D01*
X122410379Y-51891899D01*
X122493071Y-52001052D01*
X122515997Y-52098190D01*
X122480325Y-52210118D01*
X122387219Y-52363643D01*
X122299386Y-52494099D01*
X122102166Y-52785772D01*
X122242908Y-53099393D01*
X122383650Y-53413013D01*
X122680703Y-53472687D01*
X122914232Y-53518527D01*
X123066566Y-53554725D01*
X123154859Y-53597945D01*
X123196262Y-53664854D01*
X123207926Y-53772115D01*
X123207003Y-53936395D01*
X123206814Y-53983874D01*
X123206814Y-54381961D01*
X122914128Y-54439696D01*
X122679441Y-54488095D01*
X122523041Y-54531747D01*
X122423159Y-54584672D01*
X122358023Y-54660892D01*
X122305863Y-54774426D01*
X122277888Y-54849455D01*
X122216059Y-55007899D01*
X122162356Y-55127161D01*
X122136259Y-55171014D01*
X122143019Y-55231402D01*
X122201615Y-55343061D01*
X122276552Y-55450974D01*
X122419584Y-55643110D01*
X122500515Y-55779982D01*
X122519749Y-55886679D01*
X122477694Y-55988292D01*
X122374756Y-56109909D01*
X122288654Y-56198144D01*
X122152292Y-56330725D01*
X122040927Y-56428947D01*
X121975192Y-56474834D01*
X121969549Y-56476153D01*
X121908694Y-56448772D01*
X121789980Y-56376639D01*
X121637961Y-56274766D01*
X121622481Y-56263948D01*
X121464903Y-56155482D01*
X121362603Y-56097868D01*
X121287595Y-56083385D01*
X121211893Y-56104311D01*
X121148949Y-56133295D01*
X120977935Y-56214846D01*
X120689348Y-55524170D01*
X120400762Y-54833494D01*
X120583206Y-54683108D01*
X120779897Y-54478374D01*
X120886828Y-54252803D01*
X120916233Y-54007915D01*
X120872140Y-53717309D01*
X120750036Y-53468171D01*
X120565179Y-53272905D01*
X120332830Y-53143916D01*
X120068248Y-53093609D01*
X119827154Y-53122575D01*
X119550578Y-53241808D01*
X119341066Y-53423177D01*
X119202437Y-53649254D01*
X119138510Y-53902605D01*
X119153102Y-54165802D01*
X119250034Y-54421412D01*
X119433123Y-54652006D01*
X119482581Y-54695378D01*
X119664512Y-54845341D01*
X119493753Y-55266258D01*
X119398307Y-55498970D01*
X119299938Y-55734664D01*
X119217108Y-55929184D01*
X119203546Y-55960371D01*
X119135094Y-56111802D01*
X119087390Y-56185465D01*
X119040476Y-56196901D01*
X118974396Y-56161655D01*
X118958469Y-56151253D01*
X118861803Y-56095159D01*
X118779759Y-56078583D01*
X118686208Y-56107584D01*
X118555021Y-56188218D01*
X118435297Y-56272545D01*
X118288960Y-56374430D01*
X118176376Y-56447425D01*
X118121452Y-56476047D01*
X118121073Y-56476061D01*
X118071790Y-56444379D01*
X117967423Y-56360313D01*
X117828003Y-56240194D01*
X117786339Y-56203154D01*
X117481495Y-55930339D01*
X117725695Y-55563097D01*
X117969895Y-55195854D01*
X117819039Y-54873481D01*
X117668182Y-54551108D01*
X117370664Y-54491338D01*
X117137012Y-54445472D01*
X116984561Y-54409267D01*
X116896168Y-54366075D01*
X116854688Y-54299252D01*
X116842979Y-54192150D01*
X116843894Y-54028124D01*
X116844088Y-53980055D01*
X116844088Y-53581967D01*
X117136774Y-53524947D01*
X117325960Y-53488117D01*
X117496609Y-53454943D01*
X117574523Y-53439824D01*
X117669593Y-53403157D01*
X117746967Y-53320151D01*
X117827696Y-53166833D01*
X117841757Y-53135472D01*
X117907544Y-52978310D01*
X117951897Y-52856262D01*
X117963928Y-52806167D01*
X117936073Y-52742156D01*
X117862206Y-52619988D01*
X117756880Y-52463338D01*
X117728867Y-52423704D01*
X117493806Y-52094296D01*
X118105486Y-51457294D01*
X118827274Y-51957740D01*
X119044599Y-51871768D01*
X119245635Y-51786854D01*
X119375219Y-51707196D01*
X119454326Y-51606131D01*
X119503934Y-51456998D01*
X119544490Y-51236395D01*
X119611128Y-50826052D01*
X120036220Y-50826052D01*
X120275199Y-50832415D01*
%TO.C,JP1*%
D11*
X125800000Y-86271428D02*
X125800000Y-86700000D01*
X125771428Y-86785714D01*
X125714285Y-86842857D01*
X125628571Y-86871428D01*
X125571428Y-86871428D01*
X126085714Y-86871428D02*
X126085714Y-86271428D01*
X126314285Y-86271428D01*
X126371428Y-86300000D01*
X126400000Y-86328571D01*
X126428571Y-86385714D01*
X126428571Y-86471428D01*
X126400000Y-86528571D01*
X126371428Y-86557142D01*
X126314285Y-86585714D01*
X126085714Y-86585714D01*
X127000000Y-86871428D02*
X126657142Y-86871428D01*
X126828571Y-86871428D02*
X126828571Y-86271428D01*
X126771428Y-86357142D01*
X126714285Y-86414285D01*
X126657142Y-86442857D01*
%TO.C,JP2*%
X105300000Y-95671428D02*
X105300000Y-96100000D01*
X105271428Y-96185714D01*
X105214285Y-96242857D01*
X105128571Y-96271428D01*
X105071428Y-96271428D01*
X105585714Y-96271428D02*
X105585714Y-95671428D01*
X105814285Y-95671428D01*
X105871428Y-95700000D01*
X105900000Y-95728571D01*
X105928571Y-95785714D01*
X105928571Y-95871428D01*
X105900000Y-95928571D01*
X105871428Y-95957142D01*
X105814285Y-95985714D01*
X105585714Y-95985714D01*
X106157142Y-95728571D02*
X106185714Y-95700000D01*
X106242857Y-95671428D01*
X106385714Y-95671428D01*
X106442857Y-95700000D01*
X106471428Y-95728571D01*
X106500000Y-95785714D01*
X106500000Y-95842857D01*
X106471428Y-95928571D01*
X106128571Y-96271428D01*
X106500000Y-96271428D01*
%TO.C,JP4*%
X103671428Y-87100000D02*
X104100000Y-87100000D01*
X104185714Y-87128571D01*
X104242857Y-87185714D01*
X104271428Y-87271428D01*
X104271428Y-87328571D01*
X104271428Y-86814285D02*
X103671428Y-86814285D01*
X103671428Y-86585714D01*
X103700000Y-86528571D01*
X103728571Y-86500000D01*
X103785714Y-86471428D01*
X103871428Y-86471428D01*
X103928571Y-86500000D01*
X103957142Y-86528571D01*
X103985714Y-86585714D01*
X103985714Y-86814285D01*
X103871428Y-85957142D02*
X104271428Y-85957142D01*
X103642857Y-86100000D02*
X104071428Y-86242857D01*
X104071428Y-85871428D01*
%TO.C,JP5*%
X103671428Y-77000000D02*
X104100000Y-77000000D01*
X104185714Y-77028571D01*
X104242857Y-77085714D01*
X104271428Y-77171428D01*
X104271428Y-77228571D01*
X104271428Y-76714285D02*
X103671428Y-76714285D01*
X103671428Y-76485714D01*
X103700000Y-76428571D01*
X103728571Y-76400000D01*
X103785714Y-76371428D01*
X103871428Y-76371428D01*
X103928571Y-76400000D01*
X103957142Y-76428571D01*
X103985714Y-76485714D01*
X103985714Y-76714285D01*
X103671428Y-75828571D02*
X103671428Y-76114285D01*
X103957142Y-76142857D01*
X103928571Y-76114285D01*
X103900000Y-76057142D01*
X103900000Y-75914285D01*
X103928571Y-75857142D01*
X103957142Y-75828571D01*
X104014285Y-75800000D01*
X104157142Y-75800000D01*
X104214285Y-75828571D01*
X104242857Y-75857142D01*
X104271428Y-75914285D01*
X104271428Y-76057142D01*
X104242857Y-76114285D01*
X104214285Y-76142857D01*
%TO.C,JP6*%
X138600000Y-95571428D02*
X138600000Y-96000000D01*
X138571428Y-96085714D01*
X138514285Y-96142857D01*
X138428571Y-96171428D01*
X138371428Y-96171428D01*
X138885714Y-96171428D02*
X138885714Y-95571428D01*
X139114285Y-95571428D01*
X139171428Y-95600000D01*
X139200000Y-95628571D01*
X139228571Y-95685714D01*
X139228571Y-95771428D01*
X139200000Y-95828571D01*
X139171428Y-95857142D01*
X139114285Y-95885714D01*
X138885714Y-95885714D01*
X139742857Y-95571428D02*
X139628571Y-95571428D01*
X139571428Y-95600000D01*
X139542857Y-95628571D01*
X139485714Y-95714285D01*
X139457142Y-95828571D01*
X139457142Y-96057142D01*
X139485714Y-96114285D01*
X139514285Y-96142857D01*
X139571428Y-96171428D01*
X139685714Y-96171428D01*
X139742857Y-96142857D01*
X139771428Y-96114285D01*
X139800000Y-96057142D01*
X139800000Y-95914285D01*
X139771428Y-95857142D01*
X139742857Y-95828571D01*
X139685714Y-95800000D01*
X139571428Y-95800000D01*
X139514285Y-95828571D01*
X139485714Y-95857142D01*
X139457142Y-95914285D01*
%TO.C,JP8*%
X146571428Y-95400000D02*
X147000000Y-95400000D01*
X147085714Y-95428571D01*
X147142857Y-95485714D01*
X147171428Y-95571428D01*
X147171428Y-95628571D01*
X147171428Y-95114285D02*
X146571428Y-95114285D01*
X146571428Y-94885714D01*
X146600000Y-94828571D01*
X146628571Y-94800000D01*
X146685714Y-94771428D01*
X146771428Y-94771428D01*
X146828571Y-94800000D01*
X146857142Y-94828571D01*
X146885714Y-94885714D01*
X146885714Y-95114285D01*
X146828571Y-94428571D02*
X146800000Y-94485714D01*
X146771428Y-94514285D01*
X146714285Y-94542857D01*
X146685714Y-94542857D01*
X146628571Y-94514285D01*
X146600000Y-94485714D01*
X146571428Y-94428571D01*
X146571428Y-94314285D01*
X146600000Y-94257142D01*
X146628571Y-94228571D01*
X146685714Y-94200000D01*
X146714285Y-94200000D01*
X146771428Y-94228571D01*
X146800000Y-94257142D01*
X146828571Y-94314285D01*
X146828571Y-94428571D01*
X146857142Y-94485714D01*
X146885714Y-94514285D01*
X146942857Y-94542857D01*
X147057142Y-94542857D01*
X147114285Y-94514285D01*
X147142857Y-94485714D01*
X147171428Y-94428571D01*
X147171428Y-94314285D01*
X147142857Y-94257142D01*
X147114285Y-94228571D01*
X147057142Y-94200000D01*
X146942857Y-94200000D01*
X146885714Y-94228571D01*
X146857142Y-94257142D01*
X146828571Y-94314285D01*
%TO.C,JP9*%
X145671428Y-84500000D02*
X146100000Y-84500000D01*
X146185714Y-84528571D01*
X146242857Y-84585714D01*
X146271428Y-84671428D01*
X146271428Y-84728571D01*
X146271428Y-84214285D02*
X145671428Y-84214285D01*
X145671428Y-83985714D01*
X145700000Y-83928571D01*
X145728571Y-83900000D01*
X145785714Y-83871428D01*
X145871428Y-83871428D01*
X145928571Y-83900000D01*
X145957142Y-83928571D01*
X145985714Y-83985714D01*
X145985714Y-84214285D01*
X146271428Y-83585714D02*
X146271428Y-83471428D01*
X146242857Y-83414285D01*
X146214285Y-83385714D01*
X146128571Y-83328571D01*
X146014285Y-83300000D01*
X145785714Y-83300000D01*
X145728571Y-83328571D01*
X145700000Y-83357142D01*
X145671428Y-83414285D01*
X145671428Y-83528571D01*
X145700000Y-83585714D01*
X145728571Y-83614285D01*
X145785714Y-83642857D01*
X145928571Y-83642857D01*
X145985714Y-83614285D01*
X146014285Y-83585714D01*
X146042857Y-83528571D01*
X146042857Y-83414285D01*
X146014285Y-83357142D01*
X145985714Y-83328571D01*
X145928571Y-83300000D01*
%TO.C,C35*%
X112014285Y-92185714D02*
X112042857Y-92214285D01*
X112071428Y-92300000D01*
X112071428Y-92357142D01*
X112042857Y-92442857D01*
X111985714Y-92500000D01*
X111928571Y-92528571D01*
X111814285Y-92557142D01*
X111728571Y-92557142D01*
X111614285Y-92528571D01*
X111557142Y-92500000D01*
X111500000Y-92442857D01*
X111471428Y-92357142D01*
X111471428Y-92300000D01*
X111500000Y-92214285D01*
X111528571Y-92185714D01*
X111471428Y-91985714D02*
X111471428Y-91614285D01*
X111700000Y-91814285D01*
X111700000Y-91728571D01*
X111728571Y-91671428D01*
X111757142Y-91642857D01*
X111814285Y-91614285D01*
X111957142Y-91614285D01*
X112014285Y-91642857D01*
X112042857Y-91671428D01*
X112071428Y-91728571D01*
X112071428Y-91900000D01*
X112042857Y-91957142D01*
X112014285Y-91985714D01*
X111471428Y-91071428D02*
X111471428Y-91357142D01*
X111757142Y-91385714D01*
X111728571Y-91357142D01*
X111700000Y-91300000D01*
X111700000Y-91157142D01*
X111728571Y-91100000D01*
X111757142Y-91071428D01*
X111814285Y-91042857D01*
X111957142Y-91042857D01*
X112014285Y-91071428D01*
X112042857Y-91100000D01*
X112071428Y-91157142D01*
X112071428Y-91300000D01*
X112042857Y-91357142D01*
X112014285Y-91385714D01*
%TO.C,U3*%
X121042857Y-69171428D02*
X121042857Y-69657142D01*
X121071428Y-69714285D01*
X121100000Y-69742857D01*
X121157142Y-69771428D01*
X121271428Y-69771428D01*
X121328571Y-69742857D01*
X121357142Y-69714285D01*
X121385714Y-69657142D01*
X121385714Y-69171428D01*
X121614285Y-69171428D02*
X121985714Y-69171428D01*
X121785714Y-69400000D01*
X121871428Y-69400000D01*
X121928571Y-69428571D01*
X121957142Y-69457142D01*
X121985714Y-69514285D01*
X121985714Y-69657142D01*
X121957142Y-69714285D01*
X121928571Y-69742857D01*
X121871428Y-69771428D01*
X121700000Y-69771428D01*
X121642857Y-69742857D01*
X121614285Y-69714285D01*
%TO.C,U16*%
X139557142Y-74098928D02*
X139557142Y-74584642D01*
X139585714Y-74641785D01*
X139614285Y-74670357D01*
X139671428Y-74698928D01*
X139785714Y-74698928D01*
X139842857Y-74670357D01*
X139871428Y-74641785D01*
X139900000Y-74584642D01*
X139900000Y-74098928D01*
X140500000Y-74698928D02*
X140157142Y-74698928D01*
X140328571Y-74698928D02*
X140328571Y-74098928D01*
X140271428Y-74184642D01*
X140214285Y-74241785D01*
X140157142Y-74270357D01*
X141014285Y-74098928D02*
X140900000Y-74098928D01*
X140842857Y-74127500D01*
X140814285Y-74156071D01*
X140757142Y-74241785D01*
X140728571Y-74356071D01*
X140728571Y-74584642D01*
X140757142Y-74641785D01*
X140785714Y-74670357D01*
X140842857Y-74698928D01*
X140957142Y-74698928D01*
X141014285Y-74670357D01*
X141042857Y-74641785D01*
X141071428Y-74584642D01*
X141071428Y-74441785D01*
X141042857Y-74384642D01*
X141014285Y-74356071D01*
X140957142Y-74327500D01*
X140842857Y-74327500D01*
X140785714Y-74356071D01*
X140757142Y-74384642D01*
X140728571Y-74441785D01*
%TO.C,J2*%
X136800000Y-70871428D02*
X136800000Y-71300000D01*
X136771428Y-71385714D01*
X136714285Y-71442857D01*
X136628571Y-71471428D01*
X136571428Y-71471428D01*
X137057142Y-70928571D02*
X137085714Y-70900000D01*
X137142857Y-70871428D01*
X137285714Y-70871428D01*
X137342857Y-70900000D01*
X137371428Y-70928571D01*
X137400000Y-70985714D01*
X137400000Y-71042857D01*
X137371428Y-71128571D01*
X137028571Y-71471428D01*
X137400000Y-71471428D01*
%TO.C,R27*%
X122871428Y-65185714D02*
X122585714Y-65385714D01*
X122871428Y-65528571D02*
X122271428Y-65528571D01*
X122271428Y-65300000D01*
X122300000Y-65242857D01*
X122328571Y-65214285D01*
X122385714Y-65185714D01*
X122471428Y-65185714D01*
X122528571Y-65214285D01*
X122557142Y-65242857D01*
X122585714Y-65300000D01*
X122585714Y-65528571D01*
X122328571Y-64957142D02*
X122300000Y-64928571D01*
X122271428Y-64871428D01*
X122271428Y-64728571D01*
X122300000Y-64671428D01*
X122328571Y-64642857D01*
X122385714Y-64614285D01*
X122442857Y-64614285D01*
X122528571Y-64642857D01*
X122871428Y-64985714D01*
X122871428Y-64614285D01*
X122271428Y-64414285D02*
X122271428Y-64014285D01*
X122871428Y-64271428D01*
%TO.C,U17*%
X105757142Y-92271428D02*
X105757142Y-92757142D01*
X105785714Y-92814285D01*
X105814285Y-92842857D01*
X105871428Y-92871428D01*
X105985714Y-92871428D01*
X106042857Y-92842857D01*
X106071428Y-92814285D01*
X106100000Y-92757142D01*
X106100000Y-92271428D01*
X106700000Y-92871428D02*
X106357142Y-92871428D01*
X106528571Y-92871428D02*
X106528571Y-92271428D01*
X106471428Y-92357142D01*
X106414285Y-92414285D01*
X106357142Y-92442857D01*
X106900000Y-92271428D02*
X107300000Y-92271428D01*
X107042857Y-92871428D01*
%TO.C,U18*%
X113257142Y-83071428D02*
X113257142Y-83557142D01*
X113285714Y-83614285D01*
X113314285Y-83642857D01*
X113371428Y-83671428D01*
X113485714Y-83671428D01*
X113542857Y-83642857D01*
X113571428Y-83614285D01*
X113600000Y-83557142D01*
X113600000Y-83071428D01*
X114200000Y-83671428D02*
X113857142Y-83671428D01*
X114028571Y-83671428D02*
X114028571Y-83071428D01*
X113971428Y-83157142D01*
X113914285Y-83214285D01*
X113857142Y-83242857D01*
X114542857Y-83328571D02*
X114485714Y-83300000D01*
X114457142Y-83271428D01*
X114428571Y-83214285D01*
X114428571Y-83185714D01*
X114457142Y-83128571D01*
X114485714Y-83100000D01*
X114542857Y-83071428D01*
X114657142Y-83071428D01*
X114714285Y-83100000D01*
X114742857Y-83128571D01*
X114771428Y-83185714D01*
X114771428Y-83214285D01*
X114742857Y-83271428D01*
X114714285Y-83300000D01*
X114657142Y-83328571D01*
X114542857Y-83328571D01*
X114485714Y-83357142D01*
X114457142Y-83385714D01*
X114428571Y-83442857D01*
X114428571Y-83557142D01*
X114457142Y-83614285D01*
X114485714Y-83642857D01*
X114542857Y-83671428D01*
X114657142Y-83671428D01*
X114714285Y-83642857D01*
X114742857Y-83614285D01*
X114771428Y-83557142D01*
X114771428Y-83442857D01*
X114742857Y-83385714D01*
X114714285Y-83357142D01*
X114657142Y-83328571D01*
%TO.C,U19*%
X142157142Y-89171428D02*
X142157142Y-89657142D01*
X142185714Y-89714285D01*
X142214285Y-89742857D01*
X142271428Y-89771428D01*
X142385714Y-89771428D01*
X142442857Y-89742857D01*
X142471428Y-89714285D01*
X142500000Y-89657142D01*
X142500000Y-89171428D01*
X143100000Y-89771428D02*
X142757142Y-89771428D01*
X142928571Y-89771428D02*
X142928571Y-89171428D01*
X142871428Y-89257142D01*
X142814285Y-89314285D01*
X142757142Y-89342857D01*
X143385714Y-89771428D02*
X143500000Y-89771428D01*
X143557142Y-89742857D01*
X143585714Y-89714285D01*
X143642857Y-89628571D01*
X143671428Y-89514285D01*
X143671428Y-89285714D01*
X143642857Y-89228571D01*
X143614285Y-89200000D01*
X143557142Y-89171428D01*
X143442857Y-89171428D01*
X143385714Y-89200000D01*
X143357142Y-89228571D01*
X143328571Y-89285714D01*
X143328571Y-89428571D01*
X143357142Y-89485714D01*
X143385714Y-89514285D01*
X143442857Y-89542857D01*
X143557142Y-89542857D01*
X143614285Y-89514285D01*
X143642857Y-89485714D01*
X143671428Y-89428571D01*
%TO.C,U20*%
X135407142Y-75571428D02*
X135407142Y-76057142D01*
X135435714Y-76114285D01*
X135464285Y-76142857D01*
X135521428Y-76171428D01*
X135635714Y-76171428D01*
X135692857Y-76142857D01*
X135721428Y-76114285D01*
X135750000Y-76057142D01*
X135750000Y-75571428D01*
X136007142Y-75628571D02*
X136035714Y-75600000D01*
X136092857Y-75571428D01*
X136235714Y-75571428D01*
X136292857Y-75600000D01*
X136321428Y-75628571D01*
X136350000Y-75685714D01*
X136350000Y-75742857D01*
X136321428Y-75828571D01*
X135978571Y-76171428D01*
X136350000Y-76171428D01*
X136721428Y-75571428D02*
X136778571Y-75571428D01*
X136835714Y-75600000D01*
X136864285Y-75628571D01*
X136892857Y-75685714D01*
X136921428Y-75800000D01*
X136921428Y-75942857D01*
X136892857Y-76057142D01*
X136864285Y-76114285D01*
X136835714Y-76142857D01*
X136778571Y-76171428D01*
X136721428Y-76171428D01*
X136664285Y-76142857D01*
X136635714Y-76114285D01*
X136607142Y-76057142D01*
X136578571Y-75942857D01*
X136578571Y-75800000D01*
X136607142Y-75685714D01*
X136635714Y-75628571D01*
X136664285Y-75600000D01*
X136721428Y-75571428D01*
%TO.C,C5*%
X124000000Y-74614285D02*
X123971428Y-74642857D01*
X123885714Y-74671428D01*
X123828571Y-74671428D01*
X123742857Y-74642857D01*
X123685714Y-74585714D01*
X123657142Y-74528571D01*
X123628571Y-74414285D01*
X123628571Y-74328571D01*
X123657142Y-74214285D01*
X123685714Y-74157142D01*
X123742857Y-74100000D01*
X123828571Y-74071428D01*
X123885714Y-74071428D01*
X123971428Y-74100000D01*
X124000000Y-74128571D01*
X124542857Y-74071428D02*
X124257142Y-74071428D01*
X124228571Y-74357142D01*
X124257142Y-74328571D01*
X124314285Y-74300000D01*
X124457142Y-74300000D01*
X124514285Y-74328571D01*
X124542857Y-74357142D01*
X124571428Y-74414285D01*
X124571428Y-74557142D01*
X124542857Y-74614285D01*
X124514285Y-74642857D01*
X124457142Y-74671428D01*
X124314285Y-74671428D01*
X124257142Y-74642857D01*
X124228571Y-74614285D01*
%TO.C,C6*%
X124600000Y-65514285D02*
X124571428Y-65542857D01*
X124485714Y-65571428D01*
X124428571Y-65571428D01*
X124342857Y-65542857D01*
X124285714Y-65485714D01*
X124257142Y-65428571D01*
X124228571Y-65314285D01*
X124228571Y-65228571D01*
X124257142Y-65114285D01*
X124285714Y-65057142D01*
X124342857Y-65000000D01*
X124428571Y-64971428D01*
X124485714Y-64971428D01*
X124571428Y-65000000D01*
X124600000Y-65028571D01*
X125114285Y-64971428D02*
X125000000Y-64971428D01*
X124942857Y-65000000D01*
X124914285Y-65028571D01*
X124857142Y-65114285D01*
X124828571Y-65228571D01*
X124828571Y-65457142D01*
X124857142Y-65514285D01*
X124885714Y-65542857D01*
X124942857Y-65571428D01*
X125057142Y-65571428D01*
X125114285Y-65542857D01*
X125142857Y-65514285D01*
X125171428Y-65457142D01*
X125171428Y-65314285D01*
X125142857Y-65257142D01*
X125114285Y-65228571D01*
X125057142Y-65200000D01*
X124942857Y-65200000D01*
X124885714Y-65228571D01*
X124857142Y-65257142D01*
X124828571Y-65314285D01*
%TO.C,C40*%
X106144285Y-89214285D02*
X106115714Y-89242857D01*
X106030000Y-89271428D01*
X105972857Y-89271428D01*
X105887142Y-89242857D01*
X105830000Y-89185714D01*
X105801428Y-89128571D01*
X105772857Y-89014285D01*
X105772857Y-88928571D01*
X105801428Y-88814285D01*
X105830000Y-88757142D01*
X105887142Y-88700000D01*
X105972857Y-88671428D01*
X106030000Y-88671428D01*
X106115714Y-88700000D01*
X106144285Y-88728571D01*
X106658571Y-88871428D02*
X106658571Y-89271428D01*
X106515714Y-88642857D02*
X106372857Y-89071428D01*
X106744285Y-89071428D01*
X107087142Y-88671428D02*
X107144285Y-88671428D01*
X107201428Y-88700000D01*
X107230000Y-88728571D01*
X107258571Y-88785714D01*
X107287142Y-88900000D01*
X107287142Y-89042857D01*
X107258571Y-89157142D01*
X107230000Y-89214285D01*
X107201428Y-89242857D01*
X107144285Y-89271428D01*
X107087142Y-89271428D01*
X107030000Y-89242857D01*
X107001428Y-89214285D01*
X106972857Y-89157142D01*
X106944285Y-89042857D01*
X106944285Y-88900000D01*
X106972857Y-88785714D01*
X107001428Y-88728571D01*
X107030000Y-88700000D01*
X107087142Y-88671428D01*
%TO.C,C41*%
X107214285Y-77614285D02*
X107185714Y-77642857D01*
X107100000Y-77671428D01*
X107042857Y-77671428D01*
X106957142Y-77642857D01*
X106900000Y-77585714D01*
X106871428Y-77528571D01*
X106842857Y-77414285D01*
X106842857Y-77328571D01*
X106871428Y-77214285D01*
X106900000Y-77157142D01*
X106957142Y-77100000D01*
X107042857Y-77071428D01*
X107100000Y-77071428D01*
X107185714Y-77100000D01*
X107214285Y-77128571D01*
X107728571Y-77271428D02*
X107728571Y-77671428D01*
X107585714Y-77042857D02*
X107442857Y-77471428D01*
X107814285Y-77471428D01*
X108357142Y-77671428D02*
X108014285Y-77671428D01*
X108185714Y-77671428D02*
X108185714Y-77071428D01*
X108128571Y-77157142D01*
X108071428Y-77214285D01*
X108014285Y-77242857D01*
%TO.C,C42*%
X112114285Y-77614285D02*
X112085714Y-77642857D01*
X112000000Y-77671428D01*
X111942857Y-77671428D01*
X111857142Y-77642857D01*
X111800000Y-77585714D01*
X111771428Y-77528571D01*
X111742857Y-77414285D01*
X111742857Y-77328571D01*
X111771428Y-77214285D01*
X111800000Y-77157142D01*
X111857142Y-77100000D01*
X111942857Y-77071428D01*
X112000000Y-77071428D01*
X112085714Y-77100000D01*
X112114285Y-77128571D01*
X112628571Y-77271428D02*
X112628571Y-77671428D01*
X112485714Y-77042857D02*
X112342857Y-77471428D01*
X112714285Y-77471428D01*
X112914285Y-77128571D02*
X112942857Y-77100000D01*
X113000000Y-77071428D01*
X113142857Y-77071428D01*
X113200000Y-77100000D01*
X113228571Y-77128571D01*
X113257142Y-77185714D01*
X113257142Y-77242857D01*
X113228571Y-77328571D01*
X112885714Y-77671428D01*
X113257142Y-77671428D01*
%TO.C,C43*%
X146314285Y-94585714D02*
X146342857Y-94614285D01*
X146371428Y-94700000D01*
X146371428Y-94757142D01*
X146342857Y-94842857D01*
X146285714Y-94900000D01*
X146228571Y-94928571D01*
X146114285Y-94957142D01*
X146028571Y-94957142D01*
X145914285Y-94928571D01*
X145857142Y-94900000D01*
X145800000Y-94842857D01*
X145771428Y-94757142D01*
X145771428Y-94700000D01*
X145800000Y-94614285D01*
X145828571Y-94585714D01*
X145971428Y-94071428D02*
X146371428Y-94071428D01*
X145742857Y-94214285D02*
X146171428Y-94357142D01*
X146171428Y-93985714D01*
X145771428Y-93814285D02*
X145771428Y-93442857D01*
X146000000Y-93642857D01*
X146000000Y-93557142D01*
X146028571Y-93500000D01*
X146057142Y-93471428D01*
X146114285Y-93442857D01*
X146257142Y-93442857D01*
X146314285Y-93471428D01*
X146342857Y-93500000D01*
X146371428Y-93557142D01*
X146371428Y-93728571D01*
X146342857Y-93785714D01*
X146314285Y-93814285D01*
%TO.C,C48*%
X141914285Y-86985714D02*
X141942857Y-87014285D01*
X141971428Y-87100000D01*
X141971428Y-87157142D01*
X141942857Y-87242857D01*
X141885714Y-87300000D01*
X141828571Y-87328571D01*
X141714285Y-87357142D01*
X141628571Y-87357142D01*
X141514285Y-87328571D01*
X141457142Y-87300000D01*
X141400000Y-87242857D01*
X141371428Y-87157142D01*
X141371428Y-87100000D01*
X141400000Y-87014285D01*
X141428571Y-86985714D01*
X141571428Y-86471428D02*
X141971428Y-86471428D01*
X141342857Y-86614285D02*
X141771428Y-86757142D01*
X141771428Y-86385714D01*
X141628571Y-86071428D02*
X141600000Y-86128571D01*
X141571428Y-86157142D01*
X141514285Y-86185714D01*
X141485714Y-86185714D01*
X141428571Y-86157142D01*
X141400000Y-86128571D01*
X141371428Y-86071428D01*
X141371428Y-85957142D01*
X141400000Y-85900000D01*
X141428571Y-85871428D01*
X141485714Y-85842857D01*
X141514285Y-85842857D01*
X141571428Y-85871428D01*
X141600000Y-85900000D01*
X141628571Y-85957142D01*
X141628571Y-86071428D01*
X141657142Y-86128571D01*
X141685714Y-86157142D01*
X141742857Y-86185714D01*
X141857142Y-86185714D01*
X141914285Y-86157142D01*
X141942857Y-86128571D01*
X141971428Y-86071428D01*
X141971428Y-85957142D01*
X141942857Y-85900000D01*
X141914285Y-85871428D01*
X141857142Y-85842857D01*
X141742857Y-85842857D01*
X141685714Y-85871428D01*
X141657142Y-85900000D01*
X141628571Y-85957142D01*
%TO.C,C49*%
X142314285Y-82114285D02*
X142285714Y-82142857D01*
X142200000Y-82171428D01*
X142142857Y-82171428D01*
X142057142Y-82142857D01*
X142000000Y-82085714D01*
X141971428Y-82028571D01*
X141942857Y-81914285D01*
X141942857Y-81828571D01*
X141971428Y-81714285D01*
X142000000Y-81657142D01*
X142057142Y-81600000D01*
X142142857Y-81571428D01*
X142200000Y-81571428D01*
X142285714Y-81600000D01*
X142314285Y-81628571D01*
X142828571Y-81771428D02*
X142828571Y-82171428D01*
X142685714Y-81542857D02*
X142542857Y-81971428D01*
X142914285Y-81971428D01*
X143171428Y-82171428D02*
X143285714Y-82171428D01*
X143342857Y-82142857D01*
X143371428Y-82114285D01*
X143428571Y-82028571D01*
X143457142Y-81914285D01*
X143457142Y-81685714D01*
X143428571Y-81628571D01*
X143400000Y-81600000D01*
X143342857Y-81571428D01*
X143228571Y-81571428D01*
X143171428Y-81600000D01*
X143142857Y-81628571D01*
X143114285Y-81685714D01*
X143114285Y-81828571D01*
X143142857Y-81885714D01*
X143171428Y-81914285D01*
X143228571Y-81942857D01*
X143342857Y-81942857D01*
X143400000Y-81914285D01*
X143428571Y-81885714D01*
X143457142Y-81828571D01*
%TO.C,C50*%
X137414285Y-82114285D02*
X137385714Y-82142857D01*
X137300000Y-82171428D01*
X137242857Y-82171428D01*
X137157142Y-82142857D01*
X137100000Y-82085714D01*
X137071428Y-82028571D01*
X137042857Y-81914285D01*
X137042857Y-81828571D01*
X137071428Y-81714285D01*
X137100000Y-81657142D01*
X137157142Y-81600000D01*
X137242857Y-81571428D01*
X137300000Y-81571428D01*
X137385714Y-81600000D01*
X137414285Y-81628571D01*
X137957142Y-81571428D02*
X137671428Y-81571428D01*
X137642857Y-81857142D01*
X137671428Y-81828571D01*
X137728571Y-81800000D01*
X137871428Y-81800000D01*
X137928571Y-81828571D01*
X137957142Y-81857142D01*
X137985714Y-81914285D01*
X137985714Y-82057142D01*
X137957142Y-82114285D01*
X137928571Y-82142857D01*
X137871428Y-82171428D01*
X137728571Y-82171428D01*
X137671428Y-82142857D01*
X137642857Y-82114285D01*
X138357142Y-81571428D02*
X138414285Y-81571428D01*
X138471428Y-81600000D01*
X138500000Y-81628571D01*
X138528571Y-81685714D01*
X138557142Y-81800000D01*
X138557142Y-81942857D01*
X138528571Y-82057142D01*
X138500000Y-82114285D01*
X138471428Y-82142857D01*
X138414285Y-82171428D01*
X138357142Y-82171428D01*
X138300000Y-82142857D01*
X138271428Y-82114285D01*
X138242857Y-82057142D01*
X138214285Y-81942857D01*
X138214285Y-81800000D01*
X138242857Y-81685714D01*
X138271428Y-81628571D01*
X138300000Y-81600000D01*
X138357142Y-81571428D01*
%TO.C,D6*%
X104017142Y-93871428D02*
X104017142Y-93271428D01*
X104160000Y-93271428D01*
X104245714Y-93300000D01*
X104302857Y-93357142D01*
X104331428Y-93414285D01*
X104360000Y-93528571D01*
X104360000Y-93614285D01*
X104331428Y-93728571D01*
X104302857Y-93785714D01*
X104245714Y-93842857D01*
X104160000Y-93871428D01*
X104017142Y-93871428D01*
X104874285Y-93271428D02*
X104760000Y-93271428D01*
X104702857Y-93300000D01*
X104674285Y-93328571D01*
X104617142Y-93414285D01*
X104588571Y-93528571D01*
X104588571Y-93757142D01*
X104617142Y-93814285D01*
X104645714Y-93842857D01*
X104702857Y-93871428D01*
X104817142Y-93871428D01*
X104874285Y-93842857D01*
X104902857Y-93814285D01*
X104931428Y-93757142D01*
X104931428Y-93614285D01*
X104902857Y-93557142D01*
X104874285Y-93528571D01*
X104817142Y-93500000D01*
X104702857Y-93500000D01*
X104645714Y-93528571D01*
X104617142Y-93557142D01*
X104588571Y-93614285D01*
%TO.C,D11*%
X144761428Y-87471428D02*
X144761428Y-86871428D01*
X144904285Y-86871428D01*
X144990000Y-86900000D01*
X145047142Y-86957142D01*
X145075714Y-87014285D01*
X145104285Y-87128571D01*
X145104285Y-87214285D01*
X145075714Y-87328571D01*
X145047142Y-87385714D01*
X144990000Y-87442857D01*
X144904285Y-87471428D01*
X144761428Y-87471428D01*
X145675714Y-87471428D02*
X145332857Y-87471428D01*
X145504285Y-87471428D02*
X145504285Y-86871428D01*
X145447142Y-86957142D01*
X145390000Y-87014285D01*
X145332857Y-87042857D01*
X146247142Y-87471428D02*
X145904285Y-87471428D01*
X146075714Y-87471428D02*
X146075714Y-86871428D01*
X146018571Y-86957142D01*
X145961428Y-87014285D01*
X145904285Y-87042857D01*
%TO.C,FB1*%
X124637500Y-61457142D02*
X124437500Y-61457142D01*
X124437500Y-61771428D02*
X124437500Y-61171428D01*
X124723214Y-61171428D01*
X125151785Y-61457142D02*
X125237500Y-61485714D01*
X125266071Y-61514285D01*
X125294642Y-61571428D01*
X125294642Y-61657142D01*
X125266071Y-61714285D01*
X125237500Y-61742857D01*
X125180357Y-61771428D01*
X124951785Y-61771428D01*
X124951785Y-61171428D01*
X125151785Y-61171428D01*
X125208928Y-61200000D01*
X125237500Y-61228571D01*
X125266071Y-61285714D01*
X125266071Y-61342857D01*
X125237500Y-61400000D01*
X125208928Y-61428571D01*
X125151785Y-61457142D01*
X124951785Y-61457142D01*
X125866071Y-61771428D02*
X125523214Y-61771428D01*
X125694642Y-61771428D02*
X125694642Y-61171428D01*
X125637500Y-61257142D01*
X125580357Y-61314285D01*
X125523214Y-61342857D01*
%TO.C,J3*%
X112800000Y-70871428D02*
X112800000Y-71300000D01*
X112771428Y-71385714D01*
X112714285Y-71442857D01*
X112628571Y-71471428D01*
X112571428Y-71471428D01*
X113028571Y-70871428D02*
X113400000Y-70871428D01*
X113200000Y-71100000D01*
X113285714Y-71100000D01*
X113342857Y-71128571D01*
X113371428Y-71157142D01*
X113400000Y-71214285D01*
X113400000Y-71357142D01*
X113371428Y-71414285D01*
X113342857Y-71442857D01*
X113285714Y-71471428D01*
X113114285Y-71471428D01*
X113057142Y-71442857D01*
X113028571Y-71414285D01*
%TO.C,R14*%
X129271428Y-65185714D02*
X128985714Y-65385714D01*
X129271428Y-65528571D02*
X128671428Y-65528571D01*
X128671428Y-65300000D01*
X128700000Y-65242857D01*
X128728571Y-65214285D01*
X128785714Y-65185714D01*
X128871428Y-65185714D01*
X128928571Y-65214285D01*
X128957142Y-65242857D01*
X128985714Y-65300000D01*
X128985714Y-65528571D01*
X129271428Y-64614285D02*
X129271428Y-64957142D01*
X129271428Y-64785714D02*
X128671428Y-64785714D01*
X128757142Y-64842857D01*
X128814285Y-64900000D01*
X128842857Y-64957142D01*
X128871428Y-64100000D02*
X129271428Y-64100000D01*
X128642857Y-64242857D02*
X129071428Y-64385714D01*
X129071428Y-64014285D01*
%TO.C,R15*%
X128371428Y-65185714D02*
X128085714Y-65385714D01*
X128371428Y-65528571D02*
X127771428Y-65528571D01*
X127771428Y-65300000D01*
X127800000Y-65242857D01*
X127828571Y-65214285D01*
X127885714Y-65185714D01*
X127971428Y-65185714D01*
X128028571Y-65214285D01*
X128057142Y-65242857D01*
X128085714Y-65300000D01*
X128085714Y-65528571D01*
X128371428Y-64614285D02*
X128371428Y-64957142D01*
X128371428Y-64785714D02*
X127771428Y-64785714D01*
X127857142Y-64842857D01*
X127914285Y-64900000D01*
X127942857Y-64957142D01*
X127771428Y-64071428D02*
X127771428Y-64357142D01*
X128057142Y-64385714D01*
X128028571Y-64357142D01*
X128000000Y-64300000D01*
X128000000Y-64157142D01*
X128028571Y-64100000D01*
X128057142Y-64071428D01*
X128114285Y-64042857D01*
X128257142Y-64042857D01*
X128314285Y-64071428D01*
X128342857Y-64100000D01*
X128371428Y-64157142D01*
X128371428Y-64300000D01*
X128342857Y-64357142D01*
X128314285Y-64385714D01*
%TO.C,R37*%
X129471428Y-70885714D02*
X129185714Y-71085714D01*
X129471428Y-71228571D02*
X128871428Y-71228571D01*
X128871428Y-71000000D01*
X128900000Y-70942857D01*
X128928571Y-70914285D01*
X128985714Y-70885714D01*
X129071428Y-70885714D01*
X129128571Y-70914285D01*
X129157142Y-70942857D01*
X129185714Y-71000000D01*
X129185714Y-71228571D01*
X128871428Y-70685714D02*
X128871428Y-70314285D01*
X129100000Y-70514285D01*
X129100000Y-70428571D01*
X129128571Y-70371428D01*
X129157142Y-70342857D01*
X129214285Y-70314285D01*
X129357142Y-70314285D01*
X129414285Y-70342857D01*
X129442857Y-70371428D01*
X129471428Y-70428571D01*
X129471428Y-70600000D01*
X129442857Y-70657142D01*
X129414285Y-70685714D01*
X128871428Y-70114285D02*
X128871428Y-69714285D01*
X129471428Y-69971428D01*
%TO.C,R38*%
X110914285Y-96271428D02*
X110714285Y-95985714D01*
X110571428Y-96271428D02*
X110571428Y-95671428D01*
X110800000Y-95671428D01*
X110857142Y-95700000D01*
X110885714Y-95728571D01*
X110914285Y-95785714D01*
X110914285Y-95871428D01*
X110885714Y-95928571D01*
X110857142Y-95957142D01*
X110800000Y-95985714D01*
X110571428Y-95985714D01*
X111114285Y-95671428D02*
X111485714Y-95671428D01*
X111285714Y-95900000D01*
X111371428Y-95900000D01*
X111428571Y-95928571D01*
X111457142Y-95957142D01*
X111485714Y-96014285D01*
X111485714Y-96157142D01*
X111457142Y-96214285D01*
X111428571Y-96242857D01*
X111371428Y-96271428D01*
X111200000Y-96271428D01*
X111142857Y-96242857D01*
X111114285Y-96214285D01*
X111828571Y-95928571D02*
X111771428Y-95900000D01*
X111742857Y-95871428D01*
X111714285Y-95814285D01*
X111714285Y-95785714D01*
X111742857Y-95728571D01*
X111771428Y-95700000D01*
X111828571Y-95671428D01*
X111942857Y-95671428D01*
X112000000Y-95700000D01*
X112028571Y-95728571D01*
X112057142Y-95785714D01*
X112057142Y-95814285D01*
X112028571Y-95871428D01*
X112000000Y-95900000D01*
X111942857Y-95928571D01*
X111828571Y-95928571D01*
X111771428Y-95957142D01*
X111742857Y-95985714D01*
X111714285Y-96042857D01*
X111714285Y-96157142D01*
X111742857Y-96214285D01*
X111771428Y-96242857D01*
X111828571Y-96271428D01*
X111942857Y-96271428D01*
X112000000Y-96242857D01*
X112028571Y-96214285D01*
X112057142Y-96157142D01*
X112057142Y-96042857D01*
X112028571Y-95985714D01*
X112000000Y-95957142D01*
X111942857Y-95928571D01*
%TO.C,R41*%
X122471428Y-76385714D02*
X122185714Y-76585714D01*
X122471428Y-76728571D02*
X121871428Y-76728571D01*
X121871428Y-76500000D01*
X121900000Y-76442857D01*
X121928571Y-76414285D01*
X121985714Y-76385714D01*
X122071428Y-76385714D01*
X122128571Y-76414285D01*
X122157142Y-76442857D01*
X122185714Y-76500000D01*
X122185714Y-76728571D01*
X122071428Y-75871428D02*
X122471428Y-75871428D01*
X121842857Y-76014285D02*
X122271428Y-76157142D01*
X122271428Y-75785714D01*
X122471428Y-75242857D02*
X122471428Y-75585714D01*
X122471428Y-75414285D02*
X121871428Y-75414285D01*
X121957142Y-75471428D01*
X122014285Y-75528571D01*
X122042857Y-75585714D01*
%TO.C,R42*%
X105571428Y-88085714D02*
X105285714Y-88285714D01*
X105571428Y-88428571D02*
X104971428Y-88428571D01*
X104971428Y-88200000D01*
X105000000Y-88142857D01*
X105028571Y-88114285D01*
X105085714Y-88085714D01*
X105171428Y-88085714D01*
X105228571Y-88114285D01*
X105257142Y-88142857D01*
X105285714Y-88200000D01*
X105285714Y-88428571D01*
X105171428Y-87571428D02*
X105571428Y-87571428D01*
X104942857Y-87714285D02*
X105371428Y-87857142D01*
X105371428Y-87485714D01*
X105028571Y-87285714D02*
X105000000Y-87257142D01*
X104971428Y-87200000D01*
X104971428Y-87057142D01*
X105000000Y-87000000D01*
X105028571Y-86971428D01*
X105085714Y-86942857D01*
X105142857Y-86942857D01*
X105228571Y-86971428D01*
X105571428Y-87314285D01*
X105571428Y-86942857D01*
%TO.C,R43*%
X113659285Y-79871428D02*
X113459285Y-79585714D01*
X113316428Y-79871428D02*
X113316428Y-79271428D01*
X113545000Y-79271428D01*
X113602142Y-79300000D01*
X113630714Y-79328571D01*
X113659285Y-79385714D01*
X113659285Y-79471428D01*
X113630714Y-79528571D01*
X113602142Y-79557142D01*
X113545000Y-79585714D01*
X113316428Y-79585714D01*
X114173571Y-79471428D02*
X114173571Y-79871428D01*
X114030714Y-79242857D02*
X113887857Y-79671428D01*
X114259285Y-79671428D01*
X114430714Y-79271428D02*
X114802142Y-79271428D01*
X114602142Y-79500000D01*
X114687857Y-79500000D01*
X114745000Y-79528571D01*
X114773571Y-79557142D01*
X114802142Y-79614285D01*
X114802142Y-79757142D01*
X114773571Y-79814285D01*
X114745000Y-79842857D01*
X114687857Y-79871428D01*
X114516428Y-79871428D01*
X114459285Y-79842857D01*
X114430714Y-79814285D01*
%TO.C,R44*%
X106771428Y-84385714D02*
X106485714Y-84585714D01*
X106771428Y-84728571D02*
X106171428Y-84728571D01*
X106171428Y-84500000D01*
X106200000Y-84442857D01*
X106228571Y-84414285D01*
X106285714Y-84385714D01*
X106371428Y-84385714D01*
X106428571Y-84414285D01*
X106457142Y-84442857D01*
X106485714Y-84500000D01*
X106485714Y-84728571D01*
X106371428Y-83871428D02*
X106771428Y-83871428D01*
X106142857Y-84014285D02*
X106571428Y-84157142D01*
X106571428Y-83785714D01*
X106371428Y-83300000D02*
X106771428Y-83300000D01*
X106142857Y-83442857D02*
X106571428Y-83585714D01*
X106571428Y-83214285D01*
%TO.C,R45*%
X125971428Y-76385714D02*
X125685714Y-76585714D01*
X125971428Y-76728571D02*
X125371428Y-76728571D01*
X125371428Y-76500000D01*
X125400000Y-76442857D01*
X125428571Y-76414285D01*
X125485714Y-76385714D01*
X125571428Y-76385714D01*
X125628571Y-76414285D01*
X125657142Y-76442857D01*
X125685714Y-76500000D01*
X125685714Y-76728571D01*
X125571428Y-75871428D02*
X125971428Y-75871428D01*
X125342857Y-76014285D02*
X125771428Y-76157142D01*
X125771428Y-75785714D01*
X125371428Y-75271428D02*
X125371428Y-75557142D01*
X125657142Y-75585714D01*
X125628571Y-75557142D01*
X125600000Y-75500000D01*
X125600000Y-75357142D01*
X125628571Y-75300000D01*
X125657142Y-75271428D01*
X125714285Y-75242857D01*
X125857142Y-75242857D01*
X125914285Y-75271428D01*
X125942857Y-75300000D01*
X125971428Y-75357142D01*
X125971428Y-75500000D01*
X125942857Y-75557142D01*
X125914285Y-75585714D01*
%TO.C,R46*%
X144114285Y-96271428D02*
X143914285Y-95985714D01*
X143771428Y-96271428D02*
X143771428Y-95671428D01*
X144000000Y-95671428D01*
X144057142Y-95700000D01*
X144085714Y-95728571D01*
X144114285Y-95785714D01*
X144114285Y-95871428D01*
X144085714Y-95928571D01*
X144057142Y-95957142D01*
X144000000Y-95985714D01*
X143771428Y-95985714D01*
X144628571Y-95871428D02*
X144628571Y-96271428D01*
X144485714Y-95642857D02*
X144342857Y-96071428D01*
X144714285Y-96071428D01*
X145200000Y-95671428D02*
X145085714Y-95671428D01*
X145028571Y-95700000D01*
X145000000Y-95728571D01*
X144942857Y-95814285D01*
X144914285Y-95928571D01*
X144914285Y-96157142D01*
X144942857Y-96214285D01*
X144971428Y-96242857D01*
X145028571Y-96271428D01*
X145142857Y-96271428D01*
X145200000Y-96242857D01*
X145228571Y-96214285D01*
X145257142Y-96157142D01*
X145257142Y-96014285D01*
X145228571Y-95957142D01*
X145200000Y-95928571D01*
X145142857Y-95900000D01*
X145028571Y-95900000D01*
X144971428Y-95928571D01*
X144942857Y-95957142D01*
X144914285Y-96014285D01*
%TO.C,R49*%
X128671428Y-76385714D02*
X128385714Y-76585714D01*
X128671428Y-76728571D02*
X128071428Y-76728571D01*
X128071428Y-76500000D01*
X128100000Y-76442857D01*
X128128571Y-76414285D01*
X128185714Y-76385714D01*
X128271428Y-76385714D01*
X128328571Y-76414285D01*
X128357142Y-76442857D01*
X128385714Y-76500000D01*
X128385714Y-76728571D01*
X128271428Y-75871428D02*
X128671428Y-75871428D01*
X128042857Y-76014285D02*
X128471428Y-76157142D01*
X128471428Y-75785714D01*
X128671428Y-75528571D02*
X128671428Y-75414285D01*
X128642857Y-75357142D01*
X128614285Y-75328571D01*
X128528571Y-75271428D01*
X128414285Y-75242857D01*
X128185714Y-75242857D01*
X128128571Y-75271428D01*
X128100000Y-75300000D01*
X128071428Y-75357142D01*
X128071428Y-75471428D01*
X128100000Y-75528571D01*
X128128571Y-75557142D01*
X128185714Y-75585714D01*
X128328571Y-75585714D01*
X128385714Y-75557142D01*
X128414285Y-75528571D01*
X128442857Y-75471428D01*
X128442857Y-75357142D01*
X128414285Y-75300000D01*
X128385714Y-75271428D01*
X128328571Y-75242857D01*
%TO.C,R50*%
X144571428Y-89785714D02*
X144285714Y-89985714D01*
X144571428Y-90128571D02*
X143971428Y-90128571D01*
X143971428Y-89900000D01*
X144000000Y-89842857D01*
X144028571Y-89814285D01*
X144085714Y-89785714D01*
X144171428Y-89785714D01*
X144228571Y-89814285D01*
X144257142Y-89842857D01*
X144285714Y-89900000D01*
X144285714Y-90128571D01*
X143971428Y-89242857D02*
X143971428Y-89528571D01*
X144257142Y-89557142D01*
X144228571Y-89528571D01*
X144200000Y-89471428D01*
X144200000Y-89328571D01*
X144228571Y-89271428D01*
X144257142Y-89242857D01*
X144314285Y-89214285D01*
X144457142Y-89214285D01*
X144514285Y-89242857D01*
X144542857Y-89271428D01*
X144571428Y-89328571D01*
X144571428Y-89471428D01*
X144542857Y-89528571D01*
X144514285Y-89557142D01*
X143971428Y-88842857D02*
X143971428Y-88785714D01*
X144000000Y-88728571D01*
X144028571Y-88700000D01*
X144085714Y-88671428D01*
X144200000Y-88642857D01*
X144342857Y-88642857D01*
X144457142Y-88671428D01*
X144514285Y-88700000D01*
X144542857Y-88728571D01*
X144571428Y-88785714D01*
X144571428Y-88842857D01*
X144542857Y-88900000D01*
X144514285Y-88928571D01*
X144457142Y-88957142D01*
X144342857Y-88985714D01*
X144200000Y-88985714D01*
X144085714Y-88957142D01*
X144028571Y-88928571D01*
X144000000Y-88900000D01*
X143971428Y-88842857D01*
%TO.C,R51*%
X135769285Y-79771428D02*
X135569285Y-79485714D01*
X135426428Y-79771428D02*
X135426428Y-79171428D01*
X135655000Y-79171428D01*
X135712142Y-79200000D01*
X135740714Y-79228571D01*
X135769285Y-79285714D01*
X135769285Y-79371428D01*
X135740714Y-79428571D01*
X135712142Y-79457142D01*
X135655000Y-79485714D01*
X135426428Y-79485714D01*
X136312142Y-79171428D02*
X136026428Y-79171428D01*
X135997857Y-79457142D01*
X136026428Y-79428571D01*
X136083571Y-79400000D01*
X136226428Y-79400000D01*
X136283571Y-79428571D01*
X136312142Y-79457142D01*
X136340714Y-79514285D01*
X136340714Y-79657142D01*
X136312142Y-79714285D01*
X136283571Y-79742857D01*
X136226428Y-79771428D01*
X136083571Y-79771428D01*
X136026428Y-79742857D01*
X135997857Y-79714285D01*
X136912142Y-79771428D02*
X136569285Y-79771428D01*
X136740714Y-79771428D02*
X136740714Y-79171428D01*
X136683571Y-79257142D01*
X136626428Y-79314285D01*
X136569285Y-79342857D01*
%TO.C,R52*%
X144171428Y-75685714D02*
X143885714Y-75885714D01*
X144171428Y-76028571D02*
X143571428Y-76028571D01*
X143571428Y-75800000D01*
X143600000Y-75742857D01*
X143628571Y-75714285D01*
X143685714Y-75685714D01*
X143771428Y-75685714D01*
X143828571Y-75714285D01*
X143857142Y-75742857D01*
X143885714Y-75800000D01*
X143885714Y-76028571D01*
X143571428Y-75142857D02*
X143571428Y-75428571D01*
X143857142Y-75457142D01*
X143828571Y-75428571D01*
X143800000Y-75371428D01*
X143800000Y-75228571D01*
X143828571Y-75171428D01*
X143857142Y-75142857D01*
X143914285Y-75114285D01*
X144057142Y-75114285D01*
X144114285Y-75142857D01*
X144142857Y-75171428D01*
X144171428Y-75228571D01*
X144171428Y-75371428D01*
X144142857Y-75428571D01*
X144114285Y-75457142D01*
X143628571Y-74885714D02*
X143600000Y-74857142D01*
X143571428Y-74800000D01*
X143571428Y-74657142D01*
X143600000Y-74600000D01*
X143628571Y-74571428D01*
X143685714Y-74542857D01*
X143742857Y-74542857D01*
X143828571Y-74571428D01*
X144171428Y-74914285D01*
X144171428Y-74542857D01*
%TO.C,R53*%
X128614285Y-73571428D02*
X128414285Y-73285714D01*
X128271428Y-73571428D02*
X128271428Y-72971428D01*
X128500000Y-72971428D01*
X128557142Y-73000000D01*
X128585714Y-73028571D01*
X128614285Y-73085714D01*
X128614285Y-73171428D01*
X128585714Y-73228571D01*
X128557142Y-73257142D01*
X128500000Y-73285714D01*
X128271428Y-73285714D01*
X129157142Y-72971428D02*
X128871428Y-72971428D01*
X128842857Y-73257142D01*
X128871428Y-73228571D01*
X128928571Y-73200000D01*
X129071428Y-73200000D01*
X129128571Y-73228571D01*
X129157142Y-73257142D01*
X129185714Y-73314285D01*
X129185714Y-73457142D01*
X129157142Y-73514285D01*
X129128571Y-73542857D01*
X129071428Y-73571428D01*
X128928571Y-73571428D01*
X128871428Y-73542857D01*
X128842857Y-73514285D01*
X129385714Y-72971428D02*
X129757142Y-72971428D01*
X129557142Y-73200000D01*
X129642857Y-73200000D01*
X129700000Y-73228571D01*
X129728571Y-73257142D01*
X129757142Y-73314285D01*
X129757142Y-73457142D01*
X129728571Y-73514285D01*
X129700000Y-73542857D01*
X129642857Y-73571428D01*
X129471428Y-73571428D01*
X129414285Y-73542857D01*
X129385714Y-73514285D01*
%TO.C,U9*%
X109142857Y-89571428D02*
X109142857Y-90057142D01*
X109171428Y-90114285D01*
X109200000Y-90142857D01*
X109257142Y-90171428D01*
X109371428Y-90171428D01*
X109428571Y-90142857D01*
X109457142Y-90114285D01*
X109485714Y-90057142D01*
X109485714Y-89571428D01*
X109800000Y-90171428D02*
X109914285Y-90171428D01*
X109971428Y-90142857D01*
X110000000Y-90114285D01*
X110057142Y-90028571D01*
X110085714Y-89914285D01*
X110085714Y-89685714D01*
X110057142Y-89628571D01*
X110028571Y-89600000D01*
X109971428Y-89571428D01*
X109857142Y-89571428D01*
X109800000Y-89600000D01*
X109771428Y-89628571D01*
X109742857Y-89685714D01*
X109742857Y-89828571D01*
X109771428Y-89885714D01*
X109800000Y-89914285D01*
X109857142Y-89942857D01*
X109971428Y-89942857D01*
X110028571Y-89914285D01*
X110057142Y-89885714D01*
X110085714Y-89828571D01*
%TO.C,U12*%
X111457142Y-84271428D02*
X111457142Y-84757142D01*
X111485714Y-84814285D01*
X111514285Y-84842857D01*
X111571428Y-84871428D01*
X111685714Y-84871428D01*
X111742857Y-84842857D01*
X111771428Y-84814285D01*
X111800000Y-84757142D01*
X111800000Y-84271428D01*
X112400000Y-84871428D02*
X112057142Y-84871428D01*
X112228571Y-84871428D02*
X112228571Y-84271428D01*
X112171428Y-84357142D01*
X112114285Y-84414285D01*
X112057142Y-84442857D01*
X112628571Y-84328571D02*
X112657142Y-84300000D01*
X112714285Y-84271428D01*
X112857142Y-84271428D01*
X112914285Y-84300000D01*
X112942857Y-84328571D01*
X112971428Y-84385714D01*
X112971428Y-84442857D01*
X112942857Y-84528571D01*
X112600000Y-84871428D01*
X112971428Y-84871428D01*
%TO.C,U13*%
X139357142Y-92171428D02*
X139357142Y-92657142D01*
X139385714Y-92714285D01*
X139414285Y-92742857D01*
X139471428Y-92771428D01*
X139585714Y-92771428D01*
X139642857Y-92742857D01*
X139671428Y-92714285D01*
X139700000Y-92657142D01*
X139700000Y-92171428D01*
X140300000Y-92771428D02*
X139957142Y-92771428D01*
X140128571Y-92771428D02*
X140128571Y-92171428D01*
X140071428Y-92257142D01*
X140014285Y-92314285D01*
X139957142Y-92342857D01*
X140500000Y-92171428D02*
X140871428Y-92171428D01*
X140671428Y-92400000D01*
X140757142Y-92400000D01*
X140814285Y-92428571D01*
X140842857Y-92457142D01*
X140871428Y-92514285D01*
X140871428Y-92657142D01*
X140842857Y-92714285D01*
X140814285Y-92742857D01*
X140757142Y-92771428D01*
X140585714Y-92771428D01*
X140528571Y-92742857D01*
X140500000Y-92714285D01*
%TO.C,R54*%
X103614285Y-84571428D02*
X103414285Y-84285714D01*
X103271428Y-84571428D02*
X103271428Y-83971428D01*
X103500000Y-83971428D01*
X103557142Y-84000000D01*
X103585714Y-84028571D01*
X103614285Y-84085714D01*
X103614285Y-84171428D01*
X103585714Y-84228571D01*
X103557142Y-84257142D01*
X103500000Y-84285714D01*
X103271428Y-84285714D01*
X104157142Y-83971428D02*
X103871428Y-83971428D01*
X103842857Y-84257142D01*
X103871428Y-84228571D01*
X103928571Y-84200000D01*
X104071428Y-84200000D01*
X104128571Y-84228571D01*
X104157142Y-84257142D01*
X104185714Y-84314285D01*
X104185714Y-84457142D01*
X104157142Y-84514285D01*
X104128571Y-84542857D01*
X104071428Y-84571428D01*
X103928571Y-84571428D01*
X103871428Y-84542857D01*
X103842857Y-84514285D01*
X104700000Y-84171428D02*
X104700000Y-84571428D01*
X104557142Y-83942857D02*
X104414285Y-84371428D01*
X104785714Y-84371428D01*
%TO.C,R55*%
X103614285Y-85371428D02*
X103414285Y-85085714D01*
X103271428Y-85371428D02*
X103271428Y-84771428D01*
X103500000Y-84771428D01*
X103557142Y-84800000D01*
X103585714Y-84828571D01*
X103614285Y-84885714D01*
X103614285Y-84971428D01*
X103585714Y-85028571D01*
X103557142Y-85057142D01*
X103500000Y-85085714D01*
X103271428Y-85085714D01*
X104157142Y-84771428D02*
X103871428Y-84771428D01*
X103842857Y-85057142D01*
X103871428Y-85028571D01*
X103928571Y-85000000D01*
X104071428Y-85000000D01*
X104128571Y-85028571D01*
X104157142Y-85057142D01*
X104185714Y-85114285D01*
X104185714Y-85257142D01*
X104157142Y-85314285D01*
X104128571Y-85342857D01*
X104071428Y-85371428D01*
X103928571Y-85371428D01*
X103871428Y-85342857D01*
X103842857Y-85314285D01*
X104728571Y-84771428D02*
X104442857Y-84771428D01*
X104414285Y-85057142D01*
X104442857Y-85028571D01*
X104500000Y-85000000D01*
X104642857Y-85000000D01*
X104700000Y-85028571D01*
X104728571Y-85057142D01*
X104757142Y-85114285D01*
X104757142Y-85257142D01*
X104728571Y-85314285D01*
X104700000Y-85342857D01*
X104642857Y-85371428D01*
X104500000Y-85371428D01*
X104442857Y-85342857D01*
X104414285Y-85314285D01*
%TO.C,R57*%
X146114285Y-76371428D02*
X145914285Y-76085714D01*
X145771428Y-76371428D02*
X145771428Y-75771428D01*
X146000000Y-75771428D01*
X146057142Y-75800000D01*
X146085714Y-75828571D01*
X146114285Y-75885714D01*
X146114285Y-75971428D01*
X146085714Y-76028571D01*
X146057142Y-76057142D01*
X146000000Y-76085714D01*
X145771428Y-76085714D01*
X146657142Y-75771428D02*
X146371428Y-75771428D01*
X146342857Y-76057142D01*
X146371428Y-76028571D01*
X146428571Y-76000000D01*
X146571428Y-76000000D01*
X146628571Y-76028571D01*
X146657142Y-76057142D01*
X146685714Y-76114285D01*
X146685714Y-76257142D01*
X146657142Y-76314285D01*
X146628571Y-76342857D01*
X146571428Y-76371428D01*
X146428571Y-76371428D01*
X146371428Y-76342857D01*
X146342857Y-76314285D01*
X146885714Y-75771428D02*
X147285714Y-75771428D01*
X147028571Y-76371428D01*
%TO.C,R58*%
X146114285Y-75471428D02*
X145914285Y-75185714D01*
X145771428Y-75471428D02*
X145771428Y-74871428D01*
X146000000Y-74871428D01*
X146057142Y-74900000D01*
X146085714Y-74928571D01*
X146114285Y-74985714D01*
X146114285Y-75071428D01*
X146085714Y-75128571D01*
X146057142Y-75157142D01*
X146000000Y-75185714D01*
X145771428Y-75185714D01*
X146657142Y-74871428D02*
X146371428Y-74871428D01*
X146342857Y-75157142D01*
X146371428Y-75128571D01*
X146428571Y-75100000D01*
X146571428Y-75100000D01*
X146628571Y-75128571D01*
X146657142Y-75157142D01*
X146685714Y-75214285D01*
X146685714Y-75357142D01*
X146657142Y-75414285D01*
X146628571Y-75442857D01*
X146571428Y-75471428D01*
X146428571Y-75471428D01*
X146371428Y-75442857D01*
X146342857Y-75414285D01*
X147028571Y-75128571D02*
X146971428Y-75100000D01*
X146942857Y-75071428D01*
X146914285Y-75014285D01*
X146914285Y-74985714D01*
X146942857Y-74928571D01*
X146971428Y-74900000D01*
X147028571Y-74871428D01*
X147142857Y-74871428D01*
X147200000Y-74900000D01*
X147228571Y-74928571D01*
X147257142Y-74985714D01*
X147257142Y-75014285D01*
X147228571Y-75071428D01*
X147200000Y-75100000D01*
X147142857Y-75128571D01*
X147028571Y-75128571D01*
X146971428Y-75157142D01*
X146942857Y-75185714D01*
X146914285Y-75242857D01*
X146914285Y-75357142D01*
X146942857Y-75414285D01*
X146971428Y-75442857D01*
X147028571Y-75471428D01*
X147142857Y-75471428D01*
X147200000Y-75442857D01*
X147228571Y-75414285D01*
X147257142Y-75357142D01*
X147257142Y-75242857D01*
X147228571Y-75185714D01*
X147200000Y-75157142D01*
X147142857Y-75128571D01*
%TO.C,C51*%
X116414285Y-82185714D02*
X116442857Y-82214285D01*
X116471428Y-82300000D01*
X116471428Y-82357142D01*
X116442857Y-82442857D01*
X116385714Y-82500000D01*
X116328571Y-82528571D01*
X116214285Y-82557142D01*
X116128571Y-82557142D01*
X116014285Y-82528571D01*
X115957142Y-82500000D01*
X115900000Y-82442857D01*
X115871428Y-82357142D01*
X115871428Y-82300000D01*
X115900000Y-82214285D01*
X115928571Y-82185714D01*
X115871428Y-81642857D02*
X115871428Y-81928571D01*
X116157142Y-81957142D01*
X116128571Y-81928571D01*
X116100000Y-81871428D01*
X116100000Y-81728571D01*
X116128571Y-81671428D01*
X116157142Y-81642857D01*
X116214285Y-81614285D01*
X116357142Y-81614285D01*
X116414285Y-81642857D01*
X116442857Y-81671428D01*
X116471428Y-81728571D01*
X116471428Y-81871428D01*
X116442857Y-81928571D01*
X116414285Y-81957142D01*
X116471428Y-81042857D02*
X116471428Y-81385714D01*
X116471428Y-81214285D02*
X115871428Y-81214285D01*
X115957142Y-81271428D01*
X116014285Y-81328571D01*
X116042857Y-81385714D01*
%TO.C,C52*%
X134214285Y-77793214D02*
X134242857Y-77821785D01*
X134271428Y-77907500D01*
X134271428Y-77964642D01*
X134242857Y-78050357D01*
X134185714Y-78107500D01*
X134128571Y-78136071D01*
X134014285Y-78164642D01*
X133928571Y-78164642D01*
X133814285Y-78136071D01*
X133757142Y-78107500D01*
X133700000Y-78050357D01*
X133671428Y-77964642D01*
X133671428Y-77907500D01*
X133700000Y-77821785D01*
X133728571Y-77793214D01*
X133671428Y-77250357D02*
X133671428Y-77536071D01*
X133957142Y-77564642D01*
X133928571Y-77536071D01*
X133900000Y-77478928D01*
X133900000Y-77336071D01*
X133928571Y-77278928D01*
X133957142Y-77250357D01*
X134014285Y-77221785D01*
X134157142Y-77221785D01*
X134214285Y-77250357D01*
X134242857Y-77278928D01*
X134271428Y-77336071D01*
X134271428Y-77478928D01*
X134242857Y-77536071D01*
X134214285Y-77564642D01*
X133728571Y-76993214D02*
X133700000Y-76964642D01*
X133671428Y-76907500D01*
X133671428Y-76764642D01*
X133700000Y-76707500D01*
X133728571Y-76678928D01*
X133785714Y-76650357D01*
X133842857Y-76650357D01*
X133928571Y-76678928D01*
X134271428Y-77021785D01*
X134271428Y-76650357D01*
%TO.C,C4*%
X127900000Y-62014285D02*
X127871428Y-62042857D01*
X127785714Y-62071428D01*
X127728571Y-62071428D01*
X127642857Y-62042857D01*
X127585714Y-61985714D01*
X127557142Y-61928571D01*
X127528571Y-61814285D01*
X127528571Y-61728571D01*
X127557142Y-61614285D01*
X127585714Y-61557142D01*
X127642857Y-61500000D01*
X127728571Y-61471428D01*
X127785714Y-61471428D01*
X127871428Y-61500000D01*
X127900000Y-61528571D01*
X128414285Y-61671428D02*
X128414285Y-62071428D01*
X128271428Y-61442857D02*
X128128571Y-61871428D01*
X128500000Y-61871428D01*
%TO.C,D4*%
X110857142Y-95271428D02*
X110857142Y-94671428D01*
X111000000Y-94671428D01*
X111085714Y-94700000D01*
X111142857Y-94757142D01*
X111171428Y-94814285D01*
X111200000Y-94928571D01*
X111200000Y-95014285D01*
X111171428Y-95128571D01*
X111142857Y-95185714D01*
X111085714Y-95242857D01*
X111000000Y-95271428D01*
X110857142Y-95271428D01*
X111714285Y-94871428D02*
X111714285Y-95271428D01*
X111571428Y-94642857D02*
X111428571Y-95071428D01*
X111800000Y-95071428D01*
%TO.C,D5*%
X107457142Y-95271428D02*
X107457142Y-94671428D01*
X107600000Y-94671428D01*
X107685714Y-94700000D01*
X107742857Y-94757142D01*
X107771428Y-94814285D01*
X107800000Y-94928571D01*
X107800000Y-95014285D01*
X107771428Y-95128571D01*
X107742857Y-95185714D01*
X107685714Y-95242857D01*
X107600000Y-95271428D01*
X107457142Y-95271428D01*
X108342857Y-94671428D02*
X108057142Y-94671428D01*
X108028571Y-94957142D01*
X108057142Y-94928571D01*
X108114285Y-94900000D01*
X108257142Y-94900000D01*
X108314285Y-94928571D01*
X108342857Y-94957142D01*
X108371428Y-95014285D01*
X108371428Y-95157142D01*
X108342857Y-95214285D01*
X108314285Y-95242857D01*
X108257142Y-95271428D01*
X108114285Y-95271428D01*
X108057142Y-95242857D01*
X108028571Y-95214285D01*
%TO.C,D7*%
X105971428Y-79642857D02*
X105371428Y-79642857D01*
X105371428Y-79500000D01*
X105400000Y-79414285D01*
X105457142Y-79357142D01*
X105514285Y-79328571D01*
X105628571Y-79300000D01*
X105714285Y-79300000D01*
X105828571Y-79328571D01*
X105885714Y-79357142D01*
X105942857Y-79414285D01*
X105971428Y-79500000D01*
X105971428Y-79642857D01*
X105371428Y-79100000D02*
X105371428Y-78700000D01*
X105971428Y-78957142D01*
%TO.C,D8*%
X105971428Y-81242857D02*
X105371428Y-81242857D01*
X105371428Y-81100000D01*
X105400000Y-81014285D01*
X105457142Y-80957142D01*
X105514285Y-80928571D01*
X105628571Y-80900000D01*
X105714285Y-80900000D01*
X105828571Y-80928571D01*
X105885714Y-80957142D01*
X105942857Y-81014285D01*
X105971428Y-81100000D01*
X105971428Y-81242857D01*
X105628571Y-80557142D02*
X105600000Y-80614285D01*
X105571428Y-80642857D01*
X105514285Y-80671428D01*
X105485714Y-80671428D01*
X105428571Y-80642857D01*
X105400000Y-80614285D01*
X105371428Y-80557142D01*
X105371428Y-80442857D01*
X105400000Y-80385714D01*
X105428571Y-80357142D01*
X105485714Y-80328571D01*
X105514285Y-80328571D01*
X105571428Y-80357142D01*
X105600000Y-80385714D01*
X105628571Y-80442857D01*
X105628571Y-80557142D01*
X105657142Y-80614285D01*
X105685714Y-80642857D01*
X105742857Y-80671428D01*
X105857142Y-80671428D01*
X105914285Y-80642857D01*
X105942857Y-80614285D01*
X105971428Y-80557142D01*
X105971428Y-80442857D01*
X105942857Y-80385714D01*
X105914285Y-80357142D01*
X105857142Y-80328571D01*
X105742857Y-80328571D01*
X105685714Y-80357142D01*
X105657142Y-80385714D01*
X105628571Y-80442857D01*
%TO.C,D9*%
X105971428Y-82742857D02*
X105371428Y-82742857D01*
X105371428Y-82600000D01*
X105400000Y-82514285D01*
X105457142Y-82457142D01*
X105514285Y-82428571D01*
X105628571Y-82400000D01*
X105714285Y-82400000D01*
X105828571Y-82428571D01*
X105885714Y-82457142D01*
X105942857Y-82514285D01*
X105971428Y-82600000D01*
X105971428Y-82742857D01*
X105971428Y-82114285D02*
X105971428Y-82000000D01*
X105942857Y-81942857D01*
X105914285Y-81914285D01*
X105828571Y-81857142D01*
X105714285Y-81828571D01*
X105485714Y-81828571D01*
X105428571Y-81857142D01*
X105400000Y-81885714D01*
X105371428Y-81942857D01*
X105371428Y-82057142D01*
X105400000Y-82114285D01*
X105428571Y-82142857D01*
X105485714Y-82171428D01*
X105628571Y-82171428D01*
X105685714Y-82142857D01*
X105714285Y-82114285D01*
X105742857Y-82057142D01*
X105742857Y-81942857D01*
X105714285Y-81885714D01*
X105685714Y-81857142D01*
X105628571Y-81828571D01*
%TO.C,D10*%
X105971428Y-84728571D02*
X105371428Y-84728571D01*
X105371428Y-84585714D01*
X105400000Y-84500000D01*
X105457142Y-84442857D01*
X105514285Y-84414285D01*
X105628571Y-84385714D01*
X105714285Y-84385714D01*
X105828571Y-84414285D01*
X105885714Y-84442857D01*
X105942857Y-84500000D01*
X105971428Y-84585714D01*
X105971428Y-84728571D01*
X105971428Y-83814285D02*
X105971428Y-84157142D01*
X105971428Y-83985714D02*
X105371428Y-83985714D01*
X105457142Y-84042857D01*
X105514285Y-84100000D01*
X105542857Y-84157142D01*
X105371428Y-83442857D02*
X105371428Y-83385714D01*
X105400000Y-83328571D01*
X105428571Y-83300000D01*
X105485714Y-83271428D01*
X105600000Y-83242857D01*
X105742857Y-83242857D01*
X105857142Y-83271428D01*
X105914285Y-83300000D01*
X105942857Y-83328571D01*
X105971428Y-83385714D01*
X105971428Y-83442857D01*
X105942857Y-83500000D01*
X105914285Y-83528571D01*
X105857142Y-83557142D01*
X105742857Y-83585714D01*
X105600000Y-83585714D01*
X105485714Y-83557142D01*
X105428571Y-83528571D01*
X105400000Y-83500000D01*
X105371428Y-83442857D01*
%TO.C,D12*%
X144071428Y-95271428D02*
X144071428Y-94671428D01*
X144214285Y-94671428D01*
X144300000Y-94700000D01*
X144357142Y-94757142D01*
X144385714Y-94814285D01*
X144414285Y-94928571D01*
X144414285Y-95014285D01*
X144385714Y-95128571D01*
X144357142Y-95185714D01*
X144300000Y-95242857D01*
X144214285Y-95271428D01*
X144071428Y-95271428D01*
X144985714Y-95271428D02*
X144642857Y-95271428D01*
X144814285Y-95271428D02*
X144814285Y-94671428D01*
X144757142Y-94757142D01*
X144700000Y-94814285D01*
X144642857Y-94842857D01*
X145214285Y-94728571D02*
X145242857Y-94700000D01*
X145300000Y-94671428D01*
X145442857Y-94671428D01*
X145500000Y-94700000D01*
X145528571Y-94728571D01*
X145557142Y-94785714D01*
X145557142Y-94842857D01*
X145528571Y-94928571D01*
X145185714Y-95271428D01*
X145557142Y-95271428D01*
%TO.C,D13*%
X140171428Y-95271428D02*
X140171428Y-94671428D01*
X140314285Y-94671428D01*
X140400000Y-94700000D01*
X140457142Y-94757142D01*
X140485714Y-94814285D01*
X140514285Y-94928571D01*
X140514285Y-95014285D01*
X140485714Y-95128571D01*
X140457142Y-95185714D01*
X140400000Y-95242857D01*
X140314285Y-95271428D01*
X140171428Y-95271428D01*
X141085714Y-95271428D02*
X140742857Y-95271428D01*
X140914285Y-95271428D02*
X140914285Y-94671428D01*
X140857142Y-94757142D01*
X140800000Y-94814285D01*
X140742857Y-94842857D01*
X141285714Y-94671428D02*
X141657142Y-94671428D01*
X141457142Y-94900000D01*
X141542857Y-94900000D01*
X141600000Y-94928571D01*
X141628571Y-94957142D01*
X141657142Y-95014285D01*
X141657142Y-95157142D01*
X141628571Y-95214285D01*
X141600000Y-95242857D01*
X141542857Y-95271428D01*
X141371428Y-95271428D01*
X141314285Y-95242857D01*
X141285714Y-95214285D01*
%TO.C,D14*%
X145271428Y-83028571D02*
X144671428Y-83028571D01*
X144671428Y-82885714D01*
X144700000Y-82800000D01*
X144757142Y-82742857D01*
X144814285Y-82714285D01*
X144928571Y-82685714D01*
X145014285Y-82685714D01*
X145128571Y-82714285D01*
X145185714Y-82742857D01*
X145242857Y-82800000D01*
X145271428Y-82885714D01*
X145271428Y-83028571D01*
X145271428Y-82114285D02*
X145271428Y-82457142D01*
X145271428Y-82285714D02*
X144671428Y-82285714D01*
X144757142Y-82342857D01*
X144814285Y-82400000D01*
X144842857Y-82457142D01*
X144871428Y-81600000D02*
X145271428Y-81600000D01*
X144642857Y-81742857D02*
X145071428Y-81885714D01*
X145071428Y-81514285D01*
%TO.C,D15*%
X144371428Y-81128571D02*
X143771428Y-81128571D01*
X143771428Y-80985714D01*
X143800000Y-80900000D01*
X143857142Y-80842857D01*
X143914285Y-80814285D01*
X144028571Y-80785714D01*
X144114285Y-80785714D01*
X144228571Y-80814285D01*
X144285714Y-80842857D01*
X144342857Y-80900000D01*
X144371428Y-80985714D01*
X144371428Y-81128571D01*
X144371428Y-80214285D02*
X144371428Y-80557142D01*
X144371428Y-80385714D02*
X143771428Y-80385714D01*
X143857142Y-80442857D01*
X143914285Y-80500000D01*
X143942857Y-80557142D01*
X143771428Y-79671428D02*
X143771428Y-79957142D01*
X144057142Y-79985714D01*
X144028571Y-79957142D01*
X144000000Y-79900000D01*
X144000000Y-79757142D01*
X144028571Y-79700000D01*
X144057142Y-79671428D01*
X144114285Y-79642857D01*
X144257142Y-79642857D01*
X144314285Y-79671428D01*
X144342857Y-79700000D01*
X144371428Y-79757142D01*
X144371428Y-79900000D01*
X144342857Y-79957142D01*
X144314285Y-79985714D01*
%TO.C,D16*%
X144371428Y-79228571D02*
X143771428Y-79228571D01*
X143771428Y-79085714D01*
X143800000Y-79000000D01*
X143857142Y-78942857D01*
X143914285Y-78914285D01*
X144028571Y-78885714D01*
X144114285Y-78885714D01*
X144228571Y-78914285D01*
X144285714Y-78942857D01*
X144342857Y-79000000D01*
X144371428Y-79085714D01*
X144371428Y-79228571D01*
X144371428Y-78314285D02*
X144371428Y-78657142D01*
X144371428Y-78485714D02*
X143771428Y-78485714D01*
X143857142Y-78542857D01*
X143914285Y-78600000D01*
X143942857Y-78657142D01*
X143771428Y-77800000D02*
X143771428Y-77914285D01*
X143800000Y-77971428D01*
X143828571Y-78000000D01*
X143914285Y-78057142D01*
X144028571Y-78085714D01*
X144257142Y-78085714D01*
X144314285Y-78057142D01*
X144342857Y-78028571D01*
X144371428Y-77971428D01*
X144371428Y-77857142D01*
X144342857Y-77800000D01*
X144314285Y-77771428D01*
X144257142Y-77742857D01*
X144114285Y-77742857D01*
X144057142Y-77771428D01*
X144028571Y-77800000D01*
X144000000Y-77857142D01*
X144000000Y-77971428D01*
X144028571Y-78028571D01*
X144057142Y-78057142D01*
X144114285Y-78085714D01*
%TO.C,D17*%
X145271428Y-76528571D02*
X144671428Y-76528571D01*
X144671428Y-76385714D01*
X144700000Y-76300000D01*
X144757142Y-76242857D01*
X144814285Y-76214285D01*
X144928571Y-76185714D01*
X145014285Y-76185714D01*
X145128571Y-76214285D01*
X145185714Y-76242857D01*
X145242857Y-76300000D01*
X145271428Y-76385714D01*
X145271428Y-76528571D01*
X145271428Y-75614285D02*
X145271428Y-75957142D01*
X145271428Y-75785714D02*
X144671428Y-75785714D01*
X144757142Y-75842857D01*
X144814285Y-75900000D01*
X144842857Y-75957142D01*
X144671428Y-75414285D02*
X144671428Y-75014285D01*
X145271428Y-75271428D01*
%TD*%
M02*
