M48
; DRILL file {KiCad (5.1.6)-1} date 04/13/21 10:59:21
; FORMAT={-:-/ absolute / metric / decimal}
; #@! TF.CreationDate,2021-04-13T10:59:21+02:00
; #@! TF.GenerationSoftware,Kicad,Pcbnew,(5.1.6)-1
FMAT,2
METRIC
T1C0.100
T2C0.350
T3C0.600
T4C1.700
T5C0.600
T6C0.800
T7C1.600
T8C2.200
%
G90
G05
T1
X101.25Y-62.5
X101.25Y-67.5
X101.25Y-77.5
X101.25Y-82.5
X101.25Y-87.5
X101.25Y-92.5
X102.5Y-55.0
X102.5Y-65.0
X102.5Y-75.0
X102.5Y-85.0
X102.5Y-95.0
X103.5Y-91.625
X103.75Y-52.5
X103.75Y-62.5
X103.75Y-67.5
X103.75Y-81.5
X103.75Y-97.5
X104.5Y-77.71
X104.5Y-78.99
X104.5Y-80.945
X104.5Y-82.005
X104.5Y-87.86
X104.5Y-89.14
X105.0Y-52.0
X105.0Y-53.0
X105.0Y-54.0
X105.0Y-60.0
X105.0Y-65.0
X105.0Y-70.0
X105.0Y-75.0
X105.0Y-85.0
X105.0Y-95.0
X105.25Y-88.5
X105.5Y-79.505
X105.5Y-83.445
X105.5Y-90.625
X105.5Y-91.625
X105.5Y-92.625
X106.0Y-52.0
X106.0Y-92.125
X106.21Y-89.25
X106.25Y-57.5
X106.25Y-62.5
X106.25Y-67.5
X106.25Y-72.5
X106.25Y-77.5
X106.25Y-87.5
X106.45Y-83.25
X106.63Y-88.6
X106.75Y-85.86
X106.75Y-86.5
X106.85Y-89.25
X106.85Y-92.125
X107.0Y-52.0
X107.11Y-95.5
X107.27Y-88.6
X107.4Y-87.3
X107.5Y-60.0
X107.5Y-65.0
X107.5Y-70.0
X107.5Y-75.0
X107.5Y-84.16
X108.0Y-52.0
X108.0Y-85.3
X108.25Y-93.846
X108.39Y-95.5
X108.4Y-77.405
X108.5Y-84.16
X108.65Y-90.15
X108.75Y-57.5
X108.75Y-67.5
X108.75Y-72.5
X108.905Y-94.5
X109.0Y-52.0
X109.0Y-53.0
X109.0Y-54.0
X109.59Y-76.9
X109.625Y-90.15
X109.75Y-84.16
X109.78Y-52.8
X110.0Y-55.0
X110.0Y-70.0
X110.0Y-75.0
X110.0Y-80.0
X110.11Y-54.2
X110.2Y-85.0
X110.275Y-90.15
X110.345Y-95.5
X110.75Y-84.16
X110.77Y-63.095
X110.77Y-63.73
X110.77Y-65.0
X110.77Y-65.635
X110.77Y-66.27
X110.77Y-66.905
X110.77Y-67.54
X111.0Y-85.0
X111.136Y-93.846
X111.25Y-61.5
X111.25Y-72.5
X111.25Y-92.5
X111.25Y-97.5
X111.7Y-77.405
X111.73Y-62.46
X111.73Y-63.73
X111.73Y-65.0
X111.73Y-66.27
X111.73Y-66.905
X111.73Y-67.54
X111.75Y-51.915
X111.75Y-54.0
X111.75Y-56.015
X112.0Y-85.75
X112.25Y-61.5
X112.5Y-70.0
X112.5Y-75.0
X112.5Y-78.75
X112.69Y-62.46
X112.69Y-63.73
X112.69Y-65.0
X112.69Y-66.27
X112.69Y-68.175
X112.75Y-60.0
X113.0Y-87.5
X113.25Y-84.58
X113.25Y-86.132
X113.25Y-88.18
X113.25Y-88.82
X113.31Y-62.46
X113.31Y-63.095
X113.31Y-64.365
X113.31Y-65.635
X113.31Y-66.27
X113.31Y-67.54
X113.31Y-68.175
X113.39Y-54.2
X113.5Y-55.5
X113.7Y-83.0
X113.72Y-52.8
X113.725Y-81.0
X113.75Y-72.5
X113.75Y-77.5
X113.75Y-87.5
X113.79Y-61.5
X114.27Y-62.46
X114.27Y-63.73
X114.27Y-64.365
X114.27Y-65.635
X114.27Y-66.905
X114.27Y-67.54
X114.27Y-68.175
X114.365Y-81.0
X114.4Y-83.0
X114.5Y-86.0
X114.6Y-53.81
X114.6Y-54.45
X114.75Y-61.5
X115.0Y-51.5
X115.0Y-55.5
X115.0Y-70.0
X115.0Y-75.0
X115.0Y-78.75
X115.0Y-80.0
X115.23Y-63.095
X115.23Y-64.365
X115.23Y-66.27
X115.23Y-66.905
X115.25Y-60.0
X115.9Y-55.6
X115.9Y-81.5
X116.25Y-50.9
X116.25Y-77.5
X116.25Y-82.5
X116.25Y-87.5
X116.75Y-50.5
X117.25Y-50.9
X117.5Y-75.0
X117.5Y-78.75
X117.5Y-80.0
X117.5Y-85.0
X117.75Y-50.5
X118.2Y-75.31
X118.2Y-75.95
X118.52Y-55.0
X118.75Y-72.5
X118.75Y-77.5
X118.75Y-82.5
X118.75Y-87.5
X118.85Y-51.58
X118.85Y-52.55
X118.9Y-74.25
X119.53Y-51.0
X119.53Y-53.2
X119.93Y-54.2
X120.0Y-79.0
X120.0Y-85.0
X120.35Y-51.4
X120.5Y-69.77
X120.6Y-74.75
X120.74Y-59.6
X120.8Y-72.61
X120.8Y-73.25
X120.9Y-68.57
X120.9Y-69.3
X120.93Y-56.3
X121.0Y-75.95
X121.0Y-80.0
X121.05Y-51.4
X121.2Y-70.97
X121.25Y-67.5
X121.25Y-82.5
X121.25Y-87.5
X121.3Y-53.75
X121.3Y-55.75
X121.3Y-54.75
X121.4Y-60.23
X121.4Y-60.87
X121.42Y-63.0
X121.42Y-65.0
X121.637Y-69.3
X121.75Y-51.4
X121.75Y-73.75
X121.75Y-74.75
X121.75Y-75.5
X121.75Y-76.125
X121.75Y-76.75
X121.75Y-77.375
X121.8Y-53.25
X121.8Y-54.25
X121.8Y-55.25
X122.0Y-59.262
X122.0Y-71.75
X122.4Y-71.05
X122.5Y-66.638
X122.5Y-70.0
X122.5Y-80.0
X122.5Y-85.0
X122.6Y-51.0
X123.0Y-70.35
X123.05Y-67.7
X123.5Y-51.75
X123.5Y-78.25
X123.6Y-83.73
X123.75Y-82.5
X123.75Y-87.5
X124.0Y-60.85
X124.0Y-61.5
X124.125Y-78.25
X124.25Y-51.75
X124.5Y-84.7
X124.75Y-50.75
X124.75Y-78.25
X124.93Y-59.8
X124.99Y-64.0
X125.0Y-65.6
X125.0Y-67.7
X125.07Y-70.2
X125.25Y-51.25
X125.39Y-80.15
X125.5Y-83.09
X125.5Y-84.7
X125.61Y-87.0
X125.75Y-51.75
X125.75Y-78.25
X125.75Y-78.875
X126.0Y-68.6
X126.0Y-69.2
X126.25Y-82.5
X126.25Y-87.5
X126.3Y-64.0
X126.375Y-78.25
X126.5Y-51.75
X127.02Y-79.4
X127.05Y-59.65
X127.3Y-85.1
X127.3Y-86.75
X127.4Y-51.0
X127.4Y-87.5
X127.5Y-58.95
X127.515Y-62.2
X127.515Y-63.4
X127.6Y-60.35
X127.9Y-71.184
X128.0Y-58.25
X128.0Y-80.0
X128.25Y-52.625
X128.25Y-53.25
X128.25Y-53.875
X128.25Y-54.5
X128.25Y-74.75
X128.25Y-78.57
X128.3Y-56.25
X128.368Y-60.65
X128.5Y-75.75
X128.5Y-76.75
X128.58Y-65.0
X128.58Y-67.1
X128.75Y-56.75
X128.75Y-57.5
X128.75Y-69.13
X128.75Y-69.77
X128.75Y-74.25
X128.75Y-82.5
X128.75Y-87.5
X128.9Y-54.1
X128.95Y-78.57
X129.0Y-75.25
X129.0Y-76.25
X129.0Y-84.37
X129.1Y-60.65
X129.1Y-61.43
X129.1Y-62.5
X129.1Y-63.1
X129.145Y-73.8
X129.25Y-70.4
X129.272Y-59.65
X129.4Y-55.25
X129.58Y-60.22
X129.65Y-78.57
X129.76Y-52.6
X130.0Y-80.0
X130.32Y-73.7
X130.32Y-75.8
X130.4Y-52.6
X130.47Y-76.85
X130.47Y-79.0
X130.54Y-56.3
X131.15Y-77.455
X131.15Y-78.425
X131.25Y-52.5
X131.25Y-57.5
X131.25Y-82.5
X131.25Y-87.5
X132.0Y-74.1
X132.5Y-55.0
X132.5Y-75.0
X132.5Y-80.0
X133.75Y-52.5
X133.75Y-57.5
X133.75Y-82.5
X133.75Y-87.5
X134.0Y-72.25
X134.0Y-75.0
X134.3Y-77.087
X134.3Y-77.727
X134.5Y-66.5
X134.77Y-61.825
X134.77Y-62.46
X134.77Y-64.365
X134.77Y-65.0
X134.77Y-65.635
X134.77Y-67.54
X135.0Y-55.0
X135.0Y-60.0
X135.0Y-70.0
X135.0Y-80.0
X135.25Y-78.65
X135.73Y-61.825
X135.73Y-62.46
X135.73Y-63.095
X135.73Y-64.365
X135.73Y-65.0
X135.73Y-65.635
X135.73Y-66.27
X135.73Y-66.905
X135.73Y-67.54
X135.73Y-68.175
X135.8Y-76.3
X136.25Y-52.5
X136.25Y-57.5
X136.25Y-82.5
X136.475Y-78.15
X136.5Y-76.3
X136.69Y-63.73
X136.69Y-65.635
X136.75Y-85.68
X136.75Y-86.7
X136.75Y-87.3
X136.75Y-89.32
X137.25Y-76.3
X137.31Y-62.46
X137.31Y-65.0
X137.31Y-65.635
X137.31Y-66.27
X137.5Y-55.0
X137.5Y-60.0
X137.5Y-87.9
X137.5Y-90.0
X137.79Y-68.3
X137.938Y-76.3
X138.11Y-54.6
X138.11Y-56.5
X138.232Y-90.75
X138.25Y-85.5
X138.27Y-61.825
X138.27Y-63.095
X138.27Y-63.73
X138.27Y-64.365
X138.27Y-65.0
X138.27Y-65.635
X138.27Y-66.27
X138.27Y-66.905
X138.48Y-84.3
X138.75Y-56.5
X138.75Y-68.3
X138.75Y-72.5
X138.75Y-82.5
X138.75Y-92.5
X138.872Y-90.75
X139.2Y-67.858
X139.23Y-61.825
X139.23Y-62.46
X139.23Y-63.73
X139.23Y-66.903
X139.3Y-75.0
X139.5Y-90.5
X139.8Y-84.3
X140.0Y-55.0
X140.0Y-60.0
X140.0Y-65.0
X140.0Y-70.0
X140.0Y-75.0
X140.1Y-90.23
X140.1Y-90.87
X140.36Y-95.5
X140.48Y-84.3
X140.78Y-82.4
X141.0Y-52.0
X141.0Y-53.0
X141.0Y-54.0
X141.0Y-95.0
X141.12Y-84.3
X141.25Y-57.5
X141.25Y-62.5
X141.25Y-67.5
X141.25Y-72.5
X141.25Y-92.5
X141.4Y-93.996
X141.45Y-90.125
X141.64Y-95.5
X141.8Y-75.0
X142.0Y-52.0
X142.0Y-81.828
X142.0Y-89.5
X142.5Y-60.0
X142.5Y-65.0
X142.5Y-70.0
X142.5Y-75.0
X142.55Y-90.125
X142.662Y-76.3
X143.0Y-52.0
X143.0Y-86.28
X143.0Y-86.92
X143.5Y-89.125
X143.6Y-95.5
X143.75Y-57.5
X143.75Y-62.5
X143.75Y-67.5
X143.75Y-72.5
X143.75Y-82.5
X143.9Y-87.9
X144.0Y-52.0
X144.4Y-76.587
X144.5Y-78.445
X144.5Y-79.505
X144.5Y-80.945
X144.5Y-88.375
X144.5Y-89.125
X144.5Y-90.125
X144.5Y-91.82
X144.5Y-93.996
X145.0Y-52.0
X145.0Y-53.0
X145.0Y-54.0
X145.0Y-60.0
X145.0Y-65.0
X145.0Y-70.0
X145.0Y-75.0
X145.0Y-85.0
X145.0Y-92.5
X145.0Y-95.0
X145.112Y-87.7
X145.5Y-77.005
X145.5Y-81.46
X145.5Y-82.74
X146.0Y-79.0
X146.0Y-91.0
X146.0Y-93.5
X146.25Y-52.5
X146.25Y-62.5
X146.25Y-67.5
X146.25Y-87.5
X146.25Y-97.5
X146.5Y-89.125
X147.5Y-55.0
X147.5Y-65.0
X147.5Y-75.0
X147.5Y-85.0
X147.5Y-95.0
X148.75Y-62.5
X148.75Y-67.5
X148.75Y-77.5
X148.75Y-82.5
X148.75Y-87.5
X148.75Y-92.5
T2
X108.825Y-91.85
X108.825Y-92.85
X109.0Y-80.0
X109.0Y-82.0
X109.2Y-86.7
X109.2Y-88.3
X109.5Y-81.0
X109.6Y-87.5
X109.625Y-91.85
X109.625Y-92.85
X110.0Y-80.0
X110.0Y-82.0
X110.0Y-86.7
X110.0Y-88.3
X110.4Y-87.5
X110.425Y-91.85
X110.425Y-92.85
X110.5Y-81.0
X110.8Y-86.7
X110.8Y-88.3
X111.0Y-80.0
X111.0Y-82.0
X116.6Y-52.7
X117.0Y-53.3
X117.4Y-52.7
X124.25Y-54.25
X124.25Y-55.75
X124.25Y-74.25
X124.25Y-75.75
X124.625Y-55.0
X124.625Y-75.0
X125.0Y-54.25
X125.0Y-55.75
X125.0Y-74.25
X125.0Y-75.75
X125.375Y-55.0
X125.375Y-75.0
X125.75Y-54.25
X125.75Y-55.75
X125.75Y-75.75
X139.2Y-86.7
X139.2Y-88.3
X139.25Y-79.225
X139.3Y-77.175
X139.6Y-87.5
X139.75Y-78.227
X140.0Y-86.7
X140.0Y-88.3
X140.25Y-77.175
X140.25Y-79.225
X140.4Y-87.5
X140.75Y-78.225
X140.8Y-86.7
X140.8Y-88.3
X141.25Y-77.175
X141.25Y-79.225
X142.075Y-92.0
X142.075Y-93.0
X142.875Y-92.0
X142.875Y-93.0
X143.675Y-92.0
X143.675Y-93.0
T3
X102.7Y-87.25
X102.7Y-88.5
X102.7Y-89.75
X102.7Y-91.0
X102.7Y-92.25
X102.7Y-93.5
X147.3Y-77.1
X147.3Y-78.35
X147.3Y-79.6
X147.3Y-80.85
X147.3Y-82.1
X147.3Y-83.35
X106.5Y-97.3
X107.75Y-97.3
X109.0Y-97.3
X110.25Y-97.3
X134.0Y-83.73
X134.0Y-85.0
X134.0Y-86.27
X135.27Y-85.0
X123.75Y-88.8
X125.0Y-88.8
X126.25Y-88.8
X114.73Y-85.0
X116.0Y-83.73
X116.0Y-85.0
X116.0Y-86.27
X147.3Y-87.25
X147.3Y-88.5
X147.3Y-89.75
X147.3Y-91.0
X147.3Y-92.25
X147.3Y-93.5
X139.75Y-97.3
X141.0Y-97.3
X142.25Y-97.3
X143.5Y-97.3
X102.7Y-77.1
X102.7Y-78.35
X102.7Y-79.6
X102.7Y-80.85
X102.7Y-82.1
X102.7Y-83.35
T4
X147.0Y-57.13
X147.0Y-72.87
X103.0Y-57.13
X103.0Y-72.87
T6
X113.0Y-60.74
X137.0Y-60.74
T7
X147.0Y-60.0
X147.0Y-70.0
X103.0Y-60.0
X103.0Y-70.0
T8
X102.0Y-52.0
X148.0Y-52.0
X102.0Y-98.0
X148.0Y-98.0
T5
G00X111.63Y-69.26
M15
G01X111.83Y-69.26
M16
G05
G00X135.63Y-69.26
M15
G01X135.83Y-69.26
M16
G05
T0
M30
