M48
; DRILL file {KiCad 8.0.9-8.0.9-0~ubuntu22.04.1} date 2025-03-25T15:42:07+0100
; FORMAT={-:-/ absolute / metric / decimal}
; #@! TF.CreationDate,2025-03-25T15:42:07+01:00
; #@! TF.GenerationSoftware,Kicad,Pcbnew,8.0.9-8.0.9-0~ubuntu22.04.1
; #@! TF.FileFunction,Plated,1,8,PTH
FMAT,2
METRIC
; #@! TA.AperFunction,Plated,PTH,ViaDrill
T1C0.200
; #@! TA.AperFunction,Plated,PTH,ComponentDrill
T2C0.650
; #@! TA.AperFunction,Plated,PTH,ComponentDrill
T3C2.200
%
G90
G05
T1
X124.0Y-113.0
X124.0Y-115.0
X124.0Y-125.0
X124.0Y-127.0
X125.0Y-110.0
X125.0Y-112.0
X125.0Y-114.0
X125.0Y-116.0
X125.0Y-124.0
X125.0Y-126.0
X125.0Y-128.0
X125.0Y-130.0
X126.0Y-109.0
X126.0Y-111.0
X126.0Y-113.0
X126.0Y-115.0
X126.0Y-117.0
X126.0Y-123.0
X126.0Y-125.0
X126.0Y-127.0
X126.0Y-129.0
X126.0Y-131.0
X127.0Y-106.0
X127.0Y-108.0
X127.0Y-110.0
X127.0Y-112.0
X127.0Y-114.0
X127.0Y-116.0
X127.0Y-118.0
X127.0Y-120.0
X127.0Y-122.0
X127.0Y-124.0
X127.0Y-126.0
X127.0Y-128.0
X127.0Y-130.0
X127.0Y-132.0
X127.0Y-134.0
X128.0Y-105.0
X128.0Y-107.0
X128.0Y-109.0
X128.0Y-111.0
X128.0Y-113.0
X128.0Y-115.0
X128.0Y-117.0
X128.0Y-119.0
X128.0Y-121.0
X128.0Y-123.0
X128.0Y-125.0
X128.0Y-127.0
X128.0Y-129.0
X128.0Y-131.0
X128.0Y-133.0
X128.0Y-135.0
X129.0Y-104.0
X129.0Y-106.0
X129.0Y-108.0
X129.0Y-110.0
X129.0Y-112.0
X129.0Y-114.0
X129.0Y-116.0
X129.0Y-118.0
X129.0Y-120.0
X129.0Y-122.0
X129.0Y-124.0
X129.0Y-126.0
X129.0Y-128.0
X129.0Y-130.0
X129.0Y-132.0
X129.0Y-134.0
X129.0Y-136.0
X130.0Y-103.0
X130.0Y-105.0
X130.0Y-107.0
X130.0Y-109.0
X130.0Y-111.0
X130.0Y-113.0
X130.0Y-115.0
X130.0Y-117.0
X130.0Y-119.0
X130.0Y-121.0
X130.0Y-123.0
X130.0Y-125.0
X130.0Y-127.0
X130.0Y-129.0
X130.0Y-131.0
X130.0Y-133.0
X130.0Y-135.0
X131.0Y-104.0
X131.0Y-106.0
X131.0Y-108.0
X131.0Y-110.0
X131.0Y-112.0
X131.0Y-114.0
X131.0Y-116.0
X131.0Y-118.0
X131.0Y-120.0
X131.0Y-122.0
X131.0Y-124.0
X131.0Y-130.0
X131.0Y-132.0
X131.0Y-134.0
X132.0Y-105.0
X132.0Y-107.0
X132.0Y-129.3
X132.0Y-131.0
X132.0Y-133.0
X132.0Y-135.0
X132.5Y-125.5
X132.5Y-126.5
X132.75Y-99.5
X133.0Y-104.0
X133.0Y-106.0
X133.0Y-108.0
X133.0Y-110.0
X133.0Y-112.0
X133.0Y-114.0
X133.0Y-116.0
X133.0Y-118.0
X133.0Y-120.0
X133.0Y-122.0
X133.0Y-125.0
X133.0Y-126.0
X133.0Y-127.0
X133.0Y-130.0
X133.0Y-132.0
X133.0Y-134.0
X133.5Y-98.75
X133.5Y-125.5
X133.5Y-126.5
X133.75Y-129.0
X134.0Y-125.0
X134.0Y-126.0
X134.0Y-127.0
X134.0Y-131.0
X134.0Y-133.0
X134.0Y-135.0
X134.0Y-141.0
X134.25Y-99.5
X134.5Y-98.0
X134.5Y-104.0
X134.5Y-105.0
X134.5Y-125.5
X134.5Y-126.5
X135.0Y-98.75
X135.0Y-100.0
X135.0Y-106.0
X135.0Y-108.0
X135.0Y-115.75
X135.0Y-116.75
X135.0Y-117.75
X135.0Y-128.0
X135.0Y-129.0
X135.0Y-132.0
X135.0Y-134.0
X135.0Y-136.0
X135.0Y-138.0
X135.0Y-140.0
X135.0Y-142.0
X135.225Y-102.7
X135.5Y-110.0
X135.5Y-112.0
X135.5Y-114.0
X135.5Y-124.5
X135.5Y-127.5
X135.5Y-128.5
X135.5Y-129.5
X135.5Y-130.5
X135.5Y-131.5
X135.75Y-98.0
X135.75Y-99.5
X135.82Y-105.4
X136.0Y-106.9
X136.0Y-111.0
X136.0Y-113.0
X136.0Y-120.0
X136.0Y-122.0
X136.0Y-125.0
X136.0Y-126.0
X136.0Y-127.0
X136.0Y-128.0
X136.0Y-129.0
X136.0Y-130.0
X136.0Y-131.0
X136.0Y-133.0
X136.0Y-135.0
X136.0Y-137.0
X136.0Y-139.0
X136.0Y-141.0
X136.0Y-143.0
X136.5Y-125.5
X136.5Y-126.5
X136.5Y-127.5
X136.5Y-128.5
X136.5Y-129.5
X136.5Y-130.5
X136.5Y-131.5
X136.525Y-102.7
X137.0Y-98.0
X137.0Y-100.0
X137.0Y-106.0
X137.0Y-108.0
X137.0Y-110.0
X137.0Y-116.75
X137.0Y-119.0
X137.0Y-126.0
X137.0Y-127.0
X137.0Y-128.0
X137.0Y-129.0
X137.0Y-134.0
X137.0Y-136.0
X137.0Y-138.0
X137.0Y-140.0
X137.0Y-142.0
X137.18Y-122.96
X137.4Y-120.86
X137.4Y-121.5
X137.5Y-97.0
X137.5Y-99.0
X137.75Y-104.5
X137.9Y-120.2
X138.0Y-96.0
X138.0Y-98.0
X138.0Y-100.0
X138.0Y-107.0
X138.0Y-111.0
X138.0Y-113.25
X138.0Y-124.0
X138.0Y-126.5
X138.0Y-128.5
X138.0Y-130.0
X138.0Y-131.0
X138.0Y-132.0
X138.0Y-133.0
X138.0Y-135.0
X138.0Y-137.0
X138.0Y-139.0
X138.0Y-141.0
X138.0Y-143.0
X138.0Y-145.0
X138.2Y-122.5
X138.25Y-103.5
X138.45Y-118.86
X138.5Y-97.0
X138.5Y-99.0
X138.6Y-133.0
X139.0Y-96.0
X139.0Y-98.0
X139.0Y-100.0
X139.0Y-106.0
X139.0Y-108.0
X139.0Y-110.0
X139.0Y-116.75
X139.0Y-125.0
X139.0Y-127.5
X139.0Y-136.0
X139.0Y-138.0
X139.0Y-140.0
X139.0Y-142.0
X139.0Y-144.0
X139.0Y-146.0
X139.4Y-119.5
X139.4Y-122.0
X139.5Y-97.0
X139.5Y-99.0
X139.5Y-101.0
X139.75Y-130.0
X140.0Y-96.0
X140.0Y-98.0
X140.0Y-100.0
X140.0Y-107.0
X140.0Y-111.0
X140.0Y-113.25
X140.0Y-123.6
X140.0Y-126.0
X140.0Y-135.0
X140.0Y-137.0
X140.0Y-139.0
X140.0Y-141.0
X140.0Y-143.0
X140.0Y-145.0
X140.0Y-147.0
X140.5Y-95.0
X140.5Y-97.0
X140.5Y-99.0
X140.5Y-101.0
X140.5Y-119.3
X140.5Y-120.0
X140.5Y-121.0
X140.5Y-122.0
X140.5Y-122.5
X140.52Y-130.5
X141.0Y-96.0
X141.0Y-98.0
X141.0Y-100.0
X141.0Y-106.0
X141.0Y-108.0
X141.0Y-110.0
X141.0Y-124.0
X141.0Y-127.5
X141.0Y-136.0
X141.0Y-138.0
X141.0Y-141.9
X141.0Y-144.0
X141.0Y-146.0
X141.2Y-130.0
X141.5Y-95.0
X141.5Y-97.0
X141.5Y-99.0
X141.5Y-101.0
X141.5Y-133.0
X141.9Y-121.5
X142.0Y-96.0
X142.0Y-98.0
X142.0Y-100.0
X142.0Y-107.0
X142.0Y-111.0
X142.0Y-112.25
X142.0Y-113.25
X142.0Y-114.25
X142.0Y-125.0
X142.0Y-137.0
X142.0Y-139.0
X142.0Y-141.0
X142.0Y-143.0
X142.0Y-145.0
X142.0Y-147.0
X142.2Y-118.9
X142.5Y-95.0
X142.5Y-97.0
X142.5Y-99.0
X142.5Y-101.0
X142.5Y-134.0
X142.5Y-136.1
X142.6Y-120.5
X142.6Y-122.18
X142.6Y-122.82
X143.0Y-94.0
X143.0Y-96.0
X143.0Y-98.0
X143.0Y-100.0
X143.0Y-104.3
X143.0Y-115.75
X143.0Y-116.75
X143.0Y-117.75
X143.0Y-124.0
X143.0Y-132.0
X143.0Y-138.0
X143.0Y-140.0
X143.5Y-100.8
X143.5Y-110.2
X144.0Y-95.5
X144.0Y-97.5
X144.0Y-99.5
X144.0Y-107.0
X144.0Y-111.0
X144.0Y-123.0
X144.0Y-131.0
X144.0Y-137.0
X144.0Y-139.0
X144.0Y-141.0
X144.0Y-143.0
X144.0Y-145.0
X144.0Y-147.0
X144.1Y-129.25
X144.5Y-94.4
X144.5Y-96.5
X144.5Y-98.5
X144.7Y-121.7
X145.0Y-93.5
X145.0Y-95.5
X145.0Y-97.5
X145.0Y-99.5
X145.0Y-106.0
X145.0Y-108.0
X145.0Y-110.0
X145.0Y-112.0
X145.0Y-114.0
X145.0Y-117.5
X145.0Y-124.0
X145.0Y-130.0
X145.0Y-132.0
X145.0Y-138.0
X145.0Y-140.0
X145.0Y-142.0
X145.0Y-144.0
X145.0Y-146.0
X145.0Y-148.0
X145.225Y-102.7
X145.25Y-135.7
X145.5Y-94.4
X145.5Y-96.5
X145.5Y-98.5
X145.5Y-127.5
X145.712Y-137.0
X145.82Y-105.4
X146.0Y-93.5
X146.0Y-95.5
X146.0Y-97.5
X146.0Y-99.5
X146.0Y-107.0
X146.0Y-111.0
X146.0Y-113.0
X146.0Y-115.0
X146.0Y-119.0
X146.0Y-121.0
X146.0Y-123.0
X146.0Y-124.5
X146.0Y-127.0
X146.0Y-128.0
X146.0Y-129.0
X146.0Y-130.0
X146.0Y-131.0
X146.0Y-143.0
X146.0Y-145.0
X146.0Y-147.0
X146.0Y-149.0
X146.288Y-137.0
X146.4Y-128.5
X146.5Y-129.5
X146.525Y-102.7
X147.0Y-94.0
X147.0Y-96.0
X147.0Y-98.0
X147.0Y-100.0
X147.0Y-106.0
X147.0Y-108.0
X147.0Y-110.0
X147.0Y-112.0
X147.0Y-114.0
X147.0Y-118.0
X147.0Y-120.0
X147.0Y-122.0
X147.0Y-124.5
X147.0Y-127.0
X147.0Y-128.0
X147.0Y-129.0
X147.0Y-130.0
X147.0Y-132.0
X147.0Y-133.0
X147.0Y-134.0
X147.0Y-135.0
X147.0Y-138.0
X147.0Y-140.0
X147.0Y-141.0
X147.0Y-144.0
X147.0Y-146.0
X147.0Y-148.0
X147.3Y-116.75
X147.4Y-133.5
X147.5Y-95.0
X147.5Y-97.0
X147.5Y-99.0
X147.5Y-128.5
X147.5Y-129.5
X147.5Y-132.5
X147.5Y-134.5
X147.5Y-142.0
X147.712Y-137.0
X147.75Y-104.5
X147.8Y-121.5
X148.0Y-94.0
X148.0Y-96.0
X148.0Y-98.0
X148.0Y-100.0
X148.0Y-107.0
X148.0Y-111.0
X148.0Y-113.0
X148.0Y-115.0
X148.0Y-124.5
X148.0Y-127.0
X148.0Y-128.0
X148.0Y-129.0
X148.0Y-130.0
X148.0Y-131.0
X148.0Y-133.0
X148.0Y-134.0
X148.0Y-135.0
X148.0Y-143.0
X148.0Y-145.0
X148.0Y-147.0
X148.0Y-149.0
X148.05Y-123.8
X148.25Y-103.5
X148.288Y-137.0
X148.5Y-95.0
X148.5Y-97.0
X148.5Y-99.0
X148.5Y-132.5
X148.5Y-133.5
X148.5Y-134.5
X148.7Y-123.8
X148.8Y-139.975
X149.0Y-94.0
X149.0Y-96.0
X149.0Y-98.0
X149.0Y-100.0
X149.0Y-106.0
X149.0Y-108.0
X149.0Y-110.0
X149.0Y-112.0
X149.0Y-114.0
X149.0Y-116.0
X149.0Y-119.0
X149.0Y-120.0
X149.0Y-124.4
X149.0Y-128.0
X149.0Y-133.0
X149.0Y-134.0
X149.0Y-135.0
X149.0Y-138.0
X149.0Y-143.5
X149.25Y-137.0
X149.35Y-123.8
X149.428Y-138.5
X149.5Y-93.0
X149.5Y-95.0
X149.5Y-97.0
X149.5Y-99.0
X149.5Y-101.0
X149.5Y-121.5
X149.525Y-132.2
X149.75Y-135.7
X150.0Y-94.0
X150.0Y-96.0
X150.0Y-98.0
X150.0Y-100.0
X150.0Y-107.0
X150.0Y-111.0
X150.0Y-113.0
X150.0Y-115.0
X150.0Y-116.15
X150.0Y-118.1
X150.0Y-119.0
X150.0Y-123.8
X150.0Y-127.0
X150.0Y-129.0
X150.0Y-133.5
X150.0Y-141.0
X150.5Y-93.0
X150.5Y-95.0
X150.5Y-97.0
X150.5Y-99.0
X150.5Y-101.0
X150.65Y-115.2
X150.65Y-123.8
X150.75Y-135.7
X151.0Y-94.0
X151.0Y-96.0
X151.0Y-98.0
X151.0Y-100.0
X151.0Y-106.0
X151.0Y-108.0
X151.0Y-112.0
X151.0Y-114.0
X151.0Y-124.4
X151.0Y-138.0
X151.0Y-140.0
X151.0Y-142.0
X151.0Y-143.5
X151.2Y-120.0
X151.2Y-121.6
X151.29Y-115.2
X151.3Y-116.15
X151.3Y-118.1
X151.3Y-123.8
X151.5Y-95.0
X151.5Y-97.0
X151.5Y-99.0
X151.5Y-101.0
X151.5Y-131.5
X151.5Y-133.5
X151.75Y-135.7
X151.95Y-116.15
X151.95Y-123.8
X152.0Y-94.0
X152.0Y-96.0
X152.0Y-98.0
X152.0Y-100.0
X152.0Y-113.0
X152.0Y-115.0
X152.0Y-127.0
X152.0Y-139.0
X152.0Y-141.0
X152.1Y-148.0
X152.38Y-134.5
X152.5Y-95.0
X152.5Y-97.0
X152.5Y-99.0
X152.5Y-101.0
X152.5Y-117.5
X152.5Y-118.5
X152.5Y-132.5
X152.637Y-123.5
X152.75Y-135.7
X153.0Y-94.0
X153.0Y-96.0
X153.0Y-98.0
X153.0Y-100.0
X153.0Y-104.3
X153.0Y-106.0
X153.0Y-108.0
X153.0Y-112.0
X153.0Y-114.0
X153.0Y-116.0
X153.0Y-118.0
X153.0Y-124.5
X153.0Y-126.9
X153.0Y-129.4
X153.0Y-140.0
X153.0Y-142.0
X153.0Y-143.5
X153.1Y-148.0
X153.25Y-137.0
X153.3Y-122.8
X153.5Y-100.8
X153.5Y-110.2
X153.5Y-117.5
X153.75Y-135.7
X154.0Y-93.5
X154.0Y-95.5
X154.0Y-97.5
X154.0Y-99.5
X154.0Y-107.0
X154.0Y-113.0
X154.0Y-115.0
X154.0Y-128.0
X154.0Y-139.0
X154.0Y-141.0
X154.25Y-137.0
X154.4Y-117.4
X154.4Y-118.2
X154.4Y-119.0
X154.4Y-120.6
X154.4Y-122.2
X154.4Y-123.0
X154.4Y-124.6
X154.4Y-129.4
X154.4Y-131.0
X154.4Y-131.8
X154.4Y-132.6
X154.5Y-94.4
X154.5Y-96.5
X154.5Y-98.5
X154.6Y-139.62
X155.0Y-93.5
X155.0Y-95.5
X155.0Y-97.5
X155.0Y-99.5
X155.0Y-106.0
X155.0Y-108.0
X155.0Y-112.0
X155.0Y-114.0
X155.0Y-116.0
X155.0Y-142.0
X155.0Y-143.5
X155.2Y-117.4
X155.2Y-118.2
X155.2Y-119.0
X155.2Y-120.6
X155.2Y-121.4
X155.2Y-123.0
X155.2Y-123.8
X155.2Y-124.6
X155.2Y-127.8
X155.2Y-128.6
X155.2Y-129.4
X155.2Y-131.0
X155.2Y-131.8
X155.2Y-132.6
X155.2Y-136.5
X155.225Y-102.7
X155.5Y-94.4
X155.5Y-96.5
X155.5Y-98.5
X155.675Y-133.4
X155.82Y-105.4
X156.0Y-95.5
X156.0Y-97.5
X156.0Y-99.5
X156.0Y-107.0
X156.0Y-110.25
X156.0Y-113.0
X156.0Y-115.0
X156.0Y-117.402
X156.0Y-120.6
X156.0Y-122.2
X156.0Y-123.0
X156.0Y-123.8
X156.0Y-126.2
X156.0Y-127.8
X156.0Y-128.6
X156.0Y-130.2
X156.0Y-131.0
X156.0Y-132.6
X156.0Y-141.0
X156.315Y-133.4
X156.525Y-102.7
X156.8Y-120.6
X156.8Y-121.4
X156.8Y-122.2
X156.8Y-123.0
X156.8Y-123.8
X156.8Y-125.4
X156.8Y-129.4
X156.975Y-136.7
X156.975Y-138.6
X157.0Y-94.0
X157.0Y-96.0
X157.0Y-98.0
X157.0Y-100.0
X157.0Y-106.0
X157.0Y-108.0
X157.0Y-112.0
X157.0Y-114.0
X157.0Y-116.0
X157.0Y-140.0
X157.0Y-142.0
X157.0Y-143.5
X157.5Y-95.0
X157.5Y-97.0
X157.5Y-99.0
X157.6Y-117.4
X157.6Y-118.2
X157.6Y-120.6
X157.6Y-121.4
X157.6Y-122.2
X157.6Y-123.0
X157.6Y-123.8
X157.6Y-124.6
X157.6Y-126.2
X157.6Y-127.0
X157.6Y-127.8
X157.6Y-128.6
X157.6Y-129.4
X157.6Y-130.2
X157.75Y-104.5
X158.0Y-96.0
X158.0Y-98.0
X158.0Y-100.0
X158.0Y-107.0
X158.0Y-110.25
X158.0Y-113.0
X158.0Y-115.0
X158.0Y-136.0
X158.0Y-138.0
X158.0Y-141.0
X158.1Y-134.7
X158.25Y-103.5
X158.4Y-117.4
X158.4Y-118.2
X158.4Y-120.6
X158.4Y-121.4
X158.4Y-122.2
X158.4Y-123.0
X158.4Y-123.8
X158.4Y-124.6
X158.4Y-125.4
X158.4Y-127.8
X158.4Y-128.6
X158.4Y-129.4
X158.4Y-130.2
X158.5Y-95.0
X158.5Y-97.0
X158.5Y-99.0
X158.5Y-133.0
X158.8Y-116.08
X159.0Y-96.0
X159.0Y-98.0
X159.0Y-100.0
X159.0Y-106.0
X159.0Y-108.0
X159.0Y-112.0
X159.0Y-114.0
X159.0Y-135.0
X159.0Y-143.5
X159.025Y-137.7
X159.2Y-117.4
X159.2Y-118.2
X159.2Y-119.0
X159.2Y-120.6
X159.2Y-121.4
X159.2Y-122.2
X159.2Y-123.0
X159.2Y-123.8
X159.2Y-124.6
X159.2Y-125.4
X159.2Y-126.2
X159.2Y-127.0
X159.2Y-128.6
X159.2Y-129.4
X159.2Y-130.2
X159.2Y-131.0
X159.2Y-132.6
X159.2Y-145.5
X159.3Y-141.0
X159.5Y-95.0
X159.5Y-97.0
X159.5Y-99.0
X159.5Y-101.0
X159.5Y-134.5
X159.5Y-135.5
X159.675Y-133.0
X159.712Y-137.6
X160.0Y-96.0
X160.0Y-98.0
X160.0Y-100.0
X160.0Y-107.0
X160.0Y-110.25
X160.0Y-113.0
X160.0Y-115.0
X160.0Y-117.4
X160.0Y-118.2
X160.0Y-120.6
X160.0Y-121.4
X160.0Y-122.2
X160.0Y-123.8
X160.0Y-124.6
X160.0Y-125.4
X160.0Y-126.2
X160.0Y-127.0
X160.0Y-128.6
X160.0Y-129.4
X160.0Y-130.2
X160.0Y-135.0
X160.1Y-145.5
X160.288Y-137.6
X160.5Y-97.0
X160.5Y-99.0
X160.5Y-101.0
X160.5Y-134.5
X160.5Y-135.5
X160.8Y-117.4
X160.8Y-118.2
X160.8Y-120.6
X160.8Y-121.4
X160.8Y-122.2
X160.8Y-123.8
X160.8Y-124.6
X160.8Y-125.4
X160.8Y-126.2
X160.8Y-127.0
X160.8Y-128.6
X160.8Y-129.4
X160.8Y-130.2
X160.8Y-141.675
X161.0Y-96.0
X161.0Y-98.0
X161.0Y-100.0
X161.0Y-106.0
X161.0Y-108.0
X161.0Y-112.0
X161.0Y-114.0
X161.0Y-116.0
X161.0Y-135.0
X161.0Y-136.0
X161.0Y-138.0
X161.0Y-143.5
X161.5Y-97.0
X161.5Y-99.0
X161.5Y-101.0
X161.6Y-120.6
X161.6Y-121.4
X161.6Y-122.2
X161.6Y-123.8
X161.6Y-124.6
X161.6Y-125.4
X161.6Y-126.2
X161.6Y-127.0
X161.6Y-128.6
X161.6Y-129.4
X161.6Y-130.2
X161.6Y-131.8
X161.6Y-132.6
X161.7Y-133.3
X161.7Y-134.9
X161.85Y-141.0
X162.0Y-96.0
X162.0Y-98.0
X162.0Y-100.0
X162.0Y-107.0
X162.0Y-110.25
X162.0Y-113.0
X162.0Y-115.0
X162.0Y-137.0
X162.0Y-139.0
X162.0Y-142.0
X162.4Y-117.4
X162.4Y-120.6
X162.4Y-121.4
X162.4Y-122.2
X162.4Y-123.8
X162.4Y-124.6
X162.4Y-125.4
X162.4Y-126.2
X162.4Y-127.0
X162.4Y-127.8
X162.4Y-128.6
X162.4Y-129.4
X162.4Y-130.2
X162.4Y-131.8
X162.5Y-97.0
X162.5Y-99.0
X162.5Y-101.0
X162.5Y-143.5
X163.0Y-98.0
X163.0Y-100.0
X163.0Y-104.3
X163.0Y-106.0
X163.0Y-108.0
X163.0Y-114.0
X163.0Y-116.0
X163.0Y-136.0
X163.0Y-138.0
X163.0Y-140.0
X163.2Y-117.4
X163.2Y-118.2
X163.2Y-120.6
X163.2Y-121.4
X163.2Y-122.2
X163.2Y-123.8
X163.2Y-124.6
X163.2Y-125.4
X163.2Y-126.2
X163.2Y-127.0
X163.2Y-127.8
X163.2Y-128.6
X163.2Y-129.4
X163.2Y-130.2
X163.2Y-131.0
X163.2Y-131.8
X163.2Y-132.6
X163.5Y-100.8
X164.0Y-97.0
X164.0Y-99.0
X164.0Y-107.0
X164.0Y-115.0
X164.0Y-117.0
X164.0Y-120.6
X164.0Y-121.4
X164.0Y-122.2
X164.0Y-124.6
X164.0Y-125.4
X164.0Y-126.2
X164.0Y-127.0
X164.0Y-127.8
X164.0Y-128.6
X164.0Y-129.4
X164.0Y-130.2
X164.0Y-131.0
X164.0Y-135.4
X164.0Y-137.0
X164.0Y-139.0
X164.0Y-141.0
X164.0Y-143.0
X164.4Y-125.0
X164.4Y-125.8
X164.5Y-111.75
X164.7Y-134.8
X164.8Y-121.4
X164.8Y-122.2
X164.8Y-123.0
X164.8Y-123.8
X164.8Y-126.2
X164.8Y-127.0
X164.8Y-127.8
X164.8Y-128.6
X164.8Y-129.4
X164.8Y-130.2
X164.8Y-131.0
X164.95Y-135.868
X165.0Y-98.0
X165.0Y-100.0
X165.0Y-102.0
X165.0Y-104.0
X165.0Y-106.0
X165.0Y-108.0
X165.0Y-114.0
X165.0Y-116.0
X165.0Y-133.0
X165.0Y-138.0
X165.0Y-142.0
X165.5Y-111.75
X165.5Y-112.75
X165.6Y-118.2
X165.6Y-120.6
X165.6Y-121.4
X165.6Y-122.2
X165.6Y-123.0
X165.6Y-123.8
X165.6Y-124.6
X165.6Y-125.4
X165.6Y-126.2
X165.6Y-127.0
X165.6Y-127.8
X165.6Y-128.6
X165.6Y-129.4
X165.6Y-130.2
X165.6Y-131.8
X165.6Y-132.6
X165.65Y-135.868
X165.981Y-100.991
X166.0Y-99.0
X166.0Y-103.0
X166.0Y-107.0
X166.0Y-111.25
X166.0Y-112.25
X166.0Y-113.25
X166.0Y-141.0
X166.18Y-116.0
X166.4Y-117.4
X166.4Y-119.0
X166.4Y-121.4
X166.4Y-122.2
X166.4Y-123.0
X166.4Y-123.8
X166.4Y-124.6
X166.4Y-125.4
X166.4Y-126.2
X166.4Y-127.0
X166.4Y-127.8
X166.4Y-128.6
X166.4Y-129.4
X166.4Y-130.2
X166.75Y-109.71
X166.911Y-133.09
X166.98Y-99.961
X167.0Y-104.0
X167.0Y-114.0
X167.2Y-119.8
X167.2Y-122.2
X167.2Y-123.0
X167.2Y-123.8
X167.2Y-124.6
X167.2Y-125.4
X167.2Y-127.0
X167.2Y-131.8
X167.488Y-133.09
X167.5Y-107.0
X167.61Y-116.0
X168.0Y-105.0
X168.0Y-108.0
X168.0Y-111.0
X168.0Y-113.0
X168.0Y-118.2
X168.0Y-119.0
X168.0Y-122.2
X168.0Y-127.0
X168.0Y-130.2
X168.0Y-135.0
X168.5Y-112.0
X168.7Y-108.0
X168.8Y-117.4
X168.8Y-118.2
X168.8Y-119.0
X168.8Y-122.2
X168.8Y-124.6
X168.8Y-125.4
X168.8Y-126.2
X168.8Y-129.4
X168.8Y-131.0
X168.8Y-131.8
X169.0Y-104.0
X169.0Y-106.0
X169.0Y-111.0
X169.0Y-113.0
X169.0Y-116.5
X169.0Y-134.0
X169.5Y-112.0
X169.6Y-122.2
X169.6Y-124.6
X169.6Y-125.4
X169.6Y-131.0
X169.6Y-131.8
X170.0Y-103.0
X170.0Y-105.0
X170.0Y-111.0
X170.0Y-113.0
X170.0Y-121.0
X170.0Y-124.0
X170.0Y-126.0
X170.0Y-127.0
X170.0Y-128.6
X170.0Y-130.0
X170.0Y-133.0
X170.0Y-135.0
X170.5Y-112.0
X170.5Y-116.5
X170.75Y-115.75
X171.0Y-104.0
X171.0Y-113.0
X171.0Y-120.0
X171.0Y-122.0
X171.0Y-132.0
X171.0Y-134.0
X171.0Y-136.0
X171.2Y-111.25
X171.25Y-115.25
X172.0Y-105.0
X172.0Y-106.75
X172.0Y-107.75
X172.0Y-119.0
X172.0Y-121.0
X172.0Y-135.0
X172.75Y-112.25
X173.0Y-106.0
X173.0Y-116.0
X173.0Y-118.0
X173.0Y-120.0
X173.0Y-122.0
X173.0Y-132.0
X173.0Y-134.0
X173.25Y-112.75
X173.75Y-113.25
X174.0Y-111.0
X174.0Y-115.0
X174.0Y-117.0
X174.0Y-129.0
X174.0Y-131.0
X174.25Y-113.75
X175.0Y-110.0
X175.0Y-112.0
X175.0Y-114.0
X175.0Y-116.0
X175.0Y-130.0
X176.0Y-113.0
X176.0Y-115.0
X176.0Y-125.0
X176.0Y-127.0
T2
X172.365Y-123.595
X172.365Y-124.865
X172.365Y-127.405
X173.635Y-123.595
X173.635Y-124.865
X173.635Y-126.135
X173.635Y-127.405
T3
X132.0Y-101.95
X132.0Y-137.95
X168.0Y-101.95
X168.0Y-137.95
M30
