%TF.GenerationSoftware,KiCad,Pcbnew,8.0.9-8.0.9-0~ubuntu22.04.1*%
%TF.CreationDate,2025-03-25T15:42:12+01:00*%
%TF.ProjectId,omodri_sa_v2_laas,6f6d6f64-7269-45f7-9361-5f76325f6c61,1.0*%
%TF.SameCoordinates,Original*%
%TF.FileFunction,Soldermask,Top*%
%TF.FilePolarity,Negative*%
%FSLAX46Y46*%
G04 Gerber Fmt 4.6, Leading zero omitted, Abs format (unit mm)*
G04 Created by KiCad (PCBNEW 8.0.9-8.0.9-0~ubuntu22.04.1) date 2025-03-25 15:42:12*
%MOMM*%
%LPD*%
G01*
G04 APERTURE LIST*
G04 Aperture macros list*
%AMRoundRect*
0 Rectangle with rounded corners*
0 $1 Rounding radius*
0 $2 $3 $4 $5 $6 $7 $8 $9 X,Y pos of 4 corners*
0 Add a 4 corners polygon primitive as box body*
4,1,4,$2,$3,$4,$5,$6,$7,$8,$9,$2,$3,0*
0 Add four circle primitives for the rounded corners*
1,1,$1+$1,$2,$3*
1,1,$1+$1,$4,$5*
1,1,$1+$1,$6,$7*
1,1,$1+$1,$8,$9*
0 Add four rect primitives between the rounded corners*
20,1,$1+$1,$2,$3,$4,$5,0*
20,1,$1+$1,$4,$5,$6,$7,0*
20,1,$1+$1,$6,$7,$8,$9,0*
20,1,$1+$1,$8,$9,$2,$3,0*%
%AMFreePoly0*
4,1,6,1.000000,0.000000,0.500000,-0.750000,-0.500000,-0.750000,-0.500000,0.750000,0.500000,0.750000,1.000000,0.000000,1.000000,0.000000,$1*%
%AMFreePoly1*
4,1,6,0.500000,-0.750000,-0.650000,-0.750000,-0.150000,0.000000,-0.650000,0.750000,0.500000,0.750000,0.500000,-0.750000,0.500000,-0.750000,$1*%
G04 Aperture macros list end*
%ADD10C,0.120000*%
%ADD11RoundRect,0.140000X0.140000X0.170000X-0.140000X0.170000X-0.140000X-0.170000X0.140000X-0.170000X0*%
%ADD12RoundRect,0.100000X-0.130000X-0.100000X0.130000X-0.100000X0.130000X0.100000X-0.130000X0.100000X0*%
%ADD13RoundRect,0.250000X-1.100000X0.325000X-1.100000X-0.325000X1.100000X-0.325000X1.100000X0.325000X0*%
%ADD14RoundRect,0.250000X-0.325000X-0.650000X0.325000X-0.650000X0.325000X0.650000X-0.325000X0.650000X0*%
%ADD15RoundRect,0.225000X-0.250000X0.225000X-0.250000X-0.225000X0.250000X-0.225000X0.250000X0.225000X0*%
%ADD16RoundRect,0.100000X0.100000X-0.130000X0.100000X0.130000X-0.100000X0.130000X-0.100000X-0.130000X0*%
%ADD17RoundRect,0.100000X-0.100000X0.130000X-0.100000X-0.130000X0.100000X-0.130000X0.100000X0.130000X0*%
%ADD18RoundRect,0.200000X-0.200000X-0.275000X0.200000X-0.275000X0.200000X0.275000X-0.200000X0.275000X0*%
%ADD19R,0.250000X0.800000*%
%ADD20R,0.250000X0.700000*%
%ADD21R,1.100000X0.250000*%
%ADD22R,0.700000X0.250000*%
%ADD23R,2.700000X1.150000*%
%ADD24R,0.350000X1.150000*%
%ADD25R,0.250000X0.550000*%
%ADD26R,0.200000X0.550000*%
%ADD27R,0.600000X0.300000*%
%ADD28RoundRect,0.100000X0.130000X0.100000X-0.130000X0.100000X-0.130000X-0.100000X0.130000X-0.100000X0*%
%ADD29R,0.249999X0.700001*%
%ADD30R,0.375001X0.429999*%
%ADD31R,5.399999X3.300001*%
%ADD32C,2.600000*%
%ADD33C,3.800000*%
%ADD34RoundRect,0.250000X-0.450000X0.262500X-0.450000X-0.262500X0.450000X-0.262500X0.450000X0.262500X0*%
%ADD35R,0.675000X0.250000*%
%ADD36R,0.250000X0.675000*%
%ADD37RoundRect,0.125000X-0.125000X0.537500X-0.125000X-0.537500X0.125000X-0.537500X0.125000X0.537500X0*%
%ADD38R,0.400000X0.250000*%
%ADD39R,0.400000X0.700000*%
%ADD40R,0.800000X0.250000*%
%ADD41R,0.250000X1.100000*%
%ADD42RoundRect,0.225000X0.250000X-0.225000X0.250000X0.225000X-0.250000X0.225000X-0.250000X-0.225000X0*%
%ADD43RoundRect,0.147500X0.147500X0.172500X-0.147500X0.172500X-0.147500X-0.172500X0.147500X-0.172500X0*%
%ADD44RoundRect,0.140000X-0.170000X0.140000X-0.170000X-0.140000X0.170000X-0.140000X0.170000X0.140000X0*%
%ADD45R,0.550000X0.550000*%
%ADD46R,0.550000X0.250000*%
%ADD47R,0.900000X2.900000*%
%ADD48R,1.000000X1.000000*%
%ADD49C,1.000000*%
%ADD50R,0.800000X0.700000*%
%ADD51RoundRect,0.140000X0.170000X-0.140000X0.170000X0.140000X-0.170000X0.140000X-0.170000X-0.140000X0*%
%ADD52C,0.400000*%
%ADD53RoundRect,0.150000X-0.512500X-0.150000X0.512500X-0.150000X0.512500X0.150000X-0.512500X0.150000X0*%
%ADD54R,0.762000X0.508000*%
%ADD55RoundRect,0.225000X0.225000X0.250000X-0.225000X0.250000X-0.225000X-0.250000X0.225000X-0.250000X0*%
%ADD56RoundRect,0.225000X-0.225000X-0.250000X0.225000X-0.250000X0.225000X0.250000X-0.225000X0.250000X0*%
%ADD57FreePoly0,180.000000*%
%ADD58FreePoly1,180.000000*%
%ADD59RoundRect,0.140000X-0.140000X-0.170000X0.140000X-0.170000X0.140000X0.170000X-0.140000X0.170000X0*%
%ADD60RoundRect,0.062500X-0.062500X0.375000X-0.062500X-0.375000X0.062500X-0.375000X0.062500X0.375000X0*%
%ADD61RoundRect,0.062500X-0.375000X0.062500X-0.375000X-0.062500X0.375000X-0.062500X0.375000X0.062500X0*%
%ADD62R,3.450000X3.450000*%
%ADD63C,0.800000*%
%ADD64R,1.700000X0.900000*%
%ADD65R,3.400000X1.800000*%
%ADD66RoundRect,0.100000X-0.100000X0.225000X-0.100000X-0.225000X0.100000X-0.225000X0.100000X0.225000X0*%
G04 APERTURE END LIST*
D10*
%TO.C,U13*%
X142250000Y-128475000D02*
X143250000Y-128475000D01*
X142250000Y-130025000D02*
X143250000Y-130025000D01*
%TO.C,Q1*%
X162575000Y-105250000D02*
X158425000Y-105250000D01*
X158425000Y-104950000D01*
X162575000Y-104950000D01*
X162575000Y-105250000D01*
G36*
X162575000Y-105250000D02*
G01*
X158425000Y-105250000D01*
X158425000Y-104950000D01*
X162575000Y-104950000D01*
X162575000Y-105250000D01*
G37*
X162575000Y-109550000D02*
X158425000Y-109550000D01*
X158425000Y-109250000D01*
X162575000Y-109250000D01*
X162575000Y-109550000D01*
G36*
X162575000Y-109550000D02*
G01*
X158425000Y-109550000D01*
X158425000Y-109250000D01*
X162575000Y-109250000D01*
X162575000Y-109550000D01*
G37*
%TO.C,Q2*%
X152575000Y-105250000D02*
X148425000Y-105250000D01*
X148425000Y-104950000D01*
X152575000Y-104950000D01*
X152575000Y-105250000D01*
G36*
X152575000Y-105250000D02*
G01*
X148425000Y-105250000D01*
X148425000Y-104950000D01*
X152575000Y-104950000D01*
X152575000Y-105250000D01*
G37*
X152575000Y-109550000D02*
X148425000Y-109550000D01*
X148425000Y-109250000D01*
X152575000Y-109250000D01*
X152575000Y-109550000D01*
G36*
X152575000Y-109550000D02*
G01*
X148425000Y-109550000D01*
X148425000Y-109250000D01*
X152575000Y-109250000D01*
X152575000Y-109550000D01*
G37*
%TO.C,Q3*%
X142575000Y-105250000D02*
X138425000Y-105250000D01*
X138425000Y-104950000D01*
X142575000Y-104950000D01*
X142575000Y-105250000D01*
G36*
X142575000Y-105250000D02*
G01*
X138425000Y-105250000D01*
X138425000Y-104950000D01*
X142575000Y-104950000D01*
X142575000Y-105250000D01*
G37*
X142575000Y-109550000D02*
X138425000Y-109550000D01*
X138425000Y-109250000D01*
X142575000Y-109250000D01*
X142575000Y-109550000D01*
G36*
X142575000Y-109550000D02*
G01*
X138425000Y-109550000D01*
X138425000Y-109250000D01*
X142575000Y-109250000D01*
X142575000Y-109550000D01*
G37*
%TO.C,U14*%
X141725000Y-134250000D02*
X141725000Y-135250000D01*
X143275000Y-134250000D02*
X143275000Y-135250000D01*
%TD*%
D11*
%TO.C,C51*%
X174080000Y-111100000D03*
X173120000Y-111100000D03*
%TD*%
D12*
%TO.C,C50*%
X170930000Y-108400000D03*
X171570000Y-108400000D03*
%TD*%
D13*
%TO.C,C82*%
X146000000Y-107525000D03*
X146000000Y-110475000D03*
%TD*%
D14*
%TO.C,C76*%
X130025000Y-110500000D03*
X132975000Y-110500000D03*
%TD*%
D15*
%TO.C,C53*%
X173400000Y-108375000D03*
X173400000Y-109925000D03*
%TD*%
D12*
%TO.C,C52*%
X173380000Y-112000000D03*
X174020000Y-112000000D03*
%TD*%
D14*
%TO.C,C71*%
X130025000Y-123000000D03*
X132975000Y-123000000D03*
%TD*%
D16*
%TO.C,C66*%
X137900000Y-121500000D03*
X137900000Y-120860000D03*
%TD*%
D17*
%TO.C,C55*%
X148300000Y-102180000D03*
X148300000Y-102820000D03*
%TD*%
D18*
%TO.C,FB3*%
X145675000Y-133000000D03*
X147325000Y-133000000D03*
%TD*%
D17*
%TO.C,R1*%
X142100000Y-122180000D03*
X142100000Y-122820000D03*
%TD*%
D19*
%TO.C,U13*%
X141750000Y-130200000D03*
D20*
X142250000Y-130250000D03*
X142750000Y-130250000D03*
X143250000Y-130250000D03*
D21*
X143250000Y-129250000D03*
D20*
X143250000Y-128250000D03*
X142750000Y-128250000D03*
X142250000Y-128250000D03*
X141750000Y-128250000D03*
D22*
X141550000Y-129250000D03*
%TD*%
D23*
%TO.C,R27*%
X140775000Y-103275000D03*
D24*
X138950000Y-103275000D03*
X138950000Y-101725000D03*
D23*
X140775000Y-101725000D03*
%TD*%
D25*
%TO.C,U5*%
X160400000Y-140325000D03*
D26*
X159900000Y-140325000D03*
X159400000Y-140325000D03*
D25*
X158900000Y-140325000D03*
D27*
X158750000Y-141000000D03*
D25*
X158900000Y-141675000D03*
D26*
X159400000Y-141675000D03*
X159900000Y-141675000D03*
D25*
X160400000Y-141675000D03*
D27*
X160550000Y-141000000D03*
%TD*%
D28*
%TO.C,R25*%
X168250000Y-115500000D03*
X167610000Y-115500000D03*
%TD*%
D29*
%TO.C,Q1*%
X163500000Y-104900000D03*
X163000001Y-104900000D03*
X162500000Y-104900000D03*
X162000001Y-104900000D03*
X161499999Y-104900000D03*
X161000000Y-104900000D03*
X160500001Y-104900000D03*
X159999999Y-104900000D03*
X159500000Y-104900000D03*
X158999999Y-104900000D03*
X158500000Y-104900000D03*
X158500000Y-109600000D03*
X158999999Y-109600000D03*
X159500000Y-109600000D03*
X159999999Y-109600000D03*
X160500001Y-109600000D03*
X161000000Y-109600000D03*
X161499999Y-109600000D03*
X162000001Y-109600000D03*
X162500000Y-109600000D03*
X163000001Y-109600000D03*
X163500000Y-109600000D03*
D30*
X164012999Y-105135000D03*
X157987001Y-105135000D03*
X157987001Y-109365000D03*
X164012999Y-109365000D03*
D31*
X161000000Y-107250000D03*
%TD*%
D28*
%TO.C,R43*%
X139715000Y-133000000D03*
X139075000Y-133000000D03*
%TD*%
%TO.C,R44*%
X140520000Y-131700000D03*
X139880000Y-131700000D03*
%TD*%
D32*
%TO.C,H1*%
X132000000Y-137950000D03*
D33*
X132000000Y-137950000D03*
%TD*%
D34*
%TO.C,R15*%
X163500000Y-101587500D03*
X163500000Y-103412500D03*
%TD*%
D23*
%TO.C,R16*%
X160775000Y-103275000D03*
D24*
X158950000Y-103275000D03*
X158950000Y-101725000D03*
D23*
X160775000Y-101725000D03*
%TD*%
D17*
%TO.C,R52*%
X147800000Y-118410000D03*
X147800000Y-119050000D03*
%TD*%
D16*
%TO.C,C63*%
X161350000Y-141000000D03*
X161350000Y-140360000D03*
%TD*%
%TO.C,R50*%
X143500000Y-119050000D03*
X143500000Y-118410000D03*
%TD*%
%TO.C,C65*%
X142100000Y-120500000D03*
X142100000Y-119860000D03*
%TD*%
D35*
%TO.C,U7*%
X141262500Y-119500000D03*
X141262500Y-120000000D03*
X141262500Y-120500000D03*
X141262500Y-121000000D03*
X141262500Y-121500000D03*
X141262500Y-122000000D03*
X141262500Y-122500000D03*
D36*
X140000000Y-123012500D03*
D35*
X138737500Y-122500000D03*
X138737500Y-122000000D03*
X138737500Y-121500000D03*
X138737500Y-121000000D03*
X138737500Y-120500000D03*
X138737500Y-120000000D03*
X138737500Y-119500000D03*
D36*
X140000000Y-118987500D03*
%TD*%
D16*
%TO.C,R49*%
X144400000Y-132920000D03*
X144400000Y-132280000D03*
%TD*%
%TO.C,R37*%
X167200000Y-134820000D03*
X167200000Y-134180000D03*
%TD*%
D17*
%TO.C,R53*%
X144200000Y-118410000D03*
X144200000Y-119050000D03*
%TD*%
D18*
%TO.C,FB1*%
X144675000Y-128500000D03*
X146325000Y-128500000D03*
%TD*%
%TO.C,FB2*%
X144675000Y-126000000D03*
X146325000Y-126000000D03*
%TD*%
D16*
%TO.C,R30*%
X155025000Y-139620000D03*
X155025000Y-138980000D03*
%TD*%
D34*
%TO.C,R18*%
X153500000Y-101587500D03*
X153500000Y-103412500D03*
%TD*%
D37*
%TO.C,U4*%
X156975000Y-135362500D03*
X156325000Y-135362500D03*
X155675000Y-135362500D03*
X155025000Y-135362500D03*
X155025000Y-137637500D03*
X155675000Y-137637500D03*
X156325000Y-137637500D03*
X156975000Y-137637500D03*
%TD*%
D23*
%TO.C,R19*%
X150775000Y-103275000D03*
D24*
X148950000Y-103275000D03*
X148950000Y-101725000D03*
D23*
X150775000Y-101725000D03*
%TD*%
D28*
%TO.C,R45*%
X140520000Y-131000000D03*
X139880000Y-131000000D03*
%TD*%
D17*
%TO.C,C47*%
X158300000Y-102180000D03*
X158300000Y-102820000D03*
%TD*%
D29*
%TO.C,Q2*%
X153500000Y-104900000D03*
X153000001Y-104900000D03*
X152500000Y-104900000D03*
X152000001Y-104900000D03*
X151499999Y-104900000D03*
X151000000Y-104900000D03*
X150500001Y-104900000D03*
X149999999Y-104900000D03*
X149500000Y-104900000D03*
X148999999Y-104900000D03*
X148500000Y-104900000D03*
X148500000Y-109600000D03*
X148999999Y-109600000D03*
X149500000Y-109600000D03*
X149999999Y-109600000D03*
X150500001Y-109600000D03*
X151000000Y-109600000D03*
X151499999Y-109600000D03*
X152000001Y-109600000D03*
X152500000Y-109600000D03*
X153000001Y-109600000D03*
X153500000Y-109600000D03*
D30*
X154012999Y-105135000D03*
X147987001Y-105135000D03*
X147987001Y-109365000D03*
X154012999Y-109365000D03*
D31*
X151000000Y-107250000D03*
%TD*%
D29*
%TO.C,Q3*%
X143500000Y-104900000D03*
X143000001Y-104900000D03*
X142500000Y-104900000D03*
X142000001Y-104900000D03*
X141499999Y-104900000D03*
X141000000Y-104900000D03*
X140500001Y-104900000D03*
X139999999Y-104900000D03*
X139500000Y-104900000D03*
X138999999Y-104900000D03*
X138500000Y-104900000D03*
X138500000Y-109600000D03*
X138999999Y-109600000D03*
X139500000Y-109600000D03*
X139999999Y-109600000D03*
X140500001Y-109600000D03*
X141000000Y-109600000D03*
X141499999Y-109600000D03*
X142000001Y-109600000D03*
X142500000Y-109600000D03*
X143000001Y-109600000D03*
X143500000Y-109600000D03*
D30*
X144012999Y-105135000D03*
X137987001Y-105135000D03*
X137987001Y-109365000D03*
X144012999Y-109365000D03*
D31*
X141000000Y-107250000D03*
%TD*%
D38*
%TO.C,Q4*%
X165600000Y-133955000D03*
X165600000Y-134405000D03*
D39*
X166300000Y-134180000D03*
%TD*%
D17*
%TO.C,R54*%
X144200000Y-120310000D03*
X144200000Y-120950000D03*
%TD*%
D40*
%TO.C,U14*%
X141550000Y-133750000D03*
D22*
X141500000Y-134250000D03*
X141500000Y-134750000D03*
X141500000Y-135250000D03*
D41*
X142500000Y-135250000D03*
D22*
X143500000Y-135250000D03*
X143500000Y-134750000D03*
X143500000Y-134250000D03*
X143500000Y-133750000D03*
D20*
X142500000Y-133550000D03*
%TD*%
D42*
%TO.C,C49*%
X171250000Y-107275000D03*
X171250000Y-105725000D03*
%TD*%
D43*
%TO.C,D6*%
X166285000Y-135280000D03*
X165315000Y-135280000D03*
%TD*%
D44*
%TO.C,C45*%
X169565000Y-106940000D03*
X169565000Y-107900000D03*
%TD*%
D45*
%TO.C,U12*%
X136925000Y-129837500D03*
D46*
X136925000Y-130500000D03*
X136925000Y-131000000D03*
X136925000Y-131500000D03*
D45*
X136925000Y-132162500D03*
X139075000Y-132162500D03*
D46*
X139075000Y-131500000D03*
X139075000Y-131000000D03*
X139075000Y-130500000D03*
D45*
X139075000Y-129837500D03*
D47*
X138000000Y-131000000D03*
%TD*%
D48*
%TO.C,J3*%
X173635000Y-123595000D03*
D49*
X172365000Y-123595000D03*
X173635000Y-124865000D03*
X172365000Y-124865000D03*
X173635000Y-126135000D03*
X173635000Y-127405000D03*
X172365000Y-127405000D03*
%TD*%
D28*
%TO.C,R26*%
X166820000Y-115500000D03*
X166180000Y-115500000D03*
%TD*%
%TO.C,R2*%
X137820000Y-122500000D03*
X137180000Y-122500000D03*
%TD*%
D50*
%TO.C,X1*%
X162700000Y-134800000D03*
X164000000Y-134800000D03*
X164000000Y-133800000D03*
X162700000Y-133800000D03*
%TD*%
D14*
%TO.C,C75*%
X130025000Y-113000000D03*
X132975000Y-113000000D03*
%TD*%
D17*
%TO.C,C104*%
X143500000Y-120310000D03*
X143500000Y-120950000D03*
%TD*%
D34*
%TO.C,R21*%
X143500000Y-101587500D03*
X143500000Y-103412500D03*
%TD*%
D37*
%TO.C,U17*%
X157175000Y-101362500D03*
X156525000Y-101362500D03*
X155875000Y-101362500D03*
X155225000Y-101362500D03*
X155225000Y-103637500D03*
X155875000Y-103637500D03*
X156525000Y-103637500D03*
X157175000Y-103637500D03*
%TD*%
D28*
%TO.C,C112*%
X135820000Y-104900000D03*
X135180000Y-104900000D03*
%TD*%
D16*
%TO.C,R3*%
X137900000Y-119500000D03*
X137900000Y-118860000D03*
%TD*%
D49*
%TO.C,TP7*%
X147300000Y-116750000D03*
%TD*%
D12*
%TO.C,R51*%
X143580000Y-121700000D03*
X144220000Y-121700000D03*
%TD*%
D49*
%TO.C,TP3*%
X136250000Y-124500000D03*
%TD*%
D32*
%TO.C,H4*%
X168000000Y-137950000D03*
D33*
X168000000Y-137950000D03*
%TD*%
D51*
%TO.C,C93*%
X140600000Y-129880000D03*
X140600000Y-128920000D03*
%TD*%
D14*
%TO.C,C74*%
X130025000Y-115500000D03*
X132975000Y-115500000D03*
%TD*%
D13*
%TO.C,C84*%
X156000000Y-107525000D03*
X156000000Y-110475000D03*
%TD*%
D52*
%TO.C,U1*%
X169200000Y-117800000D03*
X169200000Y-118600000D03*
X169200000Y-119400000D03*
X169200000Y-120200000D03*
X169200000Y-121000000D03*
X169200000Y-121800000D03*
X169200000Y-122600000D03*
X169200000Y-123400000D03*
X169200000Y-124200000D03*
X169200000Y-125000000D03*
X169200000Y-125800000D03*
X169200000Y-126600000D03*
X169200000Y-127400000D03*
X169200000Y-128200000D03*
X169200000Y-129000000D03*
X169200000Y-129800000D03*
X169200000Y-130600000D03*
X169200000Y-131400000D03*
X169200000Y-132200000D03*
X168400000Y-117800000D03*
X168400000Y-118600000D03*
X168400000Y-119400000D03*
X168400000Y-120200000D03*
X168400000Y-121000000D03*
X168400000Y-121800000D03*
X168400000Y-122600000D03*
X168400000Y-123400000D03*
X168400000Y-124200000D03*
X168400000Y-125000000D03*
X168400000Y-125800000D03*
X168400000Y-126600000D03*
X168400000Y-127400000D03*
X168400000Y-128200000D03*
X168400000Y-129000000D03*
X168400000Y-129800000D03*
X168400000Y-130600000D03*
X168400000Y-131400000D03*
X168400000Y-132200000D03*
X167600000Y-117800000D03*
X167600000Y-118600000D03*
X167600000Y-119400000D03*
X167600000Y-120200000D03*
X167600000Y-121000000D03*
X167600000Y-121800000D03*
X167600000Y-122600000D03*
X167600000Y-123400000D03*
X167600000Y-124200000D03*
X167600000Y-125000000D03*
X167600000Y-125800000D03*
X167600000Y-126600000D03*
X167600000Y-127400000D03*
X167600000Y-128200000D03*
X167600000Y-129000000D03*
X167600000Y-129800000D03*
X167600000Y-130600000D03*
X167600000Y-131400000D03*
X167600000Y-132200000D03*
X166800000Y-117800000D03*
X166800000Y-118600000D03*
X166800000Y-119400000D03*
X166800000Y-120200000D03*
X166800000Y-121000000D03*
X166800000Y-121800000D03*
X166800000Y-122600000D03*
X166800000Y-123400000D03*
X166800000Y-124200000D03*
X166800000Y-125000000D03*
X166800000Y-125800000D03*
X166800000Y-126600000D03*
X166800000Y-127400000D03*
X166800000Y-128200000D03*
X166800000Y-129000000D03*
X166800000Y-129800000D03*
X166800000Y-130600000D03*
X166800000Y-131400000D03*
X166800000Y-132200000D03*
X166000000Y-117800000D03*
X166000000Y-118600000D03*
X166000000Y-119400000D03*
X166000000Y-120200000D03*
X166000000Y-121000000D03*
X166000000Y-121800000D03*
X166000000Y-122600000D03*
X166000000Y-123400000D03*
X166000000Y-124200000D03*
X166000000Y-125000000D03*
X166000000Y-125800000D03*
X166000000Y-126600000D03*
X166000000Y-127400000D03*
X166000000Y-128200000D03*
X166000000Y-129000000D03*
X166000000Y-129800000D03*
X166000000Y-130600000D03*
X166000000Y-131400000D03*
X166000000Y-132200000D03*
X165200000Y-117800000D03*
X165200000Y-118600000D03*
X165200000Y-119400000D03*
X165200000Y-120200000D03*
X165200000Y-121000000D03*
X165200000Y-121800000D03*
X165200000Y-122600000D03*
X165200000Y-123400000D03*
X165200000Y-124200000D03*
X165200000Y-125000000D03*
X165200000Y-125800000D03*
X165200000Y-126600000D03*
X165200000Y-127400000D03*
X165200000Y-128200000D03*
X165200000Y-129000000D03*
X165200000Y-129800000D03*
X165200000Y-130600000D03*
X165200000Y-131400000D03*
X165200000Y-132200000D03*
X164400000Y-117800000D03*
X164400000Y-118600000D03*
X164400000Y-119400000D03*
X164400000Y-120200000D03*
X164400000Y-121000000D03*
X164400000Y-121800000D03*
X164400000Y-128200000D03*
X164400000Y-129000000D03*
X164400000Y-129800000D03*
X164400000Y-130600000D03*
X164400000Y-131400000D03*
X164400000Y-132200000D03*
X163600000Y-117800000D03*
X163600000Y-118600000D03*
X163600000Y-119400000D03*
X163600000Y-120200000D03*
X163600000Y-121000000D03*
X163600000Y-121800000D03*
X163600000Y-123400000D03*
X163600000Y-124200000D03*
X163600000Y-125000000D03*
X163600000Y-125800000D03*
X163600000Y-126600000D03*
X163600000Y-128200000D03*
X163600000Y-129000000D03*
X163600000Y-129800000D03*
X163600000Y-130600000D03*
X163600000Y-131400000D03*
X163600000Y-132200000D03*
X162800000Y-117800000D03*
X162800000Y-118600000D03*
X162800000Y-119400000D03*
X162800000Y-120200000D03*
X162800000Y-121000000D03*
X162800000Y-121800000D03*
X162800000Y-123400000D03*
X162800000Y-124200000D03*
X162800000Y-125000000D03*
X162800000Y-125800000D03*
X162800000Y-126600000D03*
X162800000Y-128200000D03*
X162800000Y-129000000D03*
X162800000Y-129800000D03*
X162800000Y-130600000D03*
X162800000Y-131400000D03*
X162800000Y-132200000D03*
X162000000Y-117800000D03*
X162000000Y-118600000D03*
X162000000Y-119400000D03*
X162000000Y-120200000D03*
X162000000Y-121000000D03*
X162000000Y-121800000D03*
X162000000Y-123400000D03*
X162000000Y-124200000D03*
X162000000Y-125000000D03*
X162000000Y-125800000D03*
X162000000Y-126600000D03*
X162000000Y-128200000D03*
X162000000Y-129000000D03*
X162000000Y-129800000D03*
X162000000Y-130600000D03*
X162000000Y-131400000D03*
X162000000Y-132200000D03*
X161200000Y-117800000D03*
X161200000Y-118600000D03*
X161200000Y-119400000D03*
X161200000Y-120200000D03*
X161200000Y-121000000D03*
X161200000Y-121800000D03*
X161200000Y-123400000D03*
X161200000Y-124200000D03*
X161200000Y-125000000D03*
X161200000Y-125800000D03*
X161200000Y-126600000D03*
X161200000Y-128200000D03*
X161200000Y-129000000D03*
X161200000Y-129800000D03*
X161200000Y-130600000D03*
X161200000Y-131400000D03*
X161200000Y-132200000D03*
X160400000Y-117800000D03*
X160400000Y-118600000D03*
X160400000Y-119400000D03*
X160400000Y-120200000D03*
X160400000Y-121000000D03*
X160400000Y-121800000D03*
X160400000Y-123400000D03*
X160400000Y-124200000D03*
X160400000Y-125000000D03*
X160400000Y-125800000D03*
X160400000Y-126600000D03*
X160400000Y-128200000D03*
X160400000Y-129000000D03*
X160400000Y-129800000D03*
X160400000Y-130600000D03*
X160400000Y-131400000D03*
X160400000Y-132200000D03*
X159600000Y-117800000D03*
X159600000Y-118600000D03*
X159600000Y-119400000D03*
X159600000Y-120200000D03*
X159600000Y-121000000D03*
X159600000Y-121800000D03*
X159600000Y-128200000D03*
X159600000Y-129000000D03*
X159600000Y-129800000D03*
X159600000Y-130600000D03*
X159600000Y-131400000D03*
X159600000Y-132200000D03*
X158800000Y-117800000D03*
X158800000Y-118600000D03*
X158800000Y-119400000D03*
X158800000Y-120200000D03*
X158800000Y-121000000D03*
X158800000Y-121800000D03*
X158800000Y-122600000D03*
X158800000Y-123400000D03*
X158800000Y-124200000D03*
X158800000Y-125000000D03*
X158800000Y-125800000D03*
X158800000Y-126600000D03*
X158800000Y-127400000D03*
X158800000Y-128200000D03*
X158800000Y-129000000D03*
X158800000Y-129800000D03*
X158800000Y-130600000D03*
X158800000Y-131400000D03*
X158800000Y-132200000D03*
X158000000Y-117800000D03*
X158000000Y-118600000D03*
X158000000Y-119400000D03*
X158000000Y-120200000D03*
X158000000Y-121000000D03*
X158000000Y-121800000D03*
X158000000Y-122600000D03*
X158000000Y-123400000D03*
X158000000Y-124200000D03*
X158000000Y-125000000D03*
X158000000Y-125800000D03*
X158000000Y-126600000D03*
X158000000Y-127400000D03*
X158000000Y-128200000D03*
X158000000Y-129000000D03*
X158000000Y-129800000D03*
X158000000Y-130600000D03*
X158000000Y-131400000D03*
X158000000Y-132200000D03*
X157200000Y-117800000D03*
X157200000Y-118600000D03*
X157200000Y-119400000D03*
X157200000Y-120200000D03*
X157200000Y-121000000D03*
X157200000Y-121800000D03*
X157200000Y-122600000D03*
X157200000Y-123400000D03*
X157200000Y-124200000D03*
X157200000Y-125000000D03*
X157200000Y-125800000D03*
X157200000Y-126600000D03*
X157200000Y-127400000D03*
X157200000Y-128200000D03*
X157200000Y-129000000D03*
X157200000Y-129800000D03*
X157200000Y-130600000D03*
X157200000Y-131400000D03*
X157200000Y-132200000D03*
X156400000Y-117800000D03*
X156400000Y-118600000D03*
X156400000Y-119400000D03*
X156400000Y-120200000D03*
X156400000Y-121000000D03*
X156400000Y-121800000D03*
X156400000Y-122600000D03*
X156400000Y-123400000D03*
X156400000Y-124200000D03*
X156400000Y-125000000D03*
X156400000Y-125800000D03*
X156400000Y-126600000D03*
X156400000Y-127400000D03*
X156400000Y-128200000D03*
X156400000Y-129000000D03*
X156400000Y-129800000D03*
X156400000Y-130600000D03*
X156400000Y-131400000D03*
X156400000Y-132200000D03*
X155600000Y-117800000D03*
X155600000Y-118600000D03*
X155600000Y-119400000D03*
X155600000Y-120200000D03*
X155600000Y-121000000D03*
X155600000Y-121800000D03*
X155600000Y-122600000D03*
X155600000Y-123400000D03*
X155600000Y-124200000D03*
X155600000Y-125000000D03*
X155600000Y-125800000D03*
X155600000Y-126600000D03*
X155600000Y-127400000D03*
X155600000Y-128200000D03*
X155600000Y-129000000D03*
X155600000Y-129800000D03*
X155600000Y-130600000D03*
X155600000Y-131400000D03*
X155600000Y-132200000D03*
X154800000Y-117800000D03*
X154800000Y-118600000D03*
X154800000Y-119400000D03*
X154800000Y-120200000D03*
X154800000Y-121000000D03*
X154800000Y-121800000D03*
X154800000Y-122600000D03*
X154800000Y-123400000D03*
X154800000Y-124200000D03*
X154800000Y-125000000D03*
X154800000Y-125800000D03*
X154800000Y-126600000D03*
X154800000Y-127400000D03*
X154800000Y-128200000D03*
X154800000Y-129000000D03*
X154800000Y-129800000D03*
X154800000Y-130600000D03*
X154800000Y-131400000D03*
X154800000Y-132200000D03*
%TD*%
D53*
%TO.C,U15*%
X150362500Y-119050000D03*
X150362500Y-120000000D03*
X150362500Y-120950000D03*
X152637500Y-120950000D03*
X152637500Y-120000000D03*
X152637500Y-119050000D03*
%TD*%
D44*
%TO.C,C99*%
X144500000Y-135220000D03*
X144500000Y-136180000D03*
%TD*%
D49*
%TO.C,TP2*%
X166000000Y-107000000D03*
%TD*%
D54*
%TO.C,D5*%
X150572201Y-139025000D03*
X149427799Y-139025000D03*
X149427799Y-139975000D03*
X150572201Y-139975000D03*
%TD*%
D44*
%TO.C,C96*%
X140500000Y-134320000D03*
X140500000Y-135280000D03*
%TD*%
D55*
%TO.C,C91*%
X134775000Y-129900000D03*
X133225000Y-129900000D03*
%TD*%
D56*
%TO.C,C90*%
X136725000Y-126500000D03*
X138275000Y-126500000D03*
%TD*%
D17*
%TO.C,C97*%
X136100000Y-132162500D03*
X136100000Y-132802500D03*
%TD*%
D12*
%TO.C,D2*%
X145180000Y-122000000D03*
X145820000Y-122000000D03*
%TD*%
D28*
%TO.C,C105*%
X155820000Y-104900000D03*
X155180000Y-104900000D03*
%TD*%
D13*
%TO.C,C81*%
X136000000Y-107525000D03*
X136000000Y-110475000D03*
%TD*%
D57*
%TO.C,JP2*%
X151725000Y-128300000D03*
D58*
X150275000Y-128300000D03*
%TD*%
D32*
%TO.C,H3*%
X132000000Y-101950000D03*
D33*
X132000000Y-101950000D03*
%TD*%
D37*
%TO.C,U18*%
X147175000Y-101362500D03*
X146525000Y-101362500D03*
X145875000Y-101362500D03*
X145225000Y-101362500D03*
X145225000Y-103637500D03*
X145875000Y-103637500D03*
X146525000Y-103637500D03*
X147175000Y-103637500D03*
%TD*%
D12*
%TO.C,C107*%
X146580000Y-104900000D03*
X147220000Y-104900000D03*
%TD*%
D37*
%TO.C,U19*%
X137175000Y-101362500D03*
X136525000Y-101362500D03*
X135875000Y-101362500D03*
X135225000Y-101362500D03*
X135225000Y-103637500D03*
X135875000Y-103637500D03*
X136525000Y-103637500D03*
X137175000Y-103637500D03*
%TD*%
D59*
%TO.C,C94*%
X141520000Y-131500000D03*
X142480000Y-131500000D03*
%TD*%
D17*
%TO.C,C70*%
X161700000Y-133800000D03*
X161700000Y-134440000D03*
%TD*%
D56*
%TO.C,C88*%
X131225000Y-125000000D03*
X132775000Y-125000000D03*
%TD*%
D55*
%TO.C,C92*%
X134775000Y-128400000D03*
X133225000Y-128400000D03*
%TD*%
D60*
%TO.C,U2*%
X171250000Y-109562500D03*
X170750000Y-109562500D03*
X170250000Y-109562500D03*
X169750000Y-109562500D03*
X169250000Y-109562500D03*
X168750000Y-109562500D03*
X168250000Y-109562500D03*
X167750000Y-109562500D03*
D61*
X167062500Y-110250000D03*
X167062500Y-110750000D03*
X167062500Y-111250000D03*
X167062500Y-111750000D03*
X167062500Y-112250000D03*
X167062500Y-112750000D03*
X167062500Y-113250000D03*
X167062500Y-113750000D03*
D60*
X167750000Y-114437500D03*
X168250000Y-114437500D03*
X168750000Y-114437500D03*
X169250000Y-114437500D03*
X169750000Y-114437500D03*
X170250000Y-114437500D03*
X170750000Y-114437500D03*
X171250000Y-114437500D03*
D61*
X171937500Y-113750000D03*
X171937500Y-113250000D03*
X171937500Y-112750000D03*
X171937500Y-112250000D03*
X171937500Y-111750000D03*
X171937500Y-111250000D03*
X171937500Y-110750000D03*
X171937500Y-110250000D03*
D62*
X169500000Y-112000000D03*
%TD*%
D12*
%TO.C,C106*%
X156580000Y-104900000D03*
X157220000Y-104900000D03*
%TD*%
D63*
%TO.C,SW1*%
X172000000Y-131100000D03*
D64*
X172000000Y-132800000D03*
X172000000Y-129400000D03*
%TD*%
D51*
%TO.C,C44*%
X153000000Y-117480000D03*
X153000000Y-116520000D03*
%TD*%
D28*
%TO.C,R47*%
X141750000Y-126650000D03*
X141110000Y-126650000D03*
%TD*%
D16*
%TO.C,R8*%
X153000000Y-126440000D03*
X153000000Y-125800000D03*
%TD*%
D28*
%TO.C,R46*%
X142390000Y-127350000D03*
X141750000Y-127350000D03*
%TD*%
D16*
%TO.C,C102*%
X147800000Y-120950000D03*
X147800000Y-120310000D03*
%TD*%
D12*
%TO.C,C110*%
X136580000Y-104900000D03*
X137220000Y-104900000D03*
%TD*%
D57*
%TO.C,JP1*%
X151725000Y-125800000D03*
D58*
X150275000Y-125800000D03*
%TD*%
D28*
%TO.C,C100*%
X152637500Y-122100000D03*
X151997500Y-122100000D03*
%TD*%
D59*
%TO.C,C98*%
X144820000Y-127250000D03*
X145780000Y-127250000D03*
%TD*%
%TO.C,C95*%
X141520000Y-132500000D03*
X142480000Y-132500000D03*
%TD*%
D32*
%TO.C,H2*%
X168000000Y-101950000D03*
D33*
X168000000Y-101950000D03*
%TD*%
D49*
%TO.C,TP5*%
X143000000Y-125500000D03*
%TD*%
D56*
%TO.C,C89*%
X136725000Y-128500000D03*
X138275000Y-128500000D03*
%TD*%
D16*
%TO.C,R9*%
X153000000Y-128940000D03*
X153000000Y-128300000D03*
%TD*%
D65*
%TO.C,TP1*%
X139500000Y-115000000D03*
%TD*%
D49*
%TO.C,TP6*%
X148000000Y-135000000D03*
%TD*%
D66*
%TO.C,U16*%
X146650000Y-119050000D03*
X146000000Y-119050000D03*
X145350000Y-119050000D03*
X145350000Y-120950000D03*
X146650000Y-120950000D03*
%TD*%
D28*
%TO.C,C109*%
X145820000Y-104900000D03*
X145180000Y-104900000D03*
%TD*%
D14*
%TO.C,C72*%
X130025000Y-120500000D03*
X132975000Y-120500000D03*
%TD*%
D49*
%TO.C,TP4*%
X139000000Y-134500000D03*
%TD*%
D16*
%TO.C,R48*%
X144400000Y-134390000D03*
X144400000Y-133750000D03*
%TD*%
D17*
%TO.C,C60*%
X138300000Y-102180000D03*
X138300000Y-102820000D03*
%TD*%
D14*
%TO.C,C73*%
X130025000Y-118000000D03*
X132975000Y-118000000D03*
%TD*%
D28*
%TO.C,C103*%
X144220000Y-122400000D03*
X143580000Y-122400000D03*
%TD*%
D11*
%TO.C,C40*%
X145980000Y-124500000D03*
X145020000Y-124500000D03*
%TD*%
D28*
%TO.C,C101*%
X152637500Y-122800000D03*
X151997500Y-122800000D03*
%TD*%
%TO.C,C62*%
X155675000Y-134000000D03*
X155035000Y-134000000D03*
%TD*%
G36*
X158843039Y-144019685D02*
G01*
X158888794Y-144072489D01*
X158900000Y-144124000D01*
X158900000Y-148557067D01*
X158880315Y-148624106D01*
X158827511Y-148669861D01*
X158813655Y-148675211D01*
X158592799Y-148745603D01*
X158588487Y-148746892D01*
X157543902Y-149038517D01*
X157539546Y-149039648D01*
X156802987Y-149216734D01*
X156733203Y-149213267D01*
X156676372Y-149172621D01*
X156650538Y-149107703D01*
X156650000Y-149096170D01*
X156650000Y-144124000D01*
X156669685Y-144056961D01*
X156722489Y-144011206D01*
X156774000Y-144000000D01*
X158776000Y-144000000D01*
X158843039Y-144019685D01*
G37*
G36*
X162343039Y-144019685D02*
G01*
X162388794Y-144072489D01*
X162400000Y-144124000D01*
X162400000Y-147235272D01*
X162380315Y-147302311D01*
X162327511Y-147348066D01*
X162326273Y-147348624D01*
X161666069Y-147641432D01*
X161661922Y-147643182D01*
X160655225Y-148046606D01*
X160651017Y-148048204D01*
X160315918Y-148168570D01*
X160246171Y-148172707D01*
X160185259Y-148138479D01*
X160152522Y-148076753D01*
X160150000Y-148051870D01*
X160150000Y-144124000D01*
X160169685Y-144056961D01*
X160222489Y-144011206D01*
X160274000Y-144000000D01*
X162276000Y-144000000D01*
X162343039Y-144019685D01*
G37*
G36*
X155343039Y-144019685D02*
G01*
X155388794Y-144072489D01*
X155400000Y-144124000D01*
X155400000Y-149406990D01*
X155380315Y-149474029D01*
X155327511Y-149519784D01*
X155296165Y-149529339D01*
X154343249Y-149686396D01*
X154338796Y-149687048D01*
X153289712Y-149821053D01*
X153220718Y-149810021D01*
X153168642Y-149763440D01*
X153150000Y-149698052D01*
X153150000Y-144124000D01*
X153169685Y-144056961D01*
X153222489Y-144011206D01*
X153274000Y-144000000D01*
X155276000Y-144000000D01*
X155343039Y-144019685D01*
G37*
G36*
X141943039Y-143519685D02*
G01*
X141988794Y-143572489D01*
X142000000Y-143624000D01*
X142000000Y-148747824D01*
X141980315Y-148814863D01*
X141927511Y-148860618D01*
X141858353Y-148870562D01*
X141842657Y-148867257D01*
X141411503Y-148746889D01*
X141407191Y-148745600D01*
X140373914Y-148416270D01*
X140369651Y-148414826D01*
X139348982Y-148048204D01*
X139344774Y-148046606D01*
X138338076Y-147643181D01*
X138333929Y-147641431D01*
X138073727Y-147526027D01*
X138020425Y-147480853D01*
X138000007Y-147414033D01*
X138000000Y-147412675D01*
X138000000Y-143624000D01*
X138019685Y-143556961D01*
X138072489Y-143511206D01*
X138124000Y-143500000D01*
X141876000Y-143500000D01*
X141943039Y-143519685D01*
G37*
G36*
X151843039Y-144019685D02*
G01*
X151888794Y-144072489D01*
X151900000Y-144124000D01*
X151900000Y-149821071D01*
X151880315Y-149888110D01*
X151827511Y-149933865D01*
X151782749Y-149944887D01*
X151091099Y-149982585D01*
X151086600Y-149982749D01*
X150137344Y-149999980D01*
X150135094Y-150000000D01*
X149864907Y-150000000D01*
X149862655Y-149999980D01*
X149771748Y-149998329D01*
X149705077Y-149977430D01*
X149660289Y-149923804D01*
X149650000Y-149874349D01*
X149650000Y-144124000D01*
X149669685Y-144056961D01*
X149722489Y-144011206D01*
X149774000Y-144000000D01*
X151776000Y-144000000D01*
X151843039Y-144019685D01*
G37*
G36*
X148093039Y-143519685D02*
G01*
X148138794Y-143572489D01*
X148150000Y-143624000D01*
X148150000Y-149810280D01*
X148130315Y-149877319D01*
X148077511Y-149923074D01*
X148019252Y-149934096D01*
X147826024Y-149923565D01*
X147821535Y-149923239D01*
X146741479Y-149824955D01*
X146737004Y-149824466D01*
X145661203Y-149687047D01*
X145656750Y-149686395D01*
X144586708Y-149510035D01*
X144582281Y-149509223D01*
X144099408Y-149411517D01*
X144037604Y-149378928D01*
X144003230Y-149318098D01*
X144000000Y-149289980D01*
X144000000Y-143624000D01*
X144019685Y-143556961D01*
X144072489Y-143511206D01*
X144124000Y-143500000D01*
X148026000Y-143500000D01*
X148093039Y-143519685D01*
G37*
M02*
