M48
; DRILL file {KiCad (5.1.6)-1} date 10/13/21 11:20:43
; FORMAT={-:-/ absolute / metric / decimal}
; #@! TF.CreationDate,2021-10-13T11:20:43+02:00
; #@! TF.GenerationSoftware,Kicad,Pcbnew,(5.1.6)-1
; #@! TF.FileFunction,Plated,1,6,PTH
FMAT,2
METRIC
T1C0.100
T2C0.250
T3C0.350
T4C0.600
T5C0.650
T6C1.000
T7C1.900
%
G90
G05
T1
X101.1Y-73.63
X101.1Y-74.6
X101.5Y-85.0
X101.5Y-88.0
X101.68Y-73.1
X101.75Y-75.45
X101.75Y-76.09
X101.75Y-77.05
X101.75Y-77.69
X101.75Y-78.65
X101.75Y-79.29
X102.0Y-55.5
X102.0Y-59.0
X102.0Y-64.0
X102.0Y-66.0
X102.0Y-72.0
X102.0Y-82.0
X102.0Y-92.0
X103.0Y-60.0
X103.0Y-72.25
X103.0Y-72.95
X103.0Y-73.95
X103.0Y-75.45
X103.0Y-85.0
X103.0Y-88.0
X103.0Y-96.0
X103.05Y-82.58
X103.05Y-86.08
X103.05Y-89.58
X103.4Y-73.45
X103.4Y-74.45
X103.4Y-75.95
X104.0Y-55.5
X104.0Y-64.0
X104.0Y-66.0
X104.0Y-71.0
X104.0Y-72.25
X104.0Y-80.0
X104.0Y-82.0
X104.0Y-85.0
X104.0Y-88.0
X104.0Y-92.0
X104.0Y-94.0
X104.5Y-68.0
X104.75Y-78.9
X105.0Y-60.0
X105.0Y-69.0
X105.0Y-70.0
X105.0Y-96.0
X105.0Y-98.0
X105.0Y-99.2
X105.25Y-70.85
X105.25Y-79.4
X105.5Y-73.7
X105.5Y-74.7
X105.5Y-75.7
X105.5Y-76.7
X105.5Y-93.5
X105.5Y-94.15
X105.75Y-71.25
X105.75Y-78.9
X106.0Y-51.0
X106.0Y-54.0
X106.0Y-55.5
X106.0Y-59.0
X106.0Y-66.0
X106.0Y-67.25
X106.0Y-99.2
X106.25Y-70.85
X106.5Y-73.7
X106.5Y-74.7
X106.5Y-75.7
X106.5Y-76.7
X106.5Y-95.0
X106.75Y-71.25
X106.75Y-78.9
X106.75Y-79.9
X107.0Y-60.0
X107.0Y-66.75
X107.0Y-68.0
X107.0Y-93.0
X107.0Y-99.2
X107.25Y-70.85
X107.25Y-79.4
X107.5Y-73.7
X107.5Y-74.7
X107.5Y-75.7
X107.5Y-76.7
X107.75Y-69.0
X107.75Y-71.25
X107.75Y-78.9
X107.75Y-79.9
X107.9Y-60.555
X107.9Y-61.855
X107.9Y-62.495
X107.9Y-93.5
X108.0Y-51.0
X108.0Y-54.0
X108.0Y-55.5
X108.0Y-59.0
X108.0Y-64.0
X108.0Y-66.0
X108.0Y-99.2
X108.5Y-68.0
X108.5Y-73.7
X108.5Y-74.7
X108.5Y-75.7
X108.5Y-76.7
X108.5Y-95.3
X108.7Y-87.5
X108.7Y-88.25
X108.75Y-71.0
X109.0Y-64.69
X109.0Y-93.25
X109.25Y-67.0
X109.6Y-99.2
X109.7Y-61.855
X109.7Y-78.1
X109.7Y-78.9
X109.755Y-63.6
X109.755Y-65.7
X109.8Y-95.3
X110.0Y-51.0
X110.0Y-54.0
X110.0Y-55.5
X110.0Y-68.0
X110.3Y-93.25
X110.4Y-71.0
X110.5Y-68.6
X110.6Y-59.0
X110.75Y-60.555
X110.75Y-61.195
X110.75Y-75.95
X110.75Y-77.0
X110.75Y-78.0
X110.77Y-63.095
X110.77Y-64.365
X110.77Y-65.635
X110.77Y-66.905
X110.8Y-99.2
X111.0Y-95.3
X111.5Y-68.75
X111.5Y-75.95
X111.5Y-76.95
X111.73Y-61.825
X111.73Y-62.46
X111.73Y-63.095
X111.73Y-63.73
X111.73Y-64.365
X111.73Y-65.0
X111.73Y-65.635
X111.73Y-66.27
X111.73Y-66.905
X111.73Y-68.175
X112.0Y-51.0
X112.0Y-55.5
X112.0Y-59.0
X112.0Y-61.0
X112.2Y-54.0
X112.2Y-99.2
X112.5Y-97.25
X112.69Y-61.825
X112.69Y-62.46
X112.69Y-63.73
X112.69Y-65.0
X112.69Y-66.27
X112.69Y-66.905
X112.69Y-68.175
X113.0Y-60.25
X113.0Y-99.5
X113.31Y-63.095
X113.31Y-64.365
X113.31Y-66.27
X113.31Y-66.905
X113.31Y-68.175
X113.5Y-97.25
X113.75Y-53.75
X114.0Y-51.0
X114.0Y-69.5
X114.0Y-99.5
X114.25Y-59.0
X114.27Y-62.46
X114.27Y-63.73
X114.27Y-65.635
X114.27Y-66.27
X114.27Y-66.905
X114.27Y-68.175
X114.29Y-65.02
X114.3Y-97.05
X115.0Y-60.25
X115.0Y-99.5
X115.23Y-62.46
X115.23Y-63.73
X115.23Y-65.635
X115.23Y-66.27
X115.23Y-67.54
X115.25Y-69.5
X115.5Y-54.0
X115.5Y-55.5
X115.5Y-56.5
X115.5Y-57.3
X115.5Y-74.0
X115.5Y-75.0
X115.5Y-76.0
X115.5Y-77.0
X115.65Y-96.3
X116.0Y-99.5
X116.25Y-59.0
X116.5Y-77.0
X116.69Y-71.15
X116.75Y-87.5
X116.75Y-90.0
X116.98Y-78.5
X117.0Y-81.0
X117.0Y-82.0
X117.0Y-84.0
X117.0Y-85.0
X117.0Y-86.0
X117.0Y-89.0
X117.0Y-91.4
X117.0Y-99.5
X117.1Y-97.05
X117.4Y-56.5
X117.4Y-57.3
X117.4Y-61.3
X117.4Y-62.1
X117.4Y-63.7
X117.4Y-64.5
X117.4Y-65.3
X117.4Y-66.1
X117.4Y-70.1
X117.5Y-74.0
X117.5Y-75.0
X117.5Y-76.0
X117.5Y-77.0
X117.5Y-80.5
X117.5Y-84.5
X117.5Y-85.5
X117.5Y-86.5
X117.5Y-87.5
X117.5Y-88.5
X117.5Y-89.5
X117.5Y-90.5
X117.6Y-82.0
X117.62Y-78.5
X117.65Y-91.4
X118.0Y-71.0
X118.0Y-81.0
X118.0Y-84.0
X118.0Y-85.0
X118.0Y-86.0
X118.0Y-87.0
X118.0Y-88.0
X118.0Y-89.0
X118.0Y-90.0
X118.0Y-99.5
X118.2Y-55.7
X118.2Y-56.5
X118.2Y-57.3
X118.2Y-59.7
X118.2Y-60.5
X118.2Y-61.3
X118.2Y-62.1
X118.2Y-63.7
X118.2Y-64.5
X118.2Y-65.3
X118.2Y-66.1
X118.2Y-66.9
X118.2Y-70.1
X118.2Y-96.8
X118.5Y-75.0
X118.5Y-76.0
X118.6Y-96.4
X119.0Y-55.7
X119.0Y-60.5
X119.0Y-61.3
X119.0Y-63.7
X119.0Y-64.5
X119.0Y-65.3
X119.0Y-66.1
X119.0Y-66.9
X119.0Y-68.5
X119.0Y-69.3
X119.0Y-96.0
X119.5Y-52.9
X119.5Y-78.0
X119.5Y-79.0
X119.75Y-51.4
X119.8Y-55.7
X119.8Y-56.5
X119.8Y-58.9
X119.8Y-59.7
X119.8Y-60.5
X119.8Y-61.3
X119.8Y-62.1
X119.8Y-62.9
X119.8Y-63.7
X119.8Y-64.5
X119.8Y-65.3
X119.8Y-66.1
X119.8Y-66.9
X119.8Y-67.7
X119.8Y-69.3
X119.8Y-70.1
X120.0Y-83.0
X120.0Y-84.0
X120.0Y-85.0
X120.0Y-86.0
X120.0Y-87.0
X120.0Y-88.0
X120.0Y-89.0
X120.0Y-90.0
X120.0Y-91.0
X120.2Y-71.5
X120.2Y-72.08
X120.5Y-52.9
X120.5Y-84.5
X120.5Y-85.5
X120.5Y-86.5
X120.5Y-87.5
X120.5Y-88.5
X120.5Y-89.5
X120.5Y-90.5
X120.6Y-55.7
X120.6Y-56.5
X120.6Y-57.3
X120.6Y-58.1
X120.6Y-58.9
X120.6Y-59.7
X120.6Y-60.5
X120.6Y-61.3
X120.6Y-62.1
X120.6Y-62.9
X120.6Y-63.7
X120.6Y-64.5
X120.6Y-65.3
X120.6Y-66.1
X120.6Y-66.9
X120.6Y-67.7
X120.6Y-68.5
X120.6Y-69.3
X120.75Y-70.9
X120.94Y-80.75
X121.0Y-83.0
X121.0Y-85.0
X121.0Y-86.0
X121.0Y-91.0
X121.0Y-97.0
X121.0Y-98.25
X121.0Y-99.25
X121.4Y-55.7
X121.4Y-56.5
X121.4Y-57.3
X121.4Y-58.1
X121.4Y-58.9
X121.4Y-59.7
X121.4Y-60.5
X121.4Y-62.1
X121.4Y-62.9
X121.4Y-63.7
X121.4Y-64.5
X121.4Y-65.3
X121.4Y-66.1
X121.4Y-66.9
X121.4Y-69.3
X121.4Y-70.1
X121.4Y-70.9
X121.5Y-76.75
X121.5Y-85.5
X121.5Y-90.5
X122.0Y-52.9
X122.0Y-74.0
X122.0Y-75.0
X122.0Y-82.25
X122.0Y-84.25
X122.0Y-85.0
X122.0Y-91.0
X122.0Y-97.0
X122.0Y-98.25
X122.0Y-99.25
X122.2Y-55.7
X122.2Y-57.3
X122.2Y-58.1
X122.2Y-58.9
X122.2Y-59.7
X122.2Y-60.5
X122.2Y-61.3
X122.2Y-62.1
X122.2Y-62.9
X122.2Y-65.3
X122.2Y-67.7
X122.2Y-68.5
X122.2Y-69.3
X122.4Y-77.5
X122.4Y-80.86
X122.5Y-76.75
X122.5Y-79.75
X122.5Y-81.75
X122.5Y-82.75
X122.5Y-90.5
X122.6Y-61.7
X122.6Y-63.3
X122.6Y-70.9
X122.7Y-54.2
X122.8Y-78.2
X123.0Y-52.5
X123.0Y-57.3
X123.0Y-58.1
X123.0Y-58.9
X123.0Y-59.7
X123.0Y-65.3
X123.0Y-66.1
X123.0Y-67.7
X123.0Y-68.5
X123.0Y-69.3
X123.0Y-70.1
X123.0Y-74.0
X123.0Y-75.0
X123.0Y-83.25
X123.0Y-84.25
X123.0Y-91.0
X123.0Y-97.0
X123.0Y-99.25
X123.1Y-77.5
X123.4Y-70.9
X123.5Y-83.75
X123.5Y-90.5
X123.75Y-73.7
X123.8Y-54.9
X123.8Y-56.5
X123.8Y-58.1
X123.8Y-58.9
X123.8Y-59.7
X123.8Y-60.5
X123.8Y-61.3
X123.8Y-62.1
X123.8Y-62.9
X123.8Y-63.7
X123.8Y-64.5
X123.8Y-65.3
X123.8Y-66.1
X123.8Y-67.7
X123.8Y-68.5
X124.0Y-51.5
X124.0Y-53.5
X124.0Y-84.25
X124.0Y-91.0
X124.0Y-97.0
X124.0Y-99.25
X124.05Y-74.2
X124.25Y-80.75
X124.25Y-81.75
X124.35Y-74.7
X124.6Y-58.1
X124.6Y-58.9
X124.6Y-59.7
X124.6Y-60.5
X124.6Y-61.3
X124.6Y-63.7
X124.6Y-64.5
X124.6Y-65.3
X124.6Y-66.1
X124.6Y-67.7
X124.6Y-69.3
X124.65Y-75.2
X124.65Y-77.0
X124.75Y-80.25
X124.75Y-81.25
X124.75Y-82.25
X124.95Y-74.7
X125.0Y-54.7
X125.0Y-97.0
X125.0Y-99.25
X125.22Y-84.6
X125.25Y-74.2
X125.4Y-57.3
X125.4Y-58.1
X125.4Y-58.9
X125.4Y-59.7
X125.4Y-60.5
X125.4Y-61.3
X125.4Y-62.1
X125.4Y-62.9
X125.4Y-63.7
X125.4Y-64.5
X125.4Y-65.3
X125.4Y-66.1
X125.4Y-66.9
X125.4Y-67.7
X125.4Y-68.5
X125.4Y-69.3
X125.4Y-70.1
X125.55Y-73.7
X126.0Y-78.2
X126.0Y-97.0
X126.0Y-99.25
X126.15Y-50.7
X126.2Y-54.9
X126.2Y-55.7
X126.2Y-57.3
X126.2Y-58.1
X126.2Y-58.9
X126.2Y-59.7
X126.2Y-60.5
X126.2Y-61.3
X126.2Y-62.9
X126.2Y-63.7
X126.2Y-64.5
X126.2Y-65.3
X126.2Y-66.1
X126.2Y-66.9
X126.2Y-67.7
X126.2Y-68.5
X126.2Y-69.3
X126.2Y-70.1
X126.2Y-74.0
X126.2Y-74.6
X126.2Y-75.2
X126.25Y-79.3
X126.7Y-51.815
X126.7Y-52.455
X126.8Y-78.7
X127.0Y-54.9
X127.0Y-55.7
X127.0Y-56.5
X127.0Y-57.3
X127.0Y-58.1
X127.0Y-58.9
X127.0Y-59.7
X127.0Y-60.5
X127.0Y-61.3
X127.0Y-62.9
X127.0Y-63.7
X127.0Y-64.5
X127.0Y-65.3
X127.0Y-66.1
X127.0Y-66.9
X127.0Y-69.3
X127.0Y-70.1
X127.0Y-74.0
X127.0Y-74.6
X127.0Y-75.2
X127.0Y-97.0
X127.0Y-99.25
X127.6Y-79.6
X127.6Y-80.2
X127.6Y-80.8
X127.6Y-81.4
X127.8Y-54.9
X127.8Y-55.7
X127.8Y-57.3
X127.8Y-58.1
X127.8Y-58.9
X127.8Y-59.7
X127.8Y-60.5
X127.8Y-61.3
X127.8Y-62.1
X127.8Y-62.9
X127.8Y-63.7
X127.8Y-64.5
X127.8Y-65.3
X127.8Y-66.1
X127.8Y-66.9
X127.8Y-68.5
X127.8Y-69.3
X127.8Y-70.1
X127.8Y-74.0
X128.0Y-79.9
X128.0Y-80.5
X128.0Y-81.1
X128.0Y-81.8
X128.0Y-97.0
X128.0Y-98.25
X128.0Y-99.25
X128.25Y-85.0
X128.25Y-85.75
X128.5Y-74.0
X128.6Y-54.9
X128.6Y-55.7
X128.6Y-56.5
X128.6Y-58.1
X128.6Y-58.9
X128.6Y-59.7
X128.6Y-62.1
X128.6Y-62.9
X128.6Y-63.7
X128.6Y-64.5
X128.6Y-65.3
X128.6Y-66.1
X128.6Y-66.9
X128.6Y-68.5
X128.6Y-69.3
X128.6Y-70.1
X129.0Y-97.0
X129.4Y-54.9
X129.4Y-55.7
X129.4Y-56.5
X129.4Y-57.3
X129.4Y-58.9
X129.4Y-59.7
X129.4Y-60.5
X129.4Y-61.3
X129.4Y-62.9
X129.4Y-63.7
X129.4Y-64.5
X129.4Y-65.3
X129.4Y-66.1
X129.4Y-66.9
X129.4Y-68.5
X129.4Y-70.1
X129.5Y-74.0
X130.0Y-86.0
X130.0Y-87.0
X130.0Y-88.0
X130.0Y-89.0
X130.0Y-90.0
X130.0Y-91.0
X130.15Y-81.0
X130.15Y-82.0
X130.15Y-83.0
X130.2Y-54.9
X130.2Y-55.7
X130.2Y-57.3
X130.2Y-58.1
X130.2Y-59.7
X130.2Y-60.5
X130.2Y-61.3
X130.2Y-62.1
X130.2Y-62.9
X130.2Y-63.7
X130.2Y-64.5
X130.2Y-65.3
X130.2Y-66.1
X130.2Y-66.9
X130.2Y-67.7
X130.2Y-68.5
X130.2Y-69.3
X130.2Y-74.0
X130.7Y-96.0
X130.75Y-96.945
X131.0Y-54.9
X131.0Y-55.7
X131.0Y-58.1
X131.0Y-58.9
X131.0Y-61.3
X131.0Y-62.1
X131.0Y-62.9
X131.0Y-63.7
X131.0Y-64.5
X131.0Y-65.3
X131.0Y-66.1
X131.0Y-66.9
X131.0Y-67.7
X131.0Y-68.5
X131.0Y-74.0
X131.0Y-74.6
X131.0Y-75.2
X131.25Y-97.345
X131.5Y-77.5
X131.5Y-78.5
X131.64Y-53.8
X131.75Y-96.545
X131.8Y-54.9
X131.8Y-55.7
X131.8Y-56.5
X131.8Y-58.9
X131.8Y-59.7
X131.8Y-61.3
X131.8Y-62.1
X131.8Y-63.7
X131.8Y-64.5
X131.8Y-66.1
X131.8Y-66.9
X131.8Y-68.5
X131.8Y-69.3
X131.8Y-70.1
X131.8Y-74.0
X131.8Y-74.6
X131.8Y-75.2
X131.85Y-65.3
X132.0Y-77.0
X132.0Y-78.0
X132.3Y-96.0
X132.375Y-91.4
X132.4Y-80.2
X132.4Y-82.0
X132.5Y-76.5
X132.5Y-77.5
X132.5Y-81.0
X132.5Y-84.0
X132.5Y-85.0
X132.5Y-86.0
X132.5Y-87.0
X132.5Y-88.0
X132.5Y-89.0
X132.5Y-90.0
X132.6Y-54.9
X132.6Y-55.7
X132.6Y-56.5
X132.6Y-58.1
X132.6Y-58.9
X132.6Y-59.7
X132.6Y-62.1
X132.6Y-63.7
X132.6Y-64.5
X132.6Y-65.3
X132.6Y-66.1
X132.6Y-66.9
X132.6Y-67.7
X132.6Y-69.3
X132.6Y-70.1
X133.0Y-74.0
X133.0Y-76.0
X133.0Y-77.0
X133.0Y-78.0
X133.0Y-82.0
X133.0Y-84.5
X133.0Y-85.5
X133.0Y-87.5
X133.0Y-88.5
X133.0Y-89.5
X133.0Y-90.5
X133.025Y-91.4
X133.05Y-80.2
X133.25Y-86.5
X133.5Y-59.0
X133.5Y-74.5
X133.5Y-78.5
X134.0Y-51.0
X134.0Y-60.5
X134.0Y-69.0
X134.0Y-74.0
X134.0Y-75.0
X134.34Y-54.2
X134.34Y-56.15
X134.34Y-56.8
X134.34Y-58.75
X134.5Y-78.5
X134.75Y-96.15
X134.77Y-61.825
X134.77Y-62.46
X134.77Y-63.73
X134.77Y-65.0
X134.77Y-66.27
X134.77Y-67.54
X135.0Y-76.0
X135.0Y-77.0
X135.0Y-78.0
X135.5Y-75.5
X135.5Y-76.5
X135.5Y-77.5
X135.5Y-78.5
X135.73Y-61.825
X135.73Y-62.46
X135.73Y-63.73
X135.73Y-65.0
X135.73Y-66.27
X135.73Y-66.905
X135.73Y-67.54
X135.9Y-95.7
X136.0Y-51.0
X136.0Y-70.0
X136.25Y-60.5
X136.41Y-54.2
X136.41Y-56.15
X136.41Y-56.8
X136.41Y-58.75
X136.69Y-61.825
X136.69Y-63.095
X136.69Y-63.73
X136.69Y-65.0
X136.69Y-65.635
X136.69Y-66.905
X136.69Y-67.54
X137.0Y-55.0
X137.0Y-57.0
X137.0Y-59.0
X137.0Y-95.8
X137.0Y-97.0
X137.31Y-61.825
X137.31Y-63.095
X137.31Y-64.365
X137.31Y-65.0
X137.31Y-66.27
X137.31Y-66.905
X137.31Y-67.54
X138.0Y-51.0
X138.0Y-56.0
X138.0Y-58.0
X138.0Y-70.0
X138.0Y-95.8
X138.0Y-99.0
X138.25Y-77.7
X138.25Y-78.7
X138.27Y-62.46
X138.27Y-63.095
X138.27Y-63.73
X138.27Y-64.365
X138.27Y-65.0
X138.27Y-65.635
X138.27Y-66.27
X138.27Y-66.905
X138.27Y-67.54
X138.27Y-68.175
X138.5Y-59.0
X138.75Y-77.2
X138.75Y-78.2
X139.0Y-54.0
X139.0Y-95.8
X139.0Y-99.0
X139.23Y-62.46
X139.23Y-63.095
X139.23Y-63.73
X139.23Y-68.175
X139.25Y-76.7
X139.5Y-60.75
X139.625Y-55.56
X139.625Y-56.8
X139.675Y-64.3
X139.675Y-66.3
X139.8Y-69.2
X139.8Y-72.8
X140.0Y-51.0
X140.0Y-95.8
X140.325Y-64.3
X140.4Y-99.0
X140.47Y-70.4
X140.5Y-69.8
X140.5Y-95.3
X140.63Y-62.03
X140.75Y-60.75
X140.75Y-80.15
X140.843Y-63.119
X141.2Y-69.2
X141.2Y-70.2
X141.25Y-72.75
X141.25Y-80.65
X141.25Y-93.0
X141.25Y-94.5
X141.3Y-86.5
X141.4Y-67.2
X141.4Y-67.8
X141.5Y-74.95
X141.5Y-75.95
X141.5Y-76.95
X141.5Y-77.95
X141.6Y-85.9
X141.6Y-99.0
X141.625Y-64.3
X141.625Y-66.3
X141.75Y-80.15
X141.75Y-95.3
X142.0Y-51.0
X142.0Y-70.2
X142.25Y-62.5
X142.25Y-72.75
X142.25Y-80.65
X142.25Y-93.0
X142.275Y-66.3
X142.275Y-64.3
X142.5Y-74.95
X142.5Y-75.95
X142.5Y-76.95
X142.5Y-77.95
X142.75Y-72.25
X142.75Y-80.15
X142.8Y-70.2
X142.9Y-99.0
X142.925Y-64.3
X143.0Y-61.6
X143.0Y-94.0
X143.0Y-95.3
X143.25Y-72.75
X143.25Y-80.65
X143.5Y-70.4
X143.5Y-74.95
X143.5Y-75.95
X143.5Y-76.95
X143.5Y-77.95
X143.575Y-64.3
X143.75Y-72.25
X143.75Y-80.15
X143.9Y-69.15
X144.0Y-51.0
X144.0Y-55.0
X144.0Y-99.0
X144.1Y-67.6
X144.1Y-68.5
X144.215Y-63.22
X144.225Y-64.3
X144.225Y-66.3
X144.25Y-61.6
X144.25Y-72.75
X144.25Y-80.65
X144.5Y-74.95
X144.5Y-75.95
X144.5Y-76.95
X144.5Y-77.95
X144.69Y-71.5
X144.7Y-70.45
X144.75Y-72.25
X144.75Y-80.15
X145.0Y-54.0
X145.0Y-56.0
X145.0Y-58.0
X145.0Y-64.0
X145.0Y-65.0
X145.0Y-66.0
X145.0Y-67.0
X145.0Y-94.0
X145.0Y-96.0
X145.0Y-99.0
X145.2Y-71.0
X145.25Y-80.65
X145.5Y-82.0
X145.5Y-86.0
X145.5Y-89.0
X145.775Y-72.5
X145.78Y-73.65
X146.0Y-51.0
X146.0Y-55.0
X146.0Y-92.0
X146.5Y-65.0
X146.5Y-66.0
X146.5Y-67.0
X146.6Y-74.2
X146.6Y-75.2
X146.6Y-76.2
X146.6Y-77.2
X147.0Y-72.0
X147.0Y-74.7
X147.0Y-75.7
X147.0Y-76.7
X147.0Y-78.2
X147.0Y-80.0
X147.0Y-82.0
X147.0Y-84.5
X147.0Y-86.0
X147.0Y-88.0
X147.0Y-89.0
X147.0Y-91.5
X147.0Y-94.0
X147.0Y-96.0
X147.73Y-73.8
X148.0Y-55.0
X148.0Y-85.0
X148.4Y-74.46
X148.4Y-75.1
X148.4Y-76.01
X148.4Y-76.6
X148.4Y-77.56
X148.4Y-78.2
X148.7Y-73.8
X149.0Y-56.0
X149.0Y-58.0
X149.0Y-60.0
X149.0Y-62.0
X149.0Y-64.0
X149.0Y-66.0
X149.0Y-68.0
X149.0Y-70.0
X149.0Y-72.0
X149.0Y-82.0
X149.0Y-84.0
X149.0Y-86.0
X149.0Y-88.0
X149.0Y-90.0
X149.0Y-92.0
T2
X125.75Y-80.962
X126.75Y-80.962
T3
X110.8Y-80.85
X110.8Y-81.85
X110.8Y-82.85
X110.8Y-83.85
X110.8Y-84.85
X110.8Y-85.85
X110.8Y-86.85
X110.8Y-87.85
X110.8Y-88.85
X110.8Y-89.85
X110.8Y-90.85
X110.8Y-91.85
X111.8Y-80.85
X111.8Y-81.85
X111.8Y-82.85
X111.8Y-83.85
X111.8Y-84.85
X111.8Y-85.85
X111.8Y-86.85
X111.8Y-87.85
X111.8Y-88.85
X111.8Y-89.85
X111.8Y-90.85
X111.8Y-91.85
X111.8Y-93.85
X112.8Y-80.85
X112.8Y-81.85
X112.8Y-82.85
X112.8Y-83.85
X112.8Y-84.85
X112.8Y-85.85
X112.8Y-86.85
X112.8Y-87.85
X112.8Y-88.85
X112.8Y-89.85
X112.8Y-90.85
X112.8Y-91.85
X112.8Y-93.85
X112.8Y-94.85
X113.8Y-93.85
X113.8Y-94.85
X121.8Y-92.85
X121.8Y-93.85
X121.8Y-94.85
X122.8Y-94.85
X123.8Y-94.85
X124.8Y-94.85
X125.8Y-94.85
X126.8Y-94.85
X127.8Y-90.85
X127.8Y-91.85
X127.8Y-92.85
X127.8Y-93.85
X127.8Y-94.85
X128.8Y-90.85
X128.8Y-91.85
X128.8Y-92.85
X128.8Y-93.85
X128.8Y-94.85
X137.2Y-81.85
X137.2Y-82.85
X137.2Y-83.85
X137.2Y-84.85
X137.2Y-85.85
X137.2Y-86.85
X137.2Y-87.85
X137.2Y-88.85
X137.2Y-89.85
X137.2Y-90.85
X137.2Y-91.85
X137.2Y-92.85
X137.2Y-93.85
X138.2Y-81.85
X138.2Y-82.85
X138.2Y-83.85
X138.2Y-84.85
X138.2Y-85.85
X138.2Y-86.85
X138.2Y-87.85
X138.2Y-88.85
X138.2Y-89.85
X138.2Y-90.85
X138.2Y-91.85
X138.2Y-92.85
X138.2Y-93.85
X139.2Y-81.85
X139.2Y-82.85
X139.2Y-83.85
X139.2Y-84.85
X139.2Y-85.85
X139.2Y-86.85
X139.2Y-87.85
X139.2Y-88.85
X139.2Y-89.85
X139.2Y-90.85
X139.2Y-91.85
X139.2Y-92.85
X139.2Y-93.85
T4
X147.3Y-56.5
X147.3Y-57.75
X147.3Y-59.0
X147.3Y-60.25
X147.3Y-61.5
X147.3Y-62.75
X147.3Y-64.0
X147.3Y-67.9
X147.3Y-69.15
X147.3Y-70.4
X102.7Y-67.9
X102.7Y-69.15
X102.7Y-70.4
X136.0Y-52.7
X137.25Y-52.7
X138.5Y-52.7
X139.75Y-52.7
X141.0Y-52.7
X142.25Y-52.7
X143.5Y-52.7
X106.5Y-52.7
X107.75Y-52.7
X109.0Y-52.7
X110.25Y-52.7
X111.5Y-52.7
X106.5Y-97.25
X107.75Y-97.25
X109.0Y-97.25
X110.25Y-97.25
X111.5Y-97.25
X101.95Y-57.25
X103.2Y-57.25
X104.45Y-57.25
X105.7Y-57.25
X106.95Y-57.25
X108.2Y-57.25
X109.45Y-57.25
X110.7Y-57.25
X111.95Y-57.25
X113.2Y-57.25
X114.45Y-57.25
X138.5Y-97.25
X139.75Y-97.25
X141.0Y-97.25
X142.25Y-97.25
X143.5Y-97.25
X102.7Y-60.9
X102.7Y-62.15
T5
X128.95Y-51.38
X128.95Y-52.65
X130.22Y-51.38
X130.22Y-52.65
X131.49Y-51.38
X131.49Y-52.65
X132.76Y-51.38
X132.76Y-52.65
T6
X101.75Y-80.5
X101.75Y-93.5
X148.25Y-80.5
X148.25Y-93.5
X119.5Y-98.5
X130.5Y-98.5
T7
X106.75Y-83.5
X106.75Y-87.0
X106.75Y-90.5
X143.25Y-83.5
X143.25Y-87.0
X143.25Y-90.5
X122.5Y-88.5
X127.5Y-88.5
T0
M30
