%TF.GenerationSoftware,KiCad,Pcbnew,(6.0.5)*%
%TF.CreationDate,2023-02-03T13:51:03+01:00*%
%TF.ProjectId,omodri_laas,6f6d6f64-7269-45f6-9c61-61732e6b6963,2.0*%
%TF.SameCoordinates,Original*%
%TF.FileFunction,Soldermask,Bot*%
%TF.FilePolarity,Negative*%
%FSLAX46Y46*%
G04 Gerber Fmt 4.6, Leading zero omitted, Abs format (unit mm)*
G04 Created by KiCad (PCBNEW (6.0.5)) date 2023-02-03 13:51:03*
%MOMM*%
%LPD*%
G01*
G04 APERTURE LIST*
G04 Aperture macros list*
%AMRoundRect*
0 Rectangle with rounded corners*
0 $1 Rounding radius*
0 $2 $3 $4 $5 $6 $7 $8 $9 X,Y pos of 4 corners*
0 Add a 4 corners polygon primitive as box body*
4,1,4,$2,$3,$4,$5,$6,$7,$8,$9,$2,$3,0*
0 Add four circle primitives for the rounded corners*
1,1,$1+$1,$2,$3*
1,1,$1+$1,$4,$5*
1,1,$1+$1,$6,$7*
1,1,$1+$1,$8,$9*
0 Add four rect primitives between the rounded corners*
20,1,$1+$1,$2,$3,$4,$5,0*
20,1,$1+$1,$4,$5,$6,$7,0*
20,1,$1+$1,$6,$7,$8,$9,0*
20,1,$1+$1,$8,$9,$2,$3,0*%
%AMFreePoly0*
4,1,53,0.769135,2.406194,0.811561,2.388620,0.838620,2.361561,0.856194,2.319135,0.860000,2.300000,0.860000,1.360000,1.250000,1.360000,1.269135,1.356194,1.311561,1.338620,1.338620,1.311561,1.356194,1.269135,1.360000,1.250000,1.360000,-1.250000,1.356194,-1.269135,1.338620,-1.311561,1.311561,-1.338620,1.269135,-1.356194,1.250000,-1.360000,0.860000,-1.360000,0.860000,-2.300000,
0.856194,-2.319135,0.838620,-2.361561,0.811561,-2.388620,0.769135,-2.406194,0.750000,-2.410000,-0.750000,-2.410000,-0.769135,-2.406194,-0.811561,-2.388620,-0.838620,-2.361561,-0.856194,-2.319135,-0.860000,-2.300000,-0.860000,-1.360000,-1.250000,-1.360000,-1.269135,-1.356194,-1.311561,-1.338620,-1.338620,-1.311561,-1.356194,-1.269135,-1.360000,-1.250000,-1.360000,1.250000,-1.356194,1.269135,
-1.338620,1.311561,-1.311561,1.338620,-1.269135,1.356194,-1.250000,1.360000,-0.860000,1.360000,-0.860000,2.300000,-0.856194,2.319135,-0.838620,2.361561,-0.811561,2.388620,-0.769135,2.406194,-0.750000,2.410000,0.750000,2.410000,0.769135,2.406194,0.769135,2.406194,$1*%
%AMFreePoly1*
4,1,16,0.535355,0.785355,0.541603,0.777735,1.041603,0.027735,1.049029,-0.009806,1.041603,-0.027735,0.541603,-0.777735,0.509806,-0.799029,0.500000,-0.800000,-0.500000,-0.800000,-0.535355,-0.785355,-0.550000,-0.750000,-0.550000,0.750000,-0.535355,0.785355,-0.500000,0.800000,0.500000,0.800000,0.535355,0.785355,0.535355,0.785355,$1*%
G04 Aperture macros list end*
%ADD10C,2.300000*%
%ADD11C,1.500000*%
%ADD12RoundRect,0.050000X1.500000X1.500000X-1.500000X1.500000X-1.500000X-1.500000X1.500000X-1.500000X0*%
%ADD13C,3.100000*%
%ADD14RoundRect,0.050000X1.750000X1.750000X-1.750000X1.750000X-1.750000X-1.750000X1.750000X-1.750000X0*%
%ADD15C,3.600000*%
%ADD16C,0.900000*%
%ADD17RoundRect,0.050000X0.525000X-0.525000X0.525000X0.525000X-0.525000X0.525000X-0.525000X-0.525000X0*%
%ADD18O,1.150000X1.150000*%
%ADD19RoundRect,0.300000X0.450000X-0.250000X0.450000X0.250000X-0.450000X0.250000X-0.450000X-0.250000X0*%
%ADD20O,1.500000X1.100000*%
%ADD21RoundRect,0.150000X0.100000X-0.130000X0.100000X0.130000X-0.100000X0.130000X-0.100000X-0.130000X0*%
%ADD22RoundRect,0.150000X-0.100000X0.130000X-0.100000X-0.130000X0.100000X-0.130000X0.100000X0.130000X0*%
%ADD23RoundRect,0.150000X-0.130000X-0.100000X0.130000X-0.100000X0.130000X0.100000X-0.130000X0.100000X0*%
%ADD24RoundRect,0.150000X0.130000X0.100000X-0.130000X0.100000X-0.130000X-0.100000X0.130000X-0.100000X0*%
%ADD25RoundRect,0.190000X0.170000X-0.140000X0.170000X0.140000X-0.170000X0.140000X-0.170000X-0.140000X0*%
%ADD26RoundRect,0.190000X0.140000X0.170000X-0.140000X0.170000X-0.140000X-0.170000X0.140000X-0.170000X0*%
%ADD27RoundRect,0.190000X-0.140000X-0.170000X0.140000X-0.170000X0.140000X0.170000X-0.140000X0.170000X0*%
%ADD28RoundRect,0.185000X-0.185000X0.135000X-0.185000X-0.135000X0.185000X-0.135000X0.185000X0.135000X0*%
%ADD29RoundRect,0.050000X0.425000X-0.140000X0.425000X0.140000X-0.425000X0.140000X-0.425000X-0.140000X0*%
%ADD30RoundRect,0.050000X0.375000X-0.140000X0.375000X0.140000X-0.375000X0.140000X-0.375000X-0.140000X0*%
%ADD31RoundRect,0.175000X-0.125000X0.537500X-0.125000X-0.537500X0.125000X-0.537500X0.125000X0.537500X0*%
%ADD32RoundRect,0.300000X2.450000X-0.650000X2.450000X0.650000X-2.450000X0.650000X-2.450000X-0.650000X0*%
%ADD33RoundRect,0.050000X0.140000X0.425000X-0.140000X0.425000X-0.140000X-0.425000X0.140000X-0.425000X0*%
%ADD34RoundRect,0.050000X0.140000X0.375000X-0.140000X0.375000X-0.140000X-0.375000X0.140000X-0.375000X0*%
%ADD35RoundRect,0.150000X-0.637500X-0.100000X0.637500X-0.100000X0.637500X0.100000X-0.637500X0.100000X0*%
%ADD36RoundRect,0.050000X0.900000X-0.350000X0.900000X0.350000X-0.900000X0.350000X-0.900000X-0.350000X0*%
%ADD37RoundRect,0.050000X1.100000X-0.800000X1.100000X0.800000X-1.100000X0.800000X-1.100000X-0.800000X0*%
%ADD38RoundRect,0.050000X0.350000X0.900000X-0.350000X0.900000X-0.350000X-0.900000X0.350000X-0.900000X0*%
%ADD39RoundRect,0.050000X0.800000X1.100000X-0.800000X1.100000X-0.800000X-1.100000X0.800000X-1.100000X0*%
%ADD40RoundRect,0.050000X-0.350000X-0.900000X0.350000X-0.900000X0.350000X0.900000X-0.350000X0.900000X0*%
%ADD41RoundRect,0.050000X-0.800000X-1.100000X0.800000X-1.100000X0.800000X1.100000X-0.800000X1.100000X0*%
%ADD42RoundRect,0.050000X-0.350000X0.150000X-0.350000X-0.150000X0.350000X-0.150000X0.350000X0.150000X0*%
%ADD43RoundRect,0.050000X-0.500000X0.150000X-0.500000X-0.150000X0.500000X-0.150000X0.500000X0.150000X0*%
%ADD44RoundRect,0.185000X-0.135000X-0.185000X0.135000X-0.185000X0.135000X0.185000X-0.135000X0.185000X0*%
%ADD45RoundRect,0.197500X-0.147500X-0.172500X0.147500X-0.172500X0.147500X0.172500X-0.147500X0.172500X0*%
%ADD46RoundRect,0.197500X0.172500X-0.147500X0.172500X0.147500X-0.172500X0.147500X-0.172500X-0.147500X0*%
%ADD47RoundRect,0.197500X-0.172500X0.147500X-0.172500X-0.147500X0.172500X-0.147500X0.172500X0.147500X0*%
%ADD48C,0.500000*%
%ADD49RoundRect,0.050000X-0.350000X0.400000X-0.350000X-0.400000X0.350000X-0.400000X0.350000X0.400000X0*%
%ADD50RoundRect,0.300000X-1.100000X0.325000X-1.100000X-0.325000X1.100000X-0.325000X1.100000X0.325000X0*%
%ADD51RoundRect,0.050000X-0.750000X0.500000X-0.750000X-0.500000X0.750000X-0.500000X0.750000X0.500000X0*%
%ADD52RoundRect,0.050000X-0.249999X0.100000X-0.249999X-0.100000X0.249999X-0.100000X0.249999X0.100000X0*%
%ADD53RoundRect,0.050000X-0.700000X-0.250000X0.700000X-0.250000X0.700000X0.250000X-0.700000X0.250000X0*%
%ADD54RoundRect,0.050000X-0.350000X-0.175000X0.350000X-0.175000X0.350000X0.175000X-0.350000X0.175000X0*%
%ADD55FreePoly0,0.000000*%
%ADD56RoundRect,0.300000X0.475000X-0.250000X0.475000X0.250000X-0.475000X0.250000X-0.475000X-0.250000X0*%
%ADD57RoundRect,0.275000X0.250000X-0.225000X0.250000X0.225000X-0.250000X0.225000X-0.250000X-0.225000X0*%
%ADD58O,1.500000X1.500000*%
%ADD59R,1.500000X1.500000*%
%ADD60FreePoly1,90.000000*%
%ADD61FreePoly1,270.000000*%
%ADD62RoundRect,0.300000X-0.250000X-0.475000X0.250000X-0.475000X0.250000X0.475000X-0.250000X0.475000X0*%
G04 APERTURE END LIST*
D10*
%TO.C,H3*%
X102000000Y-52000000D03*
%TD*%
%TO.C,H4*%
X148000000Y-98000000D03*
%TD*%
%TO.C,H1*%
X102000000Y-98000000D03*
%TD*%
D11*
%TO.C,J11*%
X131800000Y-95975000D03*
X144800000Y-95975000D03*
D12*
X134800000Y-90975000D03*
D13*
X138300000Y-90975000D03*
X141800000Y-90975000D03*
%TD*%
D10*
%TO.C,H2*%
X148000000Y-52000000D03*
%TD*%
D11*
%TO.C,J6*%
X130500000Y-98500000D03*
X119500000Y-98500000D03*
D14*
X122500000Y-88500000D03*
D15*
X127500000Y-88500000D03*
%TD*%
D11*
%TO.C,J10*%
X105200000Y-95975000D03*
X118200000Y-95975000D03*
D12*
X108200000Y-90975000D03*
D13*
X111700000Y-90975000D03*
X115200000Y-90975000D03*
%TD*%
D16*
%TO.C,SW1*%
X136000000Y-52000000D03*
%TD*%
D17*
%TO.C,J7*%
X140000000Y-51400000D03*
D18*
X140000000Y-52670000D03*
X141270000Y-51400000D03*
X141270000Y-52670000D03*
X142540000Y-51400000D03*
X142540000Y-52670000D03*
X143810000Y-51400000D03*
X143810000Y-52670000D03*
%TD*%
D19*
%TO.C,J12*%
X102550000Y-67525000D03*
D20*
X102550000Y-66275000D03*
X102550000Y-65025000D03*
X102550000Y-63775000D03*
X102550000Y-62525000D03*
X102550000Y-61275000D03*
X102550000Y-60025000D03*
X102550000Y-58775000D03*
X102550000Y-57525000D03*
X102550000Y-56275000D03*
%TD*%
D21*
%TO.C,C50*%
X129000000Y-65220000D03*
X129000000Y-64580000D03*
%TD*%
D22*
%TO.C,C47*%
X130400000Y-69300000D03*
X130400000Y-69940000D03*
%TD*%
D23*
%TO.C,C83*%
X127080000Y-66500000D03*
X127720000Y-66500000D03*
%TD*%
%TO.C,C94*%
X131880000Y-55300000D03*
X132520000Y-55300000D03*
%TD*%
D22*
%TO.C,C93*%
X132200000Y-64580000D03*
X132200000Y-65220000D03*
%TD*%
D21*
%TO.C,C92*%
X126600000Y-70020000D03*
X126600000Y-69380000D03*
%TD*%
D24*
%TO.C,C91*%
X118120000Y-68900000D03*
X117480000Y-68900000D03*
%TD*%
D22*
%TO.C,C89*%
X121000000Y-57380000D03*
X121000000Y-58020000D03*
%TD*%
D24*
%TO.C,C86*%
X127720000Y-59300000D03*
X127080000Y-59300000D03*
%TD*%
D22*
%TO.C,C81*%
X121000000Y-65380000D03*
X121000000Y-66020000D03*
%TD*%
D24*
%TO.C,C82*%
X122920000Y-65700000D03*
X122280000Y-65700000D03*
%TD*%
D21*
%TO.C,C80*%
X121000000Y-62820000D03*
X121000000Y-62180000D03*
%TD*%
D23*
%TO.C,C78*%
X122280000Y-59300000D03*
X122920000Y-59300000D03*
%TD*%
D21*
%TO.C,C76*%
X129000000Y-59620000D03*
X129000000Y-58980000D03*
%TD*%
%TO.C,C75*%
X128200000Y-62820000D03*
X128200000Y-62180000D03*
%TD*%
D22*
%TO.C,C73*%
X121000000Y-63780000D03*
X121000000Y-64420000D03*
%TD*%
D25*
%TO.C,C63*%
X130700000Y-65380000D03*
X130700000Y-64420000D03*
%TD*%
D24*
%TO.C,C2*%
X140820000Y-65375000D03*
X140180000Y-65375000D03*
%TD*%
%TO.C,C52*%
X128920000Y-61300000D03*
X128280000Y-61300000D03*
%TD*%
D23*
%TO.C,C61*%
X123880000Y-65700000D03*
X124520000Y-65700000D03*
%TD*%
D22*
%TO.C,C51*%
X129000000Y-66180000D03*
X129000000Y-66820000D03*
%TD*%
D26*
%TO.C,C70*%
X128600000Y-69700000D03*
X127640000Y-69700000D03*
%TD*%
D27*
%TO.C,C60*%
X123520000Y-66600000D03*
X124480000Y-66600000D03*
%TD*%
%TO.C,C66*%
X123240000Y-62500000D03*
X124200000Y-62500000D03*
%TD*%
D24*
%TO.C,C53*%
X128920000Y-60500000D03*
X128280000Y-60500000D03*
%TD*%
%TO.C,C54*%
X122920000Y-57700000D03*
X122280000Y-57700000D03*
%TD*%
D21*
%TO.C,C79*%
X121000000Y-59620000D03*
X121000000Y-58980000D03*
%TD*%
%TO.C,C72*%
X121000000Y-61220000D03*
X121000000Y-60580000D03*
%TD*%
D23*
%TO.C,R6*%
X141580000Y-65375000D03*
X142220000Y-65375000D03*
%TD*%
D22*
%TO.C,R16*%
X134000000Y-54530000D03*
X134000000Y-55170000D03*
%TD*%
D28*
%TO.C,R24*%
X148100000Y-91690000D03*
X148100000Y-92710000D03*
%TD*%
D29*
%TO.C,U8*%
X124075000Y-57400000D03*
D30*
X124025000Y-56900000D03*
X124025000Y-56400000D03*
X125175000Y-56400000D03*
X125175000Y-56900000D03*
X125175000Y-57400000D03*
%TD*%
D21*
%TO.C,C13*%
X134000000Y-56570000D03*
X134000000Y-55930000D03*
%TD*%
D31*
%TO.C,U17*%
X116900000Y-72262500D03*
X117550000Y-72262500D03*
X118200000Y-72262500D03*
X118850000Y-72262500D03*
X118850000Y-74537500D03*
X118200000Y-74537500D03*
X117550000Y-74537500D03*
X116900000Y-74537500D03*
%TD*%
D32*
%TO.C,C15*%
X103500000Y-86350000D03*
X103500000Y-81250000D03*
%TD*%
%TO.C,C16*%
X110200000Y-86350000D03*
X110200000Y-81250000D03*
%TD*%
D24*
%TO.C,C1*%
X140820000Y-66625000D03*
X140180000Y-66625000D03*
%TD*%
D21*
%TO.C,R11*%
X123500000Y-74720000D03*
X123500000Y-74080000D03*
%TD*%
%TO.C,R9*%
X125500000Y-74720000D03*
X125500000Y-74080000D03*
%TD*%
%TO.C,R12*%
X122500000Y-74720000D03*
X122500000Y-74080000D03*
%TD*%
%TO.C,C10*%
X123500000Y-72820000D03*
X123500000Y-72180000D03*
%TD*%
%TO.C,C6*%
X125500000Y-72820000D03*
X125500000Y-72180000D03*
%TD*%
%TO.C,C11*%
X122500000Y-72820000D03*
X122500000Y-72180000D03*
%TD*%
%TO.C,R10*%
X124500000Y-74720000D03*
X124500000Y-74080000D03*
%TD*%
%TO.C,C5*%
X126500000Y-72820000D03*
X126500000Y-72180000D03*
%TD*%
%TO.C,C9*%
X124500000Y-72820000D03*
X124500000Y-72180000D03*
%TD*%
%TO.C,C4*%
X127500000Y-72820000D03*
X127500000Y-72180000D03*
%TD*%
%TO.C,C64*%
X129800000Y-65220000D03*
X129800000Y-64580000D03*
%TD*%
D24*
%TO.C,C21*%
X127720000Y-58500000D03*
X127080000Y-58500000D03*
%TD*%
D33*
%TO.C,U7*%
X128700000Y-57025000D03*
D34*
X128200000Y-57075000D03*
X127700000Y-57075000D03*
X127700000Y-55925000D03*
X128200000Y-55925000D03*
X128700000Y-55925000D03*
%TD*%
D32*
%TO.C,C17*%
X139900000Y-86350000D03*
X139900000Y-81250000D03*
%TD*%
D21*
%TO.C,C88*%
X117400000Y-63220000D03*
X117400000Y-62580000D03*
%TD*%
D24*
%TO.C,C87*%
X126120000Y-59300000D03*
X125480000Y-59300000D03*
%TD*%
D23*
%TO.C,C67*%
X123880000Y-59300000D03*
X124520000Y-59300000D03*
%TD*%
D24*
%TO.C,C22*%
X122920000Y-56100000D03*
X122280000Y-56100000D03*
%TD*%
D21*
%TO.C,R14*%
X134000000Y-59370000D03*
X134000000Y-58730000D03*
%TD*%
%TO.C,C34*%
X132300000Y-69300000D03*
X132300000Y-68660000D03*
%TD*%
D24*
%TO.C,C33*%
X127800000Y-67900000D03*
X127160000Y-67900000D03*
%TD*%
D23*
%TO.C,R67*%
X112250000Y-58200000D03*
X112890000Y-58200000D03*
%TD*%
D35*
%TO.C,U4*%
X135737500Y-58875000D03*
X135737500Y-58225000D03*
X135737500Y-57575000D03*
X135737500Y-56925000D03*
X135737500Y-56275000D03*
X135737500Y-55625000D03*
X135737500Y-54975000D03*
X135737500Y-54325000D03*
X141462500Y-54325000D03*
X141462500Y-54975000D03*
X141462500Y-55625000D03*
X141462500Y-56275000D03*
X141462500Y-56925000D03*
X141462500Y-57575000D03*
X141462500Y-58225000D03*
X141462500Y-58875000D03*
%TD*%
D22*
%TO.C,R15*%
X134000000Y-57330000D03*
X134000000Y-57970000D03*
%TD*%
D23*
%TO.C,R5*%
X141580000Y-66625000D03*
X142220000Y-66625000D03*
%TD*%
D36*
%TO.C,J1*%
X143700000Y-67875000D03*
X143700000Y-66625000D03*
X143700000Y-65375000D03*
X143700000Y-64125000D03*
D37*
X147000000Y-70225000D03*
X147000000Y-61775000D03*
%TD*%
D38*
%TO.C,J14*%
X113500000Y-56300000D03*
X112250000Y-56300000D03*
X111000000Y-56300000D03*
X109750000Y-56300000D03*
X108500000Y-56300000D03*
D39*
X115850000Y-53000000D03*
X106150000Y-53000000D03*
%TD*%
D40*
%TO.C,J2*%
X135800000Y-93950000D03*
X137050000Y-93950000D03*
X138300000Y-93950000D03*
X139550000Y-93950000D03*
X140800000Y-93950000D03*
D41*
X133450000Y-97250000D03*
X143150000Y-97250000D03*
%TD*%
D40*
%TO.C,J3*%
X109200000Y-93950000D03*
X110450000Y-93950000D03*
X111700000Y-93950000D03*
X112950000Y-93950000D03*
X114200000Y-93950000D03*
D41*
X106850000Y-97250000D03*
X116550000Y-97250000D03*
%TD*%
D42*
%TO.C,J4*%
X146500000Y-56000000D03*
X146500000Y-56500000D03*
X146500000Y-57000000D03*
X146500000Y-57500000D03*
X146500000Y-58000000D03*
X146500000Y-58500000D03*
X146500000Y-59000000D03*
X146500000Y-59500000D03*
D43*
X149150000Y-55210000D03*
X149150000Y-60290000D03*
%TD*%
D24*
%TO.C,C46*%
X129400000Y-67900000D03*
X128760000Y-67900000D03*
%TD*%
D21*
%TO.C,R7*%
X127500000Y-74720000D03*
X127500000Y-74080000D03*
%TD*%
D22*
%TO.C,C19*%
X130400000Y-67880000D03*
X130400000Y-68520000D03*
%TD*%
D21*
%TO.C,C71*%
X132200000Y-66820000D03*
X132200000Y-66180000D03*
%TD*%
D23*
%TO.C,R55*%
X125480000Y-65700000D03*
X126120000Y-65700000D03*
%TD*%
%TO.C,C48*%
X131000000Y-70700000D03*
X131640000Y-70700000D03*
%TD*%
D24*
%TO.C,C55*%
X122920000Y-56900000D03*
X122280000Y-56900000D03*
%TD*%
D44*
%TO.C,R25*%
X148100000Y-93950000D03*
X149120000Y-93950000D03*
%TD*%
D21*
%TO.C,R8*%
X126500000Y-74720000D03*
X126500000Y-74080000D03*
%TD*%
D22*
%TO.C,C20*%
X124000000Y-51350000D03*
X124000000Y-51990000D03*
%TD*%
D24*
%TO.C,C101*%
X118200000Y-70800000D03*
X117560000Y-70800000D03*
%TD*%
D45*
%TO.C,D5*%
X148100000Y-94950000D03*
X149070000Y-94950000D03*
%TD*%
D46*
%TO.C,D7*%
X141200000Y-64485000D03*
X141200000Y-63515000D03*
%TD*%
D47*
%TO.C,D8*%
X141200000Y-67515000D03*
X141200000Y-68485000D03*
%TD*%
D21*
%TO.C,R56*%
X121800000Y-61220000D03*
X121800000Y-60580000D03*
%TD*%
D24*
%TO.C,C35*%
X129400000Y-70700000D03*
X128760000Y-70700000D03*
%TD*%
D16*
%TO.C,J9*%
X113000000Y-69260000D03*
X114270000Y-60740000D03*
D48*
X111250000Y-62142500D03*
X111250000Y-62777500D03*
X111250000Y-63412500D03*
X111250000Y-64047500D03*
X111250000Y-64682500D03*
X111250000Y-65317500D03*
X111250000Y-65952500D03*
X111250000Y-66587500D03*
X111250000Y-67222500D03*
X111250000Y-67857500D03*
X112210000Y-62142500D03*
X112210000Y-62777500D03*
X112210000Y-63412500D03*
X112210000Y-64047500D03*
X112210000Y-64682500D03*
X112210000Y-65317500D03*
X112210000Y-65952500D03*
X112210000Y-66587500D03*
X112210000Y-67222500D03*
X112210000Y-67857500D03*
X113790000Y-62142500D03*
X113790000Y-62777500D03*
X113790000Y-63412500D03*
X113790000Y-64047500D03*
X113790000Y-64682500D03*
X113790000Y-65317500D03*
X113790000Y-65952500D03*
X113790000Y-66587500D03*
X113790000Y-67222500D03*
X113790000Y-67857500D03*
X114750000Y-62142500D03*
X114750000Y-62777500D03*
X114750000Y-63412500D03*
X114750000Y-64047500D03*
X114750000Y-64682500D03*
X114750000Y-65317500D03*
X114750000Y-65952500D03*
X114750000Y-66587500D03*
X114750000Y-67222500D03*
X114750000Y-67857500D03*
%TD*%
D22*
%TO.C,R28*%
X132500000Y-61480000D03*
X132500000Y-62120000D03*
%TD*%
D21*
%TO.C,C90*%
X117800000Y-56420000D03*
X117800000Y-55780000D03*
%TD*%
D49*
%TO.C,X1*%
X126000000Y-51350000D03*
X126000000Y-52650000D03*
X125000000Y-52650000D03*
X125000000Y-51350000D03*
%TD*%
D22*
%TO.C,C84*%
X128200000Y-63780000D03*
X128200000Y-64420000D03*
%TD*%
D23*
%TO.C,C85*%
X127080000Y-65700000D03*
X127720000Y-65700000D03*
%TD*%
D16*
%TO.C,J8*%
X137000000Y-69260000D03*
X138270000Y-60740000D03*
D48*
X135250000Y-62142500D03*
X135250000Y-62777500D03*
X135250000Y-63412500D03*
X135250000Y-64047500D03*
X135250000Y-64682500D03*
X135250000Y-65317500D03*
X135250000Y-65952500D03*
X135250000Y-66587500D03*
X135250000Y-67222500D03*
X135250000Y-67857500D03*
X136210000Y-62142500D03*
X136210000Y-62777500D03*
X136210000Y-63412500D03*
X136210000Y-64047500D03*
X136210000Y-64682500D03*
X136210000Y-65317500D03*
X136210000Y-65952500D03*
X136210000Y-66587500D03*
X136210000Y-67222500D03*
X136210000Y-67857500D03*
X137790000Y-62142500D03*
X137790000Y-62777500D03*
X137790000Y-63412500D03*
X137790000Y-64047500D03*
X137790000Y-64682500D03*
X137790000Y-65317500D03*
X137790000Y-65952500D03*
X137790000Y-66587500D03*
X137790000Y-67222500D03*
X137790000Y-67857500D03*
X138750000Y-62142500D03*
X138750000Y-62777500D03*
X138750000Y-63412500D03*
X138750000Y-64047500D03*
X138750000Y-64682500D03*
X138750000Y-65317500D03*
X138750000Y-65952500D03*
X138750000Y-66587500D03*
X138750000Y-67222500D03*
X138750000Y-67857500D03*
%TD*%
D23*
%TO.C,C74*%
X125480000Y-66500000D03*
X126120000Y-66500000D03*
%TD*%
%TO.C,C77*%
X123880000Y-58500000D03*
X124520000Y-58500000D03*
%TD*%
D50*
%TO.C,C95*%
X145950000Y-91275000D03*
X145950000Y-94225000D03*
%TD*%
D51*
%TO.C,JP7*%
X120900000Y-70650000D03*
X120900000Y-71950000D03*
%TD*%
D23*
%TO.C,R27*%
X127835000Y-54000000D03*
X128475000Y-54000000D03*
%TD*%
D52*
%TO.C,D1*%
X143775000Y-58500000D03*
X143775000Y-58000001D03*
X143775000Y-57499999D03*
X143775000Y-57000000D03*
X143775000Y-56499998D03*
X143775000Y-55999999D03*
X143775000Y-55500000D03*
X145025000Y-55500000D03*
X145025000Y-55999999D03*
X145025000Y-56499998D03*
X145025000Y-57000000D03*
X145025000Y-57499999D03*
X145025000Y-58000001D03*
X145025000Y-58500000D03*
%TD*%
D40*
%TO.C,J13*%
X124375000Y-93950000D03*
X125625000Y-93950000D03*
D41*
X122125000Y-97250000D03*
X127875000Y-97250000D03*
%TD*%
D22*
%TO.C,R13*%
X144900000Y-59200000D03*
X144900000Y-59840000D03*
%TD*%
D53*
%TO.C,U15*%
X130900000Y-83145000D03*
D54*
X130550000Y-82170000D03*
X130550000Y-81520000D03*
X130550000Y-80870000D03*
X130550000Y-80220000D03*
X130550000Y-79570000D03*
D53*
X130900000Y-78845000D03*
X134900000Y-78845000D03*
D54*
X135250000Y-79570000D03*
X135250000Y-80220000D03*
X135250000Y-80870000D03*
X135250000Y-81520000D03*
X135250000Y-82170000D03*
D53*
X134900000Y-83145000D03*
D55*
X132900000Y-81000000D03*
%TD*%
D50*
%TO.C,C96*%
X130650000Y-91275000D03*
X130650000Y-94225000D03*
%TD*%
D24*
%TO.C,R68*%
X111000000Y-58200000D03*
X110360000Y-58200000D03*
%TD*%
D21*
%TO.C,R59*%
X109700000Y-61000000D03*
X109700000Y-60360000D03*
%TD*%
%TO.C,R60*%
X103800000Y-61000000D03*
X103800000Y-60360000D03*
%TD*%
D22*
%TO.C,R57*%
X136200000Y-78930000D03*
X136200000Y-79570000D03*
%TD*%
D56*
%TO.C,C98*%
X133800000Y-77350000D03*
X133800000Y-75450000D03*
%TD*%
D32*
%TO.C,C18*%
X146600000Y-86350000D03*
X146600000Y-81250000D03*
%TD*%
D22*
%TO.C,R58*%
X137000000Y-78930000D03*
X137000000Y-79570000D03*
%TD*%
D21*
%TO.C,R61*%
X120000000Y-74040000D03*
X120000000Y-73400000D03*
%TD*%
%TO.C,R49*%
X120400000Y-81715000D03*
X120400000Y-81075000D03*
%TD*%
D50*
%TO.C,C57*%
X119350000Y-91275000D03*
X119350000Y-94225000D03*
%TD*%
D22*
%TO.C,R48*%
X121100000Y-78930000D03*
X121100000Y-79570000D03*
%TD*%
D57*
%TO.C,C97*%
X128750000Y-83275000D03*
X128750000Y-81725000D03*
%TD*%
D50*
%TO.C,C56*%
X104050000Y-91275000D03*
X104050000Y-94225000D03*
%TD*%
D53*
%TO.C,U11*%
X115100000Y-83145000D03*
D54*
X114750000Y-82170000D03*
X114750000Y-81520000D03*
X114750000Y-80870000D03*
X114750000Y-80220000D03*
X114750000Y-79570000D03*
D53*
X115100000Y-78845000D03*
X119100000Y-78845000D03*
D54*
X119450000Y-79570000D03*
X119450000Y-80220000D03*
X119450000Y-80870000D03*
X119450000Y-81520000D03*
X119450000Y-82170000D03*
D53*
X119100000Y-83145000D03*
D55*
X117100000Y-81000000D03*
%TD*%
D11*
%TO.C,R63*%
X122460000Y-92800000D03*
D58*
X127540000Y-92800000D03*
%TD*%
D22*
%TO.C,C12*%
X143900000Y-59200000D03*
X143900000Y-59840000D03*
%TD*%
D57*
%TO.C,C58*%
X123500000Y-83275000D03*
X123500000Y-81725000D03*
%TD*%
D59*
%TO.C,JP5*%
X108050000Y-62200000D03*
X108050000Y-59800000D03*
D60*
X108050000Y-63000000D03*
D61*
X108050000Y-59000000D03*
%TD*%
D21*
%TO.C,R50*%
X120400000Y-80210000D03*
X120400000Y-79570000D03*
%TD*%
D59*
%TO.C,JP6*%
X105400000Y-62200000D03*
X105400000Y-59800000D03*
D60*
X105400000Y-63000000D03*
D61*
X105400000Y-59000000D03*
%TD*%
D62*
%TO.C,C59*%
X127050000Y-78500000D03*
X128950000Y-78500000D03*
%TD*%
M02*
