M48
; DRILL file {KiCad (6.0.5)} date Fri Feb  3 13:51:01 2023
; FORMAT={-:-/ absolute / metric / decimal}
; #@! TF.CreationDate,2023-02-03T13:51:01+01:00
; #@! TF.GenerationSoftware,Kicad,Pcbnew,(6.0.5)
; #@! TF.FileFunction,Plated,1,6,PTH
FMAT,2
METRIC
; #@! TA.AperFunction,Plated,PTH,ViaDrill
T1C0.100
; #@! TA.AperFunction,Plated,PTH,ComponentDrill
T2C0.200
; #@! TA.AperFunction,Plated,PTH,ViaDrill
T3C0.350
; #@! TA.AperFunction,Plated,PTH,ComponentDrill
T4C0.600
; #@! TA.AperFunction,Plated,PTH,ComponentDrill
T5C0.650
; #@! TA.AperFunction,Plated,PTH,ComponentDrill
T6C0.700
; #@! TA.AperFunction,Plated,PTH,ComponentDrill
T7C1.000
; #@! TA.AperFunction,Plated,PTH,ComponentDrill
T8C1.900
%
G90
G05
T1
X100.75Y-77.0
X100.75Y-78.0
X100.75Y-81.5
X100.95Y-79.3
X100.95Y-79.9
X101.0Y-57.0
X101.0Y-61.0
X101.0Y-65.0
X101.0Y-67.0
X101.0Y-69.0
X101.0Y-71.0
X101.0Y-75.0
X101.0Y-88.8
X101.0Y-93.0
X101.3Y-82.6
X101.5Y-79.0
X101.75Y-76.0
X101.75Y-77.0
X101.8Y-88.8
X102.0Y-55.0
X102.0Y-78.5
X102.0Y-95.0
X102.5Y-79.0
X102.5Y-79.75
X102.5Y-80.5
X102.75Y-76.0
X102.75Y-78.0
X103.0Y-69.0
X103.0Y-75.0
X103.2Y-75.63
X103.25Y-77.5
X103.6Y-76.27
X103.75Y-77.0
X103.9Y-74.25
X104.0Y-51.0
X104.0Y-55.0
X104.0Y-66.0
X104.0Y-68.0
X104.0Y-95.0
X104.0Y-99.0
X104.25Y-73.75
X104.25Y-74.75
X104.5Y-79.0
X104.5Y-80.0
X104.6Y-63.2
X105.0Y-53.0
X105.0Y-57.0
X105.0Y-65.0
X105.0Y-78.5
X105.0Y-79.5
X105.0Y-80.5
X105.0Y-97.0
X105.27Y-67.0
X105.4Y-79.0
X105.5Y-78.0
X105.5Y-80.0
X105.5Y-81.0
X106.0Y-51.0
X106.0Y-55.0
X106.0Y-58.0
X106.0Y-64.0
X106.0Y-66.0
X106.0Y-68.0
X106.0Y-80.5
X106.0Y-81.5
X106.0Y-95.0
X106.0Y-99.0
X106.2Y-78.0
X106.4Y-63.2
X106.45Y-81.0
X106.5Y-79.0
X106.5Y-82.0
X106.75Y-77.25
X107.0Y-53.0
X107.0Y-57.0
X107.0Y-65.0
X107.0Y-79.5
X107.0Y-80.8
X107.0Y-81.4
X107.0Y-82.5
X107.0Y-97.0
X107.1Y-63.2
X107.25Y-69.75
X107.25Y-77.6
X107.3Y-67.0
X107.6Y-88.6
X107.75Y-69.25
X107.75Y-77.25
X107.875Y-57.6
X107.9Y-82.6
X108.0Y-51.0
X108.0Y-55.0
X108.0Y-64.0
X108.0Y-66.0
X108.0Y-68.0
X108.0Y-95.0
X108.0Y-99.0
X108.25Y-69.75
X108.25Y-77.6
X108.4Y-88.6
X108.5Y-58.0
X108.75Y-69.25
X108.75Y-77.25
X108.9Y-63.2
X109.0Y-53.0
X109.0Y-65.0
X109.0Y-67.0
X109.0Y-97.0
X109.125Y-57.6
X109.2Y-95.25
X109.25Y-69.75
X109.25Y-77.6
X109.3Y-61.55
X109.75Y-69.25
X109.93Y-78.0
X110.0Y-51.0
X110.0Y-64.0
X110.0Y-99.0
X110.1Y-62.6
X110.1Y-67.5
X110.2Y-60.36
X110.375Y-57.6
X110.45Y-95.25
X110.57Y-78.0
X110.9Y-61.55
X111.0Y-53.0
X111.0Y-69.0
X111.0Y-77.0
X111.0Y-97.0
X111.5Y-76.5
X111.5Y-77.5
X111.5Y-78.5
X111.5Y-79.5
X111.5Y-80.5
X111.625Y-57.6
X111.7Y-95.25
X111.73Y-61.825
X111.73Y-62.46
X111.73Y-63.095
X111.73Y-63.73
X111.73Y-64.365
X111.73Y-65.0
X111.73Y-65.635
X111.73Y-66.27
X111.73Y-66.905
X111.73Y-67.5
X111.75Y-71.75
X111.75Y-72.75
X111.75Y-74.25
X112.0Y-51.0
X112.0Y-60.25
X112.0Y-78.0
X112.0Y-79.0
X112.0Y-80.0
X112.0Y-99.0
X112.1Y-76.9
X112.5Y-77.5
X112.5Y-78.5
X112.5Y-79.5
X112.5Y-80.5
X112.5Y-81.75
X112.6Y-72.25
X112.69Y-61.825
X112.69Y-62.46
X112.69Y-63.73
X112.69Y-65.0
X112.69Y-66.27
X112.69Y-66.905
X112.69Y-67.5
X112.875Y-57.6
X112.9Y-76.4
X112.92Y-73.75
X113.0Y-53.0
X113.0Y-61.0
X113.0Y-77.0
X113.0Y-78.0
X113.0Y-79.0
X113.0Y-80.0
X113.0Y-97.0
X113.25Y-82.0
X113.31Y-63.095
X113.31Y-64.365
X113.31Y-66.27
X113.31Y-66.905
X113.31Y-67.5
X113.35Y-72.75
X113.5Y-57.6
X113.5Y-76.5
X113.5Y-77.5
X113.5Y-78.5
X113.5Y-79.5
X113.5Y-80.8
X113.5Y-81.4
X113.5Y-82.6
X113.7Y-75.9
X114.0Y-51.0
X114.0Y-55.0
X114.0Y-72.5
X114.0Y-77.0
X114.0Y-78.0
X114.0Y-79.0
X114.0Y-80.0
X114.0Y-99.0
X114.2Y-73.89
X114.2Y-88.6
X114.27Y-62.46
X114.27Y-63.73
X114.27Y-65.635
X114.27Y-66.27
X114.27Y-66.905
X114.27Y-67.5
X114.29Y-65.02
X114.5Y-57.6
X114.5Y-76.5
X114.8Y-55.8
X115.0Y-53.0
X115.0Y-88.6
X115.0Y-97.0
X115.23Y-62.46
X115.23Y-65.635
X115.23Y-66.27
X115.23Y-67.5
X115.5Y-57.2
X115.5Y-61.0
X115.5Y-65.0
X115.5Y-72.5
X115.6Y-75.285
X116.0Y-51.0
X116.0Y-64.5
X116.0Y-65.5
X116.0Y-71.1
X116.0Y-99.0
X116.4Y-74.8
X116.5Y-64.0
X116.83Y-70.7
X117.0Y-53.0
X117.0Y-97.0
X117.1Y-73.4
X117.4Y-55.7
X117.4Y-56.5
X117.4Y-57.3
X117.4Y-62.1
X117.4Y-63.7
X117.4Y-64.5
X117.4Y-65.3
X117.4Y-66.1
X117.4Y-67.7
X117.4Y-69.3
X117.55Y-75.5
X117.55Y-77.75
X117.86Y-53.3
X117.875Y-73.4
X118.0Y-51.0
X118.0Y-99.0
X118.2Y-55.7
X118.2Y-56.5
X118.2Y-57.3
X118.2Y-60.5
X118.2Y-61.3
X118.2Y-62.1
X118.2Y-63.7
X118.2Y-64.5
X118.2Y-65.3
X118.2Y-66.1
X118.2Y-67.7
X118.2Y-69.3
X118.2Y-75.5
X118.2Y-77.75
X118.7Y-73.4
X118.92Y-70.8
X119.0Y-55.7
X119.0Y-56.5
X119.0Y-57.3
X119.0Y-60.5
X119.0Y-61.3
X119.0Y-62.1
X119.0Y-63.7
X119.0Y-64.5
X119.0Y-65.3
X119.0Y-66.1
X119.0Y-68.5
X119.0Y-69.3
X119.0Y-95.0
X119.0Y-97.0
X119.6Y-73.4
X119.7Y-70.8
X119.8Y-55.7
X119.8Y-56.5
X119.8Y-58.9
X119.8Y-59.7
X119.8Y-60.5
X119.8Y-61.3
X119.8Y-62.1
X119.8Y-62.9
X119.8Y-63.7
X119.8Y-64.5
X119.8Y-65.3
X119.8Y-66.1
X119.8Y-66.9
X119.8Y-67.7
X119.8Y-69.3
X120.0Y-51.0
X120.0Y-53.0
X120.2Y-74.8
X120.4Y-82.2
X120.5Y-74.04
X120.5Y-77.0
X120.5Y-79.0
X120.6Y-56.5
X120.6Y-57.3
X120.6Y-58.1
X120.6Y-58.9
X120.6Y-59.7
X120.6Y-60.5
X120.6Y-61.3
X120.6Y-62.1
X120.6Y-62.9
X120.6Y-63.7
X120.6Y-64.5
X120.6Y-65.3
X120.6Y-66.1
X120.6Y-66.9
X120.86Y-53.3
X120.9Y-80.21
X121.0Y-73.0
X121.0Y-93.0
X121.0Y-95.0
X121.0Y-97.0
X121.4Y-55.7
X121.4Y-56.5
X121.4Y-57.3
X121.4Y-58.1
X121.4Y-58.9
X121.4Y-59.7
X121.4Y-60.5
X121.4Y-61.3
X121.4Y-62.1
X121.4Y-62.9
X121.4Y-63.7
X121.4Y-64.5
X121.4Y-65.3
X121.4Y-66.1
X121.4Y-66.9
X121.4Y-67.7
X121.4Y-68.5
X121.4Y-69.3
X121.5Y-76.25
X121.5Y-81.0
X121.5Y-82.0
X121.6Y-80.2
X122.0Y-51.0
X122.0Y-71.0
X122.0Y-75.75
X122.0Y-81.5
X122.0Y-99.0
X122.2Y-54.9
X122.2Y-55.7
X122.2Y-56.5
X122.2Y-57.3
X122.2Y-58.1
X122.2Y-58.9
X122.2Y-59.7
X122.2Y-60.5
X122.2Y-61.3
X122.2Y-65.3
X122.2Y-66.1
X122.2Y-66.9
X122.2Y-67.7
X122.5Y-62.5
X122.5Y-73.4
X122.5Y-76.25
X122.5Y-82.0
X122.7Y-80.0
X123.0Y-53.0
X123.0Y-54.9
X123.0Y-55.7
X123.0Y-56.5
X123.0Y-57.3
X123.0Y-58.1
X123.0Y-58.9
X123.0Y-59.7
X123.0Y-62.1
X123.0Y-62.9
X123.0Y-65.3
X123.0Y-66.1
X123.0Y-66.9
X123.0Y-68.5
X123.0Y-71.0
X123.0Y-73.7
X123.0Y-75.75
X123.0Y-76.75
X123.0Y-95.0
X123.0Y-97.0
X123.3Y-51.35
X123.3Y-52.0
X123.5Y-73.4
X123.5Y-76.25
X123.64Y-71.0
X123.8Y-54.9
X123.8Y-55.7
X123.8Y-58.1
X123.8Y-58.9
X123.8Y-59.7
X123.8Y-60.5
X123.8Y-61.3
X123.8Y-62.1
X123.8Y-62.9
X123.8Y-63.7
X123.8Y-65.3
X123.8Y-66.1
X123.86Y-53.3
X124.0Y-75.75
X124.0Y-76.75
X124.0Y-99.0
X124.2Y-81.5
X124.2Y-82.0
X124.5Y-73.4
X124.5Y-76.25
X124.6Y-58.1
X124.6Y-58.9
X124.6Y-59.7
X124.6Y-60.5
X124.6Y-61.3
X124.6Y-62.1
X124.6Y-62.9
X124.6Y-63.7
X124.6Y-65.3
X124.6Y-66.1
X124.6Y-66.9
X124.6Y-68.5
X124.6Y-80.0
X125.0Y-71.0
X125.0Y-73.7
X125.0Y-97.0
X125.4Y-58.9
X125.4Y-59.7
X125.4Y-60.5
X125.4Y-61.3
X125.4Y-62.1
X125.4Y-62.9
X125.4Y-63.7
X125.4Y-65.3
X125.4Y-66.1
X125.4Y-66.9
X125.5Y-73.4
X125.64Y-71.0
X126.0Y-53.3
X126.0Y-75.75
X126.0Y-76.75
X126.0Y-99.0
X126.2Y-54.9
X126.2Y-55.7
X126.2Y-56.5
X126.2Y-57.3
X126.2Y-58.1
X126.2Y-58.9
X126.2Y-59.7
X126.2Y-60.5
X126.2Y-61.3
X126.2Y-62.1
X126.2Y-62.9
X126.2Y-63.7
X126.2Y-65.3
X126.2Y-66.1
X126.2Y-66.9
X126.4Y-80.0
X126.5Y-73.4
X126.5Y-76.25
X126.5Y-81.0
X126.5Y-82.0
X126.86Y-53.3
X127.0Y-54.9
X127.0Y-55.7
X127.0Y-56.5
X127.0Y-57.3
X127.0Y-58.1
X127.0Y-58.9
X127.0Y-59.7
X127.0Y-60.5
X127.0Y-61.3
X127.0Y-62.1
X127.0Y-62.9
X127.0Y-63.7
X127.0Y-65.3
X127.0Y-66.1
X127.0Y-66.9
X127.0Y-68.5
X127.0Y-69.3
X127.0Y-70.1
X127.0Y-71.0
X127.0Y-73.7
X127.0Y-75.75
X127.0Y-76.75
X127.0Y-81.5
X127.0Y-97.0
X127.5Y-73.4
X127.5Y-76.25
X127.5Y-82.0
X127.64Y-71.0
X127.7Y-80.0
X127.8Y-54.9
X127.8Y-58.1
X127.8Y-58.9
X127.8Y-59.7
X127.8Y-60.5
X127.8Y-61.3
X127.8Y-62.1
X127.8Y-62.9
X127.8Y-63.7
X127.8Y-64.5
X127.8Y-65.3
X127.8Y-66.1
X127.8Y-66.9
X127.8Y-68.5
X127.8Y-69.3
X127.8Y-70.1
X128.0Y-51.0
X128.0Y-76.75
X128.0Y-95.0
X128.0Y-99.0
X128.25Y-82.0
X128.6Y-54.9
X128.6Y-58.1
X128.6Y-58.9
X128.6Y-59.7
X128.6Y-62.9
X128.6Y-63.7
X128.6Y-64.5
X128.6Y-65.3
X128.6Y-66.1
X128.6Y-66.9
X128.6Y-68.5
X128.6Y-69.3
X128.6Y-70.1
X128.75Y-75.25
X128.75Y-81.75
X128.9Y-51.63
X129.0Y-71.5
X129.0Y-73.0
X129.0Y-93.0
X129.0Y-97.0
X129.25Y-75.25
X129.25Y-82.0
X129.4Y-54.9
X129.4Y-55.7
X129.4Y-56.5
X129.4Y-57.3
X129.4Y-58.1
X129.4Y-58.9
X129.4Y-59.7
X129.4Y-60.5
X129.4Y-61.3
X129.4Y-64.5
X129.4Y-65.3
X129.4Y-66.1
X129.4Y-66.9
X129.4Y-68.5
X129.4Y-69.3
X129.4Y-70.1
X129.6Y-80.0
X129.75Y-75.25
X129.75Y-80.8
X129.75Y-81.4
X129.75Y-82.6
X129.96Y-53.3
X130.0Y-51.0
X130.0Y-76.25
X130.0Y-95.0
X130.2Y-54.9
X130.2Y-55.7
X130.2Y-57.3
X130.2Y-58.1
X130.2Y-58.9
X130.2Y-59.7
X130.2Y-60.5
X130.2Y-61.3
X130.2Y-62.1
X130.2Y-64.5
X130.2Y-65.3
X130.2Y-66.1
X130.2Y-66.9
X130.2Y-88.6
X130.5Y-71.5
X130.5Y-73.0
X130.5Y-74.0
X130.5Y-75.75
X130.5Y-76.75
X131.0Y-55.7
X131.0Y-58.1
X131.0Y-58.9
X131.0Y-59.7
X131.0Y-61.3
X131.0Y-62.1
X131.0Y-62.9
X131.0Y-64.5
X131.0Y-65.3
X131.0Y-66.1
X131.0Y-66.9
X131.0Y-69.3
X131.0Y-70.1
X131.0Y-76.25
X131.0Y-88.6
X131.0Y-97.0
X131.5Y-75.75
X131.5Y-76.75
X131.8Y-54.9
X131.8Y-55.7
X131.8Y-56.5
X131.8Y-58.9
X131.8Y-59.7
X131.8Y-62.1
X131.8Y-64.5
X131.8Y-65.3
X131.8Y-66.9
X131.8Y-69.3
X132.0Y-99.0
X132.1Y-52.6
X132.3Y-50.775
X132.5Y-71.25
X132.5Y-72.25
X132.6Y-54.9
X132.6Y-55.7
X132.6Y-56.5
X132.6Y-59.7
X132.6Y-64.5
X132.6Y-66.1
X132.6Y-66.9
X132.6Y-70.1
X133.0Y-62.3
X133.0Y-68.5
X133.0Y-71.75
X133.0Y-97.0
X133.5Y-50.78
X133.5Y-53.22
X133.5Y-54.53
X133.5Y-55.93
X133.5Y-56.57
X133.5Y-57.33
X133.5Y-71.25
X133.5Y-72.25
X133.5Y-74.5
X133.5Y-75.5
X133.75Y-69.25
X133.8Y-62.8
X133.9Y-61.7
X134.0Y-54.0
X134.0Y-59.9
X134.0Y-74.0
X134.0Y-75.0
X134.0Y-76.0
X134.0Y-95.0
X134.0Y-99.0
X134.4Y-66.7
X134.5Y-57.33
X134.5Y-59.37
X134.5Y-70.0
X134.5Y-73.5
X134.5Y-74.5
X134.5Y-75.5
X134.7Y-54.325
X134.7Y-56.275
X134.77Y-61.825
X134.77Y-62.46
X134.77Y-63.73
X134.77Y-65.0
X134.77Y-66.27
X134.77Y-67.54
X135.0Y-73.0
X135.0Y-74.0
X135.0Y-75.0
X135.0Y-97.0
X135.5Y-74.5
X135.5Y-75.5
X135.703Y-67.517
X135.73Y-61.825
X135.73Y-62.46
X135.73Y-63.73
X135.73Y-65.0
X135.73Y-66.27
X135.73Y-66.905
X135.8Y-71.5
X135.8Y-95.25
X136.0Y-51.0
X136.0Y-69.5
X136.0Y-99.0
X136.25Y-80.25
X136.25Y-81.072
X136.25Y-82.0
X136.69Y-61.825
X136.69Y-63.095
X136.69Y-63.73
X136.69Y-65.0
X136.69Y-65.635
X136.69Y-66.905
X136.69Y-67.54
X136.8Y-80.8
X136.8Y-81.4
X136.8Y-88.6
X136.9Y-54.325
X136.9Y-54.975
X136.9Y-56.275
X136.9Y-56.925
X136.9Y-57.8
X136.9Y-58.5
X136.9Y-59.2
X137.0Y-52.9
X137.0Y-77.0
X137.0Y-78.0
X137.0Y-80.25
X137.0Y-82.0
X137.0Y-97.0
X137.05Y-95.25
X137.1Y-82.6
X137.25Y-61.825
X137.31Y-63.095
X137.31Y-64.365
X137.31Y-65.0
X137.31Y-66.27
X137.31Y-67.54
X137.5Y-54.0
X137.5Y-55.0
X137.5Y-56.0
X137.5Y-74.5
X137.5Y-75.5
X137.5Y-77.5
X137.6Y-88.6
X138.0Y-51.0
X138.0Y-75.0
X138.0Y-76.0
X138.0Y-77.0
X138.0Y-99.0
X138.27Y-62.46
X138.27Y-63.095
X138.27Y-63.73
X138.27Y-64.365
X138.27Y-65.0
X138.27Y-65.635
X138.27Y-66.27
X138.27Y-67.54
X138.3Y-95.25
X138.5Y-79.5
X138.5Y-80.5
X138.6Y-75.63
X138.9Y-74.25
X139.0Y-79.0
X139.0Y-80.0
X139.0Y-97.0
X139.23Y-62.46
X139.23Y-63.095
X139.23Y-63.73
X139.23Y-64.365
X139.23Y-65.0
X139.23Y-65.635
X139.23Y-66.905
X139.23Y-67.54
X139.25Y-73.75
X139.25Y-74.75
X139.5Y-78.5
X140.0Y-55.0
X140.0Y-57.0
X140.0Y-58.0
X140.0Y-61.0
X140.0Y-99.0
X140.2Y-79.5
X140.2Y-80.5
X140.25Y-78.05
X140.85Y-78.05
X141.0Y-62.0
X141.0Y-66.0
X141.0Y-97.0
X141.25Y-69.75
X141.75Y-77.25
X142.0Y-60.0
X142.0Y-66.0
X142.0Y-95.0
X142.0Y-99.0
X142.25Y-69.75
X142.25Y-77.6
X142.4Y-63.0
X142.4Y-64.148
X142.4Y-64.7
X142.75Y-69.25
X142.75Y-77.25
X143.0Y-61.0
X143.0Y-97.0
X143.25Y-56.5
X143.25Y-69.75
X143.25Y-77.6
X143.25Y-80.25
X143.25Y-82.0
X143.4Y-59.2
X143.4Y-88.6
X143.5Y-80.8
X143.5Y-81.4
X143.7Y-82.6
X143.75Y-69.25
X143.75Y-77.25
X143.75Y-79.75
X144.0Y-55.0
X144.0Y-95.0
X144.0Y-99.0
X144.2Y-88.6
X144.25Y-68.0
X144.25Y-69.75
X144.25Y-77.6
X144.4Y-56.5
X144.5Y-79.0
X144.6Y-61.125
X144.6Y-62.487
X144.75Y-69.25
X144.93Y-77.8
X145.0Y-53.0
X145.0Y-78.5
X145.0Y-97.0
X145.05Y-79.45
X145.25Y-69.75
X145.4Y-79.0
X145.5Y-67.0
X145.55Y-56.5
X145.57Y-78.2
X145.6Y-65.0
X145.85Y-59.5
X145.938Y-69.0
X146.0Y-51.0
X146.0Y-55.0
X146.0Y-62.0
X146.0Y-66.0
X146.0Y-68.0
X146.0Y-80.5
X146.0Y-95.0
X146.0Y-99.0
X146.5Y-59.95
X146.5Y-78.0
X146.5Y-79.0
X146.5Y-80.0
X146.6Y-76.39
X146.75Y-71.4
X146.75Y-72.25
X146.75Y-73.25
X146.75Y-74.25
X147.0Y-61.0
X147.0Y-63.0
X147.0Y-65.0
X147.0Y-67.0
X147.0Y-69.0
X147.0Y-78.5
X147.0Y-79.5
X147.0Y-80.5
X147.25Y-71.825
X147.25Y-73.75
X147.5Y-78.0
X147.5Y-79.0
X147.5Y-80.0
X147.6Y-64.0
X147.9Y-76.4
X148.0Y-55.0
X148.0Y-59.0
X148.0Y-62.0
X148.0Y-66.0
X148.0Y-68.0
X148.0Y-78.5
X148.0Y-79.5
X148.0Y-80.5
X148.1Y-93.25
X148.5Y-70.4
X148.5Y-78.0
X148.5Y-79.0
X148.5Y-80.0
X148.5Y-81.0
X148.7Y-75.9
X148.875Y-72.0
X149.0Y-57.0
X149.0Y-61.0
X149.0Y-63.0
X149.0Y-65.0
X149.0Y-67.0
X149.0Y-69.0
X149.0Y-71.0
X149.0Y-93.0
X149.0Y-96.0
X149.2Y-74.0
X149.3Y-76.5
X149.3Y-77.5
X149.3Y-78.5
X149.3Y-79.5
X149.3Y-80.5
X149.3Y-81.5
X149.3Y-82.5
T2
X105.95Y-71.45
X105.95Y-72.475
X105.95Y-73.5
X105.95Y-74.525
X105.95Y-75.55
X106.975Y-71.45
X106.975Y-72.475
X106.975Y-73.5
X106.975Y-74.525
X106.975Y-75.55
X108.0Y-71.45
X108.0Y-72.475
X108.0Y-73.5
X108.0Y-74.525
X108.0Y-75.55
X109.025Y-71.45
X109.025Y-72.475
X109.025Y-73.5
X109.025Y-74.525
X109.025Y-75.55
X110.05Y-71.45
X110.05Y-72.475
X110.05Y-73.5
X110.05Y-74.525
X110.05Y-75.55
X140.95Y-71.45
X140.95Y-72.475
X140.95Y-73.5
X140.95Y-74.525
X140.95Y-75.55
X141.975Y-71.45
X141.975Y-72.475
X141.975Y-73.5
X141.975Y-74.525
X141.975Y-75.55
X143.0Y-71.45
X143.0Y-72.475
X143.0Y-73.5
X143.0Y-74.525
X143.0Y-75.55
X144.025Y-71.45
X144.025Y-72.475
X144.025Y-73.5
X144.025Y-74.525
X144.025Y-75.55
X145.05Y-71.45
X145.05Y-72.475
X145.05Y-73.5
X145.05Y-74.525
X145.05Y-75.55
T3
X101.0Y-84.5
X101.0Y-85.5
X101.0Y-86.5
X102.4Y-71.6
X102.4Y-73.5
X103.0Y-72.3
X103.0Y-84.5
X103.0Y-86.5
X103.5Y-85.5
X104.0Y-84.5
X104.0Y-86.5
X104.5Y-85.5
X105.0Y-84.5
X105.0Y-86.5
X105.5Y-85.5
X106.0Y-84.5
X106.0Y-86.5
X106.5Y-85.5
X107.0Y-84.5
X107.0Y-86.5
X109.0Y-84.5
X109.0Y-86.5
X109.5Y-85.5
X110.0Y-84.5
X110.0Y-86.5
X110.5Y-85.5
X111.0Y-84.5
X111.0Y-86.5
X111.5Y-85.5
X112.0Y-84.5
X112.0Y-86.5
X112.5Y-85.5
X112.95Y-95.25
X113.0Y-84.5
X113.0Y-86.5
X113.5Y-85.5
X114.0Y-84.5
X114.0Y-86.5
X115.0Y-94.4
X116.0Y-84.5
X116.0Y-86.5
X116.1Y-79.5
X116.1Y-80.5
X116.5Y-85.5
X116.5Y-94.4
X116.6Y-79.0
X116.6Y-80.0
X117.0Y-84.5
X117.0Y-86.5
X117.1Y-79.5
X117.1Y-80.5
X117.5Y-85.5
X117.6Y-79.0
X117.6Y-80.0
X118.0Y-84.5
X118.0Y-86.5
X118.1Y-79.5
X118.1Y-80.5
X118.5Y-85.5
X119.0Y-84.5
X119.0Y-86.5
X126.5Y-84.5
X126.5Y-86.5
X127.0Y-85.5
X127.5Y-84.5
X128.0Y-85.5
X128.5Y-84.5
X128.5Y-86.5
X129.0Y-85.5
X129.5Y-84.5
X129.5Y-86.5
X131.5Y-84.5
X131.5Y-86.5
X131.9Y-79.5
X131.9Y-80.5
X132.0Y-85.5
X132.4Y-79.0
X132.4Y-80.0
X132.5Y-84.5
X132.5Y-86.5
X132.9Y-79.5
X132.9Y-80.5
X133.0Y-85.5
X133.4Y-79.0
X133.4Y-80.0
X133.5Y-84.5
X133.5Y-86.5
X133.9Y-79.5
X133.9Y-80.5
X134.0Y-85.5
X134.5Y-84.5
X134.5Y-86.5
X135.0Y-77.0
X135.0Y-78.0
X135.0Y-85.5
X135.5Y-73.5
X135.5Y-77.5
X135.5Y-84.5
X135.5Y-86.5
X136.0Y-77.0
X136.0Y-78.0
X136.0Y-85.5
X136.25Y-73.5
X136.5Y-84.5
X136.5Y-86.5
X137.4Y-73.5
X138.5Y-84.5
X138.5Y-86.5
X139.0Y-85.5
X139.5Y-69.5
X139.5Y-84.5
X139.5Y-86.5
X139.55Y-95.25
X140.0Y-85.5
X140.5Y-84.5
X140.5Y-86.5
X140.8Y-95.25
X141.0Y-85.5
X141.5Y-84.5
X141.5Y-86.5
X142.0Y-85.5
X142.5Y-84.5
X142.5Y-86.5
X143.0Y-85.5
X143.5Y-84.5
X143.5Y-86.5
X145.0Y-63.75
X145.0Y-64.5
X145.5Y-84.5
X145.5Y-86.5
X146.0Y-85.5
X146.5Y-84.5
X146.5Y-86.5
X147.0Y-85.5
X147.5Y-84.5
X147.5Y-86.5
X148.0Y-85.5
X148.5Y-84.5
X148.5Y-86.5
T4
X102.55Y-56.275
X102.55Y-57.525
X102.55Y-58.775
X102.55Y-60.025
X102.55Y-61.275
X102.55Y-62.525
X102.55Y-63.775
X102.55Y-65.025
X102.55Y-66.275
X102.55Y-67.525
T5
X140.0Y-51.4
X140.0Y-52.67
X141.27Y-51.4
X141.27Y-52.67
X142.54Y-51.4
X142.54Y-52.67
X143.81Y-51.4
X143.81Y-52.67
T6
X122.46Y-92.8
X127.54Y-92.8
T7
X105.2Y-95.975
X118.2Y-95.975
X119.5Y-98.5
X130.5Y-98.5
X131.8Y-95.975
X144.8Y-95.975
T8
X108.2Y-90.975
X111.7Y-90.975
X115.2Y-90.975
X122.5Y-88.5
X127.5Y-88.5
X134.8Y-90.975
X138.3Y-90.975
X141.8Y-90.975
T0
M30
