M48
; DRILL file {KiCad 5.1.10-88a1d61d58~88~ubuntu16.04.1} date Tue Aug 31 16:24:06 2021
; FORMAT={-:-/ absolute / inch / decimal}
; #@! TF.CreationDate,2021-08-31T16:24:06+02:00
; #@! TF.GenerationSoftware,Kicad,Pcbnew,5.1.10-88a1d61d58~88~ubuntu16.04.1
; #@! TF.FileFunction,Plated,1,6,PTH
FMAT,2
INCH
T1C0.0039
T2C0.0098
T3C0.0138
T4C0.0236
T5C0.0256
T6C0.0394
T7C0.0748
%
G90
G05
T1
X3.9803Y-2.8988
X3.9803Y-2.937
X3.9961Y-3.3465
X3.9961Y-3.4646
X4.0031Y-2.878
X4.0059Y-2.9705
X4.0059Y-2.9957
X4.0059Y-3.0335
X4.0059Y-3.0587
X4.0059Y-3.0965
X4.0059Y-3.1217
X4.0157Y-2.185
X4.0157Y-2.3228
X4.0157Y-2.5197
X4.0157Y-2.5984
X4.0157Y-2.8346
X4.0157Y-3.2283
X4.0157Y-3.622
X4.0551Y-2.3622
X4.0551Y-2.8445
X4.0551Y-2.872
X4.0551Y-2.9114
X4.0551Y-2.9705
X4.0551Y-3.3465
X4.0551Y-3.4646
X4.0551Y-3.7795
X4.0571Y-3.2512
X4.0571Y-3.389
X4.0571Y-3.5268
X4.0709Y-2.8917
X4.0709Y-2.9311
X4.0709Y-2.9902
X4.0945Y-2.185
X4.0945Y-2.5197
X4.0945Y-2.5984
X4.0945Y-2.7953
X4.0945Y-2.8445
X4.0945Y-3.1496
X4.0945Y-3.2283
X4.0945Y-3.3465
X4.0945Y-3.4646
X4.0945Y-3.622
X4.0945Y-3.7008
X4.1142Y-2.6772
X4.124Y-3.1063
X4.1339Y-2.3622
X4.1339Y-2.7165
X4.1339Y-2.7559
X4.1339Y-3.7795
X4.1339Y-3.8583
X4.1339Y-3.9055
X4.1437Y-2.7894
X4.1437Y-3.126
X4.1535Y-2.9016
X4.1535Y-2.9409
X4.1535Y-2.9803
X4.1535Y-3.0197
X4.1535Y-3.6811
X4.1535Y-3.7067
X4.1634Y-2.8051
X4.1634Y-3.1063
X4.1732Y-2.0079
X4.1732Y-2.126
X4.1732Y-2.185
X4.1732Y-2.3228
X4.1732Y-2.5984
X4.1732Y-2.6476
X4.1732Y-3.9055
X4.1831Y-2.7894
X4.1929Y-2.9016
X4.1929Y-2.9409
X4.1929Y-2.9803
X4.1929Y-3.0197
X4.1929Y-3.7402
X4.2028Y-2.8051
X4.2028Y-3.1063
X4.2028Y-3.1457
X4.2126Y-2.3622
X4.2126Y-2.628
X4.2126Y-2.6772
X4.2126Y-3.6614
X4.2126Y-3.9055
X4.2224Y-2.7894
X4.2224Y-3.126
X4.2323Y-2.9016
X4.2323Y-2.9409
X4.2323Y-2.9803
X4.2323Y-3.0197
X4.2421Y-2.7165
X4.2421Y-2.8051
X4.2421Y-3.1063
X4.2421Y-3.1457
X4.248Y-2.3841
X4.248Y-2.4352
X4.248Y-2.4604
X4.248Y-3.6811
X4.252Y-2.0079
X4.252Y-2.126
X4.252Y-2.185
X4.252Y-2.3228
X4.252Y-2.5197
X4.252Y-2.5984
X4.252Y-3.9055
X4.2717Y-2.6772
X4.2717Y-2.9016
X4.2717Y-2.9409
X4.2717Y-2.9803
X4.2717Y-3.0197
X4.2717Y-3.752
X4.2795Y-3.4449
X4.2795Y-3.4744
X4.2815Y-2.7953
X4.2913Y-2.5469
X4.2913Y-3.6713
X4.3012Y-2.6378
X4.315Y-3.9055
X4.3189Y-2.4352
X4.3189Y-3.0748
X4.3189Y-3.1063
X4.3211Y-2.5039
X4.3211Y-2.5866
X4.3228Y-3.752
X4.3307Y-2.0079
X4.3307Y-2.126
X4.3307Y-2.185
X4.3307Y-2.3228
X4.3307Y-2.6772
X4.3425Y-3.6713
X4.3465Y-2.7953
X4.3504Y-2.7008
X4.3602Y-2.3841
X4.3602Y-2.4093
X4.3602Y-2.9902
X4.3602Y-3.0315
X4.3602Y-3.0709
X4.361Y-2.4841
X4.361Y-2.5341
X4.361Y-2.5841
X4.361Y-2.6341
X4.3622Y-3.9055
X4.3701Y-3.752
X4.3898Y-2.7067
X4.3898Y-2.9902
X4.3898Y-3.0295
X4.3988Y-2.4341
X4.3988Y-2.4591
X4.3988Y-2.4841
X4.3988Y-2.5091
X4.3988Y-2.5341
X4.3988Y-2.5591
X4.3988Y-2.5841
X4.3988Y-2.6091
X4.3988Y-2.6341
X4.3988Y-2.6841
X4.3996Y-2.3228
X4.4094Y-2.0079
X4.4094Y-2.126
X4.4094Y-2.185
X4.4094Y-2.4016
X4.4173Y-3.9055
X4.4291Y-3.8287
X4.4366Y-2.4341
X4.4366Y-2.4591
X4.4366Y-2.5091
X4.4366Y-2.5591
X4.4366Y-2.6091
X4.4366Y-2.6341
X4.4366Y-2.6841
X4.4488Y-2.3622
X4.4488Y-3.9173
X4.46Y-2.19
X4.461Y-2.4841
X4.461Y-2.5341
X4.461Y-2.6091
X4.461Y-2.6341
X4.461Y-2.6841
X4.4685Y-3.8287
X4.4882Y-2.0079
X4.4882Y-2.126
X4.4882Y-2.185
X4.4882Y-2.3228
X4.4882Y-2.7362
X4.4882Y-3.9173
X4.4988Y-2.4591
X4.4988Y-2.5091
X4.4988Y-2.5841
X4.4988Y-2.6091
X4.4988Y-2.6341
X4.4988Y-2.6841
X4.4996Y-2.5598
X4.5Y-3.8209
X4.5276Y-2.3622
X4.5276Y-3.9173
X4.5366Y-2.4591
X4.5366Y-2.5091
X4.5366Y-2.5841
X4.5366Y-2.6091
X4.5366Y-2.6591
X4.5374Y-2.7362
X4.5472Y-2.126
X4.5472Y-2.185
X4.5472Y-2.2559
X4.5472Y-2.9134
X4.5472Y-2.9528
X4.5472Y-2.9921
X4.5472Y-3.0315
X4.5531Y-3.7913
X4.5571Y-2.2244
X4.5669Y-2.3228
X4.5669Y-3.9173
X4.5866Y-3.0315
X4.5941Y-2.8012
X4.5965Y-3.4449
X4.5965Y-3.5433
X4.6055Y-3.0906
X4.6063Y-3.189
X4.6063Y-3.2283
X4.6063Y-3.3071
X4.6063Y-3.3465
X4.6063Y-3.3858
X4.6063Y-3.5039
X4.6063Y-3.5984
X4.6063Y-3.9173
X4.6102Y-3.8209
X4.622Y-2.2244
X4.622Y-2.2559
X4.622Y-2.4134
X4.622Y-2.4449
X4.622Y-2.5079
X4.622Y-2.5394
X4.622Y-2.5709
X4.622Y-2.6024
X4.622Y-2.7598
X4.626Y-2.9134
X4.626Y-2.9528
X4.626Y-2.9921
X4.626Y-3.0315
X4.626Y-3.1693
X4.626Y-3.3268
X4.626Y-3.3661
X4.626Y-3.4055
X4.626Y-3.4449
X4.626Y-3.4843
X4.626Y-3.5236
X4.626Y-3.563
X4.6299Y-3.2283
X4.6307Y-3.0906
X4.6319Y-3.5984
X4.6457Y-2.7953
X4.6457Y-3.189
X4.6457Y-3.3071
X4.6457Y-3.3465
X4.6457Y-3.3858
X4.6457Y-3.4252
X4.6457Y-3.4646
X4.6457Y-3.5039
X4.6457Y-3.5433
X4.6457Y-3.9173
X4.6535Y-2.1929
X4.6535Y-2.2244
X4.6535Y-2.2559
X4.6535Y-2.3504
X4.6535Y-2.3819
X4.6535Y-2.4134
X4.6535Y-2.4449
X4.6535Y-2.5079
X4.6535Y-2.5394
X4.6535Y-2.5709
X4.6535Y-2.6024
X4.6535Y-2.6339
X4.6535Y-2.7598
X4.6535Y-3.811
X4.6654Y-2.9528
X4.6654Y-2.9921
X4.6693Y-3.7953
X4.685Y-2.1929
X4.685Y-2.3819
X4.685Y-2.4134
X4.685Y-2.5079
X4.685Y-2.5394
X4.685Y-2.5709
X4.685Y-2.6024
X4.685Y-2.6339
X4.685Y-2.6969
X4.685Y-2.7283
X4.685Y-3.7795
X4.7047Y-2.0827
X4.7047Y-3.0709
X4.7047Y-3.1102
X4.7146Y-2.0236
X4.7165Y-2.1929
X4.7165Y-2.2244
X4.7165Y-2.3189
X4.7165Y-2.3504
X4.7165Y-2.3819
X4.7165Y-2.4134
X4.7165Y-2.4449
X4.7165Y-2.4764
X4.7165Y-2.5079
X4.7165Y-2.5394
X4.7165Y-2.5709
X4.7165Y-2.6024
X4.7165Y-2.6339
X4.7165Y-2.6654
X4.7165Y-2.7283
X4.7165Y-2.7598
X4.7244Y-3.2677
X4.7244Y-3.3071
X4.7244Y-3.3465
X4.7244Y-3.3858
X4.7244Y-3.4252
X4.7244Y-3.4646
X4.7244Y-3.5039
X4.7244Y-3.5433
X4.7244Y-3.5827
X4.7323Y-2.815
X4.7323Y-2.8378
X4.7441Y-2.0827
X4.7441Y-3.3268
X4.7441Y-3.3661
X4.7441Y-3.4055
X4.7441Y-3.4449
X4.7441Y-3.4843
X4.7441Y-3.5236
X4.7441Y-3.563
X4.748Y-2.1929
X4.748Y-2.2244
X4.748Y-2.2559
X4.748Y-2.2874
X4.748Y-2.3189
X4.748Y-2.3504
X4.748Y-2.3819
X4.748Y-2.4134
X4.748Y-2.4449
X4.748Y-2.4764
X4.748Y-2.5079
X4.748Y-2.5394
X4.748Y-2.5709
X4.748Y-2.6024
X4.748Y-2.6339
X4.748Y-2.6654
X4.748Y-2.6969
X4.748Y-2.7283
X4.7539Y-2.7913
X4.7614Y-3.1791
X4.7638Y-3.2677
X4.7638Y-3.3465
X4.7638Y-3.3858
X4.7638Y-3.5827
X4.7638Y-3.8189
X4.7638Y-3.8681
X4.7638Y-3.9075
X4.7795Y-2.1929
X4.7795Y-2.2244
X4.7795Y-2.2559
X4.7795Y-2.2874
X4.7795Y-2.3189
X4.7795Y-2.3504
X4.7795Y-2.3819
X4.7795Y-2.4449
X4.7795Y-2.4764
X4.7795Y-2.5079
X4.7795Y-2.5394
X4.7795Y-2.5709
X4.7795Y-2.6024
X4.7795Y-2.6339
X4.7795Y-2.7283
X4.7795Y-2.7598
X4.7795Y-2.7913
X4.7835Y-3.0217
X4.7835Y-3.3661
X4.7835Y-3.563
X4.8031Y-2.0827
X4.8031Y-2.9134
X4.8031Y-2.9528
X4.8031Y-3.2382
X4.8031Y-3.3169
X4.8031Y-3.3465
X4.8031Y-3.5827
X4.8031Y-3.8189
X4.8031Y-3.8681
X4.8031Y-3.9075
X4.811Y-2.1929
X4.811Y-2.2559
X4.811Y-2.2874
X4.811Y-2.3189
X4.811Y-2.3504
X4.811Y-2.3819
X4.811Y-2.4134
X4.811Y-2.4449
X4.811Y-2.4764
X4.811Y-2.5709
X4.811Y-2.6654
X4.811Y-2.6969
X4.811Y-2.7283
X4.8189Y-3.0512
X4.8189Y-3.1835
X4.8228Y-3.0217
X4.8228Y-3.1398
X4.8228Y-3.2185
X4.8228Y-3.2579
X4.8228Y-3.563
X4.8268Y-2.4291
X4.8268Y-2.4921
X4.8268Y-2.7913
X4.8307Y-2.1339
X4.8346Y-3.0787
X4.8425Y-2.0669
X4.8425Y-2.2559
X4.8425Y-2.2874
X4.8425Y-2.3189
X4.8425Y-2.3504
X4.8425Y-2.5709
X4.8425Y-2.6024
X4.8425Y-2.6654
X4.8425Y-2.6969
X4.8425Y-2.7283
X4.8425Y-2.7598
X4.8425Y-2.9134
X4.8425Y-2.9528
X4.8425Y-3.2776
X4.8425Y-3.3169
X4.8425Y-3.5827
X4.8425Y-3.8189
X4.8425Y-3.9075
X4.8465Y-3.0512
X4.8583Y-2.7913
X4.8622Y-3.2972
X4.8622Y-3.563
X4.872Y-2.9016
X4.874Y-2.1614
X4.874Y-2.2244
X4.874Y-2.2874
X4.874Y-2.3189
X4.874Y-2.3504
X4.874Y-2.3819
X4.874Y-2.4134
X4.874Y-2.4449
X4.874Y-2.4764
X4.874Y-2.5079
X4.874Y-2.5394
X4.874Y-2.5709
X4.874Y-2.6024
X4.874Y-2.6654
X4.874Y-2.6969
X4.8819Y-2.0276
X4.8819Y-2.1063
X4.8819Y-3.3169
X4.8819Y-3.5827
X4.8819Y-3.8189
X4.8819Y-3.9075
X4.8839Y-2.9213
X4.8917Y-3.1791
X4.8917Y-3.2185
X4.8957Y-2.9409
X4.9055Y-2.2874
X4.9055Y-2.3189
X4.9055Y-2.3504
X4.9055Y-2.3819
X4.9055Y-2.4134
X4.9055Y-2.5079
X4.9055Y-2.5394
X4.9055Y-2.5709
X4.9055Y-2.6024
X4.9055Y-2.6654
X4.9055Y-2.7283
X4.9075Y-2.9606
X4.9075Y-3.0315
X4.9114Y-3.1594
X4.9114Y-3.1988
X4.9114Y-3.2382
X4.9193Y-2.9409
X4.9213Y-2.1535
X4.9213Y-3.8189
X4.9213Y-3.9075
X4.9299Y-3.3307
X4.9311Y-2.9213
X4.937Y-2.2559
X4.937Y-2.2874
X4.937Y-2.3189
X4.937Y-2.3504
X4.937Y-2.3819
X4.937Y-2.4134
X4.937Y-2.4449
X4.937Y-2.4764
X4.937Y-2.5079
X4.937Y-2.5394
X4.937Y-2.5709
X4.937Y-2.6024
X4.937Y-2.6339
X4.937Y-2.6654
X4.937Y-2.6969
X4.937Y-2.7283
X4.937Y-2.7598
X4.9429Y-2.9016
X4.9606Y-3.0787
X4.9606Y-3.8189
X4.9606Y-3.9075
X4.9665Y-1.9961
X4.9685Y-2.1614
X4.9685Y-2.1929
X4.9685Y-2.2559
X4.9685Y-2.2874
X4.9685Y-2.3189
X4.9685Y-2.3504
X4.9685Y-2.3819
X4.9685Y-2.4134
X4.9685Y-2.4764
X4.9685Y-2.5079
X4.9685Y-2.5394
X4.9685Y-2.5709
X4.9685Y-2.6024
X4.9685Y-2.6339
X4.9685Y-2.6654
X4.9685Y-2.6969
X4.9685Y-2.7283
X4.9685Y-2.7598
X4.9685Y-2.9134
X4.9685Y-2.937
X4.9685Y-2.9606
X4.9705Y-3.122
X4.9882Y-2.04
X4.9882Y-2.0652
X4.9921Y-3.0984
X5.0Y-2.1614
X5.0Y-2.1929
X5.0Y-2.2244
X5.0Y-2.2559
X5.0Y-2.2874
X5.0Y-2.3189
X5.0Y-2.3504
X5.0Y-2.3819
X5.0Y-2.4134
X5.0Y-2.4764
X5.0Y-2.5079
X5.0Y-2.5394
X5.0Y-2.6024
X5.0Y-2.6339
X5.0Y-2.7283
X5.0Y-2.7598
X5.0Y-2.9134
X5.0Y-2.937
X5.0Y-2.9606
X5.0Y-3.8189
X5.0Y-3.9075
X5.0236Y-3.1339
X5.0236Y-3.1575
X5.0236Y-3.1811
X5.0236Y-3.2047
X5.0315Y-2.1614
X5.0315Y-2.1929
X5.0315Y-2.2559
X5.0315Y-2.2874
X5.0315Y-2.3189
X5.0315Y-2.3504
X5.0315Y-2.3819
X5.0315Y-2.4134
X5.0315Y-2.4449
X5.0315Y-2.4764
X5.0315Y-2.5079
X5.0315Y-2.5394
X5.0315Y-2.5709
X5.0315Y-2.6024
X5.0315Y-2.6339
X5.0315Y-2.6969
X5.0315Y-2.7283
X5.0315Y-2.7598
X5.0315Y-2.9134
X5.0394Y-3.1457
X5.0394Y-3.1693
X5.0394Y-3.1929
X5.0394Y-3.2205
X5.0394Y-3.8189
X5.0394Y-3.8681
X5.0394Y-3.9075
X5.0492Y-3.3465
X5.0492Y-3.376
X5.0591Y-2.9134
X5.063Y-2.1614
X5.063Y-2.1929
X5.063Y-2.2244
X5.063Y-2.2874
X5.063Y-2.3189
X5.063Y-2.3504
X5.063Y-2.4449
X5.063Y-2.4764
X5.063Y-2.5079
X5.063Y-2.5394
X5.063Y-2.5709
X5.063Y-2.6024
X5.063Y-2.6339
X5.063Y-2.6969
X5.063Y-2.7283
X5.063Y-2.7598
X5.0787Y-3.8189
X5.0945Y-2.1614
X5.0945Y-2.1929
X5.0945Y-2.2244
X5.0945Y-2.2559
X5.0945Y-2.3189
X5.0945Y-2.3504
X5.0945Y-2.3819
X5.0945Y-2.4134
X5.0945Y-2.5079
X5.0945Y-2.5394
X5.0945Y-2.5709
X5.0945Y-2.6024
X5.0945Y-2.6339
X5.0945Y-2.6969
X5.0945Y-2.7598
X5.0984Y-2.9134
X5.1181Y-3.3858
X5.1181Y-3.4252
X5.1181Y-3.4646
X5.1181Y-3.5039
X5.1181Y-3.5433
X5.1181Y-3.5827
X5.124Y-3.189
X5.124Y-3.2283
X5.124Y-3.2677
X5.126Y-2.1614
X5.126Y-2.1929
X5.126Y-2.2559
X5.126Y-2.2874
X5.126Y-2.3504
X5.126Y-2.3819
X5.126Y-2.4134
X5.126Y-2.4449
X5.126Y-2.4764
X5.126Y-2.5079
X5.126Y-2.5394
X5.126Y-2.5709
X5.126Y-2.6024
X5.126Y-2.6339
X5.126Y-2.6654
X5.126Y-2.6969
X5.126Y-2.7283
X5.126Y-2.9134
X5.1457Y-3.7795
X5.1476Y-3.8167
X5.1575Y-2.1614
X5.1575Y-2.1929
X5.1575Y-2.2874
X5.1575Y-2.3189
X5.1575Y-2.4134
X5.1575Y-2.4449
X5.1575Y-2.4764
X5.1575Y-2.5079
X5.1575Y-2.5394
X5.1575Y-2.5709
X5.1575Y-2.6024
X5.1575Y-2.6339
X5.1575Y-2.6654
X5.1575Y-2.6969
X5.1575Y-2.9134
X5.1575Y-2.937
X5.1575Y-2.9606
X5.1673Y-3.8325
X5.1772Y-3.0512
X5.1772Y-3.0906
X5.1827Y-2.1181
X5.187Y-3.801
X5.189Y-2.1614
X5.189Y-2.1929
X5.189Y-2.2244
X5.189Y-2.3189
X5.189Y-2.3504
X5.189Y-2.4134
X5.189Y-2.4449
X5.189Y-2.5079
X5.189Y-2.5394
X5.189Y-2.6024
X5.189Y-2.6339
X5.189Y-2.6969
X5.189Y-2.7283
X5.189Y-2.7598
X5.189Y-2.9134
X5.189Y-2.937
X5.189Y-2.9606
X5.1909Y-2.5709
X5.1969Y-3.0315
X5.1969Y-3.0709
X5.2087Y-3.7795
X5.2116Y-3.5984
X5.2126Y-3.1575
X5.2126Y-3.2283
X5.2165Y-3.0118
X5.2165Y-3.0512
X5.2165Y-3.189
X5.2165Y-3.3071
X5.2165Y-3.3465
X5.2165Y-3.3858
X5.2165Y-3.4252
X5.2165Y-3.4646
X5.2165Y-3.5039
X5.2165Y-3.5433
X5.2205Y-2.1614
X5.2205Y-2.1929
X5.2205Y-2.2244
X5.2205Y-2.2874
X5.2205Y-2.3189
X5.2205Y-2.3504
X5.2205Y-2.4449
X5.2205Y-2.5079
X5.2205Y-2.5394
X5.2205Y-2.5709
X5.2205Y-2.6024
X5.2205Y-2.6339
X5.2205Y-2.6654
X5.2205Y-2.7283
X5.2205Y-2.7598
X5.2362Y-2.9134
X5.2362Y-2.9921
X5.2362Y-3.0315
X5.2362Y-3.0709
X5.2362Y-3.2283
X5.2362Y-3.3268
X5.2362Y-3.3661
X5.2362Y-3.4449
X5.2362Y-3.4843
X5.2362Y-3.5236
X5.2362Y-3.563
X5.2372Y-3.5984
X5.2382Y-3.1575
X5.2461Y-3.4055
X5.2559Y-2.3228
X5.2559Y-2.9331
X5.2559Y-3.0906
X5.2756Y-2.0079
X5.2756Y-2.3819
X5.2756Y-2.7165
X5.2756Y-2.9134
X5.2756Y-2.9528
X5.289Y-2.1339
X5.289Y-2.2106
X5.289Y-2.2362
X5.289Y-2.313
X5.2953Y-3.0906
X5.3051Y-3.7854
X5.3059Y-2.4341
X5.3059Y-2.4591
X5.3059Y-2.5091
X5.3059Y-2.5591
X5.3059Y-2.6091
X5.3059Y-2.6591
X5.315Y-2.9921
X5.315Y-3.0315
X5.315Y-3.0709
X5.3346Y-2.9724
X5.3346Y-3.0118
X5.3346Y-3.0512
X5.3346Y-3.0906
X5.3437Y-2.4341
X5.3437Y-2.4591
X5.3437Y-2.5091
X5.3437Y-2.5591
X5.3437Y-2.6091
X5.3437Y-2.6341
X5.3437Y-2.6591
X5.3504Y-3.7677
X5.3543Y-2.0079
X5.3543Y-2.7559
X5.3642Y-2.3819
X5.3705Y-2.1339
X5.3705Y-2.2106
X5.3705Y-2.2362
X5.3705Y-2.313
X5.3815Y-2.4341
X5.3815Y-2.4841
X5.3815Y-2.5091
X5.3815Y-2.5591
X5.3815Y-2.5841
X5.3815Y-2.6341
X5.3815Y-2.6591
X5.3937Y-2.1654
X5.3937Y-2.2441
X5.3937Y-2.3228
X5.3937Y-3.7717
X5.3937Y-3.8189
X5.4059Y-2.4341
X5.4059Y-2.4841
X5.4059Y-2.5341
X5.4059Y-2.5591
X5.4059Y-2.6091
X5.4059Y-2.6341
X5.4059Y-2.6591
X5.4331Y-2.0079
X5.4331Y-2.2047
X5.4331Y-2.2835
X5.4331Y-2.7559
X5.4331Y-3.7717
X5.4331Y-3.8976
X5.4429Y-3.0591
X5.4429Y-3.0984
X5.4437Y-2.4591
X5.4437Y-2.4841
X5.4437Y-2.5091
X5.4437Y-2.5341
X5.4437Y-2.5591
X5.4437Y-2.5841
X5.4437Y-2.6091
X5.4437Y-2.6341
X5.4437Y-2.6591
X5.4437Y-2.6841
X5.4528Y-2.3228
X5.4626Y-3.0394
X5.4626Y-3.0787
X5.4724Y-2.126
X5.4724Y-3.7717
X5.4724Y-3.8976
X5.4815Y-2.4591
X5.4815Y-2.4841
X5.4815Y-2.5091
X5.4815Y-2.6841
X5.4823Y-3.0197
X5.4921Y-2.3917
X5.497Y-2.1874
X5.497Y-2.2362
X5.499Y-2.5315
X5.499Y-2.6102
X5.5039Y-2.7244
X5.5039Y-2.8661
X5.5118Y-2.0079
X5.5118Y-3.7717
X5.5246Y-2.5315
X5.5276Y-3.8976
X5.5303Y-2.7717
X5.5315Y-2.748
X5.5315Y-3.752
X5.5366Y-2.4421
X5.5413Y-2.3917
X5.5413Y-3.1555
X5.545Y-2.485
X5.5591Y-2.7244
X5.5591Y-2.7638
X5.561Y-2.8642
X5.561Y-3.1752
X5.561Y-3.6614
X5.561Y-3.7205
X5.563Y-3.4055
X5.5669Y-2.6457
X5.5669Y-2.6693
X5.5709Y-2.9508
X5.5709Y-2.9902
X5.5709Y-3.0295
X5.5709Y-3.0689
X5.5748Y-3.3819
X5.5748Y-3.8976
X5.5758Y-2.5315
X5.5758Y-2.6102
X5.5807Y-3.1555
X5.5807Y-3.752
X5.5906Y-2.0079
X5.5906Y-2.7638
X5.6004Y-2.4606
X5.6004Y-2.8642
X5.6004Y-3.1752
X5.6004Y-3.6614
X5.6014Y-2.6102
X5.6014Y-2.5315
X5.6102Y-2.9508
X5.6102Y-2.9902
X5.6102Y-3.0295
X5.6102Y-3.0689
X5.6201Y-2.8445
X5.6201Y-3.1555
X5.622Y-2.7638
X5.626Y-3.8976
X5.627Y-2.5315
X5.6299Y-2.4252
X5.6299Y-3.7008
X5.6299Y-3.752
X5.6398Y-2.8642
X5.6398Y-3.1752
X5.6496Y-2.7717
X5.6496Y-2.9508
X5.6496Y-2.9902
X5.6496Y-3.0295
X5.6496Y-3.0689
X5.6526Y-2.5315
X5.6594Y-2.8445
X5.6594Y-3.1555
X5.6654Y-2.7224
X5.6693Y-2.0079
X5.6693Y-2.1654
X5.6693Y-3.8976
X5.6732Y-2.6614
X5.6732Y-2.6969
X5.6778Y-2.489
X5.6781Y-2.5315
X5.6781Y-2.6102
X5.6791Y-2.4252
X5.6791Y-2.8642
X5.6791Y-3.1752
X5.689Y-2.9508
X5.689Y-2.9902
X5.689Y-3.0295
X5.689Y-3.0689
X5.6965Y-2.815
X5.6969Y-2.7736
X5.6988Y-2.8445
X5.6988Y-3.1555
X5.7087Y-2.126
X5.7087Y-2.2047
X5.7087Y-2.2835
X5.7087Y-2.5197
X5.7087Y-2.5591
X5.7087Y-2.5984
X5.7087Y-2.6378
X5.7087Y-3.7008
X5.7087Y-3.7795
X5.7087Y-3.8976
X5.7165Y-2.7953
X5.7185Y-3.1752
X5.7283Y-3.2283
X5.7283Y-3.3858
X5.7283Y-3.5039
X5.7392Y-2.8543
X5.7394Y-2.8996
X5.748Y-2.0079
X5.748Y-2.1654
X5.748Y-3.622
X5.7677Y-2.5591
X5.7677Y-2.5984
X5.7677Y-2.6378
X5.7717Y-2.9213
X5.7717Y-2.9606
X5.7717Y-3.0
X5.7717Y-3.0394
X5.7874Y-2.8346
X5.7874Y-2.9409
X5.7874Y-2.9803
X5.7874Y-3.0197
X5.7874Y-3.0787
X5.7874Y-3.1496
X5.7874Y-3.2283
X5.7874Y-3.3268
X5.7874Y-3.3858
X5.7874Y-3.4646
X5.7874Y-3.5039
X5.7874Y-3.6024
X5.7874Y-3.7008
X5.7874Y-3.7795
X5.8161Y-2.9055
X5.8268Y-2.1654
X5.8268Y-3.3465
X5.8425Y-2.9315
X5.8425Y-2.9567
X5.8425Y-2.9925
X5.8425Y-3.0157
X5.8425Y-3.0535
X5.8425Y-3.0787
X5.8543Y-2.9055
X5.8661Y-2.2047
X5.8661Y-2.2835
X5.8661Y-2.3622
X5.8661Y-2.4409
X5.8661Y-2.5197
X5.8661Y-2.5984
X5.8661Y-2.6772
X5.8661Y-2.7559
X5.8661Y-2.8346
X5.8661Y-3.2283
X5.8661Y-3.3071
X5.8661Y-3.3858
X5.8661Y-3.4646
X5.8661Y-3.5433
X5.8661Y-3.622
T2
X4.9508Y-3.1875
X4.9902Y-3.1875
T3
X4.3622Y-3.1831
X4.3622Y-3.2224
X4.3622Y-3.2618
X4.3622Y-3.3012
X4.3622Y-3.3406
X4.3622Y-3.3799
X4.3622Y-3.4193
X4.3622Y-3.4587
X4.3622Y-3.498
X4.3622Y-3.5374
X4.3622Y-3.5768
X4.3622Y-3.6161
X4.4016Y-3.1831
X4.4016Y-3.2224
X4.4016Y-3.2618
X4.4016Y-3.3012
X4.4016Y-3.3406
X4.4016Y-3.3799
X4.4016Y-3.4193
X4.4016Y-3.4587
X4.4016Y-3.498
X4.4016Y-3.5374
X4.4016Y-3.5768
X4.4016Y-3.6161
X4.4016Y-3.6949
X4.4409Y-3.1831
X4.4409Y-3.2224
X4.4409Y-3.2618
X4.4409Y-3.3012
X4.4409Y-3.3406
X4.4409Y-3.3799
X4.4409Y-3.4193
X4.4409Y-3.4587
X4.4409Y-3.498
X4.4409Y-3.5374
X4.4409Y-3.5768
X4.4409Y-3.6161
X4.4409Y-3.6949
X4.4409Y-3.7343
X4.4803Y-3.6949
X4.4803Y-3.7343
X4.7953Y-3.6555
X4.7953Y-3.6949
X4.7953Y-3.7343
X4.8346Y-3.7343
X4.874Y-3.7343
X4.9134Y-3.7343
X4.9528Y-3.7343
X4.9921Y-3.7343
X5.0315Y-3.5768
X5.0315Y-3.6161
X5.0315Y-3.6555
X5.0315Y-3.6949
X5.0315Y-3.7343
X5.0709Y-3.5768
X5.0709Y-3.6161
X5.0709Y-3.6555
X5.0709Y-3.6949
X5.0709Y-3.7343
X5.4016Y-3.2224
X5.4016Y-3.2618
X5.4016Y-3.3012
X5.4016Y-3.3406
X5.4016Y-3.3799
X5.4016Y-3.4193
X5.4016Y-3.4587
X5.4016Y-3.498
X5.4016Y-3.5374
X5.4016Y-3.5768
X5.4016Y-3.6161
X5.4016Y-3.6555
X5.4016Y-3.6949
X5.4409Y-3.2224
X5.4409Y-3.2618
X5.4409Y-3.3012
X5.4409Y-3.3406
X5.4409Y-3.3799
X5.4409Y-3.4193
X5.4409Y-3.4587
X5.4409Y-3.498
X5.4409Y-3.5374
X5.4409Y-3.5768
X5.4409Y-3.6161
X5.4409Y-3.6555
X5.4409Y-3.6949
X5.4803Y-3.2224
X5.4803Y-3.2618
X5.4803Y-3.3012
X5.4803Y-3.3406
X5.4803Y-3.3799
X5.4803Y-3.4193
X5.4803Y-3.4587
X5.4803Y-3.498
X5.4803Y-3.5374
X5.4803Y-3.5768
X5.4803Y-3.6161
X5.4803Y-3.6555
X5.4803Y-3.6949
T4
X4.0138Y-2.2539
X4.0433Y-2.3976
X4.0433Y-2.4469
X4.0433Y-2.6732
X4.0433Y-2.7224
X4.0433Y-2.7717
X4.063Y-2.2539
X4.1122Y-2.2539
X4.1614Y-2.2539
X4.1929Y-2.0748
X4.1929Y-3.8287
X4.2106Y-2.2539
X4.2421Y-2.0748
X4.2421Y-3.8287
X4.2598Y-2.2539
X4.2913Y-2.0748
X4.2913Y-3.8287
X4.3091Y-2.2539
X4.3406Y-2.0748
X4.3406Y-3.8287
X4.3583Y-2.2539
X4.3898Y-2.0748
X4.3898Y-3.8287
X4.4075Y-2.2539
X4.4567Y-2.2539
X4.5059Y-2.2539
X5.3543Y-2.0748
X5.4035Y-2.0748
X5.4528Y-2.0748
X5.4528Y-3.8287
X5.502Y-2.0748
X5.502Y-3.8287
X5.5512Y-2.0748
X5.5512Y-3.8287
X5.6004Y-2.0748
X5.6004Y-3.8287
X5.6496Y-2.0748
X5.6496Y-3.8287
X5.7992Y-2.2244
X5.7992Y-2.2736
X5.7992Y-2.3228
X5.7992Y-2.372
X5.7992Y-2.4213
X5.7992Y-2.4705
X5.7992Y-2.5197
X5.7992Y-2.6732
X5.7992Y-2.7224
X5.7992Y-2.7717
T5
X5.0768Y-2.0228
X5.0768Y-2.0728
X5.1268Y-2.0228
X5.1268Y-2.0728
X5.1768Y-2.0228
X5.1768Y-2.0728
X5.2268Y-2.0228
X5.2268Y-2.0728
T6
X4.0059Y-3.1693
X4.0059Y-3.6811
X4.7047Y-3.878
X5.1378Y-3.878
X5.8366Y-3.1693
X5.8366Y-3.6811
T7
X4.2028Y-3.2874
X4.2028Y-3.4252
X4.2028Y-3.563
X4.8228Y-3.4843
X5.0197Y-3.4843
X5.6398Y-3.2874
X5.6398Y-3.4252
X5.6398Y-3.563
T0
M30
