%TF.GenerationSoftware,KiCad,Pcbnew,8.0.0-8.0.0-1~ubuntu22.04.1*%
%TF.CreationDate,2024-03-14T15:19:02+01:00*%
%TF.ProjectId,omodri_laas,6f6d6f64-7269-45f6-9c61-61732e6b6963,3.0*%
%TF.SameCoordinates,Original*%
%TF.FileFunction,Soldermask,Top*%
%TF.FilePolarity,Negative*%
%FSLAX46Y46*%
G04 Gerber Fmt 4.6, Leading zero omitted, Abs format (unit mm)*
G04 Created by KiCad (PCBNEW 8.0.0-8.0.0-1~ubuntu22.04.1) date 2024-03-14 15:19:02*
%MOMM*%
%LPD*%
G01*
G04 APERTURE LIST*
G04 Aperture macros list*
%AMRoundRect*
0 Rectangle with rounded corners*
0 $1 Rounding radius*
0 $2 $3 $4 $5 $6 $7 $8 $9 X,Y pos of 4 corners*
0 Add a 4 corners polygon primitive as box body*
4,1,4,$2,$3,$4,$5,$6,$7,$8,$9,$2,$3,0*
0 Add four circle primitives for the rounded corners*
1,1,$1+$1,$2,$3*
1,1,$1+$1,$4,$5*
1,1,$1+$1,$6,$7*
1,1,$1+$1,$8,$9*
0 Add four rect primitives between the rounded corners*
20,1,$1+$1,$2,$3,$4,$5,0*
20,1,$1+$1,$4,$5,$6,$7,0*
20,1,$1+$1,$6,$7,$8,$9,0*
20,1,$1+$1,$8,$9,$2,$3,0*%
%AMFreePoly0*
4,1,6,1.000000,0.000000,0.500000,-0.750000,-0.500000,-0.750000,-0.500000,0.750000,0.500000,0.750000,1.000000,0.000000,1.000000,0.000000,$1*%
%AMFreePoly1*
4,1,6,0.500000,-0.750000,-0.650000,-0.750000,-0.150000,0.000000,-0.650000,0.750000,0.500000,0.750000,0.500000,-0.750000,0.500000,-0.750000,$1*%
G04 Aperture macros list end*
%ADD10C,0.350000*%
%ADD11C,0.100000*%
%ADD12RoundRect,0.250000X-0.450000X0.262500X-0.450000X-0.262500X0.450000X-0.262500X0.450000X0.262500X0*%
%ADD13RoundRect,0.250000X0.262500X0.450000X-0.262500X0.450000X-0.262500X-0.450000X0.262500X-0.450000X0*%
%ADD14RoundRect,0.250000X-0.262500X-0.450000X0.262500X-0.450000X0.262500X0.450000X-0.262500X0.450000X0*%
%ADD15RoundRect,0.100000X0.100000X-0.130000X0.100000X0.130000X-0.100000X0.130000X-0.100000X-0.130000X0*%
%ADD16RoundRect,0.100000X-0.130000X-0.100000X0.130000X-0.100000X0.130000X0.100000X-0.130000X0.100000X0*%
%ADD17RoundRect,0.140000X0.140000X0.170000X-0.140000X0.170000X-0.140000X-0.170000X0.140000X-0.170000X0*%
%ADD18RoundRect,0.218750X0.256250X-0.218750X0.256250X0.218750X-0.256250X0.218750X-0.256250X-0.218750X0*%
%ADD19RoundRect,0.100000X0.130000X0.100000X-0.130000X0.100000X-0.130000X-0.100000X0.130000X-0.100000X0*%
%ADD20R,2.700000X1.150000*%
%ADD21R,0.350000X1.150000*%
%ADD22R,0.250000X0.800000*%
%ADD23R,0.250000X0.700000*%
%ADD24R,1.100000X0.250000*%
%ADD25R,0.700000X0.250000*%
%ADD26R,0.300000X0.600000*%
%ADD27R,2.400000X1.650000*%
%ADD28RoundRect,0.100000X0.637500X0.100000X-0.637500X0.100000X-0.637500X-0.100000X0.637500X-0.100000X0*%
%ADD29RoundRect,0.100000X-0.100000X0.130000X-0.100000X-0.130000X0.100000X-0.130000X0.100000X0.130000X0*%
%ADD30RoundRect,0.140000X-0.170000X0.140000X-0.170000X-0.140000X0.170000X-0.140000X0.170000X0.140000X0*%
%ADD31R,0.400000X0.250000*%
%ADD32R,0.400000X0.700000*%
%ADD33RoundRect,0.147500X-0.172500X0.147500X-0.172500X-0.147500X0.172500X-0.147500X0.172500X0.147500X0*%
%ADD34RoundRect,0.140000X-0.140000X-0.170000X0.140000X-0.170000X0.140000X0.170000X-0.140000X0.170000X0*%
%ADD35C,2.200000*%
%ADD36C,1.400000*%
%ADD37R,3.000000X3.000000*%
%ADD38C,3.000000*%
%ADD39RoundRect,0.225000X-0.250000X0.225000X-0.250000X-0.225000X0.250000X-0.225000X0.250000X0.225000X0*%
%ADD40RoundRect,0.225000X-0.225000X-0.250000X0.225000X-0.250000X0.225000X0.250000X-0.225000X0.250000X0*%
%ADD41RoundRect,0.147500X0.172500X-0.147500X0.172500X0.147500X-0.172500X0.147500X-0.172500X-0.147500X0*%
%ADD42RoundRect,0.225000X0.250000X-0.225000X0.250000X0.225000X-0.250000X0.225000X-0.250000X-0.225000X0*%
%ADD43R,3.500000X3.500000*%
%ADD44C,3.500000*%
%ADD45R,0.700000X0.300000*%
%ADD46R,1.000000X0.300000*%
%ADD47RoundRect,0.062500X-0.350000X-0.062500X0.350000X-0.062500X0.350000X0.062500X-0.350000X0.062500X0*%
%ADD48RoundRect,0.062500X-0.062500X-0.350000X0.062500X-0.350000X0.062500X0.350000X-0.062500X0.350000X0*%
%ADD49R,4.600000X4.600000*%
%ADD50R,0.249999X0.700001*%
%ADD51R,0.375001X0.429999*%
%ADD52R,5.399999X3.300001*%
%ADD53RoundRect,0.150000X-0.512500X-0.150000X0.512500X-0.150000X0.512500X0.150000X-0.512500X0.150000X0*%
%ADD54R,0.450000X1.380000*%
%ADD55R,1.650000X1.300000*%
%ADD56R,1.425000X1.550000*%
%ADD57R,1.800000X1.900000*%
%ADD58R,1.000000X1.900000*%
%ADD59RoundRect,0.147500X-0.147500X-0.172500X0.147500X-0.172500X0.147500X0.172500X-0.147500X0.172500X0*%
%ADD60RoundRect,0.147500X0.147500X0.172500X-0.147500X0.172500X-0.147500X-0.172500X0.147500X-0.172500X0*%
%ADD61C,0.800000*%
%ADD62R,0.900000X1.700000*%
%ADD63R,1.050000X1.050000*%
%ADD64O,1.050000X1.050000*%
%ADD65FreePoly0,90.000000*%
%ADD66FreePoly1,90.000000*%
%ADD67RoundRect,0.140000X0.170000X-0.140000X0.170000X0.140000X-0.170000X0.140000X-0.170000X-0.140000X0*%
%ADD68RoundRect,0.250000X0.450000X-0.250000X0.450000X0.250000X-0.450000X0.250000X-0.450000X-0.250000X0*%
%ADD69O,1.400000X1.000000*%
%ADD70R,1.000000X1.000000*%
%ADD71O,1.000000X1.000000*%
%ADD72R,0.675000X0.250000*%
%ADD73R,0.250000X0.675000*%
%ADD74R,0.250000X0.550000*%
%ADD75R,0.200000X0.550000*%
%ADD76R,0.600000X0.300000*%
%ADD77R,0.550000X0.200000*%
%ADD78R,0.500000X0.200000*%
%ADD79R,0.200000X0.500000*%
%ADD80RoundRect,0.125000X0.125000X0.125000X-0.125000X0.125000X-0.125000X-0.125000X0.125000X-0.125000X0*%
%ADD81RoundRect,0.050000X-0.300000X0.150000X-0.300000X-0.150000X0.300000X-0.150000X0.300000X0.150000X0*%
%ADD82RoundRect,0.125000X-0.125000X-0.125000X0.125000X-0.125000X0.125000X0.125000X-0.125000X0.125000X0*%
%ADD83R,0.499999X0.200000*%
%ADD84C,0.400000*%
G04 APERTURE END LIST*
D10*
%TO.C,U13*%
X122750000Y-79225000D02*
X123750000Y-79225000D01*
X122750000Y-80775000D02*
X123750000Y-80775000D01*
D11*
%TO.C,Q2*%
X106375000Y-83600000D02*
X102225000Y-83600000D01*
X102225000Y-83300000D01*
X106375000Y-83300000D01*
X106375000Y-83600000D01*
G36*
X106375000Y-83600000D02*
G01*
X102225000Y-83600000D01*
X102225000Y-83300000D01*
X106375000Y-83300000D01*
X106375000Y-83600000D01*
G37*
X106375000Y-87900000D02*
X102225000Y-87900000D01*
X102225000Y-87600000D01*
X106375000Y-87600000D01*
X106375000Y-87900000D01*
G36*
X106375000Y-87900000D02*
G01*
X102225000Y-87900000D01*
X102225000Y-87600000D01*
X106375000Y-87600000D01*
X106375000Y-87900000D01*
G37*
%TO.C,Q3*%
X112975000Y-83600000D02*
X108825000Y-83600000D01*
X108825000Y-83300000D01*
X112975000Y-83300000D01*
X112975000Y-83600000D01*
G36*
X112975000Y-83600000D02*
G01*
X108825000Y-83600000D01*
X108825000Y-83300000D01*
X112975000Y-83300000D01*
X112975000Y-83600000D01*
G37*
X112975000Y-87900000D02*
X108825000Y-87900000D01*
X108825000Y-87600000D01*
X112975000Y-87600000D01*
X112975000Y-87900000D01*
G36*
X112975000Y-87900000D02*
G01*
X108825000Y-87900000D01*
X108825000Y-87600000D01*
X112975000Y-87600000D01*
X112975000Y-87900000D01*
G37*
%TO.C,Q4*%
X119575000Y-83600000D02*
X115425000Y-83600000D01*
X115425000Y-83300000D01*
X119575000Y-83300000D01*
X119575000Y-83600000D01*
G36*
X119575000Y-83600000D02*
G01*
X115425000Y-83600000D01*
X115425000Y-83300000D01*
X119575000Y-83300000D01*
X119575000Y-83600000D01*
G37*
X119575000Y-87900000D02*
X115425000Y-87900000D01*
X115425000Y-87600000D01*
X119575000Y-87600000D01*
X119575000Y-87900000D01*
G36*
X119575000Y-87900000D02*
G01*
X115425000Y-87900000D01*
X115425000Y-87600000D01*
X119575000Y-87600000D01*
X119575000Y-87900000D01*
G37*
%TO.C,Q5*%
X135575000Y-83600000D02*
X131425000Y-83600000D01*
X131425000Y-83300000D01*
X135575000Y-83300000D01*
X135575000Y-83600000D01*
G36*
X135575000Y-83600000D02*
G01*
X131425000Y-83600000D01*
X131425000Y-83300000D01*
X135575000Y-83300000D01*
X135575000Y-83600000D01*
G37*
X135575000Y-87900000D02*
X131425000Y-87900000D01*
X131425000Y-87600000D01*
X135575000Y-87600000D01*
X135575000Y-87900000D01*
G36*
X135575000Y-87900000D02*
G01*
X131425000Y-87900000D01*
X131425000Y-87600000D01*
X135575000Y-87600000D01*
X135575000Y-87900000D01*
G37*
%TO.C,Q6*%
X142175000Y-83600000D02*
X138025000Y-83600000D01*
X138025000Y-83300000D01*
X142175000Y-83300000D01*
X142175000Y-83600000D01*
G36*
X142175000Y-83600000D02*
G01*
X138025000Y-83600000D01*
X138025000Y-83300000D01*
X142175000Y-83300000D01*
X142175000Y-83600000D01*
G37*
X142175000Y-87900000D02*
X138025000Y-87900000D01*
X138025000Y-87600000D01*
X142175000Y-87600000D01*
X142175000Y-87900000D01*
G36*
X142175000Y-87900000D02*
G01*
X138025000Y-87900000D01*
X138025000Y-87600000D01*
X142175000Y-87600000D01*
X142175000Y-87900000D01*
G37*
%TO.C,Q7*%
X148775000Y-83600000D02*
X144625000Y-83600000D01*
X144625000Y-83300000D01*
X148775000Y-83300000D01*
X148775000Y-83600000D01*
G36*
X148775000Y-83600000D02*
G01*
X144625000Y-83600000D01*
X144625000Y-83300000D01*
X148775000Y-83300000D01*
X148775000Y-83600000D01*
G37*
X148775000Y-87900000D02*
X144625000Y-87900000D01*
X144625000Y-87600000D01*
X148775000Y-87600000D01*
X148775000Y-87900000D01*
G36*
X148775000Y-87900000D02*
G01*
X144625000Y-87900000D01*
X144625000Y-87600000D01*
X148775000Y-87600000D01*
X148775000Y-87900000D01*
G37*
D10*
%TO.C,U12*%
X127750000Y-79225000D02*
X128750000Y-79225000D01*
X127750000Y-80775000D02*
X128750000Y-80775000D01*
%TD*%
D12*
%TO.C,R77*%
X144200000Y-78987500D03*
X144200000Y-80812500D03*
%TD*%
%TO.C,R69*%
X106300000Y-78987500D03*
X106300000Y-80812500D03*
%TD*%
D13*
%TO.C,R74*%
X134712500Y-93500000D03*
X132887500Y-93500000D03*
%TD*%
D12*
%TO.C,R64*%
X108400000Y-78987500D03*
X108400000Y-80812500D03*
%TD*%
D13*
%TO.C,R78*%
X146912500Y-93500000D03*
X145087500Y-93500000D03*
%TD*%
D12*
%TO.C,R73*%
X137100000Y-76087500D03*
X137100000Y-77912500D03*
%TD*%
%TO.C,R62*%
X102000000Y-76087500D03*
X102000000Y-77912500D03*
%TD*%
D14*
%TO.C,R71*%
X109887500Y-93500000D03*
X111712500Y-93500000D03*
%TD*%
%TO.C,R70*%
X102887500Y-93500000D03*
X104712500Y-93500000D03*
%TD*%
D12*
%TO.C,R75*%
X142100000Y-78987500D03*
X142100000Y-80812500D03*
%TD*%
D14*
%TO.C,R72*%
X115887500Y-93500000D03*
X117712500Y-93500000D03*
%TD*%
D13*
%TO.C,R76*%
X140012500Y-93500000D03*
X138187500Y-93500000D03*
%TD*%
D15*
%TO.C,C41*%
X141750000Y-69320000D03*
X141750000Y-68680000D03*
%TD*%
D16*
%TO.C,C49*%
X144930000Y-77450000D03*
X145570000Y-77450000D03*
%TD*%
D17*
%TO.C,C65*%
X121830000Y-77250000D03*
X120870000Y-77250000D03*
%TD*%
D16*
%TO.C,C69*%
X132180000Y-75100000D03*
X132820000Y-75100000D03*
%TD*%
D18*
%TO.C,FB3*%
X123000000Y-77787500D03*
X123000000Y-76212500D03*
%TD*%
D19*
%TO.C,R26*%
X130600000Y-53800000D03*
X129960000Y-53800000D03*
%TD*%
D20*
%TO.C,R40*%
X134200000Y-81875000D03*
D21*
X132375000Y-81875000D03*
X132375000Y-80325000D03*
D20*
X134200000Y-80325000D03*
%TD*%
D22*
%TO.C,U13*%
X122250000Y-80950000D03*
D23*
X122750000Y-81000000D03*
X123250000Y-81000000D03*
X123750000Y-81000000D03*
D24*
X123750000Y-80000000D03*
D23*
X123750000Y-79000000D03*
X123250000Y-79000000D03*
X122750000Y-79000000D03*
X122250000Y-79000000D03*
D25*
X122050000Y-80000000D03*
%TD*%
D15*
%TO.C,R44*%
X148700000Y-75390000D03*
X148700000Y-74750000D03*
%TD*%
%TO.C,R23*%
X134000000Y-59370000D03*
X134000000Y-58730000D03*
%TD*%
D26*
%TO.C,U17*%
X121475000Y-72250000D03*
X120825000Y-72250000D03*
X120175000Y-72250000D03*
X119525000Y-72250000D03*
X119525000Y-75050000D03*
X120175000Y-75050000D03*
X120825000Y-75050000D03*
X121475000Y-75050000D03*
D27*
X120500000Y-73650000D03*
%TD*%
D19*
%TO.C,C45*%
X141070000Y-77450000D03*
X140430000Y-77450000D03*
%TD*%
D28*
%TO.C,U5*%
X141462500Y-58875000D03*
X141462500Y-58225000D03*
X141462500Y-57575000D03*
X141462500Y-56925000D03*
X141462500Y-56275000D03*
X141462500Y-55625000D03*
X141462500Y-54975000D03*
X141462500Y-54325000D03*
X135737500Y-54325000D03*
X135737500Y-54975000D03*
X135737500Y-55625000D03*
X135737500Y-56275000D03*
X135737500Y-56925000D03*
X135737500Y-57575000D03*
X135737500Y-58225000D03*
X135737500Y-58875000D03*
%TD*%
D29*
%TO.C,R20*%
X142800000Y-55480000D03*
X142800000Y-56120000D03*
%TD*%
%TO.C,R21*%
X134000000Y-54530000D03*
X134000000Y-55170000D03*
%TD*%
D30*
%TO.C,C37*%
X138200000Y-73120000D03*
X138200000Y-74080000D03*
%TD*%
D31*
%TO.C,Q1*%
X131850000Y-51225000D03*
X131850000Y-50775000D03*
D32*
X131150000Y-51000000D03*
%TD*%
D29*
%TO.C,C43*%
X139050000Y-75630000D03*
X139050000Y-76270000D03*
%TD*%
D20*
%TO.C,R41*%
X139525000Y-81875000D03*
D21*
X137700000Y-81875000D03*
X137700000Y-80325000D03*
D20*
X139525000Y-80325000D03*
%TD*%
D29*
%TO.C,R37*%
X113700000Y-73250000D03*
X113700000Y-73890000D03*
%TD*%
D15*
%TO.C,R45*%
X148000000Y-73250000D03*
X148000000Y-72610000D03*
%TD*%
%TO.C,R46*%
X148875000Y-73250000D03*
X148875000Y-72610000D03*
%TD*%
D33*
%TO.C,D9*%
X114600000Y-73890000D03*
X114600000Y-74860000D03*
%TD*%
D34*
%TO.C,C27*%
X104790000Y-69200000D03*
X105750000Y-69200000D03*
%TD*%
D35*
%TO.C,H3*%
X102000000Y-52000000D03*
%TD*%
%TO.C,H4*%
X148000000Y-98000000D03*
%TD*%
%TO.C,H1*%
X102000000Y-98000000D03*
%TD*%
D36*
%TO.C,J11*%
X144800000Y-95975000D03*
X131800000Y-95975000D03*
D37*
X134800000Y-90975000D03*
D38*
X138300000Y-90975000D03*
X141800000Y-90975000D03*
%TD*%
D19*
%TO.C,R53*%
X121840000Y-78100000D03*
X121200000Y-78100000D03*
%TD*%
D34*
%TO.C,C62*%
X129920000Y-79000000D03*
X130880000Y-79000000D03*
%TD*%
D29*
%TO.C,R52*%
X126200000Y-79000000D03*
X126200000Y-79640000D03*
%TD*%
D39*
%TO.C,C25*%
X101500000Y-72725000D03*
X101500000Y-74275000D03*
%TD*%
D40*
%TO.C,C29*%
X102025000Y-70400000D03*
X103575000Y-70400000D03*
%TD*%
D15*
%TO.C,C28*%
X106750000Y-69320000D03*
X106750000Y-68680000D03*
%TD*%
D19*
%TO.C,C68*%
X131170000Y-75100000D03*
X130530000Y-75100000D03*
%TD*%
D35*
%TO.C,H2*%
X148000000Y-52000000D03*
%TD*%
D19*
%TO.C,R51*%
X126840000Y-78100000D03*
X126200000Y-78100000D03*
%TD*%
D16*
%TO.C,C31*%
X112280000Y-74250000D03*
X112920000Y-74250000D03*
%TD*%
D41*
%TO.C,D10*%
X148000000Y-71370000D03*
X148000000Y-70400000D03*
%TD*%
D30*
%TO.C,C40*%
X140500000Y-68420000D03*
X140500000Y-69380000D03*
%TD*%
D42*
%TO.C,C38*%
X136900000Y-72250000D03*
X136900000Y-70700000D03*
%TD*%
D36*
%TO.C,J6*%
X130500000Y-98500000D03*
X119500000Y-98500000D03*
D43*
X122500000Y-88500000D03*
D44*
X127500000Y-88500000D03*
%TD*%
D20*
%TO.C,R39*%
X116925000Y-81875000D03*
D21*
X115100000Y-81875000D03*
X115100000Y-80325000D03*
D20*
X116925000Y-80325000D03*
%TD*%
D16*
%TO.C,C36*%
X109930000Y-77450000D03*
X110570000Y-77450000D03*
%TD*%
D29*
%TO.C,C30*%
X104050000Y-75630000D03*
X104050000Y-76270000D03*
%TD*%
D19*
%TO.C,C32*%
X105915000Y-77450000D03*
X105275000Y-77450000D03*
%TD*%
D20*
%TO.C,R32*%
X111625000Y-81875000D03*
D21*
X109800000Y-81875000D03*
X109800000Y-80325000D03*
D20*
X111625000Y-80325000D03*
%TD*%
D15*
%TO.C,R42*%
X147100000Y-76390000D03*
X147100000Y-75750000D03*
%TD*%
%TO.C,R34*%
X112900000Y-75890000D03*
X112900000Y-75250000D03*
%TD*%
D36*
%TO.C,J10*%
X118200000Y-95975000D03*
X105200000Y-95975000D03*
D37*
X108200000Y-90975000D03*
D38*
X111700000Y-90975000D03*
X115200000Y-90975000D03*
%TD*%
D29*
%TO.C,R54*%
X121200000Y-79000000D03*
X121200000Y-79640000D03*
%TD*%
D18*
%TO.C,FB1*%
X128000000Y-77787500D03*
X128000000Y-76212500D03*
%TD*%
%TO.C,FB2*%
X129500000Y-77787500D03*
X129500000Y-76212500D03*
%TD*%
D29*
%TO.C,R29*%
X133000000Y-50780000D03*
X133000000Y-51420000D03*
%TD*%
D15*
%TO.C,C14*%
X134000000Y-56570000D03*
X134000000Y-55930000D03*
%TD*%
%TO.C,R33*%
X112100000Y-76390000D03*
X112100000Y-75750000D03*
%TD*%
%TO.C,R43*%
X147900000Y-75890000D03*
X147900000Y-75250000D03*
%TD*%
%TO.C,R35*%
X113700000Y-75390000D03*
X113700000Y-74750000D03*
%TD*%
%TO.C,R19*%
X142800000Y-57520000D03*
X142800000Y-56880000D03*
%TD*%
D20*
%TO.C,R31*%
X103725000Y-81875000D03*
D21*
X101900000Y-81875000D03*
X101900000Y-80325000D03*
D20*
X103725000Y-80325000D03*
%TD*%
D45*
%TO.C,J5*%
X146500000Y-59500000D03*
X146500000Y-59000000D03*
X146500000Y-58500000D03*
X146500000Y-58000000D03*
X146500000Y-57500000D03*
X146500000Y-57000000D03*
X146500000Y-56500000D03*
X146500000Y-56000000D03*
D46*
X149150000Y-60290000D03*
X149150000Y-55210000D03*
%TD*%
D20*
%TO.C,R47*%
X147425000Y-81875000D03*
D21*
X145600000Y-81875000D03*
X145600000Y-80325000D03*
D20*
X147425000Y-80325000D03*
%TD*%
D47*
%TO.C,U9*%
X105062500Y-71250000D03*
X105062500Y-71750000D03*
X105062500Y-72250000D03*
X105062500Y-72750000D03*
X105062500Y-73250000D03*
X105062500Y-73750000D03*
X105062500Y-74250000D03*
X105062500Y-74750000D03*
X105062500Y-75250000D03*
X105062500Y-75750000D03*
D48*
X105750000Y-76437500D03*
X106250000Y-76437500D03*
X106750000Y-76437500D03*
X107250000Y-76437500D03*
X107750000Y-76437500D03*
X108250000Y-76437500D03*
X108750000Y-76437500D03*
X109250000Y-76437500D03*
X109750000Y-76437500D03*
X110250000Y-76437500D03*
D47*
X110937500Y-75750000D03*
X110937500Y-75250000D03*
X110937500Y-74750000D03*
X110937500Y-74250000D03*
X110937500Y-73750000D03*
X110937500Y-73250000D03*
X110937500Y-72750000D03*
X110937500Y-72250000D03*
X110937500Y-71750000D03*
X110937500Y-71250000D03*
D48*
X110250000Y-70562500D03*
X109750000Y-70562500D03*
X109250000Y-70562500D03*
X108750000Y-70562500D03*
X108250000Y-70562500D03*
X107750000Y-70562500D03*
X107250000Y-70562500D03*
X106750000Y-70562500D03*
X106250000Y-70562500D03*
X105750000Y-70562500D03*
D49*
X108000000Y-73500000D03*
%TD*%
D47*
%TO.C,U10*%
X140062500Y-71250000D03*
X140062500Y-71750000D03*
X140062500Y-72250000D03*
X140062500Y-72750000D03*
X140062500Y-73250000D03*
X140062500Y-73750000D03*
X140062500Y-74250000D03*
X140062500Y-74750000D03*
X140062500Y-75250000D03*
X140062500Y-75750000D03*
D48*
X140750000Y-76437500D03*
X141250000Y-76437500D03*
X141750000Y-76437500D03*
X142250000Y-76437500D03*
X142750000Y-76437500D03*
X143250000Y-76437500D03*
X143750000Y-76437500D03*
X144250000Y-76437500D03*
X144750000Y-76437500D03*
X145250000Y-76437500D03*
D47*
X145937500Y-75750000D03*
X145937500Y-75250000D03*
X145937500Y-74750000D03*
X145937500Y-74250000D03*
X145937500Y-73750000D03*
X145937500Y-73250000D03*
X145937500Y-72750000D03*
X145937500Y-72250000D03*
X145937500Y-71750000D03*
X145937500Y-71250000D03*
D48*
X145250000Y-70562500D03*
X144750000Y-70562500D03*
X144250000Y-70562500D03*
X143750000Y-70562500D03*
X143250000Y-70562500D03*
X142750000Y-70562500D03*
X142250000Y-70562500D03*
X141750000Y-70562500D03*
X141250000Y-70562500D03*
X140750000Y-70562500D03*
D49*
X143000000Y-73500000D03*
%TD*%
D29*
%TO.C,R18*%
X142800000Y-58280000D03*
X142800000Y-58920000D03*
%TD*%
D50*
%TO.C,Q2*%
X101300000Y-87950000D03*
X101799999Y-87950000D03*
X102300000Y-87950000D03*
X102799999Y-87950000D03*
X103300001Y-87950000D03*
X103800000Y-87950000D03*
X104299999Y-87950000D03*
X104800001Y-87950000D03*
X105300000Y-87950000D03*
X105800001Y-87950000D03*
X106300000Y-87950000D03*
X106300000Y-83250000D03*
X105800001Y-83250000D03*
X105300000Y-83250000D03*
X104800001Y-83250000D03*
X104299999Y-83250000D03*
X103800000Y-83250000D03*
X103300001Y-83250000D03*
X102799999Y-83250000D03*
X102300000Y-83250000D03*
X101799999Y-83250000D03*
X101300000Y-83250000D03*
D51*
X100787001Y-87715000D03*
X106812999Y-87715000D03*
X106812999Y-83485000D03*
X100787001Y-83485000D03*
D52*
X103800000Y-85600000D03*
%TD*%
D50*
%TO.C,Q3*%
X107900000Y-87950000D03*
X108399999Y-87950000D03*
X108900000Y-87950000D03*
X109399999Y-87950000D03*
X109900001Y-87950000D03*
X110400000Y-87950000D03*
X110899999Y-87950000D03*
X111400001Y-87950000D03*
X111900000Y-87950000D03*
X112400001Y-87950000D03*
X112900000Y-87950000D03*
X112900000Y-83250000D03*
X112400001Y-83250000D03*
X111900000Y-83250000D03*
X111400001Y-83250000D03*
X110899999Y-83250000D03*
X110400000Y-83250000D03*
X109900001Y-83250000D03*
X109399999Y-83250000D03*
X108900000Y-83250000D03*
X108399999Y-83250000D03*
X107900000Y-83250000D03*
D51*
X107387001Y-87715000D03*
X113412999Y-87715000D03*
X113412999Y-83485000D03*
X107387001Y-83485000D03*
D52*
X110400000Y-85600000D03*
%TD*%
D50*
%TO.C,Q4*%
X114500000Y-87950000D03*
X114999999Y-87950000D03*
X115500000Y-87950000D03*
X115999999Y-87950000D03*
X116500001Y-87950000D03*
X117000000Y-87950000D03*
X117499999Y-87950000D03*
X118000001Y-87950000D03*
X118500000Y-87950000D03*
X119000001Y-87950000D03*
X119500000Y-87950000D03*
X119500000Y-83250000D03*
X119000001Y-83250000D03*
X118500000Y-83250000D03*
X118000001Y-83250000D03*
X117499999Y-83250000D03*
X117000000Y-83250000D03*
X116500001Y-83250000D03*
X115999999Y-83250000D03*
X115500000Y-83250000D03*
X114999999Y-83250000D03*
X114500000Y-83250000D03*
D51*
X113987001Y-87715000D03*
X120012999Y-87715000D03*
X120012999Y-83485000D03*
X113987001Y-83485000D03*
D52*
X117000000Y-85600000D03*
%TD*%
D50*
%TO.C,Q5*%
X130500000Y-87950000D03*
X130999999Y-87950000D03*
X131500000Y-87950000D03*
X131999999Y-87950000D03*
X132500001Y-87950000D03*
X133000000Y-87950000D03*
X133499999Y-87950000D03*
X134000001Y-87950000D03*
X134500000Y-87950000D03*
X135000001Y-87950000D03*
X135500000Y-87950000D03*
X135500000Y-83250000D03*
X135000001Y-83250000D03*
X134500000Y-83250000D03*
X134000001Y-83250000D03*
X133499999Y-83250000D03*
X133000000Y-83250000D03*
X132500001Y-83250000D03*
X131999999Y-83250000D03*
X131500000Y-83250000D03*
X130999999Y-83250000D03*
X130500000Y-83250000D03*
D51*
X129987001Y-87715000D03*
X136012999Y-87715000D03*
X136012999Y-83485000D03*
X129987001Y-83485000D03*
D52*
X133000000Y-85600000D03*
%TD*%
D50*
%TO.C,Q6*%
X137100000Y-87950000D03*
X137599999Y-87950000D03*
X138100000Y-87950000D03*
X138599999Y-87950000D03*
X139100001Y-87950000D03*
X139600000Y-87950000D03*
X140099999Y-87950000D03*
X140600001Y-87950000D03*
X141100000Y-87950000D03*
X141600001Y-87950000D03*
X142100000Y-87950000D03*
X142100000Y-83250000D03*
X141600001Y-83250000D03*
X141100000Y-83250000D03*
X140600001Y-83250000D03*
X140099999Y-83250000D03*
X139600000Y-83250000D03*
X139100001Y-83250000D03*
X138599999Y-83250000D03*
X138100000Y-83250000D03*
X137599999Y-83250000D03*
X137100000Y-83250000D03*
D51*
X136587001Y-87715000D03*
X142612999Y-87715000D03*
X142612999Y-83485000D03*
X136587001Y-83485000D03*
D52*
X139600000Y-85600000D03*
%TD*%
D50*
%TO.C,Q7*%
X143700000Y-87950000D03*
X144199999Y-87950000D03*
X144700000Y-87950000D03*
X145199999Y-87950000D03*
X145700001Y-87950000D03*
X146200000Y-87950000D03*
X146699999Y-87950000D03*
X147200001Y-87950000D03*
X147700000Y-87950000D03*
X148200001Y-87950000D03*
X148700000Y-87950000D03*
X148700000Y-83250000D03*
X148200001Y-83250000D03*
X147700000Y-83250000D03*
X147200001Y-83250000D03*
X146699999Y-83250000D03*
X146200000Y-83250000D03*
X145700001Y-83250000D03*
X145199999Y-83250000D03*
X144700000Y-83250000D03*
X144199999Y-83250000D03*
X143700000Y-83250000D03*
D51*
X143187001Y-87715000D03*
X149212999Y-87715000D03*
X149212999Y-83485000D03*
X143187001Y-83485000D03*
D52*
X146200000Y-85600000D03*
%TD*%
D53*
%TO.C,U14*%
X129362500Y-72050000D03*
X129362500Y-73000000D03*
X129362500Y-73950000D03*
X131637500Y-73950000D03*
X131637500Y-73000000D03*
X131637500Y-72050000D03*
%TD*%
D41*
%TO.C,D6*%
X129500000Y-52600000D03*
X129500000Y-51630000D03*
%TD*%
D16*
%TO.C,C44*%
X148080000Y-74000000D03*
X148720000Y-74000000D03*
%TD*%
D22*
%TO.C,U12*%
X127250000Y-80950000D03*
D23*
X127750000Y-81000000D03*
X128250000Y-81000000D03*
X128750000Y-81000000D03*
D24*
X128750000Y-80000000D03*
D23*
X128750000Y-79000000D03*
X128250000Y-79000000D03*
X127750000Y-79000000D03*
X127250000Y-79000000D03*
D25*
X127050000Y-80000000D03*
%TD*%
D42*
%TO.C,C42*%
X138450000Y-71125000D03*
X138450000Y-69575000D03*
%TD*%
D16*
%TO.C,C101*%
X120175000Y-71400000D03*
X120815000Y-71400000D03*
%TD*%
%TO.C,R38*%
X113700000Y-72500000D03*
X114340000Y-72500000D03*
%TD*%
D30*
%TO.C,C24*%
X103200000Y-73120000D03*
X103200000Y-74080000D03*
%TD*%
D15*
%TO.C,C104*%
X113500000Y-56820000D03*
X113500000Y-56180000D03*
%TD*%
D54*
%TO.C,J15*%
X111970000Y-54860000D03*
X111320000Y-54860000D03*
X110670000Y-54860000D03*
X110020000Y-54860000D03*
X109370000Y-54860000D03*
D55*
X114045000Y-52200000D03*
D56*
X113157500Y-54775000D03*
D57*
X111820000Y-52200000D03*
D58*
X109120000Y-52200000D03*
D56*
X108182500Y-54775000D03*
D55*
X107295000Y-52200000D03*
%TD*%
D59*
%TO.C,D11*%
X111715000Y-56750000D03*
X112685000Y-56750000D03*
%TD*%
D60*
%TO.C,D12*%
X110285000Y-56750000D03*
X109315000Y-56750000D03*
%TD*%
D61*
%TO.C,SW1*%
X136000000Y-52000000D03*
D62*
X137700000Y-52000000D03*
X134300000Y-52000000D03*
%TD*%
D29*
%TO.C,C23*%
X133000000Y-52580000D03*
X133000000Y-53220000D03*
%TD*%
D19*
%TO.C,C26*%
X101520000Y-71600000D03*
X100880000Y-71600000D03*
%TD*%
%TO.C,C39*%
X135420000Y-72250000D03*
X134780000Y-72250000D03*
%TD*%
D63*
%TO.C,J7*%
X140000000Y-51400000D03*
D64*
X140000000Y-52670000D03*
X141270000Y-51400000D03*
X141270000Y-52670000D03*
X142540000Y-51400000D03*
X142540000Y-52670000D03*
X143810000Y-51400000D03*
X143810000Y-52670000D03*
%TD*%
D29*
%TO.C,R22*%
X134000000Y-57330000D03*
X134000000Y-57970000D03*
%TD*%
D16*
%TO.C,R30*%
X130510000Y-52600000D03*
X131150000Y-52600000D03*
%TD*%
D65*
%TO.C,JP1*%
X127500000Y-52425000D03*
D66*
X127500000Y-50975000D03*
%TD*%
D15*
%TO.C,C102*%
X118550000Y-75050000D03*
X118550000Y-74410000D03*
%TD*%
D67*
%TO.C,C108*%
X119000000Y-93180000D03*
X119000000Y-92220000D03*
%TD*%
D29*
%TO.C,R17*%
X144000000Y-60200000D03*
X144000000Y-60840000D03*
%TD*%
D67*
%TO.C,C111*%
X143800000Y-93180000D03*
X143800000Y-92220000D03*
%TD*%
D68*
%TO.C,J12*%
X102550000Y-67525000D03*
D69*
X102550000Y-66275000D03*
X102550000Y-65025000D03*
X102550000Y-63775000D03*
X102550000Y-62525000D03*
X102550000Y-61275000D03*
X102550000Y-60025000D03*
X102550000Y-58775000D03*
X102550000Y-57525000D03*
X102550000Y-56275000D03*
%TD*%
D70*
%TO.C,J16*%
X121250000Y-85000000D03*
D71*
X122520000Y-85000000D03*
%TD*%
D67*
%TO.C,C110*%
X136900000Y-93180000D03*
X136900000Y-92220000D03*
%TD*%
%TO.C,C107*%
X113000000Y-93180000D03*
X113000000Y-92220000D03*
%TD*%
D16*
%TO.C,R2*%
X120860000Y-53800000D03*
X121500000Y-53800000D03*
%TD*%
D72*
%TO.C,U16*%
X146262500Y-63000000D03*
X146262500Y-63500000D03*
X146262500Y-64000000D03*
X146262500Y-64500000D03*
X146262500Y-65000000D03*
X146262500Y-65500000D03*
X146262500Y-66000000D03*
D73*
X145000000Y-66512500D03*
D72*
X143737500Y-66000000D03*
X143737500Y-65500000D03*
X143737500Y-65000000D03*
X143737500Y-64500000D03*
X143737500Y-64000000D03*
X143737500Y-63500000D03*
X143737500Y-63000000D03*
D73*
X145000000Y-62487500D03*
%TD*%
D67*
%TO.C,C106*%
X106000000Y-93180000D03*
X106000000Y-92220000D03*
%TD*%
D74*
%TO.C,U20*%
X119000000Y-76825000D03*
D75*
X118500000Y-76825000D03*
X118000000Y-76825000D03*
D74*
X117500000Y-76825000D03*
D76*
X117350000Y-77500000D03*
D74*
X117500000Y-78175000D03*
D75*
X118000000Y-78175000D03*
X118500000Y-78175000D03*
D74*
X119000000Y-78175000D03*
D76*
X119150000Y-77500000D03*
%TD*%
D77*
%TO.C,U19*%
X114225000Y-56180000D03*
D78*
X114200000Y-56680000D03*
X114200000Y-57180000D03*
X115000000Y-57180000D03*
X115000000Y-56680000D03*
X115000000Y-56180000D03*
%TD*%
D75*
%TO.C,U1*%
X122825000Y-73075000D03*
D79*
X123325000Y-73100000D03*
X123825000Y-73100000D03*
X123825000Y-72300000D03*
X123325000Y-72300000D03*
X122825000Y-72300000D03*
%TD*%
D80*
%TO.C,D4*%
X109450000Y-65950000D03*
X109450000Y-65050000D03*
X108550000Y-65050000D03*
X108550000Y-65950000D03*
%TD*%
D16*
%TO.C,R65*%
X117780000Y-71400000D03*
X118420000Y-71400000D03*
%TD*%
D81*
%TO.C,D2*%
X145000000Y-59500000D03*
X145000000Y-60200000D03*
%TD*%
D26*
%TO.C,U18*%
X117575000Y-72250000D03*
X116925000Y-72250000D03*
X116275000Y-72250000D03*
X115625000Y-72250000D03*
X115625000Y-75050000D03*
X116275000Y-75050000D03*
X116925000Y-75050000D03*
X117575000Y-75050000D03*
D27*
X116600000Y-73650000D03*
%TD*%
D16*
%TO.C,R1*%
X117860000Y-53800000D03*
X118500000Y-53800000D03*
%TD*%
%TO.C,C7*%
X125325000Y-71500000D03*
X125965000Y-71500000D03*
%TD*%
D82*
%TO.C,D14*%
X133050000Y-76550000D03*
X133050000Y-77450000D03*
X133950000Y-77450000D03*
X133950000Y-76550000D03*
%TD*%
D16*
%TO.C,R3*%
X123860000Y-53800000D03*
X124500000Y-53800000D03*
%TD*%
D19*
%TO.C,R66*%
X116915000Y-71400000D03*
X116275000Y-71400000D03*
%TD*%
D75*
%TO.C,U2*%
X124825000Y-73075000D03*
D79*
X125325000Y-73100000D03*
X125825000Y-73100000D03*
X125825000Y-72300000D03*
X125325000Y-72300000D03*
X124825000Y-72300000D03*
%TD*%
D83*
%TO.C,D3*%
X145025000Y-58500000D03*
X145025000Y-58000001D03*
X145025000Y-57499999D03*
X145025000Y-57000000D03*
X145025000Y-56499998D03*
X145025000Y-55999999D03*
X145025000Y-55500000D03*
X143775000Y-55500000D03*
X143775000Y-55999999D03*
X143775000Y-56499998D03*
X143775000Y-57000000D03*
X143775000Y-57499999D03*
X143775000Y-58000001D03*
X143775000Y-58500000D03*
%TD*%
D15*
%TO.C,C100*%
X147200000Y-64000000D03*
X147200000Y-63360000D03*
%TD*%
%TO.C,C103*%
X115700000Y-56680000D03*
X115700000Y-56040000D03*
%TD*%
D65*
%TO.C,JP4*%
X118500000Y-52425000D03*
D66*
X118500000Y-50975000D03*
%TD*%
D16*
%TO.C,C3*%
X123325000Y-71500000D03*
X123965000Y-71500000D03*
%TD*%
D67*
%TO.C,C109*%
X131600000Y-93180000D03*
X131600000Y-92220000D03*
%TD*%
D84*
%TO.C,U6*%
X117800000Y-69700000D03*
X117800000Y-68900000D03*
X117800000Y-68100000D03*
X117800000Y-67300000D03*
X117800000Y-66500000D03*
X117800000Y-65700000D03*
X117800000Y-64900000D03*
X117800000Y-64100000D03*
X117800000Y-63300000D03*
X117800000Y-62500000D03*
X117800000Y-61700000D03*
X117800000Y-60900000D03*
X117800000Y-60100000D03*
X117800000Y-59300000D03*
X117800000Y-58500000D03*
X117800000Y-57700000D03*
X117800000Y-56900000D03*
X117800000Y-56100000D03*
X117800000Y-55300000D03*
X118600000Y-69700000D03*
X118600000Y-68900000D03*
X118600000Y-68100000D03*
X118600000Y-67300000D03*
X118600000Y-66500000D03*
X118600000Y-65700000D03*
X118600000Y-64900000D03*
X118600000Y-64100000D03*
X118600000Y-63300000D03*
X118600000Y-62500000D03*
X118600000Y-61700000D03*
X118600000Y-60900000D03*
X118600000Y-60100000D03*
X118600000Y-59300000D03*
X118600000Y-58500000D03*
X118600000Y-57700000D03*
X118600000Y-56900000D03*
X118600000Y-56100000D03*
X118600000Y-55300000D03*
X119400000Y-69700000D03*
X119400000Y-68900000D03*
X119400000Y-68100000D03*
X119400000Y-67300000D03*
X119400000Y-66500000D03*
X119400000Y-65700000D03*
X119400000Y-64900000D03*
X119400000Y-64100000D03*
X119400000Y-63300000D03*
X119400000Y-62500000D03*
X119400000Y-61700000D03*
X119400000Y-60900000D03*
X119400000Y-60100000D03*
X119400000Y-59300000D03*
X119400000Y-58500000D03*
X119400000Y-57700000D03*
X119400000Y-56900000D03*
X119400000Y-56100000D03*
X119400000Y-55300000D03*
X120200000Y-69700000D03*
X120200000Y-68900000D03*
X120200000Y-68100000D03*
X120200000Y-67300000D03*
X120200000Y-66500000D03*
X120200000Y-65700000D03*
X120200000Y-64900000D03*
X120200000Y-64100000D03*
X120200000Y-63300000D03*
X120200000Y-62500000D03*
X120200000Y-61700000D03*
X120200000Y-60900000D03*
X120200000Y-60100000D03*
X120200000Y-59300000D03*
X120200000Y-58500000D03*
X120200000Y-57700000D03*
X120200000Y-56900000D03*
X120200000Y-56100000D03*
X120200000Y-55300000D03*
X121000000Y-69700000D03*
X121000000Y-68900000D03*
X121000000Y-68100000D03*
X121000000Y-67300000D03*
X121000000Y-66500000D03*
X121000000Y-65700000D03*
X121000000Y-64900000D03*
X121000000Y-64100000D03*
X121000000Y-63300000D03*
X121000000Y-62500000D03*
X121000000Y-61700000D03*
X121000000Y-60900000D03*
X121000000Y-60100000D03*
X121000000Y-59300000D03*
X121000000Y-58500000D03*
X121000000Y-57700000D03*
X121000000Y-56900000D03*
X121000000Y-56100000D03*
X121000000Y-55300000D03*
X121800000Y-69700000D03*
X121800000Y-68900000D03*
X121800000Y-68100000D03*
X121800000Y-67300000D03*
X121800000Y-66500000D03*
X121800000Y-65700000D03*
X121800000Y-64900000D03*
X121800000Y-64100000D03*
X121800000Y-63300000D03*
X121800000Y-62500000D03*
X121800000Y-61700000D03*
X121800000Y-60900000D03*
X121800000Y-60100000D03*
X121800000Y-59300000D03*
X121800000Y-58500000D03*
X121800000Y-57700000D03*
X121800000Y-56900000D03*
X121800000Y-56100000D03*
X121800000Y-55300000D03*
X122600000Y-69700000D03*
X122600000Y-68900000D03*
X122600000Y-68100000D03*
X122600000Y-67300000D03*
X122600000Y-66500000D03*
X122600000Y-65700000D03*
X122600000Y-59300000D03*
X122600000Y-58500000D03*
X122600000Y-57700000D03*
X122600000Y-56900000D03*
X122600000Y-56100000D03*
X122600000Y-55300000D03*
X123400000Y-69700000D03*
X123400000Y-68900000D03*
X123400000Y-68100000D03*
X123400000Y-67300000D03*
X123400000Y-66500000D03*
X123400000Y-65700000D03*
X123400000Y-64100000D03*
X123400000Y-63300000D03*
X123400000Y-62500000D03*
X123400000Y-61700000D03*
X123400000Y-60900000D03*
X123400000Y-59300000D03*
X123400000Y-58500000D03*
X123400000Y-57700000D03*
X123400000Y-56900000D03*
X123400000Y-56100000D03*
X123400000Y-55300000D03*
X124200000Y-69700000D03*
X124200000Y-68900000D03*
X124200000Y-68100000D03*
X124200000Y-67300000D03*
X124200000Y-66500000D03*
X124200000Y-65700000D03*
X124200000Y-64100000D03*
X124200000Y-63300000D03*
X124200000Y-62500000D03*
X124200000Y-61700000D03*
X124200000Y-60900000D03*
X124200000Y-59300000D03*
X124200000Y-58500000D03*
X124200000Y-57700000D03*
X124200000Y-56900000D03*
X124200000Y-56100000D03*
X124200000Y-55300000D03*
X125000000Y-69700000D03*
X125000000Y-68900000D03*
X125000000Y-68100000D03*
X125000000Y-67300000D03*
X125000000Y-66500000D03*
X125000000Y-65700000D03*
X125000000Y-64100000D03*
X125000000Y-63300000D03*
X125000000Y-62500000D03*
X125000000Y-61700000D03*
X125000000Y-60900000D03*
X125000000Y-59300000D03*
X125000000Y-58500000D03*
X125000000Y-57700000D03*
X125000000Y-56900000D03*
X125000000Y-56100000D03*
X125000000Y-55300000D03*
X125800000Y-69700000D03*
X125800000Y-68900000D03*
X125800000Y-68100000D03*
X125800000Y-67300000D03*
X125800000Y-66500000D03*
X125800000Y-65700000D03*
X125800000Y-64100000D03*
X125800000Y-63300000D03*
X125800000Y-62500000D03*
X125800000Y-61700000D03*
X125800000Y-60900000D03*
X125800000Y-59300000D03*
X125800000Y-58500000D03*
X125800000Y-57700000D03*
X125800000Y-56900000D03*
X125800000Y-56100000D03*
X125800000Y-55300000D03*
X126600000Y-69700000D03*
X126600000Y-68900000D03*
X126600000Y-68100000D03*
X126600000Y-67300000D03*
X126600000Y-66500000D03*
X126600000Y-65700000D03*
X126600000Y-64100000D03*
X126600000Y-63300000D03*
X126600000Y-62500000D03*
X126600000Y-61700000D03*
X126600000Y-60900000D03*
X126600000Y-59300000D03*
X126600000Y-58500000D03*
X126600000Y-57700000D03*
X126600000Y-56900000D03*
X126600000Y-56100000D03*
X126600000Y-55300000D03*
X127400000Y-69700000D03*
X127400000Y-68900000D03*
X127400000Y-68100000D03*
X127400000Y-67300000D03*
X127400000Y-66500000D03*
X127400000Y-65700000D03*
X127400000Y-59300000D03*
X127400000Y-58500000D03*
X127400000Y-57700000D03*
X127400000Y-56900000D03*
X127400000Y-56100000D03*
X127400000Y-55300000D03*
X128200000Y-69700000D03*
X128200000Y-68900000D03*
X128200000Y-68100000D03*
X128200000Y-67300000D03*
X128200000Y-66500000D03*
X128200000Y-65700000D03*
X128200000Y-64900000D03*
X128200000Y-64100000D03*
X128200000Y-63300000D03*
X128200000Y-62500000D03*
X128200000Y-61700000D03*
X128200000Y-60900000D03*
X128200000Y-60100000D03*
X128200000Y-59300000D03*
X128200000Y-58500000D03*
X128200000Y-57700000D03*
X128200000Y-56900000D03*
X128200000Y-56100000D03*
X128200000Y-55300000D03*
X129000000Y-69700000D03*
X129000000Y-68900000D03*
X129000000Y-68100000D03*
X129000000Y-67300000D03*
X129000000Y-66500000D03*
X129000000Y-65700000D03*
X129000000Y-64900000D03*
X129000000Y-64100000D03*
X129000000Y-63300000D03*
X129000000Y-62500000D03*
X129000000Y-61700000D03*
X129000000Y-60900000D03*
X129000000Y-60100000D03*
X129000000Y-59300000D03*
X129000000Y-58500000D03*
X129000000Y-57700000D03*
X129000000Y-56900000D03*
X129000000Y-56100000D03*
X129000000Y-55300000D03*
X129800000Y-69700000D03*
X129800000Y-68900000D03*
X129800000Y-68100000D03*
X129800000Y-67300000D03*
X129800000Y-66500000D03*
X129800000Y-65700000D03*
X129800000Y-64900000D03*
X129800000Y-64100000D03*
X129800000Y-63300000D03*
X129800000Y-62500000D03*
X129800000Y-61700000D03*
X129800000Y-60900000D03*
X129800000Y-60100000D03*
X129800000Y-59300000D03*
X129800000Y-58500000D03*
X129800000Y-57700000D03*
X129800000Y-56900000D03*
X129800000Y-56100000D03*
X129800000Y-55300000D03*
X130600000Y-69700000D03*
X130600000Y-68900000D03*
X130600000Y-68100000D03*
X130600000Y-67300000D03*
X130600000Y-66500000D03*
X130600000Y-65700000D03*
X130600000Y-64900000D03*
X130600000Y-64100000D03*
X130600000Y-63300000D03*
X130600000Y-62500000D03*
X130600000Y-61700000D03*
X130600000Y-60900000D03*
X130600000Y-60100000D03*
X130600000Y-59300000D03*
X130600000Y-58500000D03*
X130600000Y-57700000D03*
X130600000Y-56900000D03*
X130600000Y-56100000D03*
X130600000Y-55300000D03*
X131400000Y-69700000D03*
X131400000Y-68900000D03*
X131400000Y-68100000D03*
X131400000Y-67300000D03*
X131400000Y-66500000D03*
X131400000Y-65700000D03*
X131400000Y-64900000D03*
X131400000Y-64100000D03*
X131400000Y-63300000D03*
X131400000Y-62500000D03*
X131400000Y-61700000D03*
X131400000Y-60900000D03*
X131400000Y-60100000D03*
X131400000Y-59300000D03*
X131400000Y-58500000D03*
X131400000Y-57700000D03*
X131400000Y-56900000D03*
X131400000Y-56100000D03*
X131400000Y-55300000D03*
X132200000Y-69700000D03*
X132200000Y-68900000D03*
X132200000Y-68100000D03*
X132200000Y-67300000D03*
X132200000Y-66500000D03*
X132200000Y-65700000D03*
X132200000Y-64900000D03*
X132200000Y-64100000D03*
X132200000Y-63300000D03*
X132200000Y-62500000D03*
X132200000Y-61700000D03*
X132200000Y-60900000D03*
X132200000Y-60100000D03*
X132200000Y-59300000D03*
X132200000Y-58500000D03*
X132200000Y-57700000D03*
X132200000Y-56900000D03*
X132200000Y-56100000D03*
X132200000Y-55300000D03*
%TD*%
D16*
%TO.C,R4*%
X126860000Y-53800000D03*
X127500000Y-53800000D03*
%TD*%
%TO.C,R63*%
X121880000Y-83000000D03*
X122520000Y-83000000D03*
%TD*%
D65*
%TO.C,JP3*%
X121500000Y-52425000D03*
D66*
X121500000Y-50975000D03*
%TD*%
D82*
%TO.C,D13*%
X114800000Y-76550000D03*
X114800000Y-77450000D03*
X115700000Y-77450000D03*
X115700000Y-76550000D03*
%TD*%
D75*
%TO.C,U3*%
X126825000Y-73075000D03*
D79*
X127325000Y-73100000D03*
X127825000Y-73100000D03*
X127825000Y-72300000D03*
X127325000Y-72300000D03*
X126825000Y-72300000D03*
%TD*%
D16*
%TO.C,C8*%
X127325000Y-71500000D03*
X127965000Y-71500000D03*
%TD*%
D65*
%TO.C,JP2*%
X124500000Y-52425000D03*
D66*
X124500000Y-50975000D03*
%TD*%
D29*
%TO.C,C99*%
X142700000Y-65000000D03*
X142700000Y-65640000D03*
%TD*%
D15*
%TO.C,C105*%
X119900000Y-77500000D03*
X119900000Y-76860000D03*
%TD*%
D61*
%TO.C,J9*%
X113000000Y-69260000D03*
X114270000Y-60740000D03*
%TD*%
%TO.C,J8*%
X137000000Y-69260000D03*
X138270000Y-60740000D03*
%TD*%
M02*
