%TF.GenerationSoftware,KiCad,Pcbnew,(5.1.6)-1*%
%TF.CreationDate,2020-12-14T17:26:25+01:00*%
%TF.ProjectId,omodri_laas,6f6d6f64-7269-45f6-9c61-61732e6b6963,1.0*%
%TF.SameCoordinates,Original*%
%TF.FileFunction,Soldermask,Bot*%
%TF.FilePolarity,Negative*%
%FSLAX46Y46*%
G04 Gerber Fmt 4.6, Leading zero omitted, Abs format (unit mm)*
G04 Created by KiCad (PCBNEW (5.1.6)-1) date 2020-12-14 17:26:25*
%MOMM*%
%LPD*%
G01*
G04 APERTURE LIST*
%ADD10C,0.100000*%
%ADD11C,0.350000*%
%ADD12O,1.100000X1.500000*%
%ADD13C,3.600000*%
%ADD14R,3.600000X3.600000*%
%ADD15C,1.500000*%
%ADD16C,3.100000*%
%ADD17R,3.100000X3.100000*%
%ADD18R,0.800001X0.349999*%
%ADD19R,0.529999X0.475001*%
%ADD20R,3.400001X5.499999*%
%ADD21C,0.900000*%
%ADD22O,0.900000X0.700000*%
%ADD23C,0.500000*%
%ADD24R,0.599999X0.300000*%
%ADD25R,0.350000X0.800000*%
%ADD26R,0.800000X0.350000*%
%ADD27R,1.200000X0.350000*%
%ADD28R,0.350000X0.900000*%
%ADD29R,0.350000X1.200000*%
%ADD30R,0.900000X0.350000*%
%ADD31R,1.300000X0.800000*%
%ADD32R,1.300000X5.500000*%
%ADD33R,0.380000X0.850000*%
%ADD34R,0.380000X0.950000*%
%ADD35C,2.300000*%
%ADD36R,1.320000X0.750000*%
%ADD37O,1.500000X1.100000*%
%ADD38R,4.700000X4.700000*%
%ADD39R,1.100000X2.000000*%
%ADD40R,1.900000X2.000000*%
%ADD41R,1.750000X1.400000*%
%ADD42R,1.525000X1.650000*%
%ADD43R,0.550000X1.480000*%
%ADD44R,2.100000X1.000000*%
%ADD45O,1.150000X1.150000*%
%ADD46R,1.150000X1.150000*%
G04 APERTURE END LIST*
D10*
%TO.C,Q2*%
G36*
X114100000Y-84924999D02*
G01*
X113800000Y-84924999D01*
X113800000Y-89074999D01*
X114100000Y-89074999D01*
X114100000Y-84924999D01*
G37*
X114100000Y-84924999D02*
X113800000Y-84924999D01*
X113800000Y-89074999D01*
X114100000Y-89074999D01*
X114100000Y-84924999D01*
G36*
X109800000Y-84924999D02*
G01*
X109500000Y-84924999D01*
X109500000Y-89074999D01*
X109800000Y-89074999D01*
X109800000Y-84924999D01*
G37*
X109800000Y-84924999D02*
X109500000Y-84924999D01*
X109500000Y-89074999D01*
X109800000Y-89074999D01*
X109800000Y-84924999D01*
%TO.C,Q5*%
G36*
X135900000Y-89075001D02*
G01*
X136200000Y-89075001D01*
X136200000Y-84925001D01*
X135900000Y-84925001D01*
X135900000Y-89075001D01*
G37*
X135900000Y-89075001D02*
X136200000Y-89075001D01*
X136200000Y-84925001D01*
X135900000Y-84925001D01*
X135900000Y-89075001D01*
G36*
X140200000Y-89075001D02*
G01*
X140500000Y-89075001D01*
X140500000Y-84925001D01*
X140200000Y-84925001D01*
X140200000Y-89075001D01*
G37*
X140200000Y-89075001D02*
X140500000Y-89075001D01*
X140500000Y-84925001D01*
X140200000Y-84925001D01*
X140200000Y-89075001D01*
D11*
%TO.C,U4*%
X121050000Y-80087500D02*
X120050000Y-80087500D01*
X121050000Y-81637500D02*
X120050000Y-81637500D01*
%TO.C,U3*%
X125441800Y-76994700D02*
X125441800Y-75994700D01*
X123891800Y-76994700D02*
X123891800Y-75994700D01*
%TD*%
D12*
%TO.C,J1*%
X114450000Y-57250000D03*
X113200000Y-57250000D03*
X111950000Y-57250000D03*
X110700000Y-57250000D03*
X109450000Y-57250000D03*
X108200000Y-57250000D03*
X106950000Y-57250000D03*
X105700000Y-57250000D03*
X104450000Y-57250000D03*
X103200000Y-57250000D03*
G36*
G01*
X101400000Y-57725000D02*
X101400000Y-56775000D01*
G75*
G02*
X101675000Y-56500000I275000J0D01*
G01*
X102225000Y-56500000D01*
G75*
G02*
X102500000Y-56775000I0J-275000D01*
G01*
X102500000Y-57725000D01*
G75*
G02*
X102225000Y-58000000I-275000J0D01*
G01*
X101675000Y-58000000D01*
G75*
G02*
X101400000Y-57725000I0J275000D01*
G01*
G37*
%TD*%
D13*
%TO.C,J13*%
X127500000Y-88500000D03*
D14*
X122500000Y-88500000D03*
D15*
X130500000Y-98500000D03*
X119500000Y-98500000D03*
%TD*%
D16*
%TO.C,J12*%
X143250000Y-83500000D03*
X143250000Y-87000000D03*
D17*
X143250000Y-90500000D03*
D15*
X148250000Y-80500000D03*
X148250000Y-93500000D03*
%TD*%
D16*
%TO.C,J11*%
X106750000Y-90500000D03*
X106750000Y-87000000D03*
D17*
X106750000Y-83500000D03*
D15*
X101750000Y-93500000D03*
X101750000Y-80500000D03*
%TD*%
D18*
%TO.C,Q2*%
X109450000Y-89999999D03*
X109450000Y-89500000D03*
X109450000Y-88999999D03*
X109450000Y-88500000D03*
X109450000Y-87999998D03*
X109450000Y-87499999D03*
X109450000Y-87000000D03*
X109450000Y-86499998D03*
X109450000Y-85999999D03*
X109450000Y-85499998D03*
X109450000Y-84999999D03*
X114150000Y-84999999D03*
X114150000Y-85499998D03*
X114150000Y-85999999D03*
X114150000Y-86499998D03*
X114150000Y-87000000D03*
X114150000Y-87499999D03*
X114150000Y-87999998D03*
X114150000Y-88500000D03*
X114150000Y-88999999D03*
X114150000Y-89500000D03*
X114150000Y-89999999D03*
D19*
X109685000Y-90512998D03*
X109685000Y-84487000D03*
X113915000Y-84487000D03*
X113915000Y-90512998D03*
D20*
X111800000Y-87499999D03*
%TD*%
D18*
%TO.C,Q5*%
X140550000Y-84000001D03*
X140550000Y-84500000D03*
X140550000Y-85000001D03*
X140550000Y-85500000D03*
X140550000Y-86000002D03*
X140550000Y-86500001D03*
X140550000Y-87000000D03*
X140550000Y-87500002D03*
X140550000Y-88000001D03*
X140550000Y-88500002D03*
X140550000Y-89000001D03*
X135850000Y-89000001D03*
X135850000Y-88500002D03*
X135850000Y-88000001D03*
X135850000Y-87500002D03*
X135850000Y-87000000D03*
X135850000Y-86500001D03*
X135850000Y-86000002D03*
X135850000Y-85500000D03*
X135850000Y-85000001D03*
X135850000Y-84500000D03*
X135850000Y-84000001D03*
D19*
X140315000Y-83487002D03*
X140315000Y-89513000D03*
X136085000Y-89513000D03*
X136085000Y-83487002D03*
D20*
X138200000Y-86500001D03*
%TD*%
D21*
%TO.C,J15*%
X114270000Y-60740000D03*
D22*
X113000000Y-69260000D03*
D23*
X113790000Y-67857500D03*
X113790000Y-67222500D03*
X113790000Y-66587500D03*
X113790000Y-65952500D03*
X113790000Y-65317500D03*
X113790000Y-64682500D03*
X113790000Y-64047500D03*
X113790000Y-63412500D03*
X113790000Y-62777500D03*
X113790000Y-62142500D03*
X114750000Y-67857500D03*
X114750000Y-67222500D03*
X114750000Y-66587500D03*
X114750000Y-65952500D03*
X114750000Y-65317500D03*
X114750000Y-64682500D03*
X114750000Y-64047500D03*
X114750000Y-63412500D03*
X114750000Y-62777500D03*
X114750000Y-62142500D03*
X112210000Y-67857500D03*
X112210000Y-67222500D03*
X112210000Y-66587500D03*
X112210000Y-65952500D03*
X112210000Y-65317500D03*
X112210000Y-64682500D03*
X112210000Y-64047500D03*
X112210000Y-63412500D03*
X112210000Y-62777500D03*
X112210000Y-62142500D03*
X111250000Y-67857500D03*
X111250000Y-67222500D03*
X111250000Y-66587500D03*
X111250000Y-65952500D03*
X111250000Y-65317500D03*
X111250000Y-64682500D03*
X111250000Y-64047500D03*
X111250000Y-63412500D03*
X111250000Y-62777500D03*
X111250000Y-62142500D03*
%TD*%
D24*
%TO.C,U13*%
X144775000Y-59624995D03*
X144775000Y-60124994D03*
X144775000Y-60624996D03*
X144775000Y-61124995D03*
X144775000Y-61624997D03*
X144775000Y-62124996D03*
X144775000Y-62624995D03*
X143525000Y-62624995D03*
X143525000Y-62124996D03*
X143525000Y-61624997D03*
X143525000Y-61124995D03*
X143525000Y-60624996D03*
X143525000Y-60124994D03*
X143525000Y-59624995D03*
%TD*%
D12*
%TO.C,J2*%
X111500000Y-52700000D03*
X110250000Y-52700000D03*
X109000000Y-52700000D03*
X107750000Y-52700000D03*
G36*
G01*
X105950000Y-53175000D02*
X105950000Y-52225000D01*
G75*
G02*
X106225000Y-51950000I275000J0D01*
G01*
X106775000Y-51950000D01*
G75*
G02*
X107050000Y-52225000I0J-275000D01*
G01*
X107050000Y-53175000D01*
G75*
G02*
X106775000Y-53450000I-275000J0D01*
G01*
X106225000Y-53450000D01*
G75*
G02*
X105950000Y-53175000I0J275000D01*
G01*
G37*
%TD*%
%TO.C,J5*%
X106500000Y-97250000D03*
X107750000Y-97250000D03*
X109000000Y-97250000D03*
X110250000Y-97250000D03*
G36*
G01*
X112050000Y-96775000D02*
X112050000Y-97725000D01*
G75*
G02*
X111775000Y-98000000I-275000J0D01*
G01*
X111225000Y-98000000D01*
G75*
G02*
X110950000Y-97725000I0J275000D01*
G01*
X110950000Y-96775000D01*
G75*
G02*
X111225000Y-96500000I275000J0D01*
G01*
X111775000Y-96500000D01*
G75*
G02*
X112050000Y-96775000I0J-275000D01*
G01*
G37*
%TD*%
%TO.C,J6*%
X138500000Y-97250000D03*
X139750000Y-97250000D03*
X141000000Y-97250000D03*
X142250000Y-97250000D03*
G36*
G01*
X144050000Y-96775000D02*
X144050000Y-97725000D01*
G75*
G02*
X143775000Y-98000000I-275000J0D01*
G01*
X143225000Y-98000000D01*
G75*
G02*
X142950000Y-97725000I0J275000D01*
G01*
X142950000Y-96775000D01*
G75*
G02*
X143225000Y-96500000I275000J0D01*
G01*
X143775000Y-96500000D01*
G75*
G02*
X144050000Y-96775000I0J-275000D01*
G01*
G37*
%TD*%
%TO.C,C88*%
G36*
G01*
X103955000Y-86205000D02*
X103955000Y-85955000D01*
G75*
G02*
X104080000Y-85830000I125000J0D01*
G01*
X104390000Y-85830000D01*
G75*
G02*
X104515000Y-85955000I0J-125000D01*
G01*
X104515000Y-86205000D01*
G75*
G02*
X104390000Y-86330000I-125000J0D01*
G01*
X104080000Y-86330000D01*
G75*
G02*
X103955000Y-86205000I0J125000D01*
G01*
G37*
G36*
G01*
X103315000Y-86205000D02*
X103315000Y-85955000D01*
G75*
G02*
X103440000Y-85830000I125000J0D01*
G01*
X103750000Y-85830000D01*
G75*
G02*
X103875000Y-85955000I0J-125000D01*
G01*
X103875000Y-86205000D01*
G75*
G02*
X103750000Y-86330000I-125000J0D01*
G01*
X103440000Y-86330000D01*
G75*
G02*
X103315000Y-86205000I0J125000D01*
G01*
G37*
%TD*%
%TO.C,R61*%
G36*
G01*
X145905000Y-74740000D02*
X145655000Y-74740000D01*
G75*
G02*
X145530000Y-74615000I0J125000D01*
G01*
X145530000Y-74305000D01*
G75*
G02*
X145655000Y-74180000I125000J0D01*
G01*
X145905000Y-74180000D01*
G75*
G02*
X146030000Y-74305000I0J-125000D01*
G01*
X146030000Y-74615000D01*
G75*
G02*
X145905000Y-74740000I-125000J0D01*
G01*
G37*
G36*
G01*
X145905000Y-75380000D02*
X145655000Y-75380000D01*
G75*
G02*
X145530000Y-75255000I0J125000D01*
G01*
X145530000Y-74945000D01*
G75*
G02*
X145655000Y-74820000I125000J0D01*
G01*
X145905000Y-74820000D01*
G75*
G02*
X146030000Y-74945000I0J-125000D01*
G01*
X146030000Y-75255000D01*
G75*
G02*
X145905000Y-75380000I-125000J0D01*
G01*
G37*
%TD*%
%TO.C,R60*%
G36*
G01*
X147855000Y-74740000D02*
X147605000Y-74740000D01*
G75*
G02*
X147480000Y-74615000I0J125000D01*
G01*
X147480000Y-74305000D01*
G75*
G02*
X147605000Y-74180000I125000J0D01*
G01*
X147855000Y-74180000D01*
G75*
G02*
X147980000Y-74305000I0J-125000D01*
G01*
X147980000Y-74615000D01*
G75*
G02*
X147855000Y-74740000I-125000J0D01*
G01*
G37*
G36*
G01*
X147855000Y-75380000D02*
X147605000Y-75380000D01*
G75*
G02*
X147480000Y-75255000I0J125000D01*
G01*
X147480000Y-74945000D01*
G75*
G02*
X147605000Y-74820000I125000J0D01*
G01*
X147855000Y-74820000D01*
G75*
G02*
X147980000Y-74945000I0J-125000D01*
G01*
X147980000Y-75255000D01*
G75*
G02*
X147855000Y-75380000I-125000J0D01*
G01*
G37*
%TD*%
%TO.C,C98*%
G36*
G01*
X145975000Y-77560000D02*
X146225000Y-77560000D01*
G75*
G02*
X146350000Y-77685000I0J-125000D01*
G01*
X146350000Y-77995000D01*
G75*
G02*
X146225000Y-78120000I-125000J0D01*
G01*
X145975000Y-78120000D01*
G75*
G02*
X145850000Y-77995000I0J125000D01*
G01*
X145850000Y-77685000D01*
G75*
G02*
X145975000Y-77560000I125000J0D01*
G01*
G37*
G36*
G01*
X145975000Y-76920000D02*
X146225000Y-76920000D01*
G75*
G02*
X146350000Y-77045000I0J-125000D01*
G01*
X146350000Y-77355000D01*
G75*
G02*
X146225000Y-77480000I-125000J0D01*
G01*
X145975000Y-77480000D01*
G75*
G02*
X145850000Y-77355000I0J125000D01*
G01*
X145850000Y-77045000D01*
G75*
G02*
X145975000Y-76920000I125000J0D01*
G01*
G37*
%TD*%
D25*
%TO.C,U4*%
X120050000Y-79862500D03*
X120550000Y-79862500D03*
X121050000Y-79862500D03*
X120050000Y-81862500D03*
X120550000Y-81862500D03*
X121050000Y-81862500D03*
D26*
X121750000Y-80862500D03*
D25*
X121550000Y-79862500D03*
D27*
X120050000Y-80862500D03*
D28*
X121550000Y-81812500D03*
%TD*%
D26*
%TO.C,U3*%
X125666800Y-75994700D03*
X125666800Y-76494700D03*
X125666800Y-76994700D03*
X123666800Y-75994700D03*
X123666800Y-76494700D03*
X123666800Y-76994700D03*
D25*
X124666800Y-77694700D03*
D26*
X125666800Y-77494700D03*
D29*
X124666800Y-75994700D03*
D30*
X123716800Y-77494700D03*
%TD*%
D31*
%TO.C,R56*%
X131100000Y-83450000D03*
X134300000Y-83450000D03*
D32*
X131100000Y-87000000D03*
X134300000Y-87000000D03*
%TD*%
%TO.C,C1*%
G36*
G01*
X105105000Y-68150000D02*
X104855000Y-68150000D01*
G75*
G02*
X104730000Y-68025000I0J125000D01*
G01*
X104730000Y-67715000D01*
G75*
G02*
X104855000Y-67590000I125000J0D01*
G01*
X105105000Y-67590000D01*
G75*
G02*
X105230000Y-67715000I0J-125000D01*
G01*
X105230000Y-68025000D01*
G75*
G02*
X105105000Y-68150000I-125000J0D01*
G01*
G37*
G36*
G01*
X105105000Y-68790000D02*
X104855000Y-68790000D01*
G75*
G02*
X104730000Y-68665000I0J125000D01*
G01*
X104730000Y-68355000D01*
G75*
G02*
X104855000Y-68230000I125000J0D01*
G01*
X105105000Y-68230000D01*
G75*
G02*
X105230000Y-68355000I0J-125000D01*
G01*
X105230000Y-68665000D01*
G75*
G02*
X105105000Y-68790000I-125000J0D01*
G01*
G37*
%TD*%
%TO.C,C3*%
G36*
G01*
X128725000Y-65260000D02*
X128475000Y-65260000D01*
G75*
G02*
X128350000Y-65135000I0J125000D01*
G01*
X128350000Y-64825000D01*
G75*
G02*
X128475000Y-64700000I125000J0D01*
G01*
X128725000Y-64700000D01*
G75*
G02*
X128850000Y-64825000I0J-125000D01*
G01*
X128850000Y-65135000D01*
G75*
G02*
X128725000Y-65260000I-125000J0D01*
G01*
G37*
G36*
G01*
X128725000Y-65900000D02*
X128475000Y-65900000D01*
G75*
G02*
X128350000Y-65775000I0J125000D01*
G01*
X128350000Y-65465000D01*
G75*
G02*
X128475000Y-65340000I125000J0D01*
G01*
X128725000Y-65340000D01*
G75*
G02*
X128850000Y-65465000I0J-125000D01*
G01*
X128850000Y-65775000D01*
G75*
G02*
X128725000Y-65900000I-125000J0D01*
G01*
G37*
%TD*%
%TO.C,C4*%
G36*
G01*
X128875000Y-66790000D02*
X129125000Y-66790000D01*
G75*
G02*
X129250000Y-66915000I0J-125000D01*
G01*
X129250000Y-67225000D01*
G75*
G02*
X129125000Y-67350000I-125000J0D01*
G01*
X128875000Y-67350000D01*
G75*
G02*
X128750000Y-67225000I0J125000D01*
G01*
X128750000Y-66915000D01*
G75*
G02*
X128875000Y-66790000I125000J0D01*
G01*
G37*
G36*
G01*
X128875000Y-66150000D02*
X129125000Y-66150000D01*
G75*
G02*
X129250000Y-66275000I0J-125000D01*
G01*
X129250000Y-66585000D01*
G75*
G02*
X129125000Y-66710000I-125000J0D01*
G01*
X128875000Y-66710000D01*
G75*
G02*
X128750000Y-66585000I0J125000D01*
G01*
X128750000Y-66275000D01*
G75*
G02*
X128875000Y-66150000I125000J0D01*
G01*
G37*
%TD*%
%TO.C,C5*%
G36*
G01*
X128560000Y-61175000D02*
X128560000Y-61425000D01*
G75*
G02*
X128435000Y-61550000I-125000J0D01*
G01*
X128125000Y-61550000D01*
G75*
G02*
X128000000Y-61425000I0J125000D01*
G01*
X128000000Y-61175000D01*
G75*
G02*
X128125000Y-61050000I125000J0D01*
G01*
X128435000Y-61050000D01*
G75*
G02*
X128560000Y-61175000I0J-125000D01*
G01*
G37*
G36*
G01*
X129200000Y-61175000D02*
X129200000Y-61425000D01*
G75*
G02*
X129075000Y-61550000I-125000J0D01*
G01*
X128765000Y-61550000D01*
G75*
G02*
X128640000Y-61425000I0J125000D01*
G01*
X128640000Y-61175000D01*
G75*
G02*
X128765000Y-61050000I125000J0D01*
G01*
X129075000Y-61050000D01*
G75*
G02*
X129200000Y-61175000I0J-125000D01*
G01*
G37*
%TD*%
%TO.C,C6*%
G36*
G01*
X128560000Y-60375000D02*
X128560000Y-60625000D01*
G75*
G02*
X128435000Y-60750000I-125000J0D01*
G01*
X128125000Y-60750000D01*
G75*
G02*
X128000000Y-60625000I0J125000D01*
G01*
X128000000Y-60375000D01*
G75*
G02*
X128125000Y-60250000I125000J0D01*
G01*
X128435000Y-60250000D01*
G75*
G02*
X128560000Y-60375000I0J-125000D01*
G01*
G37*
G36*
G01*
X129200000Y-60375000D02*
X129200000Y-60625000D01*
G75*
G02*
X129075000Y-60750000I-125000J0D01*
G01*
X128765000Y-60750000D01*
G75*
G02*
X128640000Y-60625000I0J125000D01*
G01*
X128640000Y-60375000D01*
G75*
G02*
X128765000Y-60250000I125000J0D01*
G01*
X129075000Y-60250000D01*
G75*
G02*
X129200000Y-60375000I0J-125000D01*
G01*
G37*
%TD*%
%TO.C,C7*%
G36*
G01*
X122560000Y-57575000D02*
X122560000Y-57825000D01*
G75*
G02*
X122435000Y-57950000I-125000J0D01*
G01*
X122125000Y-57950000D01*
G75*
G02*
X122000000Y-57825000I0J125000D01*
G01*
X122000000Y-57575000D01*
G75*
G02*
X122125000Y-57450000I125000J0D01*
G01*
X122435000Y-57450000D01*
G75*
G02*
X122560000Y-57575000I0J-125000D01*
G01*
G37*
G36*
G01*
X123200000Y-57575000D02*
X123200000Y-57825000D01*
G75*
G02*
X123075000Y-57950000I-125000J0D01*
G01*
X122765000Y-57950000D01*
G75*
G02*
X122640000Y-57825000I0J125000D01*
G01*
X122640000Y-57575000D01*
G75*
G02*
X122765000Y-57450000I125000J0D01*
G01*
X123075000Y-57450000D01*
G75*
G02*
X123200000Y-57575000I0J-125000D01*
G01*
G37*
%TD*%
%TO.C,C8*%
G36*
G01*
X122560000Y-56775000D02*
X122560000Y-57025000D01*
G75*
G02*
X122435000Y-57150000I-125000J0D01*
G01*
X122125000Y-57150000D01*
G75*
G02*
X122000000Y-57025000I0J125000D01*
G01*
X122000000Y-56775000D01*
G75*
G02*
X122125000Y-56650000I125000J0D01*
G01*
X122435000Y-56650000D01*
G75*
G02*
X122560000Y-56775000I0J-125000D01*
G01*
G37*
G36*
G01*
X123200000Y-56775000D02*
X123200000Y-57025000D01*
G75*
G02*
X123075000Y-57150000I-125000J0D01*
G01*
X122765000Y-57150000D01*
G75*
G02*
X122640000Y-57025000I0J125000D01*
G01*
X122640000Y-56775000D01*
G75*
G02*
X122765000Y-56650000I125000J0D01*
G01*
X123075000Y-56650000D01*
G75*
G02*
X123200000Y-56775000I0J-125000D01*
G01*
G37*
%TD*%
%TO.C,C9*%
G36*
G01*
X128725000Y-85775000D02*
X128725000Y-83565000D01*
G75*
G02*
X128995000Y-83295000I270000J0D01*
G01*
X129805000Y-83295000D01*
G75*
G02*
X130075000Y-83565000I0J-270000D01*
G01*
X130075000Y-85775000D01*
G75*
G02*
X129805000Y-86045000I-270000J0D01*
G01*
X128995000Y-86045000D01*
G75*
G02*
X128725000Y-85775000I0J270000D01*
G01*
G37*
G36*
G01*
X125925000Y-85775000D02*
X125925000Y-83565000D01*
G75*
G02*
X126195000Y-83295000I270000J0D01*
G01*
X127005000Y-83295000D01*
G75*
G02*
X127275000Y-83565000I0J-270000D01*
G01*
X127275000Y-85775000D01*
G75*
G02*
X127005000Y-86045000I-270000J0D01*
G01*
X126195000Y-86045000D01*
G75*
G02*
X125925000Y-85775000I0J270000D01*
G01*
G37*
%TD*%
%TO.C,C11*%
G36*
G01*
X125610000Y-78875000D02*
X125610000Y-78625000D01*
G75*
G02*
X125735000Y-78500000I125000J0D01*
G01*
X126045000Y-78500000D01*
G75*
G02*
X126170000Y-78625000I0J-125000D01*
G01*
X126170000Y-78875000D01*
G75*
G02*
X126045000Y-79000000I-125000J0D01*
G01*
X125735000Y-79000000D01*
G75*
G02*
X125610000Y-78875000I0J125000D01*
G01*
G37*
G36*
G01*
X124970000Y-78875000D02*
X124970000Y-78625000D01*
G75*
G02*
X125095000Y-78500000I125000J0D01*
G01*
X125405000Y-78500000D01*
G75*
G02*
X125530000Y-78625000I0J-125000D01*
G01*
X125530000Y-78875000D01*
G75*
G02*
X125405000Y-79000000I-125000J0D01*
G01*
X125095000Y-79000000D01*
G75*
G02*
X124970000Y-78875000I0J125000D01*
G01*
G37*
%TD*%
%TO.C,C12*%
G36*
G01*
X125095000Y-83830000D02*
X125345000Y-83830000D01*
G75*
G02*
X125470000Y-83955000I0J-125000D01*
G01*
X125470000Y-84265000D01*
G75*
G02*
X125345000Y-84390000I-125000J0D01*
G01*
X125095000Y-84390000D01*
G75*
G02*
X124970000Y-84265000I0J125000D01*
G01*
X124970000Y-83955000D01*
G75*
G02*
X125095000Y-83830000I125000J0D01*
G01*
G37*
G36*
G01*
X125095000Y-83190000D02*
X125345000Y-83190000D01*
G75*
G02*
X125470000Y-83315000I0J-125000D01*
G01*
X125470000Y-83625000D01*
G75*
G02*
X125345000Y-83750000I-125000J0D01*
G01*
X125095000Y-83750000D01*
G75*
G02*
X124970000Y-83625000I0J125000D01*
G01*
X124970000Y-83315000D01*
G75*
G02*
X125095000Y-83190000I125000J0D01*
G01*
G37*
%TD*%
%TO.C,C13*%
G36*
G01*
X120975000Y-83092500D02*
X120975000Y-83655000D01*
G75*
G02*
X120731250Y-83898750I-243750J0D01*
G01*
X120243750Y-83898750D01*
G75*
G02*
X120000000Y-83655000I0J243750D01*
G01*
X120000000Y-83092500D01*
G75*
G02*
X120243750Y-82848750I243750J0D01*
G01*
X120731250Y-82848750D01*
G75*
G02*
X120975000Y-83092500I0J-243750D01*
G01*
G37*
G36*
G01*
X122550000Y-83092500D02*
X122550000Y-83655000D01*
G75*
G02*
X122306250Y-83898750I-243750J0D01*
G01*
X121818750Y-83898750D01*
G75*
G02*
X121575000Y-83655000I0J243750D01*
G01*
X121575000Y-83092500D01*
G75*
G02*
X121818750Y-82848750I243750J0D01*
G01*
X122306250Y-82848750D01*
G75*
G02*
X122550000Y-83092500I0J-243750D01*
G01*
G37*
%TD*%
%TO.C,C14*%
G36*
G01*
X123720000Y-67161250D02*
X123720000Y-66598750D01*
G75*
G02*
X123963750Y-66355000I243750J0D01*
G01*
X124451250Y-66355000D01*
G75*
G02*
X124695000Y-66598750I0J-243750D01*
G01*
X124695000Y-67161250D01*
G75*
G02*
X124451250Y-67405000I-243750J0D01*
G01*
X123963750Y-67405000D01*
G75*
G02*
X123720000Y-67161250I0J243750D01*
G01*
G37*
G36*
G01*
X122145000Y-67161250D02*
X122145000Y-66598750D01*
G75*
G02*
X122388750Y-66355000I243750J0D01*
G01*
X122876250Y-66355000D01*
G75*
G02*
X123120000Y-66598750I0J-243750D01*
G01*
X123120000Y-67161250D01*
G75*
G02*
X122876250Y-67405000I-243750J0D01*
G01*
X122388750Y-67405000D01*
G75*
G02*
X122145000Y-67161250I0J243750D01*
G01*
G37*
%TD*%
%TO.C,C15*%
G36*
G01*
X124240000Y-65826566D02*
X124240000Y-65576566D01*
G75*
G02*
X124365000Y-65451566I125000J0D01*
G01*
X124675000Y-65451566D01*
G75*
G02*
X124800000Y-65576566I0J-125000D01*
G01*
X124800000Y-65826566D01*
G75*
G02*
X124675000Y-65951566I-125000J0D01*
G01*
X124365000Y-65951566D01*
G75*
G02*
X124240000Y-65826566I0J125000D01*
G01*
G37*
G36*
G01*
X123600000Y-65826566D02*
X123600000Y-65576566D01*
G75*
G02*
X123725000Y-65451566I125000J0D01*
G01*
X124035000Y-65451566D01*
G75*
G02*
X124160000Y-65576566I0J-125000D01*
G01*
X124160000Y-65826566D01*
G75*
G02*
X124035000Y-65951566I-125000J0D01*
G01*
X123725000Y-65951566D01*
G75*
G02*
X123600000Y-65826566I0J125000D01*
G01*
G37*
%TD*%
%TO.C,C16*%
G36*
G01*
X131281250Y-64132500D02*
X130718750Y-64132500D01*
G75*
G02*
X130475000Y-63888750I0J243750D01*
G01*
X130475000Y-63401250D01*
G75*
G02*
X130718750Y-63157500I243750J0D01*
G01*
X131281250Y-63157500D01*
G75*
G02*
X131525000Y-63401250I0J-243750D01*
G01*
X131525000Y-63888750D01*
G75*
G02*
X131281250Y-64132500I-243750J0D01*
G01*
G37*
G36*
G01*
X131281250Y-65707500D02*
X130718750Y-65707500D01*
G75*
G02*
X130475000Y-65463750I0J243750D01*
G01*
X130475000Y-64976250D01*
G75*
G02*
X130718750Y-64732500I243750J0D01*
G01*
X131281250Y-64732500D01*
G75*
G02*
X131525000Y-64976250I0J-243750D01*
G01*
X131525000Y-65463750D01*
G75*
G02*
X131281250Y-65707500I-243750J0D01*
G01*
G37*
%TD*%
%TO.C,C17*%
G36*
G01*
X129925000Y-64860000D02*
X129675000Y-64860000D01*
G75*
G02*
X129550000Y-64735000I0J125000D01*
G01*
X129550000Y-64425000D01*
G75*
G02*
X129675000Y-64300000I125000J0D01*
G01*
X129925000Y-64300000D01*
G75*
G02*
X130050000Y-64425000I0J-125000D01*
G01*
X130050000Y-64735000D01*
G75*
G02*
X129925000Y-64860000I-125000J0D01*
G01*
G37*
G36*
G01*
X129925000Y-65500000D02*
X129675000Y-65500000D01*
G75*
G02*
X129550000Y-65375000I0J125000D01*
G01*
X129550000Y-65065000D01*
G75*
G02*
X129675000Y-64940000I125000J0D01*
G01*
X129925000Y-64940000D01*
G75*
G02*
X130050000Y-65065000I0J-125000D01*
G01*
X130050000Y-65375000D01*
G75*
G02*
X129925000Y-65500000I-125000J0D01*
G01*
G37*
%TD*%
%TO.C,C19*%
G36*
G01*
X129000750Y-81020000D02*
X129563250Y-81020000D01*
G75*
G02*
X129807000Y-81263750I0J-243750D01*
G01*
X129807000Y-81751250D01*
G75*
G02*
X129563250Y-81995000I-243750J0D01*
G01*
X129000750Y-81995000D01*
G75*
G02*
X128757000Y-81751250I0J243750D01*
G01*
X128757000Y-81263750D01*
G75*
G02*
X129000750Y-81020000I243750J0D01*
G01*
G37*
G36*
G01*
X129000750Y-79445000D02*
X129563250Y-79445000D01*
G75*
G02*
X129807000Y-79688750I0J-243750D01*
G01*
X129807000Y-80176250D01*
G75*
G02*
X129563250Y-80420000I-243750J0D01*
G01*
X129000750Y-80420000D01*
G75*
G02*
X128757000Y-80176250I0J243750D01*
G01*
X128757000Y-79688750D01*
G75*
G02*
X129000750Y-79445000I243750J0D01*
G01*
G37*
%TD*%
%TO.C,C21*%
G36*
G01*
X119322500Y-78198750D02*
X119322500Y-78761250D01*
G75*
G02*
X119078750Y-79005000I-243750J0D01*
G01*
X118591250Y-79005000D01*
G75*
G02*
X118347500Y-78761250I0J243750D01*
G01*
X118347500Y-78198750D01*
G75*
G02*
X118591250Y-77955000I243750J0D01*
G01*
X119078750Y-77955000D01*
G75*
G02*
X119322500Y-78198750I0J-243750D01*
G01*
G37*
G36*
G01*
X120897500Y-78198750D02*
X120897500Y-78761250D01*
G75*
G02*
X120653750Y-79005000I-243750J0D01*
G01*
X120166250Y-79005000D01*
G75*
G02*
X119922500Y-78761250I0J243750D01*
G01*
X119922500Y-78198750D01*
G75*
G02*
X120166250Y-77955000I243750J0D01*
G01*
X120653750Y-77955000D01*
G75*
G02*
X120897500Y-78198750I0J-243750D01*
G01*
G37*
%TD*%
%TO.C,C22*%
G36*
G01*
X124100000Y-62781250D02*
X124100000Y-62218750D01*
G75*
G02*
X124343750Y-61975000I243750J0D01*
G01*
X124831250Y-61975000D01*
G75*
G02*
X125075000Y-62218750I0J-243750D01*
G01*
X125075000Y-62781250D01*
G75*
G02*
X124831250Y-63025000I-243750J0D01*
G01*
X124343750Y-63025000D01*
G75*
G02*
X124100000Y-62781250I0J243750D01*
G01*
G37*
G36*
G01*
X122525000Y-62781250D02*
X122525000Y-62218750D01*
G75*
G02*
X122768750Y-61975000I243750J0D01*
G01*
X123256250Y-61975000D01*
G75*
G02*
X123500000Y-62218750I0J-243750D01*
G01*
X123500000Y-62781250D01*
G75*
G02*
X123256250Y-63025000I-243750J0D01*
G01*
X122768750Y-63025000D01*
G75*
G02*
X122525000Y-62781250I0J243750D01*
G01*
G37*
%TD*%
%TO.C,C23*%
G36*
G01*
X124240000Y-59425000D02*
X124240000Y-59175000D01*
G75*
G02*
X124365000Y-59050000I125000J0D01*
G01*
X124675000Y-59050000D01*
G75*
G02*
X124800000Y-59175000I0J-125000D01*
G01*
X124800000Y-59425000D01*
G75*
G02*
X124675000Y-59550000I-125000J0D01*
G01*
X124365000Y-59550000D01*
G75*
G02*
X124240000Y-59425000I0J125000D01*
G01*
G37*
G36*
G01*
X123600000Y-59425000D02*
X123600000Y-59175000D01*
G75*
G02*
X123725000Y-59050000I125000J0D01*
G01*
X124035000Y-59050000D01*
G75*
G02*
X124160000Y-59175000I0J-125000D01*
G01*
X124160000Y-59425000D01*
G75*
G02*
X124035000Y-59550000I-125000J0D01*
G01*
X123725000Y-59550000D01*
G75*
G02*
X123600000Y-59425000I0J125000D01*
G01*
G37*
%TD*%
%TO.C,C26*%
G36*
G01*
X143220000Y-70955000D02*
X143220000Y-70705000D01*
G75*
G02*
X143345000Y-70580000I125000J0D01*
G01*
X143655000Y-70580000D01*
G75*
G02*
X143780000Y-70705000I0J-125000D01*
G01*
X143780000Y-70955000D01*
G75*
G02*
X143655000Y-71080000I-125000J0D01*
G01*
X143345000Y-71080000D01*
G75*
G02*
X143220000Y-70955000I0J125000D01*
G01*
G37*
G36*
G01*
X142580000Y-70955000D02*
X142580000Y-70705000D01*
G75*
G02*
X142705000Y-70580000I125000J0D01*
G01*
X143015000Y-70580000D01*
G75*
G02*
X143140000Y-70705000I0J-125000D01*
G01*
X143140000Y-70955000D01*
G75*
G02*
X143015000Y-71080000I-125000J0D01*
G01*
X142705000Y-71080000D01*
G75*
G02*
X142580000Y-70955000I0J125000D01*
G01*
G37*
%TD*%
%TO.C,C27*%
G36*
G01*
X140750000Y-70705000D02*
X140750000Y-70955000D01*
G75*
G02*
X140625000Y-71080000I-125000J0D01*
G01*
X140315000Y-71080000D01*
G75*
G02*
X140190000Y-70955000I0J125000D01*
G01*
X140190000Y-70705000D01*
G75*
G02*
X140315000Y-70580000I125000J0D01*
G01*
X140625000Y-70580000D01*
G75*
G02*
X140750000Y-70705000I0J-125000D01*
G01*
G37*
G36*
G01*
X141390000Y-70705000D02*
X141390000Y-70955000D01*
G75*
G02*
X141265000Y-71080000I-125000J0D01*
G01*
X140955000Y-71080000D01*
G75*
G02*
X140830000Y-70955000I0J125000D01*
G01*
X140830000Y-70705000D01*
G75*
G02*
X140955000Y-70580000I125000J0D01*
G01*
X141265000Y-70580000D01*
G75*
G02*
X141390000Y-70705000I0J-125000D01*
G01*
G37*
%TD*%
%TO.C,C28*%
G36*
G01*
X140236250Y-68667500D02*
X140798750Y-68667500D01*
G75*
G02*
X141042500Y-68911250I0J-243750D01*
G01*
X141042500Y-69398750D01*
G75*
G02*
X140798750Y-69642500I-243750J0D01*
G01*
X140236250Y-69642500D01*
G75*
G02*
X139992500Y-69398750I0J243750D01*
G01*
X139992500Y-68911250D01*
G75*
G02*
X140236250Y-68667500I243750J0D01*
G01*
G37*
G36*
G01*
X140236250Y-67092500D02*
X140798750Y-67092500D01*
G75*
G02*
X141042500Y-67336250I0J-243750D01*
G01*
X141042500Y-67823750D01*
G75*
G02*
X140798750Y-68067500I-243750J0D01*
G01*
X140236250Y-68067500D01*
G75*
G02*
X139992500Y-67823750I0J243750D01*
G01*
X139992500Y-67336250D01*
G75*
G02*
X140236250Y-67092500I243750J0D01*
G01*
G37*
%TD*%
%TO.C,C29*%
G36*
G01*
X132325000Y-66460000D02*
X132075000Y-66460000D01*
G75*
G02*
X131950000Y-66335000I0J125000D01*
G01*
X131950000Y-66025000D01*
G75*
G02*
X132075000Y-65900000I125000J0D01*
G01*
X132325000Y-65900000D01*
G75*
G02*
X132450000Y-66025000I0J-125000D01*
G01*
X132450000Y-66335000D01*
G75*
G02*
X132325000Y-66460000I-125000J0D01*
G01*
G37*
G36*
G01*
X132325000Y-67100000D02*
X132075000Y-67100000D01*
G75*
G02*
X131950000Y-66975000I0J125000D01*
G01*
X131950000Y-66665000D01*
G75*
G02*
X132075000Y-66540000I125000J0D01*
G01*
X132325000Y-66540000D01*
G75*
G02*
X132450000Y-66665000I0J-125000D01*
G01*
X132450000Y-66975000D01*
G75*
G02*
X132325000Y-67100000I-125000J0D01*
G01*
G37*
%TD*%
%TO.C,C34*%
G36*
G01*
X121119938Y-60863689D02*
X120869938Y-60863689D01*
G75*
G02*
X120744938Y-60738689I0J125000D01*
G01*
X120744938Y-60428689D01*
G75*
G02*
X120869938Y-60303689I125000J0D01*
G01*
X121119938Y-60303689D01*
G75*
G02*
X121244938Y-60428689I0J-125000D01*
G01*
X121244938Y-60738689D01*
G75*
G02*
X121119938Y-60863689I-125000J0D01*
G01*
G37*
G36*
G01*
X121119938Y-61503689D02*
X120869938Y-61503689D01*
G75*
G02*
X120744938Y-61378689I0J125000D01*
G01*
X120744938Y-61068689D01*
G75*
G02*
X120869938Y-60943689I125000J0D01*
G01*
X121119938Y-60943689D01*
G75*
G02*
X121244938Y-61068689I0J-125000D01*
G01*
X121244938Y-61378689D01*
G75*
G02*
X121119938Y-61503689I-125000J0D01*
G01*
G37*
%TD*%
%TO.C,C35*%
G36*
G01*
X120879163Y-64137523D02*
X121129163Y-64137523D01*
G75*
G02*
X121254163Y-64262523I0J-125000D01*
G01*
X121254163Y-64572523D01*
G75*
G02*
X121129163Y-64697523I-125000J0D01*
G01*
X120879163Y-64697523D01*
G75*
G02*
X120754163Y-64572523I0J125000D01*
G01*
X120754163Y-64262523D01*
G75*
G02*
X120879163Y-64137523I125000J0D01*
G01*
G37*
G36*
G01*
X120879163Y-63497523D02*
X121129163Y-63497523D01*
G75*
G02*
X121254163Y-63622523I0J-125000D01*
G01*
X121254163Y-63932523D01*
G75*
G02*
X121129163Y-64057523I-125000J0D01*
G01*
X120879163Y-64057523D01*
G75*
G02*
X120754163Y-63932523I0J125000D01*
G01*
X120754163Y-63622523D01*
G75*
G02*
X120879163Y-63497523I125000J0D01*
G01*
G37*
%TD*%
%TO.C,C36*%
G36*
G01*
X125841561Y-66625000D02*
X125841561Y-66375000D01*
G75*
G02*
X125966561Y-66250000I125000J0D01*
G01*
X126276561Y-66250000D01*
G75*
G02*
X126401561Y-66375000I0J-125000D01*
G01*
X126401561Y-66625000D01*
G75*
G02*
X126276561Y-66750000I-125000J0D01*
G01*
X125966561Y-66750000D01*
G75*
G02*
X125841561Y-66625000I0J125000D01*
G01*
G37*
G36*
G01*
X125201561Y-66625000D02*
X125201561Y-66375000D01*
G75*
G02*
X125326561Y-66250000I125000J0D01*
G01*
X125636561Y-66250000D01*
G75*
G02*
X125761561Y-66375000I0J-125000D01*
G01*
X125761561Y-66625000D01*
G75*
G02*
X125636561Y-66750000I-125000J0D01*
G01*
X125326561Y-66750000D01*
G75*
G02*
X125201561Y-66625000I0J125000D01*
G01*
G37*
%TD*%
%TO.C,C37*%
G36*
G01*
X128325000Y-62360000D02*
X128075000Y-62360000D01*
G75*
G02*
X127950000Y-62235000I0J125000D01*
G01*
X127950000Y-61925000D01*
G75*
G02*
X128075000Y-61800000I125000J0D01*
G01*
X128325000Y-61800000D01*
G75*
G02*
X128450000Y-61925000I0J-125000D01*
G01*
X128450000Y-62235000D01*
G75*
G02*
X128325000Y-62360000I-125000J0D01*
G01*
G37*
G36*
G01*
X128325000Y-63000000D02*
X128075000Y-63000000D01*
G75*
G02*
X127950000Y-62875000I0J125000D01*
G01*
X127950000Y-62565000D01*
G75*
G02*
X128075000Y-62440000I125000J0D01*
G01*
X128325000Y-62440000D01*
G75*
G02*
X128450000Y-62565000I0J-125000D01*
G01*
X128450000Y-62875000D01*
G75*
G02*
X128325000Y-63000000I-125000J0D01*
G01*
G37*
%TD*%
%TO.C,C38*%
G36*
G01*
X129125000Y-59260000D02*
X128875000Y-59260000D01*
G75*
G02*
X128750000Y-59135000I0J125000D01*
G01*
X128750000Y-58825000D01*
G75*
G02*
X128875000Y-58700000I125000J0D01*
G01*
X129125000Y-58700000D01*
G75*
G02*
X129250000Y-58825000I0J-125000D01*
G01*
X129250000Y-59135000D01*
G75*
G02*
X129125000Y-59260000I-125000J0D01*
G01*
G37*
G36*
G01*
X129125000Y-59900000D02*
X128875000Y-59900000D01*
G75*
G02*
X128750000Y-59775000I0J125000D01*
G01*
X128750000Y-59465000D01*
G75*
G02*
X128875000Y-59340000I125000J0D01*
G01*
X129125000Y-59340000D01*
G75*
G02*
X129250000Y-59465000I0J-125000D01*
G01*
X129250000Y-59775000D01*
G75*
G02*
X129125000Y-59900000I-125000J0D01*
G01*
G37*
%TD*%
%TO.C,C39*%
G36*
G01*
X124239965Y-58623446D02*
X124239965Y-58373446D01*
G75*
G02*
X124364965Y-58248446I125000J0D01*
G01*
X124674965Y-58248446D01*
G75*
G02*
X124799965Y-58373446I0J-125000D01*
G01*
X124799965Y-58623446D01*
G75*
G02*
X124674965Y-58748446I-125000J0D01*
G01*
X124364965Y-58748446D01*
G75*
G02*
X124239965Y-58623446I0J125000D01*
G01*
G37*
G36*
G01*
X123599965Y-58623446D02*
X123599965Y-58373446D01*
G75*
G02*
X123724965Y-58248446I125000J0D01*
G01*
X124034965Y-58248446D01*
G75*
G02*
X124159965Y-58373446I0J-125000D01*
G01*
X124159965Y-58623446D01*
G75*
G02*
X124034965Y-58748446I-125000J0D01*
G01*
X123724965Y-58748446D01*
G75*
G02*
X123599965Y-58623446I0J125000D01*
G01*
G37*
%TD*%
%TO.C,C40*%
G36*
G01*
X122640000Y-59425000D02*
X122640000Y-59175000D01*
G75*
G02*
X122765000Y-59050000I125000J0D01*
G01*
X123075000Y-59050000D01*
G75*
G02*
X123200000Y-59175000I0J-125000D01*
G01*
X123200000Y-59425000D01*
G75*
G02*
X123075000Y-59550000I-125000J0D01*
G01*
X122765000Y-59550000D01*
G75*
G02*
X122640000Y-59425000I0J125000D01*
G01*
G37*
G36*
G01*
X122000000Y-59425000D02*
X122000000Y-59175000D01*
G75*
G02*
X122125000Y-59050000I125000J0D01*
G01*
X122435000Y-59050000D01*
G75*
G02*
X122560000Y-59175000I0J-125000D01*
G01*
X122560000Y-59425000D01*
G75*
G02*
X122435000Y-59550000I-125000J0D01*
G01*
X122125000Y-59550000D01*
G75*
G02*
X122000000Y-59425000I0J125000D01*
G01*
G37*
%TD*%
%TO.C,C41*%
G36*
G01*
X121119938Y-59263488D02*
X120869938Y-59263488D01*
G75*
G02*
X120744938Y-59138488I0J125000D01*
G01*
X120744938Y-58828488D01*
G75*
G02*
X120869938Y-58703488I125000J0D01*
G01*
X121119938Y-58703488D01*
G75*
G02*
X121244938Y-58828488I0J-125000D01*
G01*
X121244938Y-59138488D01*
G75*
G02*
X121119938Y-59263488I-125000J0D01*
G01*
G37*
G36*
G01*
X121119938Y-59903488D02*
X120869938Y-59903488D01*
G75*
G02*
X120744938Y-59778488I0J125000D01*
G01*
X120744938Y-59468488D01*
G75*
G02*
X120869938Y-59343488I125000J0D01*
G01*
X121119938Y-59343488D01*
G75*
G02*
X121244938Y-59468488I0J-125000D01*
G01*
X121244938Y-59778488D01*
G75*
G02*
X121119938Y-59903488I-125000J0D01*
G01*
G37*
%TD*%
%TO.C,C42*%
G36*
G01*
X121125000Y-62460000D02*
X120875000Y-62460000D01*
G75*
G02*
X120750000Y-62335000I0J125000D01*
G01*
X120750000Y-62025000D01*
G75*
G02*
X120875000Y-61900000I125000J0D01*
G01*
X121125000Y-61900000D01*
G75*
G02*
X121250000Y-62025000I0J-125000D01*
G01*
X121250000Y-62335000D01*
G75*
G02*
X121125000Y-62460000I-125000J0D01*
G01*
G37*
G36*
G01*
X121125000Y-63100000D02*
X120875000Y-63100000D01*
G75*
G02*
X120750000Y-62975000I0J125000D01*
G01*
X120750000Y-62665000D01*
G75*
G02*
X120875000Y-62540000I125000J0D01*
G01*
X121125000Y-62540000D01*
G75*
G02*
X121250000Y-62665000I0J-125000D01*
G01*
X121250000Y-62975000D01*
G75*
G02*
X121125000Y-63100000I-125000J0D01*
G01*
G37*
%TD*%
%TO.C,C43*%
G36*
G01*
X120873346Y-65741675D02*
X121123346Y-65741675D01*
G75*
G02*
X121248346Y-65866675I0J-125000D01*
G01*
X121248346Y-66176675D01*
G75*
G02*
X121123346Y-66301675I-125000J0D01*
G01*
X120873346Y-66301675D01*
G75*
G02*
X120748346Y-66176675I0J125000D01*
G01*
X120748346Y-65866675D01*
G75*
G02*
X120873346Y-65741675I125000J0D01*
G01*
G37*
G36*
G01*
X120873346Y-65101675D02*
X121123346Y-65101675D01*
G75*
G02*
X121248346Y-65226675I0J-125000D01*
G01*
X121248346Y-65536675D01*
G75*
G02*
X121123346Y-65661675I-125000J0D01*
G01*
X120873346Y-65661675D01*
G75*
G02*
X120748346Y-65536675I0J125000D01*
G01*
X120748346Y-65226675D01*
G75*
G02*
X120873346Y-65101675I125000J0D01*
G01*
G37*
%TD*%
%TO.C,C44*%
G36*
G01*
X122560000Y-65573372D02*
X122560000Y-65823372D01*
G75*
G02*
X122435000Y-65948372I-125000J0D01*
G01*
X122125000Y-65948372D01*
G75*
G02*
X122000000Y-65823372I0J125000D01*
G01*
X122000000Y-65573372D01*
G75*
G02*
X122125000Y-65448372I125000J0D01*
G01*
X122435000Y-65448372D01*
G75*
G02*
X122560000Y-65573372I0J-125000D01*
G01*
G37*
G36*
G01*
X123200000Y-65573372D02*
X123200000Y-65823372D01*
G75*
G02*
X123075000Y-65948372I-125000J0D01*
G01*
X122765000Y-65948372D01*
G75*
G02*
X122640000Y-65823372I0J125000D01*
G01*
X122640000Y-65573372D01*
G75*
G02*
X122765000Y-65448372I125000J0D01*
G01*
X123075000Y-65448372D01*
G75*
G02*
X123200000Y-65573372I0J-125000D01*
G01*
G37*
%TD*%
%TO.C,C45*%
G36*
G01*
X127441579Y-66626600D02*
X127441579Y-66376600D01*
G75*
G02*
X127566579Y-66251600I125000J0D01*
G01*
X127876579Y-66251600D01*
G75*
G02*
X128001579Y-66376600I0J-125000D01*
G01*
X128001579Y-66626600D01*
G75*
G02*
X127876579Y-66751600I-125000J0D01*
G01*
X127566579Y-66751600D01*
G75*
G02*
X127441579Y-66626600I0J125000D01*
G01*
G37*
G36*
G01*
X126801579Y-66626600D02*
X126801579Y-66376600D01*
G75*
G02*
X126926579Y-66251600I125000J0D01*
G01*
X127236579Y-66251600D01*
G75*
G02*
X127361579Y-66376600I0J-125000D01*
G01*
X127361579Y-66626600D01*
G75*
G02*
X127236579Y-66751600I-125000J0D01*
G01*
X126926579Y-66751600D01*
G75*
G02*
X126801579Y-66626600I0J125000D01*
G01*
G37*
%TD*%
%TO.C,C46*%
G36*
G01*
X128075000Y-63940000D02*
X128325000Y-63940000D01*
G75*
G02*
X128450000Y-64065000I0J-125000D01*
G01*
X128450000Y-64375000D01*
G75*
G02*
X128325000Y-64500000I-125000J0D01*
G01*
X128075000Y-64500000D01*
G75*
G02*
X127950000Y-64375000I0J125000D01*
G01*
X127950000Y-64065000D01*
G75*
G02*
X128075000Y-63940000I125000J0D01*
G01*
G37*
G36*
G01*
X128075000Y-63300000D02*
X128325000Y-63300000D01*
G75*
G02*
X128450000Y-63425000I0J-125000D01*
G01*
X128450000Y-63735000D01*
G75*
G02*
X128325000Y-63860000I-125000J0D01*
G01*
X128075000Y-63860000D01*
G75*
G02*
X127950000Y-63735000I0J125000D01*
G01*
X127950000Y-63425000D01*
G75*
G02*
X128075000Y-63300000I125000J0D01*
G01*
G37*
%TD*%
%TO.C,C47*%
G36*
G01*
X127125000Y-65261599D02*
X126875000Y-65261599D01*
G75*
G02*
X126750000Y-65136599I0J125000D01*
G01*
X126750000Y-64826599D01*
G75*
G02*
X126875000Y-64701599I125000J0D01*
G01*
X127125000Y-64701599D01*
G75*
G02*
X127250000Y-64826599I0J-125000D01*
G01*
X127250000Y-65136599D01*
G75*
G02*
X127125000Y-65261599I-125000J0D01*
G01*
G37*
G36*
G01*
X127125000Y-65901599D02*
X126875000Y-65901599D01*
G75*
G02*
X126750000Y-65776599I0J125000D01*
G01*
X126750000Y-65466599D01*
G75*
G02*
X126875000Y-65341599I125000J0D01*
G01*
X127125000Y-65341599D01*
G75*
G02*
X127250000Y-65466599I0J-125000D01*
G01*
X127250000Y-65776599D01*
G75*
G02*
X127125000Y-65901599I-125000J0D01*
G01*
G37*
%TD*%
%TO.C,C48*%
G36*
G01*
X127360000Y-59175000D02*
X127360000Y-59425000D01*
G75*
G02*
X127235000Y-59550000I-125000J0D01*
G01*
X126925000Y-59550000D01*
G75*
G02*
X126800000Y-59425000I0J125000D01*
G01*
X126800000Y-59175000D01*
G75*
G02*
X126925000Y-59050000I125000J0D01*
G01*
X127235000Y-59050000D01*
G75*
G02*
X127360000Y-59175000I0J-125000D01*
G01*
G37*
G36*
G01*
X128000000Y-59175000D02*
X128000000Y-59425000D01*
G75*
G02*
X127875000Y-59550000I-125000J0D01*
G01*
X127565000Y-59550000D01*
G75*
G02*
X127440000Y-59425000I0J125000D01*
G01*
X127440000Y-59175000D01*
G75*
G02*
X127565000Y-59050000I125000J0D01*
G01*
X127875000Y-59050000D01*
G75*
G02*
X128000000Y-59175000I0J-125000D01*
G01*
G37*
%TD*%
%TO.C,C49*%
G36*
G01*
X125760000Y-59175000D02*
X125760000Y-59425000D01*
G75*
G02*
X125635000Y-59550000I-125000J0D01*
G01*
X125325000Y-59550000D01*
G75*
G02*
X125200000Y-59425000I0J125000D01*
G01*
X125200000Y-59175000D01*
G75*
G02*
X125325000Y-59050000I125000J0D01*
G01*
X125635000Y-59050000D01*
G75*
G02*
X125760000Y-59175000I0J-125000D01*
G01*
G37*
G36*
G01*
X126400000Y-59175000D02*
X126400000Y-59425000D01*
G75*
G02*
X126275000Y-59550000I-125000J0D01*
G01*
X125965000Y-59550000D01*
G75*
G02*
X125840000Y-59425000I0J125000D01*
G01*
X125840000Y-59175000D01*
G75*
G02*
X125965000Y-59050000I125000J0D01*
G01*
X126275000Y-59050000D01*
G75*
G02*
X126400000Y-59175000I0J-125000D01*
G01*
G37*
%TD*%
%TO.C,C50*%
G36*
G01*
X117525000Y-62860000D02*
X117275000Y-62860000D01*
G75*
G02*
X117150000Y-62735000I0J125000D01*
G01*
X117150000Y-62425000D01*
G75*
G02*
X117275000Y-62300000I125000J0D01*
G01*
X117525000Y-62300000D01*
G75*
G02*
X117650000Y-62425000I0J-125000D01*
G01*
X117650000Y-62735000D01*
G75*
G02*
X117525000Y-62860000I-125000J0D01*
G01*
G37*
G36*
G01*
X117525000Y-63500000D02*
X117275000Y-63500000D01*
G75*
G02*
X117150000Y-63375000I0J125000D01*
G01*
X117150000Y-63065000D01*
G75*
G02*
X117275000Y-62940000I125000J0D01*
G01*
X117525000Y-62940000D01*
G75*
G02*
X117650000Y-63065000I0J-125000D01*
G01*
X117650000Y-63375000D01*
G75*
G02*
X117525000Y-63500000I-125000J0D01*
G01*
G37*
%TD*%
%TO.C,C51*%
G36*
G01*
X120875000Y-57741667D02*
X121125000Y-57741667D01*
G75*
G02*
X121250000Y-57866667I0J-125000D01*
G01*
X121250000Y-58176667D01*
G75*
G02*
X121125000Y-58301667I-125000J0D01*
G01*
X120875000Y-58301667D01*
G75*
G02*
X120750000Y-58176667I0J125000D01*
G01*
X120750000Y-57866667D01*
G75*
G02*
X120875000Y-57741667I125000J0D01*
G01*
G37*
G36*
G01*
X120875000Y-57101667D02*
X121125000Y-57101667D01*
G75*
G02*
X121250000Y-57226667I0J-125000D01*
G01*
X121250000Y-57536667D01*
G75*
G02*
X121125000Y-57661667I-125000J0D01*
G01*
X120875000Y-57661667D01*
G75*
G02*
X120750000Y-57536667I0J125000D01*
G01*
X120750000Y-57226667D01*
G75*
G02*
X120875000Y-57101667I125000J0D01*
G01*
G37*
%TD*%
%TO.C,C52*%
G36*
G01*
X116570000Y-56375000D02*
X116570000Y-56625000D01*
G75*
G02*
X116445000Y-56750000I-125000J0D01*
G01*
X116135000Y-56750000D01*
G75*
G02*
X116010000Y-56625000I0J125000D01*
G01*
X116010000Y-56375000D01*
G75*
G02*
X116135000Y-56250000I125000J0D01*
G01*
X116445000Y-56250000D01*
G75*
G02*
X116570000Y-56375000I0J-125000D01*
G01*
G37*
G36*
G01*
X117210000Y-56375000D02*
X117210000Y-56625000D01*
G75*
G02*
X117085000Y-56750000I-125000J0D01*
G01*
X116775000Y-56750000D01*
G75*
G02*
X116650000Y-56625000I0J125000D01*
G01*
X116650000Y-56375000D01*
G75*
G02*
X116775000Y-56250000I125000J0D01*
G01*
X117085000Y-56250000D01*
G75*
G02*
X117210000Y-56375000I0J-125000D01*
G01*
G37*
%TD*%
%TO.C,C53*%
G36*
G01*
X117761596Y-69575000D02*
X117761596Y-69825000D01*
G75*
G02*
X117636596Y-69950000I-125000J0D01*
G01*
X117326596Y-69950000D01*
G75*
G02*
X117201596Y-69825000I0J125000D01*
G01*
X117201596Y-69575000D01*
G75*
G02*
X117326596Y-69450000I125000J0D01*
G01*
X117636596Y-69450000D01*
G75*
G02*
X117761596Y-69575000I0J-125000D01*
G01*
G37*
G36*
G01*
X118401596Y-69575000D02*
X118401596Y-69825000D01*
G75*
G02*
X118276596Y-69950000I-125000J0D01*
G01*
X117966596Y-69950000D01*
G75*
G02*
X117841596Y-69825000I0J125000D01*
G01*
X117841596Y-69575000D01*
G75*
G02*
X117966596Y-69450000I125000J0D01*
G01*
X118276596Y-69450000D01*
G75*
G02*
X118401596Y-69575000I0J-125000D01*
G01*
G37*
%TD*%
%TO.C,C54*%
G36*
G01*
X126640000Y-69820986D02*
X126640000Y-69570986D01*
G75*
G02*
X126765000Y-69445986I125000J0D01*
G01*
X127075000Y-69445986D01*
G75*
G02*
X127200000Y-69570986I0J-125000D01*
G01*
X127200000Y-69820986D01*
G75*
G02*
X127075000Y-69945986I-125000J0D01*
G01*
X126765000Y-69945986D01*
G75*
G02*
X126640000Y-69820986I0J125000D01*
G01*
G37*
G36*
G01*
X126000000Y-69820986D02*
X126000000Y-69570986D01*
G75*
G02*
X126125000Y-69445986I125000J0D01*
G01*
X126435000Y-69445986D01*
G75*
G02*
X126560000Y-69570986I0J-125000D01*
G01*
X126560000Y-69820986D01*
G75*
G02*
X126435000Y-69945986I-125000J0D01*
G01*
X126125000Y-69945986D01*
G75*
G02*
X126000000Y-69820986I0J125000D01*
G01*
G37*
%TD*%
%TO.C,C55*%
G36*
G01*
X132075000Y-64940000D02*
X132325000Y-64940000D01*
G75*
G02*
X132450000Y-65065000I0J-125000D01*
G01*
X132450000Y-65375000D01*
G75*
G02*
X132325000Y-65500000I-125000J0D01*
G01*
X132075000Y-65500000D01*
G75*
G02*
X131950000Y-65375000I0J125000D01*
G01*
X131950000Y-65065000D01*
G75*
G02*
X132075000Y-64940000I125000J0D01*
G01*
G37*
G36*
G01*
X132075000Y-64300000D02*
X132325000Y-64300000D01*
G75*
G02*
X132450000Y-64425000I0J-125000D01*
G01*
X132450000Y-64735000D01*
G75*
G02*
X132325000Y-64860000I-125000J0D01*
G01*
X132075000Y-64860000D01*
G75*
G02*
X131950000Y-64735000I0J125000D01*
G01*
X131950000Y-64425000D01*
G75*
G02*
X132075000Y-64300000I125000J0D01*
G01*
G37*
%TD*%
%TO.C,C56*%
G36*
G01*
X132240000Y-55425000D02*
X132240000Y-55175000D01*
G75*
G02*
X132365000Y-55050000I125000J0D01*
G01*
X132675000Y-55050000D01*
G75*
G02*
X132800000Y-55175000I0J-125000D01*
G01*
X132800000Y-55425000D01*
G75*
G02*
X132675000Y-55550000I-125000J0D01*
G01*
X132365000Y-55550000D01*
G75*
G02*
X132240000Y-55425000I0J125000D01*
G01*
G37*
G36*
G01*
X131600000Y-55425000D02*
X131600000Y-55175000D01*
G75*
G02*
X131725000Y-55050000I125000J0D01*
G01*
X132035000Y-55050000D01*
G75*
G02*
X132160000Y-55175000I0J-125000D01*
G01*
X132160000Y-55425000D01*
G75*
G02*
X132035000Y-55550000I-125000J0D01*
G01*
X131725000Y-55550000D01*
G75*
G02*
X131600000Y-55425000I0J125000D01*
G01*
G37*
%TD*%
%TO.C,C57*%
G36*
G01*
X111375000Y-98940000D02*
X111625000Y-98940000D01*
G75*
G02*
X111750000Y-99065000I0J-125000D01*
G01*
X111750000Y-99375000D01*
G75*
G02*
X111625000Y-99500000I-125000J0D01*
G01*
X111375000Y-99500000D01*
G75*
G02*
X111250000Y-99375000I0J125000D01*
G01*
X111250000Y-99065000D01*
G75*
G02*
X111375000Y-98940000I125000J0D01*
G01*
G37*
G36*
G01*
X111375000Y-98300000D02*
X111625000Y-98300000D01*
G75*
G02*
X111750000Y-98425000I0J-125000D01*
G01*
X111750000Y-98735000D01*
G75*
G02*
X111625000Y-98860000I-125000J0D01*
G01*
X111375000Y-98860000D01*
G75*
G02*
X111250000Y-98735000I0J125000D01*
G01*
X111250000Y-98425000D01*
G75*
G02*
X111375000Y-98300000I125000J0D01*
G01*
G37*
%TD*%
%TO.C,C58*%
G36*
G01*
X110125000Y-98940000D02*
X110375000Y-98940000D01*
G75*
G02*
X110500000Y-99065000I0J-125000D01*
G01*
X110500000Y-99375000D01*
G75*
G02*
X110375000Y-99500000I-125000J0D01*
G01*
X110125000Y-99500000D01*
G75*
G02*
X110000000Y-99375000I0J125000D01*
G01*
X110000000Y-99065000D01*
G75*
G02*
X110125000Y-98940000I125000J0D01*
G01*
G37*
G36*
G01*
X110125000Y-98300000D02*
X110375000Y-98300000D01*
G75*
G02*
X110500000Y-98425000I0J-125000D01*
G01*
X110500000Y-98735000D01*
G75*
G02*
X110375000Y-98860000I-125000J0D01*
G01*
X110125000Y-98860000D01*
G75*
G02*
X110000000Y-98735000I0J125000D01*
G01*
X110000000Y-98425000D01*
G75*
G02*
X110125000Y-98300000I125000J0D01*
G01*
G37*
%TD*%
%TO.C,C59*%
G36*
G01*
X108875000Y-98940000D02*
X109125000Y-98940000D01*
G75*
G02*
X109250000Y-99065000I0J-125000D01*
G01*
X109250000Y-99375000D01*
G75*
G02*
X109125000Y-99500000I-125000J0D01*
G01*
X108875000Y-99500000D01*
G75*
G02*
X108750000Y-99375000I0J125000D01*
G01*
X108750000Y-99065000D01*
G75*
G02*
X108875000Y-98940000I125000J0D01*
G01*
G37*
G36*
G01*
X108875000Y-98300000D02*
X109125000Y-98300000D01*
G75*
G02*
X109250000Y-98425000I0J-125000D01*
G01*
X109250000Y-98735000D01*
G75*
G02*
X109125000Y-98860000I-125000J0D01*
G01*
X108875000Y-98860000D01*
G75*
G02*
X108750000Y-98735000I0J125000D01*
G01*
X108750000Y-98425000D01*
G75*
G02*
X108875000Y-98300000I125000J0D01*
G01*
G37*
%TD*%
%TO.C,C60*%
G36*
G01*
X107390000Y-98425000D02*
X107390000Y-98675000D01*
G75*
G02*
X107265000Y-98800000I-125000J0D01*
G01*
X106955000Y-98800000D01*
G75*
G02*
X106830000Y-98675000I0J125000D01*
G01*
X106830000Y-98425000D01*
G75*
G02*
X106955000Y-98300000I125000J0D01*
G01*
X107265000Y-98300000D01*
G75*
G02*
X107390000Y-98425000I0J-125000D01*
G01*
G37*
G36*
G01*
X108030000Y-98425000D02*
X108030000Y-98675000D01*
G75*
G02*
X107905000Y-98800000I-125000J0D01*
G01*
X107595000Y-98800000D01*
G75*
G02*
X107470000Y-98675000I0J125000D01*
G01*
X107470000Y-98425000D01*
G75*
G02*
X107595000Y-98300000I125000J0D01*
G01*
X107905000Y-98300000D01*
G75*
G02*
X108030000Y-98425000I0J-125000D01*
G01*
G37*
%TD*%
%TO.C,C63*%
G36*
G01*
X143375000Y-98940000D02*
X143625000Y-98940000D01*
G75*
G02*
X143750000Y-99065000I0J-125000D01*
G01*
X143750000Y-99375000D01*
G75*
G02*
X143625000Y-99500000I-125000J0D01*
G01*
X143375000Y-99500000D01*
G75*
G02*
X143250000Y-99375000I0J125000D01*
G01*
X143250000Y-99065000D01*
G75*
G02*
X143375000Y-98940000I125000J0D01*
G01*
G37*
G36*
G01*
X143375000Y-98300000D02*
X143625000Y-98300000D01*
G75*
G02*
X143750000Y-98425000I0J-125000D01*
G01*
X143750000Y-98735000D01*
G75*
G02*
X143625000Y-98860000I-125000J0D01*
G01*
X143375000Y-98860000D01*
G75*
G02*
X143250000Y-98735000I0J125000D01*
G01*
X143250000Y-98425000D01*
G75*
G02*
X143375000Y-98300000I125000J0D01*
G01*
G37*
%TD*%
%TO.C,C64*%
G36*
G01*
X142125000Y-98940000D02*
X142375000Y-98940000D01*
G75*
G02*
X142500000Y-99065000I0J-125000D01*
G01*
X142500000Y-99375000D01*
G75*
G02*
X142375000Y-99500000I-125000J0D01*
G01*
X142125000Y-99500000D01*
G75*
G02*
X142000000Y-99375000I0J125000D01*
G01*
X142000000Y-99065000D01*
G75*
G02*
X142125000Y-98940000I125000J0D01*
G01*
G37*
G36*
G01*
X142125000Y-98300000D02*
X142375000Y-98300000D01*
G75*
G02*
X142500000Y-98425000I0J-125000D01*
G01*
X142500000Y-98735000D01*
G75*
G02*
X142375000Y-98860000I-125000J0D01*
G01*
X142125000Y-98860000D01*
G75*
G02*
X142000000Y-98735000I0J125000D01*
G01*
X142000000Y-98425000D01*
G75*
G02*
X142125000Y-98300000I125000J0D01*
G01*
G37*
%TD*%
%TO.C,C65*%
G36*
G01*
X140875000Y-98940000D02*
X141125000Y-98940000D01*
G75*
G02*
X141250000Y-99065000I0J-125000D01*
G01*
X141250000Y-99375000D01*
G75*
G02*
X141125000Y-99500000I-125000J0D01*
G01*
X140875000Y-99500000D01*
G75*
G02*
X140750000Y-99375000I0J125000D01*
G01*
X140750000Y-99065000D01*
G75*
G02*
X140875000Y-98940000I125000J0D01*
G01*
G37*
G36*
G01*
X140875000Y-98300000D02*
X141125000Y-98300000D01*
G75*
G02*
X141250000Y-98425000I0J-125000D01*
G01*
X141250000Y-98735000D01*
G75*
G02*
X141125000Y-98860000I-125000J0D01*
G01*
X140875000Y-98860000D01*
G75*
G02*
X140750000Y-98735000I0J125000D01*
G01*
X140750000Y-98425000D01*
G75*
G02*
X140875000Y-98300000I125000J0D01*
G01*
G37*
%TD*%
%TO.C,C66*%
G36*
G01*
X139390000Y-98425000D02*
X139390000Y-98675000D01*
G75*
G02*
X139265000Y-98800000I-125000J0D01*
G01*
X138955000Y-98800000D01*
G75*
G02*
X138830000Y-98675000I0J125000D01*
G01*
X138830000Y-98425000D01*
G75*
G02*
X138955000Y-98300000I125000J0D01*
G01*
X139265000Y-98300000D01*
G75*
G02*
X139390000Y-98425000I0J-125000D01*
G01*
G37*
G36*
G01*
X140030000Y-98425000D02*
X140030000Y-98675000D01*
G75*
G02*
X139905000Y-98800000I-125000J0D01*
G01*
X139595000Y-98800000D01*
G75*
G02*
X139470000Y-98675000I0J125000D01*
G01*
X139470000Y-98425000D01*
G75*
G02*
X139595000Y-98300000I125000J0D01*
G01*
X139905000Y-98300000D01*
G75*
G02*
X140030000Y-98425000I0J-125000D01*
G01*
G37*
%TD*%
%TO.C,C72*%
G36*
G01*
X124159965Y-57375000D02*
X124159965Y-57625000D01*
G75*
G02*
X124034965Y-57750000I-125000J0D01*
G01*
X123724965Y-57750000D01*
G75*
G02*
X123599965Y-57625000I0J125000D01*
G01*
X123599965Y-57375000D01*
G75*
G02*
X123724965Y-57250000I125000J0D01*
G01*
X124034965Y-57250000D01*
G75*
G02*
X124159965Y-57375000I0J-125000D01*
G01*
G37*
G36*
G01*
X124799965Y-57375000D02*
X124799965Y-57625000D01*
G75*
G02*
X124674965Y-57750000I-125000J0D01*
G01*
X124364965Y-57750000D01*
G75*
G02*
X124239965Y-57625000I0J125000D01*
G01*
X124239965Y-57375000D01*
G75*
G02*
X124364965Y-57250000I125000J0D01*
G01*
X124674965Y-57250000D01*
G75*
G02*
X124799965Y-57375000I0J-125000D01*
G01*
G37*
%TD*%
%TO.C,C73*%
G36*
G01*
X133965000Y-56190000D02*
X133715000Y-56190000D01*
G75*
G02*
X133590000Y-56065000I0J125000D01*
G01*
X133590000Y-55755000D01*
G75*
G02*
X133715000Y-55630000I125000J0D01*
G01*
X133965000Y-55630000D01*
G75*
G02*
X134090000Y-55755000I0J-125000D01*
G01*
X134090000Y-56065000D01*
G75*
G02*
X133965000Y-56190000I-125000J0D01*
G01*
G37*
G36*
G01*
X133965000Y-56830000D02*
X133715000Y-56830000D01*
G75*
G02*
X133590000Y-56705000I0J125000D01*
G01*
X133590000Y-56395000D01*
G75*
G02*
X133715000Y-56270000I125000J0D01*
G01*
X133965000Y-56270000D01*
G75*
G02*
X134090000Y-56395000I0J-125000D01*
G01*
X134090000Y-56705000D01*
G75*
G02*
X133965000Y-56830000I-125000J0D01*
G01*
G37*
%TD*%
%TO.C,C74*%
G36*
G01*
X111877500Y-74905000D02*
X112272500Y-74905000D01*
G75*
G02*
X112445000Y-75077500I0J-172500D01*
G01*
X112445000Y-75422500D01*
G75*
G02*
X112272500Y-75595000I-172500J0D01*
G01*
X111877500Y-75595000D01*
G75*
G02*
X111705000Y-75422500I0J172500D01*
G01*
X111705000Y-75077500D01*
G75*
G02*
X111877500Y-74905000I172500J0D01*
G01*
G37*
G36*
G01*
X111877500Y-73935000D02*
X112272500Y-73935000D01*
G75*
G02*
X112445000Y-74107500I0J-172500D01*
G01*
X112445000Y-74452500D01*
G75*
G02*
X112272500Y-74625000I-172500J0D01*
G01*
X111877500Y-74625000D01*
G75*
G02*
X111705000Y-74452500I0J172500D01*
G01*
X111705000Y-74107500D01*
G75*
G02*
X111877500Y-73935000I172500J0D01*
G01*
G37*
%TD*%
%TO.C,C75*%
G36*
G01*
X115800000Y-76415000D02*
X115800000Y-74205000D01*
G75*
G02*
X116070000Y-73935000I270000J0D01*
G01*
X116880000Y-73935000D01*
G75*
G02*
X117150000Y-74205000I0J-270000D01*
G01*
X117150000Y-76415000D01*
G75*
G02*
X116880000Y-76685000I-270000J0D01*
G01*
X116070000Y-76685000D01*
G75*
G02*
X115800000Y-76415000I0J270000D01*
G01*
G37*
G36*
G01*
X113000000Y-76415000D02*
X113000000Y-74205000D01*
G75*
G02*
X113270000Y-73935000I270000J0D01*
G01*
X114080000Y-73935000D01*
G75*
G02*
X114350000Y-74205000I0J-270000D01*
G01*
X114350000Y-76415000D01*
G75*
G02*
X114080000Y-76685000I-270000J0D01*
G01*
X113270000Y-76685000D01*
G75*
G02*
X113000000Y-76415000I0J270000D01*
G01*
G37*
%TD*%
%TO.C,C77*%
G36*
G01*
X109745000Y-70177500D02*
X109745000Y-70572500D01*
G75*
G02*
X109572500Y-70745000I-172500J0D01*
G01*
X109227500Y-70745000D01*
G75*
G02*
X109055000Y-70572500I0J172500D01*
G01*
X109055000Y-70177500D01*
G75*
G02*
X109227500Y-70005000I172500J0D01*
G01*
X109572500Y-70005000D01*
G75*
G02*
X109745000Y-70177500I0J-172500D01*
G01*
G37*
G36*
G01*
X110715000Y-70177500D02*
X110715000Y-70572500D01*
G75*
G02*
X110542500Y-70745000I-172500J0D01*
G01*
X110197500Y-70745000D01*
G75*
G02*
X110025000Y-70572500I0J172500D01*
G01*
X110025000Y-70177500D01*
G75*
G02*
X110197500Y-70005000I172500J0D01*
G01*
X110542500Y-70005000D01*
G75*
G02*
X110715000Y-70177500I0J-172500D01*
G01*
G37*
%TD*%
%TO.C,C78*%
G36*
G01*
X108375000Y-70105000D02*
X108125000Y-70105000D01*
G75*
G02*
X108000000Y-69980000I0J125000D01*
G01*
X108000000Y-69670000D01*
G75*
G02*
X108125000Y-69545000I125000J0D01*
G01*
X108375000Y-69545000D01*
G75*
G02*
X108500000Y-69670000I0J-125000D01*
G01*
X108500000Y-69980000D01*
G75*
G02*
X108375000Y-70105000I-125000J0D01*
G01*
G37*
G36*
G01*
X108375000Y-70745000D02*
X108125000Y-70745000D01*
G75*
G02*
X108000000Y-70620000I0J125000D01*
G01*
X108000000Y-70310000D01*
G75*
G02*
X108125000Y-70185000I125000J0D01*
G01*
X108375000Y-70185000D01*
G75*
G02*
X108500000Y-70310000I0J-125000D01*
G01*
X108500000Y-70620000D01*
G75*
G02*
X108375000Y-70745000I-125000J0D01*
G01*
G37*
%TD*%
%TO.C,C79*%
G36*
G01*
X111856250Y-71800000D02*
X111293750Y-71800000D01*
G75*
G02*
X111050000Y-71556250I0J243750D01*
G01*
X111050000Y-71068750D01*
G75*
G02*
X111293750Y-70825000I243750J0D01*
G01*
X111856250Y-70825000D01*
G75*
G02*
X112100000Y-71068750I0J-243750D01*
G01*
X112100000Y-71556250D01*
G75*
G02*
X111856250Y-71800000I-243750J0D01*
G01*
G37*
G36*
G01*
X111856250Y-73375000D02*
X111293750Y-73375000D01*
G75*
G02*
X111050000Y-73131250I0J243750D01*
G01*
X111050000Y-72643750D01*
G75*
G02*
X111293750Y-72400000I243750J0D01*
G01*
X111856250Y-72400000D01*
G75*
G02*
X112100000Y-72643750I0J-243750D01*
G01*
X112100000Y-73131250D01*
G75*
G02*
X111856250Y-73375000I-243750J0D01*
G01*
G37*
%TD*%
%TO.C,C81*%
G36*
G01*
X103955000Y-82705000D02*
X103955000Y-82455000D01*
G75*
G02*
X104080000Y-82330000I125000J0D01*
G01*
X104390000Y-82330000D01*
G75*
G02*
X104515000Y-82455000I0J-125000D01*
G01*
X104515000Y-82705000D01*
G75*
G02*
X104390000Y-82830000I-125000J0D01*
G01*
X104080000Y-82830000D01*
G75*
G02*
X103955000Y-82705000I0J125000D01*
G01*
G37*
G36*
G01*
X103315000Y-82705000D02*
X103315000Y-82455000D01*
G75*
G02*
X103440000Y-82330000I125000J0D01*
G01*
X103750000Y-82330000D01*
G75*
G02*
X103875000Y-82455000I0J-125000D01*
G01*
X103875000Y-82705000D01*
G75*
G02*
X103750000Y-82830000I-125000J0D01*
G01*
X103440000Y-82830000D01*
G75*
G02*
X103315000Y-82705000I0J125000D01*
G01*
G37*
%TD*%
%TO.C,C83*%
G36*
G01*
X101395000Y-78930000D02*
X101145000Y-78930000D01*
G75*
G02*
X101020000Y-78805000I0J125000D01*
G01*
X101020000Y-78495000D01*
G75*
G02*
X101145000Y-78370000I125000J0D01*
G01*
X101395000Y-78370000D01*
G75*
G02*
X101520000Y-78495000I0J-125000D01*
G01*
X101520000Y-78805000D01*
G75*
G02*
X101395000Y-78930000I-125000J0D01*
G01*
G37*
G36*
G01*
X101395000Y-79570000D02*
X101145000Y-79570000D01*
G75*
G02*
X101020000Y-79445000I0J125000D01*
G01*
X101020000Y-79135000D01*
G75*
G02*
X101145000Y-79010000I125000J0D01*
G01*
X101395000Y-79010000D01*
G75*
G02*
X101520000Y-79135000I0J-125000D01*
G01*
X101520000Y-79445000D01*
G75*
G02*
X101395000Y-79570000I-125000J0D01*
G01*
G37*
%TD*%
%TO.C,C84*%
G36*
G01*
X101395000Y-77330000D02*
X101145000Y-77330000D01*
G75*
G02*
X101020000Y-77205000I0J125000D01*
G01*
X101020000Y-76895000D01*
G75*
G02*
X101145000Y-76770000I125000J0D01*
G01*
X101395000Y-76770000D01*
G75*
G02*
X101520000Y-76895000I0J-125000D01*
G01*
X101520000Y-77205000D01*
G75*
G02*
X101395000Y-77330000I-125000J0D01*
G01*
G37*
G36*
G01*
X101395000Y-77970000D02*
X101145000Y-77970000D01*
G75*
G02*
X101020000Y-77845000I0J125000D01*
G01*
X101020000Y-77535000D01*
G75*
G02*
X101145000Y-77410000I125000J0D01*
G01*
X101395000Y-77410000D01*
G75*
G02*
X101520000Y-77535000I0J-125000D01*
G01*
X101520000Y-77845000D01*
G75*
G02*
X101395000Y-77970000I-125000J0D01*
G01*
G37*
%TD*%
%TO.C,C85*%
G36*
G01*
X101145000Y-75810000D02*
X101395000Y-75810000D01*
G75*
G02*
X101520000Y-75935000I0J-125000D01*
G01*
X101520000Y-76245000D01*
G75*
G02*
X101395000Y-76370000I-125000J0D01*
G01*
X101145000Y-76370000D01*
G75*
G02*
X101020000Y-76245000I0J125000D01*
G01*
X101020000Y-75935000D01*
G75*
G02*
X101145000Y-75810000I125000J0D01*
G01*
G37*
G36*
G01*
X101145000Y-75170000D02*
X101395000Y-75170000D01*
G75*
G02*
X101520000Y-75295000I0J-125000D01*
G01*
X101520000Y-75605000D01*
G75*
G02*
X101395000Y-75730000I-125000J0D01*
G01*
X101145000Y-75730000D01*
G75*
G02*
X101020000Y-75605000I0J125000D01*
G01*
X101020000Y-75295000D01*
G75*
G02*
X101145000Y-75170000I125000J0D01*
G01*
G37*
%TD*%
%TO.C,C86*%
G36*
G01*
X117340000Y-82625000D02*
X117340000Y-82375000D01*
G75*
G02*
X117465000Y-82250000I125000J0D01*
G01*
X117775000Y-82250000D01*
G75*
G02*
X117900000Y-82375000I0J-125000D01*
G01*
X117900000Y-82625000D01*
G75*
G02*
X117775000Y-82750000I-125000J0D01*
G01*
X117465000Y-82750000D01*
G75*
G02*
X117340000Y-82625000I0J125000D01*
G01*
G37*
G36*
G01*
X116700000Y-82625000D02*
X116700000Y-82375000D01*
G75*
G02*
X116825000Y-82250000I125000J0D01*
G01*
X117135000Y-82250000D01*
G75*
G02*
X117260000Y-82375000I0J-125000D01*
G01*
X117260000Y-82625000D01*
G75*
G02*
X117135000Y-82750000I-125000J0D01*
G01*
X116825000Y-82750000D01*
G75*
G02*
X116700000Y-82625000I0J125000D01*
G01*
G37*
%TD*%
%TO.C,C89*%
G36*
G01*
X103955000Y-89705000D02*
X103955000Y-89455000D01*
G75*
G02*
X104080000Y-89330000I125000J0D01*
G01*
X104390000Y-89330000D01*
G75*
G02*
X104515000Y-89455000I0J-125000D01*
G01*
X104515000Y-89705000D01*
G75*
G02*
X104390000Y-89830000I-125000J0D01*
G01*
X104080000Y-89830000D01*
G75*
G02*
X103955000Y-89705000I0J125000D01*
G01*
G37*
G36*
G01*
X103315000Y-89705000D02*
X103315000Y-89455000D01*
G75*
G02*
X103440000Y-89330000I125000J0D01*
G01*
X103750000Y-89330000D01*
G75*
G02*
X103875000Y-89455000I0J-125000D01*
G01*
X103875000Y-89705000D01*
G75*
G02*
X103750000Y-89830000I-125000J0D01*
G01*
X103440000Y-89830000D01*
G75*
G02*
X103315000Y-89705000I0J125000D01*
G01*
G37*
%TD*%
%TO.C,C97*%
G36*
G01*
X146045000Y-91300000D02*
X146045000Y-91550000D01*
G75*
G02*
X145920000Y-91675000I-125000J0D01*
G01*
X145610000Y-91675000D01*
G75*
G02*
X145485000Y-91550000I0J125000D01*
G01*
X145485000Y-91300000D01*
G75*
G02*
X145610000Y-91175000I125000J0D01*
G01*
X145920000Y-91175000D01*
G75*
G02*
X146045000Y-91300000I0J-125000D01*
G01*
G37*
G36*
G01*
X146685000Y-91300000D02*
X146685000Y-91550000D01*
G75*
G02*
X146560000Y-91675000I-125000J0D01*
G01*
X146250000Y-91675000D01*
G75*
G02*
X146125000Y-91550000I0J125000D01*
G01*
X146125000Y-91300000D01*
G75*
G02*
X146250000Y-91175000I125000J0D01*
G01*
X146560000Y-91175000D01*
G75*
G02*
X146685000Y-91300000I0J-125000D01*
G01*
G37*
%TD*%
%TO.C,C102*%
G36*
G01*
X132660000Y-82375000D02*
X132660000Y-82625000D01*
G75*
G02*
X132535000Y-82750000I-125000J0D01*
G01*
X132225000Y-82750000D01*
G75*
G02*
X132100000Y-82625000I0J125000D01*
G01*
X132100000Y-82375000D01*
G75*
G02*
X132225000Y-82250000I125000J0D01*
G01*
X132535000Y-82250000D01*
G75*
G02*
X132660000Y-82375000I0J-125000D01*
G01*
G37*
G36*
G01*
X133300000Y-82375000D02*
X133300000Y-82625000D01*
G75*
G02*
X133175000Y-82750000I-125000J0D01*
G01*
X132865000Y-82750000D01*
G75*
G02*
X132740000Y-82625000I0J125000D01*
G01*
X132740000Y-82375000D01*
G75*
G02*
X132865000Y-82250000I125000J0D01*
G01*
X133175000Y-82250000D01*
G75*
G02*
X133300000Y-82375000I0J-125000D01*
G01*
G37*
%TD*%
%TO.C,C104*%
G36*
G01*
X146045000Y-87800000D02*
X146045000Y-88050000D01*
G75*
G02*
X145920000Y-88175000I-125000J0D01*
G01*
X145610000Y-88175000D01*
G75*
G02*
X145485000Y-88050000I0J125000D01*
G01*
X145485000Y-87800000D01*
G75*
G02*
X145610000Y-87675000I125000J0D01*
G01*
X145920000Y-87675000D01*
G75*
G02*
X146045000Y-87800000I0J-125000D01*
G01*
G37*
G36*
G01*
X146685000Y-87800000D02*
X146685000Y-88050000D01*
G75*
G02*
X146560000Y-88175000I-125000J0D01*
G01*
X146250000Y-88175000D01*
G75*
G02*
X146125000Y-88050000I0J125000D01*
G01*
X146125000Y-87800000D01*
G75*
G02*
X146250000Y-87675000I125000J0D01*
G01*
X146560000Y-87675000D01*
G75*
G02*
X146685000Y-87800000I0J-125000D01*
G01*
G37*
%TD*%
%TO.C,C105*%
G36*
G01*
X146045000Y-84300000D02*
X146045000Y-84550000D01*
G75*
G02*
X145920000Y-84675000I-125000J0D01*
G01*
X145610000Y-84675000D01*
G75*
G02*
X145485000Y-84550000I0J125000D01*
G01*
X145485000Y-84300000D01*
G75*
G02*
X145610000Y-84175000I125000J0D01*
G01*
X145920000Y-84175000D01*
G75*
G02*
X146045000Y-84300000I0J-125000D01*
G01*
G37*
G36*
G01*
X146685000Y-84300000D02*
X146685000Y-84550000D01*
G75*
G02*
X146560000Y-84675000I-125000J0D01*
G01*
X146250000Y-84675000D01*
G75*
G02*
X146125000Y-84550000I0J125000D01*
G01*
X146125000Y-84300000D01*
G75*
G02*
X146250000Y-84175000I125000J0D01*
G01*
X146560000Y-84175000D01*
G75*
G02*
X146685000Y-84300000I0J-125000D01*
G01*
G37*
%TD*%
%TO.C,C112*%
G36*
G01*
X108465000Y-93790000D02*
X108215000Y-93790000D01*
G75*
G02*
X108090000Y-93665000I0J125000D01*
G01*
X108090000Y-93355000D01*
G75*
G02*
X108215000Y-93230000I125000J0D01*
G01*
X108465000Y-93230000D01*
G75*
G02*
X108590000Y-93355000I0J-125000D01*
G01*
X108590000Y-93665000D01*
G75*
G02*
X108465000Y-93790000I-125000J0D01*
G01*
G37*
G36*
G01*
X108465000Y-94430000D02*
X108215000Y-94430000D01*
G75*
G02*
X108090000Y-94305000I0J125000D01*
G01*
X108090000Y-93995000D01*
G75*
G02*
X108215000Y-93870000I125000J0D01*
G01*
X108465000Y-93870000D01*
G75*
G02*
X108590000Y-93995000I0J-125000D01*
G01*
X108590000Y-94305000D01*
G75*
G02*
X108465000Y-94430000I-125000J0D01*
G01*
G37*
%TD*%
%TO.C,FB1*%
G36*
G01*
X127768750Y-75819700D02*
X128331250Y-75819700D01*
G75*
G02*
X128575000Y-76063450I0J-243750D01*
G01*
X128575000Y-76550950D01*
G75*
G02*
X128331250Y-76794700I-243750J0D01*
G01*
X127768750Y-76794700D01*
G75*
G02*
X127525000Y-76550950I0J243750D01*
G01*
X127525000Y-76063450D01*
G75*
G02*
X127768750Y-75819700I243750J0D01*
G01*
G37*
G36*
G01*
X127768750Y-74244700D02*
X128331250Y-74244700D01*
G75*
G02*
X128575000Y-74488450I0J-243750D01*
G01*
X128575000Y-74975950D01*
G75*
G02*
X128331250Y-75219700I-243750J0D01*
G01*
X127768750Y-75219700D01*
G75*
G02*
X127525000Y-74975950I0J243750D01*
G01*
X127525000Y-74488450D01*
G75*
G02*
X127768750Y-74244700I243750J0D01*
G01*
G37*
%TD*%
%TO.C,FB2*%
G36*
G01*
X129468750Y-75819700D02*
X130031250Y-75819700D01*
G75*
G02*
X130275000Y-76063450I0J-243750D01*
G01*
X130275000Y-76550950D01*
G75*
G02*
X130031250Y-76794700I-243750J0D01*
G01*
X129468750Y-76794700D01*
G75*
G02*
X129225000Y-76550950I0J243750D01*
G01*
X129225000Y-76063450D01*
G75*
G02*
X129468750Y-75819700I243750J0D01*
G01*
G37*
G36*
G01*
X129468750Y-74244700D02*
X130031250Y-74244700D01*
G75*
G02*
X130275000Y-74488450I0J-243750D01*
G01*
X130275000Y-74975950D01*
G75*
G02*
X130031250Y-75219700I-243750J0D01*
G01*
X129468750Y-75219700D01*
G75*
G02*
X129225000Y-74975950I0J243750D01*
G01*
X129225000Y-74488450D01*
G75*
G02*
X129468750Y-74244700I243750J0D01*
G01*
G37*
%TD*%
%TO.C,FB3*%
G36*
G01*
X120088750Y-76417500D02*
X120651250Y-76417500D01*
G75*
G02*
X120895000Y-76661250I0J-243750D01*
G01*
X120895000Y-77148750D01*
G75*
G02*
X120651250Y-77392500I-243750J0D01*
G01*
X120088750Y-77392500D01*
G75*
G02*
X119845000Y-77148750I0J243750D01*
G01*
X119845000Y-76661250D01*
G75*
G02*
X120088750Y-76417500I243750J0D01*
G01*
G37*
G36*
G01*
X120088750Y-74842500D02*
X120651250Y-74842500D01*
G75*
G02*
X120895000Y-75086250I0J-243750D01*
G01*
X120895000Y-75573750D01*
G75*
G02*
X120651250Y-75817500I-243750J0D01*
G01*
X120088750Y-75817500D01*
G75*
G02*
X119845000Y-75573750I0J243750D01*
G01*
X119845000Y-75086250D01*
G75*
G02*
X120088750Y-74842500I243750J0D01*
G01*
G37*
%TD*%
%TO.C,R1*%
G36*
G01*
X103955000Y-68870000D02*
X104205000Y-68870000D01*
G75*
G02*
X104330000Y-68995000I0J-125000D01*
G01*
X104330000Y-69305000D01*
G75*
G02*
X104205000Y-69430000I-125000J0D01*
G01*
X103955000Y-69430000D01*
G75*
G02*
X103830000Y-69305000I0J125000D01*
G01*
X103830000Y-68995000D01*
G75*
G02*
X103955000Y-68870000I125000J0D01*
G01*
G37*
G36*
G01*
X103955000Y-68230000D02*
X104205000Y-68230000D01*
G75*
G02*
X104330000Y-68355000I0J-125000D01*
G01*
X104330000Y-68665000D01*
G75*
G02*
X104205000Y-68790000I-125000J0D01*
G01*
X103955000Y-68790000D01*
G75*
G02*
X103830000Y-68665000I0J125000D01*
G01*
X103830000Y-68355000D01*
G75*
G02*
X103955000Y-68230000I125000J0D01*
G01*
G37*
%TD*%
%TO.C,R6*%
G36*
G01*
X126625000Y-77854700D02*
X126875000Y-77854700D01*
G75*
G02*
X127000000Y-77979700I0J-125000D01*
G01*
X127000000Y-78289700D01*
G75*
G02*
X126875000Y-78414700I-125000J0D01*
G01*
X126625000Y-78414700D01*
G75*
G02*
X126500000Y-78289700I0J125000D01*
G01*
X126500000Y-77979700D01*
G75*
G02*
X126625000Y-77854700I125000J0D01*
G01*
G37*
G36*
G01*
X126625000Y-77214700D02*
X126875000Y-77214700D01*
G75*
G02*
X127000000Y-77339700I0J-125000D01*
G01*
X127000000Y-77649700D01*
G75*
G02*
X126875000Y-77774700I-125000J0D01*
G01*
X126625000Y-77774700D01*
G75*
G02*
X126500000Y-77649700I0J125000D01*
G01*
X126500000Y-77339700D01*
G75*
G02*
X126625000Y-77214700I125000J0D01*
G01*
G37*
%TD*%
%TO.C,R8*%
G36*
G01*
X121425000Y-78520000D02*
X121675000Y-78520000D01*
G75*
G02*
X121800000Y-78645000I0J-125000D01*
G01*
X121800000Y-78955000D01*
G75*
G02*
X121675000Y-79080000I-125000J0D01*
G01*
X121425000Y-79080000D01*
G75*
G02*
X121300000Y-78955000I0J125000D01*
G01*
X121300000Y-78645000D01*
G75*
G02*
X121425000Y-78520000I125000J0D01*
G01*
G37*
G36*
G01*
X121425000Y-77880000D02*
X121675000Y-77880000D01*
G75*
G02*
X121800000Y-78005000I0J-125000D01*
G01*
X121800000Y-78315000D01*
G75*
G02*
X121675000Y-78440000I-125000J0D01*
G01*
X121425000Y-78440000D01*
G75*
G02*
X121300000Y-78315000I0J125000D01*
G01*
X121300000Y-78005000D01*
G75*
G02*
X121425000Y-77880000I125000J0D01*
G01*
G37*
%TD*%
%TO.C,R9*%
G36*
G01*
X122475000Y-78440000D02*
X122225000Y-78440000D01*
G75*
G02*
X122100000Y-78315000I0J125000D01*
G01*
X122100000Y-78005000D01*
G75*
G02*
X122225000Y-77880000I125000J0D01*
G01*
X122475000Y-77880000D01*
G75*
G02*
X122600000Y-78005000I0J-125000D01*
G01*
X122600000Y-78315000D01*
G75*
G02*
X122475000Y-78440000I-125000J0D01*
G01*
G37*
G36*
G01*
X122475000Y-79080000D02*
X122225000Y-79080000D01*
G75*
G02*
X122100000Y-78955000I0J125000D01*
G01*
X122100000Y-78645000D01*
G75*
G02*
X122225000Y-78520000I125000J0D01*
G01*
X122475000Y-78520000D01*
G75*
G02*
X122600000Y-78645000I0J-125000D01*
G01*
X122600000Y-78955000D01*
G75*
G02*
X122475000Y-79080000I-125000J0D01*
G01*
G37*
%TD*%
%TO.C,R13*%
G36*
G01*
X125841561Y-65835000D02*
X125841561Y-65585000D01*
G75*
G02*
X125966561Y-65460000I125000J0D01*
G01*
X126276561Y-65460000D01*
G75*
G02*
X126401561Y-65585000I0J-125000D01*
G01*
X126401561Y-65835000D01*
G75*
G02*
X126276561Y-65960000I-125000J0D01*
G01*
X125966561Y-65960000D01*
G75*
G02*
X125841561Y-65835000I0J125000D01*
G01*
G37*
G36*
G01*
X125201561Y-65835000D02*
X125201561Y-65585000D01*
G75*
G02*
X125326561Y-65460000I125000J0D01*
G01*
X125636561Y-65460000D01*
G75*
G02*
X125761561Y-65585000I0J-125000D01*
G01*
X125761561Y-65835000D01*
G75*
G02*
X125636561Y-65960000I-125000J0D01*
G01*
X125326561Y-65960000D01*
G75*
G02*
X125201561Y-65835000I0J125000D01*
G01*
G37*
%TD*%
%TO.C,R14*%
G36*
G01*
X111375000Y-95640000D02*
X111625000Y-95640000D01*
G75*
G02*
X111750000Y-95765000I0J-125000D01*
G01*
X111750000Y-96075000D01*
G75*
G02*
X111625000Y-96200000I-125000J0D01*
G01*
X111375000Y-96200000D01*
G75*
G02*
X111250000Y-96075000I0J125000D01*
G01*
X111250000Y-95765000D01*
G75*
G02*
X111375000Y-95640000I125000J0D01*
G01*
G37*
G36*
G01*
X111375000Y-95000000D02*
X111625000Y-95000000D01*
G75*
G02*
X111750000Y-95125000I0J-125000D01*
G01*
X111750000Y-95435000D01*
G75*
G02*
X111625000Y-95560000I-125000J0D01*
G01*
X111375000Y-95560000D01*
G75*
G02*
X111250000Y-95435000I0J125000D01*
G01*
X111250000Y-95125000D01*
G75*
G02*
X111375000Y-95000000I125000J0D01*
G01*
G37*
%TD*%
%TO.C,R15*%
G36*
G01*
X110125000Y-95640000D02*
X110375000Y-95640000D01*
G75*
G02*
X110500000Y-95765000I0J-125000D01*
G01*
X110500000Y-96075000D01*
G75*
G02*
X110375000Y-96200000I-125000J0D01*
G01*
X110125000Y-96200000D01*
G75*
G02*
X110000000Y-96075000I0J125000D01*
G01*
X110000000Y-95765000D01*
G75*
G02*
X110125000Y-95640000I125000J0D01*
G01*
G37*
G36*
G01*
X110125000Y-95000000D02*
X110375000Y-95000000D01*
G75*
G02*
X110500000Y-95125000I0J-125000D01*
G01*
X110500000Y-95435000D01*
G75*
G02*
X110375000Y-95560000I-125000J0D01*
G01*
X110125000Y-95560000D01*
G75*
G02*
X110000000Y-95435000I0J125000D01*
G01*
X110000000Y-95125000D01*
G75*
G02*
X110125000Y-95000000I125000J0D01*
G01*
G37*
%TD*%
%TO.C,R16*%
G36*
G01*
X108875000Y-95640000D02*
X109125000Y-95640000D01*
G75*
G02*
X109250000Y-95765000I0J-125000D01*
G01*
X109250000Y-96075000D01*
G75*
G02*
X109125000Y-96200000I-125000J0D01*
G01*
X108875000Y-96200000D01*
G75*
G02*
X108750000Y-96075000I0J125000D01*
G01*
X108750000Y-95765000D01*
G75*
G02*
X108875000Y-95640000I125000J0D01*
G01*
G37*
G36*
G01*
X108875000Y-95000000D02*
X109125000Y-95000000D01*
G75*
G02*
X109250000Y-95125000I0J-125000D01*
G01*
X109250000Y-95435000D01*
G75*
G02*
X109125000Y-95560000I-125000J0D01*
G01*
X108875000Y-95560000D01*
G75*
G02*
X108750000Y-95435000I0J125000D01*
G01*
X108750000Y-95125000D01*
G75*
G02*
X108875000Y-95000000I125000J0D01*
G01*
G37*
%TD*%
%TO.C,R17*%
G36*
G01*
X143375000Y-95640000D02*
X143625000Y-95640000D01*
G75*
G02*
X143750000Y-95765000I0J-125000D01*
G01*
X143750000Y-96075000D01*
G75*
G02*
X143625000Y-96200000I-125000J0D01*
G01*
X143375000Y-96200000D01*
G75*
G02*
X143250000Y-96075000I0J125000D01*
G01*
X143250000Y-95765000D01*
G75*
G02*
X143375000Y-95640000I125000J0D01*
G01*
G37*
G36*
G01*
X143375000Y-95000000D02*
X143625000Y-95000000D01*
G75*
G02*
X143750000Y-95125000I0J-125000D01*
G01*
X143750000Y-95435000D01*
G75*
G02*
X143625000Y-95560000I-125000J0D01*
G01*
X143375000Y-95560000D01*
G75*
G02*
X143250000Y-95435000I0J125000D01*
G01*
X143250000Y-95125000D01*
G75*
G02*
X143375000Y-95000000I125000J0D01*
G01*
G37*
%TD*%
%TO.C,R18*%
G36*
G01*
X142125000Y-95640000D02*
X142375000Y-95640000D01*
G75*
G02*
X142500000Y-95765000I0J-125000D01*
G01*
X142500000Y-96075000D01*
G75*
G02*
X142375000Y-96200000I-125000J0D01*
G01*
X142125000Y-96200000D01*
G75*
G02*
X142000000Y-96075000I0J125000D01*
G01*
X142000000Y-95765000D01*
G75*
G02*
X142125000Y-95640000I125000J0D01*
G01*
G37*
G36*
G01*
X142125000Y-95000000D02*
X142375000Y-95000000D01*
G75*
G02*
X142500000Y-95125000I0J-125000D01*
G01*
X142500000Y-95435000D01*
G75*
G02*
X142375000Y-95560000I-125000J0D01*
G01*
X142125000Y-95560000D01*
G75*
G02*
X142000000Y-95435000I0J125000D01*
G01*
X142000000Y-95125000D01*
G75*
G02*
X142125000Y-95000000I125000J0D01*
G01*
G37*
%TD*%
%TO.C,R19*%
G36*
G01*
X140875000Y-95640000D02*
X141125000Y-95640000D01*
G75*
G02*
X141250000Y-95765000I0J-125000D01*
G01*
X141250000Y-96075000D01*
G75*
G02*
X141125000Y-96200000I-125000J0D01*
G01*
X140875000Y-96200000D01*
G75*
G02*
X140750000Y-96075000I0J125000D01*
G01*
X140750000Y-95765000D01*
G75*
G02*
X140875000Y-95640000I125000J0D01*
G01*
G37*
G36*
G01*
X140875000Y-95000000D02*
X141125000Y-95000000D01*
G75*
G02*
X141250000Y-95125000I0J-125000D01*
G01*
X141250000Y-95435000D01*
G75*
G02*
X141125000Y-95560000I-125000J0D01*
G01*
X140875000Y-95560000D01*
G75*
G02*
X140750000Y-95435000I0J125000D01*
G01*
X140750000Y-95125000D01*
G75*
G02*
X140875000Y-95000000I125000J0D01*
G01*
G37*
%TD*%
%TO.C,R25*%
G36*
G01*
X140940000Y-63775000D02*
X140940000Y-63525000D01*
G75*
G02*
X141065000Y-63400000I125000J0D01*
G01*
X141375000Y-63400000D01*
G75*
G02*
X141500000Y-63525000I0J-125000D01*
G01*
X141500000Y-63775000D01*
G75*
G02*
X141375000Y-63900000I-125000J0D01*
G01*
X141065000Y-63900000D01*
G75*
G02*
X140940000Y-63775000I0J125000D01*
G01*
G37*
G36*
G01*
X140300000Y-63775000D02*
X140300000Y-63525000D01*
G75*
G02*
X140425000Y-63400000I125000J0D01*
G01*
X140735000Y-63400000D01*
G75*
G02*
X140860000Y-63525000I0J-125000D01*
G01*
X140860000Y-63775000D01*
G75*
G02*
X140735000Y-63900000I-125000J0D01*
G01*
X140425000Y-63900000D01*
G75*
G02*
X140300000Y-63775000I0J125000D01*
G01*
G37*
%TD*%
%TO.C,R26*%
G36*
G01*
X143205000Y-63525000D02*
X143205000Y-63775000D01*
G75*
G02*
X143080000Y-63900000I-125000J0D01*
G01*
X142770000Y-63900000D01*
G75*
G02*
X142645000Y-63775000I0J125000D01*
G01*
X142645000Y-63525000D01*
G75*
G02*
X142770000Y-63400000I125000J0D01*
G01*
X143080000Y-63400000D01*
G75*
G02*
X143205000Y-63525000I0J-125000D01*
G01*
G37*
G36*
G01*
X143845000Y-63525000D02*
X143845000Y-63775000D01*
G75*
G02*
X143720000Y-63900000I-125000J0D01*
G01*
X143410000Y-63900000D01*
G75*
G02*
X143285000Y-63775000I0J125000D01*
G01*
X143285000Y-63525000D01*
G75*
G02*
X143410000Y-63400000I125000J0D01*
G01*
X143720000Y-63400000D01*
G75*
G02*
X143845000Y-63525000I0J-125000D01*
G01*
G37*
%TD*%
%TO.C,R27*%
G36*
G01*
X140270000Y-62425000D02*
X140270000Y-62675000D01*
G75*
G02*
X140145000Y-62800000I-125000J0D01*
G01*
X139835000Y-62800000D01*
G75*
G02*
X139710000Y-62675000I0J125000D01*
G01*
X139710000Y-62425000D01*
G75*
G02*
X139835000Y-62300000I125000J0D01*
G01*
X140145000Y-62300000D01*
G75*
G02*
X140270000Y-62425000I0J-125000D01*
G01*
G37*
G36*
G01*
X140910000Y-62425000D02*
X140910000Y-62675000D01*
G75*
G02*
X140785000Y-62800000I-125000J0D01*
G01*
X140475000Y-62800000D01*
G75*
G02*
X140350000Y-62675000I0J125000D01*
G01*
X140350000Y-62425000D01*
G75*
G02*
X140475000Y-62300000I125000J0D01*
G01*
X140785000Y-62300000D01*
G75*
G02*
X140910000Y-62425000I0J-125000D01*
G01*
G37*
%TD*%
%TO.C,R28*%
G36*
G01*
X131125000Y-54780000D02*
X130875000Y-54780000D01*
G75*
G02*
X130750000Y-54655000I0J125000D01*
G01*
X130750000Y-54345000D01*
G75*
G02*
X130875000Y-54220000I125000J0D01*
G01*
X131125000Y-54220000D01*
G75*
G02*
X131250000Y-54345000I0J-125000D01*
G01*
X131250000Y-54655000D01*
G75*
G02*
X131125000Y-54780000I-125000J0D01*
G01*
G37*
G36*
G01*
X131125000Y-55420000D02*
X130875000Y-55420000D01*
G75*
G02*
X130750000Y-55295000I0J125000D01*
G01*
X130750000Y-54985000D01*
G75*
G02*
X130875000Y-54860000I125000J0D01*
G01*
X131125000Y-54860000D01*
G75*
G02*
X131250000Y-54985000I0J-125000D01*
G01*
X131250000Y-55295000D01*
G75*
G02*
X131125000Y-55420000I-125000J0D01*
G01*
G37*
%TD*%
%TO.C,R31*%
G36*
G01*
X131875000Y-58040000D02*
X132125000Y-58040000D01*
G75*
G02*
X132250000Y-58165000I0J-125000D01*
G01*
X132250000Y-58475000D01*
G75*
G02*
X132125000Y-58600000I-125000J0D01*
G01*
X131875000Y-58600000D01*
G75*
G02*
X131750000Y-58475000I0J125000D01*
G01*
X131750000Y-58165000D01*
G75*
G02*
X131875000Y-58040000I125000J0D01*
G01*
G37*
G36*
G01*
X131875000Y-57400000D02*
X132125000Y-57400000D01*
G75*
G02*
X132250000Y-57525000I0J-125000D01*
G01*
X132250000Y-57835000D01*
G75*
G02*
X132125000Y-57960000I-125000J0D01*
G01*
X131875000Y-57960000D01*
G75*
G02*
X131750000Y-57835000I0J125000D01*
G01*
X131750000Y-57525000D01*
G75*
G02*
X131875000Y-57400000I125000J0D01*
G01*
G37*
%TD*%
%TO.C,R32*%
G36*
G01*
X133325000Y-57730000D02*
X133075000Y-57730000D01*
G75*
G02*
X132950000Y-57605000I0J125000D01*
G01*
X132950000Y-57295000D01*
G75*
G02*
X133075000Y-57170000I125000J0D01*
G01*
X133325000Y-57170000D01*
G75*
G02*
X133450000Y-57295000I0J-125000D01*
G01*
X133450000Y-57605000D01*
G75*
G02*
X133325000Y-57730000I-125000J0D01*
G01*
G37*
G36*
G01*
X133325000Y-58370000D02*
X133075000Y-58370000D01*
G75*
G02*
X132950000Y-58245000I0J125000D01*
G01*
X132950000Y-57935000D01*
G75*
G02*
X133075000Y-57810000I125000J0D01*
G01*
X133325000Y-57810000D01*
G75*
G02*
X133450000Y-57935000I0J-125000D01*
G01*
X133450000Y-58245000D01*
G75*
G02*
X133325000Y-58370000I-125000J0D01*
G01*
G37*
%TD*%
%TO.C,R33*%
G36*
G01*
X133715000Y-54570000D02*
X133965000Y-54570000D01*
G75*
G02*
X134090000Y-54695000I0J-125000D01*
G01*
X134090000Y-55005000D01*
G75*
G02*
X133965000Y-55130000I-125000J0D01*
G01*
X133715000Y-55130000D01*
G75*
G02*
X133590000Y-55005000I0J125000D01*
G01*
X133590000Y-54695000D01*
G75*
G02*
X133715000Y-54570000I125000J0D01*
G01*
G37*
G36*
G01*
X133715000Y-53930000D02*
X133965000Y-53930000D01*
G75*
G02*
X134090000Y-54055000I0J-125000D01*
G01*
X134090000Y-54365000D01*
G75*
G02*
X133965000Y-54490000I-125000J0D01*
G01*
X133715000Y-54490000D01*
G75*
G02*
X133590000Y-54365000I0J125000D01*
G01*
X133590000Y-54055000D01*
G75*
G02*
X133715000Y-53930000I125000J0D01*
G01*
G37*
%TD*%
%TO.C,R34*%
G36*
G01*
X103875000Y-83302500D02*
X103875000Y-83697500D01*
G75*
G02*
X103702500Y-83870000I-172500J0D01*
G01*
X103357500Y-83870000D01*
G75*
G02*
X103185000Y-83697500I0J172500D01*
G01*
X103185000Y-83302500D01*
G75*
G02*
X103357500Y-83130000I172500J0D01*
G01*
X103702500Y-83130000D01*
G75*
G02*
X103875000Y-83302500I0J-172500D01*
G01*
G37*
G36*
G01*
X104845000Y-83302500D02*
X104845000Y-83697500D01*
G75*
G02*
X104672500Y-83870000I-172500J0D01*
G01*
X104327500Y-83870000D01*
G75*
G02*
X104155000Y-83697500I0J172500D01*
G01*
X104155000Y-83302500D01*
G75*
G02*
X104327500Y-83130000I172500J0D01*
G01*
X104672500Y-83130000D01*
G75*
G02*
X104845000Y-83302500I0J-172500D01*
G01*
G37*
%TD*%
%TO.C,R36*%
G36*
G01*
X101910000Y-83302500D02*
X101910000Y-83697500D01*
G75*
G02*
X101737500Y-83870000I-172500J0D01*
G01*
X101392500Y-83870000D01*
G75*
G02*
X101220000Y-83697500I0J172500D01*
G01*
X101220000Y-83302500D01*
G75*
G02*
X101392500Y-83130000I172500J0D01*
G01*
X101737500Y-83130000D01*
G75*
G02*
X101910000Y-83302500I0J-172500D01*
G01*
G37*
G36*
G01*
X102880000Y-83302500D02*
X102880000Y-83697500D01*
G75*
G02*
X102707500Y-83870000I-172500J0D01*
G01*
X102362500Y-83870000D01*
G75*
G02*
X102190000Y-83697500I0J172500D01*
G01*
X102190000Y-83302500D01*
G75*
G02*
X102362500Y-83130000I172500J0D01*
G01*
X102707500Y-83130000D01*
G75*
G02*
X102880000Y-83302500I0J-172500D01*
G01*
G37*
%TD*%
%TO.C,R37*%
G36*
G01*
X102445000Y-78930000D02*
X102195000Y-78930000D01*
G75*
G02*
X102070000Y-78805000I0J125000D01*
G01*
X102070000Y-78495000D01*
G75*
G02*
X102195000Y-78370000I125000J0D01*
G01*
X102445000Y-78370000D01*
G75*
G02*
X102570000Y-78495000I0J-125000D01*
G01*
X102570000Y-78805000D01*
G75*
G02*
X102445000Y-78930000I-125000J0D01*
G01*
G37*
G36*
G01*
X102445000Y-79570000D02*
X102195000Y-79570000D01*
G75*
G02*
X102070000Y-79445000I0J125000D01*
G01*
X102070000Y-79135000D01*
G75*
G02*
X102195000Y-79010000I125000J0D01*
G01*
X102445000Y-79010000D01*
G75*
G02*
X102570000Y-79135000I0J-125000D01*
G01*
X102570000Y-79445000D01*
G75*
G02*
X102445000Y-79570000I-125000J0D01*
G01*
G37*
%TD*%
%TO.C,R38*%
G36*
G01*
X103875000Y-86802500D02*
X103875000Y-87197500D01*
G75*
G02*
X103702500Y-87370000I-172500J0D01*
G01*
X103357500Y-87370000D01*
G75*
G02*
X103185000Y-87197500I0J172500D01*
G01*
X103185000Y-86802500D01*
G75*
G02*
X103357500Y-86630000I172500J0D01*
G01*
X103702500Y-86630000D01*
G75*
G02*
X103875000Y-86802500I0J-172500D01*
G01*
G37*
G36*
G01*
X104845000Y-86802500D02*
X104845000Y-87197500D01*
G75*
G02*
X104672500Y-87370000I-172500J0D01*
G01*
X104327500Y-87370000D01*
G75*
G02*
X104155000Y-87197500I0J172500D01*
G01*
X104155000Y-86802500D01*
G75*
G02*
X104327500Y-86630000I172500J0D01*
G01*
X104672500Y-86630000D01*
G75*
G02*
X104845000Y-86802500I0J-172500D01*
G01*
G37*
%TD*%
%TO.C,R39*%
G36*
G01*
X103875000Y-90302500D02*
X103875000Y-90697500D01*
G75*
G02*
X103702500Y-90870000I-172500J0D01*
G01*
X103357500Y-90870000D01*
G75*
G02*
X103185000Y-90697500I0J172500D01*
G01*
X103185000Y-90302500D01*
G75*
G02*
X103357500Y-90130000I172500J0D01*
G01*
X103702500Y-90130000D01*
G75*
G02*
X103875000Y-90302500I0J-172500D01*
G01*
G37*
G36*
G01*
X104845000Y-90302500D02*
X104845000Y-90697500D01*
G75*
G02*
X104672500Y-90870000I-172500J0D01*
G01*
X104327500Y-90870000D01*
G75*
G02*
X104155000Y-90697500I0J172500D01*
G01*
X104155000Y-90302500D01*
G75*
G02*
X104327500Y-90130000I172500J0D01*
G01*
X104672500Y-90130000D01*
G75*
G02*
X104845000Y-90302500I0J-172500D01*
G01*
G37*
%TD*%
%TO.C,R40*%
G36*
G01*
X102445000Y-77330000D02*
X102195000Y-77330000D01*
G75*
G02*
X102070000Y-77205000I0J125000D01*
G01*
X102070000Y-76895000D01*
G75*
G02*
X102195000Y-76770000I125000J0D01*
G01*
X102445000Y-76770000D01*
G75*
G02*
X102570000Y-76895000I0J-125000D01*
G01*
X102570000Y-77205000D01*
G75*
G02*
X102445000Y-77330000I-125000J0D01*
G01*
G37*
G36*
G01*
X102445000Y-77970000D02*
X102195000Y-77970000D01*
G75*
G02*
X102070000Y-77845000I0J125000D01*
G01*
X102070000Y-77535000D01*
G75*
G02*
X102195000Y-77410000I125000J0D01*
G01*
X102445000Y-77410000D01*
G75*
G02*
X102570000Y-77535000I0J-125000D01*
G01*
X102570000Y-77845000D01*
G75*
G02*
X102445000Y-77970000I-125000J0D01*
G01*
G37*
%TD*%
%TO.C,R41*%
G36*
G01*
X102195000Y-75810000D02*
X102445000Y-75810000D01*
G75*
G02*
X102570000Y-75935000I0J-125000D01*
G01*
X102570000Y-76245000D01*
G75*
G02*
X102445000Y-76370000I-125000J0D01*
G01*
X102195000Y-76370000D01*
G75*
G02*
X102070000Y-76245000I0J125000D01*
G01*
X102070000Y-75935000D01*
G75*
G02*
X102195000Y-75810000I125000J0D01*
G01*
G37*
G36*
G01*
X102195000Y-75170000D02*
X102445000Y-75170000D01*
G75*
G02*
X102570000Y-75295000I0J-125000D01*
G01*
X102570000Y-75605000D01*
G75*
G02*
X102445000Y-75730000I-125000J0D01*
G01*
X102195000Y-75730000D01*
G75*
G02*
X102070000Y-75605000I0J125000D01*
G01*
X102070000Y-75295000D01*
G75*
G02*
X102195000Y-75170000I125000J0D01*
G01*
G37*
%TD*%
D31*
%TO.C,R42*%
X115700000Y-83450000D03*
X118900000Y-83450000D03*
D32*
X115700000Y-87000000D03*
X118900000Y-87000000D03*
%TD*%
%TO.C,R43*%
G36*
G01*
X101915000Y-86802500D02*
X101915000Y-87197500D01*
G75*
G02*
X101742500Y-87370000I-172500J0D01*
G01*
X101397500Y-87370000D01*
G75*
G02*
X101225000Y-87197500I0J172500D01*
G01*
X101225000Y-86802500D01*
G75*
G02*
X101397500Y-86630000I172500J0D01*
G01*
X101742500Y-86630000D01*
G75*
G02*
X101915000Y-86802500I0J-172500D01*
G01*
G37*
G36*
G01*
X102885000Y-86802500D02*
X102885000Y-87197500D01*
G75*
G02*
X102712500Y-87370000I-172500J0D01*
G01*
X102367500Y-87370000D01*
G75*
G02*
X102195000Y-87197500I0J172500D01*
G01*
X102195000Y-86802500D01*
G75*
G02*
X102367500Y-86630000I172500J0D01*
G01*
X102712500Y-86630000D01*
G75*
G02*
X102885000Y-86802500I0J-172500D01*
G01*
G37*
%TD*%
%TO.C,R45*%
G36*
G01*
X101920000Y-90302500D02*
X101920000Y-90697500D01*
G75*
G02*
X101747500Y-90870000I-172500J0D01*
G01*
X101402500Y-90870000D01*
G75*
G02*
X101230000Y-90697500I0J172500D01*
G01*
X101230000Y-90302500D01*
G75*
G02*
X101402500Y-90130000I172500J0D01*
G01*
X101747500Y-90130000D01*
G75*
G02*
X101920000Y-90302500I0J-172500D01*
G01*
G37*
G36*
G01*
X102890000Y-90302500D02*
X102890000Y-90697500D01*
G75*
G02*
X102717500Y-90870000I-172500J0D01*
G01*
X102372500Y-90870000D01*
G75*
G02*
X102200000Y-90697500I0J172500D01*
G01*
X102200000Y-90302500D01*
G75*
G02*
X102372500Y-90130000I172500J0D01*
G01*
X102717500Y-90130000D01*
G75*
G02*
X102890000Y-90302500I0J-172500D01*
G01*
G37*
%TD*%
%TO.C,R46*%
G36*
G01*
X101960000Y-74475000D02*
X101960000Y-74725000D01*
G75*
G02*
X101835000Y-74850000I-125000J0D01*
G01*
X101525000Y-74850000D01*
G75*
G02*
X101400000Y-74725000I0J125000D01*
G01*
X101400000Y-74475000D01*
G75*
G02*
X101525000Y-74350000I125000J0D01*
G01*
X101835000Y-74350000D01*
G75*
G02*
X101960000Y-74475000I0J-125000D01*
G01*
G37*
G36*
G01*
X102600000Y-74475000D02*
X102600000Y-74725000D01*
G75*
G02*
X102475000Y-74850000I-125000J0D01*
G01*
X102165000Y-74850000D01*
G75*
G02*
X102040000Y-74725000I0J125000D01*
G01*
X102040000Y-74475000D01*
G75*
G02*
X102165000Y-74350000I125000J0D01*
G01*
X102475000Y-74350000D01*
G75*
G02*
X102600000Y-74475000I0J-125000D01*
G01*
G37*
%TD*%
%TO.C,R47*%
G36*
G01*
X101960000Y-73505000D02*
X101960000Y-73755000D01*
G75*
G02*
X101835000Y-73880000I-125000J0D01*
G01*
X101525000Y-73880000D01*
G75*
G02*
X101400000Y-73755000I0J125000D01*
G01*
X101400000Y-73505000D01*
G75*
G02*
X101525000Y-73380000I125000J0D01*
G01*
X101835000Y-73380000D01*
G75*
G02*
X101960000Y-73505000I0J-125000D01*
G01*
G37*
G36*
G01*
X102600000Y-73505000D02*
X102600000Y-73755000D01*
G75*
G02*
X102475000Y-73880000I-125000J0D01*
G01*
X102165000Y-73880000D01*
G75*
G02*
X102040000Y-73755000I0J125000D01*
G01*
X102040000Y-73505000D01*
G75*
G02*
X102165000Y-73380000I125000J0D01*
G01*
X102475000Y-73380000D01*
G75*
G02*
X102600000Y-73505000I0J-125000D01*
G01*
G37*
%TD*%
%TO.C,R48*%
G36*
G01*
X146125000Y-90697500D02*
X146125000Y-90302500D01*
G75*
G02*
X146297500Y-90130000I172500J0D01*
G01*
X146642500Y-90130000D01*
G75*
G02*
X146815000Y-90302500I0J-172500D01*
G01*
X146815000Y-90697500D01*
G75*
G02*
X146642500Y-90870000I-172500J0D01*
G01*
X146297500Y-90870000D01*
G75*
G02*
X146125000Y-90697500I0J172500D01*
G01*
G37*
G36*
G01*
X145155000Y-90697500D02*
X145155000Y-90302500D01*
G75*
G02*
X145327500Y-90130000I172500J0D01*
G01*
X145672500Y-90130000D01*
G75*
G02*
X145845000Y-90302500I0J-172500D01*
G01*
X145845000Y-90697500D01*
G75*
G02*
X145672500Y-90870000I-172500J0D01*
G01*
X145327500Y-90870000D01*
G75*
G02*
X145155000Y-90697500I0J172500D01*
G01*
G37*
%TD*%
%TO.C,R50*%
G36*
G01*
X148090000Y-90697500D02*
X148090000Y-90302500D01*
G75*
G02*
X148262500Y-90130000I172500J0D01*
G01*
X148607500Y-90130000D01*
G75*
G02*
X148780000Y-90302500I0J-172500D01*
G01*
X148780000Y-90697500D01*
G75*
G02*
X148607500Y-90870000I-172500J0D01*
G01*
X148262500Y-90870000D01*
G75*
G02*
X148090000Y-90697500I0J172500D01*
G01*
G37*
G36*
G01*
X147120000Y-90697500D02*
X147120000Y-90302500D01*
G75*
G02*
X147292500Y-90130000I172500J0D01*
G01*
X147637500Y-90130000D01*
G75*
G02*
X147810000Y-90302500I0J-172500D01*
G01*
X147810000Y-90697500D01*
G75*
G02*
X147637500Y-90870000I-172500J0D01*
G01*
X147292500Y-90870000D01*
G75*
G02*
X147120000Y-90697500I0J172500D01*
G01*
G37*
%TD*%
%TO.C,R52*%
G36*
G01*
X146125000Y-87197500D02*
X146125000Y-86802500D01*
G75*
G02*
X146297500Y-86630000I172500J0D01*
G01*
X146642500Y-86630000D01*
G75*
G02*
X146815000Y-86802500I0J-172500D01*
G01*
X146815000Y-87197500D01*
G75*
G02*
X146642500Y-87370000I-172500J0D01*
G01*
X146297500Y-87370000D01*
G75*
G02*
X146125000Y-87197500I0J172500D01*
G01*
G37*
G36*
G01*
X145155000Y-87197500D02*
X145155000Y-86802500D01*
G75*
G02*
X145327500Y-86630000I172500J0D01*
G01*
X145672500Y-86630000D01*
G75*
G02*
X145845000Y-86802500I0J-172500D01*
G01*
X145845000Y-87197500D01*
G75*
G02*
X145672500Y-87370000I-172500J0D01*
G01*
X145327500Y-87370000D01*
G75*
G02*
X145155000Y-87197500I0J172500D01*
G01*
G37*
%TD*%
%TO.C,R53*%
G36*
G01*
X146125000Y-83697500D02*
X146125000Y-83302500D01*
G75*
G02*
X146297500Y-83130000I172500J0D01*
G01*
X146642500Y-83130000D01*
G75*
G02*
X146815000Y-83302500I0J-172500D01*
G01*
X146815000Y-83697500D01*
G75*
G02*
X146642500Y-83870000I-172500J0D01*
G01*
X146297500Y-83870000D01*
G75*
G02*
X146125000Y-83697500I0J172500D01*
G01*
G37*
G36*
G01*
X145155000Y-83697500D02*
X145155000Y-83302500D01*
G75*
G02*
X145327500Y-83130000I172500J0D01*
G01*
X145672500Y-83130000D01*
G75*
G02*
X145845000Y-83302500I0J-172500D01*
G01*
X145845000Y-83697500D01*
G75*
G02*
X145672500Y-83870000I-172500J0D01*
G01*
X145327500Y-83870000D01*
G75*
G02*
X145155000Y-83697500I0J172500D01*
G01*
G37*
%TD*%
%TO.C,R57*%
G36*
G01*
X148090000Y-87197500D02*
X148090000Y-86802500D01*
G75*
G02*
X148262500Y-86630000I172500J0D01*
G01*
X148607500Y-86630000D01*
G75*
G02*
X148780000Y-86802500I0J-172500D01*
G01*
X148780000Y-87197500D01*
G75*
G02*
X148607500Y-87370000I-172500J0D01*
G01*
X148262500Y-87370000D01*
G75*
G02*
X148090000Y-87197500I0J172500D01*
G01*
G37*
G36*
G01*
X147120000Y-87197500D02*
X147120000Y-86802500D01*
G75*
G02*
X147292500Y-86630000I172500J0D01*
G01*
X147637500Y-86630000D01*
G75*
G02*
X147810000Y-86802500I0J-172500D01*
G01*
X147810000Y-87197500D01*
G75*
G02*
X147637500Y-87370000I-172500J0D01*
G01*
X147292500Y-87370000D01*
G75*
G02*
X147120000Y-87197500I0J172500D01*
G01*
G37*
%TD*%
%TO.C,R59*%
G36*
G01*
X148090000Y-83697500D02*
X148090000Y-83302500D01*
G75*
G02*
X148262500Y-83130000I172500J0D01*
G01*
X148607500Y-83130000D01*
G75*
G02*
X148780000Y-83302500I0J-172500D01*
G01*
X148780000Y-83697500D01*
G75*
G02*
X148607500Y-83870000I-172500J0D01*
G01*
X148262500Y-83870000D01*
G75*
G02*
X148090000Y-83697500I0J172500D01*
G01*
G37*
G36*
G01*
X147120000Y-83697500D02*
X147120000Y-83302500D01*
G75*
G02*
X147292500Y-83130000I172500J0D01*
G01*
X147637500Y-83130000D01*
G75*
G02*
X147810000Y-83302500I0J-172500D01*
G01*
X147810000Y-83697500D01*
G75*
G02*
X147637500Y-83870000I-172500J0D01*
G01*
X147292500Y-83870000D01*
G75*
G02*
X147120000Y-83697500I0J172500D01*
G01*
G37*
%TD*%
%TO.C,R62*%
G36*
G01*
X109735000Y-93952500D02*
X109735000Y-94347500D01*
G75*
G02*
X109562500Y-94520000I-172500J0D01*
G01*
X109217500Y-94520000D01*
G75*
G02*
X109045000Y-94347500I0J172500D01*
G01*
X109045000Y-93952500D01*
G75*
G02*
X109217500Y-93780000I172500J0D01*
G01*
X109562500Y-93780000D01*
G75*
G02*
X109735000Y-93952500I0J-172500D01*
G01*
G37*
G36*
G01*
X110705000Y-93952500D02*
X110705000Y-94347500D01*
G75*
G02*
X110532500Y-94520000I-172500J0D01*
G01*
X110187500Y-94520000D01*
G75*
G02*
X110015000Y-94347500I0J172500D01*
G01*
X110015000Y-93952500D01*
G75*
G02*
X110187500Y-93780000I172500J0D01*
G01*
X110532500Y-93780000D01*
G75*
G02*
X110705000Y-93952500I0J-172500D01*
G01*
G37*
%TD*%
%TO.C,R63*%
G36*
G01*
X107072500Y-94775000D02*
X107467500Y-94775000D01*
G75*
G02*
X107640000Y-94947500I0J-172500D01*
G01*
X107640000Y-95292500D01*
G75*
G02*
X107467500Y-95465000I-172500J0D01*
G01*
X107072500Y-95465000D01*
G75*
G02*
X106900000Y-95292500I0J172500D01*
G01*
X106900000Y-94947500D01*
G75*
G02*
X107072500Y-94775000I172500J0D01*
G01*
G37*
G36*
G01*
X107072500Y-93805000D02*
X107467500Y-93805000D01*
G75*
G02*
X107640000Y-93977500I0J-172500D01*
G01*
X107640000Y-94322500D01*
G75*
G02*
X107467500Y-94495000I-172500J0D01*
G01*
X107072500Y-94495000D01*
G75*
G02*
X106900000Y-94322500I0J172500D01*
G01*
X106900000Y-93977500D01*
G75*
G02*
X107072500Y-93805000I172500J0D01*
G01*
G37*
%TD*%
D33*
%TO.C,U12*%
X125500000Y-55290000D03*
X125000000Y-55290000D03*
X124500000Y-55290000D03*
X124500000Y-56440000D03*
X125000000Y-56440000D03*
D34*
X125500000Y-56390000D03*
%TD*%
%TO.C,U14*%
G36*
G01*
X140312500Y-58875000D02*
X140312500Y-58625000D01*
G75*
G02*
X140437500Y-58500000I125000J0D01*
G01*
X141762500Y-58500000D01*
G75*
G02*
X141887500Y-58625000I0J-125000D01*
G01*
X141887500Y-58875000D01*
G75*
G02*
X141762500Y-59000000I-125000J0D01*
G01*
X140437500Y-59000000D01*
G75*
G02*
X140312500Y-58875000I0J125000D01*
G01*
G37*
G36*
G01*
X140312500Y-58225000D02*
X140312500Y-57975000D01*
G75*
G02*
X140437500Y-57850000I125000J0D01*
G01*
X141762500Y-57850000D01*
G75*
G02*
X141887500Y-57975000I0J-125000D01*
G01*
X141887500Y-58225000D01*
G75*
G02*
X141762500Y-58350000I-125000J0D01*
G01*
X140437500Y-58350000D01*
G75*
G02*
X140312500Y-58225000I0J125000D01*
G01*
G37*
G36*
G01*
X140312500Y-57575000D02*
X140312500Y-57325000D01*
G75*
G02*
X140437500Y-57200000I125000J0D01*
G01*
X141762500Y-57200000D01*
G75*
G02*
X141887500Y-57325000I0J-125000D01*
G01*
X141887500Y-57575000D01*
G75*
G02*
X141762500Y-57700000I-125000J0D01*
G01*
X140437500Y-57700000D01*
G75*
G02*
X140312500Y-57575000I0J125000D01*
G01*
G37*
G36*
G01*
X140312500Y-56925000D02*
X140312500Y-56675000D01*
G75*
G02*
X140437500Y-56550000I125000J0D01*
G01*
X141762500Y-56550000D01*
G75*
G02*
X141887500Y-56675000I0J-125000D01*
G01*
X141887500Y-56925000D01*
G75*
G02*
X141762500Y-57050000I-125000J0D01*
G01*
X140437500Y-57050000D01*
G75*
G02*
X140312500Y-56925000I0J125000D01*
G01*
G37*
G36*
G01*
X140312500Y-56275000D02*
X140312500Y-56025000D01*
G75*
G02*
X140437500Y-55900000I125000J0D01*
G01*
X141762500Y-55900000D01*
G75*
G02*
X141887500Y-56025000I0J-125000D01*
G01*
X141887500Y-56275000D01*
G75*
G02*
X141762500Y-56400000I-125000J0D01*
G01*
X140437500Y-56400000D01*
G75*
G02*
X140312500Y-56275000I0J125000D01*
G01*
G37*
G36*
G01*
X140312500Y-55625000D02*
X140312500Y-55375000D01*
G75*
G02*
X140437500Y-55250000I125000J0D01*
G01*
X141762500Y-55250000D01*
G75*
G02*
X141887500Y-55375000I0J-125000D01*
G01*
X141887500Y-55625000D01*
G75*
G02*
X141762500Y-55750000I-125000J0D01*
G01*
X140437500Y-55750000D01*
G75*
G02*
X140312500Y-55625000I0J125000D01*
G01*
G37*
G36*
G01*
X140312500Y-54975000D02*
X140312500Y-54725000D01*
G75*
G02*
X140437500Y-54600000I125000J0D01*
G01*
X141762500Y-54600000D01*
G75*
G02*
X141887500Y-54725000I0J-125000D01*
G01*
X141887500Y-54975000D01*
G75*
G02*
X141762500Y-55100000I-125000J0D01*
G01*
X140437500Y-55100000D01*
G75*
G02*
X140312500Y-54975000I0J125000D01*
G01*
G37*
G36*
G01*
X140312500Y-54325000D02*
X140312500Y-54075000D01*
G75*
G02*
X140437500Y-53950000I125000J0D01*
G01*
X141762500Y-53950000D01*
G75*
G02*
X141887500Y-54075000I0J-125000D01*
G01*
X141887500Y-54325000D01*
G75*
G02*
X141762500Y-54450000I-125000J0D01*
G01*
X140437500Y-54450000D01*
G75*
G02*
X140312500Y-54325000I0J125000D01*
G01*
G37*
G36*
G01*
X134587500Y-54325000D02*
X134587500Y-54075000D01*
G75*
G02*
X134712500Y-53950000I125000J0D01*
G01*
X136037500Y-53950000D01*
G75*
G02*
X136162500Y-54075000I0J-125000D01*
G01*
X136162500Y-54325000D01*
G75*
G02*
X136037500Y-54450000I-125000J0D01*
G01*
X134712500Y-54450000D01*
G75*
G02*
X134587500Y-54325000I0J125000D01*
G01*
G37*
G36*
G01*
X134587500Y-54975000D02*
X134587500Y-54725000D01*
G75*
G02*
X134712500Y-54600000I125000J0D01*
G01*
X136037500Y-54600000D01*
G75*
G02*
X136162500Y-54725000I0J-125000D01*
G01*
X136162500Y-54975000D01*
G75*
G02*
X136037500Y-55100000I-125000J0D01*
G01*
X134712500Y-55100000D01*
G75*
G02*
X134587500Y-54975000I0J125000D01*
G01*
G37*
G36*
G01*
X134587500Y-55625000D02*
X134587500Y-55375000D01*
G75*
G02*
X134712500Y-55250000I125000J0D01*
G01*
X136037500Y-55250000D01*
G75*
G02*
X136162500Y-55375000I0J-125000D01*
G01*
X136162500Y-55625000D01*
G75*
G02*
X136037500Y-55750000I-125000J0D01*
G01*
X134712500Y-55750000D01*
G75*
G02*
X134587500Y-55625000I0J125000D01*
G01*
G37*
G36*
G01*
X134587500Y-56275000D02*
X134587500Y-56025000D01*
G75*
G02*
X134712500Y-55900000I125000J0D01*
G01*
X136037500Y-55900000D01*
G75*
G02*
X136162500Y-56025000I0J-125000D01*
G01*
X136162500Y-56275000D01*
G75*
G02*
X136037500Y-56400000I-125000J0D01*
G01*
X134712500Y-56400000D01*
G75*
G02*
X134587500Y-56275000I0J125000D01*
G01*
G37*
G36*
G01*
X134587500Y-56925000D02*
X134587500Y-56675000D01*
G75*
G02*
X134712500Y-56550000I125000J0D01*
G01*
X136037500Y-56550000D01*
G75*
G02*
X136162500Y-56675000I0J-125000D01*
G01*
X136162500Y-56925000D01*
G75*
G02*
X136037500Y-57050000I-125000J0D01*
G01*
X134712500Y-57050000D01*
G75*
G02*
X134587500Y-56925000I0J125000D01*
G01*
G37*
G36*
G01*
X134587500Y-57575000D02*
X134587500Y-57325000D01*
G75*
G02*
X134712500Y-57200000I125000J0D01*
G01*
X136037500Y-57200000D01*
G75*
G02*
X136162500Y-57325000I0J-125000D01*
G01*
X136162500Y-57575000D01*
G75*
G02*
X136037500Y-57700000I-125000J0D01*
G01*
X134712500Y-57700000D01*
G75*
G02*
X134587500Y-57575000I0J125000D01*
G01*
G37*
G36*
G01*
X134587500Y-58225000D02*
X134587500Y-57975000D01*
G75*
G02*
X134712500Y-57850000I125000J0D01*
G01*
X136037500Y-57850000D01*
G75*
G02*
X136162500Y-57975000I0J-125000D01*
G01*
X136162500Y-58225000D01*
G75*
G02*
X136037500Y-58350000I-125000J0D01*
G01*
X134712500Y-58350000D01*
G75*
G02*
X134587500Y-58225000I0J125000D01*
G01*
G37*
G36*
G01*
X134587500Y-58875000D02*
X134587500Y-58625000D01*
G75*
G02*
X134712500Y-58500000I125000J0D01*
G01*
X136037500Y-58500000D01*
G75*
G02*
X136162500Y-58625000I0J-125000D01*
G01*
X136162500Y-58875000D01*
G75*
G02*
X136037500Y-59000000I-125000J0D01*
G01*
X134712500Y-59000000D01*
G75*
G02*
X134587500Y-58875000I0J125000D01*
G01*
G37*
%TD*%
%TO.C,C114*%
G36*
G01*
X113113889Y-97350000D02*
X118086111Y-97350000D01*
G75*
G02*
X118350000Y-97613889I0J-263889D01*
G01*
X118350000Y-98986111D01*
G75*
G02*
X118086111Y-99250000I-263889J0D01*
G01*
X113113889Y-99250000D01*
G75*
G02*
X112850000Y-98986111I0J263889D01*
G01*
X112850000Y-97613889D01*
G75*
G02*
X113113889Y-97350000I263889J0D01*
G01*
G37*
G36*
G01*
X113113889Y-92250000D02*
X118086111Y-92250000D01*
G75*
G02*
X118350000Y-92513889I0J-263889D01*
G01*
X118350000Y-93886111D01*
G75*
G02*
X118086111Y-94150000I-263889J0D01*
G01*
X113113889Y-94150000D01*
G75*
G02*
X112850000Y-93886111I0J263889D01*
G01*
X112850000Y-92513889D01*
G75*
G02*
X113113889Y-92250000I263889J0D01*
G01*
G37*
%TD*%
%TO.C,C115*%
G36*
G01*
X122513889Y-97350000D02*
X127486111Y-97350000D01*
G75*
G02*
X127750000Y-97613889I0J-263889D01*
G01*
X127750000Y-98986111D01*
G75*
G02*
X127486111Y-99250000I-263889J0D01*
G01*
X122513889Y-99250000D01*
G75*
G02*
X122250000Y-98986111I0J263889D01*
G01*
X122250000Y-97613889D01*
G75*
G02*
X122513889Y-97350000I263889J0D01*
G01*
G37*
G36*
G01*
X122513889Y-92250000D02*
X127486111Y-92250000D01*
G75*
G02*
X127750000Y-92513889I0J-263889D01*
G01*
X127750000Y-93886111D01*
G75*
G02*
X127486111Y-94150000I-263889J0D01*
G01*
X122513889Y-94150000D01*
G75*
G02*
X122250000Y-93886111I0J263889D01*
G01*
X122250000Y-92513889D01*
G75*
G02*
X122513889Y-92250000I263889J0D01*
G01*
G37*
%TD*%
%TO.C,C116*%
G36*
G01*
X131913889Y-97350000D02*
X136886111Y-97350000D01*
G75*
G02*
X137150000Y-97613889I0J-263889D01*
G01*
X137150000Y-98986111D01*
G75*
G02*
X136886111Y-99250000I-263889J0D01*
G01*
X131913889Y-99250000D01*
G75*
G02*
X131650000Y-98986111I0J263889D01*
G01*
X131650000Y-97613889D01*
G75*
G02*
X131913889Y-97350000I263889J0D01*
G01*
G37*
G36*
G01*
X131913889Y-92250000D02*
X136886111Y-92250000D01*
G75*
G02*
X137150000Y-92513889I0J-263889D01*
G01*
X137150000Y-93886111D01*
G75*
G02*
X136886111Y-94150000I-263889J0D01*
G01*
X131913889Y-94150000D01*
G75*
G02*
X131650000Y-93886111I0J263889D01*
G01*
X131650000Y-92513889D01*
G75*
G02*
X131913889Y-92250000I263889J0D01*
G01*
G37*
%TD*%
D35*
%TO.C,H1*%
X102000000Y-98000000D03*
%TD*%
%TO.C,H2*%
X148000000Y-52000000D03*
%TD*%
%TO.C,H3*%
X102000000Y-52000000D03*
%TD*%
%TO.C,H4*%
X148000000Y-98000000D03*
%TD*%
D36*
%TO.C,U5*%
X142360000Y-67580000D03*
X142360000Y-68530000D03*
X142360000Y-69480000D03*
X144980000Y-69480000D03*
X144980000Y-68530000D03*
X144980000Y-67580000D03*
%TD*%
%TO.C,C18*%
G36*
G01*
X118910000Y-59325000D02*
X118910000Y-59575000D01*
G75*
G02*
X118785000Y-59700000I-125000J0D01*
G01*
X118475000Y-59700000D01*
G75*
G02*
X118350000Y-59575000I0J125000D01*
G01*
X118350000Y-59325000D01*
G75*
G02*
X118475000Y-59200000I125000J0D01*
G01*
X118785000Y-59200000D01*
G75*
G02*
X118910000Y-59325000I0J-125000D01*
G01*
G37*
G36*
G01*
X119550000Y-59325000D02*
X119550000Y-59575000D01*
G75*
G02*
X119425000Y-59700000I-125000J0D01*
G01*
X119115000Y-59700000D01*
G75*
G02*
X118990000Y-59575000I0J125000D01*
G01*
X118990000Y-59325000D01*
G75*
G02*
X119115000Y-59200000I125000J0D01*
G01*
X119425000Y-59200000D01*
G75*
G02*
X119550000Y-59325000I0J-125000D01*
G01*
G37*
%TD*%
D33*
%TO.C,U11*%
X120050000Y-57225000D03*
X119550000Y-57225000D03*
X119050000Y-57225000D03*
X119050000Y-58375000D03*
X119550000Y-58375000D03*
D34*
X120050000Y-58325000D03*
%TD*%
%TO.C,R5*%
G36*
G01*
X127825000Y-77774700D02*
X127575000Y-77774700D01*
G75*
G02*
X127450000Y-77649700I0J125000D01*
G01*
X127450000Y-77339700D01*
G75*
G02*
X127575000Y-77214700I125000J0D01*
G01*
X127825000Y-77214700D01*
G75*
G02*
X127950000Y-77339700I0J-125000D01*
G01*
X127950000Y-77649700D01*
G75*
G02*
X127825000Y-77774700I-125000J0D01*
G01*
G37*
G36*
G01*
X127825000Y-78414700D02*
X127575000Y-78414700D01*
G75*
G02*
X127450000Y-78289700I0J125000D01*
G01*
X127450000Y-77979700D01*
G75*
G02*
X127575000Y-77854700I125000J0D01*
G01*
X127825000Y-77854700D01*
G75*
G02*
X127950000Y-77979700I0J-125000D01*
G01*
X127950000Y-78289700D01*
G75*
G02*
X127825000Y-78414700I-125000J0D01*
G01*
G37*
%TD*%
%TO.C,C68*%
G36*
G01*
X142197500Y-63260000D02*
X141947500Y-63260000D01*
G75*
G02*
X141822500Y-63135000I0J125000D01*
G01*
X141822500Y-62825000D01*
G75*
G02*
X141947500Y-62700000I125000J0D01*
G01*
X142197500Y-62700000D01*
G75*
G02*
X142322500Y-62825000I0J-125000D01*
G01*
X142322500Y-63135000D01*
G75*
G02*
X142197500Y-63260000I-125000J0D01*
G01*
G37*
G36*
G01*
X142197500Y-63900000D02*
X141947500Y-63900000D01*
G75*
G02*
X141822500Y-63775000I0J125000D01*
G01*
X141822500Y-63465000D01*
G75*
G02*
X141947500Y-63340000I125000J0D01*
G01*
X142197500Y-63340000D01*
G75*
G02*
X142322500Y-63465000I0J-125000D01*
G01*
X142322500Y-63775000D01*
G75*
G02*
X142197500Y-63900000I-125000J0D01*
G01*
G37*
%TD*%
D37*
%TO.C,J3*%
X102700000Y-67900000D03*
X102700000Y-69150000D03*
G36*
G01*
X103175000Y-70950000D02*
X102225000Y-70950000D01*
G75*
G02*
X101950000Y-70675000I0J275000D01*
G01*
X101950000Y-70125000D01*
G75*
G02*
X102225000Y-69850000I275000J0D01*
G01*
X103175000Y-69850000D01*
G75*
G02*
X103450000Y-70125000I0J-275000D01*
G01*
X103450000Y-70675000D01*
G75*
G02*
X103175000Y-70950000I-275000J0D01*
G01*
G37*
%TD*%
%TO.C,J4*%
X147300000Y-70400000D03*
X147300000Y-69150000D03*
G36*
G01*
X146825000Y-67350000D02*
X147775000Y-67350000D01*
G75*
G02*
X148050000Y-67625000I0J-275000D01*
G01*
X148050000Y-68175000D01*
G75*
G02*
X147775000Y-68450000I-275000J0D01*
G01*
X146825000Y-68450000D01*
G75*
G02*
X146550000Y-68175000I0J275000D01*
G01*
X146550000Y-67625000D01*
G75*
G02*
X146825000Y-67350000I275000J0D01*
G01*
G37*
%TD*%
%TO.C,J7*%
X102700000Y-60900000D03*
G36*
G01*
X103175000Y-62700000D02*
X102225000Y-62700000D01*
G75*
G02*
X101950000Y-62425000I0J275000D01*
G01*
X101950000Y-61875000D01*
G75*
G02*
X102225000Y-61600000I275000J0D01*
G01*
X103175000Y-61600000D01*
G75*
G02*
X103450000Y-61875000I0J-275000D01*
G01*
X103450000Y-62425000D01*
G75*
G02*
X103175000Y-62700000I-275000J0D01*
G01*
G37*
%TD*%
D12*
%TO.C,J8*%
X143500000Y-52700000D03*
X142250000Y-52700000D03*
X141000000Y-52700000D03*
X139750000Y-52700000D03*
X138500000Y-52700000D03*
X137250000Y-52700000D03*
G36*
G01*
X135450000Y-53175000D02*
X135450000Y-52225000D01*
G75*
G02*
X135725000Y-51950000I275000J0D01*
G01*
X136275000Y-51950000D01*
G75*
G02*
X136550000Y-52225000I0J-275000D01*
G01*
X136550000Y-53175000D01*
G75*
G02*
X136275000Y-53450000I-275000J0D01*
G01*
X135725000Y-53450000D01*
G75*
G02*
X135450000Y-53175000I0J275000D01*
G01*
G37*
%TD*%
D37*
%TO.C,J10*%
X147300000Y-64000000D03*
X147300000Y-62750000D03*
X147300000Y-61500000D03*
X147300000Y-60250000D03*
X147300000Y-59000000D03*
X147300000Y-57750000D03*
G36*
G01*
X146825000Y-55950000D02*
X147775000Y-55950000D01*
G75*
G02*
X148050000Y-56225000I0J-275000D01*
G01*
X148050000Y-56775000D01*
G75*
G02*
X147775000Y-57050000I-275000J0D01*
G01*
X146825000Y-57050000D01*
G75*
G02*
X146550000Y-56775000I0J275000D01*
G01*
X146550000Y-56225000D01*
G75*
G02*
X146825000Y-55950000I275000J0D01*
G01*
G37*
%TD*%
D38*
%TO.C,U19*%
X107000000Y-75200000D03*
G36*
G01*
X109425000Y-71887500D02*
X109425000Y-72637500D01*
G75*
G02*
X109337500Y-72725000I-87500J0D01*
G01*
X109162500Y-72725000D01*
G75*
G02*
X109075000Y-72637500I0J87500D01*
G01*
X109075000Y-71887500D01*
G75*
G02*
X109162500Y-71800000I87500J0D01*
G01*
X109337500Y-71800000D01*
G75*
G02*
X109425000Y-71887500I0J-87500D01*
G01*
G37*
G36*
G01*
X108925000Y-71887500D02*
X108925000Y-72637500D01*
G75*
G02*
X108837500Y-72725000I-87500J0D01*
G01*
X108662500Y-72725000D01*
G75*
G02*
X108575000Y-72637500I0J87500D01*
G01*
X108575000Y-71887500D01*
G75*
G02*
X108662500Y-71800000I87500J0D01*
G01*
X108837500Y-71800000D01*
G75*
G02*
X108925000Y-71887500I0J-87500D01*
G01*
G37*
G36*
G01*
X108425000Y-71887500D02*
X108425000Y-72637500D01*
G75*
G02*
X108337500Y-72725000I-87500J0D01*
G01*
X108162500Y-72725000D01*
G75*
G02*
X108075000Y-72637500I0J87500D01*
G01*
X108075000Y-71887500D01*
G75*
G02*
X108162500Y-71800000I87500J0D01*
G01*
X108337500Y-71800000D01*
G75*
G02*
X108425000Y-71887500I0J-87500D01*
G01*
G37*
G36*
G01*
X107925000Y-71887500D02*
X107925000Y-72637500D01*
G75*
G02*
X107837500Y-72725000I-87500J0D01*
G01*
X107662500Y-72725000D01*
G75*
G02*
X107575000Y-72637500I0J87500D01*
G01*
X107575000Y-71887500D01*
G75*
G02*
X107662500Y-71800000I87500J0D01*
G01*
X107837500Y-71800000D01*
G75*
G02*
X107925000Y-71887500I0J-87500D01*
G01*
G37*
G36*
G01*
X107425000Y-71887500D02*
X107425000Y-72637500D01*
G75*
G02*
X107337500Y-72725000I-87500J0D01*
G01*
X107162500Y-72725000D01*
G75*
G02*
X107075000Y-72637500I0J87500D01*
G01*
X107075000Y-71887500D01*
G75*
G02*
X107162500Y-71800000I87500J0D01*
G01*
X107337500Y-71800000D01*
G75*
G02*
X107425000Y-71887500I0J-87500D01*
G01*
G37*
G36*
G01*
X106925000Y-71887500D02*
X106925000Y-72637500D01*
G75*
G02*
X106837500Y-72725000I-87500J0D01*
G01*
X106662500Y-72725000D01*
G75*
G02*
X106575000Y-72637500I0J87500D01*
G01*
X106575000Y-71887500D01*
G75*
G02*
X106662500Y-71800000I87500J0D01*
G01*
X106837500Y-71800000D01*
G75*
G02*
X106925000Y-71887500I0J-87500D01*
G01*
G37*
G36*
G01*
X106425000Y-71887500D02*
X106425000Y-72637500D01*
G75*
G02*
X106337500Y-72725000I-87500J0D01*
G01*
X106162500Y-72725000D01*
G75*
G02*
X106075000Y-72637500I0J87500D01*
G01*
X106075000Y-71887500D01*
G75*
G02*
X106162500Y-71800000I87500J0D01*
G01*
X106337500Y-71800000D01*
G75*
G02*
X106425000Y-71887500I0J-87500D01*
G01*
G37*
G36*
G01*
X105925000Y-71887500D02*
X105925000Y-72637500D01*
G75*
G02*
X105837500Y-72725000I-87500J0D01*
G01*
X105662500Y-72725000D01*
G75*
G02*
X105575000Y-72637500I0J87500D01*
G01*
X105575000Y-71887500D01*
G75*
G02*
X105662500Y-71800000I87500J0D01*
G01*
X105837500Y-71800000D01*
G75*
G02*
X105925000Y-71887500I0J-87500D01*
G01*
G37*
G36*
G01*
X105425000Y-71887500D02*
X105425000Y-72637500D01*
G75*
G02*
X105337500Y-72725000I-87500J0D01*
G01*
X105162500Y-72725000D01*
G75*
G02*
X105075000Y-72637500I0J87500D01*
G01*
X105075000Y-71887500D01*
G75*
G02*
X105162500Y-71800000I87500J0D01*
G01*
X105337500Y-71800000D01*
G75*
G02*
X105425000Y-71887500I0J-87500D01*
G01*
G37*
G36*
G01*
X104925000Y-71887500D02*
X104925000Y-72637500D01*
G75*
G02*
X104837500Y-72725000I-87500J0D01*
G01*
X104662500Y-72725000D01*
G75*
G02*
X104575000Y-72637500I0J87500D01*
G01*
X104575000Y-71887500D01*
G75*
G02*
X104662500Y-71800000I87500J0D01*
G01*
X104837500Y-71800000D01*
G75*
G02*
X104925000Y-71887500I0J-87500D01*
G01*
G37*
G36*
G01*
X104525000Y-72862500D02*
X104525000Y-73037500D01*
G75*
G02*
X104437500Y-73125000I-87500J0D01*
G01*
X103687500Y-73125000D01*
G75*
G02*
X103600000Y-73037500I0J87500D01*
G01*
X103600000Y-72862500D01*
G75*
G02*
X103687500Y-72775000I87500J0D01*
G01*
X104437500Y-72775000D01*
G75*
G02*
X104525000Y-72862500I0J-87500D01*
G01*
G37*
G36*
G01*
X104525000Y-73362500D02*
X104525000Y-73537500D01*
G75*
G02*
X104437500Y-73625000I-87500J0D01*
G01*
X103687500Y-73625000D01*
G75*
G02*
X103600000Y-73537500I0J87500D01*
G01*
X103600000Y-73362500D01*
G75*
G02*
X103687500Y-73275000I87500J0D01*
G01*
X104437500Y-73275000D01*
G75*
G02*
X104525000Y-73362500I0J-87500D01*
G01*
G37*
G36*
G01*
X104525000Y-73862500D02*
X104525000Y-74037500D01*
G75*
G02*
X104437500Y-74125000I-87500J0D01*
G01*
X103687500Y-74125000D01*
G75*
G02*
X103600000Y-74037500I0J87500D01*
G01*
X103600000Y-73862500D01*
G75*
G02*
X103687500Y-73775000I87500J0D01*
G01*
X104437500Y-73775000D01*
G75*
G02*
X104525000Y-73862500I0J-87500D01*
G01*
G37*
G36*
G01*
X104525000Y-74362500D02*
X104525000Y-74537500D01*
G75*
G02*
X104437500Y-74625000I-87500J0D01*
G01*
X103687500Y-74625000D01*
G75*
G02*
X103600000Y-74537500I0J87500D01*
G01*
X103600000Y-74362500D01*
G75*
G02*
X103687500Y-74275000I87500J0D01*
G01*
X104437500Y-74275000D01*
G75*
G02*
X104525000Y-74362500I0J-87500D01*
G01*
G37*
G36*
G01*
X104525000Y-74862500D02*
X104525000Y-75037500D01*
G75*
G02*
X104437500Y-75125000I-87500J0D01*
G01*
X103687500Y-75125000D01*
G75*
G02*
X103600000Y-75037500I0J87500D01*
G01*
X103600000Y-74862500D01*
G75*
G02*
X103687500Y-74775000I87500J0D01*
G01*
X104437500Y-74775000D01*
G75*
G02*
X104525000Y-74862500I0J-87500D01*
G01*
G37*
G36*
G01*
X104525000Y-75362500D02*
X104525000Y-75537500D01*
G75*
G02*
X104437500Y-75625000I-87500J0D01*
G01*
X103687500Y-75625000D01*
G75*
G02*
X103600000Y-75537500I0J87500D01*
G01*
X103600000Y-75362500D01*
G75*
G02*
X103687500Y-75275000I87500J0D01*
G01*
X104437500Y-75275000D01*
G75*
G02*
X104525000Y-75362500I0J-87500D01*
G01*
G37*
G36*
G01*
X104525000Y-75862500D02*
X104525000Y-76037500D01*
G75*
G02*
X104437500Y-76125000I-87500J0D01*
G01*
X103687500Y-76125000D01*
G75*
G02*
X103600000Y-76037500I0J87500D01*
G01*
X103600000Y-75862500D01*
G75*
G02*
X103687500Y-75775000I87500J0D01*
G01*
X104437500Y-75775000D01*
G75*
G02*
X104525000Y-75862500I0J-87500D01*
G01*
G37*
G36*
G01*
X104525000Y-76362500D02*
X104525000Y-76537500D01*
G75*
G02*
X104437500Y-76625000I-87500J0D01*
G01*
X103687500Y-76625000D01*
G75*
G02*
X103600000Y-76537500I0J87500D01*
G01*
X103600000Y-76362500D01*
G75*
G02*
X103687500Y-76275000I87500J0D01*
G01*
X104437500Y-76275000D01*
G75*
G02*
X104525000Y-76362500I0J-87500D01*
G01*
G37*
G36*
G01*
X104525000Y-76862500D02*
X104525000Y-77037500D01*
G75*
G02*
X104437500Y-77125000I-87500J0D01*
G01*
X103687500Y-77125000D01*
G75*
G02*
X103600000Y-77037500I0J87500D01*
G01*
X103600000Y-76862500D01*
G75*
G02*
X103687500Y-76775000I87500J0D01*
G01*
X104437500Y-76775000D01*
G75*
G02*
X104525000Y-76862500I0J-87500D01*
G01*
G37*
G36*
G01*
X104525000Y-77362500D02*
X104525000Y-77537500D01*
G75*
G02*
X104437500Y-77625000I-87500J0D01*
G01*
X103687500Y-77625000D01*
G75*
G02*
X103600000Y-77537500I0J87500D01*
G01*
X103600000Y-77362500D01*
G75*
G02*
X103687500Y-77275000I87500J0D01*
G01*
X104437500Y-77275000D01*
G75*
G02*
X104525000Y-77362500I0J-87500D01*
G01*
G37*
G36*
G01*
X104925000Y-77762500D02*
X104925000Y-78512500D01*
G75*
G02*
X104837500Y-78600000I-87500J0D01*
G01*
X104662500Y-78600000D01*
G75*
G02*
X104575000Y-78512500I0J87500D01*
G01*
X104575000Y-77762500D01*
G75*
G02*
X104662500Y-77675000I87500J0D01*
G01*
X104837500Y-77675000D01*
G75*
G02*
X104925000Y-77762500I0J-87500D01*
G01*
G37*
G36*
G01*
X105425000Y-77762500D02*
X105425000Y-78512500D01*
G75*
G02*
X105337500Y-78600000I-87500J0D01*
G01*
X105162500Y-78600000D01*
G75*
G02*
X105075000Y-78512500I0J87500D01*
G01*
X105075000Y-77762500D01*
G75*
G02*
X105162500Y-77675000I87500J0D01*
G01*
X105337500Y-77675000D01*
G75*
G02*
X105425000Y-77762500I0J-87500D01*
G01*
G37*
G36*
G01*
X105925000Y-77762500D02*
X105925000Y-78512500D01*
G75*
G02*
X105837500Y-78600000I-87500J0D01*
G01*
X105662500Y-78600000D01*
G75*
G02*
X105575000Y-78512500I0J87500D01*
G01*
X105575000Y-77762500D01*
G75*
G02*
X105662500Y-77675000I87500J0D01*
G01*
X105837500Y-77675000D01*
G75*
G02*
X105925000Y-77762500I0J-87500D01*
G01*
G37*
G36*
G01*
X106425000Y-77762500D02*
X106425000Y-78512500D01*
G75*
G02*
X106337500Y-78600000I-87500J0D01*
G01*
X106162500Y-78600000D01*
G75*
G02*
X106075000Y-78512500I0J87500D01*
G01*
X106075000Y-77762500D01*
G75*
G02*
X106162500Y-77675000I87500J0D01*
G01*
X106337500Y-77675000D01*
G75*
G02*
X106425000Y-77762500I0J-87500D01*
G01*
G37*
G36*
G01*
X106925000Y-77762500D02*
X106925000Y-78512500D01*
G75*
G02*
X106837500Y-78600000I-87500J0D01*
G01*
X106662500Y-78600000D01*
G75*
G02*
X106575000Y-78512500I0J87500D01*
G01*
X106575000Y-77762500D01*
G75*
G02*
X106662500Y-77675000I87500J0D01*
G01*
X106837500Y-77675000D01*
G75*
G02*
X106925000Y-77762500I0J-87500D01*
G01*
G37*
G36*
G01*
X107425000Y-77762500D02*
X107425000Y-78512500D01*
G75*
G02*
X107337500Y-78600000I-87500J0D01*
G01*
X107162500Y-78600000D01*
G75*
G02*
X107075000Y-78512500I0J87500D01*
G01*
X107075000Y-77762500D01*
G75*
G02*
X107162500Y-77675000I87500J0D01*
G01*
X107337500Y-77675000D01*
G75*
G02*
X107425000Y-77762500I0J-87500D01*
G01*
G37*
G36*
G01*
X107925000Y-77762500D02*
X107925000Y-78512500D01*
G75*
G02*
X107837500Y-78600000I-87500J0D01*
G01*
X107662500Y-78600000D01*
G75*
G02*
X107575000Y-78512500I0J87500D01*
G01*
X107575000Y-77762500D01*
G75*
G02*
X107662500Y-77675000I87500J0D01*
G01*
X107837500Y-77675000D01*
G75*
G02*
X107925000Y-77762500I0J-87500D01*
G01*
G37*
G36*
G01*
X108425000Y-77762500D02*
X108425000Y-78512500D01*
G75*
G02*
X108337500Y-78600000I-87500J0D01*
G01*
X108162500Y-78600000D01*
G75*
G02*
X108075000Y-78512500I0J87500D01*
G01*
X108075000Y-77762500D01*
G75*
G02*
X108162500Y-77675000I87500J0D01*
G01*
X108337500Y-77675000D01*
G75*
G02*
X108425000Y-77762500I0J-87500D01*
G01*
G37*
G36*
G01*
X108925000Y-77762500D02*
X108925000Y-78512500D01*
G75*
G02*
X108837500Y-78600000I-87500J0D01*
G01*
X108662500Y-78600000D01*
G75*
G02*
X108575000Y-78512500I0J87500D01*
G01*
X108575000Y-77762500D01*
G75*
G02*
X108662500Y-77675000I87500J0D01*
G01*
X108837500Y-77675000D01*
G75*
G02*
X108925000Y-77762500I0J-87500D01*
G01*
G37*
G36*
G01*
X109425000Y-77762500D02*
X109425000Y-78512500D01*
G75*
G02*
X109337500Y-78600000I-87500J0D01*
G01*
X109162500Y-78600000D01*
G75*
G02*
X109075000Y-78512500I0J87500D01*
G01*
X109075000Y-77762500D01*
G75*
G02*
X109162500Y-77675000I87500J0D01*
G01*
X109337500Y-77675000D01*
G75*
G02*
X109425000Y-77762500I0J-87500D01*
G01*
G37*
G36*
G01*
X110400000Y-77362500D02*
X110400000Y-77537500D01*
G75*
G02*
X110312500Y-77625000I-87500J0D01*
G01*
X109562500Y-77625000D01*
G75*
G02*
X109475000Y-77537500I0J87500D01*
G01*
X109475000Y-77362500D01*
G75*
G02*
X109562500Y-77275000I87500J0D01*
G01*
X110312500Y-77275000D01*
G75*
G02*
X110400000Y-77362500I0J-87500D01*
G01*
G37*
G36*
G01*
X110400000Y-76862500D02*
X110400000Y-77037500D01*
G75*
G02*
X110312500Y-77125000I-87500J0D01*
G01*
X109562500Y-77125000D01*
G75*
G02*
X109475000Y-77037500I0J87500D01*
G01*
X109475000Y-76862500D01*
G75*
G02*
X109562500Y-76775000I87500J0D01*
G01*
X110312500Y-76775000D01*
G75*
G02*
X110400000Y-76862500I0J-87500D01*
G01*
G37*
G36*
G01*
X110400000Y-76362500D02*
X110400000Y-76537500D01*
G75*
G02*
X110312500Y-76625000I-87500J0D01*
G01*
X109562500Y-76625000D01*
G75*
G02*
X109475000Y-76537500I0J87500D01*
G01*
X109475000Y-76362500D01*
G75*
G02*
X109562500Y-76275000I87500J0D01*
G01*
X110312500Y-76275000D01*
G75*
G02*
X110400000Y-76362500I0J-87500D01*
G01*
G37*
G36*
G01*
X110400000Y-75862500D02*
X110400000Y-76037500D01*
G75*
G02*
X110312500Y-76125000I-87500J0D01*
G01*
X109562500Y-76125000D01*
G75*
G02*
X109475000Y-76037500I0J87500D01*
G01*
X109475000Y-75862500D01*
G75*
G02*
X109562500Y-75775000I87500J0D01*
G01*
X110312500Y-75775000D01*
G75*
G02*
X110400000Y-75862500I0J-87500D01*
G01*
G37*
G36*
G01*
X110400000Y-75362500D02*
X110400000Y-75537500D01*
G75*
G02*
X110312500Y-75625000I-87500J0D01*
G01*
X109562500Y-75625000D01*
G75*
G02*
X109475000Y-75537500I0J87500D01*
G01*
X109475000Y-75362500D01*
G75*
G02*
X109562500Y-75275000I87500J0D01*
G01*
X110312500Y-75275000D01*
G75*
G02*
X110400000Y-75362500I0J-87500D01*
G01*
G37*
G36*
G01*
X110400000Y-74862500D02*
X110400000Y-75037500D01*
G75*
G02*
X110312500Y-75125000I-87500J0D01*
G01*
X109562500Y-75125000D01*
G75*
G02*
X109475000Y-75037500I0J87500D01*
G01*
X109475000Y-74862500D01*
G75*
G02*
X109562500Y-74775000I87500J0D01*
G01*
X110312500Y-74775000D01*
G75*
G02*
X110400000Y-74862500I0J-87500D01*
G01*
G37*
G36*
G01*
X110400000Y-74362500D02*
X110400000Y-74537500D01*
G75*
G02*
X110312500Y-74625000I-87500J0D01*
G01*
X109562500Y-74625000D01*
G75*
G02*
X109475000Y-74537500I0J87500D01*
G01*
X109475000Y-74362500D01*
G75*
G02*
X109562500Y-74275000I87500J0D01*
G01*
X110312500Y-74275000D01*
G75*
G02*
X110400000Y-74362500I0J-87500D01*
G01*
G37*
G36*
G01*
X110400000Y-73862500D02*
X110400000Y-74037500D01*
G75*
G02*
X110312500Y-74125000I-87500J0D01*
G01*
X109562500Y-74125000D01*
G75*
G02*
X109475000Y-74037500I0J87500D01*
G01*
X109475000Y-73862500D01*
G75*
G02*
X109562500Y-73775000I87500J0D01*
G01*
X110312500Y-73775000D01*
G75*
G02*
X110400000Y-73862500I0J-87500D01*
G01*
G37*
G36*
G01*
X110400000Y-73362500D02*
X110400000Y-73537500D01*
G75*
G02*
X110312500Y-73625000I-87500J0D01*
G01*
X109562500Y-73625000D01*
G75*
G02*
X109475000Y-73537500I0J87500D01*
G01*
X109475000Y-73362500D01*
G75*
G02*
X109562500Y-73275000I87500J0D01*
G01*
X110312500Y-73275000D01*
G75*
G02*
X110400000Y-73362500I0J-87500D01*
G01*
G37*
G36*
G01*
X110400000Y-72862500D02*
X110400000Y-73037500D01*
G75*
G02*
X110312500Y-73125000I-87500J0D01*
G01*
X109562500Y-73125000D01*
G75*
G02*
X109475000Y-73037500I0J87500D01*
G01*
X109475000Y-72862500D01*
G75*
G02*
X109562500Y-72775000I87500J0D01*
G01*
X110312500Y-72775000D01*
G75*
G02*
X110400000Y-72862500I0J-87500D01*
G01*
G37*
%TD*%
D21*
%TO.C,J16*%
X138270000Y-60740000D03*
D22*
X137000000Y-69260000D03*
D23*
X137790000Y-67857500D03*
X137790000Y-67222500D03*
X137790000Y-66587500D03*
X137790000Y-65952500D03*
X137790000Y-65317500D03*
X137790000Y-64682500D03*
X137790000Y-64047500D03*
X137790000Y-63412500D03*
X137790000Y-62777500D03*
X137790000Y-62142500D03*
X138750000Y-67857500D03*
X138750000Y-67222500D03*
X138750000Y-66587500D03*
X138750000Y-65952500D03*
X138750000Y-65317500D03*
X138750000Y-64682500D03*
X138750000Y-64047500D03*
X138750000Y-63412500D03*
X138750000Y-62777500D03*
X138750000Y-62142500D03*
X136210000Y-67857500D03*
X136210000Y-67222500D03*
X136210000Y-66587500D03*
X136210000Y-65952500D03*
X136210000Y-65317500D03*
X136210000Y-64682500D03*
X136210000Y-64047500D03*
X136210000Y-63412500D03*
X136210000Y-62777500D03*
X136210000Y-62142500D03*
X135250000Y-67857500D03*
X135250000Y-67222500D03*
X135250000Y-66587500D03*
X135250000Y-65952500D03*
X135250000Y-65317500D03*
X135250000Y-64682500D03*
X135250000Y-64047500D03*
X135250000Y-63412500D03*
X135250000Y-62777500D03*
X135250000Y-62142500D03*
%TD*%
%TO.C,C25*%
G36*
G01*
X117220000Y-55845000D02*
X117220000Y-55595000D01*
G75*
G02*
X117345000Y-55470000I125000J0D01*
G01*
X117655000Y-55470000D01*
G75*
G02*
X117780000Y-55595000I0J-125000D01*
G01*
X117780000Y-55845000D01*
G75*
G02*
X117655000Y-55970000I-125000J0D01*
G01*
X117345000Y-55970000D01*
G75*
G02*
X117220000Y-55845000I0J125000D01*
G01*
G37*
G36*
G01*
X116580000Y-55845000D02*
X116580000Y-55595000D01*
G75*
G02*
X116705000Y-55470000I125000J0D01*
G01*
X117015000Y-55470000D01*
G75*
G02*
X117140000Y-55595000I0J-125000D01*
G01*
X117140000Y-55845000D01*
G75*
G02*
X117015000Y-55970000I-125000J0D01*
G01*
X116705000Y-55970000D01*
G75*
G02*
X116580000Y-55845000I0J125000D01*
G01*
G37*
%TD*%
D39*
%TO.C,J14*%
X120600000Y-51450000D03*
D40*
X117900000Y-51450000D03*
D41*
X122425000Y-51450000D03*
X115675000Y-51450000D03*
D42*
X121537500Y-54025000D03*
X116562500Y-54025000D03*
D43*
X120350000Y-54110000D03*
X119700000Y-54110000D03*
X119050000Y-54110000D03*
X118400000Y-54110000D03*
X117750000Y-54110000D03*
%TD*%
%TO.C,D2*%
G36*
G01*
X147890000Y-84550000D02*
X147890000Y-84300000D01*
G75*
G02*
X148015000Y-84175000I125000J0D01*
G01*
X148325000Y-84175000D01*
G75*
G02*
X148450000Y-84300000I0J-125000D01*
G01*
X148450000Y-84550000D01*
G75*
G02*
X148325000Y-84675000I-125000J0D01*
G01*
X148015000Y-84675000D01*
G75*
G02*
X147890000Y-84550000I0J125000D01*
G01*
G37*
G36*
G01*
X147250000Y-84550000D02*
X147250000Y-84300000D01*
G75*
G02*
X147375000Y-84175000I125000J0D01*
G01*
X147685000Y-84175000D01*
G75*
G02*
X147810000Y-84300000I0J-125000D01*
G01*
X147810000Y-84550000D01*
G75*
G02*
X147685000Y-84675000I-125000J0D01*
G01*
X147375000Y-84675000D01*
G75*
G02*
X147250000Y-84550000I0J125000D01*
G01*
G37*
%TD*%
%TO.C,D6*%
G36*
G01*
X147890000Y-91550000D02*
X147890000Y-91300000D01*
G75*
G02*
X148015000Y-91175000I125000J0D01*
G01*
X148325000Y-91175000D01*
G75*
G02*
X148450000Y-91300000I0J-125000D01*
G01*
X148450000Y-91550000D01*
G75*
G02*
X148325000Y-91675000I-125000J0D01*
G01*
X148015000Y-91675000D01*
G75*
G02*
X147890000Y-91550000I0J125000D01*
G01*
G37*
G36*
G01*
X147250000Y-91550000D02*
X147250000Y-91300000D01*
G75*
G02*
X147375000Y-91175000I125000J0D01*
G01*
X147685000Y-91175000D01*
G75*
G02*
X147810000Y-91300000I0J-125000D01*
G01*
X147810000Y-91550000D01*
G75*
G02*
X147685000Y-91675000I-125000J0D01*
G01*
X147375000Y-91675000D01*
G75*
G02*
X147250000Y-91550000I0J125000D01*
G01*
G37*
%TD*%
%TO.C,D7*%
G36*
G01*
X147890000Y-88050000D02*
X147890000Y-87800000D01*
G75*
G02*
X148015000Y-87675000I125000J0D01*
G01*
X148325000Y-87675000D01*
G75*
G02*
X148450000Y-87800000I0J-125000D01*
G01*
X148450000Y-88050000D01*
G75*
G02*
X148325000Y-88175000I-125000J0D01*
G01*
X148015000Y-88175000D01*
G75*
G02*
X147890000Y-88050000I0J125000D01*
G01*
G37*
G36*
G01*
X147250000Y-88050000D02*
X147250000Y-87800000D01*
G75*
G02*
X147375000Y-87675000I125000J0D01*
G01*
X147685000Y-87675000D01*
G75*
G02*
X147810000Y-87800000I0J-125000D01*
G01*
X147810000Y-88050000D01*
G75*
G02*
X147685000Y-88175000I-125000J0D01*
G01*
X147375000Y-88175000D01*
G75*
G02*
X147250000Y-88050000I0J125000D01*
G01*
G37*
%TD*%
%TO.C,D8*%
G36*
G01*
X102120000Y-89455000D02*
X102120000Y-89705000D01*
G75*
G02*
X101995000Y-89830000I-125000J0D01*
G01*
X101685000Y-89830000D01*
G75*
G02*
X101560000Y-89705000I0J125000D01*
G01*
X101560000Y-89455000D01*
G75*
G02*
X101685000Y-89330000I125000J0D01*
G01*
X101995000Y-89330000D01*
G75*
G02*
X102120000Y-89455000I0J-125000D01*
G01*
G37*
G36*
G01*
X102760000Y-89455000D02*
X102760000Y-89705000D01*
G75*
G02*
X102635000Y-89830000I-125000J0D01*
G01*
X102325000Y-89830000D01*
G75*
G02*
X102200000Y-89705000I0J125000D01*
G01*
X102200000Y-89455000D01*
G75*
G02*
X102325000Y-89330000I125000J0D01*
G01*
X102635000Y-89330000D01*
G75*
G02*
X102760000Y-89455000I0J-125000D01*
G01*
G37*
%TD*%
%TO.C,D9*%
G36*
G01*
X102110000Y-82455000D02*
X102110000Y-82705000D01*
G75*
G02*
X101985000Y-82830000I-125000J0D01*
G01*
X101675000Y-82830000D01*
G75*
G02*
X101550000Y-82705000I0J125000D01*
G01*
X101550000Y-82455000D01*
G75*
G02*
X101675000Y-82330000I125000J0D01*
G01*
X101985000Y-82330000D01*
G75*
G02*
X102110000Y-82455000I0J-125000D01*
G01*
G37*
G36*
G01*
X102750000Y-82455000D02*
X102750000Y-82705000D01*
G75*
G02*
X102625000Y-82830000I-125000J0D01*
G01*
X102315000Y-82830000D01*
G75*
G02*
X102190000Y-82705000I0J125000D01*
G01*
X102190000Y-82455000D01*
G75*
G02*
X102315000Y-82330000I125000J0D01*
G01*
X102625000Y-82330000D01*
G75*
G02*
X102750000Y-82455000I0J-125000D01*
G01*
G37*
%TD*%
%TO.C,D10*%
G36*
G01*
X102115000Y-85955000D02*
X102115000Y-86205000D01*
G75*
G02*
X101990000Y-86330000I-125000J0D01*
G01*
X101680000Y-86330000D01*
G75*
G02*
X101555000Y-86205000I0J125000D01*
G01*
X101555000Y-85955000D01*
G75*
G02*
X101680000Y-85830000I125000J0D01*
G01*
X101990000Y-85830000D01*
G75*
G02*
X102115000Y-85955000I0J-125000D01*
G01*
G37*
G36*
G01*
X102755000Y-85955000D02*
X102755000Y-86205000D01*
G75*
G02*
X102630000Y-86330000I-125000J0D01*
G01*
X102320000Y-86330000D01*
G75*
G02*
X102195000Y-86205000I0J125000D01*
G01*
X102195000Y-85955000D01*
G75*
G02*
X102320000Y-85830000I125000J0D01*
G01*
X102630000Y-85830000D01*
G75*
G02*
X102755000Y-85955000I0J-125000D01*
G01*
G37*
%TD*%
%TO.C,D11*%
G36*
G01*
X106325000Y-93790000D02*
X106075000Y-93790000D01*
G75*
G02*
X105950000Y-93665000I0J125000D01*
G01*
X105950000Y-93355000D01*
G75*
G02*
X106075000Y-93230000I125000J0D01*
G01*
X106325000Y-93230000D01*
G75*
G02*
X106450000Y-93355000I0J-125000D01*
G01*
X106450000Y-93665000D01*
G75*
G02*
X106325000Y-93790000I-125000J0D01*
G01*
G37*
G36*
G01*
X106325000Y-94430000D02*
X106075000Y-94430000D01*
G75*
G02*
X105950000Y-94305000I0J125000D01*
G01*
X105950000Y-93995000D01*
G75*
G02*
X106075000Y-93870000I125000J0D01*
G01*
X106325000Y-93870000D01*
G75*
G02*
X106450000Y-93995000I0J-125000D01*
G01*
X106450000Y-94305000D01*
G75*
G02*
X106325000Y-94430000I-125000J0D01*
G01*
G37*
%TD*%
%TO.C,D12*%
G36*
G01*
X106005000Y-68150000D02*
X105755000Y-68150000D01*
G75*
G02*
X105630000Y-68025000I0J125000D01*
G01*
X105630000Y-67715000D01*
G75*
G02*
X105755000Y-67590000I125000J0D01*
G01*
X106005000Y-67590000D01*
G75*
G02*
X106130000Y-67715000I0J-125000D01*
G01*
X106130000Y-68025000D01*
G75*
G02*
X106005000Y-68150000I-125000J0D01*
G01*
G37*
G36*
G01*
X106005000Y-68790000D02*
X105755000Y-68790000D01*
G75*
G02*
X105630000Y-68665000I0J125000D01*
G01*
X105630000Y-68355000D01*
G75*
G02*
X105755000Y-68230000I125000J0D01*
G01*
X106005000Y-68230000D01*
G75*
G02*
X106130000Y-68355000I0J-125000D01*
G01*
X106130000Y-68665000D01*
G75*
G02*
X106005000Y-68790000I-125000J0D01*
G01*
G37*
%TD*%
%TO.C,R10*%
G36*
G01*
X121965000Y-60863689D02*
X121715000Y-60863689D01*
G75*
G02*
X121590000Y-60738689I0J125000D01*
G01*
X121590000Y-60428689D01*
G75*
G02*
X121715000Y-60303689I125000J0D01*
G01*
X121965000Y-60303689D01*
G75*
G02*
X122090000Y-60428689I0J-125000D01*
G01*
X122090000Y-60738689D01*
G75*
G02*
X121965000Y-60863689I-125000J0D01*
G01*
G37*
G36*
G01*
X121965000Y-61503689D02*
X121715000Y-61503689D01*
G75*
G02*
X121590000Y-61378689I0J125000D01*
G01*
X121590000Y-61068689D01*
G75*
G02*
X121715000Y-60943689I125000J0D01*
G01*
X121965000Y-60943689D01*
G75*
G02*
X122090000Y-61068689I0J-125000D01*
G01*
X122090000Y-61378689D01*
G75*
G02*
X121965000Y-61503689I-125000J0D01*
G01*
G37*
%TD*%
D44*
%TO.C,U2*%
X126250000Y-80962500D03*
G36*
G01*
X127337500Y-80362500D02*
X127162500Y-80362500D01*
G75*
G02*
X127075000Y-80275000I0J87500D01*
G01*
X127075000Y-79625000D01*
G75*
G02*
X127162500Y-79537500I87500J0D01*
G01*
X127337500Y-79537500D01*
G75*
G02*
X127425000Y-79625000I0J-87500D01*
G01*
X127425000Y-80275000D01*
G75*
G02*
X127337500Y-80362500I-87500J0D01*
G01*
G37*
G36*
G01*
X126837500Y-80362500D02*
X126662500Y-80362500D01*
G75*
G02*
X126575000Y-80275000I0J87500D01*
G01*
X126575000Y-79625000D01*
G75*
G02*
X126662500Y-79537500I87500J0D01*
G01*
X126837500Y-79537500D01*
G75*
G02*
X126925000Y-79625000I0J-87500D01*
G01*
X126925000Y-80275000D01*
G75*
G02*
X126837500Y-80362500I-87500J0D01*
G01*
G37*
G36*
G01*
X126337500Y-80362500D02*
X126162500Y-80362500D01*
G75*
G02*
X126075000Y-80275000I0J87500D01*
G01*
X126075000Y-79625000D01*
G75*
G02*
X126162500Y-79537500I87500J0D01*
G01*
X126337500Y-79537500D01*
G75*
G02*
X126425000Y-79625000I0J-87500D01*
G01*
X126425000Y-80275000D01*
G75*
G02*
X126337500Y-80362500I-87500J0D01*
G01*
G37*
G36*
G01*
X125837500Y-80362500D02*
X125662500Y-80362500D01*
G75*
G02*
X125575000Y-80275000I0J87500D01*
G01*
X125575000Y-79625000D01*
G75*
G02*
X125662500Y-79537500I87500J0D01*
G01*
X125837500Y-79537500D01*
G75*
G02*
X125925000Y-79625000I0J-87500D01*
G01*
X125925000Y-80275000D01*
G75*
G02*
X125837500Y-80362500I-87500J0D01*
G01*
G37*
G36*
G01*
X125337500Y-80362500D02*
X125162500Y-80362500D01*
G75*
G02*
X125075000Y-80275000I0J87500D01*
G01*
X125075000Y-79625000D01*
G75*
G02*
X125162500Y-79537500I87500J0D01*
G01*
X125337500Y-79537500D01*
G75*
G02*
X125425000Y-79625000I0J-87500D01*
G01*
X125425000Y-80275000D01*
G75*
G02*
X125337500Y-80362500I-87500J0D01*
G01*
G37*
G36*
G01*
X125337500Y-82387500D02*
X125162500Y-82387500D01*
G75*
G02*
X125075000Y-82300000I0J87500D01*
G01*
X125075000Y-81650000D01*
G75*
G02*
X125162500Y-81562500I87500J0D01*
G01*
X125337500Y-81562500D01*
G75*
G02*
X125425000Y-81650000I0J-87500D01*
G01*
X125425000Y-82300000D01*
G75*
G02*
X125337500Y-82387500I-87500J0D01*
G01*
G37*
G36*
G01*
X125837500Y-82387500D02*
X125662500Y-82387500D01*
G75*
G02*
X125575000Y-82300000I0J87500D01*
G01*
X125575000Y-81650000D01*
G75*
G02*
X125662500Y-81562500I87500J0D01*
G01*
X125837500Y-81562500D01*
G75*
G02*
X125925000Y-81650000I0J-87500D01*
G01*
X125925000Y-82300000D01*
G75*
G02*
X125837500Y-82387500I-87500J0D01*
G01*
G37*
G36*
G01*
X126337500Y-82387500D02*
X126162500Y-82387500D01*
G75*
G02*
X126075000Y-82300000I0J87500D01*
G01*
X126075000Y-81650000D01*
G75*
G02*
X126162500Y-81562500I87500J0D01*
G01*
X126337500Y-81562500D01*
G75*
G02*
X126425000Y-81650000I0J-87500D01*
G01*
X126425000Y-82300000D01*
G75*
G02*
X126337500Y-82387500I-87500J0D01*
G01*
G37*
G36*
G01*
X126837500Y-82387500D02*
X126662500Y-82387500D01*
G75*
G02*
X126575000Y-82300000I0J87500D01*
G01*
X126575000Y-81650000D01*
G75*
G02*
X126662500Y-81562500I87500J0D01*
G01*
X126837500Y-81562500D01*
G75*
G02*
X126925000Y-81650000I0J-87500D01*
G01*
X126925000Y-82300000D01*
G75*
G02*
X126837500Y-82387500I-87500J0D01*
G01*
G37*
G36*
G01*
X127337500Y-82387500D02*
X127162500Y-82387500D01*
G75*
G02*
X127075000Y-82300000I0J87500D01*
G01*
X127075000Y-81650000D01*
G75*
G02*
X127162500Y-81562500I87500J0D01*
G01*
X127337500Y-81562500D01*
G75*
G02*
X127425000Y-81650000I0J-87500D01*
G01*
X127425000Y-82300000D01*
G75*
G02*
X127337500Y-82387500I-87500J0D01*
G01*
G37*
%TD*%
D45*
%TO.C,J9*%
X132760000Y-52650000D03*
X132760000Y-51380000D03*
X131490000Y-52650000D03*
X131490000Y-51380000D03*
X130220000Y-52650000D03*
X130220000Y-51380000D03*
X128950000Y-52650000D03*
D46*
X128950000Y-51380000D03*
%TD*%
%TO.C,C10*%
G36*
G01*
X125175000Y-85238750D02*
X125175000Y-85801250D01*
G75*
G02*
X124931250Y-86045000I-243750J0D01*
G01*
X124443750Y-86045000D01*
G75*
G02*
X124200000Y-85801250I0J243750D01*
G01*
X124200000Y-85238750D01*
G75*
G02*
X124443750Y-84995000I243750J0D01*
G01*
X124931250Y-84995000D01*
G75*
G02*
X125175000Y-85238750I0J-243750D01*
G01*
G37*
G36*
G01*
X123600000Y-85238750D02*
X123600000Y-85801250D01*
G75*
G02*
X123356250Y-86045000I-243750J0D01*
G01*
X122868750Y-86045000D01*
G75*
G02*
X122625000Y-85801250I0J243750D01*
G01*
X122625000Y-85238750D01*
G75*
G02*
X122868750Y-84995000I243750J0D01*
G01*
X123356250Y-84995000D01*
G75*
G02*
X123600000Y-85238750I0J-243750D01*
G01*
G37*
%TD*%
%TO.C,C76*%
G36*
G01*
X113337500Y-78381250D02*
X113337500Y-77818750D01*
G75*
G02*
X113581250Y-77575000I243750J0D01*
G01*
X114068750Y-77575000D01*
G75*
G02*
X114312500Y-77818750I0J-243750D01*
G01*
X114312500Y-78381250D01*
G75*
G02*
X114068750Y-78625000I-243750J0D01*
G01*
X113581250Y-78625000D01*
G75*
G02*
X113337500Y-78381250I0J243750D01*
G01*
G37*
G36*
G01*
X114912500Y-78381250D02*
X114912500Y-77818750D01*
G75*
G02*
X115156250Y-77575000I243750J0D01*
G01*
X115643750Y-77575000D01*
G75*
G02*
X115887500Y-77818750I0J-243750D01*
G01*
X115887500Y-78381250D01*
G75*
G02*
X115643750Y-78625000I-243750J0D01*
G01*
X115156250Y-78625000D01*
G75*
G02*
X114912500Y-78381250I0J243750D01*
G01*
G37*
%TD*%
%TO.C,R20*%
G36*
G01*
X116360000Y-58025000D02*
X116360000Y-58275000D01*
G75*
G02*
X116235000Y-58400000I-125000J0D01*
G01*
X115925000Y-58400000D01*
G75*
G02*
X115800000Y-58275000I0J125000D01*
G01*
X115800000Y-58025000D01*
G75*
G02*
X115925000Y-57900000I125000J0D01*
G01*
X116235000Y-57900000D01*
G75*
G02*
X116360000Y-58025000I0J-125000D01*
G01*
G37*
G36*
G01*
X117000000Y-58025000D02*
X117000000Y-58275000D01*
G75*
G02*
X116875000Y-58400000I-125000J0D01*
G01*
X116565000Y-58400000D01*
G75*
G02*
X116440000Y-58275000I0J125000D01*
G01*
X116440000Y-58025000D01*
G75*
G02*
X116565000Y-57900000I125000J0D01*
G01*
X116875000Y-57900000D01*
G75*
G02*
X117000000Y-58025000I0J-125000D01*
G01*
G37*
%TD*%
%TO.C,R64*%
G36*
G01*
X117000000Y-57175000D02*
X117000000Y-57425000D01*
G75*
G02*
X116875000Y-57550000I-125000J0D01*
G01*
X116565000Y-57550000D01*
G75*
G02*
X116440000Y-57425000I0J125000D01*
G01*
X116440000Y-57175000D01*
G75*
G02*
X116565000Y-57050000I125000J0D01*
G01*
X116875000Y-57050000D01*
G75*
G02*
X117000000Y-57175000I0J-125000D01*
G01*
G37*
G36*
G01*
X116360000Y-57175000D02*
X116360000Y-57425000D01*
G75*
G02*
X116235000Y-57550000I-125000J0D01*
G01*
X115925000Y-57550000D01*
G75*
G02*
X115800000Y-57425000I0J125000D01*
G01*
X115800000Y-57175000D01*
G75*
G02*
X115925000Y-57050000I125000J0D01*
G01*
X116235000Y-57050000D01*
G75*
G02*
X116360000Y-57175000I0J-125000D01*
G01*
G37*
%TD*%
%TO.C,R7*%
G36*
G01*
X121525000Y-68140000D02*
X121275000Y-68140000D01*
G75*
G02*
X121150000Y-68015000I0J125000D01*
G01*
X121150000Y-67705000D01*
G75*
G02*
X121275000Y-67580000I125000J0D01*
G01*
X121525000Y-67580000D01*
G75*
G02*
X121650000Y-67705000I0J-125000D01*
G01*
X121650000Y-68015000D01*
G75*
G02*
X121525000Y-68140000I-125000J0D01*
G01*
G37*
G36*
G01*
X121525000Y-68780000D02*
X121275000Y-68780000D01*
G75*
G02*
X121150000Y-68655000I0J125000D01*
G01*
X121150000Y-68345000D01*
G75*
G02*
X121275000Y-68220000I125000J0D01*
G01*
X121525000Y-68220000D01*
G75*
G02*
X121650000Y-68345000I0J-125000D01*
G01*
X121650000Y-68655000D01*
G75*
G02*
X121525000Y-68780000I-125000J0D01*
G01*
G37*
%TD*%
M02*
