%TF.GenerationSoftware,KiCad,Pcbnew,(5.1.6)-1*%
%TF.CreationDate,2021-01-20T15:21:55+01:00*%
%TF.ProjectId,omodri_laas,6f6d6f64-7269-45f6-9c61-61732e6b6963,1.0*%
%TF.SameCoordinates,Original*%
%TF.FileFunction,Legend,Bot*%
%TF.FilePolarity,Positive*%
%FSLAX46Y46*%
G04 Gerber Fmt 4.6, Leading zero omitted, Abs format (unit mm)*
G04 Created by KiCad (PCBNEW (5.1.6)-1) date 2021-01-20 15:21:55*
%MOMM*%
%LPD*%
G01*
G04 APERTURE LIST*
%ADD10C,0.120000*%
%ADD11C,0.152400*%
%ADD12C,0.100000*%
%ADD13C,0.150000*%
G04 APERTURE END LIST*
D10*
X125457142Y-51271428D02*
X125457142Y-51757142D01*
X125428571Y-51814285D01*
X125400000Y-51842857D01*
X125342857Y-51871428D01*
X125228571Y-51871428D01*
X125171428Y-51842857D01*
X125142857Y-51814285D01*
X125114285Y-51757142D01*
X125114285Y-51271428D01*
X124857142Y-51842857D02*
X124771428Y-51871428D01*
X124628571Y-51871428D01*
X124571428Y-51842857D01*
X124542857Y-51814285D01*
X124514285Y-51757142D01*
X124514285Y-51700000D01*
X124542857Y-51642857D01*
X124571428Y-51614285D01*
X124628571Y-51585714D01*
X124742857Y-51557142D01*
X124800000Y-51528571D01*
X124828571Y-51500000D01*
X124857142Y-51442857D01*
X124857142Y-51385714D01*
X124828571Y-51328571D01*
X124800000Y-51300000D01*
X124742857Y-51271428D01*
X124600000Y-51271428D01*
X124514285Y-51300000D01*
X124057142Y-51557142D02*
X123971428Y-51585714D01*
X123942857Y-51614285D01*
X123914285Y-51671428D01*
X123914285Y-51757142D01*
X123942857Y-51814285D01*
X123971428Y-51842857D01*
X124028571Y-51871428D01*
X124257142Y-51871428D01*
X124257142Y-51271428D01*
X124057142Y-51271428D01*
X124000000Y-51300000D01*
X123971428Y-51328571D01*
X123942857Y-51385714D01*
X123942857Y-51442857D01*
X123971428Y-51500000D01*
X124000000Y-51528571D01*
X124057142Y-51557142D01*
X124257142Y-51557142D01*
D11*
%TO.C,Q2*%
X110200001Y-84350000D02*
X113399999Y-84350000D01*
X110200001Y-90649998D02*
X113399999Y-90649998D01*
%TO.C,Q5*%
X139799999Y-89650000D02*
X136600001Y-89650000D01*
X139799999Y-83350002D02*
X136600001Y-83350002D01*
D10*
%TO.C,J15*%
X114750000Y-60702500D02*
X111250000Y-60702500D01*
X111250000Y-69297500D02*
X114750000Y-69297500D01*
X113790000Y-61642500D02*
X112210000Y-61642500D01*
X112210000Y-68357500D02*
X113790000Y-68357500D01*
X111500000Y-59470000D02*
X110500000Y-60470000D01*
X111500000Y-70530000D02*
X110500000Y-69530000D01*
X111500000Y-70530000D02*
X115500000Y-70530000D01*
X111500000Y-59470000D02*
X115500000Y-59470000D01*
X115500000Y-70530000D02*
X115500000Y-59470000D01*
X110500000Y-69530000D02*
X110500000Y-60470000D01*
X114750000Y-69297500D02*
X114750000Y-68500000D01*
X111250000Y-69297500D02*
X111250000Y-68500000D01*
X114750000Y-60702500D02*
X114750000Y-61500000D01*
X111250000Y-60702500D02*
X111250000Y-61500000D01*
%TO.C,U13*%
X144950000Y-59324995D02*
X143350000Y-59324995D01*
X144950000Y-62924995D02*
X143350000Y-62924995D01*
%TO.C,U4*%
X119700000Y-81262500D02*
X119700000Y-81862500D01*
X119700000Y-79862500D02*
X119700000Y-80462500D01*
X121900000Y-79862500D02*
X121900000Y-80462500D01*
X121900000Y-81262500D02*
X121900000Y-82362500D01*
%TO.C,U3*%
X124250000Y-75650000D02*
X123650000Y-75650000D01*
X125650000Y-75650000D02*
X125050000Y-75650000D01*
X125650000Y-77850000D02*
X125050000Y-77850000D01*
X124250000Y-77850000D02*
X123150000Y-77850000D01*
%TO.C,R56*%
X131900000Y-89600000D02*
X133500000Y-89600000D01*
X131150000Y-83900000D02*
X131150000Y-84200000D01*
X133500000Y-83200000D02*
X131900000Y-83200000D01*
X134300000Y-84200000D02*
X134300000Y-83900000D01*
%TO.C,C9*%
X127397936Y-83310000D02*
X128602064Y-83310000D01*
X127397936Y-86030000D02*
X128602064Y-86030000D01*
%TO.C,C13*%
X121437779Y-83883750D02*
X121112221Y-83883750D01*
X121437779Y-82863750D02*
X121112221Y-82863750D01*
%TO.C,C14*%
X123237221Y-66390000D02*
X123562779Y-66390000D01*
X123237221Y-67410000D02*
X123562779Y-67410000D01*
%TO.C,C16*%
X130490000Y-64562779D02*
X130490000Y-64237221D01*
X131510000Y-64562779D02*
X131510000Y-64237221D01*
%TO.C,C19*%
X129792000Y-80557221D02*
X129792000Y-80882779D01*
X128772000Y-80557221D02*
X128772000Y-80882779D01*
%TO.C,C21*%
X119785279Y-78990000D02*
X119459721Y-78990000D01*
X119785279Y-77970000D02*
X119459721Y-77970000D01*
%TO.C,C22*%
X123637221Y-61990000D02*
X123962779Y-61990000D01*
X123637221Y-63010000D02*
X123962779Y-63010000D01*
%TO.C,C28*%
X141010000Y-68249721D02*
X141010000Y-68575279D01*
X139990000Y-68249721D02*
X139990000Y-68575279D01*
%TO.C,C75*%
X114472936Y-73950000D02*
X115677064Y-73950000D01*
X114472936Y-76670000D02*
X115677064Y-76670000D01*
%TO.C,C79*%
X111065000Y-72262779D02*
X111065000Y-71937221D01*
X112085000Y-72262779D02*
X112085000Y-71937221D01*
%TO.C,FB1*%
X128560000Y-75356921D02*
X128560000Y-75682479D01*
X127540000Y-75356921D02*
X127540000Y-75682479D01*
%TO.C,FB2*%
X130260000Y-75356921D02*
X130260000Y-75682479D01*
X129240000Y-75356921D02*
X129240000Y-75682479D01*
%TO.C,FB3*%
X120880000Y-75954721D02*
X120880000Y-76280279D01*
X119860000Y-75954721D02*
X119860000Y-76280279D01*
%TO.C,R42*%
X116500000Y-89600000D02*
X118100000Y-89600000D01*
X115750000Y-83900000D02*
X115750000Y-84200000D01*
X118100000Y-83200000D02*
X116500000Y-83200000D01*
X118900000Y-84200000D02*
X118900000Y-83900000D01*
%TO.C,U12*%
X124150000Y-56660000D02*
X124150000Y-55110000D01*
X125850000Y-56810000D02*
X125850000Y-55110000D01*
%TO.C,U14*%
X138237500Y-59210000D02*
X134637500Y-59210000D01*
X138237500Y-59210000D02*
X140437500Y-59210000D01*
X138237500Y-53740000D02*
X136037500Y-53740000D01*
X138237500Y-53740000D02*
X140437500Y-53740000D01*
%TO.C,C114*%
X118210000Y-94334252D02*
X118210000Y-97165748D01*
X112990000Y-94334252D02*
X112990000Y-97165748D01*
%TO.C,C115*%
X127610000Y-94334252D02*
X127610000Y-97165748D01*
X122390000Y-94334252D02*
X122390000Y-97165748D01*
%TO.C,C116*%
X137010000Y-94334252D02*
X137010000Y-97165748D01*
X131790000Y-94334252D02*
X131790000Y-97165748D01*
%TO.C,U5*%
X142790000Y-67020000D02*
X145220000Y-67020000D01*
X144550000Y-70090000D02*
X142790000Y-70090000D01*
%TO.C,U11*%
X118700000Y-58595000D02*
X118700000Y-57045000D01*
X120400000Y-58745000D02*
X120400000Y-57045000D01*
%TO.C,U19*%
X109635000Y-72090000D02*
X110110000Y-72090000D01*
X103890000Y-78310000D02*
X103890000Y-77835000D01*
X104365000Y-78310000D02*
X103890000Y-78310000D01*
X110110000Y-78310000D02*
X110110000Y-77835000D01*
X109635000Y-78310000D02*
X110110000Y-78310000D01*
X103890000Y-72090000D02*
X103890000Y-72565000D01*
X104365000Y-72090000D02*
X103890000Y-72090000D01*
%TO.C,J16*%
X138750000Y-60702500D02*
X135250000Y-60702500D01*
X135250000Y-69297500D02*
X138750000Y-69297500D01*
X137790000Y-61642500D02*
X136210000Y-61642500D01*
X136210000Y-68357500D02*
X137790000Y-68357500D01*
X135500000Y-59470000D02*
X134500000Y-60470000D01*
X135500000Y-70530000D02*
X134500000Y-69530000D01*
X135500000Y-70530000D02*
X139500000Y-70530000D01*
X135500000Y-59470000D02*
X139500000Y-59470000D01*
X139500000Y-70530000D02*
X139500000Y-59470000D01*
X134500000Y-69530000D02*
X134500000Y-60470000D01*
X138750000Y-69297500D02*
X138750000Y-68500000D01*
X135250000Y-69297500D02*
X135250000Y-68500000D01*
X138750000Y-60702500D02*
X138750000Y-61500000D01*
X135250000Y-60702500D02*
X135250000Y-61500000D01*
%TO.C,J14*%
X115240000Y-50050000D02*
X115240000Y-50310000D01*
X115240000Y-52590000D02*
X115240000Y-54360000D01*
X115240000Y-54360000D02*
X115620000Y-54360000D01*
X122860000Y-54360000D02*
X122860000Y-52590000D01*
X122860000Y-50310000D02*
X122860000Y-50050000D01*
X122860000Y-54360000D02*
X122480000Y-54360000D01*
D12*
%TO.C,D2*%
X147040000Y-84425000D02*
G75*
G03*
X147040000Y-84425000I-50000J0D01*
G01*
%TO.C,D6*%
X147040000Y-91425000D02*
G75*
G03*
X147040000Y-91425000I-50000J0D01*
G01*
%TO.C,D7*%
X147040000Y-87925000D02*
G75*
G03*
X147040000Y-87925000I-50000J0D01*
G01*
%TO.C,D8*%
X103070000Y-89580000D02*
G75*
G03*
X103070000Y-89580000I-50000J0D01*
G01*
%TO.C,D9*%
X103060000Y-82580000D02*
G75*
G03*
X103060000Y-82580000I-50000J0D01*
G01*
%TO.C,D10*%
X103065000Y-86080000D02*
G75*
G03*
X103065000Y-86080000I-50000J0D01*
G01*
%TO.C,D11*%
X106250000Y-94690000D02*
G75*
G03*
X106250000Y-94690000I-50000J0D01*
G01*
%TO.C,D12*%
X105930000Y-69050000D02*
G75*
G03*
X105930000Y-69050000I-50000J0D01*
G01*
D10*
%TO.C,U2*%
X124640000Y-81962500D02*
X124640000Y-79962500D01*
X127860000Y-80962500D02*
X127860000Y-79962500D01*
%TO.C,C10*%
X124062779Y-86030000D02*
X123737221Y-86030000D01*
X124062779Y-85010000D02*
X123737221Y-85010000D01*
%TO.C,C76*%
X114449721Y-77590000D02*
X114775279Y-77590000D01*
X114449721Y-78610000D02*
X114775279Y-78610000D01*
%TO.C,Q2*%
X109857142Y-84128571D02*
X109914285Y-84100000D01*
X109971428Y-84042857D01*
X110057142Y-83957142D01*
X110114285Y-83928571D01*
X110171428Y-83928571D01*
X110142857Y-84071428D02*
X110200000Y-84042857D01*
X110257142Y-83985714D01*
X110285714Y-83871428D01*
X110285714Y-83671428D01*
X110257142Y-83557142D01*
X110200000Y-83500000D01*
X110142857Y-83471428D01*
X110028571Y-83471428D01*
X109971428Y-83500000D01*
X109914285Y-83557142D01*
X109885714Y-83671428D01*
X109885714Y-83871428D01*
X109914285Y-83985714D01*
X109971428Y-84042857D01*
X110028571Y-84071428D01*
X110142857Y-84071428D01*
X109657142Y-83528571D02*
X109628571Y-83500000D01*
X109571428Y-83471428D01*
X109428571Y-83471428D01*
X109371428Y-83500000D01*
X109342857Y-83528571D01*
X109314285Y-83585714D01*
X109314285Y-83642857D01*
X109342857Y-83728571D01*
X109685714Y-84071428D01*
X109314285Y-84071428D01*
D13*
X108800000Y-89952379D02*
X108800000Y-90190475D01*
X109038095Y-90095237D02*
X108800000Y-90190475D01*
X108561904Y-90095237D01*
X108942857Y-90380951D02*
X108800000Y-90190475D01*
X108657142Y-90380951D01*
X108800000Y-89952379D02*
X108800000Y-90190475D01*
X109038095Y-90095237D02*
X108800000Y-90190475D01*
X108561904Y-90095237D01*
X108942857Y-90380951D02*
X108800000Y-90190475D01*
X108657142Y-90380951D01*
%TO.C,Q5*%
D10*
X136457142Y-83028571D02*
X136514285Y-83000000D01*
X136571428Y-82942857D01*
X136657142Y-82857142D01*
X136714285Y-82828571D01*
X136771428Y-82828571D01*
X136742857Y-82971428D02*
X136800000Y-82942857D01*
X136857142Y-82885714D01*
X136885714Y-82771428D01*
X136885714Y-82571428D01*
X136857142Y-82457142D01*
X136800000Y-82400000D01*
X136742857Y-82371428D01*
X136628571Y-82371428D01*
X136571428Y-82400000D01*
X136514285Y-82457142D01*
X136485714Y-82571428D01*
X136485714Y-82771428D01*
X136514285Y-82885714D01*
X136571428Y-82942857D01*
X136628571Y-82971428D01*
X136742857Y-82971428D01*
X135942857Y-82371428D02*
X136228571Y-82371428D01*
X136257142Y-82657142D01*
X136228571Y-82628571D01*
X136171428Y-82600000D01*
X136028571Y-82600000D01*
X135971428Y-82628571D01*
X135942857Y-82657142D01*
X135914285Y-82714285D01*
X135914285Y-82857142D01*
X135942857Y-82914285D01*
X135971428Y-82942857D01*
X136028571Y-82971428D01*
X136171428Y-82971428D01*
X136228571Y-82942857D01*
X136257142Y-82914285D01*
D13*
X141200000Y-82952381D02*
X141200000Y-83190477D01*
X141438095Y-83095239D02*
X141200000Y-83190477D01*
X140961904Y-83095239D01*
X141342857Y-83380953D02*
X141200000Y-83190477D01*
X141057142Y-83380953D01*
X141200000Y-82952381D02*
X141200000Y-83190477D01*
X141438095Y-83095239D02*
X141200000Y-83190477D01*
X140961904Y-83095239D01*
X141342857Y-83380953D02*
X141200000Y-83190477D01*
X141057142Y-83380953D01*
%TO.C,J15*%
D10*
X112785714Y-58671428D02*
X112785714Y-59100000D01*
X112814285Y-59185714D01*
X112871428Y-59242857D01*
X112957142Y-59271428D01*
X113014285Y-59271428D01*
X112185714Y-59271428D02*
X112528571Y-59271428D01*
X112357142Y-59271428D02*
X112357142Y-58671428D01*
X112414285Y-58757142D01*
X112471428Y-58814285D01*
X112528571Y-58842857D01*
X111642857Y-58671428D02*
X111928571Y-58671428D01*
X111957142Y-58957142D01*
X111928571Y-58928571D01*
X111871428Y-58900000D01*
X111728571Y-58900000D01*
X111671428Y-58928571D01*
X111642857Y-58957142D01*
X111614285Y-59014285D01*
X111614285Y-59157142D01*
X111642857Y-59214285D01*
X111671428Y-59242857D01*
X111728571Y-59271428D01*
X111871428Y-59271428D01*
X111928571Y-59242857D01*
X111957142Y-59214285D01*
%TO.C,U13*%
X144892857Y-58471428D02*
X144892857Y-58957142D01*
X144864285Y-59014285D01*
X144835714Y-59042857D01*
X144778571Y-59071428D01*
X144664285Y-59071428D01*
X144607142Y-59042857D01*
X144578571Y-59014285D01*
X144550000Y-58957142D01*
X144550000Y-58471428D01*
X143950000Y-59071428D02*
X144292857Y-59071428D01*
X144121428Y-59071428D02*
X144121428Y-58471428D01*
X144178571Y-58557142D01*
X144235714Y-58614285D01*
X144292857Y-58642857D01*
X143750000Y-58471428D02*
X143378571Y-58471428D01*
X143578571Y-58700000D01*
X143492857Y-58700000D01*
X143435714Y-58728571D01*
X143407142Y-58757142D01*
X143378571Y-58814285D01*
X143378571Y-58957142D01*
X143407142Y-59014285D01*
X143435714Y-59042857D01*
X143492857Y-59071428D01*
X143664285Y-59071428D01*
X143721428Y-59042857D01*
X143750000Y-59014285D01*
%TO.C,C88*%
X104585714Y-85614285D02*
X104614285Y-85642857D01*
X104700000Y-85671428D01*
X104757142Y-85671428D01*
X104842857Y-85642857D01*
X104900000Y-85585714D01*
X104928571Y-85528571D01*
X104957142Y-85414285D01*
X104957142Y-85328571D01*
X104928571Y-85214285D01*
X104900000Y-85157142D01*
X104842857Y-85100000D01*
X104757142Y-85071428D01*
X104700000Y-85071428D01*
X104614285Y-85100000D01*
X104585714Y-85128571D01*
X104242857Y-85328571D02*
X104300000Y-85300000D01*
X104328571Y-85271428D01*
X104357142Y-85214285D01*
X104357142Y-85185714D01*
X104328571Y-85128571D01*
X104300000Y-85100000D01*
X104242857Y-85071428D01*
X104128571Y-85071428D01*
X104071428Y-85100000D01*
X104042857Y-85128571D01*
X104014285Y-85185714D01*
X104014285Y-85214285D01*
X104042857Y-85271428D01*
X104071428Y-85300000D01*
X104128571Y-85328571D01*
X104242857Y-85328571D01*
X104300000Y-85357142D01*
X104328571Y-85385714D01*
X104357142Y-85442857D01*
X104357142Y-85557142D01*
X104328571Y-85614285D01*
X104300000Y-85642857D01*
X104242857Y-85671428D01*
X104128571Y-85671428D01*
X104071428Y-85642857D01*
X104042857Y-85614285D01*
X104014285Y-85557142D01*
X104014285Y-85442857D01*
X104042857Y-85385714D01*
X104071428Y-85357142D01*
X104128571Y-85328571D01*
X103671428Y-85328571D02*
X103728571Y-85300000D01*
X103757142Y-85271428D01*
X103785714Y-85214285D01*
X103785714Y-85185714D01*
X103757142Y-85128571D01*
X103728571Y-85100000D01*
X103671428Y-85071428D01*
X103557142Y-85071428D01*
X103500000Y-85100000D01*
X103471428Y-85128571D01*
X103442857Y-85185714D01*
X103442857Y-85214285D01*
X103471428Y-85271428D01*
X103500000Y-85300000D01*
X103557142Y-85328571D01*
X103671428Y-85328571D01*
X103728571Y-85357142D01*
X103757142Y-85385714D01*
X103785714Y-85442857D01*
X103785714Y-85557142D01*
X103757142Y-85614285D01*
X103728571Y-85642857D01*
X103671428Y-85671428D01*
X103557142Y-85671428D01*
X103500000Y-85642857D01*
X103471428Y-85614285D01*
X103442857Y-85557142D01*
X103442857Y-85442857D01*
X103471428Y-85385714D01*
X103500000Y-85357142D01*
X103557142Y-85328571D01*
%TO.C,R61*%
X146185714Y-73871428D02*
X146385714Y-73585714D01*
X146528571Y-73871428D02*
X146528571Y-73271428D01*
X146300000Y-73271428D01*
X146242857Y-73300000D01*
X146214285Y-73328571D01*
X146185714Y-73385714D01*
X146185714Y-73471428D01*
X146214285Y-73528571D01*
X146242857Y-73557142D01*
X146300000Y-73585714D01*
X146528571Y-73585714D01*
X145671428Y-73271428D02*
X145785714Y-73271428D01*
X145842857Y-73300000D01*
X145871428Y-73328571D01*
X145928571Y-73414285D01*
X145957142Y-73528571D01*
X145957142Y-73757142D01*
X145928571Y-73814285D01*
X145900000Y-73842857D01*
X145842857Y-73871428D01*
X145728571Y-73871428D01*
X145671428Y-73842857D01*
X145642857Y-73814285D01*
X145614285Y-73757142D01*
X145614285Y-73614285D01*
X145642857Y-73557142D01*
X145671428Y-73528571D01*
X145728571Y-73500000D01*
X145842857Y-73500000D01*
X145900000Y-73528571D01*
X145928571Y-73557142D01*
X145957142Y-73614285D01*
X145042857Y-73871428D02*
X145385714Y-73871428D01*
X145214285Y-73871428D02*
X145214285Y-73271428D01*
X145271428Y-73357142D01*
X145328571Y-73414285D01*
X145385714Y-73442857D01*
%TO.C,R60*%
X148085714Y-76271428D02*
X148285714Y-75985714D01*
X148428571Y-76271428D02*
X148428571Y-75671428D01*
X148200000Y-75671428D01*
X148142857Y-75700000D01*
X148114285Y-75728571D01*
X148085714Y-75785714D01*
X148085714Y-75871428D01*
X148114285Y-75928571D01*
X148142857Y-75957142D01*
X148200000Y-75985714D01*
X148428571Y-75985714D01*
X147571428Y-75671428D02*
X147685714Y-75671428D01*
X147742857Y-75700000D01*
X147771428Y-75728571D01*
X147828571Y-75814285D01*
X147857142Y-75928571D01*
X147857142Y-76157142D01*
X147828571Y-76214285D01*
X147800000Y-76242857D01*
X147742857Y-76271428D01*
X147628571Y-76271428D01*
X147571428Y-76242857D01*
X147542857Y-76214285D01*
X147514285Y-76157142D01*
X147514285Y-76014285D01*
X147542857Y-75957142D01*
X147571428Y-75928571D01*
X147628571Y-75900000D01*
X147742857Y-75900000D01*
X147800000Y-75928571D01*
X147828571Y-75957142D01*
X147857142Y-76014285D01*
X147142857Y-75671428D02*
X147085714Y-75671428D01*
X147028571Y-75700000D01*
X147000000Y-75728571D01*
X146971428Y-75785714D01*
X146942857Y-75900000D01*
X146942857Y-76042857D01*
X146971428Y-76157142D01*
X147000000Y-76214285D01*
X147028571Y-76242857D01*
X147085714Y-76271428D01*
X147142857Y-76271428D01*
X147200000Y-76242857D01*
X147228571Y-76214285D01*
X147257142Y-76157142D01*
X147285714Y-76042857D01*
X147285714Y-75900000D01*
X147257142Y-75785714D01*
X147228571Y-75728571D01*
X147200000Y-75700000D01*
X147142857Y-75671428D01*
%TO.C,C98*%
X146455714Y-78914285D02*
X146484285Y-78942857D01*
X146570000Y-78971428D01*
X146627142Y-78971428D01*
X146712857Y-78942857D01*
X146770000Y-78885714D01*
X146798571Y-78828571D01*
X146827142Y-78714285D01*
X146827142Y-78628571D01*
X146798571Y-78514285D01*
X146770000Y-78457142D01*
X146712857Y-78400000D01*
X146627142Y-78371428D01*
X146570000Y-78371428D01*
X146484285Y-78400000D01*
X146455714Y-78428571D01*
X146170000Y-78971428D02*
X146055714Y-78971428D01*
X145998571Y-78942857D01*
X145970000Y-78914285D01*
X145912857Y-78828571D01*
X145884285Y-78714285D01*
X145884285Y-78485714D01*
X145912857Y-78428571D01*
X145941428Y-78400000D01*
X145998571Y-78371428D01*
X146112857Y-78371428D01*
X146170000Y-78400000D01*
X146198571Y-78428571D01*
X146227142Y-78485714D01*
X146227142Y-78628571D01*
X146198571Y-78685714D01*
X146170000Y-78714285D01*
X146112857Y-78742857D01*
X145998571Y-78742857D01*
X145941428Y-78714285D01*
X145912857Y-78685714D01*
X145884285Y-78628571D01*
X145541428Y-78628571D02*
X145598571Y-78600000D01*
X145627142Y-78571428D01*
X145655714Y-78514285D01*
X145655714Y-78485714D01*
X145627142Y-78428571D01*
X145598571Y-78400000D01*
X145541428Y-78371428D01*
X145427142Y-78371428D01*
X145370000Y-78400000D01*
X145341428Y-78428571D01*
X145312857Y-78485714D01*
X145312857Y-78514285D01*
X145341428Y-78571428D01*
X145370000Y-78600000D01*
X145427142Y-78628571D01*
X145541428Y-78628571D01*
X145598571Y-78657142D01*
X145627142Y-78685714D01*
X145655714Y-78742857D01*
X145655714Y-78857142D01*
X145627142Y-78914285D01*
X145598571Y-78942857D01*
X145541428Y-78971428D01*
X145427142Y-78971428D01*
X145370000Y-78942857D01*
X145341428Y-78914285D01*
X145312857Y-78857142D01*
X145312857Y-78742857D01*
X145341428Y-78685714D01*
X145370000Y-78657142D01*
X145427142Y-78628571D01*
%TO.C,U4*%
X119257142Y-79771428D02*
X119257142Y-80257142D01*
X119228571Y-80314285D01*
X119200000Y-80342857D01*
X119142857Y-80371428D01*
X119028571Y-80371428D01*
X118971428Y-80342857D01*
X118942857Y-80314285D01*
X118914285Y-80257142D01*
X118914285Y-79771428D01*
X118371428Y-79971428D02*
X118371428Y-80371428D01*
X118514285Y-79742857D02*
X118657142Y-80171428D01*
X118285714Y-80171428D01*
%TO.C,U3*%
X124340342Y-74576728D02*
X124340342Y-75062442D01*
X124311771Y-75119585D01*
X124283200Y-75148157D01*
X124226057Y-75176728D01*
X124111771Y-75176728D01*
X124054628Y-75148157D01*
X124026057Y-75119585D01*
X123997485Y-75062442D01*
X123997485Y-74576728D01*
X123768914Y-74576728D02*
X123397485Y-74576728D01*
X123597485Y-74805300D01*
X123511771Y-74805300D01*
X123454628Y-74833871D01*
X123426057Y-74862442D01*
X123397485Y-74919585D01*
X123397485Y-75062442D01*
X123426057Y-75119585D01*
X123454628Y-75148157D01*
X123511771Y-75176728D01*
X123683200Y-75176728D01*
X123740342Y-75148157D01*
X123768914Y-75119585D01*
%TO.C,R56*%
X134485714Y-90571428D02*
X134685714Y-90285714D01*
X134828571Y-90571428D02*
X134828571Y-89971428D01*
X134600000Y-89971428D01*
X134542857Y-90000000D01*
X134514285Y-90028571D01*
X134485714Y-90085714D01*
X134485714Y-90171428D01*
X134514285Y-90228571D01*
X134542857Y-90257142D01*
X134600000Y-90285714D01*
X134828571Y-90285714D01*
X133942857Y-89971428D02*
X134228571Y-89971428D01*
X134257142Y-90257142D01*
X134228571Y-90228571D01*
X134171428Y-90200000D01*
X134028571Y-90200000D01*
X133971428Y-90228571D01*
X133942857Y-90257142D01*
X133914285Y-90314285D01*
X133914285Y-90457142D01*
X133942857Y-90514285D01*
X133971428Y-90542857D01*
X134028571Y-90571428D01*
X134171428Y-90571428D01*
X134228571Y-90542857D01*
X134257142Y-90514285D01*
X133400000Y-89971428D02*
X133514285Y-89971428D01*
X133571428Y-90000000D01*
X133600000Y-90028571D01*
X133657142Y-90114285D01*
X133685714Y-90228571D01*
X133685714Y-90457142D01*
X133657142Y-90514285D01*
X133628571Y-90542857D01*
X133571428Y-90571428D01*
X133457142Y-90571428D01*
X133400000Y-90542857D01*
X133371428Y-90514285D01*
X133342857Y-90457142D01*
X133342857Y-90314285D01*
X133371428Y-90257142D01*
X133400000Y-90228571D01*
X133457142Y-90200000D01*
X133571428Y-90200000D01*
X133628571Y-90228571D01*
X133657142Y-90257142D01*
X133685714Y-90314285D01*
%TO.C,C1*%
X105120000Y-67314285D02*
X105148571Y-67342857D01*
X105234285Y-67371428D01*
X105291428Y-67371428D01*
X105377142Y-67342857D01*
X105434285Y-67285714D01*
X105462857Y-67228571D01*
X105491428Y-67114285D01*
X105491428Y-67028571D01*
X105462857Y-66914285D01*
X105434285Y-66857142D01*
X105377142Y-66800000D01*
X105291428Y-66771428D01*
X105234285Y-66771428D01*
X105148571Y-66800000D01*
X105120000Y-66828571D01*
X104548571Y-67371428D02*
X104891428Y-67371428D01*
X104720000Y-67371428D02*
X104720000Y-66771428D01*
X104777142Y-66857142D01*
X104834285Y-66914285D01*
X104891428Y-66942857D01*
%TO.C,C3*%
X129214285Y-63500000D02*
X129242857Y-63471428D01*
X129271428Y-63385714D01*
X129271428Y-63328571D01*
X129242857Y-63242857D01*
X129185714Y-63185714D01*
X129128571Y-63157142D01*
X129014285Y-63128571D01*
X128928571Y-63128571D01*
X128814285Y-63157142D01*
X128757142Y-63185714D01*
X128700000Y-63242857D01*
X128671428Y-63328571D01*
X128671428Y-63385714D01*
X128700000Y-63471428D01*
X128728571Y-63500000D01*
X128671428Y-63700000D02*
X128671428Y-64071428D01*
X128900000Y-63871428D01*
X128900000Y-63957142D01*
X128928571Y-64014285D01*
X128957142Y-64042857D01*
X129014285Y-64071428D01*
X129157142Y-64071428D01*
X129214285Y-64042857D01*
X129242857Y-64014285D01*
X129271428Y-63957142D01*
X129271428Y-63785714D01*
X129242857Y-63728571D01*
X129214285Y-63700000D01*
%TO.C,C4*%
X129100000Y-67914285D02*
X129128571Y-67942857D01*
X129214285Y-67971428D01*
X129271428Y-67971428D01*
X129357142Y-67942857D01*
X129414285Y-67885714D01*
X129442857Y-67828571D01*
X129471428Y-67714285D01*
X129471428Y-67628571D01*
X129442857Y-67514285D01*
X129414285Y-67457142D01*
X129357142Y-67400000D01*
X129271428Y-67371428D01*
X129214285Y-67371428D01*
X129128571Y-67400000D01*
X129100000Y-67428571D01*
X128585714Y-67571428D02*
X128585714Y-67971428D01*
X128728571Y-67342857D02*
X128871428Y-67771428D01*
X128500000Y-67771428D01*
%TO.C,C5*%
X130000000Y-61514285D02*
X130028571Y-61542857D01*
X130114285Y-61571428D01*
X130171428Y-61571428D01*
X130257142Y-61542857D01*
X130314285Y-61485714D01*
X130342857Y-61428571D01*
X130371428Y-61314285D01*
X130371428Y-61228571D01*
X130342857Y-61114285D01*
X130314285Y-61057142D01*
X130257142Y-61000000D01*
X130171428Y-60971428D01*
X130114285Y-60971428D01*
X130028571Y-61000000D01*
X130000000Y-61028571D01*
X129457142Y-60971428D02*
X129742857Y-60971428D01*
X129771428Y-61257142D01*
X129742857Y-61228571D01*
X129685714Y-61200000D01*
X129542857Y-61200000D01*
X129485714Y-61228571D01*
X129457142Y-61257142D01*
X129428571Y-61314285D01*
X129428571Y-61457142D01*
X129457142Y-61514285D01*
X129485714Y-61542857D01*
X129542857Y-61571428D01*
X129685714Y-61571428D01*
X129742857Y-61542857D01*
X129771428Y-61514285D01*
%TO.C,C6*%
X130000000Y-60714285D02*
X130028571Y-60742857D01*
X130114285Y-60771428D01*
X130171428Y-60771428D01*
X130257142Y-60742857D01*
X130314285Y-60685714D01*
X130342857Y-60628571D01*
X130371428Y-60514285D01*
X130371428Y-60428571D01*
X130342857Y-60314285D01*
X130314285Y-60257142D01*
X130257142Y-60200000D01*
X130171428Y-60171428D01*
X130114285Y-60171428D01*
X130028571Y-60200000D01*
X130000000Y-60228571D01*
X129485714Y-60171428D02*
X129600000Y-60171428D01*
X129657142Y-60200000D01*
X129685714Y-60228571D01*
X129742857Y-60314285D01*
X129771428Y-60428571D01*
X129771428Y-60657142D01*
X129742857Y-60714285D01*
X129714285Y-60742857D01*
X129657142Y-60771428D01*
X129542857Y-60771428D01*
X129485714Y-60742857D01*
X129457142Y-60714285D01*
X129428571Y-60657142D01*
X129428571Y-60514285D01*
X129457142Y-60457142D01*
X129485714Y-60428571D01*
X129542857Y-60400000D01*
X129657142Y-60400000D01*
X129714285Y-60428571D01*
X129742857Y-60457142D01*
X129771428Y-60514285D01*
%TO.C,C7*%
X122695000Y-56414285D02*
X122723571Y-56442857D01*
X122809285Y-56471428D01*
X122866428Y-56471428D01*
X122952142Y-56442857D01*
X123009285Y-56385714D01*
X123037857Y-56328571D01*
X123066428Y-56214285D01*
X123066428Y-56128571D01*
X123037857Y-56014285D01*
X123009285Y-55957142D01*
X122952142Y-55900000D01*
X122866428Y-55871428D01*
X122809285Y-55871428D01*
X122723571Y-55900000D01*
X122695000Y-55928571D01*
X122495000Y-55871428D02*
X122095000Y-55871428D01*
X122352142Y-56471428D01*
%TO.C,C8*%
X122700000Y-55614285D02*
X122728571Y-55642857D01*
X122814285Y-55671428D01*
X122871428Y-55671428D01*
X122957142Y-55642857D01*
X123014285Y-55585714D01*
X123042857Y-55528571D01*
X123071428Y-55414285D01*
X123071428Y-55328571D01*
X123042857Y-55214285D01*
X123014285Y-55157142D01*
X122957142Y-55100000D01*
X122871428Y-55071428D01*
X122814285Y-55071428D01*
X122728571Y-55100000D01*
X122700000Y-55128571D01*
X122357142Y-55328571D02*
X122414285Y-55300000D01*
X122442857Y-55271428D01*
X122471428Y-55214285D01*
X122471428Y-55185714D01*
X122442857Y-55128571D01*
X122414285Y-55100000D01*
X122357142Y-55071428D01*
X122242857Y-55071428D01*
X122185714Y-55100000D01*
X122157142Y-55128571D01*
X122128571Y-55185714D01*
X122128571Y-55214285D01*
X122157142Y-55271428D01*
X122185714Y-55300000D01*
X122242857Y-55328571D01*
X122357142Y-55328571D01*
X122414285Y-55357142D01*
X122442857Y-55385714D01*
X122471428Y-55442857D01*
X122471428Y-55557142D01*
X122442857Y-55614285D01*
X122414285Y-55642857D01*
X122357142Y-55671428D01*
X122242857Y-55671428D01*
X122185714Y-55642857D01*
X122157142Y-55614285D01*
X122128571Y-55557142D01*
X122128571Y-55442857D01*
X122157142Y-55385714D01*
X122185714Y-55357142D01*
X122242857Y-55328571D01*
%TO.C,C9*%
X128100000Y-83014285D02*
X128128571Y-83042857D01*
X128214285Y-83071428D01*
X128271428Y-83071428D01*
X128357142Y-83042857D01*
X128414285Y-82985714D01*
X128442857Y-82928571D01*
X128471428Y-82814285D01*
X128471428Y-82728571D01*
X128442857Y-82614285D01*
X128414285Y-82557142D01*
X128357142Y-82500000D01*
X128271428Y-82471428D01*
X128214285Y-82471428D01*
X128128571Y-82500000D01*
X128100000Y-82528571D01*
X127814285Y-83071428D02*
X127700000Y-83071428D01*
X127642857Y-83042857D01*
X127614285Y-83014285D01*
X127557142Y-82928571D01*
X127528571Y-82814285D01*
X127528571Y-82585714D01*
X127557142Y-82528571D01*
X127585714Y-82500000D01*
X127642857Y-82471428D01*
X127757142Y-82471428D01*
X127814285Y-82500000D01*
X127842857Y-82528571D01*
X127871428Y-82585714D01*
X127871428Y-82728571D01*
X127842857Y-82785714D01*
X127814285Y-82814285D01*
X127757142Y-82842857D01*
X127642857Y-82842857D01*
X127585714Y-82814285D01*
X127557142Y-82785714D01*
X127528571Y-82728571D01*
%TO.C,C11*%
X124385714Y-79014285D02*
X124414285Y-79042857D01*
X124500000Y-79071428D01*
X124557142Y-79071428D01*
X124642857Y-79042857D01*
X124700000Y-78985714D01*
X124728571Y-78928571D01*
X124757142Y-78814285D01*
X124757142Y-78728571D01*
X124728571Y-78614285D01*
X124700000Y-78557142D01*
X124642857Y-78500000D01*
X124557142Y-78471428D01*
X124500000Y-78471428D01*
X124414285Y-78500000D01*
X124385714Y-78528571D01*
X123814285Y-79071428D02*
X124157142Y-79071428D01*
X123985714Y-79071428D02*
X123985714Y-78471428D01*
X124042857Y-78557142D01*
X124100000Y-78614285D01*
X124157142Y-78642857D01*
X123242857Y-79071428D02*
X123585714Y-79071428D01*
X123414285Y-79071428D02*
X123414285Y-78471428D01*
X123471428Y-78557142D01*
X123528571Y-78614285D01*
X123585714Y-78642857D01*
%TO.C,C12*%
X124355714Y-84004285D02*
X124384285Y-84032857D01*
X124470000Y-84061428D01*
X124527142Y-84061428D01*
X124612857Y-84032857D01*
X124670000Y-83975714D01*
X124698571Y-83918571D01*
X124727142Y-83804285D01*
X124727142Y-83718571D01*
X124698571Y-83604285D01*
X124670000Y-83547142D01*
X124612857Y-83490000D01*
X124527142Y-83461428D01*
X124470000Y-83461428D01*
X124384285Y-83490000D01*
X124355714Y-83518571D01*
X123784285Y-84061428D02*
X124127142Y-84061428D01*
X123955714Y-84061428D02*
X123955714Y-83461428D01*
X124012857Y-83547142D01*
X124070000Y-83604285D01*
X124127142Y-83632857D01*
X123555714Y-83518571D02*
X123527142Y-83490000D01*
X123470000Y-83461428D01*
X123327142Y-83461428D01*
X123270000Y-83490000D01*
X123241428Y-83518571D01*
X123212857Y-83575714D01*
X123212857Y-83632857D01*
X123241428Y-83718571D01*
X123584285Y-84061428D01*
X123212857Y-84061428D01*
%TO.C,C13*%
X121685714Y-84714285D02*
X121714285Y-84742857D01*
X121800000Y-84771428D01*
X121857142Y-84771428D01*
X121942857Y-84742857D01*
X122000000Y-84685714D01*
X122028571Y-84628571D01*
X122057142Y-84514285D01*
X122057142Y-84428571D01*
X122028571Y-84314285D01*
X122000000Y-84257142D01*
X121942857Y-84200000D01*
X121857142Y-84171428D01*
X121800000Y-84171428D01*
X121714285Y-84200000D01*
X121685714Y-84228571D01*
X121114285Y-84771428D02*
X121457142Y-84771428D01*
X121285714Y-84771428D02*
X121285714Y-84171428D01*
X121342857Y-84257142D01*
X121400000Y-84314285D01*
X121457142Y-84342857D01*
X120914285Y-84171428D02*
X120542857Y-84171428D01*
X120742857Y-84400000D01*
X120657142Y-84400000D01*
X120600000Y-84428571D01*
X120571428Y-84457142D01*
X120542857Y-84514285D01*
X120542857Y-84657142D01*
X120571428Y-84714285D01*
X120600000Y-84742857D01*
X120657142Y-84771428D01*
X120828571Y-84771428D01*
X120885714Y-84742857D01*
X120914285Y-84714285D01*
%TO.C,C14*%
X123785714Y-68234285D02*
X123814285Y-68262857D01*
X123900000Y-68291428D01*
X123957142Y-68291428D01*
X124042857Y-68262857D01*
X124100000Y-68205714D01*
X124128571Y-68148571D01*
X124157142Y-68034285D01*
X124157142Y-67948571D01*
X124128571Y-67834285D01*
X124100000Y-67777142D01*
X124042857Y-67720000D01*
X123957142Y-67691428D01*
X123900000Y-67691428D01*
X123814285Y-67720000D01*
X123785714Y-67748571D01*
X123214285Y-68291428D02*
X123557142Y-68291428D01*
X123385714Y-68291428D02*
X123385714Y-67691428D01*
X123442857Y-67777142D01*
X123500000Y-67834285D01*
X123557142Y-67862857D01*
X122700000Y-67891428D02*
X122700000Y-68291428D01*
X122842857Y-67662857D02*
X122985714Y-68091428D01*
X122614285Y-68091428D01*
%TO.C,C15*%
X124414285Y-64114285D02*
X124442857Y-64085714D01*
X124471428Y-64000000D01*
X124471428Y-63942857D01*
X124442857Y-63857142D01*
X124385714Y-63800000D01*
X124328571Y-63771428D01*
X124214285Y-63742857D01*
X124128571Y-63742857D01*
X124014285Y-63771428D01*
X123957142Y-63800000D01*
X123900000Y-63857142D01*
X123871428Y-63942857D01*
X123871428Y-64000000D01*
X123900000Y-64085714D01*
X123928571Y-64114285D01*
X124471428Y-64685714D02*
X124471428Y-64342857D01*
X124471428Y-64514285D02*
X123871428Y-64514285D01*
X123957142Y-64457142D01*
X124014285Y-64400000D01*
X124042857Y-64342857D01*
X123871428Y-65228571D02*
X123871428Y-64942857D01*
X124157142Y-64914285D01*
X124128571Y-64942857D01*
X124100000Y-65000000D01*
X124100000Y-65142857D01*
X124128571Y-65200000D01*
X124157142Y-65228571D01*
X124214285Y-65257142D01*
X124357142Y-65257142D01*
X124414285Y-65228571D01*
X124442857Y-65200000D01*
X124471428Y-65142857D01*
X124471428Y-65000000D01*
X124442857Y-64942857D01*
X124414285Y-64914285D01*
%TO.C,C16*%
X131385714Y-66614285D02*
X131414285Y-66642857D01*
X131500000Y-66671428D01*
X131557142Y-66671428D01*
X131642857Y-66642857D01*
X131700000Y-66585714D01*
X131728571Y-66528571D01*
X131757142Y-66414285D01*
X131757142Y-66328571D01*
X131728571Y-66214285D01*
X131700000Y-66157142D01*
X131642857Y-66100000D01*
X131557142Y-66071428D01*
X131500000Y-66071428D01*
X131414285Y-66100000D01*
X131385714Y-66128571D01*
X130814285Y-66671428D02*
X131157142Y-66671428D01*
X130985714Y-66671428D02*
X130985714Y-66071428D01*
X131042857Y-66157142D01*
X131100000Y-66214285D01*
X131157142Y-66242857D01*
X130300000Y-66071428D02*
X130414285Y-66071428D01*
X130471428Y-66100000D01*
X130500000Y-66128571D01*
X130557142Y-66214285D01*
X130585714Y-66328571D01*
X130585714Y-66557142D01*
X130557142Y-66614285D01*
X130528571Y-66642857D01*
X130471428Y-66671428D01*
X130357142Y-66671428D01*
X130300000Y-66642857D01*
X130271428Y-66614285D01*
X130242857Y-66557142D01*
X130242857Y-66414285D01*
X130271428Y-66357142D01*
X130300000Y-66328571D01*
X130357142Y-66300000D01*
X130471428Y-66300000D01*
X130528571Y-66328571D01*
X130557142Y-66357142D01*
X130585714Y-66414285D01*
%TO.C,C17*%
X130014285Y-62914285D02*
X130042857Y-62885714D01*
X130071428Y-62800000D01*
X130071428Y-62742857D01*
X130042857Y-62657142D01*
X129985714Y-62600000D01*
X129928571Y-62571428D01*
X129814285Y-62542857D01*
X129728571Y-62542857D01*
X129614285Y-62571428D01*
X129557142Y-62600000D01*
X129500000Y-62657142D01*
X129471428Y-62742857D01*
X129471428Y-62800000D01*
X129500000Y-62885714D01*
X129528571Y-62914285D01*
X130071428Y-63485714D02*
X130071428Y-63142857D01*
X130071428Y-63314285D02*
X129471428Y-63314285D01*
X129557142Y-63257142D01*
X129614285Y-63200000D01*
X129642857Y-63142857D01*
X129471428Y-63685714D02*
X129471428Y-64085714D01*
X130071428Y-63828571D01*
%TO.C,C19*%
X131185714Y-80914285D02*
X131214285Y-80942857D01*
X131300000Y-80971428D01*
X131357142Y-80971428D01*
X131442857Y-80942857D01*
X131500000Y-80885714D01*
X131528571Y-80828571D01*
X131557142Y-80714285D01*
X131557142Y-80628571D01*
X131528571Y-80514285D01*
X131500000Y-80457142D01*
X131442857Y-80400000D01*
X131357142Y-80371428D01*
X131300000Y-80371428D01*
X131214285Y-80400000D01*
X131185714Y-80428571D01*
X130614285Y-80971428D02*
X130957142Y-80971428D01*
X130785714Y-80971428D02*
X130785714Y-80371428D01*
X130842857Y-80457142D01*
X130900000Y-80514285D01*
X130957142Y-80542857D01*
X130328571Y-80971428D02*
X130214285Y-80971428D01*
X130157142Y-80942857D01*
X130128571Y-80914285D01*
X130071428Y-80828571D01*
X130042857Y-80714285D01*
X130042857Y-80485714D01*
X130071428Y-80428571D01*
X130100000Y-80400000D01*
X130157142Y-80371428D01*
X130271428Y-80371428D01*
X130328571Y-80400000D01*
X130357142Y-80428571D01*
X130385714Y-80485714D01*
X130385714Y-80628571D01*
X130357142Y-80685714D01*
X130328571Y-80714285D01*
X130271428Y-80742857D01*
X130157142Y-80742857D01*
X130100000Y-80714285D01*
X130071428Y-80685714D01*
X130042857Y-80628571D01*
%TO.C,C21*%
X117785714Y-78714285D02*
X117814285Y-78742857D01*
X117900000Y-78771428D01*
X117957142Y-78771428D01*
X118042857Y-78742857D01*
X118100000Y-78685714D01*
X118128571Y-78628571D01*
X118157142Y-78514285D01*
X118157142Y-78428571D01*
X118128571Y-78314285D01*
X118100000Y-78257142D01*
X118042857Y-78200000D01*
X117957142Y-78171428D01*
X117900000Y-78171428D01*
X117814285Y-78200000D01*
X117785714Y-78228571D01*
X117557142Y-78228571D02*
X117528571Y-78200000D01*
X117471428Y-78171428D01*
X117328571Y-78171428D01*
X117271428Y-78200000D01*
X117242857Y-78228571D01*
X117214285Y-78285714D01*
X117214285Y-78342857D01*
X117242857Y-78428571D01*
X117585714Y-78771428D01*
X117214285Y-78771428D01*
X116642857Y-78771428D02*
X116985714Y-78771428D01*
X116814285Y-78771428D02*
X116814285Y-78171428D01*
X116871428Y-78257142D01*
X116928571Y-78314285D01*
X116985714Y-78342857D01*
%TO.C,C22*%
X125914285Y-62114285D02*
X125942857Y-62085714D01*
X125971428Y-62000000D01*
X125971428Y-61942857D01*
X125942857Y-61857142D01*
X125885714Y-61800000D01*
X125828571Y-61771428D01*
X125714285Y-61742857D01*
X125628571Y-61742857D01*
X125514285Y-61771428D01*
X125457142Y-61800000D01*
X125400000Y-61857142D01*
X125371428Y-61942857D01*
X125371428Y-62000000D01*
X125400000Y-62085714D01*
X125428571Y-62114285D01*
X125428571Y-62342857D02*
X125400000Y-62371428D01*
X125371428Y-62428571D01*
X125371428Y-62571428D01*
X125400000Y-62628571D01*
X125428571Y-62657142D01*
X125485714Y-62685714D01*
X125542857Y-62685714D01*
X125628571Y-62657142D01*
X125971428Y-62314285D01*
X125971428Y-62685714D01*
X125428571Y-62914285D02*
X125400000Y-62942857D01*
X125371428Y-63000000D01*
X125371428Y-63142857D01*
X125400000Y-63200000D01*
X125428571Y-63228571D01*
X125485714Y-63257142D01*
X125542857Y-63257142D01*
X125628571Y-63228571D01*
X125971428Y-62885714D01*
X125971428Y-63257142D01*
%TO.C,C23*%
X124414285Y-60114285D02*
X124442857Y-60085714D01*
X124471428Y-60000000D01*
X124471428Y-59942857D01*
X124442857Y-59857142D01*
X124385714Y-59800000D01*
X124328571Y-59771428D01*
X124214285Y-59742857D01*
X124128571Y-59742857D01*
X124014285Y-59771428D01*
X123957142Y-59800000D01*
X123900000Y-59857142D01*
X123871428Y-59942857D01*
X123871428Y-60000000D01*
X123900000Y-60085714D01*
X123928571Y-60114285D01*
X123928571Y-60342857D02*
X123900000Y-60371428D01*
X123871428Y-60428571D01*
X123871428Y-60571428D01*
X123900000Y-60628571D01*
X123928571Y-60657142D01*
X123985714Y-60685714D01*
X124042857Y-60685714D01*
X124128571Y-60657142D01*
X124471428Y-60314285D01*
X124471428Y-60685714D01*
X123871428Y-60885714D02*
X123871428Y-61257142D01*
X124100000Y-61057142D01*
X124100000Y-61142857D01*
X124128571Y-61200000D01*
X124157142Y-61228571D01*
X124214285Y-61257142D01*
X124357142Y-61257142D01*
X124414285Y-61228571D01*
X124442857Y-61200000D01*
X124471428Y-61142857D01*
X124471428Y-60971428D01*
X124442857Y-60914285D01*
X124414285Y-60885714D01*
%TO.C,C26*%
X143565714Y-71814285D02*
X143594285Y-71842857D01*
X143680000Y-71871428D01*
X143737142Y-71871428D01*
X143822857Y-71842857D01*
X143880000Y-71785714D01*
X143908571Y-71728571D01*
X143937142Y-71614285D01*
X143937142Y-71528571D01*
X143908571Y-71414285D01*
X143880000Y-71357142D01*
X143822857Y-71300000D01*
X143737142Y-71271428D01*
X143680000Y-71271428D01*
X143594285Y-71300000D01*
X143565714Y-71328571D01*
X143337142Y-71328571D02*
X143308571Y-71300000D01*
X143251428Y-71271428D01*
X143108571Y-71271428D01*
X143051428Y-71300000D01*
X143022857Y-71328571D01*
X142994285Y-71385714D01*
X142994285Y-71442857D01*
X143022857Y-71528571D01*
X143365714Y-71871428D01*
X142994285Y-71871428D01*
X142480000Y-71271428D02*
X142594285Y-71271428D01*
X142651428Y-71300000D01*
X142680000Y-71328571D01*
X142737142Y-71414285D01*
X142765714Y-71528571D01*
X142765714Y-71757142D01*
X142737142Y-71814285D01*
X142708571Y-71842857D01*
X142651428Y-71871428D01*
X142537142Y-71871428D01*
X142480000Y-71842857D01*
X142451428Y-71814285D01*
X142422857Y-71757142D01*
X142422857Y-71614285D01*
X142451428Y-71557142D01*
X142480000Y-71528571D01*
X142537142Y-71500000D01*
X142651428Y-71500000D01*
X142708571Y-71528571D01*
X142737142Y-71557142D01*
X142765714Y-71614285D01*
%TO.C,C27*%
X141185714Y-71814285D02*
X141214285Y-71842857D01*
X141300000Y-71871428D01*
X141357142Y-71871428D01*
X141442857Y-71842857D01*
X141500000Y-71785714D01*
X141528571Y-71728571D01*
X141557142Y-71614285D01*
X141557142Y-71528571D01*
X141528571Y-71414285D01*
X141500000Y-71357142D01*
X141442857Y-71300000D01*
X141357142Y-71271428D01*
X141300000Y-71271428D01*
X141214285Y-71300000D01*
X141185714Y-71328571D01*
X140957142Y-71328571D02*
X140928571Y-71300000D01*
X140871428Y-71271428D01*
X140728571Y-71271428D01*
X140671428Y-71300000D01*
X140642857Y-71328571D01*
X140614285Y-71385714D01*
X140614285Y-71442857D01*
X140642857Y-71528571D01*
X140985714Y-71871428D01*
X140614285Y-71871428D01*
X140414285Y-71271428D02*
X140014285Y-71271428D01*
X140271428Y-71871428D01*
%TO.C,C28*%
X140868214Y-66859285D02*
X140896785Y-66887857D01*
X140982500Y-66916428D01*
X141039642Y-66916428D01*
X141125357Y-66887857D01*
X141182500Y-66830714D01*
X141211071Y-66773571D01*
X141239642Y-66659285D01*
X141239642Y-66573571D01*
X141211071Y-66459285D01*
X141182500Y-66402142D01*
X141125357Y-66345000D01*
X141039642Y-66316428D01*
X140982500Y-66316428D01*
X140896785Y-66345000D01*
X140868214Y-66373571D01*
X140639642Y-66373571D02*
X140611071Y-66345000D01*
X140553928Y-66316428D01*
X140411071Y-66316428D01*
X140353928Y-66345000D01*
X140325357Y-66373571D01*
X140296785Y-66430714D01*
X140296785Y-66487857D01*
X140325357Y-66573571D01*
X140668214Y-66916428D01*
X140296785Y-66916428D01*
X139953928Y-66573571D02*
X140011071Y-66545000D01*
X140039642Y-66516428D01*
X140068214Y-66459285D01*
X140068214Y-66430714D01*
X140039642Y-66373571D01*
X140011071Y-66345000D01*
X139953928Y-66316428D01*
X139839642Y-66316428D01*
X139782500Y-66345000D01*
X139753928Y-66373571D01*
X139725357Y-66430714D01*
X139725357Y-66459285D01*
X139753928Y-66516428D01*
X139782500Y-66545000D01*
X139839642Y-66573571D01*
X139953928Y-66573571D01*
X140011071Y-66602142D01*
X140039642Y-66630714D01*
X140068214Y-66687857D01*
X140068214Y-66802142D01*
X140039642Y-66859285D01*
X140011071Y-66887857D01*
X139953928Y-66916428D01*
X139839642Y-66916428D01*
X139782500Y-66887857D01*
X139753928Y-66859285D01*
X139725357Y-66802142D01*
X139725357Y-66687857D01*
X139753928Y-66630714D01*
X139782500Y-66602142D01*
X139839642Y-66573571D01*
%TO.C,C29*%
X133735714Y-66714285D02*
X133764285Y-66742857D01*
X133850000Y-66771428D01*
X133907142Y-66771428D01*
X133992857Y-66742857D01*
X134050000Y-66685714D01*
X134078571Y-66628571D01*
X134107142Y-66514285D01*
X134107142Y-66428571D01*
X134078571Y-66314285D01*
X134050000Y-66257142D01*
X133992857Y-66200000D01*
X133907142Y-66171428D01*
X133850000Y-66171428D01*
X133764285Y-66200000D01*
X133735714Y-66228571D01*
X133507142Y-66228571D02*
X133478571Y-66200000D01*
X133421428Y-66171428D01*
X133278571Y-66171428D01*
X133221428Y-66200000D01*
X133192857Y-66228571D01*
X133164285Y-66285714D01*
X133164285Y-66342857D01*
X133192857Y-66428571D01*
X133535714Y-66771428D01*
X133164285Y-66771428D01*
X132878571Y-66771428D02*
X132764285Y-66771428D01*
X132707142Y-66742857D01*
X132678571Y-66714285D01*
X132621428Y-66628571D01*
X132592857Y-66514285D01*
X132592857Y-66285714D01*
X132621428Y-66228571D01*
X132650000Y-66200000D01*
X132707142Y-66171428D01*
X132821428Y-66171428D01*
X132878571Y-66200000D01*
X132907142Y-66228571D01*
X132935714Y-66285714D01*
X132935714Y-66428571D01*
X132907142Y-66485714D01*
X132878571Y-66514285D01*
X132821428Y-66542857D01*
X132707142Y-66542857D01*
X132650000Y-66514285D01*
X132621428Y-66485714D01*
X132592857Y-66428571D01*
%TO.C,C34*%
X119714285Y-60514285D02*
X119742857Y-60485714D01*
X119771428Y-60400000D01*
X119771428Y-60342857D01*
X119742857Y-60257142D01*
X119685714Y-60200000D01*
X119628571Y-60171428D01*
X119514285Y-60142857D01*
X119428571Y-60142857D01*
X119314285Y-60171428D01*
X119257142Y-60200000D01*
X119200000Y-60257142D01*
X119171428Y-60342857D01*
X119171428Y-60400000D01*
X119200000Y-60485714D01*
X119228571Y-60514285D01*
X119171428Y-60714285D02*
X119171428Y-61085714D01*
X119400000Y-60885714D01*
X119400000Y-60971428D01*
X119428571Y-61028571D01*
X119457142Y-61057142D01*
X119514285Y-61085714D01*
X119657142Y-61085714D01*
X119714285Y-61057142D01*
X119742857Y-61028571D01*
X119771428Y-60971428D01*
X119771428Y-60800000D01*
X119742857Y-60742857D01*
X119714285Y-60714285D01*
X119371428Y-61600000D02*
X119771428Y-61600000D01*
X119142857Y-61457142D02*
X119571428Y-61314285D01*
X119571428Y-61685714D01*
%TO.C,C35*%
X120181551Y-64316762D02*
X120210122Y-64345334D01*
X120295837Y-64373905D01*
X120352979Y-64373905D01*
X120438694Y-64345334D01*
X120495837Y-64288191D01*
X120524408Y-64231048D01*
X120552979Y-64116762D01*
X120552979Y-64031048D01*
X120524408Y-63916762D01*
X120495837Y-63859619D01*
X120438694Y-63802477D01*
X120352979Y-63773905D01*
X120295837Y-63773905D01*
X120210122Y-63802477D01*
X120181551Y-63831048D01*
X119981551Y-63773905D02*
X119610122Y-63773905D01*
X119810122Y-64002477D01*
X119724408Y-64002477D01*
X119667265Y-64031048D01*
X119638694Y-64059619D01*
X119610122Y-64116762D01*
X119610122Y-64259619D01*
X119638694Y-64316762D01*
X119667265Y-64345334D01*
X119724408Y-64373905D01*
X119895837Y-64373905D01*
X119952979Y-64345334D01*
X119981551Y-64316762D01*
X119067265Y-63773905D02*
X119352979Y-63773905D01*
X119381551Y-64059619D01*
X119352979Y-64031048D01*
X119295837Y-64002477D01*
X119152979Y-64002477D01*
X119095837Y-64031048D01*
X119067265Y-64059619D01*
X119038694Y-64116762D01*
X119038694Y-64259619D01*
X119067265Y-64316762D01*
X119095837Y-64345334D01*
X119152979Y-64373905D01*
X119295837Y-64373905D01*
X119352979Y-64345334D01*
X119381551Y-64316762D01*
%TO.C,C36*%
X126014285Y-67414285D02*
X126042857Y-67385714D01*
X126071428Y-67300000D01*
X126071428Y-67242857D01*
X126042857Y-67157142D01*
X125985714Y-67100000D01*
X125928571Y-67071428D01*
X125814285Y-67042857D01*
X125728571Y-67042857D01*
X125614285Y-67071428D01*
X125557142Y-67100000D01*
X125500000Y-67157142D01*
X125471428Y-67242857D01*
X125471428Y-67300000D01*
X125500000Y-67385714D01*
X125528571Y-67414285D01*
X125471428Y-67614285D02*
X125471428Y-67985714D01*
X125700000Y-67785714D01*
X125700000Y-67871428D01*
X125728571Y-67928571D01*
X125757142Y-67957142D01*
X125814285Y-67985714D01*
X125957142Y-67985714D01*
X126014285Y-67957142D01*
X126042857Y-67928571D01*
X126071428Y-67871428D01*
X126071428Y-67700000D01*
X126042857Y-67642857D01*
X126014285Y-67614285D01*
X125471428Y-68500000D02*
X125471428Y-68385714D01*
X125500000Y-68328571D01*
X125528571Y-68300000D01*
X125614285Y-68242857D01*
X125728571Y-68214285D01*
X125957142Y-68214285D01*
X126014285Y-68242857D01*
X126042857Y-68271428D01*
X126071428Y-68328571D01*
X126071428Y-68442857D01*
X126042857Y-68500000D01*
X126014285Y-68528571D01*
X125957142Y-68557142D01*
X125814285Y-68557142D01*
X125757142Y-68528571D01*
X125728571Y-68500000D01*
X125700000Y-68442857D01*
X125700000Y-68328571D01*
X125728571Y-68271428D01*
X125757142Y-68242857D01*
X125814285Y-68214285D01*
%TO.C,C37*%
X129885714Y-62314285D02*
X129914285Y-62342857D01*
X130000000Y-62371428D01*
X130057142Y-62371428D01*
X130142857Y-62342857D01*
X130200000Y-62285714D01*
X130228571Y-62228571D01*
X130257142Y-62114285D01*
X130257142Y-62028571D01*
X130228571Y-61914285D01*
X130200000Y-61857142D01*
X130142857Y-61800000D01*
X130057142Y-61771428D01*
X130000000Y-61771428D01*
X129914285Y-61800000D01*
X129885714Y-61828571D01*
X129685714Y-61771428D02*
X129314285Y-61771428D01*
X129514285Y-62000000D01*
X129428571Y-62000000D01*
X129371428Y-62028571D01*
X129342857Y-62057142D01*
X129314285Y-62114285D01*
X129314285Y-62257142D01*
X129342857Y-62314285D01*
X129371428Y-62342857D01*
X129428571Y-62371428D01*
X129600000Y-62371428D01*
X129657142Y-62342857D01*
X129685714Y-62314285D01*
X129114285Y-61771428D02*
X128714285Y-61771428D01*
X128971428Y-62371428D01*
%TO.C,C38*%
X130585714Y-59515927D02*
X130614285Y-59544499D01*
X130700000Y-59573070D01*
X130757142Y-59573070D01*
X130842857Y-59544499D01*
X130900000Y-59487356D01*
X130928571Y-59430213D01*
X130957142Y-59315927D01*
X130957142Y-59230213D01*
X130928571Y-59115927D01*
X130900000Y-59058784D01*
X130842857Y-59001642D01*
X130757142Y-58973070D01*
X130700000Y-58973070D01*
X130614285Y-59001642D01*
X130585714Y-59030213D01*
X130385714Y-58973070D02*
X130014285Y-58973070D01*
X130214285Y-59201642D01*
X130128571Y-59201642D01*
X130071428Y-59230213D01*
X130042857Y-59258784D01*
X130014285Y-59315927D01*
X130014285Y-59458784D01*
X130042857Y-59515927D01*
X130071428Y-59544499D01*
X130128571Y-59573070D01*
X130300000Y-59573070D01*
X130357142Y-59544499D01*
X130385714Y-59515927D01*
X129671428Y-59230213D02*
X129728571Y-59201642D01*
X129757142Y-59173070D01*
X129785714Y-59115927D01*
X129785714Y-59087356D01*
X129757142Y-59030213D01*
X129728571Y-59001642D01*
X129671428Y-58973070D01*
X129557142Y-58973070D01*
X129500000Y-59001642D01*
X129471428Y-59030213D01*
X129442857Y-59087356D01*
X129442857Y-59115927D01*
X129471428Y-59173070D01*
X129500000Y-59201642D01*
X129557142Y-59230213D01*
X129671428Y-59230213D01*
X129728571Y-59258784D01*
X129757142Y-59287356D01*
X129785714Y-59344499D01*
X129785714Y-59458784D01*
X129757142Y-59515927D01*
X129728571Y-59544499D01*
X129671428Y-59573070D01*
X129557142Y-59573070D01*
X129500000Y-59544499D01*
X129471428Y-59515927D01*
X129442857Y-59458784D01*
X129442857Y-59344499D01*
X129471428Y-59287356D01*
X129500000Y-59258784D01*
X129557142Y-59230213D01*
%TO.C,C39*%
X126185749Y-58715839D02*
X126214320Y-58744411D01*
X126300035Y-58772982D01*
X126357177Y-58772982D01*
X126442892Y-58744411D01*
X126500035Y-58687268D01*
X126528606Y-58630125D01*
X126557177Y-58515839D01*
X126557177Y-58430125D01*
X126528606Y-58315839D01*
X126500035Y-58258696D01*
X126442892Y-58201554D01*
X126357177Y-58172982D01*
X126300035Y-58172982D01*
X126214320Y-58201554D01*
X126185749Y-58230125D01*
X125985749Y-58172982D02*
X125614320Y-58172982D01*
X125814320Y-58401554D01*
X125728606Y-58401554D01*
X125671463Y-58430125D01*
X125642892Y-58458696D01*
X125614320Y-58515839D01*
X125614320Y-58658696D01*
X125642892Y-58715839D01*
X125671463Y-58744411D01*
X125728606Y-58772982D01*
X125900035Y-58772982D01*
X125957177Y-58744411D01*
X125985749Y-58715839D01*
X125328606Y-58772982D02*
X125214320Y-58772982D01*
X125157177Y-58744411D01*
X125128606Y-58715839D01*
X125071463Y-58630125D01*
X125042892Y-58515839D01*
X125042892Y-58287268D01*
X125071463Y-58230125D01*
X125100035Y-58201554D01*
X125157177Y-58172982D01*
X125271463Y-58172982D01*
X125328606Y-58201554D01*
X125357177Y-58230125D01*
X125385749Y-58287268D01*
X125385749Y-58430125D01*
X125357177Y-58487268D01*
X125328606Y-58515839D01*
X125271463Y-58544411D01*
X125157177Y-58544411D01*
X125100035Y-58515839D01*
X125071463Y-58487268D01*
X125042892Y-58430125D01*
%TO.C,C40*%
X123114285Y-60114285D02*
X123142857Y-60085714D01*
X123171428Y-60000000D01*
X123171428Y-59942857D01*
X123142857Y-59857142D01*
X123085714Y-59800000D01*
X123028571Y-59771428D01*
X122914285Y-59742857D01*
X122828571Y-59742857D01*
X122714285Y-59771428D01*
X122657142Y-59800000D01*
X122600000Y-59857142D01*
X122571428Y-59942857D01*
X122571428Y-60000000D01*
X122600000Y-60085714D01*
X122628571Y-60114285D01*
X122771428Y-60628571D02*
X123171428Y-60628571D01*
X122542857Y-60485714D02*
X122971428Y-60342857D01*
X122971428Y-60714285D01*
X122571428Y-61057142D02*
X122571428Y-61114285D01*
X122600000Y-61171428D01*
X122628571Y-61200000D01*
X122685714Y-61228571D01*
X122800000Y-61257142D01*
X122942857Y-61257142D01*
X123057142Y-61228571D01*
X123114285Y-61200000D01*
X123142857Y-61171428D01*
X123171428Y-61114285D01*
X123171428Y-61057142D01*
X123142857Y-61000000D01*
X123114285Y-60971428D01*
X123057142Y-60942857D01*
X122942857Y-60914285D01*
X122800000Y-60914285D01*
X122685714Y-60942857D01*
X122628571Y-60971428D01*
X122600000Y-61000000D01*
X122571428Y-61057142D01*
%TO.C,C41*%
X121814285Y-58914285D02*
X121842857Y-58885714D01*
X121871428Y-58800000D01*
X121871428Y-58742857D01*
X121842857Y-58657142D01*
X121785714Y-58600000D01*
X121728571Y-58571428D01*
X121614285Y-58542857D01*
X121528571Y-58542857D01*
X121414285Y-58571428D01*
X121357142Y-58600000D01*
X121300000Y-58657142D01*
X121271428Y-58742857D01*
X121271428Y-58800000D01*
X121300000Y-58885714D01*
X121328571Y-58914285D01*
X121471428Y-59428571D02*
X121871428Y-59428571D01*
X121242857Y-59285714D02*
X121671428Y-59142857D01*
X121671428Y-59514285D01*
X121871428Y-60057142D02*
X121871428Y-59714285D01*
X121871428Y-59885714D02*
X121271428Y-59885714D01*
X121357142Y-59828571D01*
X121414285Y-59771428D01*
X121442857Y-59714285D01*
%TO.C,C42*%
X120185714Y-62714285D02*
X120214285Y-62742857D01*
X120300000Y-62771428D01*
X120357142Y-62771428D01*
X120442857Y-62742857D01*
X120500000Y-62685714D01*
X120528571Y-62628571D01*
X120557142Y-62514285D01*
X120557142Y-62428571D01*
X120528571Y-62314285D01*
X120500000Y-62257142D01*
X120442857Y-62200000D01*
X120357142Y-62171428D01*
X120300000Y-62171428D01*
X120214285Y-62200000D01*
X120185714Y-62228571D01*
X119671428Y-62371428D02*
X119671428Y-62771428D01*
X119814285Y-62142857D02*
X119957142Y-62571428D01*
X119585714Y-62571428D01*
X119385714Y-62228571D02*
X119357142Y-62200000D01*
X119300000Y-62171428D01*
X119157142Y-62171428D01*
X119100000Y-62200000D01*
X119071428Y-62228571D01*
X119042857Y-62285714D01*
X119042857Y-62342857D01*
X119071428Y-62428571D01*
X119414285Y-62771428D01*
X119042857Y-62771428D01*
%TO.C,C43*%
X120187368Y-65912610D02*
X120215939Y-65941182D01*
X120301654Y-65969753D01*
X120358796Y-65969753D01*
X120444511Y-65941182D01*
X120501654Y-65884039D01*
X120530225Y-65826896D01*
X120558796Y-65712610D01*
X120558796Y-65626896D01*
X120530225Y-65512610D01*
X120501654Y-65455467D01*
X120444511Y-65398325D01*
X120358796Y-65369753D01*
X120301654Y-65369753D01*
X120215939Y-65398325D01*
X120187368Y-65426896D01*
X119673082Y-65569753D02*
X119673082Y-65969753D01*
X119815939Y-65341182D02*
X119958796Y-65769753D01*
X119587368Y-65769753D01*
X119415939Y-65369753D02*
X119044511Y-65369753D01*
X119244511Y-65598325D01*
X119158796Y-65598325D01*
X119101654Y-65626896D01*
X119073082Y-65655467D01*
X119044511Y-65712610D01*
X119044511Y-65855467D01*
X119073082Y-65912610D01*
X119101654Y-65941182D01*
X119158796Y-65969753D01*
X119330225Y-65969753D01*
X119387368Y-65941182D01*
X119415939Y-65912610D01*
%TO.C,C44*%
X122814285Y-64114285D02*
X122842857Y-64085714D01*
X122871428Y-64000000D01*
X122871428Y-63942857D01*
X122842857Y-63857142D01*
X122785714Y-63800000D01*
X122728571Y-63771428D01*
X122614285Y-63742857D01*
X122528571Y-63742857D01*
X122414285Y-63771428D01*
X122357142Y-63800000D01*
X122300000Y-63857142D01*
X122271428Y-63942857D01*
X122271428Y-64000000D01*
X122300000Y-64085714D01*
X122328571Y-64114285D01*
X122471428Y-64628571D02*
X122871428Y-64628571D01*
X122242857Y-64485714D02*
X122671428Y-64342857D01*
X122671428Y-64714285D01*
X122471428Y-65200000D02*
X122871428Y-65200000D01*
X122242857Y-65057142D02*
X122671428Y-64914285D01*
X122671428Y-65285714D01*
%TO.C,C45*%
X127614285Y-67414285D02*
X127642857Y-67385714D01*
X127671428Y-67300000D01*
X127671428Y-67242857D01*
X127642857Y-67157142D01*
X127585714Y-67100000D01*
X127528571Y-67071428D01*
X127414285Y-67042857D01*
X127328571Y-67042857D01*
X127214285Y-67071428D01*
X127157142Y-67100000D01*
X127100000Y-67157142D01*
X127071428Y-67242857D01*
X127071428Y-67300000D01*
X127100000Y-67385714D01*
X127128571Y-67414285D01*
X127271428Y-67928571D02*
X127671428Y-67928571D01*
X127042857Y-67785714D02*
X127471428Y-67642857D01*
X127471428Y-68014285D01*
X127071428Y-68528571D02*
X127071428Y-68242857D01*
X127357142Y-68214285D01*
X127328571Y-68242857D01*
X127300000Y-68300000D01*
X127300000Y-68442857D01*
X127328571Y-68500000D01*
X127357142Y-68528571D01*
X127414285Y-68557142D01*
X127557142Y-68557142D01*
X127614285Y-68528571D01*
X127642857Y-68500000D01*
X127671428Y-68442857D01*
X127671428Y-68300000D01*
X127642857Y-68242857D01*
X127614285Y-68214285D01*
%TO.C,C46*%
X128414285Y-65214285D02*
X128442857Y-65185714D01*
X128471428Y-65100000D01*
X128471428Y-65042857D01*
X128442857Y-64957142D01*
X128385714Y-64900000D01*
X128328571Y-64871428D01*
X128214285Y-64842857D01*
X128128571Y-64842857D01*
X128014285Y-64871428D01*
X127957142Y-64900000D01*
X127900000Y-64957142D01*
X127871428Y-65042857D01*
X127871428Y-65100000D01*
X127900000Y-65185714D01*
X127928571Y-65214285D01*
X128071428Y-65728571D02*
X128471428Y-65728571D01*
X127842857Y-65585714D02*
X128271428Y-65442857D01*
X128271428Y-65814285D01*
X127871428Y-66300000D02*
X127871428Y-66185714D01*
X127900000Y-66128571D01*
X127928571Y-66100000D01*
X128014285Y-66042857D01*
X128128571Y-66014285D01*
X128357142Y-66014285D01*
X128414285Y-66042857D01*
X128442857Y-66071428D01*
X128471428Y-66128571D01*
X128471428Y-66242857D01*
X128442857Y-66300000D01*
X128414285Y-66328571D01*
X128357142Y-66357142D01*
X128214285Y-66357142D01*
X128157142Y-66328571D01*
X128128571Y-66300000D01*
X128100000Y-66242857D01*
X128100000Y-66128571D01*
X128128571Y-66071428D01*
X128157142Y-66042857D01*
X128214285Y-66014285D01*
%TO.C,C47*%
X127214285Y-63314285D02*
X127242857Y-63285714D01*
X127271428Y-63200000D01*
X127271428Y-63142857D01*
X127242857Y-63057142D01*
X127185714Y-63000000D01*
X127128571Y-62971428D01*
X127014285Y-62942857D01*
X126928571Y-62942857D01*
X126814285Y-62971428D01*
X126757142Y-63000000D01*
X126700000Y-63057142D01*
X126671428Y-63142857D01*
X126671428Y-63200000D01*
X126700000Y-63285714D01*
X126728571Y-63314285D01*
X126871428Y-63828571D02*
X127271428Y-63828571D01*
X126642857Y-63685714D02*
X127071428Y-63542857D01*
X127071428Y-63914285D01*
X126671428Y-64085714D02*
X126671428Y-64485714D01*
X127271428Y-64228571D01*
%TO.C,C48*%
X127614285Y-60114285D02*
X127642857Y-60085714D01*
X127671428Y-60000000D01*
X127671428Y-59942857D01*
X127642857Y-59857142D01*
X127585714Y-59800000D01*
X127528571Y-59771428D01*
X127414285Y-59742857D01*
X127328571Y-59742857D01*
X127214285Y-59771428D01*
X127157142Y-59800000D01*
X127100000Y-59857142D01*
X127071428Y-59942857D01*
X127071428Y-60000000D01*
X127100000Y-60085714D01*
X127128571Y-60114285D01*
X127271428Y-60628571D02*
X127671428Y-60628571D01*
X127042857Y-60485714D02*
X127471428Y-60342857D01*
X127471428Y-60714285D01*
X127328571Y-61028571D02*
X127300000Y-60971428D01*
X127271428Y-60942857D01*
X127214285Y-60914285D01*
X127185714Y-60914285D01*
X127128571Y-60942857D01*
X127100000Y-60971428D01*
X127071428Y-61028571D01*
X127071428Y-61142857D01*
X127100000Y-61200000D01*
X127128571Y-61228571D01*
X127185714Y-61257142D01*
X127214285Y-61257142D01*
X127271428Y-61228571D01*
X127300000Y-61200000D01*
X127328571Y-61142857D01*
X127328571Y-61028571D01*
X127357142Y-60971428D01*
X127385714Y-60942857D01*
X127442857Y-60914285D01*
X127557142Y-60914285D01*
X127614285Y-60942857D01*
X127642857Y-60971428D01*
X127671428Y-61028571D01*
X127671428Y-61142857D01*
X127642857Y-61200000D01*
X127614285Y-61228571D01*
X127557142Y-61257142D01*
X127442857Y-61257142D01*
X127385714Y-61228571D01*
X127357142Y-61200000D01*
X127328571Y-61142857D01*
%TO.C,C49*%
X126014285Y-60114285D02*
X126042857Y-60085714D01*
X126071428Y-60000000D01*
X126071428Y-59942857D01*
X126042857Y-59857142D01*
X125985714Y-59800000D01*
X125928571Y-59771428D01*
X125814285Y-59742857D01*
X125728571Y-59742857D01*
X125614285Y-59771428D01*
X125557142Y-59800000D01*
X125500000Y-59857142D01*
X125471428Y-59942857D01*
X125471428Y-60000000D01*
X125500000Y-60085714D01*
X125528571Y-60114285D01*
X125671428Y-60628571D02*
X126071428Y-60628571D01*
X125442857Y-60485714D02*
X125871428Y-60342857D01*
X125871428Y-60714285D01*
X126071428Y-60971428D02*
X126071428Y-61085714D01*
X126042857Y-61142857D01*
X126014285Y-61171428D01*
X125928571Y-61228571D01*
X125814285Y-61257142D01*
X125585714Y-61257142D01*
X125528571Y-61228571D01*
X125500000Y-61200000D01*
X125471428Y-61142857D01*
X125471428Y-61028571D01*
X125500000Y-60971428D01*
X125528571Y-60942857D01*
X125585714Y-60914285D01*
X125728571Y-60914285D01*
X125785714Y-60942857D01*
X125814285Y-60971428D01*
X125842857Y-61028571D01*
X125842857Y-61142857D01*
X125814285Y-61200000D01*
X125785714Y-61228571D01*
X125728571Y-61257142D01*
%TO.C,C50*%
X117785714Y-62014285D02*
X117814285Y-62042857D01*
X117900000Y-62071428D01*
X117957142Y-62071428D01*
X118042857Y-62042857D01*
X118100000Y-61985714D01*
X118128571Y-61928571D01*
X118157142Y-61814285D01*
X118157142Y-61728571D01*
X118128571Y-61614285D01*
X118100000Y-61557142D01*
X118042857Y-61500000D01*
X117957142Y-61471428D01*
X117900000Y-61471428D01*
X117814285Y-61500000D01*
X117785714Y-61528571D01*
X117242857Y-61471428D02*
X117528571Y-61471428D01*
X117557142Y-61757142D01*
X117528571Y-61728571D01*
X117471428Y-61700000D01*
X117328571Y-61700000D01*
X117271428Y-61728571D01*
X117242857Y-61757142D01*
X117214285Y-61814285D01*
X117214285Y-61957142D01*
X117242857Y-62014285D01*
X117271428Y-62042857D01*
X117328571Y-62071428D01*
X117471428Y-62071428D01*
X117528571Y-62042857D01*
X117557142Y-62014285D01*
X116842857Y-61471428D02*
X116785714Y-61471428D01*
X116728571Y-61500000D01*
X116700000Y-61528571D01*
X116671428Y-61585714D01*
X116642857Y-61700000D01*
X116642857Y-61842857D01*
X116671428Y-61957142D01*
X116700000Y-62014285D01*
X116728571Y-62042857D01*
X116785714Y-62071428D01*
X116842857Y-62071428D01*
X116900000Y-62042857D01*
X116928571Y-62014285D01*
X116957142Y-61957142D01*
X116985714Y-61842857D01*
X116985714Y-61700000D01*
X116957142Y-61585714D01*
X116928571Y-61528571D01*
X116900000Y-61500000D01*
X116842857Y-61471428D01*
%TO.C,C51*%
X121214285Y-55712618D02*
X121242857Y-55684047D01*
X121271428Y-55598333D01*
X121271428Y-55541190D01*
X121242857Y-55455475D01*
X121185714Y-55398333D01*
X121128571Y-55369761D01*
X121014285Y-55341190D01*
X120928571Y-55341190D01*
X120814285Y-55369761D01*
X120757142Y-55398333D01*
X120700000Y-55455475D01*
X120671428Y-55541190D01*
X120671428Y-55598333D01*
X120700000Y-55684047D01*
X120728571Y-55712618D01*
X120671428Y-56255475D02*
X120671428Y-55969761D01*
X120957142Y-55941190D01*
X120928571Y-55969761D01*
X120900000Y-56026904D01*
X120900000Y-56169761D01*
X120928571Y-56226904D01*
X120957142Y-56255475D01*
X121014285Y-56284047D01*
X121157142Y-56284047D01*
X121214285Y-56255475D01*
X121242857Y-56226904D01*
X121271428Y-56169761D01*
X121271428Y-56026904D01*
X121242857Y-55969761D01*
X121214285Y-55941190D01*
X121271428Y-56855475D02*
X121271428Y-56512618D01*
X121271428Y-56684047D02*
X120671428Y-56684047D01*
X120757142Y-56626904D01*
X120814285Y-56569761D01*
X120842857Y-56512618D01*
%TO.C,C52*%
X115475714Y-56314285D02*
X115504285Y-56342857D01*
X115590000Y-56371428D01*
X115647142Y-56371428D01*
X115732857Y-56342857D01*
X115790000Y-56285714D01*
X115818571Y-56228571D01*
X115847142Y-56114285D01*
X115847142Y-56028571D01*
X115818571Y-55914285D01*
X115790000Y-55857142D01*
X115732857Y-55800000D01*
X115647142Y-55771428D01*
X115590000Y-55771428D01*
X115504285Y-55800000D01*
X115475714Y-55828571D01*
X114932857Y-55771428D02*
X115218571Y-55771428D01*
X115247142Y-56057142D01*
X115218571Y-56028571D01*
X115161428Y-56000000D01*
X115018571Y-56000000D01*
X114961428Y-56028571D01*
X114932857Y-56057142D01*
X114904285Y-56114285D01*
X114904285Y-56257142D01*
X114932857Y-56314285D01*
X114961428Y-56342857D01*
X115018571Y-56371428D01*
X115161428Y-56371428D01*
X115218571Y-56342857D01*
X115247142Y-56314285D01*
X114675714Y-55828571D02*
X114647142Y-55800000D01*
X114590000Y-55771428D01*
X114447142Y-55771428D01*
X114390000Y-55800000D01*
X114361428Y-55828571D01*
X114332857Y-55885714D01*
X114332857Y-55942857D01*
X114361428Y-56028571D01*
X114704285Y-56371428D01*
X114332857Y-56371428D01*
%TO.C,C53*%
X118184118Y-69214285D02*
X118212689Y-69242857D01*
X118298404Y-69271428D01*
X118355546Y-69271428D01*
X118441261Y-69242857D01*
X118498404Y-69185714D01*
X118526975Y-69128571D01*
X118555546Y-69014285D01*
X118555546Y-68928571D01*
X118526975Y-68814285D01*
X118498404Y-68757142D01*
X118441261Y-68700000D01*
X118355546Y-68671428D01*
X118298404Y-68671428D01*
X118212689Y-68700000D01*
X118184118Y-68728571D01*
X117641261Y-68671428D02*
X117926975Y-68671428D01*
X117955546Y-68957142D01*
X117926975Y-68928571D01*
X117869832Y-68900000D01*
X117726975Y-68900000D01*
X117669832Y-68928571D01*
X117641261Y-68957142D01*
X117612689Y-69014285D01*
X117612689Y-69157142D01*
X117641261Y-69214285D01*
X117669832Y-69242857D01*
X117726975Y-69271428D01*
X117869832Y-69271428D01*
X117926975Y-69242857D01*
X117955546Y-69214285D01*
X117412689Y-68671428D02*
X117041261Y-68671428D01*
X117241261Y-68900000D01*
X117155546Y-68900000D01*
X117098404Y-68928571D01*
X117069832Y-68957142D01*
X117041261Y-69014285D01*
X117041261Y-69157142D01*
X117069832Y-69214285D01*
X117098404Y-69242857D01*
X117155546Y-69271428D01*
X117326975Y-69271428D01*
X117384118Y-69242857D01*
X117412689Y-69214285D01*
%TO.C,C54*%
X126985714Y-70714285D02*
X127014285Y-70742857D01*
X127100000Y-70771428D01*
X127157142Y-70771428D01*
X127242857Y-70742857D01*
X127300000Y-70685714D01*
X127328571Y-70628571D01*
X127357142Y-70514285D01*
X127357142Y-70428571D01*
X127328571Y-70314285D01*
X127300000Y-70257142D01*
X127242857Y-70200000D01*
X127157142Y-70171428D01*
X127100000Y-70171428D01*
X127014285Y-70200000D01*
X126985714Y-70228571D01*
X126442857Y-70171428D02*
X126728571Y-70171428D01*
X126757142Y-70457142D01*
X126728571Y-70428571D01*
X126671428Y-70400000D01*
X126528571Y-70400000D01*
X126471428Y-70428571D01*
X126442857Y-70457142D01*
X126414285Y-70514285D01*
X126414285Y-70657142D01*
X126442857Y-70714285D01*
X126471428Y-70742857D01*
X126528571Y-70771428D01*
X126671428Y-70771428D01*
X126728571Y-70742857D01*
X126757142Y-70714285D01*
X125900000Y-70371428D02*
X125900000Y-70771428D01*
X126042857Y-70142857D02*
X126185714Y-70571428D01*
X125814285Y-70571428D01*
%TO.C,C55*%
X133735714Y-65114285D02*
X133764285Y-65142857D01*
X133850000Y-65171428D01*
X133907142Y-65171428D01*
X133992857Y-65142857D01*
X134050000Y-65085714D01*
X134078571Y-65028571D01*
X134107142Y-64914285D01*
X134107142Y-64828571D01*
X134078571Y-64714285D01*
X134050000Y-64657142D01*
X133992857Y-64600000D01*
X133907142Y-64571428D01*
X133850000Y-64571428D01*
X133764285Y-64600000D01*
X133735714Y-64628571D01*
X133192857Y-64571428D02*
X133478571Y-64571428D01*
X133507142Y-64857142D01*
X133478571Y-64828571D01*
X133421428Y-64800000D01*
X133278571Y-64800000D01*
X133221428Y-64828571D01*
X133192857Y-64857142D01*
X133164285Y-64914285D01*
X133164285Y-65057142D01*
X133192857Y-65114285D01*
X133221428Y-65142857D01*
X133278571Y-65171428D01*
X133421428Y-65171428D01*
X133478571Y-65142857D01*
X133507142Y-65114285D01*
X132621428Y-64571428D02*
X132907142Y-64571428D01*
X132935714Y-64857142D01*
X132907142Y-64828571D01*
X132850000Y-64800000D01*
X132707142Y-64800000D01*
X132650000Y-64828571D01*
X132621428Y-64857142D01*
X132592857Y-64914285D01*
X132592857Y-65057142D01*
X132621428Y-65114285D01*
X132650000Y-65142857D01*
X132707142Y-65171428D01*
X132850000Y-65171428D01*
X132907142Y-65142857D01*
X132935714Y-65114285D01*
%TO.C,C56*%
X132585714Y-56314285D02*
X132614285Y-56342857D01*
X132700000Y-56371428D01*
X132757142Y-56371428D01*
X132842857Y-56342857D01*
X132900000Y-56285714D01*
X132928571Y-56228571D01*
X132957142Y-56114285D01*
X132957142Y-56028571D01*
X132928571Y-55914285D01*
X132900000Y-55857142D01*
X132842857Y-55800000D01*
X132757142Y-55771428D01*
X132700000Y-55771428D01*
X132614285Y-55800000D01*
X132585714Y-55828571D01*
X132042857Y-55771428D02*
X132328571Y-55771428D01*
X132357142Y-56057142D01*
X132328571Y-56028571D01*
X132271428Y-56000000D01*
X132128571Y-56000000D01*
X132071428Y-56028571D01*
X132042857Y-56057142D01*
X132014285Y-56114285D01*
X132014285Y-56257142D01*
X132042857Y-56314285D01*
X132071428Y-56342857D01*
X132128571Y-56371428D01*
X132271428Y-56371428D01*
X132328571Y-56342857D01*
X132357142Y-56314285D01*
X131500000Y-55771428D02*
X131614285Y-55771428D01*
X131671428Y-55800000D01*
X131700000Y-55828571D01*
X131757142Y-55914285D01*
X131785714Y-56028571D01*
X131785714Y-56257142D01*
X131757142Y-56314285D01*
X131728571Y-56342857D01*
X131671428Y-56371428D01*
X131557142Y-56371428D01*
X131500000Y-56342857D01*
X131471428Y-56314285D01*
X131442857Y-56257142D01*
X131442857Y-56114285D01*
X131471428Y-56057142D01*
X131500000Y-56028571D01*
X131557142Y-56000000D01*
X131671428Y-56000000D01*
X131728571Y-56028571D01*
X131757142Y-56057142D01*
X131785714Y-56114285D01*
%TO.C,C57*%
X112514285Y-98514285D02*
X112542857Y-98485714D01*
X112571428Y-98400000D01*
X112571428Y-98342857D01*
X112542857Y-98257142D01*
X112485714Y-98200000D01*
X112428571Y-98171428D01*
X112314285Y-98142857D01*
X112228571Y-98142857D01*
X112114285Y-98171428D01*
X112057142Y-98200000D01*
X112000000Y-98257142D01*
X111971428Y-98342857D01*
X111971428Y-98400000D01*
X112000000Y-98485714D01*
X112028571Y-98514285D01*
X111971428Y-99057142D02*
X111971428Y-98771428D01*
X112257142Y-98742857D01*
X112228571Y-98771428D01*
X112200000Y-98828571D01*
X112200000Y-98971428D01*
X112228571Y-99028571D01*
X112257142Y-99057142D01*
X112314285Y-99085714D01*
X112457142Y-99085714D01*
X112514285Y-99057142D01*
X112542857Y-99028571D01*
X112571428Y-98971428D01*
X112571428Y-98828571D01*
X112542857Y-98771428D01*
X112514285Y-98742857D01*
X111971428Y-99285714D02*
X111971428Y-99685714D01*
X112571428Y-99428571D01*
%TO.C,C58*%
X111114285Y-98514285D02*
X111142857Y-98485714D01*
X111171428Y-98400000D01*
X111171428Y-98342857D01*
X111142857Y-98257142D01*
X111085714Y-98200000D01*
X111028571Y-98171428D01*
X110914285Y-98142857D01*
X110828571Y-98142857D01*
X110714285Y-98171428D01*
X110657142Y-98200000D01*
X110600000Y-98257142D01*
X110571428Y-98342857D01*
X110571428Y-98400000D01*
X110600000Y-98485714D01*
X110628571Y-98514285D01*
X110571428Y-99057142D02*
X110571428Y-98771428D01*
X110857142Y-98742857D01*
X110828571Y-98771428D01*
X110800000Y-98828571D01*
X110800000Y-98971428D01*
X110828571Y-99028571D01*
X110857142Y-99057142D01*
X110914285Y-99085714D01*
X111057142Y-99085714D01*
X111114285Y-99057142D01*
X111142857Y-99028571D01*
X111171428Y-98971428D01*
X111171428Y-98828571D01*
X111142857Y-98771428D01*
X111114285Y-98742857D01*
X110828571Y-99428571D02*
X110800000Y-99371428D01*
X110771428Y-99342857D01*
X110714285Y-99314285D01*
X110685714Y-99314285D01*
X110628571Y-99342857D01*
X110600000Y-99371428D01*
X110571428Y-99428571D01*
X110571428Y-99542857D01*
X110600000Y-99600000D01*
X110628571Y-99628571D01*
X110685714Y-99657142D01*
X110714285Y-99657142D01*
X110771428Y-99628571D01*
X110800000Y-99600000D01*
X110828571Y-99542857D01*
X110828571Y-99428571D01*
X110857142Y-99371428D01*
X110885714Y-99342857D01*
X110942857Y-99314285D01*
X111057142Y-99314285D01*
X111114285Y-99342857D01*
X111142857Y-99371428D01*
X111171428Y-99428571D01*
X111171428Y-99542857D01*
X111142857Y-99600000D01*
X111114285Y-99628571D01*
X111057142Y-99657142D01*
X110942857Y-99657142D01*
X110885714Y-99628571D01*
X110857142Y-99600000D01*
X110828571Y-99542857D01*
%TO.C,C59*%
X109914285Y-98514285D02*
X109942857Y-98485714D01*
X109971428Y-98400000D01*
X109971428Y-98342857D01*
X109942857Y-98257142D01*
X109885714Y-98200000D01*
X109828571Y-98171428D01*
X109714285Y-98142857D01*
X109628571Y-98142857D01*
X109514285Y-98171428D01*
X109457142Y-98200000D01*
X109400000Y-98257142D01*
X109371428Y-98342857D01*
X109371428Y-98400000D01*
X109400000Y-98485714D01*
X109428571Y-98514285D01*
X109371428Y-99057142D02*
X109371428Y-98771428D01*
X109657142Y-98742857D01*
X109628571Y-98771428D01*
X109600000Y-98828571D01*
X109600000Y-98971428D01*
X109628571Y-99028571D01*
X109657142Y-99057142D01*
X109714285Y-99085714D01*
X109857142Y-99085714D01*
X109914285Y-99057142D01*
X109942857Y-99028571D01*
X109971428Y-98971428D01*
X109971428Y-98828571D01*
X109942857Y-98771428D01*
X109914285Y-98742857D01*
X109971428Y-99371428D02*
X109971428Y-99485714D01*
X109942857Y-99542857D01*
X109914285Y-99571428D01*
X109828571Y-99628571D01*
X109714285Y-99657142D01*
X109485714Y-99657142D01*
X109428571Y-99628571D01*
X109400000Y-99600000D01*
X109371428Y-99542857D01*
X109371428Y-99428571D01*
X109400000Y-99371428D01*
X109428571Y-99342857D01*
X109485714Y-99314285D01*
X109628571Y-99314285D01*
X109685714Y-99342857D01*
X109714285Y-99371428D01*
X109742857Y-99428571D01*
X109742857Y-99542857D01*
X109714285Y-99600000D01*
X109685714Y-99628571D01*
X109628571Y-99657142D01*
%TO.C,C60*%
X107885714Y-99514285D02*
X107914285Y-99542857D01*
X108000000Y-99571428D01*
X108057142Y-99571428D01*
X108142857Y-99542857D01*
X108200000Y-99485714D01*
X108228571Y-99428571D01*
X108257142Y-99314285D01*
X108257142Y-99228571D01*
X108228571Y-99114285D01*
X108200000Y-99057142D01*
X108142857Y-99000000D01*
X108057142Y-98971428D01*
X108000000Y-98971428D01*
X107914285Y-99000000D01*
X107885714Y-99028571D01*
X107371428Y-98971428D02*
X107485714Y-98971428D01*
X107542857Y-99000000D01*
X107571428Y-99028571D01*
X107628571Y-99114285D01*
X107657142Y-99228571D01*
X107657142Y-99457142D01*
X107628571Y-99514285D01*
X107600000Y-99542857D01*
X107542857Y-99571428D01*
X107428571Y-99571428D01*
X107371428Y-99542857D01*
X107342857Y-99514285D01*
X107314285Y-99457142D01*
X107314285Y-99314285D01*
X107342857Y-99257142D01*
X107371428Y-99228571D01*
X107428571Y-99200000D01*
X107542857Y-99200000D01*
X107600000Y-99228571D01*
X107628571Y-99257142D01*
X107657142Y-99314285D01*
X106942857Y-98971428D02*
X106885714Y-98971428D01*
X106828571Y-99000000D01*
X106800000Y-99028571D01*
X106771428Y-99085714D01*
X106742857Y-99200000D01*
X106742857Y-99342857D01*
X106771428Y-99457142D01*
X106800000Y-99514285D01*
X106828571Y-99542857D01*
X106885714Y-99571428D01*
X106942857Y-99571428D01*
X107000000Y-99542857D01*
X107028571Y-99514285D01*
X107057142Y-99457142D01*
X107085714Y-99342857D01*
X107085714Y-99200000D01*
X107057142Y-99085714D01*
X107028571Y-99028571D01*
X107000000Y-99000000D01*
X106942857Y-98971428D01*
%TO.C,C63*%
X144414285Y-98514285D02*
X144442857Y-98485714D01*
X144471428Y-98400000D01*
X144471428Y-98342857D01*
X144442857Y-98257142D01*
X144385714Y-98200000D01*
X144328571Y-98171428D01*
X144214285Y-98142857D01*
X144128571Y-98142857D01*
X144014285Y-98171428D01*
X143957142Y-98200000D01*
X143900000Y-98257142D01*
X143871428Y-98342857D01*
X143871428Y-98400000D01*
X143900000Y-98485714D01*
X143928571Y-98514285D01*
X143871428Y-99028571D02*
X143871428Y-98914285D01*
X143900000Y-98857142D01*
X143928571Y-98828571D01*
X144014285Y-98771428D01*
X144128571Y-98742857D01*
X144357142Y-98742857D01*
X144414285Y-98771428D01*
X144442857Y-98800000D01*
X144471428Y-98857142D01*
X144471428Y-98971428D01*
X144442857Y-99028571D01*
X144414285Y-99057142D01*
X144357142Y-99085714D01*
X144214285Y-99085714D01*
X144157142Y-99057142D01*
X144128571Y-99028571D01*
X144100000Y-98971428D01*
X144100000Y-98857142D01*
X144128571Y-98800000D01*
X144157142Y-98771428D01*
X144214285Y-98742857D01*
X143871428Y-99285714D02*
X143871428Y-99657142D01*
X144100000Y-99457142D01*
X144100000Y-99542857D01*
X144128571Y-99600000D01*
X144157142Y-99628571D01*
X144214285Y-99657142D01*
X144357142Y-99657142D01*
X144414285Y-99628571D01*
X144442857Y-99600000D01*
X144471428Y-99542857D01*
X144471428Y-99371428D01*
X144442857Y-99314285D01*
X144414285Y-99285714D01*
%TO.C,C64*%
X143114285Y-98514285D02*
X143142857Y-98485714D01*
X143171428Y-98400000D01*
X143171428Y-98342857D01*
X143142857Y-98257142D01*
X143085714Y-98200000D01*
X143028571Y-98171428D01*
X142914285Y-98142857D01*
X142828571Y-98142857D01*
X142714285Y-98171428D01*
X142657142Y-98200000D01*
X142600000Y-98257142D01*
X142571428Y-98342857D01*
X142571428Y-98400000D01*
X142600000Y-98485714D01*
X142628571Y-98514285D01*
X142571428Y-99028571D02*
X142571428Y-98914285D01*
X142600000Y-98857142D01*
X142628571Y-98828571D01*
X142714285Y-98771428D01*
X142828571Y-98742857D01*
X143057142Y-98742857D01*
X143114285Y-98771428D01*
X143142857Y-98800000D01*
X143171428Y-98857142D01*
X143171428Y-98971428D01*
X143142857Y-99028571D01*
X143114285Y-99057142D01*
X143057142Y-99085714D01*
X142914285Y-99085714D01*
X142857142Y-99057142D01*
X142828571Y-99028571D01*
X142800000Y-98971428D01*
X142800000Y-98857142D01*
X142828571Y-98800000D01*
X142857142Y-98771428D01*
X142914285Y-98742857D01*
X142771428Y-99600000D02*
X143171428Y-99600000D01*
X142542857Y-99457142D02*
X142971428Y-99314285D01*
X142971428Y-99685714D01*
%TO.C,C65*%
X141864285Y-98514285D02*
X141892857Y-98485714D01*
X141921428Y-98400000D01*
X141921428Y-98342857D01*
X141892857Y-98257142D01*
X141835714Y-98200000D01*
X141778571Y-98171428D01*
X141664285Y-98142857D01*
X141578571Y-98142857D01*
X141464285Y-98171428D01*
X141407142Y-98200000D01*
X141350000Y-98257142D01*
X141321428Y-98342857D01*
X141321428Y-98400000D01*
X141350000Y-98485714D01*
X141378571Y-98514285D01*
X141321428Y-99028571D02*
X141321428Y-98914285D01*
X141350000Y-98857142D01*
X141378571Y-98828571D01*
X141464285Y-98771428D01*
X141578571Y-98742857D01*
X141807142Y-98742857D01*
X141864285Y-98771428D01*
X141892857Y-98800000D01*
X141921428Y-98857142D01*
X141921428Y-98971428D01*
X141892857Y-99028571D01*
X141864285Y-99057142D01*
X141807142Y-99085714D01*
X141664285Y-99085714D01*
X141607142Y-99057142D01*
X141578571Y-99028571D01*
X141550000Y-98971428D01*
X141550000Y-98857142D01*
X141578571Y-98800000D01*
X141607142Y-98771428D01*
X141664285Y-98742857D01*
X141321428Y-99628571D02*
X141321428Y-99342857D01*
X141607142Y-99314285D01*
X141578571Y-99342857D01*
X141550000Y-99400000D01*
X141550000Y-99542857D01*
X141578571Y-99600000D01*
X141607142Y-99628571D01*
X141664285Y-99657142D01*
X141807142Y-99657142D01*
X141864285Y-99628571D01*
X141892857Y-99600000D01*
X141921428Y-99542857D01*
X141921428Y-99400000D01*
X141892857Y-99342857D01*
X141864285Y-99314285D01*
%TO.C,C66*%
X139885714Y-99514285D02*
X139914285Y-99542857D01*
X140000000Y-99571428D01*
X140057142Y-99571428D01*
X140142857Y-99542857D01*
X140200000Y-99485714D01*
X140228571Y-99428571D01*
X140257142Y-99314285D01*
X140257142Y-99228571D01*
X140228571Y-99114285D01*
X140200000Y-99057142D01*
X140142857Y-99000000D01*
X140057142Y-98971428D01*
X140000000Y-98971428D01*
X139914285Y-99000000D01*
X139885714Y-99028571D01*
X139371428Y-98971428D02*
X139485714Y-98971428D01*
X139542857Y-99000000D01*
X139571428Y-99028571D01*
X139628571Y-99114285D01*
X139657142Y-99228571D01*
X139657142Y-99457142D01*
X139628571Y-99514285D01*
X139600000Y-99542857D01*
X139542857Y-99571428D01*
X139428571Y-99571428D01*
X139371428Y-99542857D01*
X139342857Y-99514285D01*
X139314285Y-99457142D01*
X139314285Y-99314285D01*
X139342857Y-99257142D01*
X139371428Y-99228571D01*
X139428571Y-99200000D01*
X139542857Y-99200000D01*
X139600000Y-99228571D01*
X139628571Y-99257142D01*
X139657142Y-99314285D01*
X138800000Y-98971428D02*
X138914285Y-98971428D01*
X138971428Y-99000000D01*
X139000000Y-99028571D01*
X139057142Y-99114285D01*
X139085714Y-99228571D01*
X139085714Y-99457142D01*
X139057142Y-99514285D01*
X139028571Y-99542857D01*
X138971428Y-99571428D01*
X138857142Y-99571428D01*
X138800000Y-99542857D01*
X138771428Y-99514285D01*
X138742857Y-99457142D01*
X138742857Y-99314285D01*
X138771428Y-99257142D01*
X138800000Y-99228571D01*
X138857142Y-99200000D01*
X138971428Y-99200000D01*
X139028571Y-99228571D01*
X139057142Y-99257142D01*
X139085714Y-99314285D01*
%TO.C,C72*%
X126185749Y-57814285D02*
X126214320Y-57842857D01*
X126300035Y-57871428D01*
X126357177Y-57871428D01*
X126442892Y-57842857D01*
X126500035Y-57785714D01*
X126528606Y-57728571D01*
X126557177Y-57614285D01*
X126557177Y-57528571D01*
X126528606Y-57414285D01*
X126500035Y-57357142D01*
X126442892Y-57300000D01*
X126357177Y-57271428D01*
X126300035Y-57271428D01*
X126214320Y-57300000D01*
X126185749Y-57328571D01*
X125985749Y-57271428D02*
X125585749Y-57271428D01*
X125842892Y-57871428D01*
X125385749Y-57328571D02*
X125357177Y-57300000D01*
X125300035Y-57271428D01*
X125157177Y-57271428D01*
X125100035Y-57300000D01*
X125071463Y-57328571D01*
X125042892Y-57385714D01*
X125042892Y-57442857D01*
X125071463Y-57528571D01*
X125414320Y-57871428D01*
X125042892Y-57871428D01*
%TO.C,C73*%
X134174285Y-57684285D02*
X134202857Y-57655714D01*
X134231428Y-57570000D01*
X134231428Y-57512857D01*
X134202857Y-57427142D01*
X134145714Y-57370000D01*
X134088571Y-57341428D01*
X133974285Y-57312857D01*
X133888571Y-57312857D01*
X133774285Y-57341428D01*
X133717142Y-57370000D01*
X133660000Y-57427142D01*
X133631428Y-57512857D01*
X133631428Y-57570000D01*
X133660000Y-57655714D01*
X133688571Y-57684285D01*
X133631428Y-57884285D02*
X133631428Y-58284285D01*
X134231428Y-58027142D01*
X133631428Y-58455714D02*
X133631428Y-58827142D01*
X133860000Y-58627142D01*
X133860000Y-58712857D01*
X133888571Y-58770000D01*
X133917142Y-58798571D01*
X133974285Y-58827142D01*
X134117142Y-58827142D01*
X134174285Y-58798571D01*
X134202857Y-58770000D01*
X134231428Y-58712857D01*
X134231428Y-58541428D01*
X134202857Y-58484285D01*
X134174285Y-58455714D01*
%TO.C,C74*%
X112185714Y-76314285D02*
X112214285Y-76342857D01*
X112300000Y-76371428D01*
X112357142Y-76371428D01*
X112442857Y-76342857D01*
X112500000Y-76285714D01*
X112528571Y-76228571D01*
X112557142Y-76114285D01*
X112557142Y-76028571D01*
X112528571Y-75914285D01*
X112500000Y-75857142D01*
X112442857Y-75800000D01*
X112357142Y-75771428D01*
X112300000Y-75771428D01*
X112214285Y-75800000D01*
X112185714Y-75828571D01*
X111985714Y-75771428D02*
X111585714Y-75771428D01*
X111842857Y-76371428D01*
X111100000Y-75971428D02*
X111100000Y-76371428D01*
X111242857Y-75742857D02*
X111385714Y-76171428D01*
X111014285Y-76171428D01*
%TO.C,C75*%
X115460714Y-73614285D02*
X115489285Y-73642857D01*
X115575000Y-73671428D01*
X115632142Y-73671428D01*
X115717857Y-73642857D01*
X115775000Y-73585714D01*
X115803571Y-73528571D01*
X115832142Y-73414285D01*
X115832142Y-73328571D01*
X115803571Y-73214285D01*
X115775000Y-73157142D01*
X115717857Y-73100000D01*
X115632142Y-73071428D01*
X115575000Y-73071428D01*
X115489285Y-73100000D01*
X115460714Y-73128571D01*
X115260714Y-73071428D02*
X114860714Y-73071428D01*
X115117857Y-73671428D01*
X114346428Y-73071428D02*
X114632142Y-73071428D01*
X114660714Y-73357142D01*
X114632142Y-73328571D01*
X114575000Y-73300000D01*
X114432142Y-73300000D01*
X114375000Y-73328571D01*
X114346428Y-73357142D01*
X114317857Y-73414285D01*
X114317857Y-73557142D01*
X114346428Y-73614285D01*
X114375000Y-73642857D01*
X114432142Y-73671428D01*
X114575000Y-73671428D01*
X114632142Y-73642857D01*
X114660714Y-73614285D01*
%TO.C,C77*%
X110235714Y-71514285D02*
X110264285Y-71542857D01*
X110350000Y-71571428D01*
X110407142Y-71571428D01*
X110492857Y-71542857D01*
X110550000Y-71485714D01*
X110578571Y-71428571D01*
X110607142Y-71314285D01*
X110607142Y-71228571D01*
X110578571Y-71114285D01*
X110550000Y-71057142D01*
X110492857Y-71000000D01*
X110407142Y-70971428D01*
X110350000Y-70971428D01*
X110264285Y-71000000D01*
X110235714Y-71028571D01*
X110035714Y-70971428D02*
X109635714Y-70971428D01*
X109892857Y-71571428D01*
X109464285Y-70971428D02*
X109064285Y-70971428D01*
X109321428Y-71571428D01*
%TO.C,C78*%
X107485714Y-70314285D02*
X107514285Y-70342857D01*
X107600000Y-70371428D01*
X107657142Y-70371428D01*
X107742857Y-70342857D01*
X107800000Y-70285714D01*
X107828571Y-70228571D01*
X107857142Y-70114285D01*
X107857142Y-70028571D01*
X107828571Y-69914285D01*
X107800000Y-69857142D01*
X107742857Y-69800000D01*
X107657142Y-69771428D01*
X107600000Y-69771428D01*
X107514285Y-69800000D01*
X107485714Y-69828571D01*
X107285714Y-69771428D02*
X106885714Y-69771428D01*
X107142857Y-70371428D01*
X106571428Y-70028571D02*
X106628571Y-70000000D01*
X106657142Y-69971428D01*
X106685714Y-69914285D01*
X106685714Y-69885714D01*
X106657142Y-69828571D01*
X106628571Y-69800000D01*
X106571428Y-69771428D01*
X106457142Y-69771428D01*
X106400000Y-69800000D01*
X106371428Y-69828571D01*
X106342857Y-69885714D01*
X106342857Y-69914285D01*
X106371428Y-69971428D01*
X106400000Y-70000000D01*
X106457142Y-70028571D01*
X106571428Y-70028571D01*
X106628571Y-70057142D01*
X106657142Y-70085714D01*
X106685714Y-70142857D01*
X106685714Y-70257142D01*
X106657142Y-70314285D01*
X106628571Y-70342857D01*
X106571428Y-70371428D01*
X106457142Y-70371428D01*
X106400000Y-70342857D01*
X106371428Y-70314285D01*
X106342857Y-70257142D01*
X106342857Y-70142857D01*
X106371428Y-70085714D01*
X106400000Y-70057142D01*
X106457142Y-70028571D01*
%TO.C,C79*%
X113585714Y-72314285D02*
X113614285Y-72342857D01*
X113700000Y-72371428D01*
X113757142Y-72371428D01*
X113842857Y-72342857D01*
X113900000Y-72285714D01*
X113928571Y-72228571D01*
X113957142Y-72114285D01*
X113957142Y-72028571D01*
X113928571Y-71914285D01*
X113900000Y-71857142D01*
X113842857Y-71800000D01*
X113757142Y-71771428D01*
X113700000Y-71771428D01*
X113614285Y-71800000D01*
X113585714Y-71828571D01*
X113385714Y-71771428D02*
X112985714Y-71771428D01*
X113242857Y-72371428D01*
X112728571Y-72371428D02*
X112614285Y-72371428D01*
X112557142Y-72342857D01*
X112528571Y-72314285D01*
X112471428Y-72228571D01*
X112442857Y-72114285D01*
X112442857Y-71885714D01*
X112471428Y-71828571D01*
X112500000Y-71800000D01*
X112557142Y-71771428D01*
X112671428Y-71771428D01*
X112728571Y-71800000D01*
X112757142Y-71828571D01*
X112785714Y-71885714D01*
X112785714Y-72028571D01*
X112757142Y-72085714D01*
X112728571Y-72114285D01*
X112671428Y-72142857D01*
X112557142Y-72142857D01*
X112500000Y-72114285D01*
X112471428Y-72085714D01*
X112442857Y-72028571D01*
%TO.C,C81*%
X104485714Y-82114285D02*
X104514285Y-82142857D01*
X104600000Y-82171428D01*
X104657142Y-82171428D01*
X104742857Y-82142857D01*
X104800000Y-82085714D01*
X104828571Y-82028571D01*
X104857142Y-81914285D01*
X104857142Y-81828571D01*
X104828571Y-81714285D01*
X104800000Y-81657142D01*
X104742857Y-81600000D01*
X104657142Y-81571428D01*
X104600000Y-81571428D01*
X104514285Y-81600000D01*
X104485714Y-81628571D01*
X104142857Y-81828571D02*
X104200000Y-81800000D01*
X104228571Y-81771428D01*
X104257142Y-81714285D01*
X104257142Y-81685714D01*
X104228571Y-81628571D01*
X104200000Y-81600000D01*
X104142857Y-81571428D01*
X104028571Y-81571428D01*
X103971428Y-81600000D01*
X103942857Y-81628571D01*
X103914285Y-81685714D01*
X103914285Y-81714285D01*
X103942857Y-81771428D01*
X103971428Y-81800000D01*
X104028571Y-81828571D01*
X104142857Y-81828571D01*
X104200000Y-81857142D01*
X104228571Y-81885714D01*
X104257142Y-81942857D01*
X104257142Y-82057142D01*
X104228571Y-82114285D01*
X104200000Y-82142857D01*
X104142857Y-82171428D01*
X104028571Y-82171428D01*
X103971428Y-82142857D01*
X103942857Y-82114285D01*
X103914285Y-82057142D01*
X103914285Y-81942857D01*
X103942857Y-81885714D01*
X103971428Y-81857142D01*
X104028571Y-81828571D01*
X103342857Y-82171428D02*
X103685714Y-82171428D01*
X103514285Y-82171428D02*
X103514285Y-81571428D01*
X103571428Y-81657142D01*
X103628571Y-81714285D01*
X103685714Y-81742857D01*
%TO.C,C83*%
X100814285Y-79214285D02*
X100842857Y-79185714D01*
X100871428Y-79100000D01*
X100871428Y-79042857D01*
X100842857Y-78957142D01*
X100785714Y-78900000D01*
X100728571Y-78871428D01*
X100614285Y-78842857D01*
X100528571Y-78842857D01*
X100414285Y-78871428D01*
X100357142Y-78900000D01*
X100300000Y-78957142D01*
X100271428Y-79042857D01*
X100271428Y-79100000D01*
X100300000Y-79185714D01*
X100328571Y-79214285D01*
X100528571Y-79557142D02*
X100500000Y-79500000D01*
X100471428Y-79471428D01*
X100414285Y-79442857D01*
X100385714Y-79442857D01*
X100328571Y-79471428D01*
X100300000Y-79500000D01*
X100271428Y-79557142D01*
X100271428Y-79671428D01*
X100300000Y-79728571D01*
X100328571Y-79757142D01*
X100385714Y-79785714D01*
X100414285Y-79785714D01*
X100471428Y-79757142D01*
X100500000Y-79728571D01*
X100528571Y-79671428D01*
X100528571Y-79557142D01*
X100557142Y-79500000D01*
X100585714Y-79471428D01*
X100642857Y-79442857D01*
X100757142Y-79442857D01*
X100814285Y-79471428D01*
X100842857Y-79500000D01*
X100871428Y-79557142D01*
X100871428Y-79671428D01*
X100842857Y-79728571D01*
X100814285Y-79757142D01*
X100757142Y-79785714D01*
X100642857Y-79785714D01*
X100585714Y-79757142D01*
X100557142Y-79728571D01*
X100528571Y-79671428D01*
X100271428Y-79985714D02*
X100271428Y-80357142D01*
X100500000Y-80157142D01*
X100500000Y-80242857D01*
X100528571Y-80300000D01*
X100557142Y-80328571D01*
X100614285Y-80357142D01*
X100757142Y-80357142D01*
X100814285Y-80328571D01*
X100842857Y-80300000D01*
X100871428Y-80242857D01*
X100871428Y-80071428D01*
X100842857Y-80014285D01*
X100814285Y-79985714D01*
%TO.C,C84*%
X100814285Y-77214285D02*
X100842857Y-77185714D01*
X100871428Y-77100000D01*
X100871428Y-77042857D01*
X100842857Y-76957142D01*
X100785714Y-76900000D01*
X100728571Y-76871428D01*
X100614285Y-76842857D01*
X100528571Y-76842857D01*
X100414285Y-76871428D01*
X100357142Y-76900000D01*
X100300000Y-76957142D01*
X100271428Y-77042857D01*
X100271428Y-77100000D01*
X100300000Y-77185714D01*
X100328571Y-77214285D01*
X100528571Y-77557142D02*
X100500000Y-77500000D01*
X100471428Y-77471428D01*
X100414285Y-77442857D01*
X100385714Y-77442857D01*
X100328571Y-77471428D01*
X100300000Y-77500000D01*
X100271428Y-77557142D01*
X100271428Y-77671428D01*
X100300000Y-77728571D01*
X100328571Y-77757142D01*
X100385714Y-77785714D01*
X100414285Y-77785714D01*
X100471428Y-77757142D01*
X100500000Y-77728571D01*
X100528571Y-77671428D01*
X100528571Y-77557142D01*
X100557142Y-77500000D01*
X100585714Y-77471428D01*
X100642857Y-77442857D01*
X100757142Y-77442857D01*
X100814285Y-77471428D01*
X100842857Y-77500000D01*
X100871428Y-77557142D01*
X100871428Y-77671428D01*
X100842857Y-77728571D01*
X100814285Y-77757142D01*
X100757142Y-77785714D01*
X100642857Y-77785714D01*
X100585714Y-77757142D01*
X100557142Y-77728571D01*
X100528571Y-77671428D01*
X100471428Y-78300000D02*
X100871428Y-78300000D01*
X100242857Y-78157142D02*
X100671428Y-78014285D01*
X100671428Y-78385714D01*
%TO.C,C85*%
X100814285Y-75114285D02*
X100842857Y-75085714D01*
X100871428Y-75000000D01*
X100871428Y-74942857D01*
X100842857Y-74857142D01*
X100785714Y-74800000D01*
X100728571Y-74771428D01*
X100614285Y-74742857D01*
X100528571Y-74742857D01*
X100414285Y-74771428D01*
X100357142Y-74800000D01*
X100300000Y-74857142D01*
X100271428Y-74942857D01*
X100271428Y-75000000D01*
X100300000Y-75085714D01*
X100328571Y-75114285D01*
X100528571Y-75457142D02*
X100500000Y-75400000D01*
X100471428Y-75371428D01*
X100414285Y-75342857D01*
X100385714Y-75342857D01*
X100328571Y-75371428D01*
X100300000Y-75400000D01*
X100271428Y-75457142D01*
X100271428Y-75571428D01*
X100300000Y-75628571D01*
X100328571Y-75657142D01*
X100385714Y-75685714D01*
X100414285Y-75685714D01*
X100471428Y-75657142D01*
X100500000Y-75628571D01*
X100528571Y-75571428D01*
X100528571Y-75457142D01*
X100557142Y-75400000D01*
X100585714Y-75371428D01*
X100642857Y-75342857D01*
X100757142Y-75342857D01*
X100814285Y-75371428D01*
X100842857Y-75400000D01*
X100871428Y-75457142D01*
X100871428Y-75571428D01*
X100842857Y-75628571D01*
X100814285Y-75657142D01*
X100757142Y-75685714D01*
X100642857Y-75685714D01*
X100585714Y-75657142D01*
X100557142Y-75628571D01*
X100528571Y-75571428D01*
X100271428Y-76228571D02*
X100271428Y-75942857D01*
X100557142Y-75914285D01*
X100528571Y-75942857D01*
X100500000Y-76000000D01*
X100500000Y-76142857D01*
X100528571Y-76200000D01*
X100557142Y-76228571D01*
X100614285Y-76257142D01*
X100757142Y-76257142D01*
X100814285Y-76228571D01*
X100842857Y-76200000D01*
X100871428Y-76142857D01*
X100871428Y-76000000D01*
X100842857Y-75942857D01*
X100814285Y-75914285D01*
%TO.C,C86*%
X117685714Y-82014285D02*
X117714285Y-82042857D01*
X117800000Y-82071428D01*
X117857142Y-82071428D01*
X117942857Y-82042857D01*
X118000000Y-81985714D01*
X118028571Y-81928571D01*
X118057142Y-81814285D01*
X118057142Y-81728571D01*
X118028571Y-81614285D01*
X118000000Y-81557142D01*
X117942857Y-81500000D01*
X117857142Y-81471428D01*
X117800000Y-81471428D01*
X117714285Y-81500000D01*
X117685714Y-81528571D01*
X117342857Y-81728571D02*
X117400000Y-81700000D01*
X117428571Y-81671428D01*
X117457142Y-81614285D01*
X117457142Y-81585714D01*
X117428571Y-81528571D01*
X117400000Y-81500000D01*
X117342857Y-81471428D01*
X117228571Y-81471428D01*
X117171428Y-81500000D01*
X117142857Y-81528571D01*
X117114285Y-81585714D01*
X117114285Y-81614285D01*
X117142857Y-81671428D01*
X117171428Y-81700000D01*
X117228571Y-81728571D01*
X117342857Y-81728571D01*
X117400000Y-81757142D01*
X117428571Y-81785714D01*
X117457142Y-81842857D01*
X117457142Y-81957142D01*
X117428571Y-82014285D01*
X117400000Y-82042857D01*
X117342857Y-82071428D01*
X117228571Y-82071428D01*
X117171428Y-82042857D01*
X117142857Y-82014285D01*
X117114285Y-81957142D01*
X117114285Y-81842857D01*
X117142857Y-81785714D01*
X117171428Y-81757142D01*
X117228571Y-81728571D01*
X116600000Y-81471428D02*
X116714285Y-81471428D01*
X116771428Y-81500000D01*
X116800000Y-81528571D01*
X116857142Y-81614285D01*
X116885714Y-81728571D01*
X116885714Y-81957142D01*
X116857142Y-82014285D01*
X116828571Y-82042857D01*
X116771428Y-82071428D01*
X116657142Y-82071428D01*
X116600000Y-82042857D01*
X116571428Y-82014285D01*
X116542857Y-81957142D01*
X116542857Y-81814285D01*
X116571428Y-81757142D01*
X116600000Y-81728571D01*
X116657142Y-81700000D01*
X116771428Y-81700000D01*
X116828571Y-81728571D01*
X116857142Y-81757142D01*
X116885714Y-81814285D01*
%TO.C,C89*%
X104485714Y-89114285D02*
X104514285Y-89142857D01*
X104600000Y-89171428D01*
X104657142Y-89171428D01*
X104742857Y-89142857D01*
X104800000Y-89085714D01*
X104828571Y-89028571D01*
X104857142Y-88914285D01*
X104857142Y-88828571D01*
X104828571Y-88714285D01*
X104800000Y-88657142D01*
X104742857Y-88600000D01*
X104657142Y-88571428D01*
X104600000Y-88571428D01*
X104514285Y-88600000D01*
X104485714Y-88628571D01*
X104142857Y-88828571D02*
X104200000Y-88800000D01*
X104228571Y-88771428D01*
X104257142Y-88714285D01*
X104257142Y-88685714D01*
X104228571Y-88628571D01*
X104200000Y-88600000D01*
X104142857Y-88571428D01*
X104028571Y-88571428D01*
X103971428Y-88600000D01*
X103942857Y-88628571D01*
X103914285Y-88685714D01*
X103914285Y-88714285D01*
X103942857Y-88771428D01*
X103971428Y-88800000D01*
X104028571Y-88828571D01*
X104142857Y-88828571D01*
X104200000Y-88857142D01*
X104228571Y-88885714D01*
X104257142Y-88942857D01*
X104257142Y-89057142D01*
X104228571Y-89114285D01*
X104200000Y-89142857D01*
X104142857Y-89171428D01*
X104028571Y-89171428D01*
X103971428Y-89142857D01*
X103942857Y-89114285D01*
X103914285Y-89057142D01*
X103914285Y-88942857D01*
X103942857Y-88885714D01*
X103971428Y-88857142D01*
X104028571Y-88828571D01*
X103628571Y-89171428D02*
X103514285Y-89171428D01*
X103457142Y-89142857D01*
X103428571Y-89114285D01*
X103371428Y-89028571D01*
X103342857Y-88914285D01*
X103342857Y-88685714D01*
X103371428Y-88628571D01*
X103400000Y-88600000D01*
X103457142Y-88571428D01*
X103571428Y-88571428D01*
X103628571Y-88600000D01*
X103657142Y-88628571D01*
X103685714Y-88685714D01*
X103685714Y-88828571D01*
X103657142Y-88885714D01*
X103628571Y-88914285D01*
X103571428Y-88942857D01*
X103457142Y-88942857D01*
X103400000Y-88914285D01*
X103371428Y-88885714D01*
X103342857Y-88828571D01*
%TO.C,C97*%
X146485714Y-92414285D02*
X146514285Y-92442857D01*
X146600000Y-92471428D01*
X146657142Y-92471428D01*
X146742857Y-92442857D01*
X146800000Y-92385714D01*
X146828571Y-92328571D01*
X146857142Y-92214285D01*
X146857142Y-92128571D01*
X146828571Y-92014285D01*
X146800000Y-91957142D01*
X146742857Y-91900000D01*
X146657142Y-91871428D01*
X146600000Y-91871428D01*
X146514285Y-91900000D01*
X146485714Y-91928571D01*
X146200000Y-92471428D02*
X146085714Y-92471428D01*
X146028571Y-92442857D01*
X146000000Y-92414285D01*
X145942857Y-92328571D01*
X145914285Y-92214285D01*
X145914285Y-91985714D01*
X145942857Y-91928571D01*
X145971428Y-91900000D01*
X146028571Y-91871428D01*
X146142857Y-91871428D01*
X146200000Y-91900000D01*
X146228571Y-91928571D01*
X146257142Y-91985714D01*
X146257142Y-92128571D01*
X146228571Y-92185714D01*
X146200000Y-92214285D01*
X146142857Y-92242857D01*
X146028571Y-92242857D01*
X145971428Y-92214285D01*
X145942857Y-92185714D01*
X145914285Y-92128571D01*
X145714285Y-91871428D02*
X145314285Y-91871428D01*
X145571428Y-92471428D01*
%TO.C,C102*%
X133371428Y-82014285D02*
X133400000Y-82042857D01*
X133485714Y-82071428D01*
X133542857Y-82071428D01*
X133628571Y-82042857D01*
X133685714Y-81985714D01*
X133714285Y-81928571D01*
X133742857Y-81814285D01*
X133742857Y-81728571D01*
X133714285Y-81614285D01*
X133685714Y-81557142D01*
X133628571Y-81500000D01*
X133542857Y-81471428D01*
X133485714Y-81471428D01*
X133400000Y-81500000D01*
X133371428Y-81528571D01*
X132800000Y-82071428D02*
X133142857Y-82071428D01*
X132971428Y-82071428D02*
X132971428Y-81471428D01*
X133028571Y-81557142D01*
X133085714Y-81614285D01*
X133142857Y-81642857D01*
X132428571Y-81471428D02*
X132371428Y-81471428D01*
X132314285Y-81500000D01*
X132285714Y-81528571D01*
X132257142Y-81585714D01*
X132228571Y-81700000D01*
X132228571Y-81842857D01*
X132257142Y-81957142D01*
X132285714Y-82014285D01*
X132314285Y-82042857D01*
X132371428Y-82071428D01*
X132428571Y-82071428D01*
X132485714Y-82042857D01*
X132514285Y-82014285D01*
X132542857Y-81957142D01*
X132571428Y-81842857D01*
X132571428Y-81700000D01*
X132542857Y-81585714D01*
X132514285Y-81528571D01*
X132485714Y-81500000D01*
X132428571Y-81471428D01*
X132000000Y-81528571D02*
X131971428Y-81500000D01*
X131914285Y-81471428D01*
X131771428Y-81471428D01*
X131714285Y-81500000D01*
X131685714Y-81528571D01*
X131657142Y-81585714D01*
X131657142Y-81642857D01*
X131685714Y-81728571D01*
X132028571Y-82071428D01*
X131657142Y-82071428D01*
%TO.C,C104*%
X146756428Y-88914285D02*
X146785000Y-88942857D01*
X146870714Y-88971428D01*
X146927857Y-88971428D01*
X147013571Y-88942857D01*
X147070714Y-88885714D01*
X147099285Y-88828571D01*
X147127857Y-88714285D01*
X147127857Y-88628571D01*
X147099285Y-88514285D01*
X147070714Y-88457142D01*
X147013571Y-88400000D01*
X146927857Y-88371428D01*
X146870714Y-88371428D01*
X146785000Y-88400000D01*
X146756428Y-88428571D01*
X146185000Y-88971428D02*
X146527857Y-88971428D01*
X146356428Y-88971428D02*
X146356428Y-88371428D01*
X146413571Y-88457142D01*
X146470714Y-88514285D01*
X146527857Y-88542857D01*
X145813571Y-88371428D02*
X145756428Y-88371428D01*
X145699285Y-88400000D01*
X145670714Y-88428571D01*
X145642142Y-88485714D01*
X145613571Y-88600000D01*
X145613571Y-88742857D01*
X145642142Y-88857142D01*
X145670714Y-88914285D01*
X145699285Y-88942857D01*
X145756428Y-88971428D01*
X145813571Y-88971428D01*
X145870714Y-88942857D01*
X145899285Y-88914285D01*
X145927857Y-88857142D01*
X145956428Y-88742857D01*
X145956428Y-88600000D01*
X145927857Y-88485714D01*
X145899285Y-88428571D01*
X145870714Y-88400000D01*
X145813571Y-88371428D01*
X145099285Y-88571428D02*
X145099285Y-88971428D01*
X145242142Y-88342857D02*
X145385000Y-88771428D01*
X145013571Y-88771428D01*
%TO.C,C105*%
X146756428Y-85414285D02*
X146785000Y-85442857D01*
X146870714Y-85471428D01*
X146927857Y-85471428D01*
X147013571Y-85442857D01*
X147070714Y-85385714D01*
X147099285Y-85328571D01*
X147127857Y-85214285D01*
X147127857Y-85128571D01*
X147099285Y-85014285D01*
X147070714Y-84957142D01*
X147013571Y-84900000D01*
X146927857Y-84871428D01*
X146870714Y-84871428D01*
X146785000Y-84900000D01*
X146756428Y-84928571D01*
X146185000Y-85471428D02*
X146527857Y-85471428D01*
X146356428Y-85471428D02*
X146356428Y-84871428D01*
X146413571Y-84957142D01*
X146470714Y-85014285D01*
X146527857Y-85042857D01*
X145813571Y-84871428D02*
X145756428Y-84871428D01*
X145699285Y-84900000D01*
X145670714Y-84928571D01*
X145642142Y-84985714D01*
X145613571Y-85100000D01*
X145613571Y-85242857D01*
X145642142Y-85357142D01*
X145670714Y-85414285D01*
X145699285Y-85442857D01*
X145756428Y-85471428D01*
X145813571Y-85471428D01*
X145870714Y-85442857D01*
X145899285Y-85414285D01*
X145927857Y-85357142D01*
X145956428Y-85242857D01*
X145956428Y-85100000D01*
X145927857Y-84985714D01*
X145899285Y-84928571D01*
X145870714Y-84900000D01*
X145813571Y-84871428D01*
X145070714Y-84871428D02*
X145356428Y-84871428D01*
X145385000Y-85157142D01*
X145356428Y-85128571D01*
X145299285Y-85100000D01*
X145156428Y-85100000D01*
X145099285Y-85128571D01*
X145070714Y-85157142D01*
X145042142Y-85214285D01*
X145042142Y-85357142D01*
X145070714Y-85414285D01*
X145099285Y-85442857D01*
X145156428Y-85471428D01*
X145299285Y-85471428D01*
X145356428Y-85442857D01*
X145385000Y-85414285D01*
%TO.C,C112*%
X109021428Y-93014285D02*
X109050000Y-93042857D01*
X109135714Y-93071428D01*
X109192857Y-93071428D01*
X109278571Y-93042857D01*
X109335714Y-92985714D01*
X109364285Y-92928571D01*
X109392857Y-92814285D01*
X109392857Y-92728571D01*
X109364285Y-92614285D01*
X109335714Y-92557142D01*
X109278571Y-92500000D01*
X109192857Y-92471428D01*
X109135714Y-92471428D01*
X109050000Y-92500000D01*
X109021428Y-92528571D01*
X108450000Y-93071428D02*
X108792857Y-93071428D01*
X108621428Y-93071428D02*
X108621428Y-92471428D01*
X108678571Y-92557142D01*
X108735714Y-92614285D01*
X108792857Y-92642857D01*
X107878571Y-93071428D02*
X108221428Y-93071428D01*
X108050000Y-93071428D02*
X108050000Y-92471428D01*
X108107142Y-92557142D01*
X108164285Y-92614285D01*
X108221428Y-92642857D01*
X107650000Y-92528571D02*
X107621428Y-92500000D01*
X107564285Y-92471428D01*
X107421428Y-92471428D01*
X107364285Y-92500000D01*
X107335714Y-92528571D01*
X107307142Y-92585714D01*
X107307142Y-92642857D01*
X107335714Y-92728571D01*
X107678571Y-93071428D01*
X107307142Y-93071428D01*
%TO.C,FB1*%
X126857142Y-74300000D02*
X126857142Y-74100000D01*
X127171428Y-74100000D02*
X126571428Y-74100000D01*
X126571428Y-74385714D01*
X126857142Y-74814285D02*
X126885714Y-74900000D01*
X126914285Y-74928571D01*
X126971428Y-74957142D01*
X127057142Y-74957142D01*
X127114285Y-74928571D01*
X127142857Y-74900000D01*
X127171428Y-74842857D01*
X127171428Y-74614285D01*
X126571428Y-74614285D01*
X126571428Y-74814285D01*
X126600000Y-74871428D01*
X126628571Y-74900000D01*
X126685714Y-74928571D01*
X126742857Y-74928571D01*
X126800000Y-74900000D01*
X126828571Y-74871428D01*
X126857142Y-74814285D01*
X126857142Y-74614285D01*
X127171428Y-75528571D02*
X127171428Y-75185714D01*
X127171428Y-75357142D02*
X126571428Y-75357142D01*
X126657142Y-75300000D01*
X126714285Y-75242857D01*
X126742857Y-75185714D01*
%TO.C,FB2*%
X130957142Y-74300000D02*
X130957142Y-74100000D01*
X131271428Y-74100000D02*
X130671428Y-74100000D01*
X130671428Y-74385714D01*
X130957142Y-74814285D02*
X130985714Y-74900000D01*
X131014285Y-74928571D01*
X131071428Y-74957142D01*
X131157142Y-74957142D01*
X131214285Y-74928571D01*
X131242857Y-74900000D01*
X131271428Y-74842857D01*
X131271428Y-74614285D01*
X130671428Y-74614285D01*
X130671428Y-74814285D01*
X130700000Y-74871428D01*
X130728571Y-74900000D01*
X130785714Y-74928571D01*
X130842857Y-74928571D01*
X130900000Y-74900000D01*
X130928571Y-74871428D01*
X130957142Y-74814285D01*
X130957142Y-74614285D01*
X130728571Y-75185714D02*
X130700000Y-75214285D01*
X130671428Y-75271428D01*
X130671428Y-75414285D01*
X130700000Y-75471428D01*
X130728571Y-75500000D01*
X130785714Y-75528571D01*
X130842857Y-75528571D01*
X130928571Y-75500000D01*
X131271428Y-75157142D01*
X131271428Y-75528571D01*
%TO.C,FB3*%
X120900000Y-74157142D02*
X121100000Y-74157142D01*
X121100000Y-74471428D02*
X121100000Y-73871428D01*
X120814285Y-73871428D01*
X120385714Y-74157142D02*
X120300000Y-74185714D01*
X120271428Y-74214285D01*
X120242857Y-74271428D01*
X120242857Y-74357142D01*
X120271428Y-74414285D01*
X120300000Y-74442857D01*
X120357142Y-74471428D01*
X120585714Y-74471428D01*
X120585714Y-73871428D01*
X120385714Y-73871428D01*
X120328571Y-73900000D01*
X120300000Y-73928571D01*
X120271428Y-73985714D01*
X120271428Y-74042857D01*
X120300000Y-74100000D01*
X120328571Y-74128571D01*
X120385714Y-74157142D01*
X120585714Y-74157142D01*
X120042857Y-73871428D02*
X119671428Y-73871428D01*
X119871428Y-74100000D01*
X119785714Y-74100000D01*
X119728571Y-74128571D01*
X119700000Y-74157142D01*
X119671428Y-74214285D01*
X119671428Y-74357142D01*
X119700000Y-74414285D01*
X119728571Y-74442857D01*
X119785714Y-74471428D01*
X119957142Y-74471428D01*
X120014285Y-74442857D01*
X120042857Y-74414285D01*
%TO.C,R1*%
X104200000Y-70271428D02*
X104400000Y-69985714D01*
X104542857Y-70271428D02*
X104542857Y-69671428D01*
X104314285Y-69671428D01*
X104257142Y-69700000D01*
X104228571Y-69728571D01*
X104200000Y-69785714D01*
X104200000Y-69871428D01*
X104228571Y-69928571D01*
X104257142Y-69957142D01*
X104314285Y-69985714D01*
X104542857Y-69985714D01*
X103628571Y-70271428D02*
X103971428Y-70271428D01*
X103800000Y-70271428D02*
X103800000Y-69671428D01*
X103857142Y-69757142D01*
X103914285Y-69814285D01*
X103971428Y-69842857D01*
%TO.C,R6*%
X126800000Y-76976728D02*
X127000000Y-76691014D01*
X127142857Y-76976728D02*
X127142857Y-76376728D01*
X126914285Y-76376728D01*
X126857142Y-76405300D01*
X126828571Y-76433871D01*
X126800000Y-76491014D01*
X126800000Y-76576728D01*
X126828571Y-76633871D01*
X126857142Y-76662442D01*
X126914285Y-76691014D01*
X127142857Y-76691014D01*
X126285714Y-76376728D02*
X126400000Y-76376728D01*
X126457142Y-76405300D01*
X126485714Y-76433871D01*
X126542857Y-76519585D01*
X126571428Y-76633871D01*
X126571428Y-76862442D01*
X126542857Y-76919585D01*
X126514285Y-76948157D01*
X126457142Y-76976728D01*
X126342857Y-76976728D01*
X126285714Y-76948157D01*
X126257142Y-76919585D01*
X126228571Y-76862442D01*
X126228571Y-76719585D01*
X126257142Y-76662442D01*
X126285714Y-76633871D01*
X126342857Y-76605300D01*
X126457142Y-76605300D01*
X126514285Y-76633871D01*
X126542857Y-76662442D01*
X126571428Y-76719585D01*
%TO.C,R8*%
X121771428Y-76900000D02*
X121485714Y-76700000D01*
X121771428Y-76557142D02*
X121171428Y-76557142D01*
X121171428Y-76785714D01*
X121200000Y-76842857D01*
X121228571Y-76871428D01*
X121285714Y-76900000D01*
X121371428Y-76900000D01*
X121428571Y-76871428D01*
X121457142Y-76842857D01*
X121485714Y-76785714D01*
X121485714Y-76557142D01*
X121428571Y-77242857D02*
X121400000Y-77185714D01*
X121371428Y-77157142D01*
X121314285Y-77128571D01*
X121285714Y-77128571D01*
X121228571Y-77157142D01*
X121200000Y-77185714D01*
X121171428Y-77242857D01*
X121171428Y-77357142D01*
X121200000Y-77414285D01*
X121228571Y-77442857D01*
X121285714Y-77471428D01*
X121314285Y-77471428D01*
X121371428Y-77442857D01*
X121400000Y-77414285D01*
X121428571Y-77357142D01*
X121428571Y-77242857D01*
X121457142Y-77185714D01*
X121485714Y-77157142D01*
X121542857Y-77128571D01*
X121657142Y-77128571D01*
X121714285Y-77157142D01*
X121742857Y-77185714D01*
X121771428Y-77242857D01*
X121771428Y-77357142D01*
X121742857Y-77414285D01*
X121714285Y-77442857D01*
X121657142Y-77471428D01*
X121542857Y-77471428D01*
X121485714Y-77442857D01*
X121457142Y-77414285D01*
X121428571Y-77357142D01*
%TO.C,R9*%
X122771428Y-76900000D02*
X122485714Y-76700000D01*
X122771428Y-76557142D02*
X122171428Y-76557142D01*
X122171428Y-76785714D01*
X122200000Y-76842857D01*
X122228571Y-76871428D01*
X122285714Y-76900000D01*
X122371428Y-76900000D01*
X122428571Y-76871428D01*
X122457142Y-76842857D01*
X122485714Y-76785714D01*
X122485714Y-76557142D01*
X122771428Y-77185714D02*
X122771428Y-77300000D01*
X122742857Y-77357142D01*
X122714285Y-77385714D01*
X122628571Y-77442857D01*
X122514285Y-77471428D01*
X122285714Y-77471428D01*
X122228571Y-77442857D01*
X122200000Y-77414285D01*
X122171428Y-77357142D01*
X122171428Y-77242857D01*
X122200000Y-77185714D01*
X122228571Y-77157142D01*
X122285714Y-77128571D01*
X122428571Y-77128571D01*
X122485714Y-77157142D01*
X122514285Y-77185714D01*
X122542857Y-77242857D01*
X122542857Y-77357142D01*
X122514285Y-77414285D01*
X122485714Y-77442857D01*
X122428571Y-77471428D01*
%TO.C,R13*%
X126071428Y-64114285D02*
X125785714Y-63914285D01*
X126071428Y-63771428D02*
X125471428Y-63771428D01*
X125471428Y-64000000D01*
X125500000Y-64057142D01*
X125528571Y-64085714D01*
X125585714Y-64114285D01*
X125671428Y-64114285D01*
X125728571Y-64085714D01*
X125757142Y-64057142D01*
X125785714Y-64000000D01*
X125785714Y-63771428D01*
X126071428Y-64685714D02*
X126071428Y-64342857D01*
X126071428Y-64514285D02*
X125471428Y-64514285D01*
X125557142Y-64457142D01*
X125614285Y-64400000D01*
X125642857Y-64342857D01*
X125471428Y-64885714D02*
X125471428Y-65257142D01*
X125700000Y-65057142D01*
X125700000Y-65142857D01*
X125728571Y-65200000D01*
X125757142Y-65228571D01*
X125814285Y-65257142D01*
X125957142Y-65257142D01*
X126014285Y-65228571D01*
X126042857Y-65200000D01*
X126071428Y-65142857D01*
X126071428Y-64971428D01*
X126042857Y-64914285D01*
X126014285Y-64885714D01*
%TO.C,R14*%
X112571428Y-95234285D02*
X112285714Y-95034285D01*
X112571428Y-94891428D02*
X111971428Y-94891428D01*
X111971428Y-95120000D01*
X112000000Y-95177142D01*
X112028571Y-95205714D01*
X112085714Y-95234285D01*
X112171428Y-95234285D01*
X112228571Y-95205714D01*
X112257142Y-95177142D01*
X112285714Y-95120000D01*
X112285714Y-94891428D01*
X112571428Y-95805714D02*
X112571428Y-95462857D01*
X112571428Y-95634285D02*
X111971428Y-95634285D01*
X112057142Y-95577142D01*
X112114285Y-95520000D01*
X112142857Y-95462857D01*
X112171428Y-96320000D02*
X112571428Y-96320000D01*
X111942857Y-96177142D02*
X112371428Y-96034285D01*
X112371428Y-96405714D01*
%TO.C,R15*%
X111171428Y-95234285D02*
X110885714Y-95034285D01*
X111171428Y-94891428D02*
X110571428Y-94891428D01*
X110571428Y-95120000D01*
X110600000Y-95177142D01*
X110628571Y-95205714D01*
X110685714Y-95234285D01*
X110771428Y-95234285D01*
X110828571Y-95205714D01*
X110857142Y-95177142D01*
X110885714Y-95120000D01*
X110885714Y-94891428D01*
X111171428Y-95805714D02*
X111171428Y-95462857D01*
X111171428Y-95634285D02*
X110571428Y-95634285D01*
X110657142Y-95577142D01*
X110714285Y-95520000D01*
X110742857Y-95462857D01*
X110571428Y-96348571D02*
X110571428Y-96062857D01*
X110857142Y-96034285D01*
X110828571Y-96062857D01*
X110800000Y-96120000D01*
X110800000Y-96262857D01*
X110828571Y-96320000D01*
X110857142Y-96348571D01*
X110914285Y-96377142D01*
X111057142Y-96377142D01*
X111114285Y-96348571D01*
X111142857Y-96320000D01*
X111171428Y-96262857D01*
X111171428Y-96120000D01*
X111142857Y-96062857D01*
X111114285Y-96034285D01*
%TO.C,R16*%
X109871428Y-95234285D02*
X109585714Y-95034285D01*
X109871428Y-94891428D02*
X109271428Y-94891428D01*
X109271428Y-95120000D01*
X109300000Y-95177142D01*
X109328571Y-95205714D01*
X109385714Y-95234285D01*
X109471428Y-95234285D01*
X109528571Y-95205714D01*
X109557142Y-95177142D01*
X109585714Y-95120000D01*
X109585714Y-94891428D01*
X109871428Y-95805714D02*
X109871428Y-95462857D01*
X109871428Y-95634285D02*
X109271428Y-95634285D01*
X109357142Y-95577142D01*
X109414285Y-95520000D01*
X109442857Y-95462857D01*
X109271428Y-96320000D02*
X109271428Y-96205714D01*
X109300000Y-96148571D01*
X109328571Y-96120000D01*
X109414285Y-96062857D01*
X109528571Y-96034285D01*
X109757142Y-96034285D01*
X109814285Y-96062857D01*
X109842857Y-96091428D01*
X109871428Y-96148571D01*
X109871428Y-96262857D01*
X109842857Y-96320000D01*
X109814285Y-96348571D01*
X109757142Y-96377142D01*
X109614285Y-96377142D01*
X109557142Y-96348571D01*
X109528571Y-96320000D01*
X109500000Y-96262857D01*
X109500000Y-96148571D01*
X109528571Y-96091428D01*
X109557142Y-96062857D01*
X109614285Y-96034285D01*
%TO.C,R17*%
X144421428Y-95234285D02*
X144135714Y-95034285D01*
X144421428Y-94891428D02*
X143821428Y-94891428D01*
X143821428Y-95120000D01*
X143850000Y-95177142D01*
X143878571Y-95205714D01*
X143935714Y-95234285D01*
X144021428Y-95234285D01*
X144078571Y-95205714D01*
X144107142Y-95177142D01*
X144135714Y-95120000D01*
X144135714Y-94891428D01*
X144421428Y-95805714D02*
X144421428Y-95462857D01*
X144421428Y-95634285D02*
X143821428Y-95634285D01*
X143907142Y-95577142D01*
X143964285Y-95520000D01*
X143992857Y-95462857D01*
X143821428Y-96005714D02*
X143821428Y-96405714D01*
X144421428Y-96148571D01*
%TO.C,R18*%
X143171428Y-95234285D02*
X142885714Y-95034285D01*
X143171428Y-94891428D02*
X142571428Y-94891428D01*
X142571428Y-95120000D01*
X142600000Y-95177142D01*
X142628571Y-95205714D01*
X142685714Y-95234285D01*
X142771428Y-95234285D01*
X142828571Y-95205714D01*
X142857142Y-95177142D01*
X142885714Y-95120000D01*
X142885714Y-94891428D01*
X143171428Y-95805714D02*
X143171428Y-95462857D01*
X143171428Y-95634285D02*
X142571428Y-95634285D01*
X142657142Y-95577142D01*
X142714285Y-95520000D01*
X142742857Y-95462857D01*
X142828571Y-96148571D02*
X142800000Y-96091428D01*
X142771428Y-96062857D01*
X142714285Y-96034285D01*
X142685714Y-96034285D01*
X142628571Y-96062857D01*
X142600000Y-96091428D01*
X142571428Y-96148571D01*
X142571428Y-96262857D01*
X142600000Y-96320000D01*
X142628571Y-96348571D01*
X142685714Y-96377142D01*
X142714285Y-96377142D01*
X142771428Y-96348571D01*
X142800000Y-96320000D01*
X142828571Y-96262857D01*
X142828571Y-96148571D01*
X142857142Y-96091428D01*
X142885714Y-96062857D01*
X142942857Y-96034285D01*
X143057142Y-96034285D01*
X143114285Y-96062857D01*
X143142857Y-96091428D01*
X143171428Y-96148571D01*
X143171428Y-96262857D01*
X143142857Y-96320000D01*
X143114285Y-96348571D01*
X143057142Y-96377142D01*
X142942857Y-96377142D01*
X142885714Y-96348571D01*
X142857142Y-96320000D01*
X142828571Y-96262857D01*
%TO.C,R19*%
X141921428Y-95234285D02*
X141635714Y-95034285D01*
X141921428Y-94891428D02*
X141321428Y-94891428D01*
X141321428Y-95120000D01*
X141350000Y-95177142D01*
X141378571Y-95205714D01*
X141435714Y-95234285D01*
X141521428Y-95234285D01*
X141578571Y-95205714D01*
X141607142Y-95177142D01*
X141635714Y-95120000D01*
X141635714Y-94891428D01*
X141921428Y-95805714D02*
X141921428Y-95462857D01*
X141921428Y-95634285D02*
X141321428Y-95634285D01*
X141407142Y-95577142D01*
X141464285Y-95520000D01*
X141492857Y-95462857D01*
X141921428Y-96091428D02*
X141921428Y-96205714D01*
X141892857Y-96262857D01*
X141864285Y-96291428D01*
X141778571Y-96348571D01*
X141664285Y-96377142D01*
X141435714Y-96377142D01*
X141378571Y-96348571D01*
X141350000Y-96320000D01*
X141321428Y-96262857D01*
X141321428Y-96148571D01*
X141350000Y-96091428D01*
X141378571Y-96062857D01*
X141435714Y-96034285D01*
X141578571Y-96034285D01*
X141635714Y-96062857D01*
X141664285Y-96091428D01*
X141692857Y-96148571D01*
X141692857Y-96262857D01*
X141664285Y-96320000D01*
X141635714Y-96348571D01*
X141578571Y-96377142D01*
%TO.C,R25*%
X144271428Y-64514285D02*
X143985714Y-64314285D01*
X144271428Y-64171428D02*
X143671428Y-64171428D01*
X143671428Y-64400000D01*
X143700000Y-64457142D01*
X143728571Y-64485714D01*
X143785714Y-64514285D01*
X143871428Y-64514285D01*
X143928571Y-64485714D01*
X143957142Y-64457142D01*
X143985714Y-64400000D01*
X143985714Y-64171428D01*
X143728571Y-64742857D02*
X143700000Y-64771428D01*
X143671428Y-64828571D01*
X143671428Y-64971428D01*
X143700000Y-65028571D01*
X143728571Y-65057142D01*
X143785714Y-65085714D01*
X143842857Y-65085714D01*
X143928571Y-65057142D01*
X144271428Y-64714285D01*
X144271428Y-65085714D01*
X143671428Y-65628571D02*
X143671428Y-65342857D01*
X143957142Y-65314285D01*
X143928571Y-65342857D01*
X143900000Y-65400000D01*
X143900000Y-65542857D01*
X143928571Y-65600000D01*
X143957142Y-65628571D01*
X144014285Y-65657142D01*
X144157142Y-65657142D01*
X144214285Y-65628571D01*
X144242857Y-65600000D01*
X144271428Y-65542857D01*
X144271428Y-65400000D01*
X144242857Y-65342857D01*
X144214285Y-65314285D01*
%TO.C,R26*%
X141335714Y-62021428D02*
X141535714Y-61735714D01*
X141678571Y-62021428D02*
X141678571Y-61421428D01*
X141450000Y-61421428D01*
X141392857Y-61450000D01*
X141364285Y-61478571D01*
X141335714Y-61535714D01*
X141335714Y-61621428D01*
X141364285Y-61678571D01*
X141392857Y-61707142D01*
X141450000Y-61735714D01*
X141678571Y-61735714D01*
X141107142Y-61478571D02*
X141078571Y-61450000D01*
X141021428Y-61421428D01*
X140878571Y-61421428D01*
X140821428Y-61450000D01*
X140792857Y-61478571D01*
X140764285Y-61535714D01*
X140764285Y-61592857D01*
X140792857Y-61678571D01*
X141135714Y-62021428D01*
X140764285Y-62021428D01*
X140250000Y-61421428D02*
X140364285Y-61421428D01*
X140421428Y-61450000D01*
X140450000Y-61478571D01*
X140507142Y-61564285D01*
X140535714Y-61678571D01*
X140535714Y-61907142D01*
X140507142Y-61964285D01*
X140478571Y-61992857D01*
X140421428Y-62021428D01*
X140307142Y-62021428D01*
X140250000Y-61992857D01*
X140221428Y-61964285D01*
X140192857Y-61907142D01*
X140192857Y-61764285D01*
X140221428Y-61707142D01*
X140250000Y-61678571D01*
X140307142Y-61650000D01*
X140421428Y-61650000D01*
X140478571Y-61678571D01*
X140507142Y-61707142D01*
X140535714Y-61764285D01*
%TO.C,R27*%
X140671428Y-64514285D02*
X140385714Y-64314285D01*
X140671428Y-64171428D02*
X140071428Y-64171428D01*
X140071428Y-64400000D01*
X140100000Y-64457142D01*
X140128571Y-64485714D01*
X140185714Y-64514285D01*
X140271428Y-64514285D01*
X140328571Y-64485714D01*
X140357142Y-64457142D01*
X140385714Y-64400000D01*
X140385714Y-64171428D01*
X140128571Y-64742857D02*
X140100000Y-64771428D01*
X140071428Y-64828571D01*
X140071428Y-64971428D01*
X140100000Y-65028571D01*
X140128571Y-65057142D01*
X140185714Y-65085714D01*
X140242857Y-65085714D01*
X140328571Y-65057142D01*
X140671428Y-64714285D01*
X140671428Y-65085714D01*
X140071428Y-65285714D02*
X140071428Y-65685714D01*
X140671428Y-65428571D01*
%TO.C,R28*%
X131685714Y-53871428D02*
X131885714Y-53585714D01*
X132028571Y-53871428D02*
X132028571Y-53271428D01*
X131800000Y-53271428D01*
X131742857Y-53300000D01*
X131714285Y-53328571D01*
X131685714Y-53385714D01*
X131685714Y-53471428D01*
X131714285Y-53528571D01*
X131742857Y-53557142D01*
X131800000Y-53585714D01*
X132028571Y-53585714D01*
X131457142Y-53328571D02*
X131428571Y-53300000D01*
X131371428Y-53271428D01*
X131228571Y-53271428D01*
X131171428Y-53300000D01*
X131142857Y-53328571D01*
X131114285Y-53385714D01*
X131114285Y-53442857D01*
X131142857Y-53528571D01*
X131485714Y-53871428D01*
X131114285Y-53871428D01*
X130771428Y-53528571D02*
X130828571Y-53500000D01*
X130857142Y-53471428D01*
X130885714Y-53414285D01*
X130885714Y-53385714D01*
X130857142Y-53328571D01*
X130828571Y-53300000D01*
X130771428Y-53271428D01*
X130657142Y-53271428D01*
X130600000Y-53300000D01*
X130571428Y-53328571D01*
X130542857Y-53385714D01*
X130542857Y-53414285D01*
X130571428Y-53471428D01*
X130600000Y-53500000D01*
X130657142Y-53528571D01*
X130771428Y-53528571D01*
X130828571Y-53557142D01*
X130857142Y-53585714D01*
X130885714Y-53642857D01*
X130885714Y-53757142D01*
X130857142Y-53814285D01*
X130828571Y-53842857D01*
X130771428Y-53871428D01*
X130657142Y-53871428D01*
X130600000Y-53842857D01*
X130571428Y-53814285D01*
X130542857Y-53757142D01*
X130542857Y-53642857D01*
X130571428Y-53585714D01*
X130600000Y-53557142D01*
X130657142Y-53528571D01*
%TO.C,R30*%
X129385714Y-55471428D02*
X129585714Y-55185714D01*
X129728571Y-55471428D02*
X129728571Y-54871428D01*
X129500000Y-54871428D01*
X129442857Y-54900000D01*
X129414285Y-54928571D01*
X129385714Y-54985714D01*
X129385714Y-55071428D01*
X129414285Y-55128571D01*
X129442857Y-55157142D01*
X129500000Y-55185714D01*
X129728571Y-55185714D01*
X129185714Y-54871428D02*
X128814285Y-54871428D01*
X129014285Y-55100000D01*
X128928571Y-55100000D01*
X128871428Y-55128571D01*
X128842857Y-55157142D01*
X128814285Y-55214285D01*
X128814285Y-55357142D01*
X128842857Y-55414285D01*
X128871428Y-55442857D01*
X128928571Y-55471428D01*
X129100000Y-55471428D01*
X129157142Y-55442857D01*
X129185714Y-55414285D01*
X128442857Y-54871428D02*
X128385714Y-54871428D01*
X128328571Y-54900000D01*
X128300000Y-54928571D01*
X128271428Y-54985714D01*
X128242857Y-55100000D01*
X128242857Y-55242857D01*
X128271428Y-55357142D01*
X128300000Y-55414285D01*
X128328571Y-55442857D01*
X128385714Y-55471428D01*
X128442857Y-55471428D01*
X128500000Y-55442857D01*
X128528571Y-55414285D01*
X128557142Y-55357142D01*
X128585714Y-55242857D01*
X128585714Y-55100000D01*
X128557142Y-54985714D01*
X128528571Y-54928571D01*
X128500000Y-54900000D01*
X128442857Y-54871428D01*
%TO.C,R31*%
X130985714Y-58091428D02*
X131185714Y-57805714D01*
X131328571Y-58091428D02*
X131328571Y-57491428D01*
X131100000Y-57491428D01*
X131042857Y-57520000D01*
X131014285Y-57548571D01*
X130985714Y-57605714D01*
X130985714Y-57691428D01*
X131014285Y-57748571D01*
X131042857Y-57777142D01*
X131100000Y-57805714D01*
X131328571Y-57805714D01*
X130785714Y-57491428D02*
X130414285Y-57491428D01*
X130614285Y-57720000D01*
X130528571Y-57720000D01*
X130471428Y-57748571D01*
X130442857Y-57777142D01*
X130414285Y-57834285D01*
X130414285Y-57977142D01*
X130442857Y-58034285D01*
X130471428Y-58062857D01*
X130528571Y-58091428D01*
X130700000Y-58091428D01*
X130757142Y-58062857D01*
X130785714Y-58034285D01*
X129842857Y-58091428D02*
X130185714Y-58091428D01*
X130014285Y-58091428D02*
X130014285Y-57491428D01*
X130071428Y-57577142D01*
X130128571Y-57634285D01*
X130185714Y-57662857D01*
%TO.C,R32*%
X133381428Y-58284285D02*
X133095714Y-58084285D01*
X133381428Y-57941428D02*
X132781428Y-57941428D01*
X132781428Y-58170000D01*
X132810000Y-58227142D01*
X132838571Y-58255714D01*
X132895714Y-58284285D01*
X132981428Y-58284285D01*
X133038571Y-58255714D01*
X133067142Y-58227142D01*
X133095714Y-58170000D01*
X133095714Y-57941428D01*
X132781428Y-58484285D02*
X132781428Y-58855714D01*
X133010000Y-58655714D01*
X133010000Y-58741428D01*
X133038571Y-58798571D01*
X133067142Y-58827142D01*
X133124285Y-58855714D01*
X133267142Y-58855714D01*
X133324285Y-58827142D01*
X133352857Y-58798571D01*
X133381428Y-58741428D01*
X133381428Y-58570000D01*
X133352857Y-58512857D01*
X133324285Y-58484285D01*
X132838571Y-59084285D02*
X132810000Y-59112857D01*
X132781428Y-59170000D01*
X132781428Y-59312857D01*
X132810000Y-59370000D01*
X132838571Y-59398571D01*
X132895714Y-59427142D01*
X132952857Y-59427142D01*
X133038571Y-59398571D01*
X133381428Y-59055714D01*
X133381428Y-59427142D01*
%TO.C,R33*%
X134171428Y-52514285D02*
X133885714Y-52314285D01*
X134171428Y-52171428D02*
X133571428Y-52171428D01*
X133571428Y-52400000D01*
X133600000Y-52457142D01*
X133628571Y-52485714D01*
X133685714Y-52514285D01*
X133771428Y-52514285D01*
X133828571Y-52485714D01*
X133857142Y-52457142D01*
X133885714Y-52400000D01*
X133885714Y-52171428D01*
X133571428Y-52714285D02*
X133571428Y-53085714D01*
X133800000Y-52885714D01*
X133800000Y-52971428D01*
X133828571Y-53028571D01*
X133857142Y-53057142D01*
X133914285Y-53085714D01*
X134057142Y-53085714D01*
X134114285Y-53057142D01*
X134142857Y-53028571D01*
X134171428Y-52971428D01*
X134171428Y-52800000D01*
X134142857Y-52742857D01*
X134114285Y-52714285D01*
X133571428Y-53285714D02*
X133571428Y-53657142D01*
X133800000Y-53457142D01*
X133800000Y-53542857D01*
X133828571Y-53600000D01*
X133857142Y-53628571D01*
X133914285Y-53657142D01*
X134057142Y-53657142D01*
X134114285Y-53628571D01*
X134142857Y-53600000D01*
X134171428Y-53542857D01*
X134171428Y-53371428D01*
X134142857Y-53314285D01*
X134114285Y-53285714D01*
%TO.C,R34*%
X104385714Y-84671428D02*
X104585714Y-84385714D01*
X104728571Y-84671428D02*
X104728571Y-84071428D01*
X104500000Y-84071428D01*
X104442857Y-84100000D01*
X104414285Y-84128571D01*
X104385714Y-84185714D01*
X104385714Y-84271428D01*
X104414285Y-84328571D01*
X104442857Y-84357142D01*
X104500000Y-84385714D01*
X104728571Y-84385714D01*
X104185714Y-84071428D02*
X103814285Y-84071428D01*
X104014285Y-84300000D01*
X103928571Y-84300000D01*
X103871428Y-84328571D01*
X103842857Y-84357142D01*
X103814285Y-84414285D01*
X103814285Y-84557142D01*
X103842857Y-84614285D01*
X103871428Y-84642857D01*
X103928571Y-84671428D01*
X104100000Y-84671428D01*
X104157142Y-84642857D01*
X104185714Y-84614285D01*
X103300000Y-84271428D02*
X103300000Y-84671428D01*
X103442857Y-84042857D02*
X103585714Y-84471428D01*
X103214285Y-84471428D01*
%TO.C,R36*%
X102185714Y-84671428D02*
X102385714Y-84385714D01*
X102528571Y-84671428D02*
X102528571Y-84071428D01*
X102300000Y-84071428D01*
X102242857Y-84100000D01*
X102214285Y-84128571D01*
X102185714Y-84185714D01*
X102185714Y-84271428D01*
X102214285Y-84328571D01*
X102242857Y-84357142D01*
X102300000Y-84385714D01*
X102528571Y-84385714D01*
X101985714Y-84071428D02*
X101614285Y-84071428D01*
X101814285Y-84300000D01*
X101728571Y-84300000D01*
X101671428Y-84328571D01*
X101642857Y-84357142D01*
X101614285Y-84414285D01*
X101614285Y-84557142D01*
X101642857Y-84614285D01*
X101671428Y-84642857D01*
X101728571Y-84671428D01*
X101900000Y-84671428D01*
X101957142Y-84642857D01*
X101985714Y-84614285D01*
X101100000Y-84071428D02*
X101214285Y-84071428D01*
X101271428Y-84100000D01*
X101300000Y-84128571D01*
X101357142Y-84214285D01*
X101385714Y-84328571D01*
X101385714Y-84557142D01*
X101357142Y-84614285D01*
X101328571Y-84642857D01*
X101271428Y-84671428D01*
X101157142Y-84671428D01*
X101100000Y-84642857D01*
X101071428Y-84614285D01*
X101042857Y-84557142D01*
X101042857Y-84414285D01*
X101071428Y-84357142D01*
X101100000Y-84328571D01*
X101157142Y-84300000D01*
X101271428Y-84300000D01*
X101328571Y-84328571D01*
X101357142Y-84357142D01*
X101385714Y-84414285D01*
%TO.C,R37*%
X103371428Y-79214285D02*
X103085714Y-79014285D01*
X103371428Y-78871428D02*
X102771428Y-78871428D01*
X102771428Y-79100000D01*
X102800000Y-79157142D01*
X102828571Y-79185714D01*
X102885714Y-79214285D01*
X102971428Y-79214285D01*
X103028571Y-79185714D01*
X103057142Y-79157142D01*
X103085714Y-79100000D01*
X103085714Y-78871428D01*
X102771428Y-79414285D02*
X102771428Y-79785714D01*
X103000000Y-79585714D01*
X103000000Y-79671428D01*
X103028571Y-79728571D01*
X103057142Y-79757142D01*
X103114285Y-79785714D01*
X103257142Y-79785714D01*
X103314285Y-79757142D01*
X103342857Y-79728571D01*
X103371428Y-79671428D01*
X103371428Y-79500000D01*
X103342857Y-79442857D01*
X103314285Y-79414285D01*
X102771428Y-79985714D02*
X102771428Y-80385714D01*
X103371428Y-80128571D01*
%TO.C,R38*%
X104400714Y-88171428D02*
X104600714Y-87885714D01*
X104743571Y-88171428D02*
X104743571Y-87571428D01*
X104515000Y-87571428D01*
X104457857Y-87600000D01*
X104429285Y-87628571D01*
X104400714Y-87685714D01*
X104400714Y-87771428D01*
X104429285Y-87828571D01*
X104457857Y-87857142D01*
X104515000Y-87885714D01*
X104743571Y-87885714D01*
X104200714Y-87571428D02*
X103829285Y-87571428D01*
X104029285Y-87800000D01*
X103943571Y-87800000D01*
X103886428Y-87828571D01*
X103857857Y-87857142D01*
X103829285Y-87914285D01*
X103829285Y-88057142D01*
X103857857Y-88114285D01*
X103886428Y-88142857D01*
X103943571Y-88171428D01*
X104115000Y-88171428D01*
X104172142Y-88142857D01*
X104200714Y-88114285D01*
X103486428Y-87828571D02*
X103543571Y-87800000D01*
X103572142Y-87771428D01*
X103600714Y-87714285D01*
X103600714Y-87685714D01*
X103572142Y-87628571D01*
X103543571Y-87600000D01*
X103486428Y-87571428D01*
X103372142Y-87571428D01*
X103315000Y-87600000D01*
X103286428Y-87628571D01*
X103257857Y-87685714D01*
X103257857Y-87714285D01*
X103286428Y-87771428D01*
X103315000Y-87800000D01*
X103372142Y-87828571D01*
X103486428Y-87828571D01*
X103543571Y-87857142D01*
X103572142Y-87885714D01*
X103600714Y-87942857D01*
X103600714Y-88057142D01*
X103572142Y-88114285D01*
X103543571Y-88142857D01*
X103486428Y-88171428D01*
X103372142Y-88171428D01*
X103315000Y-88142857D01*
X103286428Y-88114285D01*
X103257857Y-88057142D01*
X103257857Y-87942857D01*
X103286428Y-87885714D01*
X103315000Y-87857142D01*
X103372142Y-87828571D01*
%TO.C,R39*%
X104400714Y-91671428D02*
X104600714Y-91385714D01*
X104743571Y-91671428D02*
X104743571Y-91071428D01*
X104515000Y-91071428D01*
X104457857Y-91100000D01*
X104429285Y-91128571D01*
X104400714Y-91185714D01*
X104400714Y-91271428D01*
X104429285Y-91328571D01*
X104457857Y-91357142D01*
X104515000Y-91385714D01*
X104743571Y-91385714D01*
X104200714Y-91071428D02*
X103829285Y-91071428D01*
X104029285Y-91300000D01*
X103943571Y-91300000D01*
X103886428Y-91328571D01*
X103857857Y-91357142D01*
X103829285Y-91414285D01*
X103829285Y-91557142D01*
X103857857Y-91614285D01*
X103886428Y-91642857D01*
X103943571Y-91671428D01*
X104115000Y-91671428D01*
X104172142Y-91642857D01*
X104200714Y-91614285D01*
X103543571Y-91671428D02*
X103429285Y-91671428D01*
X103372142Y-91642857D01*
X103343571Y-91614285D01*
X103286428Y-91528571D01*
X103257857Y-91414285D01*
X103257857Y-91185714D01*
X103286428Y-91128571D01*
X103315000Y-91100000D01*
X103372142Y-91071428D01*
X103486428Y-91071428D01*
X103543571Y-91100000D01*
X103572142Y-91128571D01*
X103600714Y-91185714D01*
X103600714Y-91328571D01*
X103572142Y-91385714D01*
X103543571Y-91414285D01*
X103486428Y-91442857D01*
X103372142Y-91442857D01*
X103315000Y-91414285D01*
X103286428Y-91385714D01*
X103257857Y-91328571D01*
%TO.C,R40*%
X103371428Y-77214285D02*
X103085714Y-77014285D01*
X103371428Y-76871428D02*
X102771428Y-76871428D01*
X102771428Y-77100000D01*
X102800000Y-77157142D01*
X102828571Y-77185714D01*
X102885714Y-77214285D01*
X102971428Y-77214285D01*
X103028571Y-77185714D01*
X103057142Y-77157142D01*
X103085714Y-77100000D01*
X103085714Y-76871428D01*
X102971428Y-77728571D02*
X103371428Y-77728571D01*
X102742857Y-77585714D02*
X103171428Y-77442857D01*
X103171428Y-77814285D01*
X102771428Y-78157142D02*
X102771428Y-78214285D01*
X102800000Y-78271428D01*
X102828571Y-78300000D01*
X102885714Y-78328571D01*
X103000000Y-78357142D01*
X103142857Y-78357142D01*
X103257142Y-78328571D01*
X103314285Y-78300000D01*
X103342857Y-78271428D01*
X103371428Y-78214285D01*
X103371428Y-78157142D01*
X103342857Y-78100000D01*
X103314285Y-78071428D01*
X103257142Y-78042857D01*
X103142857Y-78014285D01*
X103000000Y-78014285D01*
X102885714Y-78042857D01*
X102828571Y-78071428D01*
X102800000Y-78100000D01*
X102771428Y-78157142D01*
%TO.C,R41*%
X103371428Y-75214285D02*
X103085714Y-75014285D01*
X103371428Y-74871428D02*
X102771428Y-74871428D01*
X102771428Y-75100000D01*
X102800000Y-75157142D01*
X102828571Y-75185714D01*
X102885714Y-75214285D01*
X102971428Y-75214285D01*
X103028571Y-75185714D01*
X103057142Y-75157142D01*
X103085714Y-75100000D01*
X103085714Y-74871428D01*
X102971428Y-75728571D02*
X103371428Y-75728571D01*
X102742857Y-75585714D02*
X103171428Y-75442857D01*
X103171428Y-75814285D01*
X103371428Y-76357142D02*
X103371428Y-76014285D01*
X103371428Y-76185714D02*
X102771428Y-76185714D01*
X102857142Y-76128571D01*
X102914285Y-76071428D01*
X102942857Y-76014285D01*
%TO.C,R42*%
X118985714Y-90571428D02*
X119185714Y-90285714D01*
X119328571Y-90571428D02*
X119328571Y-89971428D01*
X119100000Y-89971428D01*
X119042857Y-90000000D01*
X119014285Y-90028571D01*
X118985714Y-90085714D01*
X118985714Y-90171428D01*
X119014285Y-90228571D01*
X119042857Y-90257142D01*
X119100000Y-90285714D01*
X119328571Y-90285714D01*
X118471428Y-90171428D02*
X118471428Y-90571428D01*
X118614285Y-89942857D02*
X118757142Y-90371428D01*
X118385714Y-90371428D01*
X118185714Y-90028571D02*
X118157142Y-90000000D01*
X118100000Y-89971428D01*
X117957142Y-89971428D01*
X117900000Y-90000000D01*
X117871428Y-90028571D01*
X117842857Y-90085714D01*
X117842857Y-90142857D01*
X117871428Y-90228571D01*
X118214285Y-90571428D01*
X117842857Y-90571428D01*
%TO.C,R43*%
X102185714Y-88171428D02*
X102385714Y-87885714D01*
X102528571Y-88171428D02*
X102528571Y-87571428D01*
X102300000Y-87571428D01*
X102242857Y-87600000D01*
X102214285Y-87628571D01*
X102185714Y-87685714D01*
X102185714Y-87771428D01*
X102214285Y-87828571D01*
X102242857Y-87857142D01*
X102300000Y-87885714D01*
X102528571Y-87885714D01*
X101671428Y-87771428D02*
X101671428Y-88171428D01*
X101814285Y-87542857D02*
X101957142Y-87971428D01*
X101585714Y-87971428D01*
X101414285Y-87571428D02*
X101042857Y-87571428D01*
X101242857Y-87800000D01*
X101157142Y-87800000D01*
X101100000Y-87828571D01*
X101071428Y-87857142D01*
X101042857Y-87914285D01*
X101042857Y-88057142D01*
X101071428Y-88114285D01*
X101100000Y-88142857D01*
X101157142Y-88171428D01*
X101328571Y-88171428D01*
X101385714Y-88142857D01*
X101414285Y-88114285D01*
%TO.C,R45*%
X102285714Y-91671428D02*
X102485714Y-91385714D01*
X102628571Y-91671428D02*
X102628571Y-91071428D01*
X102400000Y-91071428D01*
X102342857Y-91100000D01*
X102314285Y-91128571D01*
X102285714Y-91185714D01*
X102285714Y-91271428D01*
X102314285Y-91328571D01*
X102342857Y-91357142D01*
X102400000Y-91385714D01*
X102628571Y-91385714D01*
X101771428Y-91271428D02*
X101771428Y-91671428D01*
X101914285Y-91042857D02*
X102057142Y-91471428D01*
X101685714Y-91471428D01*
X101171428Y-91071428D02*
X101457142Y-91071428D01*
X101485714Y-91357142D01*
X101457142Y-91328571D01*
X101400000Y-91300000D01*
X101257142Y-91300000D01*
X101200000Y-91328571D01*
X101171428Y-91357142D01*
X101142857Y-91414285D01*
X101142857Y-91557142D01*
X101171428Y-91614285D01*
X101200000Y-91642857D01*
X101257142Y-91671428D01*
X101400000Y-91671428D01*
X101457142Y-91642857D01*
X101485714Y-91614285D01*
%TO.C,R46*%
X102385714Y-73221428D02*
X102585714Y-72935714D01*
X102728571Y-73221428D02*
X102728571Y-72621428D01*
X102500000Y-72621428D01*
X102442857Y-72650000D01*
X102414285Y-72678571D01*
X102385714Y-72735714D01*
X102385714Y-72821428D01*
X102414285Y-72878571D01*
X102442857Y-72907142D01*
X102500000Y-72935714D01*
X102728571Y-72935714D01*
X101871428Y-72821428D02*
X101871428Y-73221428D01*
X102014285Y-72592857D02*
X102157142Y-73021428D01*
X101785714Y-73021428D01*
X101300000Y-72621428D02*
X101414285Y-72621428D01*
X101471428Y-72650000D01*
X101500000Y-72678571D01*
X101557142Y-72764285D01*
X101585714Y-72878571D01*
X101585714Y-73107142D01*
X101557142Y-73164285D01*
X101528571Y-73192857D01*
X101471428Y-73221428D01*
X101357142Y-73221428D01*
X101300000Y-73192857D01*
X101271428Y-73164285D01*
X101242857Y-73107142D01*
X101242857Y-72964285D01*
X101271428Y-72907142D01*
X101300000Y-72878571D01*
X101357142Y-72850000D01*
X101471428Y-72850000D01*
X101528571Y-72878571D01*
X101557142Y-72907142D01*
X101585714Y-72964285D01*
%TO.C,R47*%
X102385714Y-72321428D02*
X102585714Y-72035714D01*
X102728571Y-72321428D02*
X102728571Y-71721428D01*
X102500000Y-71721428D01*
X102442857Y-71750000D01*
X102414285Y-71778571D01*
X102385714Y-71835714D01*
X102385714Y-71921428D01*
X102414285Y-71978571D01*
X102442857Y-72007142D01*
X102500000Y-72035714D01*
X102728571Y-72035714D01*
X101871428Y-71921428D02*
X101871428Y-72321428D01*
X102014285Y-71692857D02*
X102157142Y-72121428D01*
X101785714Y-72121428D01*
X101614285Y-71721428D02*
X101214285Y-71721428D01*
X101471428Y-72321428D01*
%TO.C,R48*%
X146285714Y-89971428D02*
X146485714Y-89685714D01*
X146628571Y-89971428D02*
X146628571Y-89371428D01*
X146400000Y-89371428D01*
X146342857Y-89400000D01*
X146314285Y-89428571D01*
X146285714Y-89485714D01*
X146285714Y-89571428D01*
X146314285Y-89628571D01*
X146342857Y-89657142D01*
X146400000Y-89685714D01*
X146628571Y-89685714D01*
X145771428Y-89571428D02*
X145771428Y-89971428D01*
X145914285Y-89342857D02*
X146057142Y-89771428D01*
X145685714Y-89771428D01*
X145371428Y-89628571D02*
X145428571Y-89600000D01*
X145457142Y-89571428D01*
X145485714Y-89514285D01*
X145485714Y-89485714D01*
X145457142Y-89428571D01*
X145428571Y-89400000D01*
X145371428Y-89371428D01*
X145257142Y-89371428D01*
X145200000Y-89400000D01*
X145171428Y-89428571D01*
X145142857Y-89485714D01*
X145142857Y-89514285D01*
X145171428Y-89571428D01*
X145200000Y-89600000D01*
X145257142Y-89628571D01*
X145371428Y-89628571D01*
X145428571Y-89657142D01*
X145457142Y-89685714D01*
X145485714Y-89742857D01*
X145485714Y-89857142D01*
X145457142Y-89914285D01*
X145428571Y-89942857D01*
X145371428Y-89971428D01*
X145257142Y-89971428D01*
X145200000Y-89942857D01*
X145171428Y-89914285D01*
X145142857Y-89857142D01*
X145142857Y-89742857D01*
X145171428Y-89685714D01*
X145200000Y-89657142D01*
X145257142Y-89628571D01*
%TO.C,R50*%
X148585714Y-89971428D02*
X148785714Y-89685714D01*
X148928571Y-89971428D02*
X148928571Y-89371428D01*
X148700000Y-89371428D01*
X148642857Y-89400000D01*
X148614285Y-89428571D01*
X148585714Y-89485714D01*
X148585714Y-89571428D01*
X148614285Y-89628571D01*
X148642857Y-89657142D01*
X148700000Y-89685714D01*
X148928571Y-89685714D01*
X148042857Y-89371428D02*
X148328571Y-89371428D01*
X148357142Y-89657142D01*
X148328571Y-89628571D01*
X148271428Y-89600000D01*
X148128571Y-89600000D01*
X148071428Y-89628571D01*
X148042857Y-89657142D01*
X148014285Y-89714285D01*
X148014285Y-89857142D01*
X148042857Y-89914285D01*
X148071428Y-89942857D01*
X148128571Y-89971428D01*
X148271428Y-89971428D01*
X148328571Y-89942857D01*
X148357142Y-89914285D01*
X147642857Y-89371428D02*
X147585714Y-89371428D01*
X147528571Y-89400000D01*
X147500000Y-89428571D01*
X147471428Y-89485714D01*
X147442857Y-89600000D01*
X147442857Y-89742857D01*
X147471428Y-89857142D01*
X147500000Y-89914285D01*
X147528571Y-89942857D01*
X147585714Y-89971428D01*
X147642857Y-89971428D01*
X147700000Y-89942857D01*
X147728571Y-89914285D01*
X147757142Y-89857142D01*
X147785714Y-89742857D01*
X147785714Y-89600000D01*
X147757142Y-89485714D01*
X147728571Y-89428571D01*
X147700000Y-89400000D01*
X147642857Y-89371428D01*
%TO.C,R52*%
X146285714Y-86471428D02*
X146485714Y-86185714D01*
X146628571Y-86471428D02*
X146628571Y-85871428D01*
X146400000Y-85871428D01*
X146342857Y-85900000D01*
X146314285Y-85928571D01*
X146285714Y-85985714D01*
X146285714Y-86071428D01*
X146314285Y-86128571D01*
X146342857Y-86157142D01*
X146400000Y-86185714D01*
X146628571Y-86185714D01*
X145742857Y-85871428D02*
X146028571Y-85871428D01*
X146057142Y-86157142D01*
X146028571Y-86128571D01*
X145971428Y-86100000D01*
X145828571Y-86100000D01*
X145771428Y-86128571D01*
X145742857Y-86157142D01*
X145714285Y-86214285D01*
X145714285Y-86357142D01*
X145742857Y-86414285D01*
X145771428Y-86442857D01*
X145828571Y-86471428D01*
X145971428Y-86471428D01*
X146028571Y-86442857D01*
X146057142Y-86414285D01*
X145485714Y-85928571D02*
X145457142Y-85900000D01*
X145400000Y-85871428D01*
X145257142Y-85871428D01*
X145200000Y-85900000D01*
X145171428Y-85928571D01*
X145142857Y-85985714D01*
X145142857Y-86042857D01*
X145171428Y-86128571D01*
X145514285Y-86471428D01*
X145142857Y-86471428D01*
%TO.C,R53*%
X146285714Y-82971428D02*
X146485714Y-82685714D01*
X146628571Y-82971428D02*
X146628571Y-82371428D01*
X146400000Y-82371428D01*
X146342857Y-82400000D01*
X146314285Y-82428571D01*
X146285714Y-82485714D01*
X146285714Y-82571428D01*
X146314285Y-82628571D01*
X146342857Y-82657142D01*
X146400000Y-82685714D01*
X146628571Y-82685714D01*
X145742857Y-82371428D02*
X146028571Y-82371428D01*
X146057142Y-82657142D01*
X146028571Y-82628571D01*
X145971428Y-82600000D01*
X145828571Y-82600000D01*
X145771428Y-82628571D01*
X145742857Y-82657142D01*
X145714285Y-82714285D01*
X145714285Y-82857142D01*
X145742857Y-82914285D01*
X145771428Y-82942857D01*
X145828571Y-82971428D01*
X145971428Y-82971428D01*
X146028571Y-82942857D01*
X146057142Y-82914285D01*
X145514285Y-82371428D02*
X145142857Y-82371428D01*
X145342857Y-82600000D01*
X145257142Y-82600000D01*
X145200000Y-82628571D01*
X145171428Y-82657142D01*
X145142857Y-82714285D01*
X145142857Y-82857142D01*
X145171428Y-82914285D01*
X145200000Y-82942857D01*
X145257142Y-82971428D01*
X145428571Y-82971428D01*
X145485714Y-82942857D01*
X145514285Y-82914285D01*
%TO.C,R57*%
X148585714Y-86471428D02*
X148785714Y-86185714D01*
X148928571Y-86471428D02*
X148928571Y-85871428D01*
X148700000Y-85871428D01*
X148642857Y-85900000D01*
X148614285Y-85928571D01*
X148585714Y-85985714D01*
X148585714Y-86071428D01*
X148614285Y-86128571D01*
X148642857Y-86157142D01*
X148700000Y-86185714D01*
X148928571Y-86185714D01*
X148042857Y-85871428D02*
X148328571Y-85871428D01*
X148357142Y-86157142D01*
X148328571Y-86128571D01*
X148271428Y-86100000D01*
X148128571Y-86100000D01*
X148071428Y-86128571D01*
X148042857Y-86157142D01*
X148014285Y-86214285D01*
X148014285Y-86357142D01*
X148042857Y-86414285D01*
X148071428Y-86442857D01*
X148128571Y-86471428D01*
X148271428Y-86471428D01*
X148328571Y-86442857D01*
X148357142Y-86414285D01*
X147814285Y-85871428D02*
X147414285Y-85871428D01*
X147671428Y-86471428D01*
%TO.C,R59*%
X148585714Y-82971428D02*
X148785714Y-82685714D01*
X148928571Y-82971428D02*
X148928571Y-82371428D01*
X148700000Y-82371428D01*
X148642857Y-82400000D01*
X148614285Y-82428571D01*
X148585714Y-82485714D01*
X148585714Y-82571428D01*
X148614285Y-82628571D01*
X148642857Y-82657142D01*
X148700000Y-82685714D01*
X148928571Y-82685714D01*
X148042857Y-82371428D02*
X148328571Y-82371428D01*
X148357142Y-82657142D01*
X148328571Y-82628571D01*
X148271428Y-82600000D01*
X148128571Y-82600000D01*
X148071428Y-82628571D01*
X148042857Y-82657142D01*
X148014285Y-82714285D01*
X148014285Y-82857142D01*
X148042857Y-82914285D01*
X148071428Y-82942857D01*
X148128571Y-82971428D01*
X148271428Y-82971428D01*
X148328571Y-82942857D01*
X148357142Y-82914285D01*
X147728571Y-82971428D02*
X147614285Y-82971428D01*
X147557142Y-82942857D01*
X147528571Y-82914285D01*
X147471428Y-82828571D01*
X147442857Y-82714285D01*
X147442857Y-82485714D01*
X147471428Y-82428571D01*
X147500000Y-82400000D01*
X147557142Y-82371428D01*
X147671428Y-82371428D01*
X147728571Y-82400000D01*
X147757142Y-82428571D01*
X147785714Y-82485714D01*
X147785714Y-82628571D01*
X147757142Y-82685714D01*
X147728571Y-82714285D01*
X147671428Y-82742857D01*
X147557142Y-82742857D01*
X147500000Y-82714285D01*
X147471428Y-82685714D01*
X147442857Y-82628571D01*
%TO.C,R62*%
X112035714Y-94421428D02*
X112235714Y-94135714D01*
X112378571Y-94421428D02*
X112378571Y-93821428D01*
X112150000Y-93821428D01*
X112092857Y-93850000D01*
X112064285Y-93878571D01*
X112035714Y-93935714D01*
X112035714Y-94021428D01*
X112064285Y-94078571D01*
X112092857Y-94107142D01*
X112150000Y-94135714D01*
X112378571Y-94135714D01*
X111521428Y-93821428D02*
X111635714Y-93821428D01*
X111692857Y-93850000D01*
X111721428Y-93878571D01*
X111778571Y-93964285D01*
X111807142Y-94078571D01*
X111807142Y-94307142D01*
X111778571Y-94364285D01*
X111750000Y-94392857D01*
X111692857Y-94421428D01*
X111578571Y-94421428D01*
X111521428Y-94392857D01*
X111492857Y-94364285D01*
X111464285Y-94307142D01*
X111464285Y-94164285D01*
X111492857Y-94107142D01*
X111521428Y-94078571D01*
X111578571Y-94050000D01*
X111692857Y-94050000D01*
X111750000Y-94078571D01*
X111778571Y-94107142D01*
X111807142Y-94164285D01*
X111235714Y-93878571D02*
X111207142Y-93850000D01*
X111150000Y-93821428D01*
X111007142Y-93821428D01*
X110950000Y-93850000D01*
X110921428Y-93878571D01*
X110892857Y-93935714D01*
X110892857Y-93992857D01*
X110921428Y-94078571D01*
X111264285Y-94421428D01*
X110892857Y-94421428D01*
%TO.C,R63*%
X107685714Y-96221428D02*
X107885714Y-95935714D01*
X108028571Y-96221428D02*
X108028571Y-95621428D01*
X107800000Y-95621428D01*
X107742857Y-95650000D01*
X107714285Y-95678571D01*
X107685714Y-95735714D01*
X107685714Y-95821428D01*
X107714285Y-95878571D01*
X107742857Y-95907142D01*
X107800000Y-95935714D01*
X108028571Y-95935714D01*
X107171428Y-95621428D02*
X107285714Y-95621428D01*
X107342857Y-95650000D01*
X107371428Y-95678571D01*
X107428571Y-95764285D01*
X107457142Y-95878571D01*
X107457142Y-96107142D01*
X107428571Y-96164285D01*
X107400000Y-96192857D01*
X107342857Y-96221428D01*
X107228571Y-96221428D01*
X107171428Y-96192857D01*
X107142857Y-96164285D01*
X107114285Y-96107142D01*
X107114285Y-95964285D01*
X107142857Y-95907142D01*
X107171428Y-95878571D01*
X107228571Y-95850000D01*
X107342857Y-95850000D01*
X107400000Y-95878571D01*
X107428571Y-95907142D01*
X107457142Y-95964285D01*
X106914285Y-95621428D02*
X106542857Y-95621428D01*
X106742857Y-95850000D01*
X106657142Y-95850000D01*
X106600000Y-95878571D01*
X106571428Y-95907142D01*
X106542857Y-95964285D01*
X106542857Y-96107142D01*
X106571428Y-96164285D01*
X106600000Y-96192857D01*
X106657142Y-96221428D01*
X106828571Y-96221428D01*
X106885714Y-96192857D01*
X106914285Y-96164285D01*
%TO.C,U12*%
X125742857Y-54021428D02*
X125742857Y-54507142D01*
X125714285Y-54564285D01*
X125685714Y-54592857D01*
X125628571Y-54621428D01*
X125514285Y-54621428D01*
X125457142Y-54592857D01*
X125428571Y-54564285D01*
X125400000Y-54507142D01*
X125400000Y-54021428D01*
X124800000Y-54621428D02*
X125142857Y-54621428D01*
X124971428Y-54621428D02*
X124971428Y-54021428D01*
X125028571Y-54107142D01*
X125085714Y-54164285D01*
X125142857Y-54192857D01*
X124571428Y-54078571D02*
X124542857Y-54050000D01*
X124485714Y-54021428D01*
X124342857Y-54021428D01*
X124285714Y-54050000D01*
X124257142Y-54078571D01*
X124228571Y-54135714D01*
X124228571Y-54192857D01*
X124257142Y-54278571D01*
X124600000Y-54621428D01*
X124228571Y-54621428D01*
%TO.C,U14*%
X142042857Y-59271428D02*
X142042857Y-59757142D01*
X142014285Y-59814285D01*
X141985714Y-59842857D01*
X141928571Y-59871428D01*
X141814285Y-59871428D01*
X141757142Y-59842857D01*
X141728571Y-59814285D01*
X141700000Y-59757142D01*
X141700000Y-59271428D01*
X141100000Y-59871428D02*
X141442857Y-59871428D01*
X141271428Y-59871428D02*
X141271428Y-59271428D01*
X141328571Y-59357142D01*
X141385714Y-59414285D01*
X141442857Y-59442857D01*
X140585714Y-59471428D02*
X140585714Y-59871428D01*
X140728571Y-59242857D02*
X140871428Y-59671428D01*
X140500000Y-59671428D01*
%TO.C,C114*%
X116271428Y-92014285D02*
X116300000Y-92042857D01*
X116385714Y-92071428D01*
X116442857Y-92071428D01*
X116528571Y-92042857D01*
X116585714Y-91985714D01*
X116614285Y-91928571D01*
X116642857Y-91814285D01*
X116642857Y-91728571D01*
X116614285Y-91614285D01*
X116585714Y-91557142D01*
X116528571Y-91500000D01*
X116442857Y-91471428D01*
X116385714Y-91471428D01*
X116300000Y-91500000D01*
X116271428Y-91528571D01*
X115700000Y-92071428D02*
X116042857Y-92071428D01*
X115871428Y-92071428D02*
X115871428Y-91471428D01*
X115928571Y-91557142D01*
X115985714Y-91614285D01*
X116042857Y-91642857D01*
X115128571Y-92071428D02*
X115471428Y-92071428D01*
X115300000Y-92071428D02*
X115300000Y-91471428D01*
X115357142Y-91557142D01*
X115414285Y-91614285D01*
X115471428Y-91642857D01*
X114614285Y-91671428D02*
X114614285Y-92071428D01*
X114757142Y-91442857D02*
X114900000Y-91871428D01*
X114528571Y-91871428D01*
%TO.C,C115*%
X125671428Y-92014285D02*
X125700000Y-92042857D01*
X125785714Y-92071428D01*
X125842857Y-92071428D01*
X125928571Y-92042857D01*
X125985714Y-91985714D01*
X126014285Y-91928571D01*
X126042857Y-91814285D01*
X126042857Y-91728571D01*
X126014285Y-91614285D01*
X125985714Y-91557142D01*
X125928571Y-91500000D01*
X125842857Y-91471428D01*
X125785714Y-91471428D01*
X125700000Y-91500000D01*
X125671428Y-91528571D01*
X125100000Y-92071428D02*
X125442857Y-92071428D01*
X125271428Y-92071428D02*
X125271428Y-91471428D01*
X125328571Y-91557142D01*
X125385714Y-91614285D01*
X125442857Y-91642857D01*
X124528571Y-92071428D02*
X124871428Y-92071428D01*
X124700000Y-92071428D02*
X124700000Y-91471428D01*
X124757142Y-91557142D01*
X124814285Y-91614285D01*
X124871428Y-91642857D01*
X123985714Y-91471428D02*
X124271428Y-91471428D01*
X124300000Y-91757142D01*
X124271428Y-91728571D01*
X124214285Y-91700000D01*
X124071428Y-91700000D01*
X124014285Y-91728571D01*
X123985714Y-91757142D01*
X123957142Y-91814285D01*
X123957142Y-91957142D01*
X123985714Y-92014285D01*
X124014285Y-92042857D01*
X124071428Y-92071428D01*
X124214285Y-92071428D01*
X124271428Y-92042857D01*
X124300000Y-92014285D01*
%TO.C,C116*%
X135071428Y-92014285D02*
X135100000Y-92042857D01*
X135185714Y-92071428D01*
X135242857Y-92071428D01*
X135328571Y-92042857D01*
X135385714Y-91985714D01*
X135414285Y-91928571D01*
X135442857Y-91814285D01*
X135442857Y-91728571D01*
X135414285Y-91614285D01*
X135385714Y-91557142D01*
X135328571Y-91500000D01*
X135242857Y-91471428D01*
X135185714Y-91471428D01*
X135100000Y-91500000D01*
X135071428Y-91528571D01*
X134500000Y-92071428D02*
X134842857Y-92071428D01*
X134671428Y-92071428D02*
X134671428Y-91471428D01*
X134728571Y-91557142D01*
X134785714Y-91614285D01*
X134842857Y-91642857D01*
X133928571Y-92071428D02*
X134271428Y-92071428D01*
X134100000Y-92071428D02*
X134100000Y-91471428D01*
X134157142Y-91557142D01*
X134214285Y-91614285D01*
X134271428Y-91642857D01*
X133414285Y-91471428D02*
X133528571Y-91471428D01*
X133585714Y-91500000D01*
X133614285Y-91528571D01*
X133671428Y-91614285D01*
X133700000Y-91728571D01*
X133700000Y-91957142D01*
X133671428Y-92014285D01*
X133642857Y-92042857D01*
X133585714Y-92071428D01*
X133471428Y-92071428D01*
X133414285Y-92042857D01*
X133385714Y-92014285D01*
X133357142Y-91957142D01*
X133357142Y-91814285D01*
X133385714Y-91757142D01*
X133414285Y-91728571D01*
X133471428Y-91700000D01*
X133585714Y-91700000D01*
X133642857Y-91728571D01*
X133671428Y-91757142D01*
X133700000Y-91814285D01*
%TO.C,U5*%
X144127142Y-66171428D02*
X144127142Y-66657142D01*
X144098571Y-66714285D01*
X144070000Y-66742857D01*
X144012857Y-66771428D01*
X143898571Y-66771428D01*
X143841428Y-66742857D01*
X143812857Y-66714285D01*
X143784285Y-66657142D01*
X143784285Y-66171428D01*
X143212857Y-66171428D02*
X143498571Y-66171428D01*
X143527142Y-66457142D01*
X143498571Y-66428571D01*
X143441428Y-66400000D01*
X143298571Y-66400000D01*
X143241428Y-66428571D01*
X143212857Y-66457142D01*
X143184285Y-66514285D01*
X143184285Y-66657142D01*
X143212857Y-66714285D01*
X143241428Y-66742857D01*
X143298571Y-66771428D01*
X143441428Y-66771428D01*
X143498571Y-66742857D01*
X143527142Y-66714285D01*
%TO.C,C18*%
X117685714Y-59614285D02*
X117714285Y-59642857D01*
X117800000Y-59671428D01*
X117857142Y-59671428D01*
X117942857Y-59642857D01*
X118000000Y-59585714D01*
X118028571Y-59528571D01*
X118057142Y-59414285D01*
X118057142Y-59328571D01*
X118028571Y-59214285D01*
X118000000Y-59157142D01*
X117942857Y-59100000D01*
X117857142Y-59071428D01*
X117800000Y-59071428D01*
X117714285Y-59100000D01*
X117685714Y-59128571D01*
X117114285Y-59671428D02*
X117457142Y-59671428D01*
X117285714Y-59671428D02*
X117285714Y-59071428D01*
X117342857Y-59157142D01*
X117400000Y-59214285D01*
X117457142Y-59242857D01*
X116771428Y-59328571D02*
X116828571Y-59300000D01*
X116857142Y-59271428D01*
X116885714Y-59214285D01*
X116885714Y-59185714D01*
X116857142Y-59128571D01*
X116828571Y-59100000D01*
X116771428Y-59071428D01*
X116657142Y-59071428D01*
X116600000Y-59100000D01*
X116571428Y-59128571D01*
X116542857Y-59185714D01*
X116542857Y-59214285D01*
X116571428Y-59271428D01*
X116600000Y-59300000D01*
X116657142Y-59328571D01*
X116771428Y-59328571D01*
X116828571Y-59357142D01*
X116857142Y-59385714D01*
X116885714Y-59442857D01*
X116885714Y-59557142D01*
X116857142Y-59614285D01*
X116828571Y-59642857D01*
X116771428Y-59671428D01*
X116657142Y-59671428D01*
X116600000Y-59642857D01*
X116571428Y-59614285D01*
X116542857Y-59557142D01*
X116542857Y-59442857D01*
X116571428Y-59385714D01*
X116600000Y-59357142D01*
X116657142Y-59328571D01*
%TO.C,U11*%
X120242857Y-55971428D02*
X120242857Y-56457142D01*
X120214285Y-56514285D01*
X120185714Y-56542857D01*
X120128571Y-56571428D01*
X120014285Y-56571428D01*
X119957142Y-56542857D01*
X119928571Y-56514285D01*
X119900000Y-56457142D01*
X119900000Y-55971428D01*
X119300000Y-56571428D02*
X119642857Y-56571428D01*
X119471428Y-56571428D02*
X119471428Y-55971428D01*
X119528571Y-56057142D01*
X119585714Y-56114285D01*
X119642857Y-56142857D01*
X118728571Y-56571428D02*
X119071428Y-56571428D01*
X118900000Y-56571428D02*
X118900000Y-55971428D01*
X118957142Y-56057142D01*
X119014285Y-56114285D01*
X119071428Y-56142857D01*
%TO.C,R5*%
X128800000Y-78076728D02*
X129000000Y-77791014D01*
X129142857Y-78076728D02*
X129142857Y-77476728D01*
X128914285Y-77476728D01*
X128857142Y-77505300D01*
X128828571Y-77533871D01*
X128800000Y-77591014D01*
X128800000Y-77676728D01*
X128828571Y-77733871D01*
X128857142Y-77762442D01*
X128914285Y-77791014D01*
X129142857Y-77791014D01*
X128257142Y-77476728D02*
X128542857Y-77476728D01*
X128571428Y-77762442D01*
X128542857Y-77733871D01*
X128485714Y-77705300D01*
X128342857Y-77705300D01*
X128285714Y-77733871D01*
X128257142Y-77762442D01*
X128228571Y-77819585D01*
X128228571Y-77962442D01*
X128257142Y-78019585D01*
X128285714Y-78048157D01*
X128342857Y-78076728D01*
X128485714Y-78076728D01*
X128542857Y-78048157D01*
X128571428Y-78019585D01*
%TO.C,C68*%
X142214285Y-64514285D02*
X142242857Y-64485714D01*
X142271428Y-64400000D01*
X142271428Y-64342857D01*
X142242857Y-64257142D01*
X142185714Y-64200000D01*
X142128571Y-64171428D01*
X142014285Y-64142857D01*
X141928571Y-64142857D01*
X141814285Y-64171428D01*
X141757142Y-64200000D01*
X141700000Y-64257142D01*
X141671428Y-64342857D01*
X141671428Y-64400000D01*
X141700000Y-64485714D01*
X141728571Y-64514285D01*
X141671428Y-65028571D02*
X141671428Y-64914285D01*
X141700000Y-64857142D01*
X141728571Y-64828571D01*
X141814285Y-64771428D01*
X141928571Y-64742857D01*
X142157142Y-64742857D01*
X142214285Y-64771428D01*
X142242857Y-64800000D01*
X142271428Y-64857142D01*
X142271428Y-64971428D01*
X142242857Y-65028571D01*
X142214285Y-65057142D01*
X142157142Y-65085714D01*
X142014285Y-65085714D01*
X141957142Y-65057142D01*
X141928571Y-65028571D01*
X141900000Y-64971428D01*
X141900000Y-64857142D01*
X141928571Y-64800000D01*
X141957142Y-64771428D01*
X142014285Y-64742857D01*
X141928571Y-65428571D02*
X141900000Y-65371428D01*
X141871428Y-65342857D01*
X141814285Y-65314285D01*
X141785714Y-65314285D01*
X141728571Y-65342857D01*
X141700000Y-65371428D01*
X141671428Y-65428571D01*
X141671428Y-65542857D01*
X141700000Y-65600000D01*
X141728571Y-65628571D01*
X141785714Y-65657142D01*
X141814285Y-65657142D01*
X141871428Y-65628571D01*
X141900000Y-65600000D01*
X141928571Y-65542857D01*
X141928571Y-65428571D01*
X141957142Y-65371428D01*
X141985714Y-65342857D01*
X142042857Y-65314285D01*
X142157142Y-65314285D01*
X142214285Y-65342857D01*
X142242857Y-65371428D01*
X142271428Y-65428571D01*
X142271428Y-65542857D01*
X142242857Y-65600000D01*
X142214285Y-65628571D01*
X142157142Y-65657142D01*
X142042857Y-65657142D01*
X141985714Y-65628571D01*
X141957142Y-65600000D01*
X141928571Y-65542857D01*
%TO.C,U19*%
X109942857Y-78871428D02*
X109942857Y-79357142D01*
X109914285Y-79414285D01*
X109885714Y-79442857D01*
X109828571Y-79471428D01*
X109714285Y-79471428D01*
X109657142Y-79442857D01*
X109628571Y-79414285D01*
X109600000Y-79357142D01*
X109600000Y-78871428D01*
X109000000Y-79471428D02*
X109342857Y-79471428D01*
X109171428Y-79471428D02*
X109171428Y-78871428D01*
X109228571Y-78957142D01*
X109285714Y-79014285D01*
X109342857Y-79042857D01*
X108714285Y-79471428D02*
X108600000Y-79471428D01*
X108542857Y-79442857D01*
X108514285Y-79414285D01*
X108457142Y-79328571D01*
X108428571Y-79214285D01*
X108428571Y-78985714D01*
X108457142Y-78928571D01*
X108485714Y-78900000D01*
X108542857Y-78871428D01*
X108657142Y-78871428D01*
X108714285Y-78900000D01*
X108742857Y-78928571D01*
X108771428Y-78985714D01*
X108771428Y-79128571D01*
X108742857Y-79185714D01*
X108714285Y-79214285D01*
X108657142Y-79242857D01*
X108542857Y-79242857D01*
X108485714Y-79214285D01*
X108457142Y-79185714D01*
X108428571Y-79128571D01*
%TO.C,J16*%
X139285714Y-70771428D02*
X139285714Y-71200000D01*
X139314285Y-71285714D01*
X139371428Y-71342857D01*
X139457142Y-71371428D01*
X139514285Y-71371428D01*
X138685714Y-71371428D02*
X139028571Y-71371428D01*
X138857142Y-71371428D02*
X138857142Y-70771428D01*
X138914285Y-70857142D01*
X138971428Y-70914285D01*
X139028571Y-70942857D01*
X138171428Y-70771428D02*
X138285714Y-70771428D01*
X138342857Y-70800000D01*
X138371428Y-70828571D01*
X138428571Y-70914285D01*
X138457142Y-71028571D01*
X138457142Y-71257142D01*
X138428571Y-71314285D01*
X138400000Y-71342857D01*
X138342857Y-71371428D01*
X138228571Y-71371428D01*
X138171428Y-71342857D01*
X138142857Y-71314285D01*
X138114285Y-71257142D01*
X138114285Y-71114285D01*
X138142857Y-71057142D01*
X138171428Y-71028571D01*
X138228571Y-71000000D01*
X138342857Y-71000000D01*
X138400000Y-71028571D01*
X138428571Y-71057142D01*
X138457142Y-71114285D01*
%TO.C,C25*%
X115485714Y-55514285D02*
X115514285Y-55542857D01*
X115600000Y-55571428D01*
X115657142Y-55571428D01*
X115742857Y-55542857D01*
X115800000Y-55485714D01*
X115828571Y-55428571D01*
X115857142Y-55314285D01*
X115857142Y-55228571D01*
X115828571Y-55114285D01*
X115800000Y-55057142D01*
X115742857Y-55000000D01*
X115657142Y-54971428D01*
X115600000Y-54971428D01*
X115514285Y-55000000D01*
X115485714Y-55028571D01*
X115257142Y-55028571D02*
X115228571Y-55000000D01*
X115171428Y-54971428D01*
X115028571Y-54971428D01*
X114971428Y-55000000D01*
X114942857Y-55028571D01*
X114914285Y-55085714D01*
X114914285Y-55142857D01*
X114942857Y-55228571D01*
X115285714Y-55571428D01*
X114914285Y-55571428D01*
X114371428Y-54971428D02*
X114657142Y-54971428D01*
X114685714Y-55257142D01*
X114657142Y-55228571D01*
X114600000Y-55200000D01*
X114457142Y-55200000D01*
X114400000Y-55228571D01*
X114371428Y-55257142D01*
X114342857Y-55314285D01*
X114342857Y-55457142D01*
X114371428Y-55514285D01*
X114400000Y-55542857D01*
X114457142Y-55571428D01*
X114600000Y-55571428D01*
X114657142Y-55542857D01*
X114685714Y-55514285D01*
%TO.C,J14*%
X125085714Y-50371428D02*
X125085714Y-50800000D01*
X125114285Y-50885714D01*
X125171428Y-50942857D01*
X125257142Y-50971428D01*
X125314285Y-50971428D01*
X124485714Y-50971428D02*
X124828571Y-50971428D01*
X124657142Y-50971428D02*
X124657142Y-50371428D01*
X124714285Y-50457142D01*
X124771428Y-50514285D01*
X124828571Y-50542857D01*
X123971428Y-50571428D02*
X123971428Y-50971428D01*
X124114285Y-50342857D02*
X124257142Y-50771428D01*
X123885714Y-50771428D01*
%TO.C,D2*%
X148642857Y-85471428D02*
X148642857Y-84871428D01*
X148500000Y-84871428D01*
X148414285Y-84900000D01*
X148357142Y-84957142D01*
X148328571Y-85014285D01*
X148300000Y-85128571D01*
X148300000Y-85214285D01*
X148328571Y-85328571D01*
X148357142Y-85385714D01*
X148414285Y-85442857D01*
X148500000Y-85471428D01*
X148642857Y-85471428D01*
X148071428Y-84928571D02*
X148042857Y-84900000D01*
X147985714Y-84871428D01*
X147842857Y-84871428D01*
X147785714Y-84900000D01*
X147757142Y-84928571D01*
X147728571Y-84985714D01*
X147728571Y-85042857D01*
X147757142Y-85128571D01*
X148100000Y-85471428D01*
X147728571Y-85471428D01*
%TO.C,D6*%
X148642857Y-92471428D02*
X148642857Y-91871428D01*
X148500000Y-91871428D01*
X148414285Y-91900000D01*
X148357142Y-91957142D01*
X148328571Y-92014285D01*
X148300000Y-92128571D01*
X148300000Y-92214285D01*
X148328571Y-92328571D01*
X148357142Y-92385714D01*
X148414285Y-92442857D01*
X148500000Y-92471428D01*
X148642857Y-92471428D01*
X147785714Y-91871428D02*
X147900000Y-91871428D01*
X147957142Y-91900000D01*
X147985714Y-91928571D01*
X148042857Y-92014285D01*
X148071428Y-92128571D01*
X148071428Y-92357142D01*
X148042857Y-92414285D01*
X148014285Y-92442857D01*
X147957142Y-92471428D01*
X147842857Y-92471428D01*
X147785714Y-92442857D01*
X147757142Y-92414285D01*
X147728571Y-92357142D01*
X147728571Y-92214285D01*
X147757142Y-92157142D01*
X147785714Y-92128571D01*
X147842857Y-92100000D01*
X147957142Y-92100000D01*
X148014285Y-92128571D01*
X148042857Y-92157142D01*
X148071428Y-92214285D01*
%TO.C,D7*%
X148642857Y-88971428D02*
X148642857Y-88371428D01*
X148500000Y-88371428D01*
X148414285Y-88400000D01*
X148357142Y-88457142D01*
X148328571Y-88514285D01*
X148300000Y-88628571D01*
X148300000Y-88714285D01*
X148328571Y-88828571D01*
X148357142Y-88885714D01*
X148414285Y-88942857D01*
X148500000Y-88971428D01*
X148642857Y-88971428D01*
X148100000Y-88371428D02*
X147700000Y-88371428D01*
X147957142Y-88971428D01*
%TO.C,D8*%
X102602857Y-89171428D02*
X102602857Y-88571428D01*
X102460000Y-88571428D01*
X102374285Y-88600000D01*
X102317142Y-88657142D01*
X102288571Y-88714285D01*
X102260000Y-88828571D01*
X102260000Y-88914285D01*
X102288571Y-89028571D01*
X102317142Y-89085714D01*
X102374285Y-89142857D01*
X102460000Y-89171428D01*
X102602857Y-89171428D01*
X101917142Y-88828571D02*
X101974285Y-88800000D01*
X102002857Y-88771428D01*
X102031428Y-88714285D01*
X102031428Y-88685714D01*
X102002857Y-88628571D01*
X101974285Y-88600000D01*
X101917142Y-88571428D01*
X101802857Y-88571428D01*
X101745714Y-88600000D01*
X101717142Y-88628571D01*
X101688571Y-88685714D01*
X101688571Y-88714285D01*
X101717142Y-88771428D01*
X101745714Y-88800000D01*
X101802857Y-88828571D01*
X101917142Y-88828571D01*
X101974285Y-88857142D01*
X102002857Y-88885714D01*
X102031428Y-88942857D01*
X102031428Y-89057142D01*
X102002857Y-89114285D01*
X101974285Y-89142857D01*
X101917142Y-89171428D01*
X101802857Y-89171428D01*
X101745714Y-89142857D01*
X101717142Y-89114285D01*
X101688571Y-89057142D01*
X101688571Y-88942857D01*
X101717142Y-88885714D01*
X101745714Y-88857142D01*
X101802857Y-88828571D01*
%TO.C,D9*%
X102592857Y-82171428D02*
X102592857Y-81571428D01*
X102450000Y-81571428D01*
X102364285Y-81600000D01*
X102307142Y-81657142D01*
X102278571Y-81714285D01*
X102250000Y-81828571D01*
X102250000Y-81914285D01*
X102278571Y-82028571D01*
X102307142Y-82085714D01*
X102364285Y-82142857D01*
X102450000Y-82171428D01*
X102592857Y-82171428D01*
X101964285Y-82171428D02*
X101850000Y-82171428D01*
X101792857Y-82142857D01*
X101764285Y-82114285D01*
X101707142Y-82028571D01*
X101678571Y-81914285D01*
X101678571Y-81685714D01*
X101707142Y-81628571D01*
X101735714Y-81600000D01*
X101792857Y-81571428D01*
X101907142Y-81571428D01*
X101964285Y-81600000D01*
X101992857Y-81628571D01*
X102021428Y-81685714D01*
X102021428Y-81828571D01*
X101992857Y-81885714D01*
X101964285Y-81914285D01*
X101907142Y-81942857D01*
X101792857Y-81942857D01*
X101735714Y-81914285D01*
X101707142Y-81885714D01*
X101678571Y-81828571D01*
%TO.C,D10*%
X102628571Y-85671428D02*
X102628571Y-85071428D01*
X102485714Y-85071428D01*
X102400000Y-85100000D01*
X102342857Y-85157142D01*
X102314285Y-85214285D01*
X102285714Y-85328571D01*
X102285714Y-85414285D01*
X102314285Y-85528571D01*
X102342857Y-85585714D01*
X102400000Y-85642857D01*
X102485714Y-85671428D01*
X102628571Y-85671428D01*
X101714285Y-85671428D02*
X102057142Y-85671428D01*
X101885714Y-85671428D02*
X101885714Y-85071428D01*
X101942857Y-85157142D01*
X102000000Y-85214285D01*
X102057142Y-85242857D01*
X101342857Y-85071428D02*
X101285714Y-85071428D01*
X101228571Y-85100000D01*
X101200000Y-85128571D01*
X101171428Y-85185714D01*
X101142857Y-85300000D01*
X101142857Y-85442857D01*
X101171428Y-85557142D01*
X101200000Y-85614285D01*
X101228571Y-85642857D01*
X101285714Y-85671428D01*
X101342857Y-85671428D01*
X101400000Y-85642857D01*
X101428571Y-85614285D01*
X101457142Y-85557142D01*
X101485714Y-85442857D01*
X101485714Y-85300000D01*
X101457142Y-85185714D01*
X101428571Y-85128571D01*
X101400000Y-85100000D01*
X101342857Y-85071428D01*
%TO.C,D11*%
X105728571Y-94121428D02*
X105728571Y-93521428D01*
X105585714Y-93521428D01*
X105500000Y-93550000D01*
X105442857Y-93607142D01*
X105414285Y-93664285D01*
X105385714Y-93778571D01*
X105385714Y-93864285D01*
X105414285Y-93978571D01*
X105442857Y-94035714D01*
X105500000Y-94092857D01*
X105585714Y-94121428D01*
X105728571Y-94121428D01*
X104814285Y-94121428D02*
X105157142Y-94121428D01*
X104985714Y-94121428D02*
X104985714Y-93521428D01*
X105042857Y-93607142D01*
X105100000Y-93664285D01*
X105157142Y-93692857D01*
X104242857Y-94121428D02*
X104585714Y-94121428D01*
X104414285Y-94121428D02*
X104414285Y-93521428D01*
X104471428Y-93607142D01*
X104528571Y-93664285D01*
X104585714Y-93692857D01*
%TO.C,D12*%
X107828571Y-68471428D02*
X107828571Y-67871428D01*
X107685714Y-67871428D01*
X107600000Y-67900000D01*
X107542857Y-67957142D01*
X107514285Y-68014285D01*
X107485714Y-68128571D01*
X107485714Y-68214285D01*
X107514285Y-68328571D01*
X107542857Y-68385714D01*
X107600000Y-68442857D01*
X107685714Y-68471428D01*
X107828571Y-68471428D01*
X106914285Y-68471428D02*
X107257142Y-68471428D01*
X107085714Y-68471428D02*
X107085714Y-67871428D01*
X107142857Y-67957142D01*
X107200000Y-68014285D01*
X107257142Y-68042857D01*
X106685714Y-67928571D02*
X106657142Y-67900000D01*
X106600000Y-67871428D01*
X106457142Y-67871428D01*
X106400000Y-67900000D01*
X106371428Y-67928571D01*
X106342857Y-67985714D01*
X106342857Y-68042857D01*
X106371428Y-68128571D01*
X106714285Y-68471428D01*
X106342857Y-68471428D01*
%TO.C,R10*%
X120571428Y-60514285D02*
X120285714Y-60314285D01*
X120571428Y-60171428D02*
X119971428Y-60171428D01*
X119971428Y-60400000D01*
X120000000Y-60457142D01*
X120028571Y-60485714D01*
X120085714Y-60514285D01*
X120171428Y-60514285D01*
X120228571Y-60485714D01*
X120257142Y-60457142D01*
X120285714Y-60400000D01*
X120285714Y-60171428D01*
X120571428Y-61085714D02*
X120571428Y-60742857D01*
X120571428Y-60914285D02*
X119971428Y-60914285D01*
X120057142Y-60857142D01*
X120114285Y-60800000D01*
X120142857Y-60742857D01*
X119971428Y-61457142D02*
X119971428Y-61514285D01*
X120000000Y-61571428D01*
X120028571Y-61600000D01*
X120085714Y-61628571D01*
X120200000Y-61657142D01*
X120342857Y-61657142D01*
X120457142Y-61628571D01*
X120514285Y-61600000D01*
X120542857Y-61571428D01*
X120571428Y-61514285D01*
X120571428Y-61457142D01*
X120542857Y-61400000D01*
X120514285Y-61371428D01*
X120457142Y-61342857D01*
X120342857Y-61314285D01*
X120200000Y-61314285D01*
X120085714Y-61342857D01*
X120028571Y-61371428D01*
X120000000Y-61400000D01*
X119971428Y-61457142D01*
%TO.C,U2*%
X123771428Y-80542857D02*
X124257142Y-80542857D01*
X124314285Y-80571428D01*
X124342857Y-80600000D01*
X124371428Y-80657142D01*
X124371428Y-80771428D01*
X124342857Y-80828571D01*
X124314285Y-80857142D01*
X124257142Y-80885714D01*
X123771428Y-80885714D01*
X123828571Y-81142857D02*
X123800000Y-81171428D01*
X123771428Y-81228571D01*
X123771428Y-81371428D01*
X123800000Y-81428571D01*
X123828571Y-81457142D01*
X123885714Y-81485714D01*
X123942857Y-81485714D01*
X124028571Y-81457142D01*
X124371428Y-81114285D01*
X124371428Y-81485714D01*
%TO.C,C10*%
X121885714Y-86114285D02*
X121914285Y-86142857D01*
X122000000Y-86171428D01*
X122057142Y-86171428D01*
X122142857Y-86142857D01*
X122200000Y-86085714D01*
X122228571Y-86028571D01*
X122257142Y-85914285D01*
X122257142Y-85828571D01*
X122228571Y-85714285D01*
X122200000Y-85657142D01*
X122142857Y-85600000D01*
X122057142Y-85571428D01*
X122000000Y-85571428D01*
X121914285Y-85600000D01*
X121885714Y-85628571D01*
X121314285Y-86171428D02*
X121657142Y-86171428D01*
X121485714Y-86171428D02*
X121485714Y-85571428D01*
X121542857Y-85657142D01*
X121600000Y-85714285D01*
X121657142Y-85742857D01*
X120942857Y-85571428D02*
X120885714Y-85571428D01*
X120828571Y-85600000D01*
X120800000Y-85628571D01*
X120771428Y-85685714D01*
X120742857Y-85800000D01*
X120742857Y-85942857D01*
X120771428Y-86057142D01*
X120800000Y-86114285D01*
X120828571Y-86142857D01*
X120885714Y-86171428D01*
X120942857Y-86171428D01*
X121000000Y-86142857D01*
X121028571Y-86114285D01*
X121057142Y-86057142D01*
X121085714Y-85942857D01*
X121085714Y-85800000D01*
X121057142Y-85685714D01*
X121028571Y-85628571D01*
X121000000Y-85600000D01*
X120942857Y-85571428D01*
%TO.C,C76*%
X112585714Y-78314285D02*
X112614285Y-78342857D01*
X112700000Y-78371428D01*
X112757142Y-78371428D01*
X112842857Y-78342857D01*
X112900000Y-78285714D01*
X112928571Y-78228571D01*
X112957142Y-78114285D01*
X112957142Y-78028571D01*
X112928571Y-77914285D01*
X112900000Y-77857142D01*
X112842857Y-77800000D01*
X112757142Y-77771428D01*
X112700000Y-77771428D01*
X112614285Y-77800000D01*
X112585714Y-77828571D01*
X112385714Y-77771428D02*
X111985714Y-77771428D01*
X112242857Y-78371428D01*
X111500000Y-77771428D02*
X111614285Y-77771428D01*
X111671428Y-77800000D01*
X111700000Y-77828571D01*
X111757142Y-77914285D01*
X111785714Y-78028571D01*
X111785714Y-78257142D01*
X111757142Y-78314285D01*
X111728571Y-78342857D01*
X111671428Y-78371428D01*
X111557142Y-78371428D01*
X111500000Y-78342857D01*
X111471428Y-78314285D01*
X111442857Y-78257142D01*
X111442857Y-78114285D01*
X111471428Y-78057142D01*
X111500000Y-78028571D01*
X111557142Y-78000000D01*
X111671428Y-78000000D01*
X111728571Y-78028571D01*
X111757142Y-78057142D01*
X111785714Y-78114285D01*
%TO.C,R20*%
X118185714Y-58471428D02*
X118385714Y-58185714D01*
X118528571Y-58471428D02*
X118528571Y-57871428D01*
X118300000Y-57871428D01*
X118242857Y-57900000D01*
X118214285Y-57928571D01*
X118185714Y-57985714D01*
X118185714Y-58071428D01*
X118214285Y-58128571D01*
X118242857Y-58157142D01*
X118300000Y-58185714D01*
X118528571Y-58185714D01*
X117957142Y-57928571D02*
X117928571Y-57900000D01*
X117871428Y-57871428D01*
X117728571Y-57871428D01*
X117671428Y-57900000D01*
X117642857Y-57928571D01*
X117614285Y-57985714D01*
X117614285Y-58042857D01*
X117642857Y-58128571D01*
X117985714Y-58471428D01*
X117614285Y-58471428D01*
X117242857Y-57871428D02*
X117185714Y-57871428D01*
X117128571Y-57900000D01*
X117100000Y-57928571D01*
X117071428Y-57985714D01*
X117042857Y-58100000D01*
X117042857Y-58242857D01*
X117071428Y-58357142D01*
X117100000Y-58414285D01*
X117128571Y-58442857D01*
X117185714Y-58471428D01*
X117242857Y-58471428D01*
X117300000Y-58442857D01*
X117328571Y-58414285D01*
X117357142Y-58357142D01*
X117385714Y-58242857D01*
X117385714Y-58100000D01*
X117357142Y-57985714D01*
X117328571Y-57928571D01*
X117300000Y-57900000D01*
X117242857Y-57871428D01*
%TO.C,R64*%
X118185714Y-57571428D02*
X118385714Y-57285714D01*
X118528571Y-57571428D02*
X118528571Y-56971428D01*
X118300000Y-56971428D01*
X118242857Y-57000000D01*
X118214285Y-57028571D01*
X118185714Y-57085714D01*
X118185714Y-57171428D01*
X118214285Y-57228571D01*
X118242857Y-57257142D01*
X118300000Y-57285714D01*
X118528571Y-57285714D01*
X117671428Y-56971428D02*
X117785714Y-56971428D01*
X117842857Y-57000000D01*
X117871428Y-57028571D01*
X117928571Y-57114285D01*
X117957142Y-57228571D01*
X117957142Y-57457142D01*
X117928571Y-57514285D01*
X117900000Y-57542857D01*
X117842857Y-57571428D01*
X117728571Y-57571428D01*
X117671428Y-57542857D01*
X117642857Y-57514285D01*
X117614285Y-57457142D01*
X117614285Y-57314285D01*
X117642857Y-57257142D01*
X117671428Y-57228571D01*
X117728571Y-57200000D01*
X117842857Y-57200000D01*
X117900000Y-57228571D01*
X117928571Y-57257142D01*
X117957142Y-57314285D01*
X117100000Y-57171428D02*
X117100000Y-57571428D01*
X117242857Y-56942857D02*
X117385714Y-57371428D01*
X117014285Y-57371428D01*
%TO.C,R7*%
X120600000Y-68471428D02*
X120800000Y-68185714D01*
X120942857Y-68471428D02*
X120942857Y-67871428D01*
X120714285Y-67871428D01*
X120657142Y-67900000D01*
X120628571Y-67928571D01*
X120600000Y-67985714D01*
X120600000Y-68071428D01*
X120628571Y-68128571D01*
X120657142Y-68157142D01*
X120714285Y-68185714D01*
X120942857Y-68185714D01*
X120400000Y-67871428D02*
X120000000Y-67871428D01*
X120257142Y-68471428D01*
%TD*%
M02*
