%TF.GenerationSoftware,KiCad,Pcbnew,(6.0.5)*%
%TF.CreationDate,2023-02-03T13:51:03+01:00*%
%TF.ProjectId,omodri_laas,6f6d6f64-7269-45f6-9c61-61732e6b6963,2.0*%
%TF.SameCoordinates,Original*%
%TF.FileFunction,Paste,Top*%
%TF.FilePolarity,Positive*%
%FSLAX46Y46*%
G04 Gerber Fmt 4.6, Leading zero omitted, Abs format (unit mm)*
G04 Created by KiCad (PCBNEW (6.0.5)) date 2023-02-03 13:51:03*
%MOMM*%
%LPD*%
G01*
G04 APERTURE LIST*
G04 Aperture macros list*
%AMRoundRect*
0 Rectangle with rounded corners*
0 $1 Rounding radius*
0 $2 $3 $4 $5 $6 $7 $8 $9 X,Y pos of 4 corners*
0 Add a 4 corners polygon primitive as box body*
4,1,4,$2,$3,$4,$5,$6,$7,$8,$9,$2,$3,0*
0 Add four circle primitives for the rounded corners*
1,1,$1+$1,$2,$3*
1,1,$1+$1,$4,$5*
1,1,$1+$1,$6,$7*
1,1,$1+$1,$8,$9*
0 Add four rect primitives between the rounded corners*
20,1,$1+$1,$2,$3,$4,$5,0*
20,1,$1+$1,$4,$5,$6,$7,0*
20,1,$1+$1,$6,$7,$8,$9,0*
20,1,$1+$1,$8,$9,$2,$3,0*%
%AMFreePoly0*
4,1,57,0.261297,0.442772,0.269672,0.444099,0.291600,0.432926,0.315006,0.425321,0.319990,0.418461,0.327546,0.414611,0.414611,0.327546,0.418461,0.319990,0.425321,0.315006,0.432926,0.291600,0.444099,0.269672,0.442772,0.261297,0.445393,0.253232,0.445393,-0.253232,0.442772,-0.261297,0.444099,-0.269672,0.432926,-0.291600,0.425321,-0.315006,0.418461,-0.319990,0.414611,-0.327546,
0.327546,-0.414611,0.319990,-0.418461,0.315006,-0.425321,0.291600,-0.432926,0.269672,-0.444099,0.261297,-0.442772,0.253232,-0.445393,-0.253232,-0.445393,-0.261297,-0.442772,-0.269672,-0.444099,-0.291600,-0.432926,-0.315006,-0.425321,-0.319990,-0.418461,-0.327546,-0.414611,-0.414611,-0.327546,-0.418461,-0.319990,-0.425321,-0.315006,-0.432926,-0.291600,-0.444099,-0.269672,-0.442772,-0.261297,
-0.445393,-0.253232,-0.445393,0.253232,-0.442772,0.261297,-0.444099,0.269672,-0.432926,0.291600,-0.425321,0.315006,-0.418461,0.319990,-0.414611,0.327546,-0.327546,0.414611,-0.319990,0.418461,-0.315006,0.425321,-0.291600,0.432926,-0.269672,0.444099,-0.261297,0.442772,-0.253232,0.445393,0.253232,0.445393,0.261297,0.442772,0.261297,0.442772,$1*%
G04 Aperture macros list end*
%ADD10C,0.250000*%
%ADD11C,0.300000*%
%ADD12C,0.100000*%
%ADD13C,0.350000*%
%ADD14RoundRect,0.079500X0.100500X-0.079500X0.100500X0.079500X-0.100500X0.079500X-0.100500X-0.079500X0*%
%ADD15RoundRect,0.079500X-0.079500X-0.100500X0.079500X-0.100500X0.079500X0.100500X-0.079500X0.100500X0*%
%ADD16RoundRect,0.140000X0.140000X0.170000X-0.140000X0.170000X-0.140000X-0.170000X0.140000X-0.170000X0*%
%ADD17RoundRect,0.218750X0.256250X-0.218750X0.256250X0.218750X-0.256250X0.218750X-0.256250X-0.218750X0*%
%ADD18RoundRect,0.079500X0.079500X0.100500X-0.079500X0.100500X-0.079500X-0.100500X0.079500X-0.100500X0*%
%ADD19R,2.700000X1.150000*%
%ADD20R,0.350000X1.150000*%
%ADD21R,0.250000X0.800000*%
%ADD22R,0.250000X0.700000*%
%ADD23R,1.100000X0.250000*%
%ADD24R,0.700000X0.250000*%
%ADD25RoundRect,0.100000X0.637500X0.100000X-0.637500X0.100000X-0.637500X-0.100000X0.637500X-0.100000X0*%
%ADD26RoundRect,0.079500X-0.100500X0.079500X-0.100500X-0.079500X0.100500X-0.079500X0.100500X0.079500X0*%
%ADD27RoundRect,0.140000X-0.170000X0.140000X-0.170000X-0.140000X0.170000X-0.140000X0.170000X0.140000X0*%
%ADD28R,0.400000X0.250000*%
%ADD29R,0.400000X0.700000*%
%ADD30RoundRect,0.147500X-0.172500X0.147500X-0.172500X-0.147500X0.172500X-0.147500X0.172500X0.147500X0*%
%ADD31RoundRect,0.140000X-0.140000X-0.170000X0.140000X-0.170000X0.140000X0.170000X-0.140000X0.170000X0*%
%ADD32RoundRect,0.225000X-0.250000X0.225000X-0.250000X-0.225000X0.250000X-0.225000X0.250000X0.225000X0*%
%ADD33RoundRect,0.225000X-0.225000X-0.250000X0.225000X-0.250000X0.225000X0.250000X-0.225000X0.250000X0*%
%ADD34RoundRect,0.147500X0.172500X-0.147500X0.172500X0.147500X-0.172500X0.147500X-0.172500X-0.147500X0*%
%ADD35RoundRect,0.225000X0.250000X-0.225000X0.250000X0.225000X-0.250000X0.225000X-0.250000X-0.225000X0*%
%ADD36R,0.700000X0.300000*%
%ADD37R,1.000000X0.300000*%
%ADD38FreePoly0,0.000000*%
%ADD39RoundRect,0.062500X-0.350000X-0.062500X0.350000X-0.062500X0.350000X0.062500X-0.350000X0.062500X0*%
%ADD40RoundRect,0.062500X-0.062500X-0.350000X0.062500X-0.350000X0.062500X0.350000X-0.062500X0.350000X0*%
%ADD41R,0.249999X0.700001*%
%ADD42R,0.375001X0.429999*%
%ADD43RoundRect,0.150000X-0.512500X-0.150000X0.512500X-0.150000X0.512500X0.150000X-0.512500X0.150000X0*%
%ADD44R,0.450000X1.380000*%
%ADD45R,1.650000X1.300000*%
%ADD46R,1.000000X1.900000*%
%ADD47R,1.425000X1.550000*%
%ADD48R,1.800000X1.900000*%
%ADD49RoundRect,0.147500X-0.147500X-0.172500X0.147500X-0.172500X0.147500X0.172500X-0.147500X0.172500X0*%
%ADD50RoundRect,0.147500X0.147500X0.172500X-0.147500X0.172500X-0.147500X-0.172500X0.147500X-0.172500X0*%
%ADD51R,0.900000X1.700000*%
%ADD52R,0.675000X0.250000*%
%ADD53R,0.250000X0.675000*%
%ADD54R,0.350000X0.200000*%
%ADD55R,0.300000X0.200000*%
%ADD56R,0.200000X0.350000*%
%ADD57R,0.200000X0.300000*%
%ADD58R,1.000000X1.500000*%
%ADD59R,0.300000X0.600000*%
%ADD60R,2.400000X1.650000*%
%ADD61R,0.499999X0.200000*%
G04 APERTURE END LIST*
D10*
%TO.C,U13*%
X122750000Y-80775000D02*
X123750000Y-80775000D01*
X122750000Y-79225000D02*
X123750000Y-79225000D01*
D11*
%TO.C,Q2*%
X106270000Y-87750000D02*
X102330000Y-87750000D01*
X106270000Y-83450000D02*
X102330000Y-83450000D01*
G36*
X104950000Y-85450000D02*
G01*
X103950000Y-85450000D01*
X103950000Y-84150000D01*
X104950000Y-84150000D01*
X104950000Y-85450000D01*
G37*
D12*
X104950000Y-85450000D02*
X103950000Y-85450000D01*
X103950000Y-84150000D01*
X104950000Y-84150000D01*
X104950000Y-85450000D01*
G36*
X102350000Y-87000000D02*
G01*
X101350000Y-87000000D01*
X101350000Y-85750000D01*
X102350000Y-85750000D01*
X102350000Y-87000000D01*
G37*
X102350000Y-87000000D02*
X101350000Y-87000000D01*
X101350000Y-85750000D01*
X102350000Y-85750000D01*
X102350000Y-87000000D01*
G36*
X102350000Y-85450000D02*
G01*
X101350000Y-85450000D01*
X101350000Y-84150000D01*
X102350000Y-84150000D01*
X102350000Y-85450000D01*
G37*
X102350000Y-85450000D02*
X101350000Y-85450000D01*
X101350000Y-84150000D01*
X102350000Y-84150000D01*
X102350000Y-85450000D01*
G36*
X103650000Y-87000000D02*
G01*
X102650000Y-87000000D01*
X102650000Y-85750000D01*
X103650000Y-85750000D01*
X103650000Y-87000000D01*
G37*
X103650000Y-87000000D02*
X102650000Y-87000000D01*
X102650000Y-85750000D01*
X103650000Y-85750000D01*
X103650000Y-87000000D01*
G36*
X106250000Y-85450000D02*
G01*
X105250000Y-85450000D01*
X105250000Y-84150000D01*
X106250000Y-84150000D01*
X106250000Y-85450000D01*
G37*
X106250000Y-85450000D02*
X105250000Y-85450000D01*
X105250000Y-84150000D01*
X106250000Y-84150000D01*
X106250000Y-85450000D01*
G36*
X104950000Y-87000000D02*
G01*
X103950000Y-87000000D01*
X103950000Y-85750000D01*
X104950000Y-85750000D01*
X104950000Y-87000000D01*
G37*
X104950000Y-87000000D02*
X103950000Y-87000000D01*
X103950000Y-85750000D01*
X104950000Y-85750000D01*
X104950000Y-87000000D01*
G36*
X103650000Y-85450000D02*
G01*
X102650000Y-85450000D01*
X102650000Y-84150000D01*
X103650000Y-84150000D01*
X103650000Y-85450000D01*
G37*
X103650000Y-85450000D02*
X102650000Y-85450000D01*
X102650000Y-84150000D01*
X103650000Y-84150000D01*
X103650000Y-85450000D01*
G36*
X106250000Y-87000000D02*
G01*
X105250000Y-87000000D01*
X105250000Y-85750000D01*
X106250000Y-85750000D01*
X106250000Y-87000000D01*
G37*
X106250000Y-87000000D02*
X105250000Y-87000000D01*
X105250000Y-85750000D01*
X106250000Y-85750000D01*
X106250000Y-87000000D01*
D11*
%TO.C,Q3*%
X112870000Y-87750000D02*
X108930000Y-87750000D01*
X112870000Y-83450000D02*
X108930000Y-83450000D01*
G36*
X108950000Y-87000000D02*
G01*
X107950000Y-87000000D01*
X107950000Y-85750000D01*
X108950000Y-85750000D01*
X108950000Y-87000000D01*
G37*
D12*
X108950000Y-87000000D02*
X107950000Y-87000000D01*
X107950000Y-85750000D01*
X108950000Y-85750000D01*
X108950000Y-87000000D01*
G36*
X111550000Y-85450000D02*
G01*
X110550000Y-85450000D01*
X110550000Y-84150000D01*
X111550000Y-84150000D01*
X111550000Y-85450000D01*
G37*
X111550000Y-85450000D02*
X110550000Y-85450000D01*
X110550000Y-84150000D01*
X111550000Y-84150000D01*
X111550000Y-85450000D01*
G36*
X111550000Y-87000000D02*
G01*
X110550000Y-87000000D01*
X110550000Y-85750000D01*
X111550000Y-85750000D01*
X111550000Y-87000000D01*
G37*
X111550000Y-87000000D02*
X110550000Y-87000000D01*
X110550000Y-85750000D01*
X111550000Y-85750000D01*
X111550000Y-87000000D01*
G36*
X112850000Y-87000000D02*
G01*
X111850000Y-87000000D01*
X111850000Y-85750000D01*
X112850000Y-85750000D01*
X112850000Y-87000000D01*
G37*
X112850000Y-87000000D02*
X111850000Y-87000000D01*
X111850000Y-85750000D01*
X112850000Y-85750000D01*
X112850000Y-87000000D01*
G36*
X110250000Y-85450000D02*
G01*
X109250000Y-85450000D01*
X109250000Y-84150000D01*
X110250000Y-84150000D01*
X110250000Y-85450000D01*
G37*
X110250000Y-85450000D02*
X109250000Y-85450000D01*
X109250000Y-84150000D01*
X110250000Y-84150000D01*
X110250000Y-85450000D01*
G36*
X112850000Y-85450000D02*
G01*
X111850000Y-85450000D01*
X111850000Y-84150000D01*
X112850000Y-84150000D01*
X112850000Y-85450000D01*
G37*
X112850000Y-85450000D02*
X111850000Y-85450000D01*
X111850000Y-84150000D01*
X112850000Y-84150000D01*
X112850000Y-85450000D01*
G36*
X108950000Y-85450000D02*
G01*
X107950000Y-85450000D01*
X107950000Y-84150000D01*
X108950000Y-84150000D01*
X108950000Y-85450000D01*
G37*
X108950000Y-85450000D02*
X107950000Y-85450000D01*
X107950000Y-84150000D01*
X108950000Y-84150000D01*
X108950000Y-85450000D01*
G36*
X110250000Y-87000000D02*
G01*
X109250000Y-87000000D01*
X109250000Y-85750000D01*
X110250000Y-85750000D01*
X110250000Y-87000000D01*
G37*
X110250000Y-87000000D02*
X109250000Y-87000000D01*
X109250000Y-85750000D01*
X110250000Y-85750000D01*
X110250000Y-87000000D01*
D11*
%TO.C,Q4*%
X119470000Y-83450000D02*
X115530000Y-83450000D01*
X119470000Y-87750000D02*
X115530000Y-87750000D01*
G36*
X116850000Y-85450000D02*
G01*
X115850000Y-85450000D01*
X115850000Y-84150000D01*
X116850000Y-84150000D01*
X116850000Y-85450000D01*
G37*
D12*
X116850000Y-85450000D02*
X115850000Y-85450000D01*
X115850000Y-84150000D01*
X116850000Y-84150000D01*
X116850000Y-85450000D01*
G36*
X116850000Y-87000000D02*
G01*
X115850000Y-87000000D01*
X115850000Y-85750000D01*
X116850000Y-85750000D01*
X116850000Y-87000000D01*
G37*
X116850000Y-87000000D02*
X115850000Y-87000000D01*
X115850000Y-85750000D01*
X116850000Y-85750000D01*
X116850000Y-87000000D01*
G36*
X119450000Y-85450000D02*
G01*
X118450000Y-85450000D01*
X118450000Y-84150000D01*
X119450000Y-84150000D01*
X119450000Y-85450000D01*
G37*
X119450000Y-85450000D02*
X118450000Y-85450000D01*
X118450000Y-84150000D01*
X119450000Y-84150000D01*
X119450000Y-85450000D01*
G36*
X118150000Y-87000000D02*
G01*
X117150000Y-87000000D01*
X117150000Y-85750000D01*
X118150000Y-85750000D01*
X118150000Y-87000000D01*
G37*
X118150000Y-87000000D02*
X117150000Y-87000000D01*
X117150000Y-85750000D01*
X118150000Y-85750000D01*
X118150000Y-87000000D01*
G36*
X119450000Y-87000000D02*
G01*
X118450000Y-87000000D01*
X118450000Y-85750000D01*
X119450000Y-85750000D01*
X119450000Y-87000000D01*
G37*
X119450000Y-87000000D02*
X118450000Y-87000000D01*
X118450000Y-85750000D01*
X119450000Y-85750000D01*
X119450000Y-87000000D01*
G36*
X118150000Y-85450000D02*
G01*
X117150000Y-85450000D01*
X117150000Y-84150000D01*
X118150000Y-84150000D01*
X118150000Y-85450000D01*
G37*
X118150000Y-85450000D02*
X117150000Y-85450000D01*
X117150000Y-84150000D01*
X118150000Y-84150000D01*
X118150000Y-85450000D01*
G36*
X115550000Y-87000000D02*
G01*
X114550000Y-87000000D01*
X114550000Y-85750000D01*
X115550000Y-85750000D01*
X115550000Y-87000000D01*
G37*
X115550000Y-87000000D02*
X114550000Y-87000000D01*
X114550000Y-85750000D01*
X115550000Y-85750000D01*
X115550000Y-87000000D01*
G36*
X115550000Y-85450000D02*
G01*
X114550000Y-85450000D01*
X114550000Y-84150000D01*
X115550000Y-84150000D01*
X115550000Y-85450000D01*
G37*
X115550000Y-85450000D02*
X114550000Y-85450000D01*
X114550000Y-84150000D01*
X115550000Y-84150000D01*
X115550000Y-85450000D01*
D11*
%TO.C,Q5*%
X135470000Y-87750000D02*
X131530000Y-87750000D01*
X135470000Y-83450000D02*
X131530000Y-83450000D01*
G36*
X132850000Y-87000000D02*
G01*
X131850000Y-87000000D01*
X131850000Y-85750000D01*
X132850000Y-85750000D01*
X132850000Y-87000000D01*
G37*
D12*
X132850000Y-87000000D02*
X131850000Y-87000000D01*
X131850000Y-85750000D01*
X132850000Y-85750000D01*
X132850000Y-87000000D01*
G36*
X134150000Y-87000000D02*
G01*
X133150000Y-87000000D01*
X133150000Y-85750000D01*
X134150000Y-85750000D01*
X134150000Y-87000000D01*
G37*
X134150000Y-87000000D02*
X133150000Y-87000000D01*
X133150000Y-85750000D01*
X134150000Y-85750000D01*
X134150000Y-87000000D01*
G36*
X131550000Y-85450000D02*
G01*
X130550000Y-85450000D01*
X130550000Y-84150000D01*
X131550000Y-84150000D01*
X131550000Y-85450000D01*
G37*
X131550000Y-85450000D02*
X130550000Y-85450000D01*
X130550000Y-84150000D01*
X131550000Y-84150000D01*
X131550000Y-85450000D01*
G36*
X131550000Y-87000000D02*
G01*
X130550000Y-87000000D01*
X130550000Y-85750000D01*
X131550000Y-85750000D01*
X131550000Y-87000000D01*
G37*
X131550000Y-87000000D02*
X130550000Y-87000000D01*
X130550000Y-85750000D01*
X131550000Y-85750000D01*
X131550000Y-87000000D01*
G36*
X132850000Y-85450000D02*
G01*
X131850000Y-85450000D01*
X131850000Y-84150000D01*
X132850000Y-84150000D01*
X132850000Y-85450000D01*
G37*
X132850000Y-85450000D02*
X131850000Y-85450000D01*
X131850000Y-84150000D01*
X132850000Y-84150000D01*
X132850000Y-85450000D01*
G36*
X135450000Y-85450000D02*
G01*
X134450000Y-85450000D01*
X134450000Y-84150000D01*
X135450000Y-84150000D01*
X135450000Y-85450000D01*
G37*
X135450000Y-85450000D02*
X134450000Y-85450000D01*
X134450000Y-84150000D01*
X135450000Y-84150000D01*
X135450000Y-85450000D01*
G36*
X134150000Y-85450000D02*
G01*
X133150000Y-85450000D01*
X133150000Y-84150000D01*
X134150000Y-84150000D01*
X134150000Y-85450000D01*
G37*
X134150000Y-85450000D02*
X133150000Y-85450000D01*
X133150000Y-84150000D01*
X134150000Y-84150000D01*
X134150000Y-85450000D01*
G36*
X135450000Y-87000000D02*
G01*
X134450000Y-87000000D01*
X134450000Y-85750000D01*
X135450000Y-85750000D01*
X135450000Y-87000000D01*
G37*
X135450000Y-87000000D02*
X134450000Y-87000000D01*
X134450000Y-85750000D01*
X135450000Y-85750000D01*
X135450000Y-87000000D01*
D11*
%TO.C,Q6*%
X142070000Y-83450000D02*
X138130000Y-83450000D01*
X142070000Y-87750000D02*
X138130000Y-87750000D01*
G36*
X142050000Y-87000000D02*
G01*
X141050000Y-87000000D01*
X141050000Y-85750000D01*
X142050000Y-85750000D01*
X142050000Y-87000000D01*
G37*
D12*
X142050000Y-87000000D02*
X141050000Y-87000000D01*
X141050000Y-85750000D01*
X142050000Y-85750000D01*
X142050000Y-87000000D01*
G36*
X140750000Y-87000000D02*
G01*
X139750000Y-87000000D01*
X139750000Y-85750000D01*
X140750000Y-85750000D01*
X140750000Y-87000000D01*
G37*
X140750000Y-87000000D02*
X139750000Y-87000000D01*
X139750000Y-85750000D01*
X140750000Y-85750000D01*
X140750000Y-87000000D01*
G36*
X140750000Y-85450000D02*
G01*
X139750000Y-85450000D01*
X139750000Y-84150000D01*
X140750000Y-84150000D01*
X140750000Y-85450000D01*
G37*
X140750000Y-85450000D02*
X139750000Y-85450000D01*
X139750000Y-84150000D01*
X140750000Y-84150000D01*
X140750000Y-85450000D01*
G36*
X139450000Y-85450000D02*
G01*
X138450000Y-85450000D01*
X138450000Y-84150000D01*
X139450000Y-84150000D01*
X139450000Y-85450000D01*
G37*
X139450000Y-85450000D02*
X138450000Y-85450000D01*
X138450000Y-84150000D01*
X139450000Y-84150000D01*
X139450000Y-85450000D01*
G36*
X139450000Y-87000000D02*
G01*
X138450000Y-87000000D01*
X138450000Y-85750000D01*
X139450000Y-85750000D01*
X139450000Y-87000000D01*
G37*
X139450000Y-87000000D02*
X138450000Y-87000000D01*
X138450000Y-85750000D01*
X139450000Y-85750000D01*
X139450000Y-87000000D01*
G36*
X138150000Y-87000000D02*
G01*
X137150000Y-87000000D01*
X137150000Y-85750000D01*
X138150000Y-85750000D01*
X138150000Y-87000000D01*
G37*
X138150000Y-87000000D02*
X137150000Y-87000000D01*
X137150000Y-85750000D01*
X138150000Y-85750000D01*
X138150000Y-87000000D01*
G36*
X138150000Y-85450000D02*
G01*
X137150000Y-85450000D01*
X137150000Y-84150000D01*
X138150000Y-84150000D01*
X138150000Y-85450000D01*
G37*
X138150000Y-85450000D02*
X137150000Y-85450000D01*
X137150000Y-84150000D01*
X138150000Y-84150000D01*
X138150000Y-85450000D01*
G36*
X142050000Y-85450000D02*
G01*
X141050000Y-85450000D01*
X141050000Y-84150000D01*
X142050000Y-84150000D01*
X142050000Y-85450000D01*
G37*
X142050000Y-85450000D02*
X141050000Y-85450000D01*
X141050000Y-84150000D01*
X142050000Y-84150000D01*
X142050000Y-85450000D01*
D11*
%TO.C,Q7*%
X148670000Y-87750000D02*
X144730000Y-87750000D01*
X148670000Y-83450000D02*
X144730000Y-83450000D01*
G36*
X144750000Y-87000000D02*
G01*
X143750000Y-87000000D01*
X143750000Y-85750000D01*
X144750000Y-85750000D01*
X144750000Y-87000000D01*
G37*
D12*
X144750000Y-87000000D02*
X143750000Y-87000000D01*
X143750000Y-85750000D01*
X144750000Y-85750000D01*
X144750000Y-87000000D01*
G36*
X147350000Y-87000000D02*
G01*
X146350000Y-87000000D01*
X146350000Y-85750000D01*
X147350000Y-85750000D01*
X147350000Y-87000000D01*
G37*
X147350000Y-87000000D02*
X146350000Y-87000000D01*
X146350000Y-85750000D01*
X147350000Y-85750000D01*
X147350000Y-87000000D01*
G36*
X144750000Y-85450000D02*
G01*
X143750000Y-85450000D01*
X143750000Y-84150000D01*
X144750000Y-84150000D01*
X144750000Y-85450000D01*
G37*
X144750000Y-85450000D02*
X143750000Y-85450000D01*
X143750000Y-84150000D01*
X144750000Y-84150000D01*
X144750000Y-85450000D01*
G36*
X146050000Y-85450000D02*
G01*
X145050000Y-85450000D01*
X145050000Y-84150000D01*
X146050000Y-84150000D01*
X146050000Y-85450000D01*
G37*
X146050000Y-85450000D02*
X145050000Y-85450000D01*
X145050000Y-84150000D01*
X146050000Y-84150000D01*
X146050000Y-85450000D01*
G36*
X148650000Y-87000000D02*
G01*
X147650000Y-87000000D01*
X147650000Y-85750000D01*
X148650000Y-85750000D01*
X148650000Y-87000000D01*
G37*
X148650000Y-87000000D02*
X147650000Y-87000000D01*
X147650000Y-85750000D01*
X148650000Y-85750000D01*
X148650000Y-87000000D01*
G36*
X147350000Y-85450000D02*
G01*
X146350000Y-85450000D01*
X146350000Y-84150000D01*
X147350000Y-84150000D01*
X147350000Y-85450000D01*
G37*
X147350000Y-85450000D02*
X146350000Y-85450000D01*
X146350000Y-84150000D01*
X147350000Y-84150000D01*
X147350000Y-85450000D01*
G36*
X148650000Y-85450000D02*
G01*
X147650000Y-85450000D01*
X147650000Y-84150000D01*
X148650000Y-84150000D01*
X148650000Y-85450000D01*
G37*
X148650000Y-85450000D02*
X147650000Y-85450000D01*
X147650000Y-84150000D01*
X148650000Y-84150000D01*
X148650000Y-85450000D01*
G36*
X146050000Y-87000000D02*
G01*
X145050000Y-87000000D01*
X145050000Y-85750000D01*
X146050000Y-85750000D01*
X146050000Y-87000000D01*
G37*
X146050000Y-87000000D02*
X145050000Y-87000000D01*
X145050000Y-85750000D01*
X146050000Y-85750000D01*
X146050000Y-87000000D01*
D10*
%TO.C,U12*%
X127750000Y-79225000D02*
X128750000Y-79225000D01*
X127750000Y-80775000D02*
X128750000Y-80775000D01*
%TD*%
D13*
%TO.C,U6*%
X117800000Y-69700000D03*
X117800000Y-68900000D03*
X117800000Y-68100000D03*
X117800000Y-67300000D03*
X117800000Y-66500000D03*
X117800000Y-65700000D03*
X117800000Y-64900000D03*
X117800000Y-64100000D03*
X117800000Y-63300000D03*
X117800000Y-62500000D03*
X117800000Y-61700000D03*
X117800000Y-60900000D03*
X117800000Y-60100000D03*
X117800000Y-59300000D03*
X117800000Y-58500000D03*
X117800000Y-57700000D03*
X117800000Y-56900000D03*
X117800000Y-56100000D03*
X117800000Y-55300000D03*
X118600000Y-69700000D03*
X118600000Y-68900000D03*
X118600000Y-68100000D03*
X118600000Y-67300000D03*
X118600000Y-66500000D03*
X118600000Y-65700000D03*
X118600000Y-64900000D03*
X118600000Y-64100000D03*
X118600000Y-63300000D03*
X118600000Y-62500000D03*
X118600000Y-61700000D03*
X118600000Y-60900000D03*
X118600000Y-60100000D03*
X118600000Y-59300000D03*
X118600000Y-58500000D03*
X118600000Y-57700000D03*
X118600000Y-56900000D03*
X118600000Y-56100000D03*
X118600000Y-55300000D03*
X119400000Y-69700000D03*
X119400000Y-68900000D03*
X119400000Y-68100000D03*
X119400000Y-67300000D03*
X119400000Y-66500000D03*
X119400000Y-65700000D03*
X119400000Y-64900000D03*
X119400000Y-64100000D03*
X119400000Y-63300000D03*
X119400000Y-62500000D03*
X119400000Y-61700000D03*
X119400000Y-60900000D03*
X119400000Y-60100000D03*
X119400000Y-59300000D03*
X119400000Y-58500000D03*
X119400000Y-57700000D03*
X119400000Y-56900000D03*
X119400000Y-56100000D03*
X119400000Y-55300000D03*
X120200000Y-69700000D03*
X120200000Y-68900000D03*
X120200000Y-68100000D03*
X120200000Y-67300000D03*
X120200000Y-66500000D03*
X120200000Y-65700000D03*
X120200000Y-64900000D03*
X120200000Y-64100000D03*
X120200000Y-63300000D03*
X120200000Y-62500000D03*
X120200000Y-61700000D03*
X120200000Y-60900000D03*
X120200000Y-60100000D03*
X120200000Y-59300000D03*
X120200000Y-58500000D03*
X120200000Y-57700000D03*
X120200000Y-56900000D03*
X120200000Y-56100000D03*
X120200000Y-55300000D03*
X121000000Y-69700000D03*
X121000000Y-68900000D03*
X121000000Y-68100000D03*
X121000000Y-67300000D03*
X121000000Y-66500000D03*
X121000000Y-65700000D03*
X121000000Y-64900000D03*
X121000000Y-64100000D03*
X121000000Y-63300000D03*
X121000000Y-62500000D03*
X121000000Y-61700000D03*
X121000000Y-60900000D03*
X121000000Y-60100000D03*
X121000000Y-59300000D03*
X121000000Y-58500000D03*
X121000000Y-57700000D03*
X121000000Y-56900000D03*
X121000000Y-56100000D03*
X121000000Y-55300000D03*
X121800000Y-69700000D03*
X121800000Y-68900000D03*
X121800000Y-68100000D03*
X121800000Y-67300000D03*
X121800000Y-66500000D03*
X121800000Y-65700000D03*
X121800000Y-64900000D03*
X121800000Y-64100000D03*
X121800000Y-63300000D03*
X121800000Y-62500000D03*
X121800000Y-61700000D03*
X121800000Y-60900000D03*
X121800000Y-60100000D03*
X121800000Y-59300000D03*
X121800000Y-58500000D03*
X121800000Y-57700000D03*
X121800000Y-56900000D03*
X121800000Y-56100000D03*
X121800000Y-55300000D03*
X122600000Y-69700000D03*
X122600000Y-68900000D03*
X122600000Y-68100000D03*
X122600000Y-67300000D03*
X122600000Y-66500000D03*
X122600000Y-65700000D03*
X122600000Y-59300000D03*
X122600000Y-58500000D03*
X122600000Y-57700000D03*
X122600000Y-56900000D03*
X122600000Y-56100000D03*
X122600000Y-55300000D03*
X123400000Y-69700000D03*
X123400000Y-68900000D03*
X123400000Y-68100000D03*
X123400000Y-67300000D03*
X123400000Y-66500000D03*
X123400000Y-65700000D03*
X123400000Y-64100000D03*
X123400000Y-63300000D03*
X123400000Y-62500000D03*
X123400000Y-61700000D03*
X123400000Y-60900000D03*
X123400000Y-59300000D03*
X123400000Y-58500000D03*
X123400000Y-57700000D03*
X123400000Y-56900000D03*
X123400000Y-56100000D03*
X123400000Y-55300000D03*
X124200000Y-69700000D03*
X124200000Y-68900000D03*
X124200000Y-68100000D03*
X124200000Y-67300000D03*
X124200000Y-66500000D03*
X124200000Y-65700000D03*
X124200000Y-64100000D03*
X124200000Y-63300000D03*
X124200000Y-62500000D03*
X124200000Y-61700000D03*
X124200000Y-60900000D03*
X124200000Y-59300000D03*
X124200000Y-58500000D03*
X124200000Y-57700000D03*
X124200000Y-56900000D03*
X124200000Y-56100000D03*
X124200000Y-55300000D03*
X125000000Y-69700000D03*
X125000000Y-68900000D03*
X125000000Y-68100000D03*
X125000000Y-67300000D03*
X125000000Y-66500000D03*
X125000000Y-65700000D03*
X125000000Y-64100000D03*
X125000000Y-63300000D03*
X125000000Y-62500000D03*
X125000000Y-61700000D03*
X125000000Y-60900000D03*
X125000000Y-59300000D03*
X125000000Y-58500000D03*
X125000000Y-57700000D03*
X125000000Y-56900000D03*
X125000000Y-56100000D03*
X125000000Y-55300000D03*
X125800000Y-69700000D03*
X125800000Y-68900000D03*
X125800000Y-68100000D03*
X125800000Y-67300000D03*
X125800000Y-66500000D03*
X125800000Y-65700000D03*
X125800000Y-64100000D03*
X125800000Y-63300000D03*
X125800000Y-62500000D03*
X125800000Y-61700000D03*
X125800000Y-60900000D03*
X125800000Y-59300000D03*
X125800000Y-58500000D03*
X125800000Y-57700000D03*
X125800000Y-56900000D03*
X125800000Y-56100000D03*
X125800000Y-55300000D03*
X126600000Y-69700000D03*
X126600000Y-68900000D03*
X126600000Y-68100000D03*
X126600000Y-67300000D03*
X126600000Y-66500000D03*
X126600000Y-65700000D03*
X126600000Y-64100000D03*
X126600000Y-63300000D03*
X126600000Y-62500000D03*
X126600000Y-61700000D03*
X126600000Y-60900000D03*
X126600000Y-59300000D03*
X126600000Y-58500000D03*
X126600000Y-57700000D03*
X126600000Y-56900000D03*
X126600000Y-56100000D03*
X126600000Y-55300000D03*
X127400000Y-69700000D03*
X127400000Y-68900000D03*
X127400000Y-68100000D03*
X127400000Y-67300000D03*
X127400000Y-66500000D03*
X127400000Y-65700000D03*
X127400000Y-59300000D03*
X127400000Y-58500000D03*
X127400000Y-57700000D03*
X127400000Y-56900000D03*
X127400000Y-56100000D03*
X127400000Y-55300000D03*
X128200000Y-69700000D03*
X128200000Y-68900000D03*
X128200000Y-68100000D03*
X128200000Y-67300000D03*
X128200000Y-66500000D03*
X128200000Y-65700000D03*
X128200000Y-64900000D03*
X128200000Y-64100000D03*
X128200000Y-63300000D03*
X128200000Y-62500000D03*
X128200000Y-61700000D03*
X128200000Y-60900000D03*
X128200000Y-60100000D03*
X128200000Y-59300000D03*
X128200000Y-58500000D03*
X128200000Y-57700000D03*
X128200000Y-56900000D03*
X128200000Y-56100000D03*
X128200000Y-55300000D03*
X129000000Y-69700000D03*
X129000000Y-68900000D03*
X129000000Y-68100000D03*
X129000000Y-67300000D03*
X129000000Y-66500000D03*
X129000000Y-65700000D03*
X129000000Y-64900000D03*
X129000000Y-64100000D03*
X129000000Y-63300000D03*
X129000000Y-62500000D03*
X129000000Y-61700000D03*
X129000000Y-60900000D03*
X129000000Y-60100000D03*
X129000000Y-59300000D03*
X129000000Y-58500000D03*
X129000000Y-57700000D03*
X129000000Y-56900000D03*
X129000000Y-56100000D03*
X129000000Y-55300000D03*
X129800000Y-69700000D03*
X129800000Y-68900000D03*
X129800000Y-68100000D03*
X129800000Y-67300000D03*
X129800000Y-66500000D03*
X129800000Y-65700000D03*
X129800000Y-64900000D03*
X129800000Y-64100000D03*
X129800000Y-63300000D03*
X129800000Y-62500000D03*
X129800000Y-61700000D03*
X129800000Y-60900000D03*
X129800000Y-60100000D03*
X129800000Y-59300000D03*
X129800000Y-58500000D03*
X129800000Y-57700000D03*
X129800000Y-56900000D03*
X129800000Y-56100000D03*
X129800000Y-55300000D03*
X130600000Y-69700000D03*
X130600000Y-68900000D03*
X130600000Y-68100000D03*
X130600000Y-67300000D03*
X130600000Y-66500000D03*
X130600000Y-65700000D03*
X130600000Y-64900000D03*
X130600000Y-64100000D03*
X130600000Y-63300000D03*
X130600000Y-62500000D03*
X130600000Y-61700000D03*
X130600000Y-60900000D03*
X130600000Y-60100000D03*
X130600000Y-59300000D03*
X130600000Y-58500000D03*
X130600000Y-57700000D03*
X130600000Y-56900000D03*
X130600000Y-56100000D03*
X130600000Y-55300000D03*
X131400000Y-69700000D03*
X131400000Y-68900000D03*
X131400000Y-68100000D03*
X131400000Y-67300000D03*
X131400000Y-66500000D03*
X131400000Y-65700000D03*
X131400000Y-64900000D03*
X131400000Y-64100000D03*
X131400000Y-63300000D03*
X131400000Y-62500000D03*
X131400000Y-61700000D03*
X131400000Y-60900000D03*
X131400000Y-60100000D03*
X131400000Y-59300000D03*
X131400000Y-58500000D03*
X131400000Y-57700000D03*
X131400000Y-56900000D03*
X131400000Y-56100000D03*
X131400000Y-55300000D03*
X132200000Y-69700000D03*
X132200000Y-68900000D03*
X132200000Y-68100000D03*
X132200000Y-67300000D03*
X132200000Y-66500000D03*
X132200000Y-65700000D03*
X132200000Y-64900000D03*
X132200000Y-64100000D03*
X132200000Y-63300000D03*
X132200000Y-62500000D03*
X132200000Y-61700000D03*
X132200000Y-60900000D03*
X132200000Y-60100000D03*
X132200000Y-59300000D03*
X132200000Y-58500000D03*
X132200000Y-57700000D03*
X132200000Y-56900000D03*
X132200000Y-56100000D03*
X132200000Y-55300000D03*
%TD*%
D14*
%TO.C,C41*%
X141750000Y-69345000D03*
X141750000Y-68655000D03*
%TD*%
D15*
%TO.C,C49*%
X145595000Y-77450000D03*
X144905000Y-77450000D03*
%TD*%
D16*
%TO.C,C65*%
X121830000Y-77250000D03*
X120870000Y-77250000D03*
%TD*%
D15*
%TO.C,C69*%
X132845000Y-75100000D03*
X132155000Y-75100000D03*
%TD*%
D17*
%TO.C,FB3*%
X123000000Y-77787500D03*
X123000000Y-76212500D03*
%TD*%
D18*
%TO.C,R26*%
X129935000Y-53800000D03*
X130625000Y-53800000D03*
%TD*%
D19*
%TO.C,R40*%
X132925000Y-81875000D03*
D20*
X131100000Y-81875000D03*
X131100000Y-80325000D03*
D19*
X132925000Y-80325000D03*
%TD*%
D21*
%TO.C,U13*%
X122250000Y-80950000D03*
D22*
X122750000Y-81000000D03*
X123250000Y-81000000D03*
X123750000Y-81000000D03*
D23*
X123750000Y-80000000D03*
D22*
X123750000Y-79000000D03*
X123250000Y-79000000D03*
X122750000Y-79000000D03*
X122250000Y-79000000D03*
D24*
X122050000Y-80000000D03*
%TD*%
D14*
%TO.C,R44*%
X148700000Y-75415000D03*
X148700000Y-74725000D03*
%TD*%
%TO.C,R23*%
X134000000Y-59395000D03*
X134000000Y-58705000D03*
%TD*%
D18*
%TO.C,C45*%
X140405000Y-77450000D03*
X141095000Y-77450000D03*
%TD*%
D25*
%TO.C,U5*%
X141462500Y-58875000D03*
X141462500Y-58225000D03*
X141462500Y-57575000D03*
X141462500Y-56925000D03*
X141462500Y-56275000D03*
X141462500Y-55625000D03*
X141462500Y-54975000D03*
X141462500Y-54325000D03*
X135737500Y-54325000D03*
X135737500Y-54975000D03*
X135737500Y-55625000D03*
X135737500Y-56275000D03*
X135737500Y-56925000D03*
X135737500Y-57575000D03*
X135737500Y-58225000D03*
X135737500Y-58875000D03*
%TD*%
D26*
%TO.C,R20*%
X142800000Y-56145000D03*
X142800000Y-55455000D03*
%TD*%
%TO.C,R21*%
X134000000Y-55195000D03*
X134000000Y-54505000D03*
%TD*%
D27*
%TO.C,C37*%
X138200000Y-73120000D03*
X138200000Y-74080000D03*
%TD*%
D28*
%TO.C,Q1*%
X131850000Y-51225000D03*
X131850000Y-50775000D03*
D29*
X131150000Y-51000000D03*
%TD*%
D26*
%TO.C,C43*%
X139050000Y-75605000D03*
X139050000Y-76295000D03*
%TD*%
D19*
%TO.C,R41*%
X139525000Y-81875000D03*
D20*
X137700000Y-81875000D03*
X137700000Y-80325000D03*
D19*
X139525000Y-80325000D03*
%TD*%
D15*
%TO.C,R37*%
X114555000Y-73250000D03*
X115245000Y-73250000D03*
%TD*%
D14*
%TO.C,R45*%
X148000000Y-73275000D03*
X148000000Y-72585000D03*
%TD*%
%TO.C,R46*%
X148875000Y-72585000D03*
X148875000Y-73275000D03*
%TD*%
D30*
%TO.C,D9*%
X115000000Y-74315000D03*
X115000000Y-75285000D03*
%TD*%
D31*
%TO.C,C27*%
X104790000Y-69200000D03*
X105750000Y-69200000D03*
%TD*%
D18*
%TO.C,R53*%
X121865000Y-78100000D03*
X121175000Y-78100000D03*
%TD*%
D31*
%TO.C,C62*%
X129920000Y-79000000D03*
X130880000Y-79000000D03*
%TD*%
D26*
%TO.C,R52*%
X126200000Y-78975000D03*
X126200000Y-79665000D03*
%TD*%
D32*
%TO.C,C25*%
X101500000Y-72725000D03*
X101500000Y-74275000D03*
%TD*%
D33*
%TO.C,C29*%
X102025000Y-70400000D03*
X103575000Y-70400000D03*
%TD*%
D14*
%TO.C,C28*%
X106750000Y-69345000D03*
X106750000Y-68655000D03*
%TD*%
D18*
%TO.C,C68*%
X131195000Y-75100000D03*
X130505000Y-75100000D03*
%TD*%
%TO.C,R51*%
X126175000Y-78100000D03*
X126865000Y-78100000D03*
%TD*%
D15*
%TO.C,C31*%
X112255000Y-74250000D03*
X112945000Y-74250000D03*
%TD*%
D34*
%TO.C,D10*%
X148000000Y-71370000D03*
X148000000Y-70400000D03*
%TD*%
D27*
%TO.C,C40*%
X140500000Y-68420000D03*
X140500000Y-69380000D03*
%TD*%
D35*
%TO.C,C38*%
X136900000Y-72250000D03*
X136900000Y-70700000D03*
%TD*%
D19*
%TO.C,R39*%
X116925000Y-81875000D03*
D20*
X115100000Y-81875000D03*
X115100000Y-80325000D03*
D19*
X116925000Y-80325000D03*
%TD*%
D15*
%TO.C,C36*%
X109905000Y-77450000D03*
X110595000Y-77450000D03*
%TD*%
D26*
%TO.C,C30*%
X104050000Y-76295000D03*
X104050000Y-75605000D03*
%TD*%
D18*
%TO.C,C32*%
X105405000Y-77450000D03*
X106095000Y-77450000D03*
%TD*%
D19*
%TO.C,R32*%
X110325000Y-81875000D03*
D20*
X108500000Y-81875000D03*
X108500000Y-80325000D03*
D19*
X110325000Y-80325000D03*
%TD*%
D14*
%TO.C,R42*%
X147100000Y-75725000D03*
X147100000Y-76415000D03*
%TD*%
%TO.C,R34*%
X112900000Y-75225000D03*
X112900000Y-75915000D03*
%TD*%
D26*
%TO.C,R54*%
X121200000Y-78975000D03*
X121200000Y-79665000D03*
%TD*%
D17*
%TO.C,FB1*%
X128000000Y-77787500D03*
X128000000Y-76212500D03*
%TD*%
%TO.C,FB2*%
X129500000Y-77787500D03*
X129500000Y-76212500D03*
%TD*%
D26*
%TO.C,R29*%
X133000000Y-51445000D03*
X133000000Y-50755000D03*
%TD*%
D14*
%TO.C,C14*%
X134000000Y-55905000D03*
X134000000Y-56595000D03*
%TD*%
%TO.C,R33*%
X112100000Y-75725000D03*
X112100000Y-76415000D03*
%TD*%
%TO.C,R43*%
X147900000Y-75915000D03*
X147900000Y-75225000D03*
%TD*%
%TO.C,R35*%
X113700000Y-74725000D03*
X113700000Y-75415000D03*
%TD*%
%TO.C,R19*%
X142800000Y-57545000D03*
X142800000Y-56855000D03*
%TD*%
D19*
%TO.C,R31*%
X103725000Y-81875000D03*
D20*
X101900000Y-81875000D03*
X101900000Y-80325000D03*
D19*
X103725000Y-80325000D03*
%TD*%
D36*
%TO.C,J5*%
X146500000Y-59500000D03*
X146500000Y-59000000D03*
X146500000Y-58500000D03*
X146500000Y-58000000D03*
X146500000Y-57500000D03*
X146500000Y-57000000D03*
X146500000Y-56500000D03*
X146500000Y-56000000D03*
D37*
X149150000Y-60290000D03*
X149150000Y-55210000D03*
%TD*%
D19*
%TO.C,R47*%
X146125000Y-81875000D03*
D20*
X144300000Y-81875000D03*
X144300000Y-80325000D03*
D19*
X146125000Y-80325000D03*
%TD*%
D38*
%TO.C,U9*%
X108512500Y-75037500D03*
X106462500Y-74012500D03*
X109537500Y-75037500D03*
X108512500Y-74012500D03*
X109537500Y-72987500D03*
X107487500Y-71962500D03*
X107487500Y-72987500D03*
X107487500Y-75037500D03*
X106462500Y-72987500D03*
X107487500Y-74012500D03*
X109537500Y-74012500D03*
X106462500Y-71962500D03*
X108512500Y-72987500D03*
X106462500Y-75037500D03*
X108512500Y-71962500D03*
X109537500Y-71962500D03*
D39*
X105062500Y-71250000D03*
X105062500Y-71750000D03*
X105062500Y-72250000D03*
X105062500Y-72750000D03*
X105062500Y-73250000D03*
X105062500Y-73750000D03*
X105062500Y-74250000D03*
X105062500Y-74750000D03*
X105062500Y-75250000D03*
X105062500Y-75750000D03*
D40*
X105750000Y-76437500D03*
X106250000Y-76437500D03*
X106750000Y-76437500D03*
X107250000Y-76437500D03*
X107750000Y-76437500D03*
X108250000Y-76437500D03*
X108750000Y-76437500D03*
X109250000Y-76437500D03*
X109750000Y-76437500D03*
X110250000Y-76437500D03*
D39*
X110937500Y-75750000D03*
X110937500Y-75250000D03*
X110937500Y-74750000D03*
X110937500Y-74250000D03*
X110937500Y-73750000D03*
X110937500Y-73250000D03*
X110937500Y-72750000D03*
X110937500Y-72250000D03*
X110937500Y-71750000D03*
X110937500Y-71250000D03*
D40*
X110250000Y-70562500D03*
X109750000Y-70562500D03*
X109250000Y-70562500D03*
X108750000Y-70562500D03*
X108250000Y-70562500D03*
X107750000Y-70562500D03*
X107250000Y-70562500D03*
X106750000Y-70562500D03*
X106250000Y-70562500D03*
X105750000Y-70562500D03*
%TD*%
D38*
%TO.C,U10*%
X144537500Y-74012500D03*
X142487500Y-72987500D03*
X143512500Y-75037500D03*
X141462500Y-72987500D03*
X143512500Y-74012500D03*
X143512500Y-72987500D03*
X142487500Y-75037500D03*
X141462500Y-75037500D03*
X144537500Y-72987500D03*
X141462500Y-71962500D03*
X144537500Y-75037500D03*
X141462500Y-74012500D03*
X144537500Y-71962500D03*
X143512500Y-71962500D03*
X142487500Y-71962500D03*
X142487500Y-74012500D03*
D39*
X140062500Y-71250000D03*
X140062500Y-71750000D03*
X140062500Y-72250000D03*
X140062500Y-72750000D03*
X140062500Y-73250000D03*
X140062500Y-73750000D03*
X140062500Y-74250000D03*
X140062500Y-74750000D03*
X140062500Y-75250000D03*
X140062500Y-75750000D03*
D40*
X140750000Y-76437500D03*
X141250000Y-76437500D03*
X141750000Y-76437500D03*
X142250000Y-76437500D03*
X142750000Y-76437500D03*
X143250000Y-76437500D03*
X143750000Y-76437500D03*
X144250000Y-76437500D03*
X144750000Y-76437500D03*
X145250000Y-76437500D03*
D39*
X145937500Y-75750000D03*
X145937500Y-75250000D03*
X145937500Y-74750000D03*
X145937500Y-74250000D03*
X145937500Y-73750000D03*
X145937500Y-73250000D03*
X145937500Y-72750000D03*
X145937500Y-72250000D03*
X145937500Y-71750000D03*
X145937500Y-71250000D03*
D40*
X145250000Y-70562500D03*
X144750000Y-70562500D03*
X144250000Y-70562500D03*
X143750000Y-70562500D03*
X143250000Y-70562500D03*
X142750000Y-70562500D03*
X142250000Y-70562500D03*
X141750000Y-70562500D03*
X141250000Y-70562500D03*
X140750000Y-70562500D03*
%TD*%
D26*
%TO.C,R18*%
X142800000Y-58945000D03*
X142800000Y-58255000D03*
%TD*%
D41*
%TO.C,Q2*%
X101300000Y-87950000D03*
X101799999Y-87950000D03*
X102300000Y-87950000D03*
X102799999Y-87950000D03*
X103300001Y-87950000D03*
X103800000Y-87950000D03*
X104299999Y-87950000D03*
X104800001Y-87950000D03*
X105300000Y-87950000D03*
X105800001Y-87950000D03*
X106300000Y-87950000D03*
X106300000Y-83250000D03*
X105800001Y-83250000D03*
X105300000Y-83250000D03*
X104800001Y-83250000D03*
X104299999Y-83250000D03*
X103800000Y-83250000D03*
X103300001Y-83250000D03*
X102799999Y-83250000D03*
X102300000Y-83250000D03*
X101799999Y-83250000D03*
X101300000Y-83250000D03*
D42*
X100787001Y-87715000D03*
X106812999Y-87715000D03*
X106812999Y-83485000D03*
X100787001Y-83485000D03*
%TD*%
D41*
%TO.C,Q3*%
X107900000Y-87950000D03*
X108399999Y-87950000D03*
X108900000Y-87950000D03*
X109399999Y-87950000D03*
X109900001Y-87950000D03*
X110400000Y-87950000D03*
X110899999Y-87950000D03*
X111400001Y-87950000D03*
X111900000Y-87950000D03*
X112400001Y-87950000D03*
X112900000Y-87950000D03*
X112900000Y-83250000D03*
X112400001Y-83250000D03*
X111900000Y-83250000D03*
X111400001Y-83250000D03*
X110899999Y-83250000D03*
X110400000Y-83250000D03*
X109900001Y-83250000D03*
X109399999Y-83250000D03*
X108900000Y-83250000D03*
X108399999Y-83250000D03*
X107900000Y-83250000D03*
D42*
X107387001Y-87715000D03*
X113412999Y-87715000D03*
X113412999Y-83485000D03*
X107387001Y-83485000D03*
%TD*%
D41*
%TO.C,Q4*%
X114500000Y-87950000D03*
X114999999Y-87950000D03*
X115500000Y-87950000D03*
X115999999Y-87950000D03*
X116500001Y-87950000D03*
X117000000Y-87950000D03*
X117499999Y-87950000D03*
X118000001Y-87950000D03*
X118500000Y-87950000D03*
X119000001Y-87950000D03*
X119500000Y-87950000D03*
X119500000Y-83250000D03*
X119000001Y-83250000D03*
X118500000Y-83250000D03*
X118000001Y-83250000D03*
X117499999Y-83250000D03*
X117000000Y-83250000D03*
X116500001Y-83250000D03*
X115999999Y-83250000D03*
X115500000Y-83250000D03*
X114999999Y-83250000D03*
X114500000Y-83250000D03*
D42*
X113987001Y-87715000D03*
X120012999Y-87715000D03*
X120012999Y-83485000D03*
X113987001Y-83485000D03*
%TD*%
D41*
%TO.C,Q5*%
X130500000Y-87950000D03*
X130999999Y-87950000D03*
X131500000Y-87950000D03*
X131999999Y-87950000D03*
X132500001Y-87950000D03*
X133000000Y-87950000D03*
X133499999Y-87950000D03*
X134000001Y-87950000D03*
X134500000Y-87950000D03*
X135000001Y-87950000D03*
X135500000Y-87950000D03*
X135500000Y-83250000D03*
X135000001Y-83250000D03*
X134500000Y-83250000D03*
X134000001Y-83250000D03*
X133499999Y-83250000D03*
X133000000Y-83250000D03*
X132500001Y-83250000D03*
X131999999Y-83250000D03*
X131500000Y-83250000D03*
X130999999Y-83250000D03*
X130500000Y-83250000D03*
D42*
X129987001Y-87715000D03*
X136012999Y-87715000D03*
X136012999Y-83485000D03*
X129987001Y-83485000D03*
%TD*%
D41*
%TO.C,Q6*%
X137100000Y-87950000D03*
X137599999Y-87950000D03*
X138100000Y-87950000D03*
X138599999Y-87950000D03*
X139100001Y-87950000D03*
X139600000Y-87950000D03*
X140099999Y-87950000D03*
X140600001Y-87950000D03*
X141100000Y-87950000D03*
X141600001Y-87950000D03*
X142100000Y-87950000D03*
X142100000Y-83250000D03*
X141600001Y-83250000D03*
X141100000Y-83250000D03*
X140600001Y-83250000D03*
X140099999Y-83250000D03*
X139600000Y-83250000D03*
X139100001Y-83250000D03*
X138599999Y-83250000D03*
X138100000Y-83250000D03*
X137599999Y-83250000D03*
X137100000Y-83250000D03*
D42*
X136587001Y-87715000D03*
X142612999Y-87715000D03*
X142612999Y-83485000D03*
X136587001Y-83485000D03*
%TD*%
D41*
%TO.C,Q7*%
X143700000Y-87950000D03*
X144199999Y-87950000D03*
X144700000Y-87950000D03*
X145199999Y-87950000D03*
X145700001Y-87950000D03*
X146200000Y-87950000D03*
X146699999Y-87950000D03*
X147200001Y-87950000D03*
X147700000Y-87950000D03*
X148200001Y-87950000D03*
X148700000Y-87950000D03*
X148700000Y-83250000D03*
X148200001Y-83250000D03*
X147700000Y-83250000D03*
X147200001Y-83250000D03*
X146699999Y-83250000D03*
X146200000Y-83250000D03*
X145700001Y-83250000D03*
X145199999Y-83250000D03*
X144700000Y-83250000D03*
X144199999Y-83250000D03*
X143700000Y-83250000D03*
D42*
X143187001Y-87715000D03*
X149212999Y-87715000D03*
X149212999Y-83485000D03*
X143187001Y-83485000D03*
%TD*%
D43*
%TO.C,U14*%
X129362500Y-72050000D03*
X129362500Y-73000000D03*
X129362500Y-73950000D03*
X131637500Y-73950000D03*
X131637500Y-73000000D03*
X131637500Y-72050000D03*
%TD*%
D34*
%TO.C,D6*%
X129500000Y-52600000D03*
X129500000Y-51630000D03*
%TD*%
D15*
%TO.C,C44*%
X148745000Y-74000000D03*
X148055000Y-74000000D03*
%TD*%
D21*
%TO.C,U12*%
X127250000Y-80950000D03*
D22*
X127750000Y-81000000D03*
X128250000Y-81000000D03*
X128750000Y-81000000D03*
D23*
X128750000Y-80000000D03*
D22*
X128750000Y-79000000D03*
X128250000Y-79000000D03*
X127750000Y-79000000D03*
X127250000Y-79000000D03*
D24*
X127050000Y-80000000D03*
%TD*%
D35*
%TO.C,C42*%
X138450000Y-71125000D03*
X138450000Y-69575000D03*
%TD*%
D26*
%TO.C,R38*%
X113700000Y-73915000D03*
X113700000Y-73225000D03*
%TD*%
D27*
%TO.C,C24*%
X103200000Y-73120000D03*
X103200000Y-74080000D03*
%TD*%
D14*
%TO.C,C104*%
X113500000Y-56845000D03*
X113500000Y-56155000D03*
%TD*%
D44*
%TO.C,J15*%
X111970000Y-54860000D03*
X111320000Y-54860000D03*
X110670000Y-54860000D03*
X110020000Y-54860000D03*
X109370000Y-54860000D03*
D45*
X107295000Y-52200000D03*
X114045000Y-52200000D03*
D46*
X109120000Y-52200000D03*
D47*
X108182500Y-54775000D03*
X113157500Y-54775000D03*
D48*
X111820000Y-52200000D03*
%TD*%
D49*
%TO.C,D11*%
X111615000Y-56750000D03*
X112585000Y-56750000D03*
%TD*%
D50*
%TO.C,D12*%
X110385000Y-56750000D03*
X109415000Y-56750000D03*
%TD*%
D51*
%TO.C,SW1*%
X137700000Y-52000000D03*
X134300000Y-52000000D03*
%TD*%
D26*
%TO.C,C23*%
X133000000Y-53245000D03*
X133000000Y-52555000D03*
%TD*%
D18*
%TO.C,C26*%
X101545000Y-71600000D03*
X100855000Y-71600000D03*
%TD*%
%TO.C,C39*%
X134755000Y-72250000D03*
X135445000Y-72250000D03*
%TD*%
D15*
%TO.C,R36*%
X112255000Y-72750000D03*
X112945000Y-72750000D03*
%TD*%
D26*
%TO.C,R22*%
X134000000Y-57995000D03*
X134000000Y-57305000D03*
%TD*%
D15*
%TO.C,R30*%
X130485000Y-52600000D03*
X131175000Y-52600000D03*
%TD*%
D14*
%TO.C,C102*%
X119800000Y-74135000D03*
X119800000Y-74825000D03*
%TD*%
D26*
%TO.C,R17*%
X144100000Y-60460000D03*
X144100000Y-61150000D03*
%TD*%
D15*
%TO.C,R2*%
X120835000Y-53800000D03*
X121525000Y-53800000D03*
%TD*%
D52*
%TO.C,U16*%
X146262500Y-63000000D03*
X146262500Y-63500000D03*
X146262500Y-64000000D03*
X146262500Y-64500000D03*
X146262500Y-65000000D03*
X146262500Y-65500000D03*
X146262500Y-66000000D03*
D53*
X145000000Y-66512500D03*
D52*
X143737500Y-66000000D03*
X143737500Y-65500000D03*
X143737500Y-65000000D03*
X143737500Y-64500000D03*
X143737500Y-64000000D03*
X143737500Y-63500000D03*
X143737500Y-63000000D03*
D53*
X145000000Y-62487500D03*
%TD*%
D26*
%TO.C,R64*%
X118250000Y-76155000D03*
X118250000Y-76845000D03*
%TD*%
D54*
%TO.C,U19*%
X114225000Y-56180000D03*
D55*
X114200000Y-56680000D03*
X114200000Y-57180000D03*
X114800000Y-57180000D03*
X114800000Y-56680000D03*
X114800000Y-56180000D03*
%TD*%
D56*
%TO.C,U1*%
X122500000Y-72875000D03*
D57*
X123000000Y-72900000D03*
X123500000Y-72900000D03*
X123500000Y-72300000D03*
X123000000Y-72300000D03*
X122500000Y-72300000D03*
%TD*%
D58*
%TO.C,D4*%
X110100000Y-61550000D03*
X106900000Y-61550000D03*
X106900000Y-66450000D03*
X110100000Y-66450000D03*
%TD*%
D18*
%TO.C,R65*%
X118255000Y-71200000D03*
X118945000Y-71200000D03*
%TD*%
D30*
%TO.C,D2*%
X145000000Y-59515000D03*
X145000000Y-60485000D03*
%TD*%
D59*
%TO.C,U18*%
X118850000Y-72000000D03*
X118200000Y-72000000D03*
X117550000Y-72000000D03*
X116900000Y-72000000D03*
X116900000Y-74800000D03*
X117550000Y-74800000D03*
X118200000Y-74800000D03*
X118850000Y-74800000D03*
D60*
X117875000Y-73400000D03*
%TD*%
D15*
%TO.C,R1*%
X117835000Y-53800000D03*
X118525000Y-53800000D03*
%TD*%
%TO.C,C7*%
X124975000Y-71500000D03*
X125665000Y-71500000D03*
%TD*%
%TO.C,R3*%
X124525000Y-53800000D03*
X123835000Y-53800000D03*
%TD*%
%TO.C,R66*%
X116805000Y-71200000D03*
X117495000Y-71200000D03*
%TD*%
D56*
%TO.C,U2*%
X124500000Y-72875000D03*
D57*
X125000000Y-72900000D03*
X125500000Y-72900000D03*
X125500000Y-72300000D03*
X125000000Y-72300000D03*
X124500000Y-72300000D03*
%TD*%
D61*
%TO.C,D3*%
X145025000Y-58500000D03*
X145025000Y-58000001D03*
X145025000Y-57499999D03*
X145025000Y-57000000D03*
X145025000Y-56499998D03*
X145025000Y-55999999D03*
X145025000Y-55500000D03*
X143775000Y-55500000D03*
X143775000Y-55999999D03*
X143775000Y-56499998D03*
X143775000Y-57000000D03*
X143775000Y-57499999D03*
X143775000Y-58000001D03*
X143775000Y-58500000D03*
%TD*%
D14*
%TO.C,C100*%
X147200000Y-64025000D03*
X147200000Y-63335000D03*
%TD*%
%TO.C,C103*%
X115500000Y-56705000D03*
X115500000Y-56015000D03*
%TD*%
D15*
%TO.C,C3*%
X123665000Y-71500000D03*
X122975000Y-71500000D03*
%TD*%
%TO.C,R4*%
X127525000Y-53800000D03*
X126835000Y-53800000D03*
%TD*%
D56*
%TO.C,U3*%
X126500000Y-72875000D03*
D57*
X127000000Y-72900000D03*
X127500000Y-72900000D03*
X127500000Y-72300000D03*
X127000000Y-72300000D03*
X126500000Y-72300000D03*
%TD*%
D26*
%TO.C,R62*%
X117500000Y-76845000D03*
X117500000Y-76155000D03*
%TD*%
D15*
%TO.C,C8*%
X127665000Y-71500000D03*
X126975000Y-71500000D03*
%TD*%
D26*
%TO.C,C99*%
X142700000Y-65665000D03*
X142700000Y-64975000D03*
%TD*%
M02*
