%TF.GenerationSoftware,KiCad,Pcbnew,(6.0.5)*%
%TF.CreationDate,2023-02-03T13:51:10+01:00*%
%TF.ProjectId,omodri_laas,6f6d6f64-7269-45f6-9c61-61732e6b6963,2.0*%
%TF.SameCoordinates,Original*%
%TF.FileFunction,Component,L6,Bot*%
%TF.FilePolarity,Positive*%
%FSLAX46Y46*%
G04 Gerber Fmt 4.6, Leading zero omitted, Abs format (unit mm)*
G04 Created by KiCad (PCBNEW (6.0.5)) date 2023-02-03 13:51:10*
%MOMM*%
%LPD*%
G01*
G04 APERTURE LIST*
%TA.AperFunction,ComponentMain*%
%ADD10C,0.300000*%
%TD*%
%TA.AperFunction,ComponentOutline,Courtyard*%
%ADD11C,0.100000*%
%TD*%
%TA.AperFunction,ComponentPin*%
%ADD12P,0.360000X4X0.000000*%
%TD*%
%TA.AperFunction,ComponentPin*%
%ADD13C,0.000000*%
%TD*%
%TA.AperFunction,ComponentOutline,Footprint*%
%ADD14C,0.100000*%
%TD*%
G04 APERTURE END LIST*
D10*
%TO.C,"C50"*%
%TO.CFtp,"C_0201_0603Metric"*%
%TO.CVal,"100nF"*%
%TO.CLbN,"Capacitor_SMD"*%
%TO.CMnt,SMD*%
%TO.CRot,90*%
X129000000Y-64900000D03*
D11*
X129349999Y-65599999D02*
X128650001Y-65599999D01*
X128650001Y-64200001D01*
X129349999Y-64200001D01*
X129349999Y-65599999D01*
D12*
%TO.P,"C50","1"*%
X129000000Y-65220000D03*
D13*
%TO.P,"C50","2"*%
X129000000Y-64580000D03*
%TD*%
D10*
%TO.C,"C47"*%
%TO.CFtp,"C_0201_0603Metric"*%
%TO.CVal,"1.8nF"*%
%TO.CLbN,"Capacitor_SMD"*%
%TO.CMnt,SMD*%
%TO.CRot,-90*%
X130400000Y-69620000D03*
D11*
X130749999Y-70319999D02*
X130050001Y-70319999D01*
X130050001Y-68920001D01*
X130749999Y-68920001D01*
X130749999Y-70319999D01*
D12*
%TO.P,"C47","1"*%
X130400000Y-69300000D03*
D13*
%TO.P,"C47","2"*%
X130400000Y-69940000D03*
%TD*%
D10*
%TO.C,"C83"*%
%TO.CFtp,"C_0201_0603Metric"*%
%TO.CVal,"100nF"*%
%TO.CLbN,"Capacitor_SMD"*%
%TO.CMnt,SMD*%
%TO.CRot,0*%
X127400000Y-66500000D03*
D11*
X128099999Y-66849999D02*
X126700001Y-66849999D01*
X126700001Y-66150001D01*
X128099999Y-66150001D01*
X128099999Y-66849999D01*
D12*
%TO.P,"C83","1"*%
X127080000Y-66500000D03*
D13*
%TO.P,"C83","2"*%
X127720000Y-66500000D03*
%TD*%
D10*
%TO.C,"C94"*%
%TO.CFtp,"C_0201_0603Metric"*%
%TO.CVal,"100nF"*%
%TO.CLbN,"Capacitor_SMD"*%
%TO.CMnt,SMD*%
%TO.CRot,0*%
X132200000Y-55300000D03*
D11*
X132899999Y-55649999D02*
X131500001Y-55649999D01*
X131500001Y-54950001D01*
X132899999Y-54950001D01*
X132899999Y-55649999D01*
D12*
%TO.P,"C94","1"*%
X131880000Y-55300000D03*
D13*
%TO.P,"C94","2"*%
X132520000Y-55300000D03*
%TD*%
D10*
%TO.C,"C93"*%
%TO.CFtp,"C_0201_0603Metric"*%
%TO.CVal,"100nF"*%
%TO.CLbN,"Capacitor_SMD"*%
%TO.CMnt,SMD*%
%TO.CRot,-90*%
X132200000Y-64900000D03*
D11*
X132549999Y-65599999D02*
X131850001Y-65599999D01*
X131850001Y-64200001D01*
X132549999Y-64200001D01*
X132549999Y-65599999D01*
D12*
%TO.P,"C93","1"*%
X132200000Y-64580000D03*
D13*
%TO.P,"C93","2"*%
X132200000Y-65220000D03*
%TD*%
D10*
%TO.C,"C92"*%
%TO.CFtp,"C_0201_0603Metric"*%
%TO.CVal,"100nF"*%
%TO.CLbN,"Capacitor_SMD"*%
%TO.CMnt,SMD*%
%TO.CRot,90*%
X126600000Y-69700000D03*
D11*
X126949999Y-70399999D02*
X126250001Y-70399999D01*
X126250001Y-69000001D01*
X126949999Y-69000001D01*
X126949999Y-70399999D01*
D12*
%TO.P,"C92","1"*%
X126600000Y-70020000D03*
D13*
%TO.P,"C92","2"*%
X126600000Y-69380000D03*
%TD*%
D10*
%TO.C,"C91"*%
%TO.CFtp,"C_0201_0603Metric"*%
%TO.CVal,"100nF"*%
%TO.CLbN,"Capacitor_SMD"*%
%TO.CMnt,SMD*%
%TO.CRot,180*%
X117800000Y-68900000D03*
D11*
X118499999Y-69249999D02*
X117100001Y-69249999D01*
X117100001Y-68550001D01*
X118499999Y-68550001D01*
X118499999Y-69249999D01*
D12*
%TO.P,"C91","1"*%
X118120000Y-68900000D03*
D13*
%TO.P,"C91","2"*%
X117480000Y-68900000D03*
%TD*%
D10*
%TO.C,"C89"*%
%TO.CFtp,"C_0201_0603Metric"*%
%TO.CVal,"100nF"*%
%TO.CLbN,"Capacitor_SMD"*%
%TO.CMnt,SMD*%
%TO.CRot,-90*%
X121000000Y-57700000D03*
D11*
X121349999Y-58399999D02*
X120650001Y-58399999D01*
X120650001Y-57000001D01*
X121349999Y-57000001D01*
X121349999Y-58399999D01*
D12*
%TO.P,"C89","1"*%
X121000000Y-57380000D03*
D13*
%TO.P,"C89","2"*%
X121000000Y-58020000D03*
%TD*%
D10*
%TO.C,"C86"*%
%TO.CFtp,"C_0201_0603Metric"*%
%TO.CVal,"100nF"*%
%TO.CLbN,"Capacitor_SMD"*%
%TO.CMnt,SMD*%
%TO.CRot,180*%
X127400000Y-59300000D03*
D11*
X128099999Y-59649999D02*
X126700001Y-59649999D01*
X126700001Y-58950001D01*
X128099999Y-58950001D01*
X128099999Y-59649999D01*
D12*
%TO.P,"C86","1"*%
X127720000Y-59300000D03*
D13*
%TO.P,"C86","2"*%
X127080000Y-59300000D03*
%TD*%
D10*
%TO.C,"C81"*%
%TO.CFtp,"C_0201_0603Metric"*%
%TO.CVal,"100nF"*%
%TO.CLbN,"Capacitor_SMD"*%
%TO.CMnt,SMD*%
%TO.CRot,-90*%
X121000000Y-65700000D03*
D11*
X121349999Y-66399999D02*
X120650001Y-66399999D01*
X120650001Y-65000001D01*
X121349999Y-65000001D01*
X121349999Y-66399999D01*
D12*
%TO.P,"C81","1"*%
X121000000Y-65380000D03*
D13*
%TO.P,"C81","2"*%
X121000000Y-66020000D03*
%TD*%
D10*
%TO.C,"C82"*%
%TO.CFtp,"C_0201_0603Metric"*%
%TO.CVal,"100nF"*%
%TO.CLbN,"Capacitor_SMD"*%
%TO.CMnt,SMD*%
%TO.CRot,180*%
X122600000Y-65700000D03*
D11*
X123299999Y-66049999D02*
X121900001Y-66049999D01*
X121900001Y-65350001D01*
X123299999Y-65350001D01*
X123299999Y-66049999D01*
D12*
%TO.P,"C82","1"*%
X122920000Y-65700000D03*
D13*
%TO.P,"C82","2"*%
X122280000Y-65700000D03*
%TD*%
D10*
%TO.C,"C80"*%
%TO.CFtp,"C_0201_0603Metric"*%
%TO.CVal,"100nF"*%
%TO.CLbN,"Capacitor_SMD"*%
%TO.CMnt,SMD*%
%TO.CRot,90*%
X121000000Y-62500000D03*
D11*
X121349999Y-63199999D02*
X120650001Y-63199999D01*
X120650001Y-61800001D01*
X121349999Y-61800001D01*
X121349999Y-63199999D01*
D12*
%TO.P,"C80","1"*%
X121000000Y-62820000D03*
D13*
%TO.P,"C80","2"*%
X121000000Y-62180000D03*
%TD*%
D10*
%TO.C,"C78"*%
%TO.CFtp,"C_0201_0603Metric"*%
%TO.CVal,"100nF"*%
%TO.CLbN,"Capacitor_SMD"*%
%TO.CMnt,SMD*%
%TO.CRot,0*%
X122600000Y-59300000D03*
D11*
X123299999Y-59649999D02*
X121900001Y-59649999D01*
X121900001Y-58950001D01*
X123299999Y-58950001D01*
X123299999Y-59649999D01*
D12*
%TO.P,"C78","1"*%
X122280000Y-59300000D03*
D13*
%TO.P,"C78","2"*%
X122920000Y-59300000D03*
%TD*%
D10*
%TO.C,"C76"*%
%TO.CFtp,"C_0201_0603Metric"*%
%TO.CVal,"100nF"*%
%TO.CLbN,"Capacitor_SMD"*%
%TO.CMnt,SMD*%
%TO.CRot,90*%
X129000000Y-59300000D03*
D11*
X129349999Y-59999999D02*
X128650001Y-59999999D01*
X128650001Y-58600001D01*
X129349999Y-58600001D01*
X129349999Y-59999999D01*
D12*
%TO.P,"C76","1"*%
X129000000Y-59620000D03*
D13*
%TO.P,"C76","2"*%
X129000000Y-58980000D03*
%TD*%
D10*
%TO.C,"C75"*%
%TO.CFtp,"C_0201_0603Metric"*%
%TO.CVal,"100nF"*%
%TO.CLbN,"Capacitor_SMD"*%
%TO.CMnt,SMD*%
%TO.CRot,90*%
X128200000Y-62500000D03*
D11*
X128549999Y-63199999D02*
X127850001Y-63199999D01*
X127850001Y-61800001D01*
X128549999Y-61800001D01*
X128549999Y-63199999D01*
D12*
%TO.P,"C75","1"*%
X128200000Y-62820000D03*
D13*
%TO.P,"C75","2"*%
X128200000Y-62180000D03*
%TD*%
D10*
%TO.C,"C73"*%
%TO.CFtp,"C_0201_0603Metric"*%
%TO.CVal,"100nF"*%
%TO.CLbN,"Capacitor_SMD"*%
%TO.CMnt,SMD*%
%TO.CRot,-90*%
X121000000Y-64100000D03*
D11*
X121349999Y-64799999D02*
X120650001Y-64799999D01*
X120650001Y-63400001D01*
X121349999Y-63400001D01*
X121349999Y-64799999D01*
D12*
%TO.P,"C73","1"*%
X121000000Y-63780000D03*
D13*
%TO.P,"C73","2"*%
X121000000Y-64420000D03*
%TD*%
D10*
%TO.C,"C63"*%
%TO.CFtp,"C_0402_1005Metric"*%
%TO.CVal,"10uF"*%
%TO.CLbN,"Capacitor_SMD"*%
%TO.CMnt,SMD*%
%TO.CRot,90*%
X130700000Y-64900000D03*
D11*
X131159999Y-65809999D02*
X130240001Y-65809999D01*
X130240001Y-63990001D01*
X131159999Y-63990001D01*
X131159999Y-65809999D01*
D12*
%TO.P,"C63","1"*%
X130700000Y-65380000D03*
D13*
%TO.P,"C63","2"*%
X130700000Y-64420000D03*
%TD*%
D10*
%TO.C,"C2"*%
%TO.CFtp,"C_0201_0603Metric"*%
%TO.CVal,"220nF"*%
%TO.CLbN,"Capacitor_SMD"*%
%TO.CMnt,SMD*%
%TO.CRot,180*%
X140500000Y-65375000D03*
D11*
X141199999Y-65724999D02*
X139800001Y-65724999D01*
X139800001Y-65025001D01*
X141199999Y-65025001D01*
X141199999Y-65724999D01*
D12*
%TO.P,"C2","1"*%
X140820000Y-65375000D03*
D13*
%TO.P,"C2","2"*%
X140180000Y-65375000D03*
%TD*%
D10*
%TO.C,"C52"*%
%TO.CFtp,"C_0201_0603Metric"*%
%TO.CVal,"100nF"*%
%TO.CLbN,"Capacitor_SMD"*%
%TO.CMnt,SMD*%
%TO.CRot,180*%
X128600000Y-61300000D03*
D11*
X129299999Y-61649999D02*
X127900001Y-61649999D01*
X127900001Y-60950001D01*
X129299999Y-60950001D01*
X129299999Y-61649999D01*
D12*
%TO.P,"C52","1"*%
X128920000Y-61300000D03*
D13*
%TO.P,"C52","2"*%
X128280000Y-61300000D03*
%TD*%
D10*
%TO.C,"C61"*%
%TO.CFtp,"C_0201_0603Metric"*%
%TO.CVal,"1uF"*%
%TO.CLbN,"Capacitor_SMD"*%
%TO.CMnt,SMD*%
%TO.CRot,0*%
X124200000Y-65700000D03*
D11*
X124899999Y-66049999D02*
X123500001Y-66049999D01*
X123500001Y-65350001D01*
X124899999Y-65350001D01*
X124899999Y-66049999D01*
D12*
%TO.P,"C61","1"*%
X123880000Y-65700000D03*
D13*
%TO.P,"C61","2"*%
X124520000Y-65700000D03*
%TD*%
D10*
%TO.C,"C51"*%
%TO.CFtp,"C_0201_0603Metric"*%
%TO.CVal,"100nF"*%
%TO.CLbN,"Capacitor_SMD"*%
%TO.CMnt,SMD*%
%TO.CRot,-90*%
X129000000Y-66500000D03*
D11*
X129349999Y-67199999D02*
X128650001Y-67199999D01*
X128650001Y-65800001D01*
X129349999Y-65800001D01*
X129349999Y-67199999D01*
D12*
%TO.P,"C51","1"*%
X129000000Y-66180000D03*
D13*
%TO.P,"C51","2"*%
X129000000Y-66820000D03*
%TD*%
D10*
%TO.C,"C70"*%
%TO.CFtp,"C_0402_1005Metric"*%
%TO.CVal,"10uF"*%
%TO.CLbN,"Capacitor_SMD"*%
%TO.CMnt,SMD*%
%TO.CRot,180*%
X128120000Y-69700000D03*
D11*
X129029999Y-70159999D02*
X127210001Y-70159999D01*
X127210001Y-69240001D01*
X129029999Y-69240001D01*
X129029999Y-70159999D01*
D12*
%TO.P,"C70","1"*%
X128600000Y-69700000D03*
D13*
%TO.P,"C70","2"*%
X127640000Y-69700000D03*
%TD*%
D10*
%TO.C,"C60"*%
%TO.CFtp,"C_0402_1005Metric"*%
%TO.CVal,"10uF"*%
%TO.CLbN,"Capacitor_SMD"*%
%TO.CMnt,SMD*%
%TO.CRot,0*%
X124000000Y-66600000D03*
D11*
X124909999Y-67059999D02*
X123090001Y-67059999D01*
X123090001Y-66140001D01*
X124909999Y-66140001D01*
X124909999Y-67059999D01*
D12*
%TO.P,"C60","1"*%
X123520000Y-66600000D03*
D13*
%TO.P,"C60","2"*%
X124480000Y-66600000D03*
%TD*%
D10*
%TO.C,"C66"*%
%TO.CFtp,"C_0402_1005Metric"*%
%TO.CVal,"10uF"*%
%TO.CLbN,"Capacitor_SMD"*%
%TO.CMnt,SMD*%
%TO.CRot,0*%
X123720000Y-62500000D03*
D11*
X124629999Y-62959999D02*
X122810001Y-62959999D01*
X122810001Y-62040001D01*
X124629999Y-62040001D01*
X124629999Y-62959999D01*
D12*
%TO.P,"C66","1"*%
X123240000Y-62500000D03*
D13*
%TO.P,"C66","2"*%
X124200000Y-62500000D03*
%TD*%
D10*
%TO.C,"C53"*%
%TO.CFtp,"C_0201_0603Metric"*%
%TO.CVal,"100nF"*%
%TO.CLbN,"Capacitor_SMD"*%
%TO.CMnt,SMD*%
%TO.CRot,180*%
X128600000Y-60500000D03*
D11*
X129299999Y-60849999D02*
X127900001Y-60849999D01*
X127900001Y-60150001D01*
X129299999Y-60150001D01*
X129299999Y-60849999D01*
D12*
%TO.P,"C53","1"*%
X128920000Y-60500000D03*
D13*
%TO.P,"C53","2"*%
X128280000Y-60500000D03*
%TD*%
D10*
%TO.C,"C54"*%
%TO.CFtp,"C_0201_0603Metric"*%
%TO.CVal,"100nF"*%
%TO.CLbN,"Capacitor_SMD"*%
%TO.CMnt,SMD*%
%TO.CRot,180*%
X122600000Y-57700000D03*
D11*
X123299999Y-58049999D02*
X121900001Y-58049999D01*
X121900001Y-57350001D01*
X123299999Y-57350001D01*
X123299999Y-58049999D01*
D12*
%TO.P,"C54","1"*%
X122920000Y-57700000D03*
D13*
%TO.P,"C54","2"*%
X122280000Y-57700000D03*
%TD*%
D10*
%TO.C,"C79"*%
%TO.CFtp,"C_0201_0603Metric"*%
%TO.CVal,"100nF"*%
%TO.CLbN,"Capacitor_SMD"*%
%TO.CMnt,SMD*%
%TO.CRot,90*%
X121000000Y-59300000D03*
D11*
X121349999Y-59999999D02*
X120650001Y-59999999D01*
X120650001Y-58600001D01*
X121349999Y-58600001D01*
X121349999Y-59999999D01*
D12*
%TO.P,"C79","1"*%
X121000000Y-59620000D03*
D13*
%TO.P,"C79","2"*%
X121000000Y-58980000D03*
%TD*%
D10*
%TO.C,"C72"*%
%TO.CFtp,"C_0201_0603Metric"*%
%TO.CVal,"100nF"*%
%TO.CLbN,"Capacitor_SMD"*%
%TO.CMnt,SMD*%
%TO.CRot,90*%
X121000000Y-60900000D03*
D11*
X121349999Y-61599999D02*
X120650001Y-61599999D01*
X120650001Y-60200001D01*
X121349999Y-60200001D01*
X121349999Y-61599999D01*
D12*
%TO.P,"C72","1"*%
X121000000Y-61220000D03*
D13*
%TO.P,"C72","2"*%
X121000000Y-60580000D03*
%TD*%
D10*
%TO.C,"R6"*%
%TO.CFtp,"R_0201_0603Metric"*%
%TO.CVal,"120"*%
%TO.CLbN,"Resistor_SMD"*%
%TO.CMnt,SMD*%
%TO.CRot,0*%
X141900000Y-65375000D03*
D11*
X142599999Y-65724999D02*
X141200001Y-65724999D01*
X141200001Y-65025001D01*
X142599999Y-65025001D01*
X142599999Y-65724999D01*
D12*
%TO.P,"R6","1"*%
X141580000Y-65375000D03*
D13*
%TO.P,"R6","2"*%
X142220000Y-65375000D03*
%TD*%
D10*
%TO.C,"R16"*%
%TO.CFtp,"R_0201_0603Metric"*%
%TO.CVal,"10k"*%
%TO.CLbN,"Resistor_SMD"*%
%TO.CMnt,SMD*%
%TO.CRot,-90*%
X134000000Y-54850000D03*
D11*
X134349999Y-55549999D02*
X133650001Y-55549999D01*
X133650001Y-54150001D01*
X134349999Y-54150001D01*
X134349999Y-55549999D01*
D12*
%TO.P,"R16","1"*%
X134000000Y-54530000D03*
D13*
%TO.P,"R16","2"*%
X134000000Y-55170000D03*
%TD*%
D10*
%TO.C,"R24"*%
%TO.CFtp,"R_0402_1005Metric"*%
%TO.CVal,"100k"*%
%TO.CLbN,"Resistor_SMD"*%
%TO.CMnt,SMD*%
%TO.CRot,-90*%
X148100000Y-92200000D03*
D11*
X148569999Y-93129999D02*
X147630001Y-93129999D01*
X147630001Y-91270001D01*
X148569999Y-91270001D01*
X148569999Y-93129999D01*
D12*
%TO.P,"R24","1"*%
X148100000Y-91690000D03*
D13*
%TO.P,"R24","2"*%
X148100000Y-92710000D03*
%TD*%
D10*
%TO.C,"U8"*%
%TO.CFtp,"WSON-6_1.5x1.5mm_P0.5mm"*%
%TO.CVal,"TPS3703-1.2"*%
%TO.CLbN,"Package_SON"*%
%TO.CMnt,SMD*%
%TO.CRot,0*%
X124600000Y-56900000D03*
D11*
X125799999Y-57919999D02*
X123400001Y-57919999D01*
X123400001Y-55880001D01*
X125799999Y-55880001D01*
X125799999Y-57919999D01*
D12*
%TO.P,"U8","1","SENSE"*%
X124075000Y-57400000D03*
D13*
%TO.P,"U8","2","VDD"*%
X124025000Y-56900000D03*
%TO.P,"U8","3","CT"*%
X124025000Y-56400000D03*
%TO.P,"U8","4","~{RESETn}"*%
X125175000Y-56400000D03*
%TO.P,"U8","5","GND"*%
X125175000Y-56900000D03*
%TO.P,"U8","6","~{MR}"*%
X125175000Y-57400000D03*
%TD*%
D10*
%TO.C,"C13"*%
%TO.CFtp,"C_0201_0603Metric"*%
%TO.CVal,"100nF"*%
%TO.CLbN,"Capacitor_SMD"*%
%TO.CMnt,SMD*%
%TO.CRot,90*%
X134000000Y-56250000D03*
D11*
X134349999Y-56949999D02*
X133650001Y-56949999D01*
X133650001Y-55550001D01*
X134349999Y-55550001D01*
X134349999Y-56949999D01*
D12*
%TO.P,"C13","1"*%
X134000000Y-56570000D03*
D13*
%TO.P,"C13","2"*%
X134000000Y-55930000D03*
%TD*%
D10*
%TO.C,"U17"*%
%TO.CFtp,"TSOT-23-8"*%
%TO.CVal,"TCAN330G"*%
%TO.CLbN,"Package_TO_SOT_SMD"*%
%TO.CMnt,SMD*%
%TO.CRot,-90*%
X117875000Y-73400000D03*
D11*
X119574999Y-75449999D02*
X116175001Y-75449999D01*
X116175001Y-71350001D01*
X119574999Y-71350001D01*
X119574999Y-75449999D01*
D12*
%TO.P,"U17","1","TXD"*%
X116900000Y-72262500D03*
D13*
%TO.P,"U17","2","GND"*%
X117550000Y-72262500D03*
%TO.P,"U17","3","VCC"*%
X118200000Y-72262500D03*
%TO.P,"U17","4","RXD"*%
X118850000Y-72262500D03*
%TO.P,"U17","5","SHDN"*%
X118850000Y-74537500D03*
%TO.P,"U17","6","CANL"*%
X118200000Y-74537500D03*
%TO.P,"U17","7","CANH"*%
X117550000Y-74537500D03*
%TO.P,"U17","8","S"*%
X116900000Y-74537500D03*
%TD*%
D10*
%TO.C,"C15"*%
%TO.CFtp,"C_2220_5650Metric"*%
%TO.CVal,"22uF"*%
%TO.CLbN,"Capacitor_SMD"*%
%TO.CMnt,SMD*%
%TO.CRot,90*%
X103500000Y-83800000D03*
D11*
X106449999Y-87499999D02*
X100550001Y-87499999D01*
X100550001Y-80100001D01*
X106449999Y-80100001D01*
X106449999Y-87499999D01*
D12*
%TO.P,"C15","1"*%
X103500000Y-86350000D03*
D13*
%TO.P,"C15","2"*%
X103500000Y-81250000D03*
%TD*%
D10*
%TO.C,"C16"*%
%TO.CFtp,"C_2220_5650Metric"*%
%TO.CVal,"22uF"*%
%TO.CLbN,"Capacitor_SMD"*%
%TO.CMnt,SMD*%
%TO.CRot,90*%
X110200000Y-83800000D03*
D11*
X113149999Y-87499999D02*
X107250001Y-87499999D01*
X107250001Y-80100001D01*
X113149999Y-80100001D01*
X113149999Y-87499999D01*
D12*
%TO.P,"C16","1"*%
X110200000Y-86350000D03*
D13*
%TO.P,"C16","2"*%
X110200000Y-81250000D03*
%TD*%
D10*
%TO.C,"C1"*%
%TO.CFtp,"C_0201_0603Metric"*%
%TO.CVal,"220nF"*%
%TO.CLbN,"Capacitor_SMD"*%
%TO.CMnt,SMD*%
%TO.CRot,180*%
X140500000Y-66625000D03*
D11*
X141199999Y-66974999D02*
X139800001Y-66974999D01*
X139800001Y-66275001D01*
X141199999Y-66275001D01*
X141199999Y-66974999D01*
D12*
%TO.P,"C1","1"*%
X140820000Y-66625000D03*
D13*
%TO.P,"C1","2"*%
X140180000Y-66625000D03*
%TD*%
D10*
%TO.C,"R11"*%
%TO.CFtp,"R_0201_0603Metric"*%
%TO.CVal,"1k"*%
%TO.CLbN,"Resistor_SMD"*%
%TO.CMnt,SMD*%
%TO.CRot,90*%
X123500000Y-74400000D03*
D11*
X123849999Y-75099999D02*
X123150001Y-75099999D01*
X123150001Y-73700001D01*
X123849999Y-73700001D01*
X123849999Y-75099999D01*
D12*
%TO.P,"R11","1"*%
X123500000Y-74720000D03*
D13*
%TO.P,"R11","2"*%
X123500000Y-74080000D03*
%TD*%
D10*
%TO.C,"R9"*%
%TO.CFtp,"R_0201_0603Metric"*%
%TO.CVal,"1k"*%
%TO.CLbN,"Resistor_SMD"*%
%TO.CMnt,SMD*%
%TO.CRot,90*%
X125500000Y-74400000D03*
D11*
X125849999Y-75099999D02*
X125150001Y-75099999D01*
X125150001Y-73700001D01*
X125849999Y-73700001D01*
X125849999Y-75099999D01*
D12*
%TO.P,"R9","1"*%
X125500000Y-74720000D03*
D13*
%TO.P,"R9","2"*%
X125500000Y-74080000D03*
%TD*%
D10*
%TO.C,"R12"*%
%TO.CFtp,"R_0201_0603Metric"*%
%TO.CVal,"1k"*%
%TO.CLbN,"Resistor_SMD"*%
%TO.CMnt,SMD*%
%TO.CRot,90*%
X122500000Y-74400000D03*
D11*
X122849999Y-75099999D02*
X122150001Y-75099999D01*
X122150001Y-73700001D01*
X122849999Y-73700001D01*
X122849999Y-75099999D01*
D12*
%TO.P,"R12","1"*%
X122500000Y-74720000D03*
D13*
%TO.P,"R12","2"*%
X122500000Y-74080000D03*
%TD*%
D10*
%TO.C,"C10"*%
%TO.CFtp,"C_0201_0603Metric"*%
%TO.CVal,"1.8nF"*%
%TO.CLbN,"Capacitor_SMD"*%
%TO.CMnt,SMD*%
%TO.CRot,90*%
X123500000Y-72500000D03*
D11*
X123849999Y-73199999D02*
X123150001Y-73199999D01*
X123150001Y-71800001D01*
X123849999Y-71800001D01*
X123849999Y-73199999D01*
D12*
%TO.P,"C10","1"*%
X123500000Y-72820000D03*
D13*
%TO.P,"C10","2"*%
X123500000Y-72180000D03*
%TD*%
D10*
%TO.C,"C6"*%
%TO.CFtp,"C_0201_0603Metric"*%
%TO.CVal,"1.8nF"*%
%TO.CLbN,"Capacitor_SMD"*%
%TO.CMnt,SMD*%
%TO.CRot,90*%
X125500000Y-72500000D03*
D11*
X125849999Y-73199999D02*
X125150001Y-73199999D01*
X125150001Y-71800001D01*
X125849999Y-71800001D01*
X125849999Y-73199999D01*
D12*
%TO.P,"C6","1"*%
X125500000Y-72820000D03*
D13*
%TO.P,"C6","2"*%
X125500000Y-72180000D03*
%TD*%
D10*
%TO.C,"C11"*%
%TO.CFtp,"C_0201_0603Metric"*%
%TO.CVal,"1.8nF"*%
%TO.CLbN,"Capacitor_SMD"*%
%TO.CMnt,SMD*%
%TO.CRot,90*%
X122500000Y-72500000D03*
D11*
X122849999Y-73199999D02*
X122150001Y-73199999D01*
X122150001Y-71800001D01*
X122849999Y-71800001D01*
X122849999Y-73199999D01*
D12*
%TO.P,"C11","1"*%
X122500000Y-72820000D03*
D13*
%TO.P,"C11","2"*%
X122500000Y-72180000D03*
%TD*%
D10*
%TO.C,"R10"*%
%TO.CFtp,"R_0201_0603Metric"*%
%TO.CVal,"1k"*%
%TO.CLbN,"Resistor_SMD"*%
%TO.CMnt,SMD*%
%TO.CRot,90*%
X124500000Y-74400000D03*
D11*
X124849999Y-75099999D02*
X124150001Y-75099999D01*
X124150001Y-73700001D01*
X124849999Y-73700001D01*
X124849999Y-75099999D01*
D12*
%TO.P,"R10","1"*%
X124500000Y-74720000D03*
D13*
%TO.P,"R10","2"*%
X124500000Y-74080000D03*
%TD*%
D10*
%TO.C,"C5"*%
%TO.CFtp,"C_0201_0603Metric"*%
%TO.CVal,"1.8nF"*%
%TO.CLbN,"Capacitor_SMD"*%
%TO.CMnt,SMD*%
%TO.CRot,90*%
X126500000Y-72500000D03*
D11*
X126849999Y-73199999D02*
X126150001Y-73199999D01*
X126150001Y-71800001D01*
X126849999Y-71800001D01*
X126849999Y-73199999D01*
D12*
%TO.P,"C5","1"*%
X126500000Y-72820000D03*
D13*
%TO.P,"C5","2"*%
X126500000Y-72180000D03*
%TD*%
D10*
%TO.C,"C9"*%
%TO.CFtp,"C_0201_0603Metric"*%
%TO.CVal,"1.8nF"*%
%TO.CLbN,"Capacitor_SMD"*%
%TO.CMnt,SMD*%
%TO.CRot,90*%
X124500000Y-72500000D03*
D11*
X124849999Y-73199999D02*
X124150001Y-73199999D01*
X124150001Y-71800001D01*
X124849999Y-71800001D01*
X124849999Y-73199999D01*
D12*
%TO.P,"C9","1"*%
X124500000Y-72820000D03*
D13*
%TO.P,"C9","2"*%
X124500000Y-72180000D03*
%TD*%
D10*
%TO.C,"C4"*%
%TO.CFtp,"C_0201_0603Metric"*%
%TO.CVal,"1.8nF"*%
%TO.CLbN,"Capacitor_SMD"*%
%TO.CMnt,SMD*%
%TO.CRot,90*%
X127500000Y-72500000D03*
D11*
X127849999Y-73199999D02*
X127150001Y-73199999D01*
X127150001Y-71800001D01*
X127849999Y-71800001D01*
X127849999Y-73199999D01*
D12*
%TO.P,"C4","1"*%
X127500000Y-72820000D03*
D13*
%TO.P,"C4","2"*%
X127500000Y-72180000D03*
%TD*%
D10*
%TO.C,"C64"*%
%TO.CFtp,"C_0201_0603Metric"*%
%TO.CVal,"1uF"*%
%TO.CLbN,"Capacitor_SMD"*%
%TO.CMnt,SMD*%
%TO.CRot,90*%
X129800000Y-64900000D03*
D11*
X130149999Y-65599999D02*
X129450001Y-65599999D01*
X129450001Y-64200001D01*
X130149999Y-64200001D01*
X130149999Y-65599999D01*
D12*
%TO.P,"C64","1"*%
X129800000Y-65220000D03*
D13*
%TO.P,"C64","2"*%
X129800000Y-64580000D03*
%TD*%
D10*
%TO.C,"C21"*%
%TO.CFtp,"C_0201_0603Metric"*%
%TO.CVal,"100nF"*%
%TO.CLbN,"Capacitor_SMD"*%
%TO.CMnt,SMD*%
%TO.CRot,180*%
X127400000Y-58500000D03*
D11*
X128099999Y-58849999D02*
X126700001Y-58849999D01*
X126700001Y-58150001D01*
X128099999Y-58150001D01*
X128099999Y-58849999D01*
D12*
%TO.P,"C21","1"*%
X127720000Y-58500000D03*
D13*
%TO.P,"C21","2"*%
X127080000Y-58500000D03*
%TD*%
D10*
%TO.C,"U7"*%
%TO.CFtp,"WSON-6_1.5x1.5mm_P0.5mm"*%
%TO.CVal,"TPS3703-3.3"*%
%TO.CLbN,"Package_SON"*%
%TO.CMnt,SMD*%
%TO.CRot,90*%
X128200000Y-56500000D03*
D11*
X129219999Y-57699999D02*
X127180001Y-57699999D01*
X127180001Y-55300001D01*
X129219999Y-55300001D01*
X129219999Y-57699999D01*
D12*
%TO.P,"U7","1","SENSE"*%
X128700000Y-57025000D03*
D13*
%TO.P,"U7","2","VDD"*%
X128200000Y-57075000D03*
%TO.P,"U7","3","CT"*%
X127700000Y-57075000D03*
%TO.P,"U7","4","~{RESETn}"*%
X127700000Y-55925000D03*
%TO.P,"U7","5","GND"*%
X128200000Y-55925000D03*
%TO.P,"U7","6","~{MR}"*%
X128700000Y-55925000D03*
%TD*%
D10*
%TO.C,"C17"*%
%TO.CFtp,"C_2220_5650Metric"*%
%TO.CVal,"22uF"*%
%TO.CLbN,"Capacitor_SMD"*%
%TO.CMnt,SMD*%
%TO.CRot,90*%
X139900000Y-83800000D03*
D11*
X142849999Y-87499999D02*
X136950001Y-87499999D01*
X136950001Y-80100001D01*
X142849999Y-80100001D01*
X142849999Y-87499999D01*
D12*
%TO.P,"C17","1"*%
X139900000Y-86350000D03*
D13*
%TO.P,"C17","2"*%
X139900000Y-81250000D03*
%TD*%
D10*
%TO.C,"C88"*%
%TO.CFtp,"C_0201_0603Metric"*%
%TO.CVal,"100nF"*%
%TO.CLbN,"Capacitor_SMD"*%
%TO.CMnt,SMD*%
%TO.CRot,90*%
X117400000Y-62900000D03*
D11*
X117749999Y-63599999D02*
X117050001Y-63599999D01*
X117050001Y-62200001D01*
X117749999Y-62200001D01*
X117749999Y-63599999D01*
D12*
%TO.P,"C88","1"*%
X117400000Y-63220000D03*
D13*
%TO.P,"C88","2"*%
X117400000Y-62580000D03*
%TD*%
D10*
%TO.C,"C87"*%
%TO.CFtp,"C_0201_0603Metric"*%
%TO.CVal,"100nF"*%
%TO.CLbN,"Capacitor_SMD"*%
%TO.CMnt,SMD*%
%TO.CRot,180*%
X125800000Y-59300000D03*
D11*
X126499999Y-59649999D02*
X125100001Y-59649999D01*
X125100001Y-58950001D01*
X126499999Y-58950001D01*
X126499999Y-59649999D01*
D12*
%TO.P,"C87","1"*%
X126120000Y-59300000D03*
D13*
%TO.P,"C87","2"*%
X125480000Y-59300000D03*
%TD*%
D10*
%TO.C,"C67"*%
%TO.CFtp,"C_0201_0603Metric"*%
%TO.CVal,"1uF"*%
%TO.CLbN,"Capacitor_SMD"*%
%TO.CMnt,SMD*%
%TO.CRot,0*%
X124200000Y-59300000D03*
D11*
X124899999Y-59649999D02*
X123500001Y-59649999D01*
X123500001Y-58950001D01*
X124899999Y-58950001D01*
X124899999Y-59649999D01*
D12*
%TO.P,"C67","1"*%
X123880000Y-59300000D03*
D13*
%TO.P,"C67","2"*%
X124520000Y-59300000D03*
%TD*%
D10*
%TO.C,"C22"*%
%TO.CFtp,"C_0201_0603Metric"*%
%TO.CVal,"100nF"*%
%TO.CLbN,"Capacitor_SMD"*%
%TO.CMnt,SMD*%
%TO.CRot,180*%
X122600000Y-56100000D03*
D11*
X123299999Y-56449999D02*
X121900001Y-56449999D01*
X121900001Y-55750001D01*
X123299999Y-55750001D01*
X123299999Y-56449999D01*
D12*
%TO.P,"C22","1"*%
X122920000Y-56100000D03*
D13*
%TO.P,"C22","2"*%
X122280000Y-56100000D03*
%TD*%
D10*
%TO.C,"R14"*%
%TO.CFtp,"R_0201_0603Metric"*%
%TO.CVal,"10k"*%
%TO.CLbN,"Resistor_SMD"*%
%TO.CMnt,SMD*%
%TO.CRot,90*%
X134000000Y-59050000D03*
D11*
X134349999Y-59749999D02*
X133650001Y-59749999D01*
X133650001Y-58350001D01*
X134349999Y-58350001D01*
X134349999Y-59749999D01*
D12*
%TO.P,"R14","1"*%
X134000000Y-59370000D03*
D13*
%TO.P,"R14","2"*%
X134000000Y-58730000D03*
%TD*%
D10*
%TO.C,"C34"*%
%TO.CFtp,"C_0201_0603Metric"*%
%TO.CVal,"1.8nF"*%
%TO.CLbN,"Capacitor_SMD"*%
%TO.CMnt,SMD*%
%TO.CRot,90*%
X132300000Y-68980000D03*
D11*
X132649999Y-69679999D02*
X131950001Y-69679999D01*
X131950001Y-68280001D01*
X132649999Y-68280001D01*
X132649999Y-69679999D01*
D12*
%TO.P,"C34","1"*%
X132300000Y-69300000D03*
D13*
%TO.P,"C34","2"*%
X132300000Y-68660000D03*
%TD*%
D10*
%TO.C,"C33"*%
%TO.CFtp,"C_0201_0603Metric"*%
%TO.CVal,"1.8nF"*%
%TO.CLbN,"Capacitor_SMD"*%
%TO.CMnt,SMD*%
%TO.CRot,180*%
X127480000Y-67900000D03*
D11*
X128179999Y-68249999D02*
X126780001Y-68249999D01*
X126780001Y-67550001D01*
X128179999Y-67550001D01*
X128179999Y-68249999D01*
D12*
%TO.P,"C33","1"*%
X127800000Y-67900000D03*
D13*
%TO.P,"C33","2"*%
X127160000Y-67900000D03*
%TD*%
D10*
%TO.C,"R67"*%
%TO.CFtp,"R_0201_0603Metric"*%
%TO.CVal,"10"*%
%TO.CLbN,"Resistor_SMD"*%
%TO.CMnt,SMD*%
%TO.CRot,0*%
X112570000Y-58200000D03*
D11*
X113269999Y-58549999D02*
X111870001Y-58549999D01*
X111870001Y-57850001D01*
X113269999Y-57850001D01*
X113269999Y-58549999D01*
D12*
%TO.P,"R67","1"*%
X112250000Y-58200000D03*
D13*
%TO.P,"R67","2"*%
X112890000Y-58200000D03*
%TD*%
D10*
%TO.C,"U4"*%
%TO.CFtp,"TSSOP-16_4.4x5mm_P0.65mm"*%
%TO.CVal,"DSLVDS1047"*%
%TO.CLbN,"Package_SO"*%
%TO.CMnt,SMD*%
%TO.CRot,0*%
X138600000Y-56600000D03*
D11*
X142449999Y-59349999D02*
X134750001Y-59349999D01*
X134750001Y-53850001D01*
X142449999Y-53850001D01*
X142449999Y-59349999D01*
D12*
%TO.P,"U4","1","EN"*%
X135737500Y-58875000D03*
D13*
%TO.P,"U4","2","DIN1"*%
X135737500Y-58225000D03*
%TO.P,"U4","3","DIN2"*%
X135737500Y-57575000D03*
%TO.P,"U4","4","VCC"*%
X135737500Y-56925000D03*
%TO.P,"U4","5","GND"*%
X135737500Y-56275000D03*
%TO.P,"U4","6","DIN3"*%
X135737500Y-55625000D03*
%TO.P,"U4","7","DIN4"*%
X135737500Y-54975000D03*
%TO.P,"U4","8","~{EN_n}"*%
X135737500Y-54325000D03*
%TO.P,"U4","9","DOUT4-"*%
X141462500Y-54325000D03*
%TO.P,"U4","10","DOUT4+"*%
X141462500Y-54975000D03*
%TO.P,"U4","11","DOUT3+"*%
X141462500Y-55625000D03*
%TO.P,"U4","12","DOUT3-"*%
X141462500Y-56275000D03*
%TO.P,"U4","13","DOUT2-"*%
X141462500Y-56925000D03*
%TO.P,"U4","14","DOUT2+"*%
X141462500Y-57575000D03*
%TO.P,"U4","15","DOUT1+"*%
X141462500Y-58225000D03*
%TO.P,"U4","16","DOUT1-"*%
X141462500Y-58875000D03*
%TD*%
D10*
%TO.C,"R15"*%
%TO.CFtp,"R_0201_0603Metric"*%
%TO.CVal,"10k"*%
%TO.CLbN,"Resistor_SMD"*%
%TO.CMnt,SMD*%
%TO.CRot,-90*%
X134000000Y-57650000D03*
D11*
X134349999Y-58349999D02*
X133650001Y-58349999D01*
X133650001Y-56950001D01*
X134349999Y-56950001D01*
X134349999Y-58349999D01*
D12*
%TO.P,"R15","1"*%
X134000000Y-57330000D03*
D13*
%TO.P,"R15","2"*%
X134000000Y-57970000D03*
%TD*%
D10*
%TO.C,"R5"*%
%TO.CFtp,"R_0201_0603Metric"*%
%TO.CVal,"120"*%
%TO.CLbN,"Resistor_SMD"*%
%TO.CMnt,SMD*%
%TO.CRot,0*%
X141900000Y-66625000D03*
D11*
X142599999Y-66974999D02*
X141200001Y-66974999D01*
X141200001Y-66275001D01*
X142599999Y-66275001D01*
X142599999Y-66974999D01*
D12*
%TO.P,"R5","1"*%
X141580000Y-66625000D03*
D13*
%TO.P,"R5","2"*%
X142220000Y-66625000D03*
%TD*%
D10*
%TO.C,"J1"*%
%TO.CFtp,"Hirose_DF13_04P-1.25H_1x05_P1.25mm_Right_angle"*%
%TO.CVal,"conn_01x04_MountingPins"*%
%TO.CLbN,"udriver3"*%
%TO.CMnt,SMD*%
%TO.CRot,90*%
X147000000Y-66000000D03*
D11*
X149799999Y-71099999D02*
X142700001Y-71099999D01*
X142700001Y-60900001D01*
X149799999Y-60900001D01*
X149799999Y-71099999D01*
D12*
%TO.P,"J1","1","Pin_1"*%
X143700000Y-67875000D03*
D13*
%TO.P,"J1","2","Pin_2"*%
X143700000Y-66625000D03*
%TO.P,"J1","3","Pin_3"*%
X143700000Y-65375000D03*
%TO.P,"J1","4","Pin_4"*%
X143700000Y-64125000D03*
%TO.P,"J1","MP1","MountPin1"*%
X147000000Y-70225000D03*
%TO.P,"J1","MP2","MountPin2"*%
X147000000Y-61775000D03*
%TD*%
D10*
%TO.C,"J14"*%
%TO.CFtp,"Hirose_DF13_05P-1.25H_1x05_P1.25mm_Right_angle"*%
%TO.CVal,"conn_01x05_MountingPins"*%
%TO.CLbN,"udriver3"*%
%TO.CMnt,SMD*%
%TO.CRot,180*%
X111000000Y-53000000D03*
D11*
X116999999Y-57299999D02*
X105000001Y-57299999D01*
X105000001Y-50200001D01*
X116999999Y-50200001D01*
X116999999Y-57299999D01*
D12*
%TO.P,"J14","1","Pin_1"*%
X113500000Y-56300000D03*
D13*
%TO.P,"J14","2","Pin_2"*%
X112250000Y-56300000D03*
%TO.P,"J14","3","Pin_3"*%
X111000000Y-56300000D03*
%TO.P,"J14","4","Pin_4"*%
X109750000Y-56300000D03*
%TO.P,"J14","5","Pin_5"*%
X108500000Y-56300000D03*
%TO.P,"J14","MP1","MountPin1"*%
X115850000Y-53000000D03*
%TO.P,"J14","MP2","MountPin2"*%
X106150000Y-53000000D03*
%TD*%
D10*
%TO.C,"J2"*%
%TO.CFtp,"Hirose_DF13_05P-1.25H_1x05_P1.25mm_Right_angle"*%
%TO.CVal,"conn_01x05_MountingPins"*%
%TO.CLbN,"udriver3"*%
%TO.CMnt,SMD*%
%TO.CRot,0*%
X138300000Y-97250000D03*
D11*
X144299999Y-100049999D02*
X132300001Y-100049999D01*
X132300001Y-92950001D01*
X144299999Y-92950001D01*
X144299999Y-100049999D01*
D12*
%TO.P,"J2","1","Pin_1"*%
X135800000Y-93950000D03*
D13*
%TO.P,"J2","2","Pin_2"*%
X137050000Y-93950000D03*
%TO.P,"J2","3","Pin_3"*%
X138300000Y-93950000D03*
%TO.P,"J2","4","Pin_4"*%
X139550000Y-93950000D03*
%TO.P,"J2","5","Pin_5"*%
X140800000Y-93950000D03*
%TO.P,"J2","MP1","MountPin1"*%
X133450000Y-97250000D03*
%TO.P,"J2","MP2","MountPin2"*%
X143150000Y-97250000D03*
%TD*%
D10*
%TO.C,"J3"*%
%TO.CFtp,"Hirose_DF13_05P-1.25H_1x05_P1.25mm_Right_angle"*%
%TO.CVal,"conn_01x05_MountingPins"*%
%TO.CLbN,"udriver3"*%
%TO.CMnt,SMD*%
%TO.CRot,0*%
X111700000Y-97250000D03*
D11*
X117699999Y-100049999D02*
X105700001Y-100049999D01*
X105700001Y-92950001D01*
X117699999Y-92950001D01*
X117699999Y-100049999D01*
D12*
%TO.P,"J3","1","Pin_1"*%
X109200000Y-93950000D03*
D13*
%TO.P,"J3","2","Pin_2"*%
X110450000Y-93950000D03*
%TO.P,"J3","3","Pin_3"*%
X111700000Y-93950000D03*
%TO.P,"J3","4","Pin_4"*%
X112950000Y-93950000D03*
%TO.P,"J3","5","Pin_5"*%
X114200000Y-93950000D03*
%TO.P,"J3","MP1","MountPin1"*%
X106850000Y-97250000D03*
%TO.P,"J3","MP2","MountPin2"*%
X116550000Y-97250000D03*
%TD*%
D10*
%TO.C,"J4"*%
%TO.CFtp,"Molex_FBH1_1x08-2MP_P0.50mm_Horizontal"*%
%TO.CVal,"conn_01x08_MountingPins"*%
%TO.CLbN,"udriver3"*%
%TO.CMnt,SMD*%
%TO.CRot,-90*%
X149800000Y-57750000D03*
D11*
X149849999Y-60749999D02*
X146050001Y-60749999D01*
X146050001Y-54750001D01*
X149849999Y-54750001D01*
X149849999Y-60749999D01*
D12*
%TO.P,"J4","1","Pin_1"*%
X146500000Y-56000000D03*
D13*
%TO.P,"J4","2","Pin_2"*%
X146500000Y-56500000D03*
%TO.P,"J4","3","Pin_3"*%
X146500000Y-57000000D03*
%TO.P,"J4","4","Pin_4"*%
X146500000Y-57500000D03*
%TO.P,"J4","5","Pin_5"*%
X146500000Y-58000000D03*
%TO.P,"J4","6","Pin_6"*%
X146500000Y-58500000D03*
%TO.P,"J4","7","Pin_7"*%
X146500000Y-59000000D03*
%TO.P,"J4","8","Pin_8"*%
X146500000Y-59500000D03*
%TO.P,"J4","MP1","MountPin1"*%
X149150000Y-55210000D03*
%TO.P,"J4","MP2","MountPin2"*%
X149150000Y-60290000D03*
%TD*%
D10*
%TO.C,"C46"*%
%TO.CFtp,"C_0201_0603Metric"*%
%TO.CVal,"1.8nF"*%
%TO.CLbN,"Capacitor_SMD"*%
%TO.CMnt,SMD*%
%TO.CRot,180*%
X129080000Y-67900000D03*
D11*
X129779999Y-68249999D02*
X128380001Y-68249999D01*
X128380001Y-67550001D01*
X129779999Y-67550001D01*
X129779999Y-68249999D01*
D12*
%TO.P,"C46","1"*%
X129400000Y-67900000D03*
D13*
%TO.P,"C46","2"*%
X128760000Y-67900000D03*
%TD*%
D10*
%TO.C,"R7"*%
%TO.CFtp,"R_0201_0603Metric"*%
%TO.CVal,"1k"*%
%TO.CLbN,"Resistor_SMD"*%
%TO.CMnt,SMD*%
%TO.CRot,90*%
X127500000Y-74400000D03*
D11*
X127849999Y-75099999D02*
X127150001Y-75099999D01*
X127150001Y-73700001D01*
X127849999Y-73700001D01*
X127849999Y-75099999D01*
D12*
%TO.P,"R7","1"*%
X127500000Y-74720000D03*
D13*
%TO.P,"R7","2"*%
X127500000Y-74080000D03*
%TD*%
D10*
%TO.C,"C19"*%
%TO.CFtp,"C_0201_0603Metric"*%
%TO.CVal,"100nF"*%
%TO.CLbN,"Capacitor_SMD"*%
%TO.CMnt,SMD*%
%TO.CRot,-90*%
X130400000Y-68200000D03*
D11*
X130749999Y-68899999D02*
X130050001Y-68899999D01*
X130050001Y-67500001D01*
X130749999Y-67500001D01*
X130749999Y-68899999D01*
D12*
%TO.P,"C19","1"*%
X130400000Y-67880000D03*
D13*
%TO.P,"C19","2"*%
X130400000Y-68520000D03*
%TD*%
D10*
%TO.C,"C71"*%
%TO.CFtp,"C_0201_0603Metric"*%
%TO.CVal,"1uF"*%
%TO.CLbN,"Capacitor_SMD"*%
%TO.CMnt,SMD*%
%TO.CRot,90*%
X132200000Y-66500000D03*
D11*
X132549999Y-67199999D02*
X131850001Y-67199999D01*
X131850001Y-65800001D01*
X132549999Y-65800001D01*
X132549999Y-67199999D01*
D12*
%TO.P,"C71","1"*%
X132200000Y-66820000D03*
D13*
%TO.P,"C71","2"*%
X132200000Y-66180000D03*
%TD*%
D10*
%TO.C,"R55"*%
%TO.CFtp,"R_0201_0603Metric"*%
%TO.CVal,"120"*%
%TO.CLbN,"Resistor_SMD"*%
%TO.CMnt,SMD*%
%TO.CRot,0*%
X125800000Y-65700000D03*
D11*
X126499999Y-66049999D02*
X125100001Y-66049999D01*
X125100001Y-65350001D01*
X126499999Y-65350001D01*
X126499999Y-66049999D01*
D12*
%TO.P,"R55","1"*%
X125480000Y-65700000D03*
D13*
%TO.P,"R55","2"*%
X126120000Y-65700000D03*
%TD*%
D10*
%TO.C,"C48"*%
%TO.CFtp,"C_0201_0603Metric"*%
%TO.CVal,"1.8nF"*%
%TO.CLbN,"Capacitor_SMD"*%
%TO.CMnt,SMD*%
%TO.CRot,0*%
X131320000Y-70700000D03*
D11*
X132019999Y-71049999D02*
X130620001Y-71049999D01*
X130620001Y-70350001D01*
X132019999Y-70350001D01*
X132019999Y-71049999D01*
D12*
%TO.P,"C48","1"*%
X131000000Y-70700000D03*
D13*
%TO.P,"C48","2"*%
X131640000Y-70700000D03*
%TD*%
D10*
%TO.C,"C55"*%
%TO.CFtp,"C_0201_0603Metric"*%
%TO.CVal,"100nF"*%
%TO.CLbN,"Capacitor_SMD"*%
%TO.CMnt,SMD*%
%TO.CRot,180*%
X122600000Y-56900000D03*
D11*
X123299999Y-57249999D02*
X121900001Y-57249999D01*
X121900001Y-56550001D01*
X123299999Y-56550001D01*
X123299999Y-57249999D01*
D12*
%TO.P,"C55","1"*%
X122920000Y-56900000D03*
D13*
%TO.P,"C55","2"*%
X122280000Y-56900000D03*
%TD*%
D10*
%TO.C,"R25"*%
%TO.CFtp,"R_0402_1005Metric"*%
%TO.CVal,"5.1k"*%
%TO.CLbN,"Resistor_SMD"*%
%TO.CMnt,SMD*%
%TO.CRot,0*%
X148610000Y-93950000D03*
D11*
X149539999Y-94419999D02*
X147680001Y-94419999D01*
X147680001Y-93480001D01*
X149539999Y-93480001D01*
X149539999Y-94419999D01*
D12*
%TO.P,"R25","1"*%
X148100000Y-93950000D03*
D13*
%TO.P,"R25","2"*%
X149120000Y-93950000D03*
%TD*%
D10*
%TO.C,"R8"*%
%TO.CFtp,"R_0201_0603Metric"*%
%TO.CVal,"1k"*%
%TO.CLbN,"Resistor_SMD"*%
%TO.CMnt,SMD*%
%TO.CRot,90*%
X126500000Y-74400000D03*
D11*
X126849999Y-75099999D02*
X126150001Y-75099999D01*
X126150001Y-73700001D01*
X126849999Y-73700001D01*
X126849999Y-75099999D01*
D12*
%TO.P,"R8","1"*%
X126500000Y-74720000D03*
D13*
%TO.P,"R8","2"*%
X126500000Y-74080000D03*
%TD*%
D10*
%TO.C,"C20"*%
%TO.CFtp,"C_0201_0603Metric"*%
%TO.CVal,"100nF"*%
%TO.CLbN,"Capacitor_SMD"*%
%TO.CMnt,SMD*%
%TO.CRot,-90*%
X124000000Y-51670000D03*
D11*
X124349999Y-52369999D02*
X123650001Y-52369999D01*
X123650001Y-50970001D01*
X124349999Y-50970001D01*
X124349999Y-52369999D01*
D12*
%TO.P,"C20","1"*%
X124000000Y-51350000D03*
D13*
%TO.P,"C20","2"*%
X124000000Y-51990000D03*
%TD*%
D10*
%TO.C,"C101"*%
%TO.CFtp,"C_0201_0603Metric"*%
%TO.CVal,"100nF"*%
%TO.CLbN,"Capacitor_SMD"*%
%TO.CMnt,SMD*%
%TO.CRot,180*%
X117880000Y-70800000D03*
D11*
X118579999Y-71149999D02*
X117180001Y-71149999D01*
X117180001Y-70450001D01*
X118579999Y-70450001D01*
X118579999Y-71149999D01*
D12*
%TO.P,"C101","1"*%
X118200000Y-70800000D03*
D13*
%TO.P,"C101","2"*%
X117560000Y-70800000D03*
%TD*%
D10*
%TO.C,"G1"*%
%TO.CFtp,"logo_laas"*%
%TO.CVal,"SYM_LAAS"*%
%TO.CLbN,"udriver3"*%
%TO.CMnt,TH*%
%TO.CRot,180*%
X143948698Y-75165346D03*
%TD*%
%TO.C,"G2"*%
%TO.CFtp,"logo_OpenHardware"*%
%TO.CVal,"SYM_PROJECT"*%
%TO.CLbN,"udriver3"*%
%TO.CMnt,TH*%
%TO.CRot,180*%
X107000000Y-72000000D03*
%TD*%
%TO.C,"D5"*%
%TO.CFtp,"D_0402_1005Metric"*%
%TO.CVal,"TPD1E04U04"*%
%TO.CLbN,"Diode_SMD"*%
%TO.CMnt,SMD*%
%TO.CRot,0*%
X148585000Y-94950000D03*
D11*
X149514999Y-95419999D02*
X147655001Y-95419999D01*
X147655001Y-94480001D01*
X149514999Y-94480001D01*
X149514999Y-95419999D01*
D12*
%TO.P,"D5","1","IO"*%
X148100000Y-94950000D03*
D13*
%TO.P,"D5","2","GND"*%
X149070000Y-94950000D03*
%TD*%
D10*
%TO.C,"D7"*%
%TO.CFtp,"D_0402_1005Metric"*%
%TO.CVal,"TPD1E04U04"*%
%TO.CLbN,"Diode_SMD"*%
%TO.CMnt,SMD*%
%TO.CRot,90*%
X141200000Y-64000000D03*
D11*
X141669999Y-64929999D02*
X140730001Y-64929999D01*
X140730001Y-63070001D01*
X141669999Y-63070001D01*
X141669999Y-64929999D01*
D12*
%TO.P,"D7","1","IO"*%
X141200000Y-64485000D03*
D13*
%TO.P,"D7","2","GND"*%
X141200000Y-63515000D03*
%TD*%
D10*
%TO.C,"D8"*%
%TO.CFtp,"D_0402_1005Metric"*%
%TO.CVal,"TPD1E04U04"*%
%TO.CLbN,"Diode_SMD"*%
%TO.CMnt,SMD*%
%TO.CRot,-90*%
X141200000Y-68000000D03*
D11*
X141669999Y-68929999D02*
X140730001Y-68929999D01*
X140730001Y-67070001D01*
X141669999Y-67070001D01*
X141669999Y-68929999D01*
D12*
%TO.P,"D8","1","IO"*%
X141200000Y-67515000D03*
D13*
%TO.P,"D8","2","GND"*%
X141200000Y-68485000D03*
%TD*%
D10*
%TO.C,"R56"*%
%TO.CFtp,"R_0201_0603Metric"*%
%TO.CVal,"120"*%
%TO.CLbN,"Resistor_SMD"*%
%TO.CMnt,SMD*%
%TO.CRot,90*%
X121800000Y-60900000D03*
D11*
X122149999Y-61599999D02*
X121450001Y-61599999D01*
X121450001Y-60200001D01*
X122149999Y-60200001D01*
X122149999Y-61599999D01*
D12*
%TO.P,"R56","1"*%
X121800000Y-61220000D03*
D13*
%TO.P,"R56","2"*%
X121800000Y-60580000D03*
%TD*%
D10*
%TO.C,"C35"*%
%TO.CFtp,"C_0201_0603Metric"*%
%TO.CVal,"1.8nF"*%
%TO.CLbN,"Capacitor_SMD"*%
%TO.CMnt,SMD*%
%TO.CRot,180*%
X129080000Y-70700000D03*
D11*
X129779999Y-71049999D02*
X128380001Y-71049999D01*
X128380001Y-70350001D01*
X129779999Y-70350001D01*
X129779999Y-71049999D01*
D12*
%TO.P,"C35","1"*%
X129400000Y-70700000D03*
D13*
%TO.P,"C35","2"*%
X128760000Y-70700000D03*
%TD*%
D10*
%TO.C,"J9"*%
%TO.CFtp,"ADF6-10-XX.X-XXX-4-X-A-XR"*%
%TO.CVal,"ADM6_ADF6"*%
%TO.CLbN,"udriver3"*%
%TO.CMnt,TH*%
%TO.CRot,90*%
X113000000Y-65000000D03*
D11*
X111500000Y-70499999D02*
X110500001Y-69500000D01*
X110500001Y-60500000D01*
X111500000Y-59500001D01*
X115499999Y-59500001D01*
X115499999Y-70499999D01*
X111500000Y-70499999D01*
D13*
%TO.P,"J9",*%
X113000000Y-69260000D03*
X114270000Y-60740000D03*
%TO.P,"J9","A01","A01"*%
X111250000Y-62142500D03*
%TO.P,"J9","A02","A02"*%
X111250000Y-62777500D03*
%TO.P,"J9","A03","A03"*%
X111250000Y-63412500D03*
%TO.P,"J9","A04","A04"*%
X111250000Y-64047500D03*
%TO.P,"J9","A05","A05"*%
X111250000Y-64682500D03*
%TO.P,"J9","A06","A06"*%
X111250000Y-65317500D03*
%TO.P,"J9","A07","A07"*%
X111250000Y-65952500D03*
%TO.P,"J9","A08","A08"*%
X111250000Y-66587500D03*
%TO.P,"J9","A09","A09"*%
X111250000Y-67222500D03*
%TO.P,"J9","A10","A10"*%
X111250000Y-67857500D03*
%TO.P,"J9","B01","B01"*%
X112210000Y-62142500D03*
%TO.P,"J9","B02","B02"*%
X112210000Y-62777500D03*
%TO.P,"J9","B03","B03"*%
X112210000Y-63412500D03*
%TO.P,"J9","B04","B04"*%
X112210000Y-64047500D03*
%TO.P,"J9","B05","B05"*%
X112210000Y-64682500D03*
%TO.P,"J9","B06","B06"*%
X112210000Y-65317500D03*
%TO.P,"J9","B07","B07"*%
X112210000Y-65952500D03*
%TO.P,"J9","B08","B08"*%
X112210000Y-66587500D03*
%TO.P,"J9","B09","B09"*%
X112210000Y-67222500D03*
%TO.P,"J9","B10","B10"*%
X112210000Y-67857500D03*
%TO.P,"J9","C01","C01"*%
X113790000Y-62142500D03*
%TO.P,"J9","C02","C02"*%
X113790000Y-62777500D03*
%TO.P,"J9","C03","C03"*%
X113790000Y-63412500D03*
%TO.P,"J9","C04","C04"*%
X113790000Y-64047500D03*
%TO.P,"J9","C05","C05"*%
X113790000Y-64682500D03*
%TO.P,"J9","C06","C06"*%
X113790000Y-65317500D03*
%TO.P,"J9","C07","C07"*%
X113790000Y-65952500D03*
%TO.P,"J9","C08","C08"*%
X113790000Y-66587500D03*
%TO.P,"J9","C09","C09"*%
X113790000Y-67222500D03*
%TO.P,"J9","C10","C10"*%
X113790000Y-67857500D03*
%TO.P,"J9","D01","D01"*%
X114750000Y-62142500D03*
%TO.P,"J9","D02","D02"*%
X114750000Y-62777500D03*
%TO.P,"J9","D03","D03"*%
X114750000Y-63412500D03*
%TO.P,"J9","D04","D04"*%
X114750000Y-64047500D03*
%TO.P,"J9","D05","D05"*%
X114750000Y-64682500D03*
%TO.P,"J9","D06","D06"*%
X114750000Y-65317500D03*
%TO.P,"J9","D07","D07"*%
X114750000Y-65952500D03*
%TO.P,"J9","D08","D08"*%
X114750000Y-66587500D03*
%TO.P,"J9","D09","D09"*%
X114750000Y-67222500D03*
%TO.P,"J9","D10","D10"*%
X114750000Y-67857500D03*
%TD*%
D10*
%TO.C,"R28"*%
%TO.CFtp,"R_0201_0603Metric"*%
%TO.CVal,"10k"*%
%TO.CLbN,"Resistor_SMD"*%
%TO.CMnt,SMD*%
%TO.CRot,-90*%
X132500000Y-61800000D03*
D11*
X132849999Y-62499999D02*
X132150001Y-62499999D01*
X132150001Y-61100001D01*
X132849999Y-61100001D01*
X132849999Y-62499999D01*
D12*
%TO.P,"R28","1"*%
X132500000Y-61480000D03*
D13*
%TO.P,"R28","2"*%
X132500000Y-62120000D03*
%TD*%
D10*
%TO.C,"C90"*%
%TO.CFtp,"C_0201_0603Metric"*%
%TO.CVal,"100nF"*%
%TO.CLbN,"Capacitor_SMD"*%
%TO.CMnt,SMD*%
%TO.CRot,90*%
X117800000Y-56100000D03*
D11*
X118149999Y-56799999D02*
X117450001Y-56799999D01*
X117450001Y-55400001D01*
X118149999Y-55400001D01*
X118149999Y-56799999D01*
D12*
%TO.P,"C90","1"*%
X117800000Y-56420000D03*
D13*
%TO.P,"C90","2"*%
X117800000Y-55780000D03*
%TD*%
D10*
%TO.C,"X1"*%
%TO.CFtp,"TCXO_SMD_Ecs_TXO-2016-4Pin_2.0x1.6mm"*%
%TO.CVal,"ECS-TXO-2016"*%
%TO.CLbN,"udriver3"*%
%TO.CMnt,SMD*%
%TO.CRot,-90*%
X125500000Y-52000000D03*
D11*
X126399999Y-53099999D02*
X124600001Y-53099999D01*
X124600001Y-50900001D01*
X126399999Y-50900001D01*
X126399999Y-53099999D01*
D12*
%TO.P,"X1","1","OE"*%
X126000000Y-51350000D03*
D13*
%TO.P,"X1","2","GND"*%
X126000000Y-52650000D03*
%TO.P,"X1","3","OUT"*%
X125000000Y-52650000D03*
%TO.P,"X1","4","Vdd"*%
X125000000Y-51350000D03*
%TD*%
D10*
%TO.C,"C84"*%
%TO.CFtp,"C_0201_0603Metric"*%
%TO.CVal,"100nF"*%
%TO.CLbN,"Capacitor_SMD"*%
%TO.CMnt,SMD*%
%TO.CRot,-90*%
X128200000Y-64100000D03*
D11*
X128549999Y-64799999D02*
X127850001Y-64799999D01*
X127850001Y-63400001D01*
X128549999Y-63400001D01*
X128549999Y-64799999D01*
D12*
%TO.P,"C84","1"*%
X128200000Y-63780000D03*
D13*
%TO.P,"C84","2"*%
X128200000Y-64420000D03*
%TD*%
D10*
%TO.C,"C85"*%
%TO.CFtp,"C_0201_0603Metric"*%
%TO.CVal,"100nF"*%
%TO.CLbN,"Capacitor_SMD"*%
%TO.CMnt,SMD*%
%TO.CRot,0*%
X127400000Y-65700000D03*
D11*
X128099999Y-66049999D02*
X126700001Y-66049999D01*
X126700001Y-65350001D01*
X128099999Y-65350001D01*
X128099999Y-66049999D01*
D12*
%TO.P,"C85","1"*%
X127080000Y-65700000D03*
D13*
%TO.P,"C85","2"*%
X127720000Y-65700000D03*
%TD*%
D10*
%TO.C,"J8"*%
%TO.CFtp,"ADF6-10-XX.X-XXX-4-X-A-XR"*%
%TO.CVal,"ADM6_ADF6"*%
%TO.CLbN,"udriver3"*%
%TO.CMnt,TH*%
%TO.CRot,90*%
X137000000Y-65000000D03*
D11*
X135500000Y-70499999D02*
X134500001Y-69499999D01*
X134500001Y-60500001D01*
X135500001Y-59500001D01*
X139499999Y-59500001D01*
X139499999Y-70499999D01*
X135500000Y-70499999D01*
D13*
%TO.P,"J8",*%
X137000000Y-69260000D03*
X138270000Y-60740000D03*
%TO.P,"J8","A01","A01"*%
X135250000Y-62142500D03*
%TO.P,"J8","A02","A02"*%
X135250000Y-62777500D03*
%TO.P,"J8","A03","A03"*%
X135250000Y-63412500D03*
%TO.P,"J8","A04","A04"*%
X135250000Y-64047500D03*
%TO.P,"J8","A05","A05"*%
X135250000Y-64682500D03*
%TO.P,"J8","A06","A06"*%
X135250000Y-65317500D03*
%TO.P,"J8","A07","A07"*%
X135250000Y-65952500D03*
%TO.P,"J8","A08","A08"*%
X135250000Y-66587500D03*
%TO.P,"J8","A09","A09"*%
X135250000Y-67222500D03*
%TO.P,"J8","A10","A10"*%
X135250000Y-67857500D03*
%TO.P,"J8","B01","B01"*%
X136210000Y-62142500D03*
%TO.P,"J8","B02","B02"*%
X136210000Y-62777500D03*
%TO.P,"J8","B03","B03"*%
X136210000Y-63412500D03*
%TO.P,"J8","B04","B04"*%
X136210000Y-64047500D03*
%TO.P,"J8","B05","B05"*%
X136210000Y-64682500D03*
%TO.P,"J8","B06","B06"*%
X136210000Y-65317500D03*
%TO.P,"J8","B07","B07"*%
X136210000Y-65952500D03*
%TO.P,"J8","B08","B08"*%
X136210000Y-66587500D03*
%TO.P,"J8","B09","B09"*%
X136210000Y-67222500D03*
%TO.P,"J8","B10","B10"*%
X136210000Y-67857500D03*
%TO.P,"J8","C01","C01"*%
X137790000Y-62142500D03*
%TO.P,"J8","C02","C02"*%
X137790000Y-62777500D03*
%TO.P,"J8","C03","C03"*%
X137790000Y-63412500D03*
%TO.P,"J8","C04","C04"*%
X137790000Y-64047500D03*
%TO.P,"J8","C05","C05"*%
X137790000Y-64682500D03*
%TO.P,"J8","C06","C06"*%
X137790000Y-65317500D03*
%TO.P,"J8","C07","C07"*%
X137790000Y-65952500D03*
%TO.P,"J8","C08","C08"*%
X137790000Y-66587500D03*
%TO.P,"J8","C09","C09"*%
X137790000Y-67222500D03*
%TO.P,"J8","C10","C10"*%
X137790000Y-67857500D03*
%TO.P,"J8","D01","D01"*%
X138750000Y-62142500D03*
%TO.P,"J8","D02","D02"*%
X138750000Y-62777500D03*
%TO.P,"J8","D03","D03"*%
X138750000Y-63412500D03*
%TO.P,"J8","D04","D04"*%
X138750000Y-64047500D03*
%TO.P,"J8","D05","D05"*%
X138750000Y-64682500D03*
%TO.P,"J8","D06","D06"*%
X138750000Y-65317500D03*
%TO.P,"J8","D07","D07"*%
X138750000Y-65952500D03*
%TO.P,"J8","D08","D08"*%
X138750000Y-66587500D03*
%TO.P,"J8","D09","D09"*%
X138750000Y-67222500D03*
%TO.P,"J8","D10","D10"*%
X138750000Y-67857500D03*
%TD*%
D10*
%TO.C,"C74"*%
%TO.CFtp,"C_0201_0603Metric"*%
%TO.CVal,"100nF"*%
%TO.CLbN,"Capacitor_SMD"*%
%TO.CMnt,SMD*%
%TO.CRot,0*%
X125800000Y-66500000D03*
D11*
X126499999Y-66849999D02*
X125100001Y-66849999D01*
X125100001Y-66150001D01*
X126499999Y-66150001D01*
X126499999Y-66849999D01*
D12*
%TO.P,"C74","1"*%
X125480000Y-66500000D03*
D13*
%TO.P,"C74","2"*%
X126120000Y-66500000D03*
%TD*%
D10*
%TO.C,"C77"*%
%TO.CFtp,"C_0201_0603Metric"*%
%TO.CVal,"100nF"*%
%TO.CLbN,"Capacitor_SMD"*%
%TO.CMnt,SMD*%
%TO.CRot,0*%
X124200000Y-58500000D03*
D11*
X124899999Y-58849999D02*
X123500001Y-58849999D01*
X123500001Y-58150001D01*
X124899999Y-58150001D01*
X124899999Y-58849999D01*
D12*
%TO.P,"C77","1"*%
X123880000Y-58500000D03*
D13*
%TO.P,"C77","2"*%
X124520000Y-58500000D03*
%TD*%
D10*
%TO.C,"C95"*%
%TO.CFtp,"C_1210_3225Metric"*%
%TO.CVal,"10uF"*%
%TO.CLbN,"Capacitor_SMD"*%
%TO.CMnt,SMD*%
%TO.CRot,-90*%
X145950000Y-92750000D03*
D11*
X147549999Y-95049999D02*
X144350001Y-95049999D01*
X144350001Y-90450001D01*
X147549999Y-90450001D01*
X147549999Y-95049999D01*
D12*
%TO.P,"C95","1"*%
X145950000Y-91275000D03*
D13*
%TO.P,"C95","2"*%
X145950000Y-94225000D03*
%TD*%
D10*
%TO.C,"R27"*%
%TO.CFtp,"R_0201_0603Metric"*%
%TO.CVal,"120"*%
%TO.CLbN,"Resistor_SMD"*%
%TO.CMnt,SMD*%
%TO.CRot,0*%
X128155000Y-54000000D03*
D11*
X128854999Y-54349999D02*
X127455001Y-54349999D01*
X127455001Y-53650001D01*
X128854999Y-53650001D01*
X128854999Y-54349999D01*
D12*
%TO.P,"R27","1"*%
X127835000Y-54000000D03*
D13*
%TO.P,"R27","2"*%
X128475000Y-54000000D03*
%TD*%
D10*
%TO.C,"D1"*%
%TO.CFtp,"USON_14"*%
%TO.CVal,"TPD6E05U06"*%
%TO.CLbN,"udriver3"*%
%TO.CMnt,TH*%
%TO.CRot,0*%
X144400000Y-57000000D03*
D11*
X145299999Y-58799999D02*
X143500001Y-58799999D01*
X143500001Y-55200001D01*
X145299999Y-55200001D01*
X145299999Y-58799999D01*
D12*
%TO.P,"D1","1","NC"*%
X143775000Y-58500000D03*
D13*
%TO.P,"D1","2","NC"*%
X143775000Y-58000001D03*
%TO.P,"D1","3","NC"*%
X143775000Y-57499999D03*
%TO.P,"D1","4","NC"*%
X143775000Y-57000000D03*
%TO.P,"D1","5","GND"*%
X143775000Y-56499998D03*
%TO.P,"D1","6","NC"*%
X143775000Y-55999999D03*
%TO.P,"D1","7","NC"*%
X143775000Y-55500000D03*
%TO.P,"D1","8","D6"*%
X145025000Y-55500000D03*
%TO.P,"D1","9","D5"*%
X145025000Y-55999999D03*
%TO.P,"D1","10","GND"*%
X145025000Y-56499998D03*
%TO.P,"D1","11","D3"*%
X145025000Y-57000000D03*
%TO.P,"D1","12","D4"*%
X145025000Y-57499999D03*
%TO.P,"D1","13","D2"*%
X145025000Y-58000001D03*
%TO.P,"D1","14","D1"*%
X145025000Y-58500000D03*
%TD*%
D10*
%TO.C,"J13"*%
%TO.CFtp,"Hirose_DF13_02P-1.25H_1x02_P1.25mm_Right_angle"*%
%TO.CVal,"conn_01x02_MountingPins"*%
%TO.CLbN,"udriver3"*%
%TO.CMnt,SMD*%
%TO.CRot,0*%
X125000000Y-97250000D03*
D11*
X128999999Y-100049999D02*
X121000001Y-100049999D01*
X121000001Y-92950001D01*
X128999999Y-92950001D01*
X128999999Y-100049999D01*
D12*
%TO.P,"J13","1","Pin_1"*%
X124375000Y-93950000D03*
D13*
%TO.P,"J13","2","Pin_2"*%
X125625000Y-93950000D03*
%TO.P,"J13","MP1","MountPin1"*%
X122125000Y-97250000D03*
%TO.P,"J13","MP2","MountPin2"*%
X127875000Y-97250000D03*
%TD*%
D10*
%TO.C,"R13"*%
%TO.CFtp,"R_0201_0603Metric"*%
%TO.CVal,"100k"*%
%TO.CLbN,"Resistor_SMD"*%
%TO.CMnt,SMD*%
%TO.CRot,-90*%
X144900000Y-59520000D03*
D11*
X145249999Y-60219999D02*
X144550001Y-60219999D01*
X144550001Y-58820001D01*
X145249999Y-58820001D01*
X145249999Y-60219999D01*
D12*
%TO.P,"R13","1"*%
X144900000Y-59200000D03*
D13*
%TO.P,"R13","2"*%
X144900000Y-59840000D03*
%TD*%
D10*
%TO.C,"U15"*%
%TO.CFtp,"B3QFN_15"*%
%TO.CVal,"TPSM560R6H"*%
%TO.CLbN,"udriver3"*%
%TO.CMnt,SMD*%
%TO.CRot,0*%
X132900000Y-81000000D03*
D11*
X135799999Y-83899999D02*
X130000001Y-83899999D01*
X130000001Y-78100001D01*
X135799999Y-78100001D01*
X135799999Y-83899999D01*
D12*
%TO.P,"U15","1","Vin"*%
X130900000Y-83145000D03*
D13*
%TO.P,"U15","2","EN"*%
X130550000Y-82170000D03*
%TO.P,"U15","3","NC1"*%
X130550000Y-81520000D03*
%TO.P,"U15","4","SW"*%
X130550000Y-80870000D03*
%TO.P,"U15","5","DNC2"*%
X130550000Y-80220000D03*
%TO.P,"U15","6","NC3"*%
X130550000Y-79570000D03*
%TO.P,"U15","7","Vout"*%
X130900000Y-78845000D03*
%TO.P,"U15","8","Vout"*%
X134900000Y-78845000D03*
%TO.P,"U15","9","FB"*%
X135250000Y-79570000D03*
%TO.P,"U15","10","AGND"*%
X135250000Y-80220000D03*
%TO.P,"U15","11","V5V"*%
X135250000Y-80870000D03*
%TO.P,"U15","12","PG"*%
X135250000Y-81520000D03*
%TO.P,"U15","13","NC4"*%
X135250000Y-82170000D03*
%TO.P,"U15","14","Vin"*%
X134900000Y-83145000D03*
%TO.P,"U15","15","PGND"*%
X132900000Y-81000000D03*
%TD*%
D10*
%TO.C,"C96"*%
%TO.CFtp,"C_1210_3225Metric"*%
%TO.CVal,"10uF"*%
%TO.CLbN,"Capacitor_SMD"*%
%TO.CMnt,SMD*%
%TO.CRot,-90*%
X130650000Y-92750000D03*
D11*
X132249999Y-95049999D02*
X129050001Y-95049999D01*
X129050001Y-90450001D01*
X132249999Y-90450001D01*
X132249999Y-95049999D01*
D12*
%TO.P,"C96","1"*%
X130650000Y-91275000D03*
D13*
%TO.P,"C96","2"*%
X130650000Y-94225000D03*
%TD*%
D10*
%TO.C,"R68"*%
%TO.CFtp,"R_0201_0603Metric"*%
%TO.CVal,"10"*%
%TO.CLbN,"Resistor_SMD"*%
%TO.CMnt,SMD*%
%TO.CRot,180*%
X110680000Y-58200000D03*
D11*
X111379999Y-58549999D02*
X109980001Y-58549999D01*
X109980001Y-57850001D01*
X111379999Y-57850001D01*
X111379999Y-58549999D01*
D12*
%TO.P,"R68","1"*%
X111000000Y-58200000D03*
D13*
%TO.P,"R68","2"*%
X110360000Y-58200000D03*
%TD*%
D10*
%TO.C,"R59"*%
%TO.CFtp,"R_0201_0603Metric"*%
%TO.CVal,"10k"*%
%TO.CLbN,"Resistor_SMD"*%
%TO.CMnt,SMD*%
%TO.CRot,90*%
X109700000Y-60680000D03*
D11*
X110049999Y-61379999D02*
X109350001Y-61379999D01*
X109350001Y-59980001D01*
X110049999Y-59980001D01*
X110049999Y-61379999D01*
D12*
%TO.P,"R59","1"*%
X109700000Y-61000000D03*
D13*
%TO.P,"R59","2"*%
X109700000Y-60360000D03*
%TD*%
D10*
%TO.C,"R60"*%
%TO.CFtp,"R_0201_0603Metric"*%
%TO.CVal,"10k"*%
%TO.CLbN,"Resistor_SMD"*%
%TO.CMnt,SMD*%
%TO.CRot,90*%
X103800000Y-60680000D03*
D11*
X104149999Y-61379999D02*
X103450001Y-61379999D01*
X103450001Y-59980001D01*
X104149999Y-59980001D01*
X104149999Y-61379999D01*
D12*
%TO.P,"R60","1"*%
X103800000Y-61000000D03*
D13*
%TO.P,"R60","2"*%
X103800000Y-60360000D03*
%TD*%
D10*
%TO.C,"R57"*%
%TO.CFtp,"R_0201_0603Metric"*%
%TO.CVal,"10k"*%
%TO.CLbN,"Resistor_SMD"*%
%TO.CMnt,SMD*%
%TO.CRot,-90*%
X136200000Y-79250000D03*
D11*
X136549999Y-79949999D02*
X135850001Y-79949999D01*
X135850001Y-78550001D01*
X136549999Y-78550001D01*
X136549999Y-79949999D01*
D12*
%TO.P,"R57","1"*%
X136200000Y-78930000D03*
D13*
%TO.P,"R57","2"*%
X136200000Y-79570000D03*
%TD*%
D10*
%TO.C,"C98"*%
%TO.CFtp,"C_0805_2012Metric"*%
%TO.CVal,"22uF"*%
%TO.CLbN,"Capacitor_SMD"*%
%TO.CMnt,SMD*%
%TO.CRot,90*%
X133800000Y-76400000D03*
D11*
X134779999Y-78099999D02*
X132820001Y-78099999D01*
X132820001Y-74700001D01*
X134779999Y-74700001D01*
X134779999Y-78099999D01*
D12*
%TO.P,"C98","1"*%
X133800000Y-77350000D03*
D13*
%TO.P,"C98","2"*%
X133800000Y-75450000D03*
%TD*%
D10*
%TO.C,"C18"*%
%TO.CFtp,"C_2220_5650Metric"*%
%TO.CVal,"22uF"*%
%TO.CLbN,"Capacitor_SMD"*%
%TO.CMnt,SMD*%
%TO.CRot,90*%
X146600000Y-83800000D03*
D11*
X149549999Y-87499999D02*
X143650001Y-87499999D01*
X143650001Y-80100001D01*
X149549999Y-80100001D01*
X149549999Y-87499999D01*
D12*
%TO.P,"C18","1"*%
X146600000Y-86350000D03*
D13*
%TO.P,"C18","2"*%
X146600000Y-81250000D03*
%TD*%
D10*
%TO.C,"R58"*%
%TO.CFtp,"R_0201_0603Metric"*%
%TO.CVal,"909"*%
%TO.CLbN,"Resistor_SMD"*%
%TO.CMnt,SMD*%
%TO.CRot,-90*%
X137000000Y-79250000D03*
D11*
X137349999Y-79949999D02*
X136650001Y-79949999D01*
X136650001Y-78550001D01*
X137349999Y-78550001D01*
X137349999Y-79949999D01*
D12*
%TO.P,"R58","1"*%
X137000000Y-78930000D03*
D13*
%TO.P,"R58","2"*%
X137000000Y-79570000D03*
%TD*%
D10*
%TO.C,"R61"*%
%TO.CFtp,"R_0201_0603Metric"*%
%TO.CVal,"10k"*%
%TO.CLbN,"Resistor_SMD"*%
%TO.CMnt,SMD*%
%TO.CRot,90*%
X120000000Y-73720000D03*
D11*
X120349999Y-74419999D02*
X119650001Y-74419999D01*
X119650001Y-73020001D01*
X120349999Y-73020001D01*
X120349999Y-74419999D01*
D12*
%TO.P,"R61","1"*%
X120000000Y-74040000D03*
D13*
%TO.P,"R61","2"*%
X120000000Y-73400000D03*
%TD*%
D10*
%TO.C,"R49"*%
%TO.CFtp,"R_0201_0603Metric"*%
%TO.CVal,"100k"*%
%TO.CLbN,"Resistor_SMD"*%
%TO.CMnt,SMD*%
%TO.CRot,90*%
X120400000Y-81395000D03*
D11*
X120749999Y-82094999D02*
X120050001Y-82094999D01*
X120050001Y-80695001D01*
X120749999Y-80695001D01*
X120749999Y-82094999D01*
D12*
%TO.P,"R49","1"*%
X120400000Y-81715000D03*
D13*
%TO.P,"R49","2"*%
X120400000Y-81075000D03*
%TD*%
D10*
%TO.C,"C57"*%
%TO.CFtp,"C_1210_3225Metric"*%
%TO.CVal,"10uF"*%
%TO.CLbN,"Capacitor_SMD"*%
%TO.CMnt,SMD*%
%TO.CRot,-90*%
X119350000Y-92750000D03*
D11*
X120949999Y-95049999D02*
X117750001Y-95049999D01*
X117750001Y-90450001D01*
X120949999Y-90450001D01*
X120949999Y-95049999D01*
D12*
%TO.P,"C57","1"*%
X119350000Y-91275000D03*
D13*
%TO.P,"C57","2"*%
X119350000Y-94225000D03*
%TD*%
D10*
%TO.C,"R48"*%
%TO.CFtp,"R_0201_0603Metric"*%
%TO.CVal,"10k"*%
%TO.CLbN,"Resistor_SMD"*%
%TO.CMnt,SMD*%
%TO.CRot,-90*%
X121100000Y-79250000D03*
D11*
X121449999Y-79949999D02*
X120750001Y-79949999D01*
X120750001Y-78550001D01*
X121449999Y-78550001D01*
X121449999Y-79949999D01*
D12*
%TO.P,"R48","1"*%
X121100000Y-78930000D03*
D13*
%TO.P,"R48","2"*%
X121100000Y-79570000D03*
%TD*%
D10*
%TO.C,"C97"*%
%TO.CFtp,"C_0603_1608Metric"*%
%TO.CVal,"100nF"*%
%TO.CLbN,"Capacitor_SMD"*%
%TO.CMnt,SMD*%
%TO.CRot,90*%
X128750000Y-82500000D03*
D11*
X129479999Y-83979999D02*
X128020001Y-83979999D01*
X128020001Y-81020001D01*
X129479999Y-81020001D01*
X129479999Y-83979999D01*
D12*
%TO.P,"C97","1"*%
X128750000Y-83275000D03*
D13*
%TO.P,"C97","2"*%
X128750000Y-81725000D03*
%TD*%
D10*
%TO.C,"C56"*%
%TO.CFtp,"C_1210_3225Metric"*%
%TO.CVal,"10uF"*%
%TO.CLbN,"Capacitor_SMD"*%
%TO.CMnt,SMD*%
%TO.CRot,-90*%
X104050000Y-92750000D03*
D11*
X105649999Y-95049999D02*
X102450001Y-95049999D01*
X102450001Y-90450001D01*
X105649999Y-90450001D01*
X105649999Y-95049999D01*
D12*
%TO.P,"C56","1"*%
X104050000Y-91275000D03*
D13*
%TO.P,"C56","2"*%
X104050000Y-94225000D03*
%TD*%
D10*
%TO.C,"U11"*%
%TO.CFtp,"B3QFN_15"*%
%TO.CVal,"TPSM5601R5"*%
%TO.CLbN,"udriver3"*%
%TO.CMnt,SMD*%
%TO.CRot,0*%
X117100000Y-81000000D03*
D11*
X119999999Y-83899999D02*
X114200001Y-83899999D01*
X114200001Y-78100001D01*
X119999999Y-78100001D01*
X119999999Y-83899999D01*
D12*
%TO.P,"U11","1","Vin"*%
X115100000Y-83145000D03*
D13*
%TO.P,"U11","2","EN"*%
X114750000Y-82170000D03*
%TO.P,"U11","3","NC1"*%
X114750000Y-81520000D03*
%TO.P,"U11","4","SW"*%
X114750000Y-80870000D03*
%TO.P,"U11","5","DNC2"*%
X114750000Y-80220000D03*
%TO.P,"U11","6","NC3"*%
X114750000Y-79570000D03*
%TO.P,"U11","7","Vout"*%
X115100000Y-78845000D03*
%TO.P,"U11","8","Vout"*%
X119100000Y-78845000D03*
%TO.P,"U11","9","FB"*%
X119450000Y-79570000D03*
%TO.P,"U11","10","AGND"*%
X119450000Y-80220000D03*
%TO.P,"U11","11","V5V"*%
X119450000Y-80870000D03*
%TO.P,"U11","12","PG"*%
X119450000Y-81520000D03*
%TO.P,"U11","13","NC4"*%
X119450000Y-82170000D03*
%TO.P,"U11","14","Vin"*%
X119100000Y-83145000D03*
%TO.P,"U11","15","PGND"*%
X117100000Y-81000000D03*
%TD*%
D10*
%TO.C,"R63"*%
%TO.CFtp,"R_Axial_DIN0204_L3.6mm_D1.6mm_P5.08mm_Horizontal"*%
%TO.CVal,"120"*%
%TO.CLbN,"Resistor_THT"*%
%TO.CMnt,TH*%
%TO.CRot,0*%
X122460000Y-92800000D03*
D14*
X121760000Y-93500000D02*
X121760000Y-92100000D01*
X128240000Y-92100000D01*
X128240000Y-93500000D01*
X121760000Y-93500000D01*
D12*
%TO.P,"R63","1"*%
X122460000Y-92800000D03*
D13*
%TO.P,"R63","2"*%
X127540000Y-92800000D03*
%TD*%
D10*
%TO.C,"C12"*%
%TO.CFtp,"C_0201_0603Metric"*%
%TO.CVal,"100nF"*%
%TO.CLbN,"Capacitor_SMD"*%
%TO.CMnt,SMD*%
%TO.CRot,-90*%
X143900000Y-59520000D03*
D11*
X144249999Y-60219999D02*
X143550001Y-60219999D01*
X143550001Y-58820001D01*
X144249999Y-58820001D01*
X144249999Y-60219999D01*
D12*
%TO.P,"C12","1"*%
X143900000Y-59200000D03*
D13*
%TO.P,"C12","2"*%
X143900000Y-59840000D03*
%TD*%
D10*
%TO.C,"C58"*%
%TO.CFtp,"C_0603_1608Metric"*%
%TO.CVal,"100nF"*%
%TO.CLbN,"Capacitor_SMD"*%
%TO.CMnt,SMD*%
%TO.CRot,90*%
X123500000Y-82500000D03*
D11*
X124229999Y-83979999D02*
X122770001Y-83979999D01*
X122770001Y-81020001D01*
X124229999Y-81020001D01*
X124229999Y-83979999D01*
D12*
%TO.P,"C58","1"*%
X123500000Y-83275000D03*
D13*
%TO.P,"C58","2"*%
X123500000Y-81725000D03*
%TD*%
D10*
%TO.C,"R50"*%
%TO.CFtp,"R_0201_0603Metric"*%
%TO.CVal,"2.49k"*%
%TO.CLbN,"Resistor_SMD"*%
%TO.CMnt,SMD*%
%TO.CRot,90*%
X120400000Y-79890000D03*
D11*
X120749999Y-80589999D02*
X120050001Y-80589999D01*
X120050001Y-79190001D01*
X120749999Y-79190001D01*
X120749999Y-80589999D01*
D12*
%TO.P,"R50","1"*%
X120400000Y-80210000D03*
D13*
%TO.P,"R50","2"*%
X120400000Y-79570000D03*
%TD*%
D10*
%TO.C,"C59"*%
%TO.CFtp,"C_0805_2012Metric"*%
%TO.CVal,"22uF"*%
%TO.CLbN,"Capacitor_SMD"*%
%TO.CMnt,SMD*%
%TO.CRot,0*%
X128000000Y-78500000D03*
D11*
X129699999Y-79479999D02*
X126300001Y-79479999D01*
X126300001Y-77520001D01*
X129699999Y-77520001D01*
X129699999Y-79479999D01*
D12*
%TO.P,"C59","1"*%
X127050000Y-78500000D03*
D13*
%TO.P,"C59","2"*%
X128950000Y-78500000D03*
%TD*%
M02*
