%TF.GenerationSoftware,KiCad,Pcbnew,5.1.10-88a1d61d58~88~ubuntu16.04.1*%
%TF.CreationDate,2021-08-31T15:03:34+02:00*%
%TF.ProjectId,omodri_laas,6f6d6f64-7269-45f6-9c61-61732e6b6963,1.0*%
%TF.SameCoordinates,Original*%
%TF.FileFunction,Soldermask,Top*%
%TF.FilePolarity,Negative*%
%FSLAX46Y46*%
G04 Gerber Fmt 4.6, Leading zero omitted, Abs format (unit mm)*
G04 Created by KiCad (PCBNEW 5.1.10-88a1d61d58~88~ubuntu16.04.1) date 2021-08-31 15:03:34*
%MOMM*%
%LPD*%
G01*
G04 APERTURE LIST*
%ADD10C,0.100000*%
%ADD11C,1.050000*%
%ADD12O,1.100000X1.500000*%
%ADD13C,0.500000*%
%ADD14C,3.600000*%
%ADD15C,1.500000*%
%ADD16C,3.100000*%
%ADD17C,2.300000*%
%ADD18O,1.500000X1.100000*%
%ADD19O,1.150000X1.150000*%
G04 APERTURE END LIST*
D10*
%TO.C,Q1*%
G36*
X109800000Y-85575000D02*
G01*
X109500000Y-85575000D01*
X109500000Y-81425000D01*
X109800000Y-81425000D01*
X109800000Y-85575000D01*
G37*
X109800000Y-85575000D02*
X109500000Y-85575000D01*
X109500000Y-81425000D01*
X109800000Y-81425000D01*
X109800000Y-85575000D01*
G36*
X114100000Y-85575000D02*
G01*
X113800000Y-85575000D01*
X113800000Y-81425000D01*
X114100000Y-81425000D01*
X114100000Y-85575000D01*
G37*
X114100000Y-85575000D02*
X113800000Y-85575000D01*
X113800000Y-81425000D01*
X114100000Y-81425000D01*
X114100000Y-85575000D01*
%TO.C,Q3*%
G36*
X109800000Y-92575000D02*
G01*
X109500000Y-92575000D01*
X109500000Y-88425000D01*
X109800000Y-88425000D01*
X109800000Y-92575000D01*
G37*
X109800000Y-92575000D02*
X109500000Y-92575000D01*
X109500000Y-88425000D01*
X109800000Y-88425000D01*
X109800000Y-92575000D01*
G36*
X114100000Y-92575000D02*
G01*
X113800000Y-92575000D01*
X113800000Y-88425000D01*
X114100000Y-88425000D01*
X114100000Y-92575000D01*
G37*
X114100000Y-92575000D02*
X113800000Y-92575000D01*
X113800000Y-88425000D01*
X114100000Y-88425000D01*
X114100000Y-92575000D01*
%TO.C,Q4*%
G36*
X140200000Y-88424999D02*
G01*
X140500000Y-88424999D01*
X140500000Y-92574999D01*
X140200000Y-92574999D01*
X140200000Y-88424999D01*
G37*
X140200000Y-88424999D02*
X140500000Y-88424999D01*
X140500000Y-92574999D01*
X140200000Y-92574999D01*
X140200000Y-88424999D01*
G36*
X135900000Y-88424999D02*
G01*
X136200000Y-88424999D01*
X136200000Y-92574999D01*
X135900000Y-92574999D01*
X135900000Y-88424999D01*
G37*
X135900000Y-88424999D02*
X136200000Y-88424999D01*
X136200000Y-92574999D01*
X135900000Y-92574999D01*
X135900000Y-88424999D01*
%TO.C,Q6*%
G36*
X140200000Y-81424999D02*
G01*
X140500000Y-81424999D01*
X140500000Y-85574999D01*
X140200000Y-85574999D01*
X140200000Y-81424999D01*
G37*
X140200000Y-81424999D02*
X140500000Y-81424999D01*
X140500000Y-85574999D01*
X140200000Y-85574999D01*
X140200000Y-81424999D01*
G36*
X135900000Y-81424999D02*
G01*
X136200000Y-81424999D01*
X136200000Y-85574999D01*
X135900000Y-85574999D01*
X135900000Y-81424999D01*
G37*
X135900000Y-81424999D02*
X136200000Y-81424999D01*
X136200000Y-85574999D01*
X135900000Y-85574999D01*
X135900000Y-81424999D01*
%TD*%
D11*
%TO.C,J15*%
X114270000Y-60740000D03*
X113000000Y-69260000D03*
%TD*%
%TO.C,J16*%
X138270000Y-60740000D03*
X137000000Y-69260000D03*
%TD*%
D12*
%TO.C,J6*%
X138500000Y-97250000D03*
X139750000Y-97250000D03*
X141000000Y-97250000D03*
X142250000Y-97250000D03*
G36*
G01*
X144050000Y-96775000D02*
X144050000Y-97725000D01*
G75*
G02*
X143775000Y-98000000I-275000J0D01*
G01*
X143225000Y-98000000D01*
G75*
G02*
X142950000Y-97725000I0J275000D01*
G01*
X142950000Y-96775000D01*
G75*
G02*
X143225000Y-96500000I275000J0D01*
G01*
X143775000Y-96500000D01*
G75*
G02*
X144050000Y-96775000I0J-275000D01*
G01*
G37*
%TD*%
D13*
%TO.C,U1*%
X132200000Y-68100000D03*
X132200000Y-61700000D03*
X132200000Y-62500000D03*
X132200000Y-60100000D03*
X132200000Y-66500000D03*
X132200000Y-69700000D03*
X132200000Y-63300000D03*
X132200000Y-59300000D03*
X132200000Y-55300000D03*
X132200000Y-68900000D03*
X132200000Y-56900000D03*
X132200000Y-64900000D03*
X132200000Y-64100000D03*
X132200000Y-67300000D03*
X132200000Y-57700000D03*
X132200000Y-60900000D03*
X132200000Y-65700000D03*
X132200000Y-56100000D03*
X132200000Y-58500000D03*
X131400000Y-65700000D03*
X131400000Y-56900000D03*
X131400000Y-60100000D03*
X131400000Y-64900000D03*
X131400000Y-55300000D03*
X131400000Y-59300000D03*
X131400000Y-68900000D03*
X131400000Y-64100000D03*
X131400000Y-57700000D03*
X131400000Y-60900000D03*
X131400000Y-66500000D03*
X131400000Y-67300000D03*
X131400000Y-58500000D03*
X131400000Y-62500000D03*
X131400000Y-69700000D03*
X131400000Y-68100000D03*
X131400000Y-61700000D03*
X131400000Y-56100000D03*
X131400000Y-63300000D03*
X130600000Y-64100000D03*
X130600000Y-65700000D03*
X130600000Y-67300000D03*
X130600000Y-57700000D03*
X130600000Y-62500000D03*
X130600000Y-56900000D03*
X130600000Y-60900000D03*
X130600000Y-64900000D03*
X130600000Y-55300000D03*
X130600000Y-69700000D03*
X130600000Y-60100000D03*
X130600000Y-59300000D03*
X130600000Y-68100000D03*
X130600000Y-66500000D03*
X130600000Y-58500000D03*
X130600000Y-61700000D03*
X130600000Y-68900000D03*
X130600000Y-56100000D03*
X130600000Y-63300000D03*
X129800000Y-62500000D03*
X129800000Y-68900000D03*
X129800000Y-57700000D03*
X129800000Y-60900000D03*
X129800000Y-56100000D03*
X129800000Y-56900000D03*
X129800000Y-69700000D03*
X129800000Y-66500000D03*
X129800000Y-68100000D03*
X129800000Y-55300000D03*
X129800000Y-59300000D03*
X129800000Y-63300000D03*
X129800000Y-60100000D03*
X129800000Y-58500000D03*
X129800000Y-64100000D03*
X129800000Y-65700000D03*
X129800000Y-61700000D03*
X129800000Y-67300000D03*
X129800000Y-64900000D03*
X129000000Y-68100000D03*
X129000000Y-68900000D03*
X129000000Y-66500000D03*
X129000000Y-63300000D03*
X129000000Y-56900000D03*
X129000000Y-60100000D03*
X129000000Y-64100000D03*
X129000000Y-57700000D03*
X129000000Y-59300000D03*
X129000000Y-65700000D03*
X129000000Y-55300000D03*
X129000000Y-61700000D03*
X129000000Y-69700000D03*
X129000000Y-67300000D03*
X129000000Y-62500000D03*
X129000000Y-60900000D03*
X129000000Y-64900000D03*
X129000000Y-56100000D03*
X129000000Y-58500000D03*
X128200000Y-69700000D03*
X128200000Y-55300000D03*
X128200000Y-57700000D03*
X128200000Y-67300000D03*
X128200000Y-56900000D03*
X128200000Y-62500000D03*
X128200000Y-68900000D03*
X128200000Y-60100000D03*
X128200000Y-59300000D03*
X128200000Y-64100000D03*
X128200000Y-65700000D03*
X128200000Y-61700000D03*
X128200000Y-64900000D03*
X128200000Y-66500000D03*
X128200000Y-63300000D03*
X128200000Y-56100000D03*
X128200000Y-58500000D03*
X128200000Y-60900000D03*
X128200000Y-68100000D03*
X127400000Y-65700000D03*
X127400000Y-56100000D03*
X127400000Y-66500000D03*
X127400000Y-67300000D03*
X127400000Y-56900000D03*
X127400000Y-55300000D03*
X127400000Y-68100000D03*
X127400000Y-57700000D03*
X127400000Y-68900000D03*
X127400000Y-59300000D03*
X127400000Y-69700000D03*
X127400000Y-58500000D03*
X126600000Y-55300000D03*
X126600000Y-66500000D03*
X126600000Y-65700000D03*
X126600000Y-56100000D03*
X126600000Y-57700000D03*
X126600000Y-68100000D03*
X126600000Y-67300000D03*
X126600000Y-56900000D03*
X126600000Y-68900000D03*
X126600000Y-59300000D03*
X126600000Y-69700000D03*
X126600000Y-58500000D03*
X125000000Y-56100000D03*
X125800000Y-60900000D03*
X125000000Y-68100000D03*
X125000000Y-67300000D03*
X125000000Y-66500000D03*
X125800000Y-64100000D03*
X125000000Y-56900000D03*
X125000000Y-55300000D03*
X125000000Y-57700000D03*
X125000000Y-65700000D03*
X125800000Y-62500000D03*
X125000000Y-59300000D03*
X125000000Y-69700000D03*
X125800000Y-63300000D03*
X125000000Y-68900000D03*
X125000000Y-58500000D03*
X125800000Y-61700000D03*
X125800000Y-56100000D03*
X125800000Y-68900000D03*
X126600000Y-63300000D03*
X125800000Y-69700000D03*
X125800000Y-55300000D03*
X125800000Y-66500000D03*
X125800000Y-67300000D03*
X125800000Y-59300000D03*
X126600000Y-64100000D03*
X125800000Y-68100000D03*
X125800000Y-58500000D03*
X126600000Y-60900000D03*
X126600000Y-61700000D03*
X125800000Y-57700000D03*
X125800000Y-65700000D03*
X126600000Y-62500000D03*
X125800000Y-56900000D03*
X124200000Y-68900000D03*
X124200000Y-58500000D03*
X124200000Y-59300000D03*
X124200000Y-55300000D03*
X124200000Y-68100000D03*
X125000000Y-63300000D03*
X125000000Y-60900000D03*
X124200000Y-56100000D03*
X125000000Y-62500000D03*
X125000000Y-64100000D03*
X124200000Y-65700000D03*
X124200000Y-66500000D03*
X124200000Y-69700000D03*
X124200000Y-57700000D03*
X125000000Y-61700000D03*
X124200000Y-67300000D03*
X124200000Y-56900000D03*
X124200000Y-60900000D03*
X123400000Y-65700000D03*
X123400000Y-58500000D03*
X123400000Y-56100000D03*
X123400000Y-66500000D03*
X124200000Y-63300000D03*
X124200000Y-64100000D03*
X123400000Y-59300000D03*
X123400000Y-55300000D03*
X123400000Y-69700000D03*
X123400000Y-68100000D03*
X123400000Y-68900000D03*
X124200000Y-62500000D03*
X123400000Y-57700000D03*
X124200000Y-61700000D03*
X123400000Y-56900000D03*
X123400000Y-67300000D03*
X123400000Y-60900000D03*
X122600000Y-58500000D03*
X122600000Y-55300000D03*
X122600000Y-59300000D03*
X123400000Y-64100000D03*
X122600000Y-56100000D03*
X122600000Y-65700000D03*
X122600000Y-66500000D03*
X123400000Y-63300000D03*
X123400000Y-62500000D03*
X122600000Y-57700000D03*
X123400000Y-61700000D03*
X122600000Y-56900000D03*
X122600000Y-69700000D03*
X122600000Y-68100000D03*
X122600000Y-68900000D03*
X122600000Y-67300000D03*
X121800000Y-56100000D03*
X121800000Y-56900000D03*
X121800000Y-57700000D03*
X121800000Y-58500000D03*
X121800000Y-59300000D03*
X121800000Y-60100000D03*
X121800000Y-60900000D03*
X121800000Y-61700000D03*
X121800000Y-62500000D03*
X121800000Y-63300000D03*
X121800000Y-55300000D03*
X121800000Y-64100000D03*
X121800000Y-64900000D03*
X121800000Y-65700000D03*
X121800000Y-66500000D03*
X121000000Y-56100000D03*
X121000000Y-55300000D03*
X121000000Y-57700000D03*
X121000000Y-56900000D03*
X121000000Y-64900000D03*
X121000000Y-64100000D03*
X121000000Y-62500000D03*
X121000000Y-63300000D03*
X121000000Y-61700000D03*
X121000000Y-60900000D03*
X121000000Y-60100000D03*
X121000000Y-59300000D03*
X121000000Y-58500000D03*
X121800000Y-68100000D03*
X121000000Y-65700000D03*
X120200000Y-69700000D03*
X121800000Y-68900000D03*
X121800000Y-69700000D03*
X120200000Y-65700000D03*
X120200000Y-64900000D03*
X120200000Y-63300000D03*
X120200000Y-62500000D03*
X120200000Y-61700000D03*
X120200000Y-60900000D03*
X120200000Y-59300000D03*
X120200000Y-58500000D03*
X120200000Y-57700000D03*
X121000000Y-69700000D03*
X121000000Y-68900000D03*
X120200000Y-56100000D03*
X120200000Y-55300000D03*
X121000000Y-68100000D03*
X120200000Y-64100000D03*
X120200000Y-56900000D03*
X120200000Y-68900000D03*
X120200000Y-67300000D03*
X121000000Y-67300000D03*
X120200000Y-68100000D03*
X120200000Y-60100000D03*
X120200000Y-66500000D03*
X121000000Y-66500000D03*
X121800000Y-67300000D03*
X119400000Y-55300000D03*
X119400000Y-56100000D03*
X119400000Y-56900000D03*
X119400000Y-57700000D03*
X119400000Y-58500000D03*
X119400000Y-59300000D03*
X119400000Y-60100000D03*
X119400000Y-60900000D03*
X119400000Y-61700000D03*
X119400000Y-62500000D03*
X119400000Y-63300000D03*
X119400000Y-64100000D03*
X119400000Y-64900000D03*
X119400000Y-65700000D03*
X119400000Y-66500000D03*
X119400000Y-67300000D03*
X119400000Y-68100000D03*
X119400000Y-68900000D03*
X119400000Y-69700000D03*
X117800000Y-69700000D03*
X117800000Y-68900000D03*
X117800000Y-68100000D03*
X117800000Y-67300000D03*
X117800000Y-66500000D03*
X117800000Y-65700000D03*
X117800000Y-64900000D03*
X117800000Y-64100000D03*
X117800000Y-63300000D03*
X117800000Y-62500000D03*
X117800000Y-61700000D03*
X117800000Y-60900000D03*
X117800000Y-60100000D03*
X117800000Y-59300000D03*
X117800000Y-58500000D03*
X117800000Y-57700000D03*
X117800000Y-56900000D03*
X117800000Y-56100000D03*
X117800000Y-55300000D03*
X118600000Y-69700000D03*
X118600000Y-68900000D03*
X118600000Y-68100000D03*
X118600000Y-67300000D03*
X118600000Y-66500000D03*
X118600000Y-65700000D03*
X118600000Y-64900000D03*
X118600000Y-64100000D03*
X118600000Y-63300000D03*
X118600000Y-62500000D03*
X118600000Y-61700000D03*
X118600000Y-60900000D03*
X118600000Y-60100000D03*
X118600000Y-59300000D03*
X118600000Y-58500000D03*
X118600000Y-57700000D03*
X118600000Y-56900000D03*
X118600000Y-56100000D03*
X118600000Y-55300000D03*
%TD*%
D12*
%TO.C,J1*%
X114450000Y-57250000D03*
X113200000Y-57250000D03*
X111950000Y-57250000D03*
X110700000Y-57250000D03*
X109450000Y-57250000D03*
X108200000Y-57250000D03*
X106950000Y-57250000D03*
X105700000Y-57250000D03*
X104450000Y-57250000D03*
X103200000Y-57250000D03*
G36*
G01*
X101400000Y-57725000D02*
X101400000Y-56775000D01*
G75*
G02*
X101675000Y-56500000I275000J0D01*
G01*
X102225000Y-56500000D01*
G75*
G02*
X102500000Y-56775000I0J-275000D01*
G01*
X102500000Y-57725000D01*
G75*
G02*
X102225000Y-58000000I-275000J0D01*
G01*
X101675000Y-58000000D01*
G75*
G02*
X101400000Y-57725000I0J275000D01*
G01*
G37*
%TD*%
%TO.C,C71*%
G36*
G01*
X119275000Y-51680000D02*
X119025000Y-51680000D01*
G75*
G02*
X118900000Y-51555000I0J125000D01*
G01*
X118900000Y-51245000D01*
G75*
G02*
X119025000Y-51120000I125000J0D01*
G01*
X119275000Y-51120000D01*
G75*
G02*
X119400000Y-51245000I0J-125000D01*
G01*
X119400000Y-51555000D01*
G75*
G02*
X119275000Y-51680000I-125000J0D01*
G01*
G37*
G36*
G01*
X119275000Y-52320000D02*
X119025000Y-52320000D01*
G75*
G02*
X118900000Y-52195000I0J125000D01*
G01*
X118900000Y-51885000D01*
G75*
G02*
X119025000Y-51760000I125000J0D01*
G01*
X119275000Y-51760000D01*
G75*
G02*
X119400000Y-51885000I0J-125000D01*
G01*
X119400000Y-52195000D01*
G75*
G02*
X119275000Y-52320000I-125000J0D01*
G01*
G37*
%TD*%
D14*
%TO.C,J13*%
X127500000Y-88500000D03*
G36*
G01*
X124300000Y-86750000D02*
X124300000Y-90250000D01*
G75*
G02*
X124250000Y-90300000I-50000J0D01*
G01*
X120750000Y-90300000D01*
G75*
G02*
X120700000Y-90250000I0J50000D01*
G01*
X120700000Y-86750000D01*
G75*
G02*
X120750000Y-86700000I50000J0D01*
G01*
X124250000Y-86700000D01*
G75*
G02*
X124300000Y-86750000I0J-50000D01*
G01*
G37*
D15*
X130500000Y-98500000D03*
X119500000Y-98500000D03*
%TD*%
D16*
%TO.C,J12*%
X143250000Y-83500000D03*
X143250000Y-87000000D03*
G36*
G01*
X141750000Y-88950000D02*
X144750000Y-88950000D01*
G75*
G02*
X144800000Y-89000000I0J-50000D01*
G01*
X144800000Y-92000000D01*
G75*
G02*
X144750000Y-92050000I-50000J0D01*
G01*
X141750000Y-92050000D01*
G75*
G02*
X141700000Y-92000000I0J50000D01*
G01*
X141700000Y-89000000D01*
G75*
G02*
X141750000Y-88950000I50000J0D01*
G01*
G37*
D15*
X148250000Y-80500000D03*
X148250000Y-93500000D03*
%TD*%
D16*
%TO.C,J11*%
X106750000Y-90500000D03*
X106750000Y-87000000D03*
G36*
G01*
X108250000Y-85050000D02*
X105250000Y-85050000D01*
G75*
G02*
X105200000Y-85000000I0J50000D01*
G01*
X105200000Y-82000000D01*
G75*
G02*
X105250000Y-81950000I50000J0D01*
G01*
X108250000Y-81950000D01*
G75*
G02*
X108300000Y-82000000I0J-50000D01*
G01*
X108300000Y-85000000D01*
G75*
G02*
X108250000Y-85050000I-50000J0D01*
G01*
G37*
D15*
X101750000Y-93500000D03*
X101750000Y-80500000D03*
%TD*%
D10*
%TO.C,L1*%
G36*
X127240245Y-84311539D02*
G01*
X127230866Y-84308694D01*
X127222221Y-84304073D01*
X127214645Y-84297855D01*
X127208427Y-84290279D01*
X127203806Y-84281634D01*
X127200961Y-84272255D01*
X127200000Y-84262500D01*
X127200000Y-83062500D01*
X127200961Y-83052745D01*
X127203806Y-83043366D01*
X127208427Y-83034721D01*
X127213523Y-83028303D01*
X128325000Y-81842728D01*
X128325000Y-80082272D01*
X127213523Y-78896697D01*
X127207553Y-78888924D01*
X127203213Y-78880135D01*
X127200672Y-78870668D01*
X127200000Y-78862500D01*
X127200000Y-77662500D01*
X127200961Y-77652745D01*
X127203806Y-77643366D01*
X127208427Y-77634721D01*
X127214645Y-77627145D01*
X127222221Y-77620927D01*
X127230866Y-77616306D01*
X127240245Y-77613461D01*
X127250000Y-77612500D01*
X128375000Y-77612500D01*
X128384755Y-77613461D01*
X128394134Y-77616306D01*
X128402779Y-77620927D01*
X128410355Y-77627145D01*
X129585355Y-78802145D01*
X129591573Y-78809721D01*
X129596194Y-78818366D01*
X129599039Y-78827745D01*
X129600000Y-78837500D01*
X129600000Y-83087500D01*
X129599039Y-83097255D01*
X129596194Y-83106634D01*
X129591573Y-83115279D01*
X129585355Y-83122855D01*
X128410355Y-84297855D01*
X128402779Y-84304073D01*
X128394134Y-84308694D01*
X128384755Y-84311539D01*
X128375000Y-84312500D01*
X127250000Y-84312500D01*
X127240245Y-84311539D01*
G37*
G36*
X125259755Y-77613461D02*
G01*
X125269134Y-77616306D01*
X125277779Y-77620927D01*
X125285355Y-77627145D01*
X125291573Y-77634721D01*
X125296194Y-77643366D01*
X125299039Y-77652745D01*
X125300000Y-77662500D01*
X125300000Y-78862500D01*
X125299039Y-78872255D01*
X125296194Y-78881634D01*
X125291573Y-78890279D01*
X125286477Y-78896697D01*
X124175000Y-80082272D01*
X124175000Y-81842728D01*
X125286477Y-83028303D01*
X125292447Y-83036076D01*
X125296787Y-83044865D01*
X125299328Y-83054332D01*
X125300000Y-83062500D01*
X125300000Y-84262500D01*
X125299039Y-84272255D01*
X125296194Y-84281634D01*
X125291573Y-84290279D01*
X125285355Y-84297855D01*
X125277779Y-84304073D01*
X125269134Y-84308694D01*
X125259755Y-84311539D01*
X125250000Y-84312500D01*
X124125000Y-84312500D01*
X124115245Y-84311539D01*
X124105866Y-84308694D01*
X124097221Y-84304073D01*
X124089645Y-84297855D01*
X122914645Y-83122855D01*
X122908427Y-83115279D01*
X122903806Y-83106634D01*
X122900961Y-83097255D01*
X122900000Y-83087500D01*
X122900000Y-78837500D01*
X122900961Y-78827745D01*
X122903806Y-78818366D01*
X122908427Y-78809721D01*
X122914645Y-78802145D01*
X124089645Y-77627145D01*
X124097221Y-77620927D01*
X124105866Y-77616306D01*
X124115245Y-77613461D01*
X124125000Y-77612500D01*
X125250000Y-77612500D01*
X125259755Y-77613461D01*
G37*
%TD*%
%TO.C,Q1*%
G36*
G01*
X109050000Y-80624999D02*
X109050000Y-80375001D01*
G75*
G02*
X109100000Y-80325001I50000J0D01*
G01*
X109800000Y-80325001D01*
G75*
G02*
X109850000Y-80375001I0J-50000D01*
G01*
X109850000Y-80624999D01*
G75*
G02*
X109800000Y-80674999I-50000J0D01*
G01*
X109100000Y-80674999D01*
G75*
G02*
X109050000Y-80624999I0J50000D01*
G01*
G37*
G36*
G01*
X109050000Y-81124998D02*
X109050000Y-80875000D01*
G75*
G02*
X109100000Y-80825000I50000J0D01*
G01*
X109800000Y-80825000D01*
G75*
G02*
X109850000Y-80875000I0J-50000D01*
G01*
X109850000Y-81124998D01*
G75*
G02*
X109800000Y-81174998I-50000J0D01*
G01*
X109100000Y-81174998D01*
G75*
G02*
X109050000Y-81124998I0J50000D01*
G01*
G37*
G36*
G01*
X109050000Y-81624999D02*
X109050000Y-81375001D01*
G75*
G02*
X109100000Y-81325001I50000J0D01*
G01*
X109800000Y-81325001D01*
G75*
G02*
X109850000Y-81375001I0J-50000D01*
G01*
X109850000Y-81624999D01*
G75*
G02*
X109800000Y-81674999I-50000J0D01*
G01*
X109100000Y-81674999D01*
G75*
G02*
X109050000Y-81624999I0J50000D01*
G01*
G37*
G36*
G01*
X109050000Y-82124998D02*
X109050000Y-81875000D01*
G75*
G02*
X109100000Y-81825000I50000J0D01*
G01*
X109800000Y-81825000D01*
G75*
G02*
X109850000Y-81875000I0J-50000D01*
G01*
X109850000Y-82124998D01*
G75*
G02*
X109800000Y-82174998I-50000J0D01*
G01*
X109100000Y-82174998D01*
G75*
G02*
X109050000Y-82124998I0J50000D01*
G01*
G37*
G36*
G01*
X109050000Y-82625000D02*
X109050000Y-82375002D01*
G75*
G02*
X109100000Y-82325002I50000J0D01*
G01*
X109800000Y-82325002D01*
G75*
G02*
X109850000Y-82375002I0J-50000D01*
G01*
X109850000Y-82625000D01*
G75*
G02*
X109800000Y-82675000I-50000J0D01*
G01*
X109100000Y-82675000D01*
G75*
G02*
X109050000Y-82625000I0J50000D01*
G01*
G37*
G36*
G01*
X109050000Y-83124999D02*
X109050000Y-82875001D01*
G75*
G02*
X109100000Y-82825001I50000J0D01*
G01*
X109800000Y-82825001D01*
G75*
G02*
X109850000Y-82875001I0J-50000D01*
G01*
X109850000Y-83124999D01*
G75*
G02*
X109800000Y-83174999I-50000J0D01*
G01*
X109100000Y-83174999D01*
G75*
G02*
X109050000Y-83124999I0J50000D01*
G01*
G37*
G36*
G01*
X109050000Y-83624998D02*
X109050000Y-83375000D01*
G75*
G02*
X109100000Y-83325000I50000J0D01*
G01*
X109800000Y-83325000D01*
G75*
G02*
X109850000Y-83375000I0J-50000D01*
G01*
X109850000Y-83624998D01*
G75*
G02*
X109800000Y-83674998I-50000J0D01*
G01*
X109100000Y-83674998D01*
G75*
G02*
X109050000Y-83624998I0J50000D01*
G01*
G37*
G36*
G01*
X109050000Y-84125000D02*
X109050000Y-83875002D01*
G75*
G02*
X109100000Y-83825002I50000J0D01*
G01*
X109800000Y-83825002D01*
G75*
G02*
X109850000Y-83875002I0J-50000D01*
G01*
X109850000Y-84125000D01*
G75*
G02*
X109800000Y-84175000I-50000J0D01*
G01*
X109100000Y-84175000D01*
G75*
G02*
X109050000Y-84125000I0J50000D01*
G01*
G37*
G36*
G01*
X109050000Y-84624999D02*
X109050000Y-84375001D01*
G75*
G02*
X109100000Y-84325001I50000J0D01*
G01*
X109800000Y-84325001D01*
G75*
G02*
X109850000Y-84375001I0J-50000D01*
G01*
X109850000Y-84624999D01*
G75*
G02*
X109800000Y-84674999I-50000J0D01*
G01*
X109100000Y-84674999D01*
G75*
G02*
X109050000Y-84624999I0J50000D01*
G01*
G37*
G36*
G01*
X109050000Y-85125000D02*
X109050000Y-84875002D01*
G75*
G02*
X109100000Y-84825002I50000J0D01*
G01*
X109800000Y-84825002D01*
G75*
G02*
X109850000Y-84875002I0J-50000D01*
G01*
X109850000Y-85125000D01*
G75*
G02*
X109800000Y-85175000I-50000J0D01*
G01*
X109100000Y-85175000D01*
G75*
G02*
X109050000Y-85125000I0J50000D01*
G01*
G37*
G36*
G01*
X109050000Y-85624999D02*
X109050000Y-85375001D01*
G75*
G02*
X109100000Y-85325001I50000J0D01*
G01*
X109800000Y-85325001D01*
G75*
G02*
X109850000Y-85375001I0J-50000D01*
G01*
X109850000Y-85624999D01*
G75*
G02*
X109800000Y-85674999I-50000J0D01*
G01*
X109100000Y-85674999D01*
G75*
G02*
X109050000Y-85624999I0J50000D01*
G01*
G37*
G36*
G01*
X113750000Y-85624999D02*
X113750000Y-85375001D01*
G75*
G02*
X113800000Y-85325001I50000J0D01*
G01*
X114500000Y-85325001D01*
G75*
G02*
X114550000Y-85375001I0J-50000D01*
G01*
X114550000Y-85624999D01*
G75*
G02*
X114500000Y-85674999I-50000J0D01*
G01*
X113800000Y-85674999D01*
G75*
G02*
X113750000Y-85624999I0J50000D01*
G01*
G37*
G36*
G01*
X113750000Y-85125000D02*
X113750000Y-84875002D01*
G75*
G02*
X113800000Y-84825002I50000J0D01*
G01*
X114500000Y-84825002D01*
G75*
G02*
X114550000Y-84875002I0J-50000D01*
G01*
X114550000Y-85125000D01*
G75*
G02*
X114500000Y-85175000I-50000J0D01*
G01*
X113800000Y-85175000D01*
G75*
G02*
X113750000Y-85125000I0J50000D01*
G01*
G37*
G36*
G01*
X113750000Y-84624999D02*
X113750000Y-84375001D01*
G75*
G02*
X113800000Y-84325001I50000J0D01*
G01*
X114500000Y-84325001D01*
G75*
G02*
X114550000Y-84375001I0J-50000D01*
G01*
X114550000Y-84624999D01*
G75*
G02*
X114500000Y-84674999I-50000J0D01*
G01*
X113800000Y-84674999D01*
G75*
G02*
X113750000Y-84624999I0J50000D01*
G01*
G37*
G36*
G01*
X113750000Y-84125000D02*
X113750000Y-83875002D01*
G75*
G02*
X113800000Y-83825002I50000J0D01*
G01*
X114500000Y-83825002D01*
G75*
G02*
X114550000Y-83875002I0J-50000D01*
G01*
X114550000Y-84125000D01*
G75*
G02*
X114500000Y-84175000I-50000J0D01*
G01*
X113800000Y-84175000D01*
G75*
G02*
X113750000Y-84125000I0J50000D01*
G01*
G37*
G36*
G01*
X113750000Y-83624998D02*
X113750000Y-83375000D01*
G75*
G02*
X113800000Y-83325000I50000J0D01*
G01*
X114500000Y-83325000D01*
G75*
G02*
X114550000Y-83375000I0J-50000D01*
G01*
X114550000Y-83624998D01*
G75*
G02*
X114500000Y-83674998I-50000J0D01*
G01*
X113800000Y-83674998D01*
G75*
G02*
X113750000Y-83624998I0J50000D01*
G01*
G37*
G36*
G01*
X113750000Y-83124999D02*
X113750000Y-82875001D01*
G75*
G02*
X113800000Y-82825001I50000J0D01*
G01*
X114500000Y-82825001D01*
G75*
G02*
X114550000Y-82875001I0J-50000D01*
G01*
X114550000Y-83124999D01*
G75*
G02*
X114500000Y-83174999I-50000J0D01*
G01*
X113800000Y-83174999D01*
G75*
G02*
X113750000Y-83124999I0J50000D01*
G01*
G37*
G36*
G01*
X113750000Y-82625000D02*
X113750000Y-82375002D01*
G75*
G02*
X113800000Y-82325002I50000J0D01*
G01*
X114500000Y-82325002D01*
G75*
G02*
X114550000Y-82375002I0J-50000D01*
G01*
X114550000Y-82625000D01*
G75*
G02*
X114500000Y-82675000I-50000J0D01*
G01*
X113800000Y-82675000D01*
G75*
G02*
X113750000Y-82625000I0J50000D01*
G01*
G37*
G36*
G01*
X113750000Y-82124998D02*
X113750000Y-81875000D01*
G75*
G02*
X113800000Y-81825000I50000J0D01*
G01*
X114500000Y-81825000D01*
G75*
G02*
X114550000Y-81875000I0J-50000D01*
G01*
X114550000Y-82124998D01*
G75*
G02*
X114500000Y-82174998I-50000J0D01*
G01*
X113800000Y-82174998D01*
G75*
G02*
X113750000Y-82124998I0J50000D01*
G01*
G37*
G36*
G01*
X113750000Y-81624999D02*
X113750000Y-81375001D01*
G75*
G02*
X113800000Y-81325001I50000J0D01*
G01*
X114500000Y-81325001D01*
G75*
G02*
X114550000Y-81375001I0J-50000D01*
G01*
X114550000Y-81624999D01*
G75*
G02*
X114500000Y-81674999I-50000J0D01*
G01*
X113800000Y-81674999D01*
G75*
G02*
X113750000Y-81624999I0J50000D01*
G01*
G37*
G36*
G01*
X113750000Y-81124998D02*
X113750000Y-80875000D01*
G75*
G02*
X113800000Y-80825000I50000J0D01*
G01*
X114500000Y-80825000D01*
G75*
G02*
X114550000Y-80875000I0J-50000D01*
G01*
X114550000Y-81124998D01*
G75*
G02*
X114500000Y-81174998I-50000J0D01*
G01*
X113800000Y-81174998D01*
G75*
G02*
X113750000Y-81124998I0J50000D01*
G01*
G37*
G36*
G01*
X113750000Y-80624999D02*
X113750000Y-80375001D01*
G75*
G02*
X113800000Y-80325001I50000J0D01*
G01*
X114500000Y-80325001D01*
G75*
G02*
X114550000Y-80375001I0J-50000D01*
G01*
X114550000Y-80624999D01*
G75*
G02*
X114500000Y-80674999I-50000J0D01*
G01*
X113800000Y-80674999D01*
G75*
G02*
X113750000Y-80624999I0J50000D01*
G01*
G37*
G36*
G01*
X109420001Y-80174501D02*
X109420001Y-79799501D01*
G75*
G02*
X109470001Y-79749501I50000J0D01*
G01*
X109899999Y-79749501D01*
G75*
G02*
X109949999Y-79799501I0J-50000D01*
G01*
X109949999Y-80174501D01*
G75*
G02*
X109899999Y-80224501I-50000J0D01*
G01*
X109470001Y-80224501D01*
G75*
G02*
X109420001Y-80174501I0J50000D01*
G01*
G37*
G36*
G01*
X109420001Y-86200499D02*
X109420001Y-85825499D01*
G75*
G02*
X109470001Y-85775499I50000J0D01*
G01*
X109899999Y-85775499D01*
G75*
G02*
X109949999Y-85825499I0J-50000D01*
G01*
X109949999Y-86200499D01*
G75*
G02*
X109899999Y-86250499I-50000J0D01*
G01*
X109470001Y-86250499D01*
G75*
G02*
X109420001Y-86200499I0J50000D01*
G01*
G37*
G36*
G01*
X113650001Y-86200499D02*
X113650001Y-85825499D01*
G75*
G02*
X113700001Y-85775499I50000J0D01*
G01*
X114129999Y-85775499D01*
G75*
G02*
X114179999Y-85825499I0J-50000D01*
G01*
X114179999Y-86200499D01*
G75*
G02*
X114129999Y-86250499I-50000J0D01*
G01*
X113700001Y-86250499D01*
G75*
G02*
X113650001Y-86200499I0J50000D01*
G01*
G37*
G36*
G01*
X113650001Y-80174501D02*
X113650001Y-79799501D01*
G75*
G02*
X113700001Y-79749501I50000J0D01*
G01*
X114129999Y-79749501D01*
G75*
G02*
X114179999Y-79799501I0J-50000D01*
G01*
X114179999Y-80174501D01*
G75*
G02*
X114129999Y-80224501I-50000J0D01*
G01*
X113700001Y-80224501D01*
G75*
G02*
X113650001Y-80174501I0J50000D01*
G01*
G37*
G36*
G01*
X110100000Y-85699999D02*
X110100000Y-80300001D01*
G75*
G02*
X110150000Y-80250001I50000J0D01*
G01*
X113450000Y-80250001D01*
G75*
G02*
X113500000Y-80300001I0J-50000D01*
G01*
X113500000Y-85699999D01*
G75*
G02*
X113450000Y-85749999I-50000J0D01*
G01*
X110150000Y-85749999D01*
G75*
G02*
X110100000Y-85699999I0J50000D01*
G01*
G37*
%TD*%
%TO.C,Q3*%
G36*
G01*
X109050000Y-87624999D02*
X109050000Y-87375001D01*
G75*
G02*
X109100000Y-87325001I50000J0D01*
G01*
X109800000Y-87325001D01*
G75*
G02*
X109850000Y-87375001I0J-50000D01*
G01*
X109850000Y-87624999D01*
G75*
G02*
X109800000Y-87674999I-50000J0D01*
G01*
X109100000Y-87674999D01*
G75*
G02*
X109050000Y-87624999I0J50000D01*
G01*
G37*
G36*
G01*
X109050000Y-88124998D02*
X109050000Y-87875000D01*
G75*
G02*
X109100000Y-87825000I50000J0D01*
G01*
X109800000Y-87825000D01*
G75*
G02*
X109850000Y-87875000I0J-50000D01*
G01*
X109850000Y-88124998D01*
G75*
G02*
X109800000Y-88174998I-50000J0D01*
G01*
X109100000Y-88174998D01*
G75*
G02*
X109050000Y-88124998I0J50000D01*
G01*
G37*
G36*
G01*
X109050000Y-88624999D02*
X109050000Y-88375001D01*
G75*
G02*
X109100000Y-88325001I50000J0D01*
G01*
X109800000Y-88325001D01*
G75*
G02*
X109850000Y-88375001I0J-50000D01*
G01*
X109850000Y-88624999D01*
G75*
G02*
X109800000Y-88674999I-50000J0D01*
G01*
X109100000Y-88674999D01*
G75*
G02*
X109050000Y-88624999I0J50000D01*
G01*
G37*
G36*
G01*
X109050000Y-89124998D02*
X109050000Y-88875000D01*
G75*
G02*
X109100000Y-88825000I50000J0D01*
G01*
X109800000Y-88825000D01*
G75*
G02*
X109850000Y-88875000I0J-50000D01*
G01*
X109850000Y-89124998D01*
G75*
G02*
X109800000Y-89174998I-50000J0D01*
G01*
X109100000Y-89174998D01*
G75*
G02*
X109050000Y-89124998I0J50000D01*
G01*
G37*
G36*
G01*
X109050000Y-89625000D02*
X109050000Y-89375002D01*
G75*
G02*
X109100000Y-89325002I50000J0D01*
G01*
X109800000Y-89325002D01*
G75*
G02*
X109850000Y-89375002I0J-50000D01*
G01*
X109850000Y-89625000D01*
G75*
G02*
X109800000Y-89675000I-50000J0D01*
G01*
X109100000Y-89675000D01*
G75*
G02*
X109050000Y-89625000I0J50000D01*
G01*
G37*
G36*
G01*
X109050000Y-90124999D02*
X109050000Y-89875001D01*
G75*
G02*
X109100000Y-89825001I50000J0D01*
G01*
X109800000Y-89825001D01*
G75*
G02*
X109850000Y-89875001I0J-50000D01*
G01*
X109850000Y-90124999D01*
G75*
G02*
X109800000Y-90174999I-50000J0D01*
G01*
X109100000Y-90174999D01*
G75*
G02*
X109050000Y-90124999I0J50000D01*
G01*
G37*
G36*
G01*
X109050000Y-90624998D02*
X109050000Y-90375000D01*
G75*
G02*
X109100000Y-90325000I50000J0D01*
G01*
X109800000Y-90325000D01*
G75*
G02*
X109850000Y-90375000I0J-50000D01*
G01*
X109850000Y-90624998D01*
G75*
G02*
X109800000Y-90674998I-50000J0D01*
G01*
X109100000Y-90674998D01*
G75*
G02*
X109050000Y-90624998I0J50000D01*
G01*
G37*
G36*
G01*
X109050000Y-91125000D02*
X109050000Y-90875002D01*
G75*
G02*
X109100000Y-90825002I50000J0D01*
G01*
X109800000Y-90825002D01*
G75*
G02*
X109850000Y-90875002I0J-50000D01*
G01*
X109850000Y-91125000D01*
G75*
G02*
X109800000Y-91175000I-50000J0D01*
G01*
X109100000Y-91175000D01*
G75*
G02*
X109050000Y-91125000I0J50000D01*
G01*
G37*
G36*
G01*
X109050000Y-91624999D02*
X109050000Y-91375001D01*
G75*
G02*
X109100000Y-91325001I50000J0D01*
G01*
X109800000Y-91325001D01*
G75*
G02*
X109850000Y-91375001I0J-50000D01*
G01*
X109850000Y-91624999D01*
G75*
G02*
X109800000Y-91674999I-50000J0D01*
G01*
X109100000Y-91674999D01*
G75*
G02*
X109050000Y-91624999I0J50000D01*
G01*
G37*
G36*
G01*
X109050000Y-92125000D02*
X109050000Y-91875002D01*
G75*
G02*
X109100000Y-91825002I50000J0D01*
G01*
X109800000Y-91825002D01*
G75*
G02*
X109850000Y-91875002I0J-50000D01*
G01*
X109850000Y-92125000D01*
G75*
G02*
X109800000Y-92175000I-50000J0D01*
G01*
X109100000Y-92175000D01*
G75*
G02*
X109050000Y-92125000I0J50000D01*
G01*
G37*
G36*
G01*
X109050000Y-92624999D02*
X109050000Y-92375001D01*
G75*
G02*
X109100000Y-92325001I50000J0D01*
G01*
X109800000Y-92325001D01*
G75*
G02*
X109850000Y-92375001I0J-50000D01*
G01*
X109850000Y-92624999D01*
G75*
G02*
X109800000Y-92674999I-50000J0D01*
G01*
X109100000Y-92674999D01*
G75*
G02*
X109050000Y-92624999I0J50000D01*
G01*
G37*
G36*
G01*
X113750000Y-92624999D02*
X113750000Y-92375001D01*
G75*
G02*
X113800000Y-92325001I50000J0D01*
G01*
X114500000Y-92325001D01*
G75*
G02*
X114550000Y-92375001I0J-50000D01*
G01*
X114550000Y-92624999D01*
G75*
G02*
X114500000Y-92674999I-50000J0D01*
G01*
X113800000Y-92674999D01*
G75*
G02*
X113750000Y-92624999I0J50000D01*
G01*
G37*
G36*
G01*
X113750000Y-92125000D02*
X113750000Y-91875002D01*
G75*
G02*
X113800000Y-91825002I50000J0D01*
G01*
X114500000Y-91825002D01*
G75*
G02*
X114550000Y-91875002I0J-50000D01*
G01*
X114550000Y-92125000D01*
G75*
G02*
X114500000Y-92175000I-50000J0D01*
G01*
X113800000Y-92175000D01*
G75*
G02*
X113750000Y-92125000I0J50000D01*
G01*
G37*
G36*
G01*
X113750000Y-91624999D02*
X113750000Y-91375001D01*
G75*
G02*
X113800000Y-91325001I50000J0D01*
G01*
X114500000Y-91325001D01*
G75*
G02*
X114550000Y-91375001I0J-50000D01*
G01*
X114550000Y-91624999D01*
G75*
G02*
X114500000Y-91674999I-50000J0D01*
G01*
X113800000Y-91674999D01*
G75*
G02*
X113750000Y-91624999I0J50000D01*
G01*
G37*
G36*
G01*
X113750000Y-91125000D02*
X113750000Y-90875002D01*
G75*
G02*
X113800000Y-90825002I50000J0D01*
G01*
X114500000Y-90825002D01*
G75*
G02*
X114550000Y-90875002I0J-50000D01*
G01*
X114550000Y-91125000D01*
G75*
G02*
X114500000Y-91175000I-50000J0D01*
G01*
X113800000Y-91175000D01*
G75*
G02*
X113750000Y-91125000I0J50000D01*
G01*
G37*
G36*
G01*
X113750000Y-90624998D02*
X113750000Y-90375000D01*
G75*
G02*
X113800000Y-90325000I50000J0D01*
G01*
X114500000Y-90325000D01*
G75*
G02*
X114550000Y-90375000I0J-50000D01*
G01*
X114550000Y-90624998D01*
G75*
G02*
X114500000Y-90674998I-50000J0D01*
G01*
X113800000Y-90674998D01*
G75*
G02*
X113750000Y-90624998I0J50000D01*
G01*
G37*
G36*
G01*
X113750000Y-90124999D02*
X113750000Y-89875001D01*
G75*
G02*
X113800000Y-89825001I50000J0D01*
G01*
X114500000Y-89825001D01*
G75*
G02*
X114550000Y-89875001I0J-50000D01*
G01*
X114550000Y-90124999D01*
G75*
G02*
X114500000Y-90174999I-50000J0D01*
G01*
X113800000Y-90174999D01*
G75*
G02*
X113750000Y-90124999I0J50000D01*
G01*
G37*
G36*
G01*
X113750000Y-89625000D02*
X113750000Y-89375002D01*
G75*
G02*
X113800000Y-89325002I50000J0D01*
G01*
X114500000Y-89325002D01*
G75*
G02*
X114550000Y-89375002I0J-50000D01*
G01*
X114550000Y-89625000D01*
G75*
G02*
X114500000Y-89675000I-50000J0D01*
G01*
X113800000Y-89675000D01*
G75*
G02*
X113750000Y-89625000I0J50000D01*
G01*
G37*
G36*
G01*
X113750000Y-89124998D02*
X113750000Y-88875000D01*
G75*
G02*
X113800000Y-88825000I50000J0D01*
G01*
X114500000Y-88825000D01*
G75*
G02*
X114550000Y-88875000I0J-50000D01*
G01*
X114550000Y-89124998D01*
G75*
G02*
X114500000Y-89174998I-50000J0D01*
G01*
X113800000Y-89174998D01*
G75*
G02*
X113750000Y-89124998I0J50000D01*
G01*
G37*
G36*
G01*
X113750000Y-88624999D02*
X113750000Y-88375001D01*
G75*
G02*
X113800000Y-88325001I50000J0D01*
G01*
X114500000Y-88325001D01*
G75*
G02*
X114550000Y-88375001I0J-50000D01*
G01*
X114550000Y-88624999D01*
G75*
G02*
X114500000Y-88674999I-50000J0D01*
G01*
X113800000Y-88674999D01*
G75*
G02*
X113750000Y-88624999I0J50000D01*
G01*
G37*
G36*
G01*
X113750000Y-88124998D02*
X113750000Y-87875000D01*
G75*
G02*
X113800000Y-87825000I50000J0D01*
G01*
X114500000Y-87825000D01*
G75*
G02*
X114550000Y-87875000I0J-50000D01*
G01*
X114550000Y-88124998D01*
G75*
G02*
X114500000Y-88174998I-50000J0D01*
G01*
X113800000Y-88174998D01*
G75*
G02*
X113750000Y-88124998I0J50000D01*
G01*
G37*
G36*
G01*
X113750000Y-87624999D02*
X113750000Y-87375001D01*
G75*
G02*
X113800000Y-87325001I50000J0D01*
G01*
X114500000Y-87325001D01*
G75*
G02*
X114550000Y-87375001I0J-50000D01*
G01*
X114550000Y-87624999D01*
G75*
G02*
X114500000Y-87674999I-50000J0D01*
G01*
X113800000Y-87674999D01*
G75*
G02*
X113750000Y-87624999I0J50000D01*
G01*
G37*
G36*
G01*
X109420001Y-87174501D02*
X109420001Y-86799501D01*
G75*
G02*
X109470001Y-86749501I50000J0D01*
G01*
X109899999Y-86749501D01*
G75*
G02*
X109949999Y-86799501I0J-50000D01*
G01*
X109949999Y-87174501D01*
G75*
G02*
X109899999Y-87224501I-50000J0D01*
G01*
X109470001Y-87224501D01*
G75*
G02*
X109420001Y-87174501I0J50000D01*
G01*
G37*
G36*
G01*
X109420001Y-93200499D02*
X109420001Y-92825499D01*
G75*
G02*
X109470001Y-92775499I50000J0D01*
G01*
X109899999Y-92775499D01*
G75*
G02*
X109949999Y-92825499I0J-50000D01*
G01*
X109949999Y-93200499D01*
G75*
G02*
X109899999Y-93250499I-50000J0D01*
G01*
X109470001Y-93250499D01*
G75*
G02*
X109420001Y-93200499I0J50000D01*
G01*
G37*
G36*
G01*
X113650001Y-93200499D02*
X113650001Y-92825499D01*
G75*
G02*
X113700001Y-92775499I50000J0D01*
G01*
X114129999Y-92775499D01*
G75*
G02*
X114179999Y-92825499I0J-50000D01*
G01*
X114179999Y-93200499D01*
G75*
G02*
X114129999Y-93250499I-50000J0D01*
G01*
X113700001Y-93250499D01*
G75*
G02*
X113650001Y-93200499I0J50000D01*
G01*
G37*
G36*
G01*
X113650001Y-87174501D02*
X113650001Y-86799501D01*
G75*
G02*
X113700001Y-86749501I50000J0D01*
G01*
X114129999Y-86749501D01*
G75*
G02*
X114179999Y-86799501I0J-50000D01*
G01*
X114179999Y-87174501D01*
G75*
G02*
X114129999Y-87224501I-50000J0D01*
G01*
X113700001Y-87224501D01*
G75*
G02*
X113650001Y-87174501I0J50000D01*
G01*
G37*
G36*
G01*
X110100000Y-92699999D02*
X110100000Y-87300001D01*
G75*
G02*
X110150000Y-87250001I50000J0D01*
G01*
X113450000Y-87250001D01*
G75*
G02*
X113500000Y-87300001I0J-50000D01*
G01*
X113500000Y-92699999D01*
G75*
G02*
X113450000Y-92749999I-50000J0D01*
G01*
X110150000Y-92749999D01*
G75*
G02*
X110100000Y-92699999I0J50000D01*
G01*
G37*
%TD*%
%TO.C,Q4*%
G36*
G01*
X140950000Y-93375000D02*
X140950000Y-93624998D01*
G75*
G02*
X140900000Y-93674998I-50000J0D01*
G01*
X140200000Y-93674998D01*
G75*
G02*
X140150000Y-93624998I0J50000D01*
G01*
X140150000Y-93375000D01*
G75*
G02*
X140200000Y-93325000I50000J0D01*
G01*
X140900000Y-93325000D01*
G75*
G02*
X140950000Y-93375000I0J-50000D01*
G01*
G37*
G36*
G01*
X140950000Y-92875001D02*
X140950000Y-93124999D01*
G75*
G02*
X140900000Y-93174999I-50000J0D01*
G01*
X140200000Y-93174999D01*
G75*
G02*
X140150000Y-93124999I0J50000D01*
G01*
X140150000Y-92875001D01*
G75*
G02*
X140200000Y-92825001I50000J0D01*
G01*
X140900000Y-92825001D01*
G75*
G02*
X140950000Y-92875001I0J-50000D01*
G01*
G37*
G36*
G01*
X140950000Y-92375000D02*
X140950000Y-92624998D01*
G75*
G02*
X140900000Y-92674998I-50000J0D01*
G01*
X140200000Y-92674998D01*
G75*
G02*
X140150000Y-92624998I0J50000D01*
G01*
X140150000Y-92375000D01*
G75*
G02*
X140200000Y-92325000I50000J0D01*
G01*
X140900000Y-92325000D01*
G75*
G02*
X140950000Y-92375000I0J-50000D01*
G01*
G37*
G36*
G01*
X140950000Y-91875001D02*
X140950000Y-92124999D01*
G75*
G02*
X140900000Y-92174999I-50000J0D01*
G01*
X140200000Y-92174999D01*
G75*
G02*
X140150000Y-92124999I0J50000D01*
G01*
X140150000Y-91875001D01*
G75*
G02*
X140200000Y-91825001I50000J0D01*
G01*
X140900000Y-91825001D01*
G75*
G02*
X140950000Y-91875001I0J-50000D01*
G01*
G37*
G36*
G01*
X140950000Y-91374999D02*
X140950000Y-91624997D01*
G75*
G02*
X140900000Y-91674997I-50000J0D01*
G01*
X140200000Y-91674997D01*
G75*
G02*
X140150000Y-91624997I0J50000D01*
G01*
X140150000Y-91374999D01*
G75*
G02*
X140200000Y-91324999I50000J0D01*
G01*
X140900000Y-91324999D01*
G75*
G02*
X140950000Y-91374999I0J-50000D01*
G01*
G37*
G36*
G01*
X140950000Y-90875000D02*
X140950000Y-91124998D01*
G75*
G02*
X140900000Y-91174998I-50000J0D01*
G01*
X140200000Y-91174998D01*
G75*
G02*
X140150000Y-91124998I0J50000D01*
G01*
X140150000Y-90875000D01*
G75*
G02*
X140200000Y-90825000I50000J0D01*
G01*
X140900000Y-90825000D01*
G75*
G02*
X140950000Y-90875000I0J-50000D01*
G01*
G37*
G36*
G01*
X140950000Y-90375001D02*
X140950000Y-90624999D01*
G75*
G02*
X140900000Y-90674999I-50000J0D01*
G01*
X140200000Y-90674999D01*
G75*
G02*
X140150000Y-90624999I0J50000D01*
G01*
X140150000Y-90375001D01*
G75*
G02*
X140200000Y-90325001I50000J0D01*
G01*
X140900000Y-90325001D01*
G75*
G02*
X140950000Y-90375001I0J-50000D01*
G01*
G37*
G36*
G01*
X140950000Y-89874999D02*
X140950000Y-90124997D01*
G75*
G02*
X140900000Y-90174997I-50000J0D01*
G01*
X140200000Y-90174997D01*
G75*
G02*
X140150000Y-90124997I0J50000D01*
G01*
X140150000Y-89874999D01*
G75*
G02*
X140200000Y-89824999I50000J0D01*
G01*
X140900000Y-89824999D01*
G75*
G02*
X140950000Y-89874999I0J-50000D01*
G01*
G37*
G36*
G01*
X140950000Y-89375000D02*
X140950000Y-89624998D01*
G75*
G02*
X140900000Y-89674998I-50000J0D01*
G01*
X140200000Y-89674998D01*
G75*
G02*
X140150000Y-89624998I0J50000D01*
G01*
X140150000Y-89375000D01*
G75*
G02*
X140200000Y-89325000I50000J0D01*
G01*
X140900000Y-89325000D01*
G75*
G02*
X140950000Y-89375000I0J-50000D01*
G01*
G37*
G36*
G01*
X140950000Y-88874999D02*
X140950000Y-89124997D01*
G75*
G02*
X140900000Y-89174997I-50000J0D01*
G01*
X140200000Y-89174997D01*
G75*
G02*
X140150000Y-89124997I0J50000D01*
G01*
X140150000Y-88874999D01*
G75*
G02*
X140200000Y-88824999I50000J0D01*
G01*
X140900000Y-88824999D01*
G75*
G02*
X140950000Y-88874999I0J-50000D01*
G01*
G37*
G36*
G01*
X140950000Y-88375000D02*
X140950000Y-88624998D01*
G75*
G02*
X140900000Y-88674998I-50000J0D01*
G01*
X140200000Y-88674998D01*
G75*
G02*
X140150000Y-88624998I0J50000D01*
G01*
X140150000Y-88375000D01*
G75*
G02*
X140200000Y-88325000I50000J0D01*
G01*
X140900000Y-88325000D01*
G75*
G02*
X140950000Y-88375000I0J-50000D01*
G01*
G37*
G36*
G01*
X136250000Y-88375000D02*
X136250000Y-88624998D01*
G75*
G02*
X136200000Y-88674998I-50000J0D01*
G01*
X135500000Y-88674998D01*
G75*
G02*
X135450000Y-88624998I0J50000D01*
G01*
X135450000Y-88375000D01*
G75*
G02*
X135500000Y-88325000I50000J0D01*
G01*
X136200000Y-88325000D01*
G75*
G02*
X136250000Y-88375000I0J-50000D01*
G01*
G37*
G36*
G01*
X136250000Y-88874999D02*
X136250000Y-89124997D01*
G75*
G02*
X136200000Y-89174997I-50000J0D01*
G01*
X135500000Y-89174997D01*
G75*
G02*
X135450000Y-89124997I0J50000D01*
G01*
X135450000Y-88874999D01*
G75*
G02*
X135500000Y-88824999I50000J0D01*
G01*
X136200000Y-88824999D01*
G75*
G02*
X136250000Y-88874999I0J-50000D01*
G01*
G37*
G36*
G01*
X136250000Y-89375000D02*
X136250000Y-89624998D01*
G75*
G02*
X136200000Y-89674998I-50000J0D01*
G01*
X135500000Y-89674998D01*
G75*
G02*
X135450000Y-89624998I0J50000D01*
G01*
X135450000Y-89375000D01*
G75*
G02*
X135500000Y-89325000I50000J0D01*
G01*
X136200000Y-89325000D01*
G75*
G02*
X136250000Y-89375000I0J-50000D01*
G01*
G37*
G36*
G01*
X136250000Y-89874999D02*
X136250000Y-90124997D01*
G75*
G02*
X136200000Y-90174997I-50000J0D01*
G01*
X135500000Y-90174997D01*
G75*
G02*
X135450000Y-90124997I0J50000D01*
G01*
X135450000Y-89874999D01*
G75*
G02*
X135500000Y-89824999I50000J0D01*
G01*
X136200000Y-89824999D01*
G75*
G02*
X136250000Y-89874999I0J-50000D01*
G01*
G37*
G36*
G01*
X136250000Y-90375001D02*
X136250000Y-90624999D01*
G75*
G02*
X136200000Y-90674999I-50000J0D01*
G01*
X135500000Y-90674999D01*
G75*
G02*
X135450000Y-90624999I0J50000D01*
G01*
X135450000Y-90375001D01*
G75*
G02*
X135500000Y-90325001I50000J0D01*
G01*
X136200000Y-90325001D01*
G75*
G02*
X136250000Y-90375001I0J-50000D01*
G01*
G37*
G36*
G01*
X136250000Y-90875000D02*
X136250000Y-91124998D01*
G75*
G02*
X136200000Y-91174998I-50000J0D01*
G01*
X135500000Y-91174998D01*
G75*
G02*
X135450000Y-91124998I0J50000D01*
G01*
X135450000Y-90875000D01*
G75*
G02*
X135500000Y-90825000I50000J0D01*
G01*
X136200000Y-90825000D01*
G75*
G02*
X136250000Y-90875000I0J-50000D01*
G01*
G37*
G36*
G01*
X136250000Y-91374999D02*
X136250000Y-91624997D01*
G75*
G02*
X136200000Y-91674997I-50000J0D01*
G01*
X135500000Y-91674997D01*
G75*
G02*
X135450000Y-91624997I0J50000D01*
G01*
X135450000Y-91374999D01*
G75*
G02*
X135500000Y-91324999I50000J0D01*
G01*
X136200000Y-91324999D01*
G75*
G02*
X136250000Y-91374999I0J-50000D01*
G01*
G37*
G36*
G01*
X136250000Y-91875001D02*
X136250000Y-92124999D01*
G75*
G02*
X136200000Y-92174999I-50000J0D01*
G01*
X135500000Y-92174999D01*
G75*
G02*
X135450000Y-92124999I0J50000D01*
G01*
X135450000Y-91875001D01*
G75*
G02*
X135500000Y-91825001I50000J0D01*
G01*
X136200000Y-91825001D01*
G75*
G02*
X136250000Y-91875001I0J-50000D01*
G01*
G37*
G36*
G01*
X136250000Y-92375000D02*
X136250000Y-92624998D01*
G75*
G02*
X136200000Y-92674998I-50000J0D01*
G01*
X135500000Y-92674998D01*
G75*
G02*
X135450000Y-92624998I0J50000D01*
G01*
X135450000Y-92375000D01*
G75*
G02*
X135500000Y-92325000I50000J0D01*
G01*
X136200000Y-92325000D01*
G75*
G02*
X136250000Y-92375000I0J-50000D01*
G01*
G37*
G36*
G01*
X136250000Y-92875001D02*
X136250000Y-93124999D01*
G75*
G02*
X136200000Y-93174999I-50000J0D01*
G01*
X135500000Y-93174999D01*
G75*
G02*
X135450000Y-93124999I0J50000D01*
G01*
X135450000Y-92875001D01*
G75*
G02*
X135500000Y-92825001I50000J0D01*
G01*
X136200000Y-92825001D01*
G75*
G02*
X136250000Y-92875001I0J-50000D01*
G01*
G37*
G36*
G01*
X136250000Y-93375000D02*
X136250000Y-93624998D01*
G75*
G02*
X136200000Y-93674998I-50000J0D01*
G01*
X135500000Y-93674998D01*
G75*
G02*
X135450000Y-93624998I0J50000D01*
G01*
X135450000Y-93375000D01*
G75*
G02*
X135500000Y-93325000I50000J0D01*
G01*
X136200000Y-93325000D01*
G75*
G02*
X136250000Y-93375000I0J-50000D01*
G01*
G37*
G36*
G01*
X140579999Y-93825498D02*
X140579999Y-94200498D01*
G75*
G02*
X140529999Y-94250498I-50000J0D01*
G01*
X140100001Y-94250498D01*
G75*
G02*
X140050001Y-94200498I0J50000D01*
G01*
X140050001Y-93825498D01*
G75*
G02*
X140100001Y-93775498I50000J0D01*
G01*
X140529999Y-93775498D01*
G75*
G02*
X140579999Y-93825498I0J-50000D01*
G01*
G37*
G36*
G01*
X140579999Y-87799500D02*
X140579999Y-88174500D01*
G75*
G02*
X140529999Y-88224500I-50000J0D01*
G01*
X140100001Y-88224500D01*
G75*
G02*
X140050001Y-88174500I0J50000D01*
G01*
X140050001Y-87799500D01*
G75*
G02*
X140100001Y-87749500I50000J0D01*
G01*
X140529999Y-87749500D01*
G75*
G02*
X140579999Y-87799500I0J-50000D01*
G01*
G37*
G36*
G01*
X136349999Y-87799500D02*
X136349999Y-88174500D01*
G75*
G02*
X136299999Y-88224500I-50000J0D01*
G01*
X135870001Y-88224500D01*
G75*
G02*
X135820001Y-88174500I0J50000D01*
G01*
X135820001Y-87799500D01*
G75*
G02*
X135870001Y-87749500I50000J0D01*
G01*
X136299999Y-87749500D01*
G75*
G02*
X136349999Y-87799500I0J-50000D01*
G01*
G37*
G36*
G01*
X136349999Y-93825498D02*
X136349999Y-94200498D01*
G75*
G02*
X136299999Y-94250498I-50000J0D01*
G01*
X135870001Y-94250498D01*
G75*
G02*
X135820001Y-94200498I0J50000D01*
G01*
X135820001Y-93825498D01*
G75*
G02*
X135870001Y-93775498I50000J0D01*
G01*
X136299999Y-93775498D01*
G75*
G02*
X136349999Y-93825498I0J-50000D01*
G01*
G37*
G36*
G01*
X139900000Y-88300000D02*
X139900000Y-93699998D01*
G75*
G02*
X139850000Y-93749998I-50000J0D01*
G01*
X136550000Y-93749998D01*
G75*
G02*
X136500000Y-93699998I0J50000D01*
G01*
X136500000Y-88300000D01*
G75*
G02*
X136550000Y-88250000I50000J0D01*
G01*
X139850000Y-88250000D01*
G75*
G02*
X139900000Y-88300000I0J-50000D01*
G01*
G37*
%TD*%
%TO.C,Q6*%
G36*
G01*
X140950000Y-86375000D02*
X140950000Y-86624998D01*
G75*
G02*
X140900000Y-86674998I-50000J0D01*
G01*
X140200000Y-86674998D01*
G75*
G02*
X140150000Y-86624998I0J50000D01*
G01*
X140150000Y-86375000D01*
G75*
G02*
X140200000Y-86325000I50000J0D01*
G01*
X140900000Y-86325000D01*
G75*
G02*
X140950000Y-86375000I0J-50000D01*
G01*
G37*
G36*
G01*
X140950000Y-85875001D02*
X140950000Y-86124999D01*
G75*
G02*
X140900000Y-86174999I-50000J0D01*
G01*
X140200000Y-86174999D01*
G75*
G02*
X140150000Y-86124999I0J50000D01*
G01*
X140150000Y-85875001D01*
G75*
G02*
X140200000Y-85825001I50000J0D01*
G01*
X140900000Y-85825001D01*
G75*
G02*
X140950000Y-85875001I0J-50000D01*
G01*
G37*
G36*
G01*
X140950000Y-85375000D02*
X140950000Y-85624998D01*
G75*
G02*
X140900000Y-85674998I-50000J0D01*
G01*
X140200000Y-85674998D01*
G75*
G02*
X140150000Y-85624998I0J50000D01*
G01*
X140150000Y-85375000D01*
G75*
G02*
X140200000Y-85325000I50000J0D01*
G01*
X140900000Y-85325000D01*
G75*
G02*
X140950000Y-85375000I0J-50000D01*
G01*
G37*
G36*
G01*
X140950000Y-84875001D02*
X140950000Y-85124999D01*
G75*
G02*
X140900000Y-85174999I-50000J0D01*
G01*
X140200000Y-85174999D01*
G75*
G02*
X140150000Y-85124999I0J50000D01*
G01*
X140150000Y-84875001D01*
G75*
G02*
X140200000Y-84825001I50000J0D01*
G01*
X140900000Y-84825001D01*
G75*
G02*
X140950000Y-84875001I0J-50000D01*
G01*
G37*
G36*
G01*
X140950000Y-84374999D02*
X140950000Y-84624997D01*
G75*
G02*
X140900000Y-84674997I-50000J0D01*
G01*
X140200000Y-84674997D01*
G75*
G02*
X140150000Y-84624997I0J50000D01*
G01*
X140150000Y-84374999D01*
G75*
G02*
X140200000Y-84324999I50000J0D01*
G01*
X140900000Y-84324999D01*
G75*
G02*
X140950000Y-84374999I0J-50000D01*
G01*
G37*
G36*
G01*
X140950000Y-83875000D02*
X140950000Y-84124998D01*
G75*
G02*
X140900000Y-84174998I-50000J0D01*
G01*
X140200000Y-84174998D01*
G75*
G02*
X140150000Y-84124998I0J50000D01*
G01*
X140150000Y-83875000D01*
G75*
G02*
X140200000Y-83825000I50000J0D01*
G01*
X140900000Y-83825000D01*
G75*
G02*
X140950000Y-83875000I0J-50000D01*
G01*
G37*
G36*
G01*
X140950000Y-83375001D02*
X140950000Y-83624999D01*
G75*
G02*
X140900000Y-83674999I-50000J0D01*
G01*
X140200000Y-83674999D01*
G75*
G02*
X140150000Y-83624999I0J50000D01*
G01*
X140150000Y-83375001D01*
G75*
G02*
X140200000Y-83325001I50000J0D01*
G01*
X140900000Y-83325001D01*
G75*
G02*
X140950000Y-83375001I0J-50000D01*
G01*
G37*
G36*
G01*
X140950000Y-82874999D02*
X140950000Y-83124997D01*
G75*
G02*
X140900000Y-83174997I-50000J0D01*
G01*
X140200000Y-83174997D01*
G75*
G02*
X140150000Y-83124997I0J50000D01*
G01*
X140150000Y-82874999D01*
G75*
G02*
X140200000Y-82824999I50000J0D01*
G01*
X140900000Y-82824999D01*
G75*
G02*
X140950000Y-82874999I0J-50000D01*
G01*
G37*
G36*
G01*
X140950000Y-82375000D02*
X140950000Y-82624998D01*
G75*
G02*
X140900000Y-82674998I-50000J0D01*
G01*
X140200000Y-82674998D01*
G75*
G02*
X140150000Y-82624998I0J50000D01*
G01*
X140150000Y-82375000D01*
G75*
G02*
X140200000Y-82325000I50000J0D01*
G01*
X140900000Y-82325000D01*
G75*
G02*
X140950000Y-82375000I0J-50000D01*
G01*
G37*
G36*
G01*
X140950000Y-81874999D02*
X140950000Y-82124997D01*
G75*
G02*
X140900000Y-82174997I-50000J0D01*
G01*
X140200000Y-82174997D01*
G75*
G02*
X140150000Y-82124997I0J50000D01*
G01*
X140150000Y-81874999D01*
G75*
G02*
X140200000Y-81824999I50000J0D01*
G01*
X140900000Y-81824999D01*
G75*
G02*
X140950000Y-81874999I0J-50000D01*
G01*
G37*
G36*
G01*
X140950000Y-81375000D02*
X140950000Y-81624998D01*
G75*
G02*
X140900000Y-81674998I-50000J0D01*
G01*
X140200000Y-81674998D01*
G75*
G02*
X140150000Y-81624998I0J50000D01*
G01*
X140150000Y-81375000D01*
G75*
G02*
X140200000Y-81325000I50000J0D01*
G01*
X140900000Y-81325000D01*
G75*
G02*
X140950000Y-81375000I0J-50000D01*
G01*
G37*
G36*
G01*
X136250000Y-81375000D02*
X136250000Y-81624998D01*
G75*
G02*
X136200000Y-81674998I-50000J0D01*
G01*
X135500000Y-81674998D01*
G75*
G02*
X135450000Y-81624998I0J50000D01*
G01*
X135450000Y-81375000D01*
G75*
G02*
X135500000Y-81325000I50000J0D01*
G01*
X136200000Y-81325000D01*
G75*
G02*
X136250000Y-81375000I0J-50000D01*
G01*
G37*
G36*
G01*
X136250000Y-81874999D02*
X136250000Y-82124997D01*
G75*
G02*
X136200000Y-82174997I-50000J0D01*
G01*
X135500000Y-82174997D01*
G75*
G02*
X135450000Y-82124997I0J50000D01*
G01*
X135450000Y-81874999D01*
G75*
G02*
X135500000Y-81824999I50000J0D01*
G01*
X136200000Y-81824999D01*
G75*
G02*
X136250000Y-81874999I0J-50000D01*
G01*
G37*
G36*
G01*
X136250000Y-82375000D02*
X136250000Y-82624998D01*
G75*
G02*
X136200000Y-82674998I-50000J0D01*
G01*
X135500000Y-82674998D01*
G75*
G02*
X135450000Y-82624998I0J50000D01*
G01*
X135450000Y-82375000D01*
G75*
G02*
X135500000Y-82325000I50000J0D01*
G01*
X136200000Y-82325000D01*
G75*
G02*
X136250000Y-82375000I0J-50000D01*
G01*
G37*
G36*
G01*
X136250000Y-82874999D02*
X136250000Y-83124997D01*
G75*
G02*
X136200000Y-83174997I-50000J0D01*
G01*
X135500000Y-83174997D01*
G75*
G02*
X135450000Y-83124997I0J50000D01*
G01*
X135450000Y-82874999D01*
G75*
G02*
X135500000Y-82824999I50000J0D01*
G01*
X136200000Y-82824999D01*
G75*
G02*
X136250000Y-82874999I0J-50000D01*
G01*
G37*
G36*
G01*
X136250000Y-83375001D02*
X136250000Y-83624999D01*
G75*
G02*
X136200000Y-83674999I-50000J0D01*
G01*
X135500000Y-83674999D01*
G75*
G02*
X135450000Y-83624999I0J50000D01*
G01*
X135450000Y-83375001D01*
G75*
G02*
X135500000Y-83325001I50000J0D01*
G01*
X136200000Y-83325001D01*
G75*
G02*
X136250000Y-83375001I0J-50000D01*
G01*
G37*
G36*
G01*
X136250000Y-83875000D02*
X136250000Y-84124998D01*
G75*
G02*
X136200000Y-84174998I-50000J0D01*
G01*
X135500000Y-84174998D01*
G75*
G02*
X135450000Y-84124998I0J50000D01*
G01*
X135450000Y-83875000D01*
G75*
G02*
X135500000Y-83825000I50000J0D01*
G01*
X136200000Y-83825000D01*
G75*
G02*
X136250000Y-83875000I0J-50000D01*
G01*
G37*
G36*
G01*
X136250000Y-84374999D02*
X136250000Y-84624997D01*
G75*
G02*
X136200000Y-84674997I-50000J0D01*
G01*
X135500000Y-84674997D01*
G75*
G02*
X135450000Y-84624997I0J50000D01*
G01*
X135450000Y-84374999D01*
G75*
G02*
X135500000Y-84324999I50000J0D01*
G01*
X136200000Y-84324999D01*
G75*
G02*
X136250000Y-84374999I0J-50000D01*
G01*
G37*
G36*
G01*
X136250000Y-84875001D02*
X136250000Y-85124999D01*
G75*
G02*
X136200000Y-85174999I-50000J0D01*
G01*
X135500000Y-85174999D01*
G75*
G02*
X135450000Y-85124999I0J50000D01*
G01*
X135450000Y-84875001D01*
G75*
G02*
X135500000Y-84825001I50000J0D01*
G01*
X136200000Y-84825001D01*
G75*
G02*
X136250000Y-84875001I0J-50000D01*
G01*
G37*
G36*
G01*
X136250000Y-85375000D02*
X136250000Y-85624998D01*
G75*
G02*
X136200000Y-85674998I-50000J0D01*
G01*
X135500000Y-85674998D01*
G75*
G02*
X135450000Y-85624998I0J50000D01*
G01*
X135450000Y-85375000D01*
G75*
G02*
X135500000Y-85325000I50000J0D01*
G01*
X136200000Y-85325000D01*
G75*
G02*
X136250000Y-85375000I0J-50000D01*
G01*
G37*
G36*
G01*
X136250000Y-85875001D02*
X136250000Y-86124999D01*
G75*
G02*
X136200000Y-86174999I-50000J0D01*
G01*
X135500000Y-86174999D01*
G75*
G02*
X135450000Y-86124999I0J50000D01*
G01*
X135450000Y-85875001D01*
G75*
G02*
X135500000Y-85825001I50000J0D01*
G01*
X136200000Y-85825001D01*
G75*
G02*
X136250000Y-85875001I0J-50000D01*
G01*
G37*
G36*
G01*
X136250000Y-86375000D02*
X136250000Y-86624998D01*
G75*
G02*
X136200000Y-86674998I-50000J0D01*
G01*
X135500000Y-86674998D01*
G75*
G02*
X135450000Y-86624998I0J50000D01*
G01*
X135450000Y-86375000D01*
G75*
G02*
X135500000Y-86325000I50000J0D01*
G01*
X136200000Y-86325000D01*
G75*
G02*
X136250000Y-86375000I0J-50000D01*
G01*
G37*
G36*
G01*
X140579999Y-86825498D02*
X140579999Y-87200498D01*
G75*
G02*
X140529999Y-87250498I-50000J0D01*
G01*
X140100001Y-87250498D01*
G75*
G02*
X140050001Y-87200498I0J50000D01*
G01*
X140050001Y-86825498D01*
G75*
G02*
X140100001Y-86775498I50000J0D01*
G01*
X140529999Y-86775498D01*
G75*
G02*
X140579999Y-86825498I0J-50000D01*
G01*
G37*
G36*
G01*
X140579999Y-80799500D02*
X140579999Y-81174500D01*
G75*
G02*
X140529999Y-81224500I-50000J0D01*
G01*
X140100001Y-81224500D01*
G75*
G02*
X140050001Y-81174500I0J50000D01*
G01*
X140050001Y-80799500D01*
G75*
G02*
X140100001Y-80749500I50000J0D01*
G01*
X140529999Y-80749500D01*
G75*
G02*
X140579999Y-80799500I0J-50000D01*
G01*
G37*
G36*
G01*
X136349999Y-80799500D02*
X136349999Y-81174500D01*
G75*
G02*
X136299999Y-81224500I-50000J0D01*
G01*
X135870001Y-81224500D01*
G75*
G02*
X135820001Y-81174500I0J50000D01*
G01*
X135820001Y-80799500D01*
G75*
G02*
X135870001Y-80749500I50000J0D01*
G01*
X136299999Y-80749500D01*
G75*
G02*
X136349999Y-80799500I0J-50000D01*
G01*
G37*
G36*
G01*
X136349999Y-86825498D02*
X136349999Y-87200498D01*
G75*
G02*
X136299999Y-87250498I-50000J0D01*
G01*
X135870001Y-87250498D01*
G75*
G02*
X135820001Y-87200498I0J50000D01*
G01*
X135820001Y-86825498D01*
G75*
G02*
X135870001Y-86775498I50000J0D01*
G01*
X136299999Y-86775498D01*
G75*
G02*
X136349999Y-86825498I0J-50000D01*
G01*
G37*
G36*
G01*
X139900000Y-81300000D02*
X139900000Y-86699998D01*
G75*
G02*
X139850000Y-86749998I-50000J0D01*
G01*
X136550000Y-86749998D01*
G75*
G02*
X136500000Y-86699998I0J50000D01*
G01*
X136500000Y-81300000D01*
G75*
G02*
X136550000Y-81250000I50000J0D01*
G01*
X139850000Y-81250000D01*
G75*
G02*
X139900000Y-81300000I0J-50000D01*
G01*
G37*
%TD*%
%TO.C,U9*%
G36*
G01*
X141474999Y-55324999D02*
X141474999Y-54825001D01*
G75*
G02*
X141524999Y-54775001I50000J0D01*
G01*
X141724999Y-54775001D01*
G75*
G02*
X141774999Y-54825001I0J-50000D01*
G01*
X141774999Y-55324999D01*
G75*
G02*
X141724999Y-55374999I-50000J0D01*
G01*
X141524999Y-55374999D01*
G75*
G02*
X141474999Y-55324999I0J50000D01*
G01*
G37*
G36*
G01*
X140975000Y-55324999D02*
X140975000Y-54825001D01*
G75*
G02*
X141025000Y-54775001I50000J0D01*
G01*
X141225000Y-54775001D01*
G75*
G02*
X141275000Y-54825001I0J-50000D01*
G01*
X141275000Y-55324999D01*
G75*
G02*
X141225000Y-55374999I-50000J0D01*
G01*
X141025000Y-55374999D01*
G75*
G02*
X140975000Y-55324999I0J50000D01*
G01*
G37*
G36*
G01*
X140474998Y-55324999D02*
X140474998Y-54825001D01*
G75*
G02*
X140524998Y-54775001I50000J0D01*
G01*
X140724998Y-54775001D01*
G75*
G02*
X140774998Y-54825001I0J-50000D01*
G01*
X140774998Y-55324999D01*
G75*
G02*
X140724998Y-55374999I-50000J0D01*
G01*
X140524998Y-55374999D01*
G75*
G02*
X140474998Y-55324999I0J50000D01*
G01*
G37*
G36*
G01*
X139974999Y-55324999D02*
X139974999Y-54825001D01*
G75*
G02*
X140024999Y-54775001I50000J0D01*
G01*
X140224999Y-54775001D01*
G75*
G02*
X140274999Y-54825001I0J-50000D01*
G01*
X140274999Y-55324999D01*
G75*
G02*
X140224999Y-55374999I-50000J0D01*
G01*
X140024999Y-55374999D01*
G75*
G02*
X139974999Y-55324999I0J50000D01*
G01*
G37*
G36*
G01*
X139474997Y-55324999D02*
X139474997Y-54825001D01*
G75*
G02*
X139524997Y-54775001I50000J0D01*
G01*
X139724997Y-54775001D01*
G75*
G02*
X139774997Y-54825001I0J-50000D01*
G01*
X139774997Y-55324999D01*
G75*
G02*
X139724997Y-55374999I-50000J0D01*
G01*
X139524997Y-55374999D01*
G75*
G02*
X139474997Y-55324999I0J50000D01*
G01*
G37*
G36*
G01*
X138974998Y-55324999D02*
X138974998Y-54825001D01*
G75*
G02*
X139024998Y-54775001I50000J0D01*
G01*
X139224998Y-54775001D01*
G75*
G02*
X139274998Y-54825001I0J-50000D01*
G01*
X139274998Y-55324999D01*
G75*
G02*
X139224998Y-55374999I-50000J0D01*
G01*
X139024998Y-55374999D01*
G75*
G02*
X138974998Y-55324999I0J50000D01*
G01*
G37*
G36*
G01*
X138474999Y-55324999D02*
X138474999Y-54825001D01*
G75*
G02*
X138524999Y-54775001I50000J0D01*
G01*
X138724999Y-54775001D01*
G75*
G02*
X138774999Y-54825001I0J-50000D01*
G01*
X138774999Y-55324999D01*
G75*
G02*
X138724999Y-55374999I-50000J0D01*
G01*
X138524999Y-55374999D01*
G75*
G02*
X138474999Y-55324999I0J50000D01*
G01*
G37*
G36*
G01*
X138474999Y-56574999D02*
X138474999Y-56075001D01*
G75*
G02*
X138524999Y-56025001I50000J0D01*
G01*
X138724999Y-56025001D01*
G75*
G02*
X138774999Y-56075001I0J-50000D01*
G01*
X138774999Y-56574999D01*
G75*
G02*
X138724999Y-56624999I-50000J0D01*
G01*
X138524999Y-56624999D01*
G75*
G02*
X138474999Y-56574999I0J50000D01*
G01*
G37*
G36*
G01*
X138974998Y-56574999D02*
X138974998Y-56075001D01*
G75*
G02*
X139024998Y-56025001I50000J0D01*
G01*
X139224998Y-56025001D01*
G75*
G02*
X139274998Y-56075001I0J-50000D01*
G01*
X139274998Y-56574999D01*
G75*
G02*
X139224998Y-56624999I-50000J0D01*
G01*
X139024998Y-56624999D01*
G75*
G02*
X138974998Y-56574999I0J50000D01*
G01*
G37*
G36*
G01*
X139474997Y-56574999D02*
X139474997Y-56075001D01*
G75*
G02*
X139524997Y-56025001I50000J0D01*
G01*
X139724997Y-56025001D01*
G75*
G02*
X139774997Y-56075001I0J-50000D01*
G01*
X139774997Y-56574999D01*
G75*
G02*
X139724997Y-56624999I-50000J0D01*
G01*
X139524997Y-56624999D01*
G75*
G02*
X139474997Y-56574999I0J50000D01*
G01*
G37*
G36*
G01*
X139974999Y-56574999D02*
X139974999Y-56075001D01*
G75*
G02*
X140024999Y-56025001I50000J0D01*
G01*
X140224999Y-56025001D01*
G75*
G02*
X140274999Y-56075001I0J-50000D01*
G01*
X140274999Y-56574999D01*
G75*
G02*
X140224999Y-56624999I-50000J0D01*
G01*
X140024999Y-56624999D01*
G75*
G02*
X139974999Y-56574999I0J50000D01*
G01*
G37*
G36*
G01*
X140474998Y-56574999D02*
X140474998Y-56075001D01*
G75*
G02*
X140524998Y-56025001I50000J0D01*
G01*
X140724998Y-56025001D01*
G75*
G02*
X140774998Y-56075001I0J-50000D01*
G01*
X140774998Y-56574999D01*
G75*
G02*
X140724998Y-56624999I-50000J0D01*
G01*
X140524998Y-56624999D01*
G75*
G02*
X140474998Y-56574999I0J50000D01*
G01*
G37*
G36*
G01*
X140975000Y-56574999D02*
X140975000Y-56075001D01*
G75*
G02*
X141025000Y-56025001I50000J0D01*
G01*
X141225000Y-56025001D01*
G75*
G02*
X141275000Y-56075001I0J-50000D01*
G01*
X141275000Y-56574999D01*
G75*
G02*
X141225000Y-56624999I-50000J0D01*
G01*
X141025000Y-56624999D01*
G75*
G02*
X140975000Y-56574999I0J50000D01*
G01*
G37*
G36*
G01*
X141474999Y-56574999D02*
X141474999Y-56075001D01*
G75*
G02*
X141524999Y-56025001I50000J0D01*
G01*
X141724999Y-56025001D01*
G75*
G02*
X141774999Y-56075001I0J-50000D01*
G01*
X141774999Y-56574999D01*
G75*
G02*
X141724999Y-56624999I-50000J0D01*
G01*
X141524999Y-56624999D01*
G75*
G02*
X141474999Y-56574999I0J50000D01*
G01*
G37*
%TD*%
D12*
%TO.C,J2*%
X111500000Y-52700000D03*
X110250000Y-52700000D03*
X109000000Y-52700000D03*
X107750000Y-52700000D03*
G36*
G01*
X105950000Y-53175000D02*
X105950000Y-52225000D01*
G75*
G02*
X106225000Y-51950000I275000J0D01*
G01*
X106775000Y-51950000D01*
G75*
G02*
X107050000Y-52225000I0J-275000D01*
G01*
X107050000Y-53175000D01*
G75*
G02*
X106775000Y-53450000I-275000J0D01*
G01*
X106225000Y-53450000D01*
G75*
G02*
X105950000Y-53175000I0J275000D01*
G01*
G37*
%TD*%
%TO.C,J5*%
X106500000Y-97250000D03*
X107750000Y-97250000D03*
X109000000Y-97250000D03*
X110250000Y-97250000D03*
G36*
G01*
X112050000Y-96775000D02*
X112050000Y-97725000D01*
G75*
G02*
X111775000Y-98000000I-275000J0D01*
G01*
X111225000Y-98000000D01*
G75*
G02*
X110950000Y-97725000I0J275000D01*
G01*
X110950000Y-96775000D01*
G75*
G02*
X111225000Y-96500000I275000J0D01*
G01*
X111775000Y-96500000D01*
G75*
G02*
X112050000Y-96775000I0J-275000D01*
G01*
G37*
%TD*%
%TO.C,U10*%
G36*
G01*
X144100000Y-64525000D02*
X144350000Y-64525000D01*
G75*
G02*
X144475000Y-64650000I0J-125000D01*
G01*
X144475000Y-65975000D01*
G75*
G02*
X144350000Y-66100000I-125000J0D01*
G01*
X144100000Y-66100000D01*
G75*
G02*
X143975000Y-65975000I0J125000D01*
G01*
X143975000Y-64650000D01*
G75*
G02*
X144100000Y-64525000I125000J0D01*
G01*
G37*
G36*
G01*
X143450000Y-64525000D02*
X143700000Y-64525000D01*
G75*
G02*
X143825000Y-64650000I0J-125000D01*
G01*
X143825000Y-65975000D01*
G75*
G02*
X143700000Y-66100000I-125000J0D01*
G01*
X143450000Y-66100000D01*
G75*
G02*
X143325000Y-65975000I0J125000D01*
G01*
X143325000Y-64650000D01*
G75*
G02*
X143450000Y-64525000I125000J0D01*
G01*
G37*
G36*
G01*
X142800000Y-64525000D02*
X143050000Y-64525000D01*
G75*
G02*
X143175000Y-64650000I0J-125000D01*
G01*
X143175000Y-65975000D01*
G75*
G02*
X143050000Y-66100000I-125000J0D01*
G01*
X142800000Y-66100000D01*
G75*
G02*
X142675000Y-65975000I0J125000D01*
G01*
X142675000Y-64650000D01*
G75*
G02*
X142800000Y-64525000I125000J0D01*
G01*
G37*
G36*
G01*
X142150000Y-64525000D02*
X142400000Y-64525000D01*
G75*
G02*
X142525000Y-64650000I0J-125000D01*
G01*
X142525000Y-65975000D01*
G75*
G02*
X142400000Y-66100000I-125000J0D01*
G01*
X142150000Y-66100000D01*
G75*
G02*
X142025000Y-65975000I0J125000D01*
G01*
X142025000Y-64650000D01*
G75*
G02*
X142150000Y-64525000I125000J0D01*
G01*
G37*
G36*
G01*
X141500000Y-64525000D02*
X141750000Y-64525000D01*
G75*
G02*
X141875000Y-64650000I0J-125000D01*
G01*
X141875000Y-65975000D01*
G75*
G02*
X141750000Y-66100000I-125000J0D01*
G01*
X141500000Y-66100000D01*
G75*
G02*
X141375000Y-65975000I0J125000D01*
G01*
X141375000Y-64650000D01*
G75*
G02*
X141500000Y-64525000I125000J0D01*
G01*
G37*
G36*
G01*
X140850000Y-64525000D02*
X141100000Y-64525000D01*
G75*
G02*
X141225000Y-64650000I0J-125000D01*
G01*
X141225000Y-65975000D01*
G75*
G02*
X141100000Y-66100000I-125000J0D01*
G01*
X140850000Y-66100000D01*
G75*
G02*
X140725000Y-65975000I0J125000D01*
G01*
X140725000Y-64650000D01*
G75*
G02*
X140850000Y-64525000I125000J0D01*
G01*
G37*
G36*
G01*
X140200000Y-64525000D02*
X140450000Y-64525000D01*
G75*
G02*
X140575000Y-64650000I0J-125000D01*
G01*
X140575000Y-65975000D01*
G75*
G02*
X140450000Y-66100000I-125000J0D01*
G01*
X140200000Y-66100000D01*
G75*
G02*
X140075000Y-65975000I0J125000D01*
G01*
X140075000Y-64650000D01*
G75*
G02*
X140200000Y-64525000I125000J0D01*
G01*
G37*
G36*
G01*
X139550000Y-64525000D02*
X139800000Y-64525000D01*
G75*
G02*
X139925000Y-64650000I0J-125000D01*
G01*
X139925000Y-65975000D01*
G75*
G02*
X139800000Y-66100000I-125000J0D01*
G01*
X139550000Y-66100000D01*
G75*
G02*
X139425000Y-65975000I0J125000D01*
G01*
X139425000Y-64650000D01*
G75*
G02*
X139550000Y-64525000I125000J0D01*
G01*
G37*
G36*
G01*
X139550000Y-58800000D02*
X139800000Y-58800000D01*
G75*
G02*
X139925000Y-58925000I0J-125000D01*
G01*
X139925000Y-60250000D01*
G75*
G02*
X139800000Y-60375000I-125000J0D01*
G01*
X139550000Y-60375000D01*
G75*
G02*
X139425000Y-60250000I0J125000D01*
G01*
X139425000Y-58925000D01*
G75*
G02*
X139550000Y-58800000I125000J0D01*
G01*
G37*
G36*
G01*
X140200000Y-58800000D02*
X140450000Y-58800000D01*
G75*
G02*
X140575000Y-58925000I0J-125000D01*
G01*
X140575000Y-60250000D01*
G75*
G02*
X140450000Y-60375000I-125000J0D01*
G01*
X140200000Y-60375000D01*
G75*
G02*
X140075000Y-60250000I0J125000D01*
G01*
X140075000Y-58925000D01*
G75*
G02*
X140200000Y-58800000I125000J0D01*
G01*
G37*
G36*
G01*
X140850000Y-58800000D02*
X141100000Y-58800000D01*
G75*
G02*
X141225000Y-58925000I0J-125000D01*
G01*
X141225000Y-60250000D01*
G75*
G02*
X141100000Y-60375000I-125000J0D01*
G01*
X140850000Y-60375000D01*
G75*
G02*
X140725000Y-60250000I0J125000D01*
G01*
X140725000Y-58925000D01*
G75*
G02*
X140850000Y-58800000I125000J0D01*
G01*
G37*
G36*
G01*
X141500000Y-58800000D02*
X141750000Y-58800000D01*
G75*
G02*
X141875000Y-58925000I0J-125000D01*
G01*
X141875000Y-60250000D01*
G75*
G02*
X141750000Y-60375000I-125000J0D01*
G01*
X141500000Y-60375000D01*
G75*
G02*
X141375000Y-60250000I0J125000D01*
G01*
X141375000Y-58925000D01*
G75*
G02*
X141500000Y-58800000I125000J0D01*
G01*
G37*
G36*
G01*
X142150000Y-58800000D02*
X142400000Y-58800000D01*
G75*
G02*
X142525000Y-58925000I0J-125000D01*
G01*
X142525000Y-60250000D01*
G75*
G02*
X142400000Y-60375000I-125000J0D01*
G01*
X142150000Y-60375000D01*
G75*
G02*
X142025000Y-60250000I0J125000D01*
G01*
X142025000Y-58925000D01*
G75*
G02*
X142150000Y-58800000I125000J0D01*
G01*
G37*
G36*
G01*
X142800000Y-58800000D02*
X143050000Y-58800000D01*
G75*
G02*
X143175000Y-58925000I0J-125000D01*
G01*
X143175000Y-60250000D01*
G75*
G02*
X143050000Y-60375000I-125000J0D01*
G01*
X142800000Y-60375000D01*
G75*
G02*
X142675000Y-60250000I0J125000D01*
G01*
X142675000Y-58925000D01*
G75*
G02*
X142800000Y-58800000I125000J0D01*
G01*
G37*
G36*
G01*
X143450000Y-58800000D02*
X143700000Y-58800000D01*
G75*
G02*
X143825000Y-58925000I0J-125000D01*
G01*
X143825000Y-60250000D01*
G75*
G02*
X143700000Y-60375000I-125000J0D01*
G01*
X143450000Y-60375000D01*
G75*
G02*
X143325000Y-60250000I0J125000D01*
G01*
X143325000Y-58925000D01*
G75*
G02*
X143450000Y-58800000I125000J0D01*
G01*
G37*
G36*
G01*
X144100000Y-58800000D02*
X144350000Y-58800000D01*
G75*
G02*
X144475000Y-58925000I0J-125000D01*
G01*
X144475000Y-60250000D01*
G75*
G02*
X144350000Y-60375000I-125000J0D01*
G01*
X144100000Y-60375000D01*
G75*
G02*
X143975000Y-60250000I0J125000D01*
G01*
X143975000Y-58925000D01*
G75*
G02*
X144100000Y-58800000I125000J0D01*
G01*
G37*
%TD*%
%TO.C,R54*%
G36*
G01*
X147705000Y-76370000D02*
X147955000Y-76370000D01*
G75*
G02*
X148080000Y-76495000I0J-125000D01*
G01*
X148080000Y-76805000D01*
G75*
G02*
X147955000Y-76930000I-125000J0D01*
G01*
X147705000Y-76930000D01*
G75*
G02*
X147580000Y-76805000I0J125000D01*
G01*
X147580000Y-76495000D01*
G75*
G02*
X147705000Y-76370000I125000J0D01*
G01*
G37*
G36*
G01*
X147705000Y-75730000D02*
X147955000Y-75730000D01*
G75*
G02*
X148080000Y-75855000I0J-125000D01*
G01*
X148080000Y-76165000D01*
G75*
G02*
X147955000Y-76290000I-125000J0D01*
G01*
X147705000Y-76290000D01*
G75*
G02*
X147580000Y-76165000I0J125000D01*
G01*
X147580000Y-75855000D01*
G75*
G02*
X147705000Y-75730000I125000J0D01*
G01*
G37*
%TD*%
%TO.C,R55*%
G36*
G01*
X147705000Y-74820000D02*
X147955000Y-74820000D01*
G75*
G02*
X148080000Y-74945000I0J-125000D01*
G01*
X148080000Y-75255000D01*
G75*
G02*
X147955000Y-75380000I-125000J0D01*
G01*
X147705000Y-75380000D01*
G75*
G02*
X147580000Y-75255000I0J125000D01*
G01*
X147580000Y-74945000D01*
G75*
G02*
X147705000Y-74820000I125000J0D01*
G01*
G37*
G36*
G01*
X147705000Y-74180000D02*
X147955000Y-74180000D01*
G75*
G02*
X148080000Y-74305000I0J-125000D01*
G01*
X148080000Y-74615000D01*
G75*
G02*
X147955000Y-74740000I-125000J0D01*
G01*
X147705000Y-74740000D01*
G75*
G02*
X147580000Y-74615000I0J125000D01*
G01*
X147580000Y-74305000D01*
G75*
G02*
X147705000Y-74180000I125000J0D01*
G01*
G37*
%TD*%
%TO.C,R51*%
G36*
G01*
X147705000Y-77920000D02*
X147955000Y-77920000D01*
G75*
G02*
X148080000Y-78045000I0J-125000D01*
G01*
X148080000Y-78355000D01*
G75*
G02*
X147955000Y-78480000I-125000J0D01*
G01*
X147705000Y-78480000D01*
G75*
G02*
X147580000Y-78355000I0J125000D01*
G01*
X147580000Y-78045000D01*
G75*
G02*
X147705000Y-77920000I125000J0D01*
G01*
G37*
G36*
G01*
X147705000Y-77280000D02*
X147955000Y-77280000D01*
G75*
G02*
X148080000Y-77405000I0J-125000D01*
G01*
X148080000Y-77715000D01*
G75*
G02*
X147955000Y-77840000I-125000J0D01*
G01*
X147705000Y-77840000D01*
G75*
G02*
X147580000Y-77715000I0J125000D01*
G01*
X147580000Y-77405000D01*
G75*
G02*
X147705000Y-77280000I125000J0D01*
G01*
G37*
%TD*%
%TO.C,C101*%
G36*
G01*
X148755000Y-74820000D02*
X149005000Y-74820000D01*
G75*
G02*
X149130000Y-74945000I0J-125000D01*
G01*
X149130000Y-75255000D01*
G75*
G02*
X149005000Y-75380000I-125000J0D01*
G01*
X148755000Y-75380000D01*
G75*
G02*
X148630000Y-75255000I0J125000D01*
G01*
X148630000Y-74945000D01*
G75*
G02*
X148755000Y-74820000I125000J0D01*
G01*
G37*
G36*
G01*
X148755000Y-74180000D02*
X149005000Y-74180000D01*
G75*
G02*
X149130000Y-74305000I0J-125000D01*
G01*
X149130000Y-74615000D01*
G75*
G02*
X149005000Y-74740000I-125000J0D01*
G01*
X148755000Y-74740000D01*
G75*
G02*
X148630000Y-74615000I0J125000D01*
G01*
X148630000Y-74305000D01*
G75*
G02*
X148755000Y-74180000I125000J0D01*
G01*
G37*
%TD*%
%TO.C,C99*%
G36*
G01*
X148755000Y-77920000D02*
X149005000Y-77920000D01*
G75*
G02*
X149130000Y-78045000I0J-125000D01*
G01*
X149130000Y-78355000D01*
G75*
G02*
X149005000Y-78480000I-125000J0D01*
G01*
X148755000Y-78480000D01*
G75*
G02*
X148630000Y-78355000I0J125000D01*
G01*
X148630000Y-78045000D01*
G75*
G02*
X148755000Y-77920000I125000J0D01*
G01*
G37*
G36*
G01*
X148755000Y-77280000D02*
X149005000Y-77280000D01*
G75*
G02*
X149130000Y-77405000I0J-125000D01*
G01*
X149130000Y-77715000D01*
G75*
G02*
X149005000Y-77840000I-125000J0D01*
G01*
X148755000Y-77840000D01*
G75*
G02*
X148630000Y-77715000I0J125000D01*
G01*
X148630000Y-77405000D01*
G75*
G02*
X148755000Y-77280000I125000J0D01*
G01*
G37*
%TD*%
%TO.C,C100*%
G36*
G01*
X148755000Y-76370000D02*
X149005000Y-76370000D01*
G75*
G02*
X149130000Y-76495000I0J-125000D01*
G01*
X149130000Y-76805000D01*
G75*
G02*
X149005000Y-76930000I-125000J0D01*
G01*
X148755000Y-76930000D01*
G75*
G02*
X148630000Y-76805000I0J125000D01*
G01*
X148630000Y-76495000D01*
G75*
G02*
X148755000Y-76370000I125000J0D01*
G01*
G37*
G36*
G01*
X148755000Y-75730000D02*
X149005000Y-75730000D01*
G75*
G02*
X149130000Y-75855000I0J-125000D01*
G01*
X149130000Y-76165000D01*
G75*
G02*
X149005000Y-76290000I-125000J0D01*
G01*
X148755000Y-76290000D01*
G75*
G02*
X148630000Y-76165000I0J125000D01*
G01*
X148630000Y-75855000D01*
G75*
G02*
X148755000Y-75730000I125000J0D01*
G01*
G37*
%TD*%
%TO.C,C94*%
G36*
G01*
X141875000Y-71855000D02*
X141625000Y-71855000D01*
G75*
G02*
X141500000Y-71730000I0J125000D01*
G01*
X141500000Y-71420000D01*
G75*
G02*
X141625000Y-71295000I125000J0D01*
G01*
X141875000Y-71295000D01*
G75*
G02*
X142000000Y-71420000I0J-125000D01*
G01*
X142000000Y-71730000D01*
G75*
G02*
X141875000Y-71855000I-125000J0D01*
G01*
G37*
G36*
G01*
X141875000Y-72495000D02*
X141625000Y-72495000D01*
G75*
G02*
X141500000Y-72370000I0J125000D01*
G01*
X141500000Y-72060000D01*
G75*
G02*
X141625000Y-71935000I125000J0D01*
G01*
X141875000Y-71935000D01*
G75*
G02*
X142000000Y-72060000I0J-125000D01*
G01*
X142000000Y-72370000D01*
G75*
G02*
X141875000Y-72495000I-125000J0D01*
G01*
G37*
%TD*%
%TO.C,C2*%
G36*
G01*
X144135000Y-70150000D02*
X144385000Y-70150000D01*
G75*
G02*
X144510000Y-70275000I0J-125000D01*
G01*
X144510000Y-70585000D01*
G75*
G02*
X144385000Y-70710000I-125000J0D01*
G01*
X144135000Y-70710000D01*
G75*
G02*
X144010000Y-70585000I0J125000D01*
G01*
X144010000Y-70275000D01*
G75*
G02*
X144135000Y-70150000I125000J0D01*
G01*
G37*
G36*
G01*
X144135000Y-69510000D02*
X144385000Y-69510000D01*
G75*
G02*
X144510000Y-69635000I0J-125000D01*
G01*
X144510000Y-69945000D01*
G75*
G02*
X144385000Y-70070000I-125000J0D01*
G01*
X144135000Y-70070000D01*
G75*
G02*
X144010000Y-69945000I0J125000D01*
G01*
X144010000Y-69635000D01*
G75*
G02*
X144135000Y-69510000I125000J0D01*
G01*
G37*
%TD*%
%TO.C,C61*%
G36*
G01*
X115950000Y-98810000D02*
X116200000Y-98810000D01*
G75*
G02*
X116325000Y-98935000I0J-125000D01*
G01*
X116325000Y-99245000D01*
G75*
G02*
X116200000Y-99370000I-125000J0D01*
G01*
X115950000Y-99370000D01*
G75*
G02*
X115825000Y-99245000I0J125000D01*
G01*
X115825000Y-98935000D01*
G75*
G02*
X115950000Y-98810000I125000J0D01*
G01*
G37*
G36*
G01*
X115950000Y-98170000D02*
X116200000Y-98170000D01*
G75*
G02*
X116325000Y-98295000I0J-125000D01*
G01*
X116325000Y-98605000D01*
G75*
G02*
X116200000Y-98730000I-125000J0D01*
G01*
X115950000Y-98730000D01*
G75*
G02*
X115825000Y-98605000I0J125000D01*
G01*
X115825000Y-98295000D01*
G75*
G02*
X115950000Y-98170000I125000J0D01*
G01*
G37*
%TD*%
%TO.C,C62*%
G36*
G01*
X114875000Y-98810000D02*
X115125000Y-98810000D01*
G75*
G02*
X115250000Y-98935000I0J-125000D01*
G01*
X115250000Y-99245000D01*
G75*
G02*
X115125000Y-99370000I-125000J0D01*
G01*
X114875000Y-99370000D01*
G75*
G02*
X114750000Y-99245000I0J125000D01*
G01*
X114750000Y-98935000D01*
G75*
G02*
X114875000Y-98810000I125000J0D01*
G01*
G37*
G36*
G01*
X114875000Y-98170000D02*
X115125000Y-98170000D01*
G75*
G02*
X115250000Y-98295000I0J-125000D01*
G01*
X115250000Y-98605000D01*
G75*
G02*
X115125000Y-98730000I-125000J0D01*
G01*
X114875000Y-98730000D01*
G75*
G02*
X114750000Y-98605000I0J125000D01*
G01*
X114750000Y-98295000D01*
G75*
G02*
X114875000Y-98170000I125000J0D01*
G01*
G37*
%TD*%
%TO.C,C67*%
G36*
G01*
X110375000Y-60835000D02*
X110125000Y-60835000D01*
G75*
G02*
X110000000Y-60710000I0J125000D01*
G01*
X110000000Y-60400000D01*
G75*
G02*
X110125000Y-60275000I125000J0D01*
G01*
X110375000Y-60275000D01*
G75*
G02*
X110500000Y-60400000I0J-125000D01*
G01*
X110500000Y-60710000D01*
G75*
G02*
X110375000Y-60835000I-125000J0D01*
G01*
G37*
G36*
G01*
X110375000Y-61475000D02*
X110125000Y-61475000D01*
G75*
G02*
X110000000Y-61350000I0J125000D01*
G01*
X110000000Y-61040000D01*
G75*
G02*
X110125000Y-60915000I125000J0D01*
G01*
X110375000Y-60915000D01*
G75*
G02*
X110500000Y-61040000I0J-125000D01*
G01*
X110500000Y-61350000D01*
G75*
G02*
X110375000Y-61475000I-125000J0D01*
G01*
G37*
%TD*%
%TO.C,C69*%
G36*
G01*
X126075000Y-52175000D02*
X126325000Y-52175000D01*
G75*
G02*
X126450000Y-52300000I0J-125000D01*
G01*
X126450000Y-52610000D01*
G75*
G02*
X126325000Y-52735000I-125000J0D01*
G01*
X126075000Y-52735000D01*
G75*
G02*
X125950000Y-52610000I0J125000D01*
G01*
X125950000Y-52300000D01*
G75*
G02*
X126075000Y-52175000I125000J0D01*
G01*
G37*
G36*
G01*
X126075000Y-51535000D02*
X126325000Y-51535000D01*
G75*
G02*
X126450000Y-51660000I0J-125000D01*
G01*
X126450000Y-51970000D01*
G75*
G02*
X126325000Y-52095000I-125000J0D01*
G01*
X126075000Y-52095000D01*
G75*
G02*
X125950000Y-51970000I0J125000D01*
G01*
X125950000Y-51660000D01*
G75*
G02*
X126075000Y-51535000I125000J0D01*
G01*
G37*
%TD*%
%TO.C,C80*%
G36*
G01*
X117340000Y-79120000D02*
X117340000Y-78870000D01*
G75*
G02*
X117465000Y-78745000I125000J0D01*
G01*
X117775000Y-78745000D01*
G75*
G02*
X117900000Y-78870000I0J-125000D01*
G01*
X117900000Y-79120000D01*
G75*
G02*
X117775000Y-79245000I-125000J0D01*
G01*
X117465000Y-79245000D01*
G75*
G02*
X117340000Y-79120000I0J125000D01*
G01*
G37*
G36*
G01*
X116700000Y-79120000D02*
X116700000Y-78870000D01*
G75*
G02*
X116825000Y-78745000I125000J0D01*
G01*
X117135000Y-78745000D01*
G75*
G02*
X117260000Y-78870000I0J-125000D01*
G01*
X117260000Y-79120000D01*
G75*
G02*
X117135000Y-79245000I-125000J0D01*
G01*
X116825000Y-79245000D01*
G75*
G02*
X116700000Y-79120000I0J125000D01*
G01*
G37*
%TD*%
%TO.C,C82*%
G36*
G01*
X102675000Y-75730000D02*
X102425000Y-75730000D01*
G75*
G02*
X102300000Y-75605000I0J125000D01*
G01*
X102300000Y-75295000D01*
G75*
G02*
X102425000Y-75170000I125000J0D01*
G01*
X102675000Y-75170000D01*
G75*
G02*
X102800000Y-75295000I0J-125000D01*
G01*
X102800000Y-75605000D01*
G75*
G02*
X102675000Y-75730000I-125000J0D01*
G01*
G37*
G36*
G01*
X102675000Y-76370000D02*
X102425000Y-76370000D01*
G75*
G02*
X102300000Y-76245000I0J125000D01*
G01*
X102300000Y-75935000D01*
G75*
G02*
X102425000Y-75810000I125000J0D01*
G01*
X102675000Y-75810000D01*
G75*
G02*
X102800000Y-75935000I0J-125000D01*
G01*
X102800000Y-76245000D01*
G75*
G02*
X102675000Y-76370000I-125000J0D01*
G01*
G37*
%TD*%
%TO.C,C87*%
G36*
G01*
X117340000Y-95125000D02*
X117340000Y-94875000D01*
G75*
G02*
X117465000Y-94750000I125000J0D01*
G01*
X117775000Y-94750000D01*
G75*
G02*
X117900000Y-94875000I0J-125000D01*
G01*
X117900000Y-95125000D01*
G75*
G02*
X117775000Y-95250000I-125000J0D01*
G01*
X117465000Y-95250000D01*
G75*
G02*
X117340000Y-95125000I0J125000D01*
G01*
G37*
G36*
G01*
X116700000Y-95125000D02*
X116700000Y-94875000D01*
G75*
G02*
X116825000Y-94750000I125000J0D01*
G01*
X117135000Y-94750000D01*
G75*
G02*
X117260000Y-94875000I0J-125000D01*
G01*
X117260000Y-95125000D01*
G75*
G02*
X117135000Y-95250000I-125000J0D01*
G01*
X116825000Y-95250000D01*
G75*
G02*
X116700000Y-95125000I0J125000D01*
G01*
G37*
%TD*%
%TO.C,C90*%
G36*
G01*
X138127500Y-76155000D02*
X138522500Y-76155000D01*
G75*
G02*
X138695000Y-76327500I0J-172500D01*
G01*
X138695000Y-76672500D01*
G75*
G02*
X138522500Y-76845000I-172500J0D01*
G01*
X138127500Y-76845000D01*
G75*
G02*
X137955000Y-76672500I0J172500D01*
G01*
X137955000Y-76327500D01*
G75*
G02*
X138127500Y-76155000I172500J0D01*
G01*
G37*
G36*
G01*
X138127500Y-75185000D02*
X138522500Y-75185000D01*
G75*
G02*
X138695000Y-75357500I0J-172500D01*
G01*
X138695000Y-75702500D01*
G75*
G02*
X138522500Y-75875000I-172500J0D01*
G01*
X138127500Y-75875000D01*
G75*
G02*
X137955000Y-75702500I0J172500D01*
G01*
X137955000Y-75357500D01*
G75*
G02*
X138127500Y-75185000I172500J0D01*
G01*
G37*
%TD*%
%TO.C,C91*%
G36*
G01*
X134700000Y-75795000D02*
X134700000Y-78005000D01*
G75*
G02*
X134430000Y-78275000I-270000J0D01*
G01*
X133620000Y-78275000D01*
G75*
G02*
X133350000Y-78005000I0J270000D01*
G01*
X133350000Y-75795000D01*
G75*
G02*
X133620000Y-75525000I270000J0D01*
G01*
X134430000Y-75525000D01*
G75*
G02*
X134700000Y-75795000I0J-270000D01*
G01*
G37*
G36*
G01*
X137500000Y-75795000D02*
X137500000Y-78005000D01*
G75*
G02*
X137230000Y-78275000I-270000J0D01*
G01*
X136420000Y-78275000D01*
G75*
G02*
X136150000Y-78005000I0J270000D01*
G01*
X136150000Y-75795000D01*
G75*
G02*
X136420000Y-75525000I270000J0D01*
G01*
X137230000Y-75525000D01*
G75*
G02*
X137500000Y-75795000I0J-270000D01*
G01*
G37*
%TD*%
%TO.C,C93*%
G36*
G01*
X140405000Y-72322500D02*
X140405000Y-71927500D01*
G75*
G02*
X140577500Y-71755000I172500J0D01*
G01*
X140922500Y-71755000D01*
G75*
G02*
X141095000Y-71927500I0J-172500D01*
G01*
X141095000Y-72322500D01*
G75*
G02*
X140922500Y-72495000I-172500J0D01*
G01*
X140577500Y-72495000D01*
G75*
G02*
X140405000Y-72322500I0J172500D01*
G01*
G37*
G36*
G01*
X139435000Y-72322500D02*
X139435000Y-71927500D01*
G75*
G02*
X139607500Y-71755000I172500J0D01*
G01*
X139952500Y-71755000D01*
G75*
G02*
X140125000Y-71927500I0J-172500D01*
G01*
X140125000Y-72322500D01*
G75*
G02*
X139952500Y-72495000I-172500J0D01*
G01*
X139607500Y-72495000D01*
G75*
G02*
X139435000Y-72322500I0J172500D01*
G01*
G37*
%TD*%
%TO.C,C95*%
G36*
G01*
X138706250Y-73050000D02*
X138143750Y-73050000D01*
G75*
G02*
X137900000Y-72806250I0J243750D01*
G01*
X137900000Y-72318750D01*
G75*
G02*
X138143750Y-72075000I243750J0D01*
G01*
X138706250Y-72075000D01*
G75*
G02*
X138950000Y-72318750I0J-243750D01*
G01*
X138950000Y-72806250D01*
G75*
G02*
X138706250Y-73050000I-243750J0D01*
G01*
G37*
G36*
G01*
X138706250Y-74625000D02*
X138143750Y-74625000D01*
G75*
G02*
X137900000Y-74381250I0J243750D01*
G01*
X137900000Y-73893750D01*
G75*
G02*
X138143750Y-73650000I243750J0D01*
G01*
X138706250Y-73650000D01*
G75*
G02*
X138950000Y-73893750I0J-243750D01*
G01*
X138950000Y-74381250D01*
G75*
G02*
X138706250Y-74625000I-243750J0D01*
G01*
G37*
%TD*%
%TO.C,C96*%
G36*
G01*
X132660000Y-94875000D02*
X132660000Y-95125000D01*
G75*
G02*
X132535000Y-95250000I-125000J0D01*
G01*
X132225000Y-95250000D01*
G75*
G02*
X132100000Y-95125000I0J125000D01*
G01*
X132100000Y-94875000D01*
G75*
G02*
X132225000Y-94750000I125000J0D01*
G01*
X132535000Y-94750000D01*
G75*
G02*
X132660000Y-94875000I0J-125000D01*
G01*
G37*
G36*
G01*
X133300000Y-94875000D02*
X133300000Y-95125000D01*
G75*
G02*
X133175000Y-95250000I-125000J0D01*
G01*
X132865000Y-95250000D01*
G75*
G02*
X132740000Y-95125000I0J125000D01*
G01*
X132740000Y-94875000D01*
G75*
G02*
X132865000Y-94750000I125000J0D01*
G01*
X133175000Y-94750000D01*
G75*
G02*
X133300000Y-94875000I0J-125000D01*
G01*
G37*
%TD*%
%TO.C,C103*%
G36*
G01*
X132660000Y-78875000D02*
X132660000Y-79125000D01*
G75*
G02*
X132535000Y-79250000I-125000J0D01*
G01*
X132225000Y-79250000D01*
G75*
G02*
X132100000Y-79125000I0J125000D01*
G01*
X132100000Y-78875000D01*
G75*
G02*
X132225000Y-78750000I125000J0D01*
G01*
X132535000Y-78750000D01*
G75*
G02*
X132660000Y-78875000I0J-125000D01*
G01*
G37*
G36*
G01*
X133300000Y-78875000D02*
X133300000Y-79125000D01*
G75*
G02*
X133175000Y-79250000I-125000J0D01*
G01*
X132865000Y-79250000D01*
G75*
G02*
X132740000Y-79125000I0J125000D01*
G01*
X132740000Y-78875000D01*
G75*
G02*
X132865000Y-78750000I125000J0D01*
G01*
X133175000Y-78750000D01*
G75*
G02*
X133300000Y-78875000I0J-125000D01*
G01*
G37*
%TD*%
%TO.C,D3*%
G36*
G01*
X101877500Y-73975000D02*
X101482500Y-73975000D01*
G75*
G02*
X101310000Y-73802500I0J172500D01*
G01*
X101310000Y-73457500D01*
G75*
G02*
X101482500Y-73285000I172500J0D01*
G01*
X101877500Y-73285000D01*
G75*
G02*
X102050000Y-73457500I0J-172500D01*
G01*
X102050000Y-73802500D01*
G75*
G02*
X101877500Y-73975000I-172500J0D01*
G01*
G37*
G36*
G01*
X101877500Y-74945000D02*
X101482500Y-74945000D01*
G75*
G02*
X101310000Y-74772500I0J172500D01*
G01*
X101310000Y-74427500D01*
G75*
G02*
X101482500Y-74255000I172500J0D01*
G01*
X101877500Y-74255000D01*
G75*
G02*
X102050000Y-74427500I0J-172500D01*
G01*
X102050000Y-74772500D01*
G75*
G02*
X101877500Y-74945000I-172500J0D01*
G01*
G37*
%TD*%
%TO.C,D4*%
G36*
G01*
X148355000Y-73407500D02*
X148355000Y-73012500D01*
G75*
G02*
X148527500Y-72840000I172500J0D01*
G01*
X148872500Y-72840000D01*
G75*
G02*
X149045000Y-73012500I0J-172500D01*
G01*
X149045000Y-73407500D01*
G75*
G02*
X148872500Y-73580000I-172500J0D01*
G01*
X148527500Y-73580000D01*
G75*
G02*
X148355000Y-73407500I0J172500D01*
G01*
G37*
G36*
G01*
X147385000Y-73407500D02*
X147385000Y-73012500D01*
G75*
G02*
X147557500Y-72840000I172500J0D01*
G01*
X147902500Y-72840000D01*
G75*
G02*
X148075000Y-73012500I0J-172500D01*
G01*
X148075000Y-73407500D01*
G75*
G02*
X147902500Y-73580000I-172500J0D01*
G01*
X147557500Y-73580000D01*
G75*
G02*
X147385000Y-73407500I0J172500D01*
G01*
G37*
%TD*%
%TO.C,D5*%
G36*
G01*
X109255000Y-63890000D02*
X110255000Y-63890000D01*
G75*
G02*
X110305000Y-63940000I0J-50000D01*
G01*
X110305000Y-65440000D01*
G75*
G02*
X110255000Y-65490000I-50000J0D01*
G01*
X109255000Y-65490000D01*
G75*
G02*
X109205000Y-65440000I0J50000D01*
G01*
X109205000Y-63940000D01*
G75*
G02*
X109255000Y-63890000I50000J0D01*
G01*
G37*
G36*
G01*
X106055000Y-63890000D02*
X107055000Y-63890000D01*
G75*
G02*
X107105000Y-63940000I0J-50000D01*
G01*
X107105000Y-65440000D01*
G75*
G02*
X107055000Y-65490000I-50000J0D01*
G01*
X106055000Y-65490000D01*
G75*
G02*
X106005000Y-65440000I0J50000D01*
G01*
X106005000Y-63940000D01*
G75*
G02*
X106055000Y-63890000I50000J0D01*
G01*
G37*
G36*
G01*
X109255000Y-68790000D02*
X110255000Y-68790000D01*
G75*
G02*
X110305000Y-68840000I0J-50000D01*
G01*
X110305000Y-70340000D01*
G75*
G02*
X110255000Y-70390000I-50000J0D01*
G01*
X109255000Y-70390000D01*
G75*
G02*
X109205000Y-70340000I0J50000D01*
G01*
X109205000Y-68840000D01*
G75*
G02*
X109255000Y-68790000I50000J0D01*
G01*
G37*
G36*
G01*
X106055000Y-68790000D02*
X107055000Y-68790000D01*
G75*
G02*
X107105000Y-68840000I0J-50000D01*
G01*
X107105000Y-70340000D01*
G75*
G02*
X107055000Y-70390000I-50000J0D01*
G01*
X106055000Y-70390000D01*
G75*
G02*
X106005000Y-70340000I0J50000D01*
G01*
X106005000Y-68840000D01*
G75*
G02*
X106055000Y-68790000I50000J0D01*
G01*
G37*
%TD*%
%TO.C,R2*%
G36*
G01*
X145235000Y-69430000D02*
X144985000Y-69430000D01*
G75*
G02*
X144860000Y-69305000I0J125000D01*
G01*
X144860000Y-68995000D01*
G75*
G02*
X144985000Y-68870000I125000J0D01*
G01*
X145235000Y-68870000D01*
G75*
G02*
X145360000Y-68995000I0J-125000D01*
G01*
X145360000Y-69305000D01*
G75*
G02*
X145235000Y-69430000I-125000J0D01*
G01*
G37*
G36*
G01*
X145235000Y-70070000D02*
X144985000Y-70070000D01*
G75*
G02*
X144860000Y-69945000I0J125000D01*
G01*
X144860000Y-69635000D01*
G75*
G02*
X144985000Y-69510000I125000J0D01*
G01*
X145235000Y-69510000D01*
G75*
G02*
X145360000Y-69635000I0J-125000D01*
G01*
X145360000Y-69945000D01*
G75*
G02*
X145235000Y-70070000I-125000J0D01*
G01*
G37*
%TD*%
%TO.C,R3*%
G36*
G01*
X121219600Y-80088200D02*
X121219600Y-80338200D01*
G75*
G02*
X121094600Y-80463200I-125000J0D01*
G01*
X120784600Y-80463200D01*
G75*
G02*
X120659600Y-80338200I0J125000D01*
G01*
X120659600Y-80088200D01*
G75*
G02*
X120784600Y-79963200I125000J0D01*
G01*
X121094600Y-79963200D01*
G75*
G02*
X121219600Y-80088200I0J-125000D01*
G01*
G37*
G36*
G01*
X121859600Y-80088200D02*
X121859600Y-80338200D01*
G75*
G02*
X121734600Y-80463200I-125000J0D01*
G01*
X121424600Y-80463200D01*
G75*
G02*
X121299600Y-80338200I0J125000D01*
G01*
X121299600Y-80088200D01*
G75*
G02*
X121424600Y-79963200I125000J0D01*
G01*
X121734600Y-79963200D01*
G75*
G02*
X121859600Y-80088200I0J-125000D01*
G01*
G37*
%TD*%
%TO.C,R21*%
G36*
G01*
X105025000Y-61485000D02*
X104775000Y-61485000D01*
G75*
G02*
X104650000Y-61360000I0J125000D01*
G01*
X104650000Y-61050000D01*
G75*
G02*
X104775000Y-60925000I125000J0D01*
G01*
X105025000Y-60925000D01*
G75*
G02*
X105150000Y-61050000I0J-125000D01*
G01*
X105150000Y-61360000D01*
G75*
G02*
X105025000Y-61485000I-125000J0D01*
G01*
G37*
G36*
G01*
X105025000Y-62125000D02*
X104775000Y-62125000D01*
G75*
G02*
X104650000Y-62000000I0J125000D01*
G01*
X104650000Y-61690000D01*
G75*
G02*
X104775000Y-61565000I125000J0D01*
G01*
X105025000Y-61565000D01*
G75*
G02*
X105150000Y-61690000I0J-125000D01*
G01*
X105150000Y-62000000D01*
G75*
G02*
X105025000Y-62125000I-125000J0D01*
G01*
G37*
%TD*%
%TO.C,R22*%
G36*
G01*
X143935000Y-58275000D02*
X143935000Y-58025000D01*
G75*
G02*
X144060000Y-57900000I125000J0D01*
G01*
X144370000Y-57900000D01*
G75*
G02*
X144495000Y-58025000I0J-125000D01*
G01*
X144495000Y-58275000D01*
G75*
G02*
X144370000Y-58400000I-125000J0D01*
G01*
X144060000Y-58400000D01*
G75*
G02*
X143935000Y-58275000I0J125000D01*
G01*
G37*
G36*
G01*
X143295000Y-58275000D02*
X143295000Y-58025000D01*
G75*
G02*
X143420000Y-57900000I125000J0D01*
G01*
X143730000Y-57900000D01*
G75*
G02*
X143855000Y-58025000I0J-125000D01*
G01*
X143855000Y-58275000D01*
G75*
G02*
X143730000Y-58400000I-125000J0D01*
G01*
X143420000Y-58400000D01*
G75*
G02*
X143295000Y-58275000I0J125000D01*
G01*
G37*
%TD*%
%TO.C,R23*%
G36*
G01*
X140334998Y-57124999D02*
X140334998Y-57374999D01*
G75*
G02*
X140209998Y-57499999I-125000J0D01*
G01*
X139899998Y-57499999D01*
G75*
G02*
X139774998Y-57374999I0J125000D01*
G01*
X139774998Y-57124999D01*
G75*
G02*
X139899998Y-56999999I125000J0D01*
G01*
X140209998Y-56999999D01*
G75*
G02*
X140334998Y-57124999I0J-125000D01*
G01*
G37*
G36*
G01*
X140974998Y-57124999D02*
X140974998Y-57374999D01*
G75*
G02*
X140849998Y-57499999I-125000J0D01*
G01*
X140539998Y-57499999D01*
G75*
G02*
X140414998Y-57374999I0J125000D01*
G01*
X140414998Y-57124999D01*
G75*
G02*
X140539998Y-56999999I125000J0D01*
G01*
X140849998Y-56999999D01*
G75*
G02*
X140974998Y-57124999I0J-125000D01*
G01*
G37*
%TD*%
%TO.C,R24*%
G36*
G01*
X138834998Y-57124999D02*
X138834998Y-57374999D01*
G75*
G02*
X138709998Y-57499999I-125000J0D01*
G01*
X138399998Y-57499999D01*
G75*
G02*
X138274998Y-57374999I0J125000D01*
G01*
X138274998Y-57124999D01*
G75*
G02*
X138399998Y-56999999I125000J0D01*
G01*
X138709998Y-56999999D01*
G75*
G02*
X138834998Y-57124999I0J-125000D01*
G01*
G37*
G36*
G01*
X139474998Y-57124999D02*
X139474998Y-57374999D01*
G75*
G02*
X139349998Y-57499999I-125000J0D01*
G01*
X139039998Y-57499999D01*
G75*
G02*
X138914998Y-57374999I0J125000D01*
G01*
X138914998Y-57124999D01*
G75*
G02*
X139039998Y-56999999I125000J0D01*
G01*
X139349998Y-56999999D01*
G75*
G02*
X139474998Y-57124999I0J-125000D01*
G01*
G37*
%TD*%
%TO.C,R29*%
G36*
G01*
X120302500Y-51760000D02*
X120552500Y-51760000D01*
G75*
G02*
X120677500Y-51885000I0J-125000D01*
G01*
X120677500Y-52195000D01*
G75*
G02*
X120552500Y-52320000I-125000J0D01*
G01*
X120302500Y-52320000D01*
G75*
G02*
X120177500Y-52195000I0J125000D01*
G01*
X120177500Y-51885000D01*
G75*
G02*
X120302500Y-51760000I125000J0D01*
G01*
G37*
G36*
G01*
X120302500Y-51120000D02*
X120552500Y-51120000D01*
G75*
G02*
X120677500Y-51245000I0J-125000D01*
G01*
X120677500Y-51555000D01*
G75*
G02*
X120552500Y-51680000I-125000J0D01*
G01*
X120302500Y-51680000D01*
G75*
G02*
X120177500Y-51555000I0J125000D01*
G01*
X120177500Y-51245000D01*
G75*
G02*
X120302500Y-51120000I125000J0D01*
G01*
G37*
%TD*%
%TO.C,R35*%
G36*
G01*
X118250000Y-80300000D02*
X118250000Y-79600000D01*
G75*
G02*
X118300000Y-79550000I50000J0D01*
G01*
X119500000Y-79550000D01*
G75*
G02*
X119550000Y-79600000I0J-50000D01*
G01*
X119550000Y-80300000D01*
G75*
G02*
X119500000Y-80350000I-50000J0D01*
G01*
X118300000Y-80350000D01*
G75*
G02*
X118250000Y-80300000I0J50000D01*
G01*
G37*
G36*
G01*
X115050000Y-80300000D02*
X115050000Y-79600000D01*
G75*
G02*
X115100000Y-79550000I50000J0D01*
G01*
X116300000Y-79550000D01*
G75*
G02*
X116350000Y-79600000I0J-50000D01*
G01*
X116350000Y-80300000D01*
G75*
G02*
X116300000Y-80350000I-50000J0D01*
G01*
X115100000Y-80350000D01*
G75*
G02*
X115050000Y-80300000I0J50000D01*
G01*
G37*
G36*
G01*
X118250000Y-86200000D02*
X118250000Y-80800000D01*
G75*
G02*
X118300000Y-80750000I50000J0D01*
G01*
X119500000Y-80750000D01*
G75*
G02*
X119550000Y-80800000I0J-50000D01*
G01*
X119550000Y-86200000D01*
G75*
G02*
X119500000Y-86250000I-50000J0D01*
G01*
X118300000Y-86250000D01*
G75*
G02*
X118250000Y-86200000I0J50000D01*
G01*
G37*
G36*
G01*
X115050000Y-86200000D02*
X115050000Y-80800000D01*
G75*
G02*
X115100000Y-80750000I50000J0D01*
G01*
X116300000Y-80750000D01*
G75*
G02*
X116350000Y-80800000I0J-50000D01*
G01*
X116350000Y-86200000D01*
G75*
G02*
X116300000Y-86250000I-50000J0D01*
G01*
X115100000Y-86250000D01*
G75*
G02*
X115050000Y-86200000I0J50000D01*
G01*
G37*
%TD*%
%TO.C,R44*%
G36*
G01*
X116350000Y-93700000D02*
X116350000Y-94400000D01*
G75*
G02*
X116300000Y-94450000I-50000J0D01*
G01*
X115100000Y-94450000D01*
G75*
G02*
X115050000Y-94400000I0J50000D01*
G01*
X115050000Y-93700000D01*
G75*
G02*
X115100000Y-93650000I50000J0D01*
G01*
X116300000Y-93650000D01*
G75*
G02*
X116350000Y-93700000I0J-50000D01*
G01*
G37*
G36*
G01*
X119550000Y-93700000D02*
X119550000Y-94400000D01*
G75*
G02*
X119500000Y-94450000I-50000J0D01*
G01*
X118300000Y-94450000D01*
G75*
G02*
X118250000Y-94400000I0J50000D01*
G01*
X118250000Y-93700000D01*
G75*
G02*
X118300000Y-93650000I50000J0D01*
G01*
X119500000Y-93650000D01*
G75*
G02*
X119550000Y-93700000I0J-50000D01*
G01*
G37*
G36*
G01*
X116350000Y-87800000D02*
X116350000Y-93200000D01*
G75*
G02*
X116300000Y-93250000I-50000J0D01*
G01*
X115100000Y-93250000D01*
G75*
G02*
X115050000Y-93200000I0J50000D01*
G01*
X115050000Y-87800000D01*
G75*
G02*
X115100000Y-87750000I50000J0D01*
G01*
X116300000Y-87750000D01*
G75*
G02*
X116350000Y-87800000I0J-50000D01*
G01*
G37*
G36*
G01*
X119550000Y-87800000D02*
X119550000Y-93200000D01*
G75*
G02*
X119500000Y-93250000I-50000J0D01*
G01*
X118300000Y-93250000D01*
G75*
G02*
X118250000Y-93200000I0J50000D01*
G01*
X118250000Y-87800000D01*
G75*
G02*
X118300000Y-87750000I50000J0D01*
G01*
X119500000Y-87750000D01*
G75*
G02*
X119550000Y-87800000I0J-50000D01*
G01*
G37*
%TD*%
%TO.C,R49*%
G36*
G01*
X131750000Y-93700000D02*
X131750000Y-94400000D01*
G75*
G02*
X131700000Y-94450000I-50000J0D01*
G01*
X130500000Y-94450000D01*
G75*
G02*
X130450000Y-94400000I0J50000D01*
G01*
X130450000Y-93700000D01*
G75*
G02*
X130500000Y-93650000I50000J0D01*
G01*
X131700000Y-93650000D01*
G75*
G02*
X131750000Y-93700000I0J-50000D01*
G01*
G37*
G36*
G01*
X134950000Y-93700000D02*
X134950000Y-94400000D01*
G75*
G02*
X134900000Y-94450000I-50000J0D01*
G01*
X133700000Y-94450000D01*
G75*
G02*
X133650000Y-94400000I0J50000D01*
G01*
X133650000Y-93700000D01*
G75*
G02*
X133700000Y-93650000I50000J0D01*
G01*
X134900000Y-93650000D01*
G75*
G02*
X134950000Y-93700000I0J-50000D01*
G01*
G37*
G36*
G01*
X131750000Y-87800000D02*
X131750000Y-93200000D01*
G75*
G02*
X131700000Y-93250000I-50000J0D01*
G01*
X130500000Y-93250000D01*
G75*
G02*
X130450000Y-93200000I0J50000D01*
G01*
X130450000Y-87800000D01*
G75*
G02*
X130500000Y-87750000I50000J0D01*
G01*
X131700000Y-87750000D01*
G75*
G02*
X131750000Y-87800000I0J-50000D01*
G01*
G37*
G36*
G01*
X134950000Y-87800000D02*
X134950000Y-93200000D01*
G75*
G02*
X134900000Y-93250000I-50000J0D01*
G01*
X133700000Y-93250000D01*
G75*
G02*
X133650000Y-93200000I0J50000D01*
G01*
X133650000Y-87800000D01*
G75*
G02*
X133700000Y-87750000I50000J0D01*
G01*
X134900000Y-87750000D01*
G75*
G02*
X134950000Y-87800000I0J-50000D01*
G01*
G37*
%TD*%
%TO.C,R58*%
G36*
G01*
X133650000Y-80300000D02*
X133650000Y-79600000D01*
G75*
G02*
X133700000Y-79550000I50000J0D01*
G01*
X134900000Y-79550000D01*
G75*
G02*
X134950000Y-79600000I0J-50000D01*
G01*
X134950000Y-80300000D01*
G75*
G02*
X134900000Y-80350000I-50000J0D01*
G01*
X133700000Y-80350000D01*
G75*
G02*
X133650000Y-80300000I0J50000D01*
G01*
G37*
G36*
G01*
X130450000Y-80300000D02*
X130450000Y-79600000D01*
G75*
G02*
X130500000Y-79550000I50000J0D01*
G01*
X131700000Y-79550000D01*
G75*
G02*
X131750000Y-79600000I0J-50000D01*
G01*
X131750000Y-80300000D01*
G75*
G02*
X131700000Y-80350000I-50000J0D01*
G01*
X130500000Y-80350000D01*
G75*
G02*
X130450000Y-80300000I0J50000D01*
G01*
G37*
G36*
G01*
X133650000Y-86200000D02*
X133650000Y-80800000D01*
G75*
G02*
X133700000Y-80750000I50000J0D01*
G01*
X134900000Y-80750000D01*
G75*
G02*
X134950000Y-80800000I0J-50000D01*
G01*
X134950000Y-86200000D01*
G75*
G02*
X134900000Y-86250000I-50000J0D01*
G01*
X133700000Y-86250000D01*
G75*
G02*
X133650000Y-86200000I0J50000D01*
G01*
G37*
G36*
G01*
X130450000Y-86200000D02*
X130450000Y-80800000D01*
G75*
G02*
X130500000Y-80750000I50000J0D01*
G01*
X131700000Y-80750000D01*
G75*
G02*
X131750000Y-80800000I0J-50000D01*
G01*
X131750000Y-86200000D01*
G75*
G02*
X131700000Y-86250000I-50000J0D01*
G01*
X130500000Y-86250000D01*
G75*
G02*
X130450000Y-86200000I0J50000D01*
G01*
G37*
%TD*%
%TO.C,SW1*%
G36*
G01*
X117300000Y-52890000D02*
X117300000Y-51190000D01*
G75*
G02*
X117350000Y-51140000I50000J0D01*
G01*
X118250000Y-51140000D01*
G75*
G02*
X118300000Y-51190000I0J-50000D01*
G01*
X118300000Y-52890000D01*
G75*
G02*
X118250000Y-52940000I-50000J0D01*
G01*
X117350000Y-52940000D01*
G75*
G02*
X117300000Y-52890000I0J50000D01*
G01*
G37*
G36*
G01*
X113900000Y-52890000D02*
X113900000Y-51190000D01*
G75*
G02*
X113950000Y-51140000I50000J0D01*
G01*
X114850000Y-51140000D01*
G75*
G02*
X114900000Y-51190000I0J-50000D01*
G01*
X114900000Y-52890000D01*
G75*
G02*
X114850000Y-52940000I-50000J0D01*
G01*
X113950000Y-52940000D01*
G75*
G02*
X113900000Y-52890000I0J50000D01*
G01*
G37*
%TD*%
%TO.C,U8*%
G36*
G01*
X106850000Y-62295000D02*
X106850000Y-62695000D01*
G75*
G02*
X106800000Y-62745000I-50000J0D01*
G01*
X105580000Y-62745000D01*
G75*
G02*
X105530000Y-62695000I0J50000D01*
G01*
X105530000Y-62295000D01*
G75*
G02*
X105580000Y-62245000I50000J0D01*
G01*
X106800000Y-62245000D01*
G75*
G02*
X106850000Y-62295000I0J-50000D01*
G01*
G37*
G36*
G01*
X106850000Y-61655000D02*
X106850000Y-62055000D01*
G75*
G02*
X106800000Y-62105000I-50000J0D01*
G01*
X105580000Y-62105000D01*
G75*
G02*
X105530000Y-62055000I0J50000D01*
G01*
X105530000Y-61655000D01*
G75*
G02*
X105580000Y-61605000I50000J0D01*
G01*
X106800000Y-61605000D01*
G75*
G02*
X106850000Y-61655000I0J-50000D01*
G01*
G37*
G36*
G01*
X106850000Y-60995000D02*
X106850000Y-61395000D01*
G75*
G02*
X106800000Y-61445000I-50000J0D01*
G01*
X105580000Y-61445000D01*
G75*
G02*
X105530000Y-61395000I0J50000D01*
G01*
X105530000Y-60995000D01*
G75*
G02*
X105580000Y-60945000I50000J0D01*
G01*
X106800000Y-60945000D01*
G75*
G02*
X106850000Y-60995000I0J-50000D01*
G01*
G37*
G36*
G01*
X106850000Y-60355000D02*
X106850000Y-60755000D01*
G75*
G02*
X106800000Y-60805000I-50000J0D01*
G01*
X105580000Y-60805000D01*
G75*
G02*
X105530000Y-60755000I0J50000D01*
G01*
X105530000Y-60355000D01*
G75*
G02*
X105580000Y-60305000I50000J0D01*
G01*
X106800000Y-60305000D01*
G75*
G02*
X106850000Y-60355000I0J-50000D01*
G01*
G37*
G36*
G01*
X109470000Y-60355000D02*
X109470000Y-60755000D01*
G75*
G02*
X109420000Y-60805000I-50000J0D01*
G01*
X108200000Y-60805000D01*
G75*
G02*
X108150000Y-60755000I0J50000D01*
G01*
X108150000Y-60355000D01*
G75*
G02*
X108200000Y-60305000I50000J0D01*
G01*
X109420000Y-60305000D01*
G75*
G02*
X109470000Y-60355000I0J-50000D01*
G01*
G37*
G36*
G01*
X109470000Y-60995000D02*
X109470000Y-61395000D01*
G75*
G02*
X109420000Y-61445000I-50000J0D01*
G01*
X108200000Y-61445000D01*
G75*
G02*
X108150000Y-61395000I0J50000D01*
G01*
X108150000Y-60995000D01*
G75*
G02*
X108200000Y-60945000I50000J0D01*
G01*
X109420000Y-60945000D01*
G75*
G02*
X109470000Y-60995000I0J-50000D01*
G01*
G37*
G36*
G01*
X109470000Y-61655000D02*
X109470000Y-62055000D01*
G75*
G02*
X109420000Y-62105000I-50000J0D01*
G01*
X108200000Y-62105000D01*
G75*
G02*
X108150000Y-62055000I0J50000D01*
G01*
X108150000Y-61655000D01*
G75*
G02*
X108200000Y-61605000I50000J0D01*
G01*
X109420000Y-61605000D01*
G75*
G02*
X109470000Y-61655000I0J-50000D01*
G01*
G37*
G36*
G01*
X109470000Y-62295000D02*
X109470000Y-62695000D01*
G75*
G02*
X109420000Y-62745000I-50000J0D01*
G01*
X108200000Y-62745000D01*
G75*
G02*
X108150000Y-62695000I0J50000D01*
G01*
X108150000Y-62295000D01*
G75*
G02*
X108200000Y-62245000I50000J0D01*
G01*
X109420000Y-62245000D01*
G75*
G02*
X109470000Y-62295000I0J-50000D01*
G01*
G37*
%TD*%
%TO.C,D1*%
G36*
G01*
X125170000Y-50897500D02*
X125170000Y-50502500D01*
G75*
G02*
X125342500Y-50330000I172500J0D01*
G01*
X125687500Y-50330000D01*
G75*
G02*
X125860000Y-50502500I0J-172500D01*
G01*
X125860000Y-50897500D01*
G75*
G02*
X125687500Y-51070000I-172500J0D01*
G01*
X125342500Y-51070000D01*
G75*
G02*
X125170000Y-50897500I0J172500D01*
G01*
G37*
G36*
G01*
X124200000Y-50897500D02*
X124200000Y-50502500D01*
G75*
G02*
X124372500Y-50330000I172500J0D01*
G01*
X124717500Y-50330000D01*
G75*
G02*
X124890000Y-50502500I0J-172500D01*
G01*
X124890000Y-50897500D01*
G75*
G02*
X124717500Y-51070000I-172500J0D01*
G01*
X124372500Y-51070000D01*
G75*
G02*
X124200000Y-50897500I0J172500D01*
G01*
G37*
%TD*%
%TO.C,Q7*%
G36*
G01*
X121205000Y-52240000D02*
X121205000Y-51840000D01*
G75*
G02*
X121255000Y-51790000I50000J0D01*
G01*
X121505000Y-51790000D01*
G75*
G02*
X121555000Y-51840000I0J-50000D01*
G01*
X121555000Y-52240000D01*
G75*
G02*
X121505000Y-52290000I-50000J0D01*
G01*
X121255000Y-52290000D01*
G75*
G02*
X121205000Y-52240000I0J50000D01*
G01*
G37*
G36*
G01*
X121655000Y-52240000D02*
X121655000Y-51840000D01*
G75*
G02*
X121705000Y-51790000I50000J0D01*
G01*
X121955000Y-51790000D01*
G75*
G02*
X122005000Y-51840000I0J-50000D01*
G01*
X122005000Y-52240000D01*
G75*
G02*
X121955000Y-52290000I-50000J0D01*
G01*
X121705000Y-52290000D01*
G75*
G02*
X121655000Y-52240000I0J50000D01*
G01*
G37*
G36*
G01*
X121205000Y-51540000D02*
X121205000Y-51140000D01*
G75*
G02*
X121255000Y-51090000I50000J0D01*
G01*
X121955000Y-51090000D01*
G75*
G02*
X122005000Y-51140000I0J-50000D01*
G01*
X122005000Y-51540000D01*
G75*
G02*
X121955000Y-51590000I-50000J0D01*
G01*
X121255000Y-51590000D01*
G75*
G02*
X121205000Y-51540000I0J50000D01*
G01*
G37*
%TD*%
%TO.C,R4*%
G36*
G01*
X123210000Y-50575000D02*
X123210000Y-50825000D01*
G75*
G02*
X123085000Y-50950000I-125000J0D01*
G01*
X122775000Y-50950000D01*
G75*
G02*
X122650000Y-50825000I0J125000D01*
G01*
X122650000Y-50575000D01*
G75*
G02*
X122775000Y-50450000I125000J0D01*
G01*
X123085000Y-50450000D01*
G75*
G02*
X123210000Y-50575000I0J-125000D01*
G01*
G37*
G36*
G01*
X123850000Y-50575000D02*
X123850000Y-50825000D01*
G75*
G02*
X123725000Y-50950000I-125000J0D01*
G01*
X123415000Y-50950000D01*
G75*
G02*
X123290000Y-50825000I0J125000D01*
G01*
X123290000Y-50575000D01*
G75*
G02*
X123415000Y-50450000I125000J0D01*
G01*
X123725000Y-50450000D01*
G75*
G02*
X123850000Y-50575000I0J-125000D01*
G01*
G37*
%TD*%
D17*
%TO.C,H1*%
X102000000Y-98000000D03*
%TD*%
%TO.C,H2*%
X148000000Y-52000000D03*
%TD*%
%TO.C,H3*%
X102000000Y-52000000D03*
%TD*%
%TO.C,H4*%
X148000000Y-98000000D03*
%TD*%
%TO.C,C20*%
G36*
G01*
X131450000Y-95845000D02*
X131450000Y-96095000D01*
G75*
G02*
X131325000Y-96220000I-125000J0D01*
G01*
X131015000Y-96220000D01*
G75*
G02*
X130890000Y-96095000I0J125000D01*
G01*
X130890000Y-95845000D01*
G75*
G02*
X131015000Y-95720000I125000J0D01*
G01*
X131325000Y-95720000D01*
G75*
G02*
X131450000Y-95845000I0J-125000D01*
G01*
G37*
G36*
G01*
X132090000Y-95845000D02*
X132090000Y-96095000D01*
G75*
G02*
X131965000Y-96220000I-125000J0D01*
G01*
X131655000Y-96220000D01*
G75*
G02*
X131530000Y-96095000I0J125000D01*
G01*
X131530000Y-95845000D01*
G75*
G02*
X131655000Y-95720000I125000J0D01*
G01*
X131965000Y-95720000D01*
G75*
G02*
X132090000Y-95845000I0J-125000D01*
G01*
G37*
%TD*%
%TO.C,C24*%
G36*
G01*
X135630000Y-96270000D02*
X135630000Y-96020000D01*
G75*
G02*
X135755000Y-95895000I125000J0D01*
G01*
X136065000Y-95895000D01*
G75*
G02*
X136190000Y-96020000I0J-125000D01*
G01*
X136190000Y-96270000D01*
G75*
G02*
X136065000Y-96395000I-125000J0D01*
G01*
X135755000Y-96395000D01*
G75*
G02*
X135630000Y-96270000I0J125000D01*
G01*
G37*
G36*
G01*
X134990000Y-96270000D02*
X134990000Y-96020000D01*
G75*
G02*
X135115000Y-95895000I125000J0D01*
G01*
X135425000Y-95895000D01*
G75*
G02*
X135550000Y-96020000I0J-125000D01*
G01*
X135550000Y-96270000D01*
G75*
G02*
X135425000Y-96395000I-125000J0D01*
G01*
X135115000Y-96395000D01*
G75*
G02*
X134990000Y-96270000I0J125000D01*
G01*
G37*
%TD*%
%TO.C,U7*%
G36*
G01*
X116200000Y-97470000D02*
X116200000Y-97720000D01*
G75*
G02*
X116150000Y-97770000I-50000J0D01*
G01*
X116000000Y-97770000D01*
G75*
G02*
X115950000Y-97720000I0J50000D01*
G01*
X115950000Y-97470000D01*
G75*
G02*
X116000000Y-97420000I50000J0D01*
G01*
X116150000Y-97420000D01*
G75*
G02*
X116200000Y-97470000I0J-50000D01*
G01*
G37*
G36*
G01*
X115750000Y-97770000D02*
X115550000Y-97770000D01*
G75*
G02*
X115500000Y-97720000I0J50000D01*
G01*
X115500000Y-97120000D01*
G75*
G02*
X115550000Y-97070000I50000J0D01*
G01*
X115750000Y-97070000D01*
G75*
G02*
X115800000Y-97120000I0J-50000D01*
G01*
X115800000Y-97720000D01*
G75*
G02*
X115750000Y-97770000I-50000J0D01*
G01*
G37*
G36*
G01*
X115300000Y-97570000D02*
X114700000Y-97570000D01*
G75*
G02*
X114650000Y-97520000I0J50000D01*
G01*
X114650000Y-97320000D01*
G75*
G02*
X114700000Y-97270000I50000J0D01*
G01*
X115300000Y-97270000D01*
G75*
G02*
X115350000Y-97320000I0J-50000D01*
G01*
X115350000Y-97520000D01*
G75*
G02*
X115300000Y-97570000I-50000J0D01*
G01*
G37*
G36*
G01*
X115300000Y-97170000D02*
X114700000Y-97170000D01*
G75*
G02*
X114650000Y-97120000I0J50000D01*
G01*
X114650000Y-96920000D01*
G75*
G02*
X114700000Y-96870000I50000J0D01*
G01*
X115300000Y-96870000D01*
G75*
G02*
X115350000Y-96920000I0J-50000D01*
G01*
X115350000Y-97120000D01*
G75*
G02*
X115300000Y-97170000I-50000J0D01*
G01*
G37*
G36*
G01*
X115300000Y-96770000D02*
X114700000Y-96770000D01*
G75*
G02*
X114650000Y-96720000I0J50000D01*
G01*
X114650000Y-96520000D01*
G75*
G02*
X114700000Y-96470000I50000J0D01*
G01*
X115300000Y-96470000D01*
G75*
G02*
X115350000Y-96520000I0J-50000D01*
G01*
X115350000Y-96720000D01*
G75*
G02*
X115300000Y-96770000I-50000J0D01*
G01*
G37*
G36*
G01*
X115300000Y-96370000D02*
X114700000Y-96370000D01*
G75*
G02*
X114650000Y-96320000I0J50000D01*
G01*
X114650000Y-96120000D01*
G75*
G02*
X114700000Y-96070000I50000J0D01*
G01*
X115300000Y-96070000D01*
G75*
G02*
X115350000Y-96120000I0J-50000D01*
G01*
X115350000Y-96320000D01*
G75*
G02*
X115300000Y-96370000I-50000J0D01*
G01*
G37*
G36*
G01*
X115300000Y-95970000D02*
X114700000Y-95970000D01*
G75*
G02*
X114650000Y-95920000I0J50000D01*
G01*
X114650000Y-95720000D01*
G75*
G02*
X114700000Y-95670000I50000J0D01*
G01*
X115300000Y-95670000D01*
G75*
G02*
X115350000Y-95720000I0J-50000D01*
G01*
X115350000Y-95920000D01*
G75*
G02*
X115300000Y-95970000I-50000J0D01*
G01*
G37*
G36*
G01*
X115750000Y-96170000D02*
X115550000Y-96170000D01*
G75*
G02*
X115500000Y-96120000I0J50000D01*
G01*
X115500000Y-95520000D01*
G75*
G02*
X115550000Y-95470000I50000J0D01*
G01*
X115750000Y-95470000D01*
G75*
G02*
X115800000Y-95520000I0J-50000D01*
G01*
X115800000Y-96120000D01*
G75*
G02*
X115750000Y-96170000I-50000J0D01*
G01*
G37*
G36*
G01*
X116600000Y-95970000D02*
X116000000Y-95970000D01*
G75*
G02*
X115950000Y-95920000I0J50000D01*
G01*
X115950000Y-95720000D01*
G75*
G02*
X116000000Y-95670000I50000J0D01*
G01*
X116600000Y-95670000D01*
G75*
G02*
X116650000Y-95720000I0J-50000D01*
G01*
X116650000Y-95920000D01*
G75*
G02*
X116600000Y-95970000I-50000J0D01*
G01*
G37*
G36*
G01*
X116600000Y-96370000D02*
X116000000Y-96370000D01*
G75*
G02*
X115950000Y-96320000I0J50000D01*
G01*
X115950000Y-96120000D01*
G75*
G02*
X116000000Y-96070000I50000J0D01*
G01*
X116600000Y-96070000D01*
G75*
G02*
X116650000Y-96120000I0J-50000D01*
G01*
X116650000Y-96320000D01*
G75*
G02*
X116600000Y-96370000I-50000J0D01*
G01*
G37*
G36*
G01*
X116600000Y-96770000D02*
X116000000Y-96770000D01*
G75*
G02*
X115950000Y-96720000I0J50000D01*
G01*
X115950000Y-96520000D01*
G75*
G02*
X116000000Y-96470000I50000J0D01*
G01*
X116600000Y-96470000D01*
G75*
G02*
X116650000Y-96520000I0J-50000D01*
G01*
X116650000Y-96720000D01*
G75*
G02*
X116600000Y-96770000I-50000J0D01*
G01*
G37*
G36*
G01*
X116600000Y-97170000D02*
X116000000Y-97170000D01*
G75*
G02*
X115950000Y-97120000I0J50000D01*
G01*
X115950000Y-96920000D01*
G75*
G02*
X116000000Y-96870000I50000J0D01*
G01*
X116600000Y-96870000D01*
G75*
G02*
X116650000Y-96920000I0J-50000D01*
G01*
X116650000Y-97120000D01*
G75*
G02*
X116600000Y-97170000I-50000J0D01*
G01*
G37*
G36*
G01*
X116600000Y-97570000D02*
X116000000Y-97570000D01*
G75*
G02*
X115950000Y-97520000I0J50000D01*
G01*
X115950000Y-97320000D01*
G75*
G02*
X116000000Y-97270000I50000J0D01*
G01*
X116600000Y-97270000D01*
G75*
G02*
X116650000Y-97320000I0J-50000D01*
G01*
X116650000Y-97520000D01*
G75*
G02*
X116600000Y-97570000I-50000J0D01*
G01*
G37*
%TD*%
%TO.C,U17*%
G36*
G01*
X132990000Y-96095000D02*
X132990000Y-95845000D01*
G75*
G02*
X133040000Y-95795000I50000J0D01*
G01*
X133190000Y-95795000D01*
G75*
G02*
X133240000Y-95845000I0J-50000D01*
G01*
X133240000Y-96095000D01*
G75*
G02*
X133190000Y-96145000I-50000J0D01*
G01*
X133040000Y-96145000D01*
G75*
G02*
X132990000Y-96095000I0J50000D01*
G01*
G37*
G36*
G01*
X133440000Y-95795000D02*
X133640000Y-95795000D01*
G75*
G02*
X133690000Y-95845000I0J-50000D01*
G01*
X133690000Y-96445000D01*
G75*
G02*
X133640000Y-96495000I-50000J0D01*
G01*
X133440000Y-96495000D01*
G75*
G02*
X133390000Y-96445000I0J50000D01*
G01*
X133390000Y-95845000D01*
G75*
G02*
X133440000Y-95795000I50000J0D01*
G01*
G37*
G36*
G01*
X133890000Y-95995000D02*
X134490000Y-95995000D01*
G75*
G02*
X134540000Y-96045000I0J-50000D01*
G01*
X134540000Y-96245000D01*
G75*
G02*
X134490000Y-96295000I-50000J0D01*
G01*
X133890000Y-96295000D01*
G75*
G02*
X133840000Y-96245000I0J50000D01*
G01*
X133840000Y-96045000D01*
G75*
G02*
X133890000Y-95995000I50000J0D01*
G01*
G37*
G36*
G01*
X133890000Y-96395000D02*
X134490000Y-96395000D01*
G75*
G02*
X134540000Y-96445000I0J-50000D01*
G01*
X134540000Y-96645000D01*
G75*
G02*
X134490000Y-96695000I-50000J0D01*
G01*
X133890000Y-96695000D01*
G75*
G02*
X133840000Y-96645000I0J50000D01*
G01*
X133840000Y-96445000D01*
G75*
G02*
X133890000Y-96395000I50000J0D01*
G01*
G37*
G36*
G01*
X133890000Y-96795000D02*
X134490000Y-96795000D01*
G75*
G02*
X134540000Y-96845000I0J-50000D01*
G01*
X134540000Y-97045000D01*
G75*
G02*
X134490000Y-97095000I-50000J0D01*
G01*
X133890000Y-97095000D01*
G75*
G02*
X133840000Y-97045000I0J50000D01*
G01*
X133840000Y-96845000D01*
G75*
G02*
X133890000Y-96795000I50000J0D01*
G01*
G37*
G36*
G01*
X133890000Y-97195000D02*
X134490000Y-97195000D01*
G75*
G02*
X134540000Y-97245000I0J-50000D01*
G01*
X134540000Y-97445000D01*
G75*
G02*
X134490000Y-97495000I-50000J0D01*
G01*
X133890000Y-97495000D01*
G75*
G02*
X133840000Y-97445000I0J50000D01*
G01*
X133840000Y-97245000D01*
G75*
G02*
X133890000Y-97195000I50000J0D01*
G01*
G37*
G36*
G01*
X133890000Y-97595000D02*
X134490000Y-97595000D01*
G75*
G02*
X134540000Y-97645000I0J-50000D01*
G01*
X134540000Y-97845000D01*
G75*
G02*
X134490000Y-97895000I-50000J0D01*
G01*
X133890000Y-97895000D01*
G75*
G02*
X133840000Y-97845000I0J50000D01*
G01*
X133840000Y-97645000D01*
G75*
G02*
X133890000Y-97595000I50000J0D01*
G01*
G37*
G36*
G01*
X133440000Y-97395000D02*
X133640000Y-97395000D01*
G75*
G02*
X133690000Y-97445000I0J-50000D01*
G01*
X133690000Y-98045000D01*
G75*
G02*
X133640000Y-98095000I-50000J0D01*
G01*
X133440000Y-98095000D01*
G75*
G02*
X133390000Y-98045000I0J50000D01*
G01*
X133390000Y-97445000D01*
G75*
G02*
X133440000Y-97395000I50000J0D01*
G01*
G37*
G36*
G01*
X132590000Y-97595000D02*
X133190000Y-97595000D01*
G75*
G02*
X133240000Y-97645000I0J-50000D01*
G01*
X133240000Y-97845000D01*
G75*
G02*
X133190000Y-97895000I-50000J0D01*
G01*
X132590000Y-97895000D01*
G75*
G02*
X132540000Y-97845000I0J50000D01*
G01*
X132540000Y-97645000D01*
G75*
G02*
X132590000Y-97595000I50000J0D01*
G01*
G37*
G36*
G01*
X132590000Y-97195000D02*
X133190000Y-97195000D01*
G75*
G02*
X133240000Y-97245000I0J-50000D01*
G01*
X133240000Y-97445000D01*
G75*
G02*
X133190000Y-97495000I-50000J0D01*
G01*
X132590000Y-97495000D01*
G75*
G02*
X132540000Y-97445000I0J50000D01*
G01*
X132540000Y-97245000D01*
G75*
G02*
X132590000Y-97195000I50000J0D01*
G01*
G37*
G36*
G01*
X132590000Y-96795000D02*
X133190000Y-96795000D01*
G75*
G02*
X133240000Y-96845000I0J-50000D01*
G01*
X133240000Y-97045000D01*
G75*
G02*
X133190000Y-97095000I-50000J0D01*
G01*
X132590000Y-97095000D01*
G75*
G02*
X132540000Y-97045000I0J50000D01*
G01*
X132540000Y-96845000D01*
G75*
G02*
X132590000Y-96795000I50000J0D01*
G01*
G37*
G36*
G01*
X132590000Y-96395000D02*
X133190000Y-96395000D01*
G75*
G02*
X133240000Y-96445000I0J-50000D01*
G01*
X133240000Y-96645000D01*
G75*
G02*
X133190000Y-96695000I-50000J0D01*
G01*
X132590000Y-96695000D01*
G75*
G02*
X132540000Y-96645000I0J50000D01*
G01*
X132540000Y-96445000D01*
G75*
G02*
X132590000Y-96395000I50000J0D01*
G01*
G37*
G36*
G01*
X132590000Y-95995000D02*
X133190000Y-95995000D01*
G75*
G02*
X133240000Y-96045000I0J-50000D01*
G01*
X133240000Y-96245000D01*
G75*
G02*
X133190000Y-96295000I-50000J0D01*
G01*
X132590000Y-96295000D01*
G75*
G02*
X132540000Y-96245000I0J50000D01*
G01*
X132540000Y-96045000D01*
G75*
G02*
X132590000Y-95995000I50000J0D01*
G01*
G37*
%TD*%
D18*
%TO.C,J3*%
X102700000Y-67900000D03*
X102700000Y-69150000D03*
G36*
G01*
X103175000Y-70950000D02*
X102225000Y-70950000D01*
G75*
G02*
X101950000Y-70675000I0J275000D01*
G01*
X101950000Y-70125000D01*
G75*
G02*
X102225000Y-69850000I275000J0D01*
G01*
X103175000Y-69850000D01*
G75*
G02*
X103450000Y-70125000I0J-275000D01*
G01*
X103450000Y-70675000D01*
G75*
G02*
X103175000Y-70950000I-275000J0D01*
G01*
G37*
%TD*%
%TO.C,J4*%
X147300000Y-70400000D03*
X147300000Y-69150000D03*
G36*
G01*
X146825000Y-67350000D02*
X147775000Y-67350000D01*
G75*
G02*
X148050000Y-67625000I0J-275000D01*
G01*
X148050000Y-68175000D01*
G75*
G02*
X147775000Y-68450000I-275000J0D01*
G01*
X146825000Y-68450000D01*
G75*
G02*
X146550000Y-68175000I0J275000D01*
G01*
X146550000Y-67625000D01*
G75*
G02*
X146825000Y-67350000I275000J0D01*
G01*
G37*
%TD*%
%TO.C,J7*%
X102700000Y-60900000D03*
G36*
G01*
X103175000Y-62700000D02*
X102225000Y-62700000D01*
G75*
G02*
X101950000Y-62425000I0J275000D01*
G01*
X101950000Y-61875000D01*
G75*
G02*
X102225000Y-61600000I275000J0D01*
G01*
X103175000Y-61600000D01*
G75*
G02*
X103450000Y-61875000I0J-275000D01*
G01*
X103450000Y-62425000D01*
G75*
G02*
X103175000Y-62700000I-275000J0D01*
G01*
G37*
%TD*%
D12*
%TO.C,J8*%
X143500000Y-52700000D03*
X142250000Y-52700000D03*
X141000000Y-52700000D03*
X139750000Y-52700000D03*
X138500000Y-52700000D03*
X137250000Y-52700000D03*
G36*
G01*
X135450000Y-53175000D02*
X135450000Y-52225000D01*
G75*
G02*
X135725000Y-51950000I275000J0D01*
G01*
X136275000Y-51950000D01*
G75*
G02*
X136550000Y-52225000I0J-275000D01*
G01*
X136550000Y-53175000D01*
G75*
G02*
X136275000Y-53450000I-275000J0D01*
G01*
X135725000Y-53450000D01*
G75*
G02*
X135450000Y-53175000I0J275000D01*
G01*
G37*
%TD*%
D18*
%TO.C,J10*%
X147300000Y-64000000D03*
X147300000Y-62750000D03*
X147300000Y-61500000D03*
X147300000Y-60250000D03*
X147300000Y-59000000D03*
X147300000Y-57750000D03*
G36*
G01*
X146825000Y-55950000D02*
X147775000Y-55950000D01*
G75*
G02*
X148050000Y-56225000I0J-275000D01*
G01*
X148050000Y-56775000D01*
G75*
G02*
X147775000Y-57050000I-275000J0D01*
G01*
X146825000Y-57050000D01*
G75*
G02*
X146550000Y-56775000I0J275000D01*
G01*
X146550000Y-56225000D01*
G75*
G02*
X146825000Y-55950000I275000J0D01*
G01*
G37*
%TD*%
%TO.C,U20*%
G36*
G01*
X140650000Y-78750000D02*
X140650000Y-74150000D01*
G75*
G02*
X140700000Y-74100000I50000J0D01*
G01*
X145300000Y-74100000D01*
G75*
G02*
X145350000Y-74150000I0J-50000D01*
G01*
X145350000Y-78750000D01*
G75*
G02*
X145300000Y-78800000I-50000J0D01*
G01*
X140700000Y-78800000D01*
G75*
G02*
X140650000Y-78750000I0J50000D01*
G01*
G37*
G36*
G01*
X140575000Y-73887500D02*
X140575000Y-73137500D01*
G75*
G02*
X140662500Y-73050000I87500J0D01*
G01*
X140837500Y-73050000D01*
G75*
G02*
X140925000Y-73137500I0J-87500D01*
G01*
X140925000Y-73887500D01*
G75*
G02*
X140837500Y-73975000I-87500J0D01*
G01*
X140662500Y-73975000D01*
G75*
G02*
X140575000Y-73887500I0J87500D01*
G01*
G37*
G36*
G01*
X141075000Y-73887500D02*
X141075000Y-73137500D01*
G75*
G02*
X141162500Y-73050000I87500J0D01*
G01*
X141337500Y-73050000D01*
G75*
G02*
X141425000Y-73137500I0J-87500D01*
G01*
X141425000Y-73887500D01*
G75*
G02*
X141337500Y-73975000I-87500J0D01*
G01*
X141162500Y-73975000D01*
G75*
G02*
X141075000Y-73887500I0J87500D01*
G01*
G37*
G36*
G01*
X141575000Y-73887500D02*
X141575000Y-73137500D01*
G75*
G02*
X141662500Y-73050000I87500J0D01*
G01*
X141837500Y-73050000D01*
G75*
G02*
X141925000Y-73137500I0J-87500D01*
G01*
X141925000Y-73887500D01*
G75*
G02*
X141837500Y-73975000I-87500J0D01*
G01*
X141662500Y-73975000D01*
G75*
G02*
X141575000Y-73887500I0J87500D01*
G01*
G37*
G36*
G01*
X142075000Y-73887500D02*
X142075000Y-73137500D01*
G75*
G02*
X142162500Y-73050000I87500J0D01*
G01*
X142337500Y-73050000D01*
G75*
G02*
X142425000Y-73137500I0J-87500D01*
G01*
X142425000Y-73887500D01*
G75*
G02*
X142337500Y-73975000I-87500J0D01*
G01*
X142162500Y-73975000D01*
G75*
G02*
X142075000Y-73887500I0J87500D01*
G01*
G37*
G36*
G01*
X142575000Y-73887500D02*
X142575000Y-73137500D01*
G75*
G02*
X142662500Y-73050000I87500J0D01*
G01*
X142837500Y-73050000D01*
G75*
G02*
X142925000Y-73137500I0J-87500D01*
G01*
X142925000Y-73887500D01*
G75*
G02*
X142837500Y-73975000I-87500J0D01*
G01*
X142662500Y-73975000D01*
G75*
G02*
X142575000Y-73887500I0J87500D01*
G01*
G37*
G36*
G01*
X143075000Y-73887500D02*
X143075000Y-73137500D01*
G75*
G02*
X143162500Y-73050000I87500J0D01*
G01*
X143337500Y-73050000D01*
G75*
G02*
X143425000Y-73137500I0J-87500D01*
G01*
X143425000Y-73887500D01*
G75*
G02*
X143337500Y-73975000I-87500J0D01*
G01*
X143162500Y-73975000D01*
G75*
G02*
X143075000Y-73887500I0J87500D01*
G01*
G37*
G36*
G01*
X143575000Y-73887500D02*
X143575000Y-73137500D01*
G75*
G02*
X143662500Y-73050000I87500J0D01*
G01*
X143837500Y-73050000D01*
G75*
G02*
X143925000Y-73137500I0J-87500D01*
G01*
X143925000Y-73887500D01*
G75*
G02*
X143837500Y-73975000I-87500J0D01*
G01*
X143662500Y-73975000D01*
G75*
G02*
X143575000Y-73887500I0J87500D01*
G01*
G37*
G36*
G01*
X144075000Y-73887500D02*
X144075000Y-73137500D01*
G75*
G02*
X144162500Y-73050000I87500J0D01*
G01*
X144337500Y-73050000D01*
G75*
G02*
X144425000Y-73137500I0J-87500D01*
G01*
X144425000Y-73887500D01*
G75*
G02*
X144337500Y-73975000I-87500J0D01*
G01*
X144162500Y-73975000D01*
G75*
G02*
X144075000Y-73887500I0J87500D01*
G01*
G37*
G36*
G01*
X144575000Y-73887500D02*
X144575000Y-73137500D01*
G75*
G02*
X144662500Y-73050000I87500J0D01*
G01*
X144837500Y-73050000D01*
G75*
G02*
X144925000Y-73137500I0J-87500D01*
G01*
X144925000Y-73887500D01*
G75*
G02*
X144837500Y-73975000I-87500J0D01*
G01*
X144662500Y-73975000D01*
G75*
G02*
X144575000Y-73887500I0J87500D01*
G01*
G37*
G36*
G01*
X145075000Y-73887500D02*
X145075000Y-73137500D01*
G75*
G02*
X145162500Y-73050000I87500J0D01*
G01*
X145337500Y-73050000D01*
G75*
G02*
X145425000Y-73137500I0J-87500D01*
G01*
X145425000Y-73887500D01*
G75*
G02*
X145337500Y-73975000I-87500J0D01*
G01*
X145162500Y-73975000D01*
G75*
G02*
X145075000Y-73887500I0J87500D01*
G01*
G37*
G36*
G01*
X145475000Y-74287500D02*
X145475000Y-74112500D01*
G75*
G02*
X145562500Y-74025000I87500J0D01*
G01*
X146312500Y-74025000D01*
G75*
G02*
X146400000Y-74112500I0J-87500D01*
G01*
X146400000Y-74287500D01*
G75*
G02*
X146312500Y-74375000I-87500J0D01*
G01*
X145562500Y-74375000D01*
G75*
G02*
X145475000Y-74287500I0J87500D01*
G01*
G37*
G36*
G01*
X145475000Y-74787500D02*
X145475000Y-74612500D01*
G75*
G02*
X145562500Y-74525000I87500J0D01*
G01*
X146312500Y-74525000D01*
G75*
G02*
X146400000Y-74612500I0J-87500D01*
G01*
X146400000Y-74787500D01*
G75*
G02*
X146312500Y-74875000I-87500J0D01*
G01*
X145562500Y-74875000D01*
G75*
G02*
X145475000Y-74787500I0J87500D01*
G01*
G37*
G36*
G01*
X145475000Y-75287500D02*
X145475000Y-75112500D01*
G75*
G02*
X145562500Y-75025000I87500J0D01*
G01*
X146312500Y-75025000D01*
G75*
G02*
X146400000Y-75112500I0J-87500D01*
G01*
X146400000Y-75287500D01*
G75*
G02*
X146312500Y-75375000I-87500J0D01*
G01*
X145562500Y-75375000D01*
G75*
G02*
X145475000Y-75287500I0J87500D01*
G01*
G37*
G36*
G01*
X145475000Y-75787500D02*
X145475000Y-75612500D01*
G75*
G02*
X145562500Y-75525000I87500J0D01*
G01*
X146312500Y-75525000D01*
G75*
G02*
X146400000Y-75612500I0J-87500D01*
G01*
X146400000Y-75787500D01*
G75*
G02*
X146312500Y-75875000I-87500J0D01*
G01*
X145562500Y-75875000D01*
G75*
G02*
X145475000Y-75787500I0J87500D01*
G01*
G37*
G36*
G01*
X145475000Y-76287500D02*
X145475000Y-76112500D01*
G75*
G02*
X145562500Y-76025000I87500J0D01*
G01*
X146312500Y-76025000D01*
G75*
G02*
X146400000Y-76112500I0J-87500D01*
G01*
X146400000Y-76287500D01*
G75*
G02*
X146312500Y-76375000I-87500J0D01*
G01*
X145562500Y-76375000D01*
G75*
G02*
X145475000Y-76287500I0J87500D01*
G01*
G37*
G36*
G01*
X145475000Y-76787500D02*
X145475000Y-76612500D01*
G75*
G02*
X145562500Y-76525000I87500J0D01*
G01*
X146312500Y-76525000D01*
G75*
G02*
X146400000Y-76612500I0J-87500D01*
G01*
X146400000Y-76787500D01*
G75*
G02*
X146312500Y-76875000I-87500J0D01*
G01*
X145562500Y-76875000D01*
G75*
G02*
X145475000Y-76787500I0J87500D01*
G01*
G37*
G36*
G01*
X145475000Y-77287500D02*
X145475000Y-77112500D01*
G75*
G02*
X145562500Y-77025000I87500J0D01*
G01*
X146312500Y-77025000D01*
G75*
G02*
X146400000Y-77112500I0J-87500D01*
G01*
X146400000Y-77287500D01*
G75*
G02*
X146312500Y-77375000I-87500J0D01*
G01*
X145562500Y-77375000D01*
G75*
G02*
X145475000Y-77287500I0J87500D01*
G01*
G37*
G36*
G01*
X145475000Y-77787500D02*
X145475000Y-77612500D01*
G75*
G02*
X145562500Y-77525000I87500J0D01*
G01*
X146312500Y-77525000D01*
G75*
G02*
X146400000Y-77612500I0J-87500D01*
G01*
X146400000Y-77787500D01*
G75*
G02*
X146312500Y-77875000I-87500J0D01*
G01*
X145562500Y-77875000D01*
G75*
G02*
X145475000Y-77787500I0J87500D01*
G01*
G37*
G36*
G01*
X145475000Y-78287500D02*
X145475000Y-78112500D01*
G75*
G02*
X145562500Y-78025000I87500J0D01*
G01*
X146312500Y-78025000D01*
G75*
G02*
X146400000Y-78112500I0J-87500D01*
G01*
X146400000Y-78287500D01*
G75*
G02*
X146312500Y-78375000I-87500J0D01*
G01*
X145562500Y-78375000D01*
G75*
G02*
X145475000Y-78287500I0J87500D01*
G01*
G37*
G36*
G01*
X145475000Y-78787500D02*
X145475000Y-78612500D01*
G75*
G02*
X145562500Y-78525000I87500J0D01*
G01*
X146312500Y-78525000D01*
G75*
G02*
X146400000Y-78612500I0J-87500D01*
G01*
X146400000Y-78787500D01*
G75*
G02*
X146312500Y-78875000I-87500J0D01*
G01*
X145562500Y-78875000D01*
G75*
G02*
X145475000Y-78787500I0J87500D01*
G01*
G37*
G36*
G01*
X145075000Y-79762500D02*
X145075000Y-79012500D01*
G75*
G02*
X145162500Y-78925000I87500J0D01*
G01*
X145337500Y-78925000D01*
G75*
G02*
X145425000Y-79012500I0J-87500D01*
G01*
X145425000Y-79762500D01*
G75*
G02*
X145337500Y-79850000I-87500J0D01*
G01*
X145162500Y-79850000D01*
G75*
G02*
X145075000Y-79762500I0J87500D01*
G01*
G37*
G36*
G01*
X144575000Y-79762500D02*
X144575000Y-79012500D01*
G75*
G02*
X144662500Y-78925000I87500J0D01*
G01*
X144837500Y-78925000D01*
G75*
G02*
X144925000Y-79012500I0J-87500D01*
G01*
X144925000Y-79762500D01*
G75*
G02*
X144837500Y-79850000I-87500J0D01*
G01*
X144662500Y-79850000D01*
G75*
G02*
X144575000Y-79762500I0J87500D01*
G01*
G37*
G36*
G01*
X144075000Y-79762500D02*
X144075000Y-79012500D01*
G75*
G02*
X144162500Y-78925000I87500J0D01*
G01*
X144337500Y-78925000D01*
G75*
G02*
X144425000Y-79012500I0J-87500D01*
G01*
X144425000Y-79762500D01*
G75*
G02*
X144337500Y-79850000I-87500J0D01*
G01*
X144162500Y-79850000D01*
G75*
G02*
X144075000Y-79762500I0J87500D01*
G01*
G37*
G36*
G01*
X143575000Y-79762500D02*
X143575000Y-79012500D01*
G75*
G02*
X143662500Y-78925000I87500J0D01*
G01*
X143837500Y-78925000D01*
G75*
G02*
X143925000Y-79012500I0J-87500D01*
G01*
X143925000Y-79762500D01*
G75*
G02*
X143837500Y-79850000I-87500J0D01*
G01*
X143662500Y-79850000D01*
G75*
G02*
X143575000Y-79762500I0J87500D01*
G01*
G37*
G36*
G01*
X143075000Y-79762500D02*
X143075000Y-79012500D01*
G75*
G02*
X143162500Y-78925000I87500J0D01*
G01*
X143337500Y-78925000D01*
G75*
G02*
X143425000Y-79012500I0J-87500D01*
G01*
X143425000Y-79762500D01*
G75*
G02*
X143337500Y-79850000I-87500J0D01*
G01*
X143162500Y-79850000D01*
G75*
G02*
X143075000Y-79762500I0J87500D01*
G01*
G37*
G36*
G01*
X142575000Y-79762500D02*
X142575000Y-79012500D01*
G75*
G02*
X142662500Y-78925000I87500J0D01*
G01*
X142837500Y-78925000D01*
G75*
G02*
X142925000Y-79012500I0J-87500D01*
G01*
X142925000Y-79762500D01*
G75*
G02*
X142837500Y-79850000I-87500J0D01*
G01*
X142662500Y-79850000D01*
G75*
G02*
X142575000Y-79762500I0J87500D01*
G01*
G37*
G36*
G01*
X142075000Y-79762500D02*
X142075000Y-79012500D01*
G75*
G02*
X142162500Y-78925000I87500J0D01*
G01*
X142337500Y-78925000D01*
G75*
G02*
X142425000Y-79012500I0J-87500D01*
G01*
X142425000Y-79762500D01*
G75*
G02*
X142337500Y-79850000I-87500J0D01*
G01*
X142162500Y-79850000D01*
G75*
G02*
X142075000Y-79762500I0J87500D01*
G01*
G37*
G36*
G01*
X141575000Y-79762500D02*
X141575000Y-79012500D01*
G75*
G02*
X141662500Y-78925000I87500J0D01*
G01*
X141837500Y-78925000D01*
G75*
G02*
X141925000Y-79012500I0J-87500D01*
G01*
X141925000Y-79762500D01*
G75*
G02*
X141837500Y-79850000I-87500J0D01*
G01*
X141662500Y-79850000D01*
G75*
G02*
X141575000Y-79762500I0J87500D01*
G01*
G37*
G36*
G01*
X141075000Y-79762500D02*
X141075000Y-79012500D01*
G75*
G02*
X141162500Y-78925000I87500J0D01*
G01*
X141337500Y-78925000D01*
G75*
G02*
X141425000Y-79012500I0J-87500D01*
G01*
X141425000Y-79762500D01*
G75*
G02*
X141337500Y-79850000I-87500J0D01*
G01*
X141162500Y-79850000D01*
G75*
G02*
X141075000Y-79762500I0J87500D01*
G01*
G37*
G36*
G01*
X140575000Y-79762500D02*
X140575000Y-79012500D01*
G75*
G02*
X140662500Y-78925000I87500J0D01*
G01*
X140837500Y-78925000D01*
G75*
G02*
X140925000Y-79012500I0J-87500D01*
G01*
X140925000Y-79762500D01*
G75*
G02*
X140837500Y-79850000I-87500J0D01*
G01*
X140662500Y-79850000D01*
G75*
G02*
X140575000Y-79762500I0J87500D01*
G01*
G37*
G36*
G01*
X139600000Y-78787500D02*
X139600000Y-78612500D01*
G75*
G02*
X139687500Y-78525000I87500J0D01*
G01*
X140437500Y-78525000D01*
G75*
G02*
X140525000Y-78612500I0J-87500D01*
G01*
X140525000Y-78787500D01*
G75*
G02*
X140437500Y-78875000I-87500J0D01*
G01*
X139687500Y-78875000D01*
G75*
G02*
X139600000Y-78787500I0J87500D01*
G01*
G37*
G36*
G01*
X139600000Y-78287500D02*
X139600000Y-78112500D01*
G75*
G02*
X139687500Y-78025000I87500J0D01*
G01*
X140437500Y-78025000D01*
G75*
G02*
X140525000Y-78112500I0J-87500D01*
G01*
X140525000Y-78287500D01*
G75*
G02*
X140437500Y-78375000I-87500J0D01*
G01*
X139687500Y-78375000D01*
G75*
G02*
X139600000Y-78287500I0J87500D01*
G01*
G37*
G36*
G01*
X139600000Y-77787500D02*
X139600000Y-77612500D01*
G75*
G02*
X139687500Y-77525000I87500J0D01*
G01*
X140437500Y-77525000D01*
G75*
G02*
X140525000Y-77612500I0J-87500D01*
G01*
X140525000Y-77787500D01*
G75*
G02*
X140437500Y-77875000I-87500J0D01*
G01*
X139687500Y-77875000D01*
G75*
G02*
X139600000Y-77787500I0J87500D01*
G01*
G37*
G36*
G01*
X139600000Y-77287500D02*
X139600000Y-77112500D01*
G75*
G02*
X139687500Y-77025000I87500J0D01*
G01*
X140437500Y-77025000D01*
G75*
G02*
X140525000Y-77112500I0J-87500D01*
G01*
X140525000Y-77287500D01*
G75*
G02*
X140437500Y-77375000I-87500J0D01*
G01*
X139687500Y-77375000D01*
G75*
G02*
X139600000Y-77287500I0J87500D01*
G01*
G37*
G36*
G01*
X139600000Y-76787500D02*
X139600000Y-76612500D01*
G75*
G02*
X139687500Y-76525000I87500J0D01*
G01*
X140437500Y-76525000D01*
G75*
G02*
X140525000Y-76612500I0J-87500D01*
G01*
X140525000Y-76787500D01*
G75*
G02*
X140437500Y-76875000I-87500J0D01*
G01*
X139687500Y-76875000D01*
G75*
G02*
X139600000Y-76787500I0J87500D01*
G01*
G37*
G36*
G01*
X139600000Y-76287500D02*
X139600000Y-76112500D01*
G75*
G02*
X139687500Y-76025000I87500J0D01*
G01*
X140437500Y-76025000D01*
G75*
G02*
X140525000Y-76112500I0J-87500D01*
G01*
X140525000Y-76287500D01*
G75*
G02*
X140437500Y-76375000I-87500J0D01*
G01*
X139687500Y-76375000D01*
G75*
G02*
X139600000Y-76287500I0J87500D01*
G01*
G37*
G36*
G01*
X139600000Y-75787500D02*
X139600000Y-75612500D01*
G75*
G02*
X139687500Y-75525000I87500J0D01*
G01*
X140437500Y-75525000D01*
G75*
G02*
X140525000Y-75612500I0J-87500D01*
G01*
X140525000Y-75787500D01*
G75*
G02*
X140437500Y-75875000I-87500J0D01*
G01*
X139687500Y-75875000D01*
G75*
G02*
X139600000Y-75787500I0J87500D01*
G01*
G37*
G36*
G01*
X139600000Y-75287500D02*
X139600000Y-75112500D01*
G75*
G02*
X139687500Y-75025000I87500J0D01*
G01*
X140437500Y-75025000D01*
G75*
G02*
X140525000Y-75112500I0J-87500D01*
G01*
X140525000Y-75287500D01*
G75*
G02*
X140437500Y-75375000I-87500J0D01*
G01*
X139687500Y-75375000D01*
G75*
G02*
X139600000Y-75287500I0J87500D01*
G01*
G37*
G36*
G01*
X139600000Y-74787500D02*
X139600000Y-74612500D01*
G75*
G02*
X139687500Y-74525000I87500J0D01*
G01*
X140437500Y-74525000D01*
G75*
G02*
X140525000Y-74612500I0J-87500D01*
G01*
X140525000Y-74787500D01*
G75*
G02*
X140437500Y-74875000I-87500J0D01*
G01*
X139687500Y-74875000D01*
G75*
G02*
X139600000Y-74787500I0J87500D01*
G01*
G37*
G36*
G01*
X139600000Y-74287500D02*
X139600000Y-74112500D01*
G75*
G02*
X139687500Y-74025000I87500J0D01*
G01*
X140437500Y-74025000D01*
G75*
G02*
X140525000Y-74112500I0J-87500D01*
G01*
X140525000Y-74287500D01*
G75*
G02*
X140437500Y-74375000I-87500J0D01*
G01*
X139687500Y-74375000D01*
G75*
G02*
X139600000Y-74287500I0J87500D01*
G01*
G37*
%TD*%
%TO.C,X1*%
G36*
G01*
X125525000Y-52865000D02*
X125525000Y-53665000D01*
G75*
G02*
X125475000Y-53715000I-50000J0D01*
G01*
X124575000Y-53715000D01*
G75*
G02*
X124525000Y-53665000I0J50000D01*
G01*
X124525000Y-52865000D01*
G75*
G02*
X124575000Y-52815000I50000J0D01*
G01*
X125475000Y-52815000D01*
G75*
G02*
X125525000Y-52865000I0J-50000D01*
G01*
G37*
G36*
G01*
X123675000Y-52865000D02*
X123675000Y-53665000D01*
G75*
G02*
X123625000Y-53715000I-50000J0D01*
G01*
X122725000Y-53715000D01*
G75*
G02*
X122675000Y-53665000I0J50000D01*
G01*
X122675000Y-52865000D01*
G75*
G02*
X122725000Y-52815000I50000J0D01*
G01*
X123625000Y-52815000D01*
G75*
G02*
X123675000Y-52865000I0J-50000D01*
G01*
G37*
G36*
G01*
X123675000Y-51415000D02*
X123675000Y-52215000D01*
G75*
G02*
X123625000Y-52265000I-50000J0D01*
G01*
X122725000Y-52265000D01*
G75*
G02*
X122675000Y-52215000I0J50000D01*
G01*
X122675000Y-51415000D01*
G75*
G02*
X122725000Y-51365000I50000J0D01*
G01*
X123625000Y-51365000D01*
G75*
G02*
X123675000Y-51415000I0J-50000D01*
G01*
G37*
G36*
G01*
X125525000Y-51415000D02*
X125525000Y-52215000D01*
G75*
G02*
X125475000Y-52265000I-50000J0D01*
G01*
X124575000Y-52265000D01*
G75*
G02*
X124525000Y-52215000I0J50000D01*
G01*
X124525000Y-51415000D01*
G75*
G02*
X124575000Y-51365000I50000J0D01*
G01*
X125475000Y-51365000D01*
G75*
G02*
X125525000Y-51415000I0J-50000D01*
G01*
G37*
%TD*%
%TO.C,D13*%
G36*
G01*
X143535000Y-69430000D02*
X143285000Y-69430000D01*
G75*
G02*
X143160000Y-69305000I0J125000D01*
G01*
X143160000Y-68995000D01*
G75*
G02*
X143285000Y-68870000I125000J0D01*
G01*
X143535000Y-68870000D01*
G75*
G02*
X143660000Y-68995000I0J-125000D01*
G01*
X143660000Y-69305000D01*
G75*
G02*
X143535000Y-69430000I-125000J0D01*
G01*
G37*
G36*
G01*
X143535000Y-70070000D02*
X143285000Y-70070000D01*
G75*
G02*
X143160000Y-69945000I0J125000D01*
G01*
X143160000Y-69635000D01*
G75*
G02*
X143285000Y-69510000I125000J0D01*
G01*
X143535000Y-69510000D01*
G75*
G02*
X143660000Y-69635000I0J-125000D01*
G01*
X143660000Y-69945000D01*
G75*
G02*
X143535000Y-70070000I-125000J0D01*
G01*
G37*
%TD*%
%TO.C,D14*%
G36*
G01*
X119370000Y-53272500D02*
X119370000Y-53667500D01*
G75*
G02*
X119197500Y-53840000I-172500J0D01*
G01*
X118852500Y-53840000D01*
G75*
G02*
X118680000Y-53667500I0J172500D01*
G01*
X118680000Y-53272500D01*
G75*
G02*
X118852500Y-53100000I172500J0D01*
G01*
X119197500Y-53100000D01*
G75*
G02*
X119370000Y-53272500I0J-172500D01*
G01*
G37*
G36*
G01*
X120340000Y-53272500D02*
X120340000Y-53667500D01*
G75*
G02*
X120167500Y-53840000I-172500J0D01*
G01*
X119822500Y-53840000D01*
G75*
G02*
X119650000Y-53667500I0J172500D01*
G01*
X119650000Y-53272500D01*
G75*
G02*
X119822500Y-53100000I172500J0D01*
G01*
X120167500Y-53100000D01*
G75*
G02*
X120340000Y-53272500I0J-172500D01*
G01*
G37*
%TD*%
%TO.C,D15*%
G36*
G01*
X121605000Y-53667500D02*
X121605000Y-53272500D01*
G75*
G02*
X121777500Y-53100000I172500J0D01*
G01*
X122122500Y-53100000D01*
G75*
G02*
X122295000Y-53272500I0J-172500D01*
G01*
X122295000Y-53667500D01*
G75*
G02*
X122122500Y-53840000I-172500J0D01*
G01*
X121777500Y-53840000D01*
G75*
G02*
X121605000Y-53667500I0J172500D01*
G01*
G37*
G36*
G01*
X120635000Y-53667500D02*
X120635000Y-53272500D01*
G75*
G02*
X120807500Y-53100000I172500J0D01*
G01*
X121152500Y-53100000D01*
G75*
G02*
X121325000Y-53272500I0J-172500D01*
G01*
X121325000Y-53667500D01*
G75*
G02*
X121152500Y-53840000I-172500J0D01*
G01*
X120807500Y-53840000D01*
G75*
G02*
X120635000Y-53667500I0J172500D01*
G01*
G37*
%TD*%
D19*
%TO.C,J9*%
X132760000Y-52650000D03*
X132760000Y-51380000D03*
X131490000Y-52650000D03*
X131490000Y-51380000D03*
X130220000Y-52650000D03*
X130220000Y-51380000D03*
X128950000Y-52650000D03*
G36*
G01*
X129475000Y-51955000D02*
X128425000Y-51955000D01*
G75*
G02*
X128375000Y-51905000I0J50000D01*
G01*
X128375000Y-50855000D01*
G75*
G02*
X128425000Y-50805000I50000J0D01*
G01*
X129475000Y-50805000D01*
G75*
G02*
X129525000Y-50855000I0J-50000D01*
G01*
X129525000Y-51905000D01*
G75*
G02*
X129475000Y-51955000I-50000J0D01*
G01*
G37*
%TD*%
%TO.C,C92*%
G36*
G01*
X135537500Y-73843750D02*
X135537500Y-74406250D01*
G75*
G02*
X135293750Y-74650000I-243750J0D01*
G01*
X134806250Y-74650000D01*
G75*
G02*
X134562500Y-74406250I0J243750D01*
G01*
X134562500Y-73843750D01*
G75*
G02*
X134806250Y-73600000I243750J0D01*
G01*
X135293750Y-73600000D01*
G75*
G02*
X135537500Y-73843750I0J-243750D01*
G01*
G37*
G36*
G01*
X137112500Y-73843750D02*
X137112500Y-74406250D01*
G75*
G02*
X136868750Y-74650000I-243750J0D01*
G01*
X136381250Y-74650000D01*
G75*
G02*
X136137500Y-74406250I0J243750D01*
G01*
X136137500Y-73843750D01*
G75*
G02*
X136381250Y-73600000I243750J0D01*
G01*
X136868750Y-73600000D01*
G75*
G02*
X137112500Y-73843750I0J-243750D01*
G01*
G37*
%TD*%
%TO.C,R11*%
G36*
G01*
X115800000Y-60675000D02*
X115800000Y-60925000D01*
G75*
G02*
X115675000Y-61050000I-125000J0D01*
G01*
X115365000Y-61050000D01*
G75*
G02*
X115240000Y-60925000I0J125000D01*
G01*
X115240000Y-60675000D01*
G75*
G02*
X115365000Y-60550000I125000J0D01*
G01*
X115675000Y-60550000D01*
G75*
G02*
X115800000Y-60675000I0J-125000D01*
G01*
G37*
G36*
G01*
X116440000Y-60675000D02*
X116440000Y-60925000D01*
G75*
G02*
X116315000Y-61050000I-125000J0D01*
G01*
X116005000Y-61050000D01*
G75*
G02*
X115880000Y-60925000I0J125000D01*
G01*
X115880000Y-60675000D01*
G75*
G02*
X116005000Y-60550000I125000J0D01*
G01*
X116315000Y-60550000D01*
G75*
G02*
X116440000Y-60675000I0J-125000D01*
G01*
G37*
%TD*%
%TO.C,R12*%
G36*
G01*
X116440000Y-61575000D02*
X116440000Y-61825000D01*
G75*
G02*
X116315000Y-61950000I-125000J0D01*
G01*
X116005000Y-61950000D01*
G75*
G02*
X115880000Y-61825000I0J125000D01*
G01*
X115880000Y-61575000D01*
G75*
G02*
X116005000Y-61450000I125000J0D01*
G01*
X116315000Y-61450000D01*
G75*
G02*
X116440000Y-61575000I0J-125000D01*
G01*
G37*
G36*
G01*
X115800000Y-61575000D02*
X115800000Y-61825000D01*
G75*
G02*
X115675000Y-61950000I-125000J0D01*
G01*
X115365000Y-61950000D01*
G75*
G02*
X115240000Y-61825000I0J125000D01*
G01*
X115240000Y-61575000D01*
G75*
G02*
X115365000Y-61450000I125000J0D01*
G01*
X115675000Y-61450000D01*
G75*
G02*
X115800000Y-61575000I0J-125000D01*
G01*
G37*
%TD*%
%TO.C,R65*%
G36*
G01*
X126270000Y-53615000D02*
X126270000Y-53365000D01*
G75*
G02*
X126395000Y-53240000I125000J0D01*
G01*
X126705000Y-53240000D01*
G75*
G02*
X126830000Y-53365000I0J-125000D01*
G01*
X126830000Y-53615000D01*
G75*
G02*
X126705000Y-53740000I-125000J0D01*
G01*
X126395000Y-53740000D01*
G75*
G02*
X126270000Y-53615000I0J125000D01*
G01*
G37*
G36*
G01*
X126910000Y-53615000D02*
X126910000Y-53365000D01*
G75*
G02*
X127035000Y-53240000I125000J0D01*
G01*
X127345000Y-53240000D01*
G75*
G02*
X127470000Y-53365000I0J-125000D01*
G01*
X127470000Y-53615000D01*
G75*
G02*
X127345000Y-53740000I-125000J0D01*
G01*
X127035000Y-53740000D01*
G75*
G02*
X126910000Y-53615000I0J125000D01*
G01*
G37*
%TD*%
M02*
