%TF.GenerationSoftware,KiCad,Pcbnew,(6.0.5)*%
%TF.CreationDate,2022-11-28T14:04:54+01:00*%
%TF.ProjectId,omodri_laas,6f6d6f64-7269-45f6-9c61-61732e6b6963,2.0*%
%TF.SameCoordinates,Original*%
%TF.FileFunction,AssemblyDrawing,Bot*%
%FSLAX46Y46*%
G04 Gerber Fmt 4.6, Leading zero omitted, Abs format (unit mm)*
G04 Created by KiCad (PCBNEW (6.0.5)) date 2022-11-28 14:04:54*
%MOMM*%
%LPD*%
G01*
G04 APERTURE LIST*
%ADD10C,0.150000*%
%ADD11C,0.100000*%
%ADD12C,0.120000*%
%ADD13C,0.152400*%
G04 APERTURE END LIST*
D10*
%TO.C,JP6*%
X103879761Y-52298809D02*
X103927380Y-52441666D01*
X103927380Y-52679761D01*
X103879761Y-52775000D01*
X103832142Y-52822619D01*
X103736904Y-52870238D01*
X103641666Y-52870238D01*
X103546428Y-52822619D01*
X103498809Y-52775000D01*
X103451190Y-52679761D01*
X103403571Y-52489285D01*
X103355952Y-52394047D01*
X103308333Y-52346428D01*
X103213095Y-52298809D01*
X103117857Y-52298809D01*
X103022619Y-52346428D01*
X102975000Y-52394047D01*
X102927380Y-52489285D01*
X102927380Y-52727380D01*
X102975000Y-52870238D01*
X103927380Y-53441666D02*
X103879761Y-53346428D01*
X103832142Y-53298809D01*
X103736904Y-53251190D01*
X103451190Y-53251190D01*
X103355952Y-53298809D01*
X103308333Y-53346428D01*
X103260714Y-53441666D01*
X103260714Y-53584523D01*
X103308333Y-53679761D01*
X103355952Y-53727380D01*
X103451190Y-53775000D01*
X103736904Y-53775000D01*
X103832142Y-53727380D01*
X103879761Y-53679761D01*
X103927380Y-53584523D01*
X103927380Y-53441666D01*
X103927380Y-54346428D02*
X103879761Y-54251190D01*
X103784523Y-54203571D01*
X102927380Y-54203571D01*
X103927380Y-55155952D02*
X102927380Y-55155952D01*
X103879761Y-55155952D02*
X103927380Y-55060714D01*
X103927380Y-54870238D01*
X103879761Y-54775000D01*
X103832142Y-54727380D01*
X103736904Y-54679761D01*
X103451190Y-54679761D01*
X103355952Y-54727380D01*
X103308333Y-54775000D01*
X103260714Y-54870238D01*
X103260714Y-55060714D01*
X103308333Y-55155952D01*
X103879761Y-56013095D02*
X103927380Y-55917857D01*
X103927380Y-55727380D01*
X103879761Y-55632142D01*
X103784523Y-55584523D01*
X103403571Y-55584523D01*
X103308333Y-55632142D01*
X103260714Y-55727380D01*
X103260714Y-55917857D01*
X103308333Y-56013095D01*
X103403571Y-56060714D01*
X103498809Y-56060714D01*
X103594047Y-55584523D01*
X103927380Y-56489285D02*
X103260714Y-56489285D01*
X103451190Y-56489285D02*
X103355952Y-56536904D01*
X103308333Y-56584523D01*
X103260714Y-56679761D01*
X103260714Y-56775000D01*
X102927380Y-57394047D02*
X103641666Y-57394047D01*
X103784523Y-57346428D01*
X103879761Y-57251190D01*
X103927380Y-57108333D01*
X103927380Y-57013095D01*
X103260714Y-58298809D02*
X103927380Y-58298809D01*
X103260714Y-57870238D02*
X103784523Y-57870238D01*
X103879761Y-57917857D01*
X103927380Y-58013095D01*
X103927380Y-58155952D01*
X103879761Y-58251190D01*
X103832142Y-58298809D01*
X103927380Y-58775000D02*
X103260714Y-58775000D01*
X103355952Y-58775000D02*
X103308333Y-58822619D01*
X103260714Y-58917857D01*
X103260714Y-59060714D01*
X103308333Y-59155952D01*
X103403571Y-59203571D01*
X103927380Y-59203571D01*
X103403571Y-59203571D02*
X103308333Y-59251190D01*
X103260714Y-59346428D01*
X103260714Y-59489285D01*
X103308333Y-59584523D01*
X103403571Y-59632142D01*
X103927380Y-59632142D01*
X103260714Y-60108333D02*
X104260714Y-60108333D01*
X103308333Y-60108333D02*
X103260714Y-60203571D01*
X103260714Y-60394047D01*
X103308333Y-60489285D01*
X103355952Y-60536904D01*
X103451190Y-60584523D01*
X103736904Y-60584523D01*
X103832142Y-60536904D01*
X103879761Y-60489285D01*
X103927380Y-60394047D01*
X103927380Y-60203571D01*
X103879761Y-60108333D01*
X103879761Y-61394047D02*
X103927380Y-61298809D01*
X103927380Y-61108333D01*
X103879761Y-61013095D01*
X103784523Y-60965476D01*
X103403571Y-60965476D01*
X103308333Y-61013095D01*
X103260714Y-61108333D01*
X103260714Y-61298809D01*
X103308333Y-61394047D01*
X103403571Y-61441666D01*
X103498809Y-61441666D01*
X103594047Y-60965476D01*
X103927380Y-61870238D02*
X103260714Y-61870238D01*
X103451190Y-61870238D02*
X103355952Y-61917857D01*
X103308333Y-61965476D01*
X103260714Y-62060714D01*
X103260714Y-62155952D01*
X104022619Y-62251190D02*
X104022619Y-63013095D01*
X102927380Y-63155952D02*
X102927380Y-63775000D01*
X103308333Y-63441666D01*
X103308333Y-63584523D01*
X103355952Y-63679761D01*
X103403571Y-63727380D01*
X103498809Y-63775000D01*
X103736904Y-63775000D01*
X103832142Y-63727380D01*
X103879761Y-63679761D01*
X103927380Y-63584523D01*
X103927380Y-63298809D01*
X103879761Y-63203571D01*
X103832142Y-63155952D01*
X104022619Y-63965476D02*
X104022619Y-64727380D01*
X102927380Y-65155952D02*
X102927380Y-65346428D01*
X102975000Y-65441666D01*
X103070238Y-65536904D01*
X103260714Y-65584523D01*
X103594047Y-65584523D01*
X103784523Y-65536904D01*
X103879761Y-65441666D01*
X103927380Y-65346428D01*
X103927380Y-65155952D01*
X103879761Y-65060714D01*
X103784523Y-64965476D01*
X103594047Y-64917857D01*
X103260714Y-64917857D01*
X103070238Y-64965476D01*
X102975000Y-65060714D01*
X102927380Y-65155952D01*
X103260714Y-66013095D02*
X104260714Y-66013095D01*
X103308333Y-66013095D02*
X103260714Y-66108333D01*
X103260714Y-66298809D01*
X103308333Y-66394047D01*
X103355952Y-66441666D01*
X103451190Y-66489285D01*
X103736904Y-66489285D01*
X103832142Y-66441666D01*
X103879761Y-66394047D01*
X103927380Y-66298809D01*
X103927380Y-66108333D01*
X103879761Y-66013095D01*
X103879761Y-67298809D02*
X103927380Y-67203571D01*
X103927380Y-67013095D01*
X103879761Y-66917857D01*
X103784523Y-66870238D01*
X103403571Y-66870238D01*
X103308333Y-66917857D01*
X103260714Y-67013095D01*
X103260714Y-67203571D01*
X103308333Y-67298809D01*
X103403571Y-67346428D01*
X103498809Y-67346428D01*
X103594047Y-66870238D01*
X103260714Y-67775000D02*
X103927380Y-67775000D01*
X103355952Y-67775000D02*
X103308333Y-67822619D01*
X103260714Y-67917857D01*
X103260714Y-68060714D01*
X103308333Y-68155952D01*
X103403571Y-68203571D01*
X103927380Y-68203571D01*
%TO.C,JP5*%
X106529761Y-52298809D02*
X106577380Y-52441666D01*
X106577380Y-52679761D01*
X106529761Y-52775000D01*
X106482142Y-52822619D01*
X106386904Y-52870238D01*
X106291666Y-52870238D01*
X106196428Y-52822619D01*
X106148809Y-52775000D01*
X106101190Y-52679761D01*
X106053571Y-52489285D01*
X106005952Y-52394047D01*
X105958333Y-52346428D01*
X105863095Y-52298809D01*
X105767857Y-52298809D01*
X105672619Y-52346428D01*
X105625000Y-52394047D01*
X105577380Y-52489285D01*
X105577380Y-52727380D01*
X105625000Y-52870238D01*
X106577380Y-53441666D02*
X106529761Y-53346428D01*
X106482142Y-53298809D01*
X106386904Y-53251190D01*
X106101190Y-53251190D01*
X106005952Y-53298809D01*
X105958333Y-53346428D01*
X105910714Y-53441666D01*
X105910714Y-53584523D01*
X105958333Y-53679761D01*
X106005952Y-53727380D01*
X106101190Y-53775000D01*
X106386904Y-53775000D01*
X106482142Y-53727380D01*
X106529761Y-53679761D01*
X106577380Y-53584523D01*
X106577380Y-53441666D01*
X106577380Y-54346428D02*
X106529761Y-54251190D01*
X106434523Y-54203571D01*
X105577380Y-54203571D01*
X106577380Y-55155952D02*
X105577380Y-55155952D01*
X106529761Y-55155952D02*
X106577380Y-55060714D01*
X106577380Y-54870238D01*
X106529761Y-54775000D01*
X106482142Y-54727380D01*
X106386904Y-54679761D01*
X106101190Y-54679761D01*
X106005952Y-54727380D01*
X105958333Y-54775000D01*
X105910714Y-54870238D01*
X105910714Y-55060714D01*
X105958333Y-55155952D01*
X106529761Y-56013095D02*
X106577380Y-55917857D01*
X106577380Y-55727380D01*
X106529761Y-55632142D01*
X106434523Y-55584523D01*
X106053571Y-55584523D01*
X105958333Y-55632142D01*
X105910714Y-55727380D01*
X105910714Y-55917857D01*
X105958333Y-56013095D01*
X106053571Y-56060714D01*
X106148809Y-56060714D01*
X106244047Y-55584523D01*
X106577380Y-56489285D02*
X105910714Y-56489285D01*
X106101190Y-56489285D02*
X106005952Y-56536904D01*
X105958333Y-56584523D01*
X105910714Y-56679761D01*
X105910714Y-56775000D01*
X105577380Y-57394047D02*
X106291666Y-57394047D01*
X106434523Y-57346428D01*
X106529761Y-57251190D01*
X106577380Y-57108333D01*
X106577380Y-57013095D01*
X105910714Y-58298809D02*
X106577380Y-58298809D01*
X105910714Y-57870238D02*
X106434523Y-57870238D01*
X106529761Y-57917857D01*
X106577380Y-58013095D01*
X106577380Y-58155952D01*
X106529761Y-58251190D01*
X106482142Y-58298809D01*
X106577380Y-58775000D02*
X105910714Y-58775000D01*
X106005952Y-58775000D02*
X105958333Y-58822619D01*
X105910714Y-58917857D01*
X105910714Y-59060714D01*
X105958333Y-59155952D01*
X106053571Y-59203571D01*
X106577380Y-59203571D01*
X106053571Y-59203571D02*
X105958333Y-59251190D01*
X105910714Y-59346428D01*
X105910714Y-59489285D01*
X105958333Y-59584523D01*
X106053571Y-59632142D01*
X106577380Y-59632142D01*
X105910714Y-60108333D02*
X106910714Y-60108333D01*
X105958333Y-60108333D02*
X105910714Y-60203571D01*
X105910714Y-60394047D01*
X105958333Y-60489285D01*
X106005952Y-60536904D01*
X106101190Y-60584523D01*
X106386904Y-60584523D01*
X106482142Y-60536904D01*
X106529761Y-60489285D01*
X106577380Y-60394047D01*
X106577380Y-60203571D01*
X106529761Y-60108333D01*
X106529761Y-61394047D02*
X106577380Y-61298809D01*
X106577380Y-61108333D01*
X106529761Y-61013095D01*
X106434523Y-60965476D01*
X106053571Y-60965476D01*
X105958333Y-61013095D01*
X105910714Y-61108333D01*
X105910714Y-61298809D01*
X105958333Y-61394047D01*
X106053571Y-61441666D01*
X106148809Y-61441666D01*
X106244047Y-60965476D01*
X106577380Y-61870238D02*
X105910714Y-61870238D01*
X106101190Y-61870238D02*
X106005952Y-61917857D01*
X105958333Y-61965476D01*
X105910714Y-62060714D01*
X105910714Y-62155952D01*
X106672619Y-62251190D02*
X106672619Y-63013095D01*
X105577380Y-63155952D02*
X105577380Y-63775000D01*
X105958333Y-63441666D01*
X105958333Y-63584523D01*
X106005952Y-63679761D01*
X106053571Y-63727380D01*
X106148809Y-63775000D01*
X106386904Y-63775000D01*
X106482142Y-63727380D01*
X106529761Y-63679761D01*
X106577380Y-63584523D01*
X106577380Y-63298809D01*
X106529761Y-63203571D01*
X106482142Y-63155952D01*
X106672619Y-63965476D02*
X106672619Y-64727380D01*
X105577380Y-65155952D02*
X105577380Y-65346428D01*
X105625000Y-65441666D01*
X105720238Y-65536904D01*
X105910714Y-65584523D01*
X106244047Y-65584523D01*
X106434523Y-65536904D01*
X106529761Y-65441666D01*
X106577380Y-65346428D01*
X106577380Y-65155952D01*
X106529761Y-65060714D01*
X106434523Y-64965476D01*
X106244047Y-64917857D01*
X105910714Y-64917857D01*
X105720238Y-64965476D01*
X105625000Y-65060714D01*
X105577380Y-65155952D01*
X105910714Y-66013095D02*
X106910714Y-66013095D01*
X105958333Y-66013095D02*
X105910714Y-66108333D01*
X105910714Y-66298809D01*
X105958333Y-66394047D01*
X106005952Y-66441666D01*
X106101190Y-66489285D01*
X106386904Y-66489285D01*
X106482142Y-66441666D01*
X106529761Y-66394047D01*
X106577380Y-66298809D01*
X106577380Y-66108333D01*
X106529761Y-66013095D01*
X106529761Y-67298809D02*
X106577380Y-67203571D01*
X106577380Y-67013095D01*
X106529761Y-66917857D01*
X106434523Y-66870238D01*
X106053571Y-66870238D01*
X105958333Y-66917857D01*
X105910714Y-67013095D01*
X105910714Y-67203571D01*
X105958333Y-67298809D01*
X106053571Y-67346428D01*
X106148809Y-67346428D01*
X106244047Y-66870238D01*
X105910714Y-67775000D02*
X106577380Y-67775000D01*
X106005952Y-67775000D02*
X105958333Y-67822619D01*
X105910714Y-67917857D01*
X105910714Y-68060714D01*
X105958333Y-68155952D01*
X106053571Y-68203571D01*
X106577380Y-68203571D01*
D11*
%TO.C,J9*%
X113200000Y-64671428D02*
X113200000Y-65100000D01*
X113228571Y-65185714D01*
X113285714Y-65242857D01*
X113371428Y-65271428D01*
X113428571Y-65271428D01*
X112885714Y-65271428D02*
X112771428Y-65271428D01*
X112714285Y-65242857D01*
X112685714Y-65214285D01*
X112628571Y-65128571D01*
X112600000Y-65014285D01*
X112600000Y-64785714D01*
X112628571Y-64728571D01*
X112657142Y-64700000D01*
X112714285Y-64671428D01*
X112828571Y-64671428D01*
X112885714Y-64700000D01*
X112914285Y-64728571D01*
X112942857Y-64785714D01*
X112942857Y-64928571D01*
X112914285Y-64985714D01*
X112885714Y-65014285D01*
X112828571Y-65042857D01*
X112714285Y-65042857D01*
X112657142Y-65014285D01*
X112628571Y-64985714D01*
X112600000Y-64928571D01*
%TO.C,C50*%
X129314285Y-62914285D02*
X129342857Y-62885714D01*
X129371428Y-62800000D01*
X129371428Y-62742857D01*
X129342857Y-62657142D01*
X129285714Y-62600000D01*
X129228571Y-62571428D01*
X129114285Y-62542857D01*
X129028571Y-62542857D01*
X128914285Y-62571428D01*
X128857142Y-62600000D01*
X128800000Y-62657142D01*
X128771428Y-62742857D01*
X128771428Y-62800000D01*
X128800000Y-62885714D01*
X128828571Y-62914285D01*
X128771428Y-63457142D02*
X128771428Y-63171428D01*
X129057142Y-63142857D01*
X129028571Y-63171428D01*
X129000000Y-63228571D01*
X129000000Y-63371428D01*
X129028571Y-63428571D01*
X129057142Y-63457142D01*
X129114285Y-63485714D01*
X129257142Y-63485714D01*
X129314285Y-63457142D01*
X129342857Y-63428571D01*
X129371428Y-63371428D01*
X129371428Y-63228571D01*
X129342857Y-63171428D01*
X129314285Y-63142857D01*
X128771428Y-63857142D02*
X128771428Y-63914285D01*
X128800000Y-63971428D01*
X128828571Y-64000000D01*
X128885714Y-64028571D01*
X129000000Y-64057142D01*
X129142857Y-64057142D01*
X129257142Y-64028571D01*
X129314285Y-64000000D01*
X129342857Y-63971428D01*
X129371428Y-63914285D01*
X129371428Y-63857142D01*
X129342857Y-63800000D01*
X129314285Y-63771428D01*
X129257142Y-63742857D01*
X129142857Y-63714285D01*
X129000000Y-63714285D01*
X128885714Y-63742857D01*
X128828571Y-63771428D01*
X128800000Y-63800000D01*
X128771428Y-63857142D01*
%TO.C,C47*%
X131885714Y-69914285D02*
X131914285Y-69942857D01*
X132000000Y-69971428D01*
X132057142Y-69971428D01*
X132142857Y-69942857D01*
X132200000Y-69885714D01*
X132228571Y-69828571D01*
X132257142Y-69714285D01*
X132257142Y-69628571D01*
X132228571Y-69514285D01*
X132200000Y-69457142D01*
X132142857Y-69400000D01*
X132057142Y-69371428D01*
X132000000Y-69371428D01*
X131914285Y-69400000D01*
X131885714Y-69428571D01*
X131371428Y-69571428D02*
X131371428Y-69971428D01*
X131514285Y-69342857D02*
X131657142Y-69771428D01*
X131285714Y-69771428D01*
X131114285Y-69371428D02*
X130714285Y-69371428D01*
X130971428Y-69971428D01*
%TO.C,C83*%
X127985714Y-67414285D02*
X128014285Y-67442857D01*
X128100000Y-67471428D01*
X128157142Y-67471428D01*
X128242857Y-67442857D01*
X128300000Y-67385714D01*
X128328571Y-67328571D01*
X128357142Y-67214285D01*
X128357142Y-67128571D01*
X128328571Y-67014285D01*
X128300000Y-66957142D01*
X128242857Y-66900000D01*
X128157142Y-66871428D01*
X128100000Y-66871428D01*
X128014285Y-66900000D01*
X127985714Y-66928571D01*
X127642857Y-67128571D02*
X127700000Y-67100000D01*
X127728571Y-67071428D01*
X127757142Y-67014285D01*
X127757142Y-66985714D01*
X127728571Y-66928571D01*
X127700000Y-66900000D01*
X127642857Y-66871428D01*
X127528571Y-66871428D01*
X127471428Y-66900000D01*
X127442857Y-66928571D01*
X127414285Y-66985714D01*
X127414285Y-67014285D01*
X127442857Y-67071428D01*
X127471428Y-67100000D01*
X127528571Y-67128571D01*
X127642857Y-67128571D01*
X127700000Y-67157142D01*
X127728571Y-67185714D01*
X127757142Y-67242857D01*
X127757142Y-67357142D01*
X127728571Y-67414285D01*
X127700000Y-67442857D01*
X127642857Y-67471428D01*
X127528571Y-67471428D01*
X127471428Y-67442857D01*
X127442857Y-67414285D01*
X127414285Y-67357142D01*
X127414285Y-67242857D01*
X127442857Y-67185714D01*
X127471428Y-67157142D01*
X127528571Y-67128571D01*
X127214285Y-66871428D02*
X126842857Y-66871428D01*
X127042857Y-67100000D01*
X126957142Y-67100000D01*
X126900000Y-67128571D01*
X126871428Y-67157142D01*
X126842857Y-67214285D01*
X126842857Y-67357142D01*
X126871428Y-67414285D01*
X126900000Y-67442857D01*
X126957142Y-67471428D01*
X127128571Y-67471428D01*
X127185714Y-67442857D01*
X127214285Y-67414285D01*
%TO.C,C94*%
X132585714Y-54914285D02*
X132614285Y-54942857D01*
X132700000Y-54971428D01*
X132757142Y-54971428D01*
X132842857Y-54942857D01*
X132900000Y-54885714D01*
X132928571Y-54828571D01*
X132957142Y-54714285D01*
X132957142Y-54628571D01*
X132928571Y-54514285D01*
X132900000Y-54457142D01*
X132842857Y-54400000D01*
X132757142Y-54371428D01*
X132700000Y-54371428D01*
X132614285Y-54400000D01*
X132585714Y-54428571D01*
X132300000Y-54971428D02*
X132185714Y-54971428D01*
X132128571Y-54942857D01*
X132100000Y-54914285D01*
X132042857Y-54828571D01*
X132014285Y-54714285D01*
X132014285Y-54485714D01*
X132042857Y-54428571D01*
X132071428Y-54400000D01*
X132128571Y-54371428D01*
X132242857Y-54371428D01*
X132300000Y-54400000D01*
X132328571Y-54428571D01*
X132357142Y-54485714D01*
X132357142Y-54628571D01*
X132328571Y-54685714D01*
X132300000Y-54714285D01*
X132242857Y-54742857D01*
X132128571Y-54742857D01*
X132071428Y-54714285D01*
X132042857Y-54685714D01*
X132014285Y-54628571D01*
X131500000Y-54571428D02*
X131500000Y-54971428D01*
X131642857Y-54342857D02*
X131785714Y-54771428D01*
X131414285Y-54771428D01*
%TO.C,C93*%
X132414285Y-62914285D02*
X132442857Y-62885714D01*
X132471428Y-62800000D01*
X132471428Y-62742857D01*
X132442857Y-62657142D01*
X132385714Y-62600000D01*
X132328571Y-62571428D01*
X132214285Y-62542857D01*
X132128571Y-62542857D01*
X132014285Y-62571428D01*
X131957142Y-62600000D01*
X131900000Y-62657142D01*
X131871428Y-62742857D01*
X131871428Y-62800000D01*
X131900000Y-62885714D01*
X131928571Y-62914285D01*
X132471428Y-63200000D02*
X132471428Y-63314285D01*
X132442857Y-63371428D01*
X132414285Y-63400000D01*
X132328571Y-63457142D01*
X132214285Y-63485714D01*
X131985714Y-63485714D01*
X131928571Y-63457142D01*
X131900000Y-63428571D01*
X131871428Y-63371428D01*
X131871428Y-63257142D01*
X131900000Y-63200000D01*
X131928571Y-63171428D01*
X131985714Y-63142857D01*
X132128571Y-63142857D01*
X132185714Y-63171428D01*
X132214285Y-63200000D01*
X132242857Y-63257142D01*
X132242857Y-63371428D01*
X132214285Y-63428571D01*
X132185714Y-63457142D01*
X132128571Y-63485714D01*
X131871428Y-63685714D02*
X131871428Y-64057142D01*
X132100000Y-63857142D01*
X132100000Y-63942857D01*
X132128571Y-64000000D01*
X132157142Y-64028571D01*
X132214285Y-64057142D01*
X132357142Y-64057142D01*
X132414285Y-64028571D01*
X132442857Y-64000000D01*
X132471428Y-63942857D01*
X132471428Y-63771428D01*
X132442857Y-63714285D01*
X132414285Y-63685714D01*
%TO.C,C92*%
X125885714Y-69914285D02*
X125914285Y-69942857D01*
X126000000Y-69971428D01*
X126057142Y-69971428D01*
X126142857Y-69942857D01*
X126200000Y-69885714D01*
X126228571Y-69828571D01*
X126257142Y-69714285D01*
X126257142Y-69628571D01*
X126228571Y-69514285D01*
X126200000Y-69457142D01*
X126142857Y-69400000D01*
X126057142Y-69371428D01*
X126000000Y-69371428D01*
X125914285Y-69400000D01*
X125885714Y-69428571D01*
X125600000Y-69971428D02*
X125485714Y-69971428D01*
X125428571Y-69942857D01*
X125400000Y-69914285D01*
X125342857Y-69828571D01*
X125314285Y-69714285D01*
X125314285Y-69485714D01*
X125342857Y-69428571D01*
X125371428Y-69400000D01*
X125428571Y-69371428D01*
X125542857Y-69371428D01*
X125600000Y-69400000D01*
X125628571Y-69428571D01*
X125657142Y-69485714D01*
X125657142Y-69628571D01*
X125628571Y-69685714D01*
X125600000Y-69714285D01*
X125542857Y-69742857D01*
X125428571Y-69742857D01*
X125371428Y-69714285D01*
X125342857Y-69685714D01*
X125314285Y-69628571D01*
X125085714Y-69428571D02*
X125057142Y-69400000D01*
X125000000Y-69371428D01*
X124857142Y-69371428D01*
X124800000Y-69400000D01*
X124771428Y-69428571D01*
X124742857Y-69485714D01*
X124742857Y-69542857D01*
X124771428Y-69628571D01*
X125114285Y-69971428D01*
X124742857Y-69971428D01*
%TO.C,C91*%
X118185714Y-68514285D02*
X118214285Y-68542857D01*
X118300000Y-68571428D01*
X118357142Y-68571428D01*
X118442857Y-68542857D01*
X118500000Y-68485714D01*
X118528571Y-68428571D01*
X118557142Y-68314285D01*
X118557142Y-68228571D01*
X118528571Y-68114285D01*
X118500000Y-68057142D01*
X118442857Y-68000000D01*
X118357142Y-67971428D01*
X118300000Y-67971428D01*
X118214285Y-68000000D01*
X118185714Y-68028571D01*
X117900000Y-68571428D02*
X117785714Y-68571428D01*
X117728571Y-68542857D01*
X117700000Y-68514285D01*
X117642857Y-68428571D01*
X117614285Y-68314285D01*
X117614285Y-68085714D01*
X117642857Y-68028571D01*
X117671428Y-68000000D01*
X117728571Y-67971428D01*
X117842857Y-67971428D01*
X117900000Y-68000000D01*
X117928571Y-68028571D01*
X117957142Y-68085714D01*
X117957142Y-68228571D01*
X117928571Y-68285714D01*
X117900000Y-68314285D01*
X117842857Y-68342857D01*
X117728571Y-68342857D01*
X117671428Y-68314285D01*
X117642857Y-68285714D01*
X117614285Y-68228571D01*
X117042857Y-68571428D02*
X117385714Y-68571428D01*
X117214285Y-68571428D02*
X117214285Y-67971428D01*
X117271428Y-68057142D01*
X117328571Y-68114285D01*
X117385714Y-68142857D01*
%TO.C,C89*%
X120285714Y-57914285D02*
X120314285Y-57942857D01*
X120400000Y-57971428D01*
X120457142Y-57971428D01*
X120542857Y-57942857D01*
X120600000Y-57885714D01*
X120628571Y-57828571D01*
X120657142Y-57714285D01*
X120657142Y-57628571D01*
X120628571Y-57514285D01*
X120600000Y-57457142D01*
X120542857Y-57400000D01*
X120457142Y-57371428D01*
X120400000Y-57371428D01*
X120314285Y-57400000D01*
X120285714Y-57428571D01*
X119942857Y-57628571D02*
X120000000Y-57600000D01*
X120028571Y-57571428D01*
X120057142Y-57514285D01*
X120057142Y-57485714D01*
X120028571Y-57428571D01*
X120000000Y-57400000D01*
X119942857Y-57371428D01*
X119828571Y-57371428D01*
X119771428Y-57400000D01*
X119742857Y-57428571D01*
X119714285Y-57485714D01*
X119714285Y-57514285D01*
X119742857Y-57571428D01*
X119771428Y-57600000D01*
X119828571Y-57628571D01*
X119942857Y-57628571D01*
X120000000Y-57657142D01*
X120028571Y-57685714D01*
X120057142Y-57742857D01*
X120057142Y-57857142D01*
X120028571Y-57914285D01*
X120000000Y-57942857D01*
X119942857Y-57971428D01*
X119828571Y-57971428D01*
X119771428Y-57942857D01*
X119742857Y-57914285D01*
X119714285Y-57857142D01*
X119714285Y-57742857D01*
X119742857Y-57685714D01*
X119771428Y-57657142D01*
X119828571Y-57628571D01*
X119428571Y-57971428D02*
X119314285Y-57971428D01*
X119257142Y-57942857D01*
X119228571Y-57914285D01*
X119171428Y-57828571D01*
X119142857Y-57714285D01*
X119142857Y-57485714D01*
X119171428Y-57428571D01*
X119200000Y-57400000D01*
X119257142Y-57371428D01*
X119371428Y-57371428D01*
X119428571Y-57400000D01*
X119457142Y-57428571D01*
X119485714Y-57485714D01*
X119485714Y-57628571D01*
X119457142Y-57685714D01*
X119428571Y-57714285D01*
X119371428Y-57742857D01*
X119257142Y-57742857D01*
X119200000Y-57714285D01*
X119171428Y-57685714D01*
X119142857Y-57628571D01*
%TO.C,C86*%
X127614285Y-60014285D02*
X127642857Y-59985714D01*
X127671428Y-59900000D01*
X127671428Y-59842857D01*
X127642857Y-59757142D01*
X127585714Y-59700000D01*
X127528571Y-59671428D01*
X127414285Y-59642857D01*
X127328571Y-59642857D01*
X127214285Y-59671428D01*
X127157142Y-59700000D01*
X127100000Y-59757142D01*
X127071428Y-59842857D01*
X127071428Y-59900000D01*
X127100000Y-59985714D01*
X127128571Y-60014285D01*
X127328571Y-60357142D02*
X127300000Y-60300000D01*
X127271428Y-60271428D01*
X127214285Y-60242857D01*
X127185714Y-60242857D01*
X127128571Y-60271428D01*
X127100000Y-60300000D01*
X127071428Y-60357142D01*
X127071428Y-60471428D01*
X127100000Y-60528571D01*
X127128571Y-60557142D01*
X127185714Y-60585714D01*
X127214285Y-60585714D01*
X127271428Y-60557142D01*
X127300000Y-60528571D01*
X127328571Y-60471428D01*
X127328571Y-60357142D01*
X127357142Y-60300000D01*
X127385714Y-60271428D01*
X127442857Y-60242857D01*
X127557142Y-60242857D01*
X127614285Y-60271428D01*
X127642857Y-60300000D01*
X127671428Y-60357142D01*
X127671428Y-60471428D01*
X127642857Y-60528571D01*
X127614285Y-60557142D01*
X127557142Y-60585714D01*
X127442857Y-60585714D01*
X127385714Y-60557142D01*
X127357142Y-60528571D01*
X127328571Y-60471428D01*
X127071428Y-61100000D02*
X127071428Y-60985714D01*
X127100000Y-60928571D01*
X127128571Y-60900000D01*
X127214285Y-60842857D01*
X127328571Y-60814285D01*
X127557142Y-60814285D01*
X127614285Y-60842857D01*
X127642857Y-60871428D01*
X127671428Y-60928571D01*
X127671428Y-61042857D01*
X127642857Y-61100000D01*
X127614285Y-61128571D01*
X127557142Y-61157142D01*
X127414285Y-61157142D01*
X127357142Y-61128571D01*
X127328571Y-61100000D01*
X127300000Y-61042857D01*
X127300000Y-60928571D01*
X127328571Y-60871428D01*
X127357142Y-60842857D01*
X127414285Y-60814285D01*
%TO.C,C81*%
X120285714Y-65912610D02*
X120314285Y-65941182D01*
X120400000Y-65969753D01*
X120457142Y-65969753D01*
X120542857Y-65941182D01*
X120600000Y-65884039D01*
X120628571Y-65826896D01*
X120657142Y-65712610D01*
X120657142Y-65626896D01*
X120628571Y-65512610D01*
X120600000Y-65455467D01*
X120542857Y-65398325D01*
X120457142Y-65369753D01*
X120400000Y-65369753D01*
X120314285Y-65398325D01*
X120285714Y-65426896D01*
X119942857Y-65626896D02*
X120000000Y-65598325D01*
X120028571Y-65569753D01*
X120057142Y-65512610D01*
X120057142Y-65484039D01*
X120028571Y-65426896D01*
X120000000Y-65398325D01*
X119942857Y-65369753D01*
X119828571Y-65369753D01*
X119771428Y-65398325D01*
X119742857Y-65426896D01*
X119714285Y-65484039D01*
X119714285Y-65512610D01*
X119742857Y-65569753D01*
X119771428Y-65598325D01*
X119828571Y-65626896D01*
X119942857Y-65626896D01*
X120000000Y-65655467D01*
X120028571Y-65684039D01*
X120057142Y-65741182D01*
X120057142Y-65855467D01*
X120028571Y-65912610D01*
X120000000Y-65941182D01*
X119942857Y-65969753D01*
X119828571Y-65969753D01*
X119771428Y-65941182D01*
X119742857Y-65912610D01*
X119714285Y-65855467D01*
X119714285Y-65741182D01*
X119742857Y-65684039D01*
X119771428Y-65655467D01*
X119828571Y-65626896D01*
X119142857Y-65969753D02*
X119485714Y-65969753D01*
X119314285Y-65969753D02*
X119314285Y-65369753D01*
X119371428Y-65455467D01*
X119428571Y-65512610D01*
X119485714Y-65541182D01*
%TO.C,C82*%
X122814285Y-64214285D02*
X122842857Y-64185714D01*
X122871428Y-64100000D01*
X122871428Y-64042857D01*
X122842857Y-63957142D01*
X122785714Y-63900000D01*
X122728571Y-63871428D01*
X122614285Y-63842857D01*
X122528571Y-63842857D01*
X122414285Y-63871428D01*
X122357142Y-63900000D01*
X122300000Y-63957142D01*
X122271428Y-64042857D01*
X122271428Y-64100000D01*
X122300000Y-64185714D01*
X122328571Y-64214285D01*
X122528571Y-64557142D02*
X122500000Y-64500000D01*
X122471428Y-64471428D01*
X122414285Y-64442857D01*
X122385714Y-64442857D01*
X122328571Y-64471428D01*
X122300000Y-64500000D01*
X122271428Y-64557142D01*
X122271428Y-64671428D01*
X122300000Y-64728571D01*
X122328571Y-64757142D01*
X122385714Y-64785714D01*
X122414285Y-64785714D01*
X122471428Y-64757142D01*
X122500000Y-64728571D01*
X122528571Y-64671428D01*
X122528571Y-64557142D01*
X122557142Y-64500000D01*
X122585714Y-64471428D01*
X122642857Y-64442857D01*
X122757142Y-64442857D01*
X122814285Y-64471428D01*
X122842857Y-64500000D01*
X122871428Y-64557142D01*
X122871428Y-64671428D01*
X122842857Y-64728571D01*
X122814285Y-64757142D01*
X122757142Y-64785714D01*
X122642857Y-64785714D01*
X122585714Y-64757142D01*
X122557142Y-64728571D01*
X122528571Y-64671428D01*
X122328571Y-65014285D02*
X122300000Y-65042857D01*
X122271428Y-65100000D01*
X122271428Y-65242857D01*
X122300000Y-65300000D01*
X122328571Y-65328571D01*
X122385714Y-65357142D01*
X122442857Y-65357142D01*
X122528571Y-65328571D01*
X122871428Y-64985714D01*
X122871428Y-65357142D01*
%TO.C,C80*%
X120285714Y-62714285D02*
X120314285Y-62742857D01*
X120400000Y-62771428D01*
X120457142Y-62771428D01*
X120542857Y-62742857D01*
X120600000Y-62685714D01*
X120628571Y-62628571D01*
X120657142Y-62514285D01*
X120657142Y-62428571D01*
X120628571Y-62314285D01*
X120600000Y-62257142D01*
X120542857Y-62200000D01*
X120457142Y-62171428D01*
X120400000Y-62171428D01*
X120314285Y-62200000D01*
X120285714Y-62228571D01*
X119942857Y-62428571D02*
X120000000Y-62400000D01*
X120028571Y-62371428D01*
X120057142Y-62314285D01*
X120057142Y-62285714D01*
X120028571Y-62228571D01*
X120000000Y-62200000D01*
X119942857Y-62171428D01*
X119828571Y-62171428D01*
X119771428Y-62200000D01*
X119742857Y-62228571D01*
X119714285Y-62285714D01*
X119714285Y-62314285D01*
X119742857Y-62371428D01*
X119771428Y-62400000D01*
X119828571Y-62428571D01*
X119942857Y-62428571D01*
X120000000Y-62457142D01*
X120028571Y-62485714D01*
X120057142Y-62542857D01*
X120057142Y-62657142D01*
X120028571Y-62714285D01*
X120000000Y-62742857D01*
X119942857Y-62771428D01*
X119828571Y-62771428D01*
X119771428Y-62742857D01*
X119742857Y-62714285D01*
X119714285Y-62657142D01*
X119714285Y-62542857D01*
X119742857Y-62485714D01*
X119771428Y-62457142D01*
X119828571Y-62428571D01*
X119342857Y-62171428D02*
X119285714Y-62171428D01*
X119228571Y-62200000D01*
X119200000Y-62228571D01*
X119171428Y-62285714D01*
X119142857Y-62400000D01*
X119142857Y-62542857D01*
X119171428Y-62657142D01*
X119200000Y-62714285D01*
X119228571Y-62742857D01*
X119285714Y-62771428D01*
X119342857Y-62771428D01*
X119400000Y-62742857D01*
X119428571Y-62714285D01*
X119457142Y-62657142D01*
X119485714Y-62542857D01*
X119485714Y-62400000D01*
X119457142Y-62285714D01*
X119428571Y-62228571D01*
X119400000Y-62200000D01*
X119342857Y-62171428D01*
%TO.C,C78*%
X122985714Y-58914285D02*
X123014285Y-58942857D01*
X123100000Y-58971428D01*
X123157142Y-58971428D01*
X123242857Y-58942857D01*
X123300000Y-58885714D01*
X123328571Y-58828571D01*
X123357142Y-58714285D01*
X123357142Y-58628571D01*
X123328571Y-58514285D01*
X123300000Y-58457142D01*
X123242857Y-58400000D01*
X123157142Y-58371428D01*
X123100000Y-58371428D01*
X123014285Y-58400000D01*
X122985714Y-58428571D01*
X122785714Y-58371428D02*
X122385714Y-58371428D01*
X122642857Y-58971428D01*
X122071428Y-58628571D02*
X122128571Y-58600000D01*
X122157142Y-58571428D01*
X122185714Y-58514285D01*
X122185714Y-58485714D01*
X122157142Y-58428571D01*
X122128571Y-58400000D01*
X122071428Y-58371428D01*
X121957142Y-58371428D01*
X121900000Y-58400000D01*
X121871428Y-58428571D01*
X121842857Y-58485714D01*
X121842857Y-58514285D01*
X121871428Y-58571428D01*
X121900000Y-58600000D01*
X121957142Y-58628571D01*
X122071428Y-58628571D01*
X122128571Y-58657142D01*
X122157142Y-58685714D01*
X122185714Y-58742857D01*
X122185714Y-58857142D01*
X122157142Y-58914285D01*
X122128571Y-58942857D01*
X122071428Y-58971428D01*
X121957142Y-58971428D01*
X121900000Y-58942857D01*
X121871428Y-58914285D01*
X121842857Y-58857142D01*
X121842857Y-58742857D01*
X121871428Y-58685714D01*
X121900000Y-58657142D01*
X121957142Y-58628571D01*
%TO.C,C76*%
X129214285Y-57714285D02*
X129242857Y-57685714D01*
X129271428Y-57600000D01*
X129271428Y-57542857D01*
X129242857Y-57457142D01*
X129185714Y-57400000D01*
X129128571Y-57371428D01*
X129014285Y-57342857D01*
X128928571Y-57342857D01*
X128814285Y-57371428D01*
X128757142Y-57400000D01*
X128700000Y-57457142D01*
X128671428Y-57542857D01*
X128671428Y-57600000D01*
X128700000Y-57685714D01*
X128728571Y-57714285D01*
X128671428Y-57914285D02*
X128671428Y-58314285D01*
X129271428Y-58057142D01*
X128671428Y-58800000D02*
X128671428Y-58685714D01*
X128700000Y-58628571D01*
X128728571Y-58600000D01*
X128814285Y-58542857D01*
X128928571Y-58514285D01*
X129157142Y-58514285D01*
X129214285Y-58542857D01*
X129242857Y-58571428D01*
X129271428Y-58628571D01*
X129271428Y-58742857D01*
X129242857Y-58800000D01*
X129214285Y-58828571D01*
X129157142Y-58857142D01*
X129014285Y-58857142D01*
X128957142Y-58828571D01*
X128928571Y-58800000D01*
X128900000Y-58742857D01*
X128900000Y-58628571D01*
X128928571Y-58571428D01*
X128957142Y-58542857D01*
X129014285Y-58514285D01*
%TO.C,C75*%
X127485714Y-62714285D02*
X127514285Y-62742857D01*
X127600000Y-62771428D01*
X127657142Y-62771428D01*
X127742857Y-62742857D01*
X127800000Y-62685714D01*
X127828571Y-62628571D01*
X127857142Y-62514285D01*
X127857142Y-62428571D01*
X127828571Y-62314285D01*
X127800000Y-62257142D01*
X127742857Y-62200000D01*
X127657142Y-62171428D01*
X127600000Y-62171428D01*
X127514285Y-62200000D01*
X127485714Y-62228571D01*
X127285714Y-62171428D02*
X126885714Y-62171428D01*
X127142857Y-62771428D01*
X126371428Y-62171428D02*
X126657142Y-62171428D01*
X126685714Y-62457142D01*
X126657142Y-62428571D01*
X126600000Y-62400000D01*
X126457142Y-62400000D01*
X126400000Y-62428571D01*
X126371428Y-62457142D01*
X126342857Y-62514285D01*
X126342857Y-62657142D01*
X126371428Y-62714285D01*
X126400000Y-62742857D01*
X126457142Y-62771428D01*
X126600000Y-62771428D01*
X126657142Y-62742857D01*
X126685714Y-62714285D01*
%TO.C,C73*%
X120285714Y-64314285D02*
X120314285Y-64342857D01*
X120400000Y-64371428D01*
X120457142Y-64371428D01*
X120542857Y-64342857D01*
X120600000Y-64285714D01*
X120628571Y-64228571D01*
X120657142Y-64114285D01*
X120657142Y-64028571D01*
X120628571Y-63914285D01*
X120600000Y-63857142D01*
X120542857Y-63800000D01*
X120457142Y-63771428D01*
X120400000Y-63771428D01*
X120314285Y-63800000D01*
X120285714Y-63828571D01*
X120085714Y-63771428D02*
X119685714Y-63771428D01*
X119942857Y-64371428D01*
X119514285Y-63771428D02*
X119142857Y-63771428D01*
X119342857Y-64000000D01*
X119257142Y-64000000D01*
X119200000Y-64028571D01*
X119171428Y-64057142D01*
X119142857Y-64114285D01*
X119142857Y-64257142D01*
X119171428Y-64314285D01*
X119200000Y-64342857D01*
X119257142Y-64371428D01*
X119428571Y-64371428D01*
X119485714Y-64342857D01*
X119514285Y-64314285D01*
%TO.C,C63*%
X131314285Y-62914285D02*
X131342857Y-62885714D01*
X131371428Y-62800000D01*
X131371428Y-62742857D01*
X131342857Y-62657142D01*
X131285714Y-62600000D01*
X131228571Y-62571428D01*
X131114285Y-62542857D01*
X131028571Y-62542857D01*
X130914285Y-62571428D01*
X130857142Y-62600000D01*
X130800000Y-62657142D01*
X130771428Y-62742857D01*
X130771428Y-62800000D01*
X130800000Y-62885714D01*
X130828571Y-62914285D01*
X130771428Y-63428571D02*
X130771428Y-63314285D01*
X130800000Y-63257142D01*
X130828571Y-63228571D01*
X130914285Y-63171428D01*
X131028571Y-63142857D01*
X131257142Y-63142857D01*
X131314285Y-63171428D01*
X131342857Y-63200000D01*
X131371428Y-63257142D01*
X131371428Y-63371428D01*
X131342857Y-63428571D01*
X131314285Y-63457142D01*
X131257142Y-63485714D01*
X131114285Y-63485714D01*
X131057142Y-63457142D01*
X131028571Y-63428571D01*
X131000000Y-63371428D01*
X131000000Y-63257142D01*
X131028571Y-63200000D01*
X131057142Y-63171428D01*
X131114285Y-63142857D01*
X130771428Y-63685714D02*
X130771428Y-64057142D01*
X131000000Y-63857142D01*
X131000000Y-63942857D01*
X131028571Y-64000000D01*
X131057142Y-64028571D01*
X131114285Y-64057142D01*
X131257142Y-64057142D01*
X131314285Y-64028571D01*
X131342857Y-64000000D01*
X131371428Y-63942857D01*
X131371428Y-63771428D01*
X131342857Y-63714285D01*
X131314285Y-63685714D01*
%TO.C,C2*%
X140400000Y-65014285D02*
X140428571Y-65042857D01*
X140514285Y-65071428D01*
X140571428Y-65071428D01*
X140657142Y-65042857D01*
X140714285Y-64985714D01*
X140742857Y-64928571D01*
X140771428Y-64814285D01*
X140771428Y-64728571D01*
X140742857Y-64614285D01*
X140714285Y-64557142D01*
X140657142Y-64500000D01*
X140571428Y-64471428D01*
X140514285Y-64471428D01*
X140428571Y-64500000D01*
X140400000Y-64528571D01*
X140171428Y-64528571D02*
X140142857Y-64500000D01*
X140085714Y-64471428D01*
X139942857Y-64471428D01*
X139885714Y-64500000D01*
X139857142Y-64528571D01*
X139828571Y-64585714D01*
X139828571Y-64642857D01*
X139857142Y-64728571D01*
X140200000Y-65071428D01*
X139828571Y-65071428D01*
%TO.C,C52*%
X130285714Y-61514285D02*
X130314285Y-61542857D01*
X130400000Y-61571428D01*
X130457142Y-61571428D01*
X130542857Y-61542857D01*
X130600000Y-61485714D01*
X130628571Y-61428571D01*
X130657142Y-61314285D01*
X130657142Y-61228571D01*
X130628571Y-61114285D01*
X130600000Y-61057142D01*
X130542857Y-61000000D01*
X130457142Y-60971428D01*
X130400000Y-60971428D01*
X130314285Y-61000000D01*
X130285714Y-61028571D01*
X129742857Y-60971428D02*
X130028571Y-60971428D01*
X130057142Y-61257142D01*
X130028571Y-61228571D01*
X129971428Y-61200000D01*
X129828571Y-61200000D01*
X129771428Y-61228571D01*
X129742857Y-61257142D01*
X129714285Y-61314285D01*
X129714285Y-61457142D01*
X129742857Y-61514285D01*
X129771428Y-61542857D01*
X129828571Y-61571428D01*
X129971428Y-61571428D01*
X130028571Y-61542857D01*
X130057142Y-61514285D01*
X129485714Y-61028571D02*
X129457142Y-61000000D01*
X129400000Y-60971428D01*
X129257142Y-60971428D01*
X129200000Y-61000000D01*
X129171428Y-61028571D01*
X129142857Y-61085714D01*
X129142857Y-61142857D01*
X129171428Y-61228571D01*
X129514285Y-61571428D01*
X129142857Y-61571428D01*
%TO.C,C61*%
X124414285Y-64214285D02*
X124442857Y-64185714D01*
X124471428Y-64100000D01*
X124471428Y-64042857D01*
X124442857Y-63957142D01*
X124385714Y-63900000D01*
X124328571Y-63871428D01*
X124214285Y-63842857D01*
X124128571Y-63842857D01*
X124014285Y-63871428D01*
X123957142Y-63900000D01*
X123900000Y-63957142D01*
X123871428Y-64042857D01*
X123871428Y-64100000D01*
X123900000Y-64185714D01*
X123928571Y-64214285D01*
X123871428Y-64728571D02*
X123871428Y-64614285D01*
X123900000Y-64557142D01*
X123928571Y-64528571D01*
X124014285Y-64471428D01*
X124128571Y-64442857D01*
X124357142Y-64442857D01*
X124414285Y-64471428D01*
X124442857Y-64500000D01*
X124471428Y-64557142D01*
X124471428Y-64671428D01*
X124442857Y-64728571D01*
X124414285Y-64757142D01*
X124357142Y-64785714D01*
X124214285Y-64785714D01*
X124157142Y-64757142D01*
X124128571Y-64728571D01*
X124100000Y-64671428D01*
X124100000Y-64557142D01*
X124128571Y-64500000D01*
X124157142Y-64471428D01*
X124214285Y-64442857D01*
X124471428Y-65357142D02*
X124471428Y-65014285D01*
X124471428Y-65185714D02*
X123871428Y-65185714D01*
X123957142Y-65128571D01*
X124014285Y-65071428D01*
X124042857Y-65014285D01*
%TO.C,C51*%
X130485714Y-66714285D02*
X130514285Y-66742857D01*
X130600000Y-66771428D01*
X130657142Y-66771428D01*
X130742857Y-66742857D01*
X130800000Y-66685714D01*
X130828571Y-66628571D01*
X130857142Y-66514285D01*
X130857142Y-66428571D01*
X130828571Y-66314285D01*
X130800000Y-66257142D01*
X130742857Y-66200000D01*
X130657142Y-66171428D01*
X130600000Y-66171428D01*
X130514285Y-66200000D01*
X130485714Y-66228571D01*
X129942857Y-66171428D02*
X130228571Y-66171428D01*
X130257142Y-66457142D01*
X130228571Y-66428571D01*
X130171428Y-66400000D01*
X130028571Y-66400000D01*
X129971428Y-66428571D01*
X129942857Y-66457142D01*
X129914285Y-66514285D01*
X129914285Y-66657142D01*
X129942857Y-66714285D01*
X129971428Y-66742857D01*
X130028571Y-66771428D01*
X130171428Y-66771428D01*
X130228571Y-66742857D01*
X130257142Y-66714285D01*
X129342857Y-66771428D02*
X129685714Y-66771428D01*
X129514285Y-66771428D02*
X129514285Y-66171428D01*
X129571428Y-66257142D01*
X129628571Y-66314285D01*
X129685714Y-66342857D01*
%TO.C,C70*%
X128185714Y-70714285D02*
X128214285Y-70742857D01*
X128300000Y-70771428D01*
X128357142Y-70771428D01*
X128442857Y-70742857D01*
X128500000Y-70685714D01*
X128528571Y-70628571D01*
X128557142Y-70514285D01*
X128557142Y-70428571D01*
X128528571Y-70314285D01*
X128500000Y-70257142D01*
X128442857Y-70200000D01*
X128357142Y-70171428D01*
X128300000Y-70171428D01*
X128214285Y-70200000D01*
X128185714Y-70228571D01*
X127985714Y-70171428D02*
X127585714Y-70171428D01*
X127842857Y-70771428D01*
X127242857Y-70171428D02*
X127185714Y-70171428D01*
X127128571Y-70200000D01*
X127100000Y-70228571D01*
X127071428Y-70285714D01*
X127042857Y-70400000D01*
X127042857Y-70542857D01*
X127071428Y-70657142D01*
X127100000Y-70714285D01*
X127128571Y-70742857D01*
X127185714Y-70771428D01*
X127242857Y-70771428D01*
X127300000Y-70742857D01*
X127328571Y-70714285D01*
X127357142Y-70657142D01*
X127385714Y-70542857D01*
X127385714Y-70400000D01*
X127357142Y-70285714D01*
X127328571Y-70228571D01*
X127300000Y-70200000D01*
X127242857Y-70171428D01*
%TO.C,C60*%
X122885714Y-66814285D02*
X122914285Y-66842857D01*
X123000000Y-66871428D01*
X123057142Y-66871428D01*
X123142857Y-66842857D01*
X123200000Y-66785714D01*
X123228571Y-66728571D01*
X123257142Y-66614285D01*
X123257142Y-66528571D01*
X123228571Y-66414285D01*
X123200000Y-66357142D01*
X123142857Y-66300000D01*
X123057142Y-66271428D01*
X123000000Y-66271428D01*
X122914285Y-66300000D01*
X122885714Y-66328571D01*
X122371428Y-66271428D02*
X122485714Y-66271428D01*
X122542857Y-66300000D01*
X122571428Y-66328571D01*
X122628571Y-66414285D01*
X122657142Y-66528571D01*
X122657142Y-66757142D01*
X122628571Y-66814285D01*
X122600000Y-66842857D01*
X122542857Y-66871428D01*
X122428571Y-66871428D01*
X122371428Y-66842857D01*
X122342857Y-66814285D01*
X122314285Y-66757142D01*
X122314285Y-66614285D01*
X122342857Y-66557142D01*
X122371428Y-66528571D01*
X122428571Y-66500000D01*
X122542857Y-66500000D01*
X122600000Y-66528571D01*
X122628571Y-66557142D01*
X122657142Y-66614285D01*
X121942857Y-66271428D02*
X121885714Y-66271428D01*
X121828571Y-66300000D01*
X121800000Y-66328571D01*
X121771428Y-66385714D01*
X121742857Y-66500000D01*
X121742857Y-66642857D01*
X121771428Y-66757142D01*
X121800000Y-66814285D01*
X121828571Y-66842857D01*
X121885714Y-66871428D01*
X121942857Y-66871428D01*
X122000000Y-66842857D01*
X122028571Y-66814285D01*
X122057142Y-66757142D01*
X122085714Y-66642857D01*
X122085714Y-66500000D01*
X122057142Y-66385714D01*
X122028571Y-66328571D01*
X122000000Y-66300000D01*
X121942857Y-66271428D01*
%TO.C,C66*%
X122685714Y-62714285D02*
X122714285Y-62742857D01*
X122800000Y-62771428D01*
X122857142Y-62771428D01*
X122942857Y-62742857D01*
X123000000Y-62685714D01*
X123028571Y-62628571D01*
X123057142Y-62514285D01*
X123057142Y-62428571D01*
X123028571Y-62314285D01*
X123000000Y-62257142D01*
X122942857Y-62200000D01*
X122857142Y-62171428D01*
X122800000Y-62171428D01*
X122714285Y-62200000D01*
X122685714Y-62228571D01*
X122171428Y-62171428D02*
X122285714Y-62171428D01*
X122342857Y-62200000D01*
X122371428Y-62228571D01*
X122428571Y-62314285D01*
X122457142Y-62428571D01*
X122457142Y-62657142D01*
X122428571Y-62714285D01*
X122400000Y-62742857D01*
X122342857Y-62771428D01*
X122228571Y-62771428D01*
X122171428Y-62742857D01*
X122142857Y-62714285D01*
X122114285Y-62657142D01*
X122114285Y-62514285D01*
X122142857Y-62457142D01*
X122171428Y-62428571D01*
X122228571Y-62400000D01*
X122342857Y-62400000D01*
X122400000Y-62428571D01*
X122428571Y-62457142D01*
X122457142Y-62514285D01*
X121600000Y-62171428D02*
X121714285Y-62171428D01*
X121771428Y-62200000D01*
X121800000Y-62228571D01*
X121857142Y-62314285D01*
X121885714Y-62428571D01*
X121885714Y-62657142D01*
X121857142Y-62714285D01*
X121828571Y-62742857D01*
X121771428Y-62771428D01*
X121657142Y-62771428D01*
X121600000Y-62742857D01*
X121571428Y-62714285D01*
X121542857Y-62657142D01*
X121542857Y-62514285D01*
X121571428Y-62457142D01*
X121600000Y-62428571D01*
X121657142Y-62400000D01*
X121771428Y-62400000D01*
X121828571Y-62428571D01*
X121857142Y-62457142D01*
X121885714Y-62514285D01*
%TO.C,C53*%
X130285714Y-60614285D02*
X130314285Y-60642857D01*
X130400000Y-60671428D01*
X130457142Y-60671428D01*
X130542857Y-60642857D01*
X130600000Y-60585714D01*
X130628571Y-60528571D01*
X130657142Y-60414285D01*
X130657142Y-60328571D01*
X130628571Y-60214285D01*
X130600000Y-60157142D01*
X130542857Y-60100000D01*
X130457142Y-60071428D01*
X130400000Y-60071428D01*
X130314285Y-60100000D01*
X130285714Y-60128571D01*
X129742857Y-60071428D02*
X130028571Y-60071428D01*
X130057142Y-60357142D01*
X130028571Y-60328571D01*
X129971428Y-60300000D01*
X129828571Y-60300000D01*
X129771428Y-60328571D01*
X129742857Y-60357142D01*
X129714285Y-60414285D01*
X129714285Y-60557142D01*
X129742857Y-60614285D01*
X129771428Y-60642857D01*
X129828571Y-60671428D01*
X129971428Y-60671428D01*
X130028571Y-60642857D01*
X130057142Y-60614285D01*
X129514285Y-60071428D02*
X129142857Y-60071428D01*
X129342857Y-60300000D01*
X129257142Y-60300000D01*
X129200000Y-60328571D01*
X129171428Y-60357142D01*
X129142857Y-60414285D01*
X129142857Y-60557142D01*
X129171428Y-60614285D01*
X129200000Y-60642857D01*
X129257142Y-60671428D01*
X129428571Y-60671428D01*
X129485714Y-60642857D01*
X129514285Y-60614285D01*
%TO.C,C54*%
X122985714Y-55714285D02*
X123014285Y-55742857D01*
X123100000Y-55771428D01*
X123157142Y-55771428D01*
X123242857Y-55742857D01*
X123300000Y-55685714D01*
X123328571Y-55628571D01*
X123357142Y-55514285D01*
X123357142Y-55428571D01*
X123328571Y-55314285D01*
X123300000Y-55257142D01*
X123242857Y-55200000D01*
X123157142Y-55171428D01*
X123100000Y-55171428D01*
X123014285Y-55200000D01*
X122985714Y-55228571D01*
X122442857Y-55171428D02*
X122728571Y-55171428D01*
X122757142Y-55457142D01*
X122728571Y-55428571D01*
X122671428Y-55400000D01*
X122528571Y-55400000D01*
X122471428Y-55428571D01*
X122442857Y-55457142D01*
X122414285Y-55514285D01*
X122414285Y-55657142D01*
X122442857Y-55714285D01*
X122471428Y-55742857D01*
X122528571Y-55771428D01*
X122671428Y-55771428D01*
X122728571Y-55742857D01*
X122757142Y-55714285D01*
X121900000Y-55371428D02*
X121900000Y-55771428D01*
X122042857Y-55142857D02*
X122185714Y-55571428D01*
X121814285Y-55571428D01*
%TO.C,C79*%
X120285714Y-59514285D02*
X120314285Y-59542857D01*
X120400000Y-59571428D01*
X120457142Y-59571428D01*
X120542857Y-59542857D01*
X120600000Y-59485714D01*
X120628571Y-59428571D01*
X120657142Y-59314285D01*
X120657142Y-59228571D01*
X120628571Y-59114285D01*
X120600000Y-59057142D01*
X120542857Y-59000000D01*
X120457142Y-58971428D01*
X120400000Y-58971428D01*
X120314285Y-59000000D01*
X120285714Y-59028571D01*
X120085714Y-58971428D02*
X119685714Y-58971428D01*
X119942857Y-59571428D01*
X119428571Y-59571428D02*
X119314285Y-59571428D01*
X119257142Y-59542857D01*
X119228571Y-59514285D01*
X119171428Y-59428571D01*
X119142857Y-59314285D01*
X119142857Y-59085714D01*
X119171428Y-59028571D01*
X119200000Y-59000000D01*
X119257142Y-58971428D01*
X119371428Y-58971428D01*
X119428571Y-59000000D01*
X119457142Y-59028571D01*
X119485714Y-59085714D01*
X119485714Y-59228571D01*
X119457142Y-59285714D01*
X119428571Y-59314285D01*
X119371428Y-59342857D01*
X119257142Y-59342857D01*
X119200000Y-59314285D01*
X119171428Y-59285714D01*
X119142857Y-59228571D01*
%TO.C,C72*%
X120285714Y-61114285D02*
X120314285Y-61142857D01*
X120400000Y-61171428D01*
X120457142Y-61171428D01*
X120542857Y-61142857D01*
X120600000Y-61085714D01*
X120628571Y-61028571D01*
X120657142Y-60914285D01*
X120657142Y-60828571D01*
X120628571Y-60714285D01*
X120600000Y-60657142D01*
X120542857Y-60600000D01*
X120457142Y-60571428D01*
X120400000Y-60571428D01*
X120314285Y-60600000D01*
X120285714Y-60628571D01*
X120085714Y-60571428D02*
X119685714Y-60571428D01*
X119942857Y-61171428D01*
X119485714Y-60628571D02*
X119457142Y-60600000D01*
X119400000Y-60571428D01*
X119257142Y-60571428D01*
X119200000Y-60600000D01*
X119171428Y-60628571D01*
X119142857Y-60685714D01*
X119142857Y-60742857D01*
X119171428Y-60828571D01*
X119514285Y-61171428D01*
X119142857Y-61171428D01*
%TO.C,R6*%
X142200000Y-65071428D02*
X142400000Y-64785714D01*
X142542857Y-65071428D02*
X142542857Y-64471428D01*
X142314285Y-64471428D01*
X142257142Y-64500000D01*
X142228571Y-64528571D01*
X142200000Y-64585714D01*
X142200000Y-64671428D01*
X142228571Y-64728571D01*
X142257142Y-64757142D01*
X142314285Y-64785714D01*
X142542857Y-64785714D01*
X141685714Y-64471428D02*
X141800000Y-64471428D01*
X141857142Y-64500000D01*
X141885714Y-64528571D01*
X141942857Y-64614285D01*
X141971428Y-64728571D01*
X141971428Y-64957142D01*
X141942857Y-65014285D01*
X141914285Y-65042857D01*
X141857142Y-65071428D01*
X141742857Y-65071428D01*
X141685714Y-65042857D01*
X141657142Y-65014285D01*
X141628571Y-64957142D01*
X141628571Y-64814285D01*
X141657142Y-64757142D01*
X141685714Y-64728571D01*
X141742857Y-64700000D01*
X141857142Y-64700000D01*
X141914285Y-64728571D01*
X141942857Y-64757142D01*
X141971428Y-64814285D01*
%TO.C,R16*%
X135485714Y-55071428D02*
X135685714Y-54785714D01*
X135828571Y-55071428D02*
X135828571Y-54471428D01*
X135600000Y-54471428D01*
X135542857Y-54500000D01*
X135514285Y-54528571D01*
X135485714Y-54585714D01*
X135485714Y-54671428D01*
X135514285Y-54728571D01*
X135542857Y-54757142D01*
X135600000Y-54785714D01*
X135828571Y-54785714D01*
X134914285Y-55071428D02*
X135257142Y-55071428D01*
X135085714Y-55071428D02*
X135085714Y-54471428D01*
X135142857Y-54557142D01*
X135200000Y-54614285D01*
X135257142Y-54642857D01*
X134400000Y-54471428D02*
X134514285Y-54471428D01*
X134571428Y-54500000D01*
X134600000Y-54528571D01*
X134657142Y-54614285D01*
X134685714Y-54728571D01*
X134685714Y-54957142D01*
X134657142Y-55014285D01*
X134628571Y-55042857D01*
X134571428Y-55071428D01*
X134457142Y-55071428D01*
X134400000Y-55042857D01*
X134371428Y-55014285D01*
X134342857Y-54957142D01*
X134342857Y-54814285D01*
X134371428Y-54757142D01*
X134400000Y-54728571D01*
X134457142Y-54700000D01*
X134571428Y-54700000D01*
X134628571Y-54728571D01*
X134657142Y-54757142D01*
X134685714Y-54814285D01*
%TO.C,R24*%
X148421428Y-89979285D02*
X148135714Y-89779285D01*
X148421428Y-89636428D02*
X147821428Y-89636428D01*
X147821428Y-89865000D01*
X147850000Y-89922142D01*
X147878571Y-89950714D01*
X147935714Y-89979285D01*
X148021428Y-89979285D01*
X148078571Y-89950714D01*
X148107142Y-89922142D01*
X148135714Y-89865000D01*
X148135714Y-89636428D01*
X147878571Y-90207857D02*
X147850000Y-90236428D01*
X147821428Y-90293571D01*
X147821428Y-90436428D01*
X147850000Y-90493571D01*
X147878571Y-90522142D01*
X147935714Y-90550714D01*
X147992857Y-90550714D01*
X148078571Y-90522142D01*
X148421428Y-90179285D01*
X148421428Y-90550714D01*
X148021428Y-91065000D02*
X148421428Y-91065000D01*
X147792857Y-90922142D02*
X148221428Y-90779285D01*
X148221428Y-91150714D01*
%TO.C,U8*%
X125057142Y-56671428D02*
X125057142Y-57157142D01*
X125028571Y-57214285D01*
X125000000Y-57242857D01*
X124942857Y-57271428D01*
X124828571Y-57271428D01*
X124771428Y-57242857D01*
X124742857Y-57214285D01*
X124714285Y-57157142D01*
X124714285Y-56671428D01*
X124342857Y-56928571D02*
X124400000Y-56900000D01*
X124428571Y-56871428D01*
X124457142Y-56814285D01*
X124457142Y-56785714D01*
X124428571Y-56728571D01*
X124400000Y-56700000D01*
X124342857Y-56671428D01*
X124228571Y-56671428D01*
X124171428Y-56700000D01*
X124142857Y-56728571D01*
X124114285Y-56785714D01*
X124114285Y-56814285D01*
X124142857Y-56871428D01*
X124171428Y-56900000D01*
X124228571Y-56928571D01*
X124342857Y-56928571D01*
X124400000Y-56957142D01*
X124428571Y-56985714D01*
X124457142Y-57042857D01*
X124457142Y-57157142D01*
X124428571Y-57214285D01*
X124400000Y-57242857D01*
X124342857Y-57271428D01*
X124228571Y-57271428D01*
X124171428Y-57242857D01*
X124142857Y-57214285D01*
X124114285Y-57157142D01*
X124114285Y-57042857D01*
X124142857Y-56985714D01*
X124171428Y-56957142D01*
X124228571Y-56928571D01*
%TO.C,C13*%
X135485714Y-56414285D02*
X135514285Y-56442857D01*
X135600000Y-56471428D01*
X135657142Y-56471428D01*
X135742857Y-56442857D01*
X135800000Y-56385714D01*
X135828571Y-56328571D01*
X135857142Y-56214285D01*
X135857142Y-56128571D01*
X135828571Y-56014285D01*
X135800000Y-55957142D01*
X135742857Y-55900000D01*
X135657142Y-55871428D01*
X135600000Y-55871428D01*
X135514285Y-55900000D01*
X135485714Y-55928571D01*
X134914285Y-56471428D02*
X135257142Y-56471428D01*
X135085714Y-56471428D02*
X135085714Y-55871428D01*
X135142857Y-55957142D01*
X135200000Y-56014285D01*
X135257142Y-56042857D01*
X134714285Y-55871428D02*
X134342857Y-55871428D01*
X134542857Y-56100000D01*
X134457142Y-56100000D01*
X134400000Y-56128571D01*
X134371428Y-56157142D01*
X134342857Y-56214285D01*
X134342857Y-56357142D01*
X134371428Y-56414285D01*
X134400000Y-56442857D01*
X134457142Y-56471428D01*
X134628571Y-56471428D01*
X134685714Y-56442857D01*
X134714285Y-56414285D01*
%TO.C,U17*%
X118617857Y-73071428D02*
X118617857Y-73557142D01*
X118589285Y-73614285D01*
X118560714Y-73642857D01*
X118503571Y-73671428D01*
X118389285Y-73671428D01*
X118332142Y-73642857D01*
X118303571Y-73614285D01*
X118275000Y-73557142D01*
X118275000Y-73071428D01*
X117675000Y-73671428D02*
X118017857Y-73671428D01*
X117846428Y-73671428D02*
X117846428Y-73071428D01*
X117903571Y-73157142D01*
X117960714Y-73214285D01*
X118017857Y-73242857D01*
X117475000Y-73071428D02*
X117075000Y-73071428D01*
X117332142Y-73671428D01*
%TO.C,C15*%
X103885714Y-84014285D02*
X103914285Y-84042857D01*
X104000000Y-84071428D01*
X104057142Y-84071428D01*
X104142857Y-84042857D01*
X104200000Y-83985714D01*
X104228571Y-83928571D01*
X104257142Y-83814285D01*
X104257142Y-83728571D01*
X104228571Y-83614285D01*
X104200000Y-83557142D01*
X104142857Y-83500000D01*
X104057142Y-83471428D01*
X104000000Y-83471428D01*
X103914285Y-83500000D01*
X103885714Y-83528571D01*
X103314285Y-84071428D02*
X103657142Y-84071428D01*
X103485714Y-84071428D02*
X103485714Y-83471428D01*
X103542857Y-83557142D01*
X103600000Y-83614285D01*
X103657142Y-83642857D01*
X102771428Y-83471428D02*
X103057142Y-83471428D01*
X103085714Y-83757142D01*
X103057142Y-83728571D01*
X103000000Y-83700000D01*
X102857142Y-83700000D01*
X102800000Y-83728571D01*
X102771428Y-83757142D01*
X102742857Y-83814285D01*
X102742857Y-83957142D01*
X102771428Y-84014285D01*
X102800000Y-84042857D01*
X102857142Y-84071428D01*
X103000000Y-84071428D01*
X103057142Y-84042857D01*
X103085714Y-84014285D01*
%TO.C,C16*%
X110585714Y-84014285D02*
X110614285Y-84042857D01*
X110700000Y-84071428D01*
X110757142Y-84071428D01*
X110842857Y-84042857D01*
X110900000Y-83985714D01*
X110928571Y-83928571D01*
X110957142Y-83814285D01*
X110957142Y-83728571D01*
X110928571Y-83614285D01*
X110900000Y-83557142D01*
X110842857Y-83500000D01*
X110757142Y-83471428D01*
X110700000Y-83471428D01*
X110614285Y-83500000D01*
X110585714Y-83528571D01*
X110014285Y-84071428D02*
X110357142Y-84071428D01*
X110185714Y-84071428D02*
X110185714Y-83471428D01*
X110242857Y-83557142D01*
X110300000Y-83614285D01*
X110357142Y-83642857D01*
X109500000Y-83471428D02*
X109614285Y-83471428D01*
X109671428Y-83500000D01*
X109700000Y-83528571D01*
X109757142Y-83614285D01*
X109785714Y-83728571D01*
X109785714Y-83957142D01*
X109757142Y-84014285D01*
X109728571Y-84042857D01*
X109671428Y-84071428D01*
X109557142Y-84071428D01*
X109500000Y-84042857D01*
X109471428Y-84014285D01*
X109442857Y-83957142D01*
X109442857Y-83814285D01*
X109471428Y-83757142D01*
X109500000Y-83728571D01*
X109557142Y-83700000D01*
X109671428Y-83700000D01*
X109728571Y-83728571D01*
X109757142Y-83757142D01*
X109785714Y-83814285D01*
%TO.C,C1*%
X140400000Y-66214285D02*
X140428571Y-66242857D01*
X140514285Y-66271428D01*
X140571428Y-66271428D01*
X140657142Y-66242857D01*
X140714285Y-66185714D01*
X140742857Y-66128571D01*
X140771428Y-66014285D01*
X140771428Y-65928571D01*
X140742857Y-65814285D01*
X140714285Y-65757142D01*
X140657142Y-65700000D01*
X140571428Y-65671428D01*
X140514285Y-65671428D01*
X140428571Y-65700000D01*
X140400000Y-65728571D01*
X139828571Y-66271428D02*
X140171428Y-66271428D01*
X140000000Y-66271428D02*
X140000000Y-65671428D01*
X140057142Y-65757142D01*
X140114285Y-65814285D01*
X140171428Y-65842857D01*
%TO.C,R11*%
X123771428Y-75314285D02*
X123485714Y-75114285D01*
X123771428Y-74971428D02*
X123171428Y-74971428D01*
X123171428Y-75200000D01*
X123200000Y-75257142D01*
X123228571Y-75285714D01*
X123285714Y-75314285D01*
X123371428Y-75314285D01*
X123428571Y-75285714D01*
X123457142Y-75257142D01*
X123485714Y-75200000D01*
X123485714Y-74971428D01*
X123771428Y-75885714D02*
X123771428Y-75542857D01*
X123771428Y-75714285D02*
X123171428Y-75714285D01*
X123257142Y-75657142D01*
X123314285Y-75600000D01*
X123342857Y-75542857D01*
X123771428Y-76457142D02*
X123771428Y-76114285D01*
X123771428Y-76285714D02*
X123171428Y-76285714D01*
X123257142Y-76228571D01*
X123314285Y-76171428D01*
X123342857Y-76114285D01*
%TO.C,R9*%
X125771428Y-75600000D02*
X125485714Y-75400000D01*
X125771428Y-75257142D02*
X125171428Y-75257142D01*
X125171428Y-75485714D01*
X125200000Y-75542857D01*
X125228571Y-75571428D01*
X125285714Y-75600000D01*
X125371428Y-75600000D01*
X125428571Y-75571428D01*
X125457142Y-75542857D01*
X125485714Y-75485714D01*
X125485714Y-75257142D01*
X125771428Y-75885714D02*
X125771428Y-76000000D01*
X125742857Y-76057142D01*
X125714285Y-76085714D01*
X125628571Y-76142857D01*
X125514285Y-76171428D01*
X125285714Y-76171428D01*
X125228571Y-76142857D01*
X125200000Y-76114285D01*
X125171428Y-76057142D01*
X125171428Y-75942857D01*
X125200000Y-75885714D01*
X125228571Y-75857142D01*
X125285714Y-75828571D01*
X125428571Y-75828571D01*
X125485714Y-75857142D01*
X125514285Y-75885714D01*
X125542857Y-75942857D01*
X125542857Y-76057142D01*
X125514285Y-76114285D01*
X125485714Y-76142857D01*
X125428571Y-76171428D01*
%TO.C,R12*%
X122771428Y-75314285D02*
X122485714Y-75114285D01*
X122771428Y-74971428D02*
X122171428Y-74971428D01*
X122171428Y-75200000D01*
X122200000Y-75257142D01*
X122228571Y-75285714D01*
X122285714Y-75314285D01*
X122371428Y-75314285D01*
X122428571Y-75285714D01*
X122457142Y-75257142D01*
X122485714Y-75200000D01*
X122485714Y-74971428D01*
X122771428Y-75885714D02*
X122771428Y-75542857D01*
X122771428Y-75714285D02*
X122171428Y-75714285D01*
X122257142Y-75657142D01*
X122314285Y-75600000D01*
X122342857Y-75542857D01*
X122228571Y-76114285D02*
X122200000Y-76142857D01*
X122171428Y-76200000D01*
X122171428Y-76342857D01*
X122200000Y-76400000D01*
X122228571Y-76428571D01*
X122285714Y-76457142D01*
X122342857Y-76457142D01*
X122428571Y-76428571D01*
X122771428Y-76085714D01*
X122771428Y-76457142D01*
%TO.C,C10*%
X123714285Y-70814285D02*
X123742857Y-70785714D01*
X123771428Y-70700000D01*
X123771428Y-70642857D01*
X123742857Y-70557142D01*
X123685714Y-70500000D01*
X123628571Y-70471428D01*
X123514285Y-70442857D01*
X123428571Y-70442857D01*
X123314285Y-70471428D01*
X123257142Y-70500000D01*
X123200000Y-70557142D01*
X123171428Y-70642857D01*
X123171428Y-70700000D01*
X123200000Y-70785714D01*
X123228571Y-70814285D01*
X123771428Y-71385714D02*
X123771428Y-71042857D01*
X123771428Y-71214285D02*
X123171428Y-71214285D01*
X123257142Y-71157142D01*
X123314285Y-71100000D01*
X123342857Y-71042857D01*
X123171428Y-71757142D02*
X123171428Y-71814285D01*
X123200000Y-71871428D01*
X123228571Y-71900000D01*
X123285714Y-71928571D01*
X123400000Y-71957142D01*
X123542857Y-71957142D01*
X123657142Y-71928571D01*
X123714285Y-71900000D01*
X123742857Y-71871428D01*
X123771428Y-71814285D01*
X123771428Y-71757142D01*
X123742857Y-71700000D01*
X123714285Y-71671428D01*
X123657142Y-71642857D01*
X123542857Y-71614285D01*
X123400000Y-71614285D01*
X123285714Y-71642857D01*
X123228571Y-71671428D01*
X123200000Y-71700000D01*
X123171428Y-71757142D01*
%TO.C,C6*%
X125714285Y-71400000D02*
X125742857Y-71371428D01*
X125771428Y-71285714D01*
X125771428Y-71228571D01*
X125742857Y-71142857D01*
X125685714Y-71085714D01*
X125628571Y-71057142D01*
X125514285Y-71028571D01*
X125428571Y-71028571D01*
X125314285Y-71057142D01*
X125257142Y-71085714D01*
X125200000Y-71142857D01*
X125171428Y-71228571D01*
X125171428Y-71285714D01*
X125200000Y-71371428D01*
X125228571Y-71400000D01*
X125171428Y-71914285D02*
X125171428Y-71800000D01*
X125200000Y-71742857D01*
X125228571Y-71714285D01*
X125314285Y-71657142D01*
X125428571Y-71628571D01*
X125657142Y-71628571D01*
X125714285Y-71657142D01*
X125742857Y-71685714D01*
X125771428Y-71742857D01*
X125771428Y-71857142D01*
X125742857Y-71914285D01*
X125714285Y-71942857D01*
X125657142Y-71971428D01*
X125514285Y-71971428D01*
X125457142Y-71942857D01*
X125428571Y-71914285D01*
X125400000Y-71857142D01*
X125400000Y-71742857D01*
X125428571Y-71685714D01*
X125457142Y-71657142D01*
X125514285Y-71628571D01*
%TO.C,C11*%
X122714285Y-70814285D02*
X122742857Y-70785714D01*
X122771428Y-70700000D01*
X122771428Y-70642857D01*
X122742857Y-70557142D01*
X122685714Y-70500000D01*
X122628571Y-70471428D01*
X122514285Y-70442857D01*
X122428571Y-70442857D01*
X122314285Y-70471428D01*
X122257142Y-70500000D01*
X122200000Y-70557142D01*
X122171428Y-70642857D01*
X122171428Y-70700000D01*
X122200000Y-70785714D01*
X122228571Y-70814285D01*
X122771428Y-71385714D02*
X122771428Y-71042857D01*
X122771428Y-71214285D02*
X122171428Y-71214285D01*
X122257142Y-71157142D01*
X122314285Y-71100000D01*
X122342857Y-71042857D01*
X122771428Y-71957142D02*
X122771428Y-71614285D01*
X122771428Y-71785714D02*
X122171428Y-71785714D01*
X122257142Y-71728571D01*
X122314285Y-71671428D01*
X122342857Y-71614285D01*
%TO.C,R10*%
X124771428Y-75314285D02*
X124485714Y-75114285D01*
X124771428Y-74971428D02*
X124171428Y-74971428D01*
X124171428Y-75200000D01*
X124200000Y-75257142D01*
X124228571Y-75285714D01*
X124285714Y-75314285D01*
X124371428Y-75314285D01*
X124428571Y-75285714D01*
X124457142Y-75257142D01*
X124485714Y-75200000D01*
X124485714Y-74971428D01*
X124771428Y-75885714D02*
X124771428Y-75542857D01*
X124771428Y-75714285D02*
X124171428Y-75714285D01*
X124257142Y-75657142D01*
X124314285Y-75600000D01*
X124342857Y-75542857D01*
X124171428Y-76257142D02*
X124171428Y-76314285D01*
X124200000Y-76371428D01*
X124228571Y-76400000D01*
X124285714Y-76428571D01*
X124400000Y-76457142D01*
X124542857Y-76457142D01*
X124657142Y-76428571D01*
X124714285Y-76400000D01*
X124742857Y-76371428D01*
X124771428Y-76314285D01*
X124771428Y-76257142D01*
X124742857Y-76200000D01*
X124714285Y-76171428D01*
X124657142Y-76142857D01*
X124542857Y-76114285D01*
X124400000Y-76114285D01*
X124285714Y-76142857D01*
X124228571Y-76171428D01*
X124200000Y-76200000D01*
X124171428Y-76257142D01*
%TO.C,C5*%
X126714285Y-71400000D02*
X126742857Y-71371428D01*
X126771428Y-71285714D01*
X126771428Y-71228571D01*
X126742857Y-71142857D01*
X126685714Y-71085714D01*
X126628571Y-71057142D01*
X126514285Y-71028571D01*
X126428571Y-71028571D01*
X126314285Y-71057142D01*
X126257142Y-71085714D01*
X126200000Y-71142857D01*
X126171428Y-71228571D01*
X126171428Y-71285714D01*
X126200000Y-71371428D01*
X126228571Y-71400000D01*
X126171428Y-71942857D02*
X126171428Y-71657142D01*
X126457142Y-71628571D01*
X126428571Y-71657142D01*
X126400000Y-71714285D01*
X126400000Y-71857142D01*
X126428571Y-71914285D01*
X126457142Y-71942857D01*
X126514285Y-71971428D01*
X126657142Y-71971428D01*
X126714285Y-71942857D01*
X126742857Y-71914285D01*
X126771428Y-71857142D01*
X126771428Y-71714285D01*
X126742857Y-71657142D01*
X126714285Y-71628571D01*
%TO.C,C9*%
X124714285Y-71100000D02*
X124742857Y-71071428D01*
X124771428Y-70985714D01*
X124771428Y-70928571D01*
X124742857Y-70842857D01*
X124685714Y-70785714D01*
X124628571Y-70757142D01*
X124514285Y-70728571D01*
X124428571Y-70728571D01*
X124314285Y-70757142D01*
X124257142Y-70785714D01*
X124200000Y-70842857D01*
X124171428Y-70928571D01*
X124171428Y-70985714D01*
X124200000Y-71071428D01*
X124228571Y-71100000D01*
X124771428Y-71385714D02*
X124771428Y-71500000D01*
X124742857Y-71557142D01*
X124714285Y-71585714D01*
X124628571Y-71642857D01*
X124514285Y-71671428D01*
X124285714Y-71671428D01*
X124228571Y-71642857D01*
X124200000Y-71614285D01*
X124171428Y-71557142D01*
X124171428Y-71442857D01*
X124200000Y-71385714D01*
X124228571Y-71357142D01*
X124285714Y-71328571D01*
X124428571Y-71328571D01*
X124485714Y-71357142D01*
X124514285Y-71385714D01*
X124542857Y-71442857D01*
X124542857Y-71557142D01*
X124514285Y-71614285D01*
X124485714Y-71642857D01*
X124428571Y-71671428D01*
%TO.C,C4*%
X127714285Y-71400000D02*
X127742857Y-71371428D01*
X127771428Y-71285714D01*
X127771428Y-71228571D01*
X127742857Y-71142857D01*
X127685714Y-71085714D01*
X127628571Y-71057142D01*
X127514285Y-71028571D01*
X127428571Y-71028571D01*
X127314285Y-71057142D01*
X127257142Y-71085714D01*
X127200000Y-71142857D01*
X127171428Y-71228571D01*
X127171428Y-71285714D01*
X127200000Y-71371428D01*
X127228571Y-71400000D01*
X127371428Y-71914285D02*
X127771428Y-71914285D01*
X127142857Y-71771428D02*
X127571428Y-71628571D01*
X127571428Y-72000000D01*
%TO.C,C64*%
X130314285Y-62914285D02*
X130342857Y-62885714D01*
X130371428Y-62800000D01*
X130371428Y-62742857D01*
X130342857Y-62657142D01*
X130285714Y-62600000D01*
X130228571Y-62571428D01*
X130114285Y-62542857D01*
X130028571Y-62542857D01*
X129914285Y-62571428D01*
X129857142Y-62600000D01*
X129800000Y-62657142D01*
X129771428Y-62742857D01*
X129771428Y-62800000D01*
X129800000Y-62885714D01*
X129828571Y-62914285D01*
X129771428Y-63428571D02*
X129771428Y-63314285D01*
X129800000Y-63257142D01*
X129828571Y-63228571D01*
X129914285Y-63171428D01*
X130028571Y-63142857D01*
X130257142Y-63142857D01*
X130314285Y-63171428D01*
X130342857Y-63200000D01*
X130371428Y-63257142D01*
X130371428Y-63371428D01*
X130342857Y-63428571D01*
X130314285Y-63457142D01*
X130257142Y-63485714D01*
X130114285Y-63485714D01*
X130057142Y-63457142D01*
X130028571Y-63428571D01*
X130000000Y-63371428D01*
X130000000Y-63257142D01*
X130028571Y-63200000D01*
X130057142Y-63171428D01*
X130114285Y-63142857D01*
X129971428Y-64000000D02*
X130371428Y-64000000D01*
X129742857Y-63857142D02*
X130171428Y-63714285D01*
X130171428Y-64085714D01*
%TO.C,C21*%
X127785714Y-58114285D02*
X127814285Y-58142857D01*
X127900000Y-58171428D01*
X127957142Y-58171428D01*
X128042857Y-58142857D01*
X128100000Y-58085714D01*
X128128571Y-58028571D01*
X128157142Y-57914285D01*
X128157142Y-57828571D01*
X128128571Y-57714285D01*
X128100000Y-57657142D01*
X128042857Y-57600000D01*
X127957142Y-57571428D01*
X127900000Y-57571428D01*
X127814285Y-57600000D01*
X127785714Y-57628571D01*
X127557142Y-57628571D02*
X127528571Y-57600000D01*
X127471428Y-57571428D01*
X127328571Y-57571428D01*
X127271428Y-57600000D01*
X127242857Y-57628571D01*
X127214285Y-57685714D01*
X127214285Y-57742857D01*
X127242857Y-57828571D01*
X127585714Y-58171428D01*
X127214285Y-58171428D01*
X126642857Y-58171428D02*
X126985714Y-58171428D01*
X126814285Y-58171428D02*
X126814285Y-57571428D01*
X126871428Y-57657142D01*
X126928571Y-57714285D01*
X126985714Y-57742857D01*
%TO.C,U7*%
X128657142Y-56271428D02*
X128657142Y-56757142D01*
X128628571Y-56814285D01*
X128600000Y-56842857D01*
X128542857Y-56871428D01*
X128428571Y-56871428D01*
X128371428Y-56842857D01*
X128342857Y-56814285D01*
X128314285Y-56757142D01*
X128314285Y-56271428D01*
X128085714Y-56271428D02*
X127685714Y-56271428D01*
X127942857Y-56871428D01*
%TO.C,C17*%
X140285714Y-84014285D02*
X140314285Y-84042857D01*
X140400000Y-84071428D01*
X140457142Y-84071428D01*
X140542857Y-84042857D01*
X140600000Y-83985714D01*
X140628571Y-83928571D01*
X140657142Y-83814285D01*
X140657142Y-83728571D01*
X140628571Y-83614285D01*
X140600000Y-83557142D01*
X140542857Y-83500000D01*
X140457142Y-83471428D01*
X140400000Y-83471428D01*
X140314285Y-83500000D01*
X140285714Y-83528571D01*
X139714285Y-84071428D02*
X140057142Y-84071428D01*
X139885714Y-84071428D02*
X139885714Y-83471428D01*
X139942857Y-83557142D01*
X140000000Y-83614285D01*
X140057142Y-83642857D01*
X139514285Y-83471428D02*
X139114285Y-83471428D01*
X139371428Y-84071428D01*
%TO.C,C88*%
X117785714Y-62314285D02*
X117814285Y-62342857D01*
X117900000Y-62371428D01*
X117957142Y-62371428D01*
X118042857Y-62342857D01*
X118100000Y-62285714D01*
X118128571Y-62228571D01*
X118157142Y-62114285D01*
X118157142Y-62028571D01*
X118128571Y-61914285D01*
X118100000Y-61857142D01*
X118042857Y-61800000D01*
X117957142Y-61771428D01*
X117900000Y-61771428D01*
X117814285Y-61800000D01*
X117785714Y-61828571D01*
X117442857Y-62028571D02*
X117500000Y-62000000D01*
X117528571Y-61971428D01*
X117557142Y-61914285D01*
X117557142Y-61885714D01*
X117528571Y-61828571D01*
X117500000Y-61800000D01*
X117442857Y-61771428D01*
X117328571Y-61771428D01*
X117271428Y-61800000D01*
X117242857Y-61828571D01*
X117214285Y-61885714D01*
X117214285Y-61914285D01*
X117242857Y-61971428D01*
X117271428Y-62000000D01*
X117328571Y-62028571D01*
X117442857Y-62028571D01*
X117500000Y-62057142D01*
X117528571Y-62085714D01*
X117557142Y-62142857D01*
X117557142Y-62257142D01*
X117528571Y-62314285D01*
X117500000Y-62342857D01*
X117442857Y-62371428D01*
X117328571Y-62371428D01*
X117271428Y-62342857D01*
X117242857Y-62314285D01*
X117214285Y-62257142D01*
X117214285Y-62142857D01*
X117242857Y-62085714D01*
X117271428Y-62057142D01*
X117328571Y-62028571D01*
X116871428Y-62028571D02*
X116928571Y-62000000D01*
X116957142Y-61971428D01*
X116985714Y-61914285D01*
X116985714Y-61885714D01*
X116957142Y-61828571D01*
X116928571Y-61800000D01*
X116871428Y-61771428D01*
X116757142Y-61771428D01*
X116700000Y-61800000D01*
X116671428Y-61828571D01*
X116642857Y-61885714D01*
X116642857Y-61914285D01*
X116671428Y-61971428D01*
X116700000Y-62000000D01*
X116757142Y-62028571D01*
X116871428Y-62028571D01*
X116928571Y-62057142D01*
X116957142Y-62085714D01*
X116985714Y-62142857D01*
X116985714Y-62257142D01*
X116957142Y-62314285D01*
X116928571Y-62342857D01*
X116871428Y-62371428D01*
X116757142Y-62371428D01*
X116700000Y-62342857D01*
X116671428Y-62314285D01*
X116642857Y-62257142D01*
X116642857Y-62142857D01*
X116671428Y-62085714D01*
X116700000Y-62057142D01*
X116757142Y-62028571D01*
%TO.C,C87*%
X126014285Y-60014285D02*
X126042857Y-59985714D01*
X126071428Y-59900000D01*
X126071428Y-59842857D01*
X126042857Y-59757142D01*
X125985714Y-59700000D01*
X125928571Y-59671428D01*
X125814285Y-59642857D01*
X125728571Y-59642857D01*
X125614285Y-59671428D01*
X125557142Y-59700000D01*
X125500000Y-59757142D01*
X125471428Y-59842857D01*
X125471428Y-59900000D01*
X125500000Y-59985714D01*
X125528571Y-60014285D01*
X125728571Y-60357142D02*
X125700000Y-60300000D01*
X125671428Y-60271428D01*
X125614285Y-60242857D01*
X125585714Y-60242857D01*
X125528571Y-60271428D01*
X125500000Y-60300000D01*
X125471428Y-60357142D01*
X125471428Y-60471428D01*
X125500000Y-60528571D01*
X125528571Y-60557142D01*
X125585714Y-60585714D01*
X125614285Y-60585714D01*
X125671428Y-60557142D01*
X125700000Y-60528571D01*
X125728571Y-60471428D01*
X125728571Y-60357142D01*
X125757142Y-60300000D01*
X125785714Y-60271428D01*
X125842857Y-60242857D01*
X125957142Y-60242857D01*
X126014285Y-60271428D01*
X126042857Y-60300000D01*
X126071428Y-60357142D01*
X126071428Y-60471428D01*
X126042857Y-60528571D01*
X126014285Y-60557142D01*
X125957142Y-60585714D01*
X125842857Y-60585714D01*
X125785714Y-60557142D01*
X125757142Y-60528571D01*
X125728571Y-60471428D01*
X125471428Y-60785714D02*
X125471428Y-61185714D01*
X126071428Y-60928571D01*
%TO.C,C67*%
X124414285Y-60014285D02*
X124442857Y-59985714D01*
X124471428Y-59900000D01*
X124471428Y-59842857D01*
X124442857Y-59757142D01*
X124385714Y-59700000D01*
X124328571Y-59671428D01*
X124214285Y-59642857D01*
X124128571Y-59642857D01*
X124014285Y-59671428D01*
X123957142Y-59700000D01*
X123900000Y-59757142D01*
X123871428Y-59842857D01*
X123871428Y-59900000D01*
X123900000Y-59985714D01*
X123928571Y-60014285D01*
X123871428Y-60528571D02*
X123871428Y-60414285D01*
X123900000Y-60357142D01*
X123928571Y-60328571D01*
X124014285Y-60271428D01*
X124128571Y-60242857D01*
X124357142Y-60242857D01*
X124414285Y-60271428D01*
X124442857Y-60300000D01*
X124471428Y-60357142D01*
X124471428Y-60471428D01*
X124442857Y-60528571D01*
X124414285Y-60557142D01*
X124357142Y-60585714D01*
X124214285Y-60585714D01*
X124157142Y-60557142D01*
X124128571Y-60528571D01*
X124100000Y-60471428D01*
X124100000Y-60357142D01*
X124128571Y-60300000D01*
X124157142Y-60271428D01*
X124214285Y-60242857D01*
X123871428Y-60785714D02*
X123871428Y-61185714D01*
X124471428Y-60928571D01*
%TO.C,C22*%
X122985714Y-54114285D02*
X123014285Y-54142857D01*
X123100000Y-54171428D01*
X123157142Y-54171428D01*
X123242857Y-54142857D01*
X123300000Y-54085714D01*
X123328571Y-54028571D01*
X123357142Y-53914285D01*
X123357142Y-53828571D01*
X123328571Y-53714285D01*
X123300000Y-53657142D01*
X123242857Y-53600000D01*
X123157142Y-53571428D01*
X123100000Y-53571428D01*
X123014285Y-53600000D01*
X122985714Y-53628571D01*
X122757142Y-53628571D02*
X122728571Y-53600000D01*
X122671428Y-53571428D01*
X122528571Y-53571428D01*
X122471428Y-53600000D01*
X122442857Y-53628571D01*
X122414285Y-53685714D01*
X122414285Y-53742857D01*
X122442857Y-53828571D01*
X122785714Y-54171428D01*
X122414285Y-54171428D01*
X122185714Y-53628571D02*
X122157142Y-53600000D01*
X122100000Y-53571428D01*
X121957142Y-53571428D01*
X121900000Y-53600000D01*
X121871428Y-53628571D01*
X121842857Y-53685714D01*
X121842857Y-53742857D01*
X121871428Y-53828571D01*
X122214285Y-54171428D01*
X121842857Y-54171428D01*
%TO.C,R14*%
X135485714Y-59271428D02*
X135685714Y-58985714D01*
X135828571Y-59271428D02*
X135828571Y-58671428D01*
X135600000Y-58671428D01*
X135542857Y-58700000D01*
X135514285Y-58728571D01*
X135485714Y-58785714D01*
X135485714Y-58871428D01*
X135514285Y-58928571D01*
X135542857Y-58957142D01*
X135600000Y-58985714D01*
X135828571Y-58985714D01*
X134914285Y-59271428D02*
X135257142Y-59271428D01*
X135085714Y-59271428D02*
X135085714Y-58671428D01*
X135142857Y-58757142D01*
X135200000Y-58814285D01*
X135257142Y-58842857D01*
X134400000Y-58871428D02*
X134400000Y-59271428D01*
X134542857Y-58642857D02*
X134685714Y-59071428D01*
X134314285Y-59071428D01*
%TO.C,C34*%
X133785714Y-69214285D02*
X133814285Y-69242857D01*
X133900000Y-69271428D01*
X133957142Y-69271428D01*
X134042857Y-69242857D01*
X134100000Y-69185714D01*
X134128571Y-69128571D01*
X134157142Y-69014285D01*
X134157142Y-68928571D01*
X134128571Y-68814285D01*
X134100000Y-68757142D01*
X134042857Y-68700000D01*
X133957142Y-68671428D01*
X133900000Y-68671428D01*
X133814285Y-68700000D01*
X133785714Y-68728571D01*
X133585714Y-68671428D02*
X133214285Y-68671428D01*
X133414285Y-68900000D01*
X133328571Y-68900000D01*
X133271428Y-68928571D01*
X133242857Y-68957142D01*
X133214285Y-69014285D01*
X133214285Y-69157142D01*
X133242857Y-69214285D01*
X133271428Y-69242857D01*
X133328571Y-69271428D01*
X133500000Y-69271428D01*
X133557142Y-69242857D01*
X133585714Y-69214285D01*
X132700000Y-68871428D02*
X132700000Y-69271428D01*
X132842857Y-68642857D02*
X132985714Y-69071428D01*
X132614285Y-69071428D01*
%TO.C,C33*%
X127585714Y-68814285D02*
X127614285Y-68842857D01*
X127700000Y-68871428D01*
X127757142Y-68871428D01*
X127842857Y-68842857D01*
X127900000Y-68785714D01*
X127928571Y-68728571D01*
X127957142Y-68614285D01*
X127957142Y-68528571D01*
X127928571Y-68414285D01*
X127900000Y-68357142D01*
X127842857Y-68300000D01*
X127757142Y-68271428D01*
X127700000Y-68271428D01*
X127614285Y-68300000D01*
X127585714Y-68328571D01*
X127385714Y-68271428D02*
X127014285Y-68271428D01*
X127214285Y-68500000D01*
X127128571Y-68500000D01*
X127071428Y-68528571D01*
X127042857Y-68557142D01*
X127014285Y-68614285D01*
X127014285Y-68757142D01*
X127042857Y-68814285D01*
X127071428Y-68842857D01*
X127128571Y-68871428D01*
X127300000Y-68871428D01*
X127357142Y-68842857D01*
X127385714Y-68814285D01*
X126814285Y-68271428D02*
X126442857Y-68271428D01*
X126642857Y-68500000D01*
X126557142Y-68500000D01*
X126500000Y-68528571D01*
X126471428Y-68557142D01*
X126442857Y-68614285D01*
X126442857Y-68757142D01*
X126471428Y-68814285D01*
X126500000Y-68842857D01*
X126557142Y-68871428D01*
X126728571Y-68871428D01*
X126785714Y-68842857D01*
X126814285Y-68814285D01*
%TO.C,R67*%
X114285714Y-58471428D02*
X114485714Y-58185714D01*
X114628571Y-58471428D02*
X114628571Y-57871428D01*
X114400000Y-57871428D01*
X114342857Y-57900000D01*
X114314285Y-57928571D01*
X114285714Y-57985714D01*
X114285714Y-58071428D01*
X114314285Y-58128571D01*
X114342857Y-58157142D01*
X114400000Y-58185714D01*
X114628571Y-58185714D01*
X113771428Y-57871428D02*
X113885714Y-57871428D01*
X113942857Y-57900000D01*
X113971428Y-57928571D01*
X114028571Y-58014285D01*
X114057142Y-58128571D01*
X114057142Y-58357142D01*
X114028571Y-58414285D01*
X114000000Y-58442857D01*
X113942857Y-58471428D01*
X113828571Y-58471428D01*
X113771428Y-58442857D01*
X113742857Y-58414285D01*
X113714285Y-58357142D01*
X113714285Y-58214285D01*
X113742857Y-58157142D01*
X113771428Y-58128571D01*
X113828571Y-58100000D01*
X113942857Y-58100000D01*
X114000000Y-58128571D01*
X114028571Y-58157142D01*
X114057142Y-58214285D01*
X113514285Y-57871428D02*
X113114285Y-57871428D01*
X113371428Y-58471428D01*
%TO.C,U4*%
X139057142Y-56271428D02*
X139057142Y-56757142D01*
X139028571Y-56814285D01*
X139000000Y-56842857D01*
X138942857Y-56871428D01*
X138828571Y-56871428D01*
X138771428Y-56842857D01*
X138742857Y-56814285D01*
X138714285Y-56757142D01*
X138714285Y-56271428D01*
X138171428Y-56471428D02*
X138171428Y-56871428D01*
X138314285Y-56242857D02*
X138457142Y-56671428D01*
X138085714Y-56671428D01*
%TO.C,R15*%
X135485714Y-57871428D02*
X135685714Y-57585714D01*
X135828571Y-57871428D02*
X135828571Y-57271428D01*
X135600000Y-57271428D01*
X135542857Y-57300000D01*
X135514285Y-57328571D01*
X135485714Y-57385714D01*
X135485714Y-57471428D01*
X135514285Y-57528571D01*
X135542857Y-57557142D01*
X135600000Y-57585714D01*
X135828571Y-57585714D01*
X134914285Y-57871428D02*
X135257142Y-57871428D01*
X135085714Y-57871428D02*
X135085714Y-57271428D01*
X135142857Y-57357142D01*
X135200000Y-57414285D01*
X135257142Y-57442857D01*
X134371428Y-57271428D02*
X134657142Y-57271428D01*
X134685714Y-57557142D01*
X134657142Y-57528571D01*
X134600000Y-57500000D01*
X134457142Y-57500000D01*
X134400000Y-57528571D01*
X134371428Y-57557142D01*
X134342857Y-57614285D01*
X134342857Y-57757142D01*
X134371428Y-57814285D01*
X134400000Y-57842857D01*
X134457142Y-57871428D01*
X134600000Y-57871428D01*
X134657142Y-57842857D01*
X134685714Y-57814285D01*
%TO.C,R5*%
X142200000Y-66271428D02*
X142400000Y-65985714D01*
X142542857Y-66271428D02*
X142542857Y-65671428D01*
X142314285Y-65671428D01*
X142257142Y-65700000D01*
X142228571Y-65728571D01*
X142200000Y-65785714D01*
X142200000Y-65871428D01*
X142228571Y-65928571D01*
X142257142Y-65957142D01*
X142314285Y-65985714D01*
X142542857Y-65985714D01*
X141657142Y-65671428D02*
X141942857Y-65671428D01*
X141971428Y-65957142D01*
X141942857Y-65928571D01*
X141885714Y-65900000D01*
X141742857Y-65900000D01*
X141685714Y-65928571D01*
X141657142Y-65957142D01*
X141628571Y-66014285D01*
X141628571Y-66157142D01*
X141657142Y-66214285D01*
X141685714Y-66242857D01*
X141742857Y-66271428D01*
X141885714Y-66271428D01*
X141942857Y-66242857D01*
X141971428Y-66214285D01*
%TO.C,J1*%
X147200000Y-65671428D02*
X147200000Y-66100000D01*
X147228571Y-66185714D01*
X147285714Y-66242857D01*
X147371428Y-66271428D01*
X147428571Y-66271428D01*
X146600000Y-66271428D02*
X146942857Y-66271428D01*
X146771428Y-66271428D02*
X146771428Y-65671428D01*
X146828571Y-65757142D01*
X146885714Y-65814285D01*
X146942857Y-65842857D01*
%TO.C,J14*%
X111485714Y-52671428D02*
X111485714Y-53100000D01*
X111514285Y-53185714D01*
X111571428Y-53242857D01*
X111657142Y-53271428D01*
X111714285Y-53271428D01*
X110885714Y-53271428D02*
X111228571Y-53271428D01*
X111057142Y-53271428D02*
X111057142Y-52671428D01*
X111114285Y-52757142D01*
X111171428Y-52814285D01*
X111228571Y-52842857D01*
X110371428Y-52871428D02*
X110371428Y-53271428D01*
X110514285Y-52642857D02*
X110657142Y-53071428D01*
X110285714Y-53071428D01*
%TO.C,J2*%
X138500000Y-96921428D02*
X138500000Y-97350000D01*
X138528571Y-97435714D01*
X138585714Y-97492857D01*
X138671428Y-97521428D01*
X138728571Y-97521428D01*
X138242857Y-96978571D02*
X138214285Y-96950000D01*
X138157142Y-96921428D01*
X138014285Y-96921428D01*
X137957142Y-96950000D01*
X137928571Y-96978571D01*
X137900000Y-97035714D01*
X137900000Y-97092857D01*
X137928571Y-97178571D01*
X138271428Y-97521428D01*
X137900000Y-97521428D01*
%TO.C,J3*%
X111900000Y-96921428D02*
X111900000Y-97350000D01*
X111928571Y-97435714D01*
X111985714Y-97492857D01*
X112071428Y-97521428D01*
X112128571Y-97521428D01*
X111671428Y-96921428D02*
X111300000Y-96921428D01*
X111500000Y-97150000D01*
X111414285Y-97150000D01*
X111357142Y-97178571D01*
X111328571Y-97207142D01*
X111300000Y-97264285D01*
X111300000Y-97407142D01*
X111328571Y-97464285D01*
X111357142Y-97492857D01*
X111414285Y-97521428D01*
X111585714Y-97521428D01*
X111642857Y-97492857D01*
X111671428Y-97464285D01*
%TO.C,J4*%
X148650000Y-57421428D02*
X148650000Y-57850000D01*
X148678571Y-57935714D01*
X148735714Y-57992857D01*
X148821428Y-58021428D01*
X148878571Y-58021428D01*
X148107142Y-57621428D02*
X148107142Y-58021428D01*
X148250000Y-57392857D02*
X148392857Y-57821428D01*
X148021428Y-57821428D01*
%TO.C,C46*%
X129585714Y-68814285D02*
X129614285Y-68842857D01*
X129700000Y-68871428D01*
X129757142Y-68871428D01*
X129842857Y-68842857D01*
X129900000Y-68785714D01*
X129928571Y-68728571D01*
X129957142Y-68614285D01*
X129957142Y-68528571D01*
X129928571Y-68414285D01*
X129900000Y-68357142D01*
X129842857Y-68300000D01*
X129757142Y-68271428D01*
X129700000Y-68271428D01*
X129614285Y-68300000D01*
X129585714Y-68328571D01*
X129071428Y-68471428D02*
X129071428Y-68871428D01*
X129214285Y-68242857D02*
X129357142Y-68671428D01*
X128985714Y-68671428D01*
X128500000Y-68271428D02*
X128614285Y-68271428D01*
X128671428Y-68300000D01*
X128700000Y-68328571D01*
X128757142Y-68414285D01*
X128785714Y-68528571D01*
X128785714Y-68757142D01*
X128757142Y-68814285D01*
X128728571Y-68842857D01*
X128671428Y-68871428D01*
X128557142Y-68871428D01*
X128500000Y-68842857D01*
X128471428Y-68814285D01*
X128442857Y-68757142D01*
X128442857Y-68614285D01*
X128471428Y-68557142D01*
X128500000Y-68528571D01*
X128557142Y-68500000D01*
X128671428Y-68500000D01*
X128728571Y-68528571D01*
X128757142Y-68557142D01*
X128785714Y-68614285D01*
%TO.C,R7*%
X127771428Y-75300000D02*
X127485714Y-75100000D01*
X127771428Y-74957142D02*
X127171428Y-74957142D01*
X127171428Y-75185714D01*
X127200000Y-75242857D01*
X127228571Y-75271428D01*
X127285714Y-75300000D01*
X127371428Y-75300000D01*
X127428571Y-75271428D01*
X127457142Y-75242857D01*
X127485714Y-75185714D01*
X127485714Y-74957142D01*
X127171428Y-75500000D02*
X127171428Y-75900000D01*
X127771428Y-75642857D01*
%TO.C,C19*%
X131885714Y-68414285D02*
X131914285Y-68442857D01*
X132000000Y-68471428D01*
X132057142Y-68471428D01*
X132142857Y-68442857D01*
X132200000Y-68385714D01*
X132228571Y-68328571D01*
X132257142Y-68214285D01*
X132257142Y-68128571D01*
X132228571Y-68014285D01*
X132200000Y-67957142D01*
X132142857Y-67900000D01*
X132057142Y-67871428D01*
X132000000Y-67871428D01*
X131914285Y-67900000D01*
X131885714Y-67928571D01*
X131314285Y-68471428D02*
X131657142Y-68471428D01*
X131485714Y-68471428D02*
X131485714Y-67871428D01*
X131542857Y-67957142D01*
X131600000Y-68014285D01*
X131657142Y-68042857D01*
X131028571Y-68471428D02*
X130914285Y-68471428D01*
X130857142Y-68442857D01*
X130828571Y-68414285D01*
X130771428Y-68328571D01*
X130742857Y-68214285D01*
X130742857Y-67985714D01*
X130771428Y-67928571D01*
X130800000Y-67900000D01*
X130857142Y-67871428D01*
X130971428Y-67871428D01*
X131028571Y-67900000D01*
X131057142Y-67928571D01*
X131085714Y-67985714D01*
X131085714Y-68128571D01*
X131057142Y-68185714D01*
X131028571Y-68214285D01*
X130971428Y-68242857D01*
X130857142Y-68242857D01*
X130800000Y-68214285D01*
X130771428Y-68185714D01*
X130742857Y-68128571D01*
%TO.C,C71*%
X133685714Y-66714285D02*
X133714285Y-66742857D01*
X133800000Y-66771428D01*
X133857142Y-66771428D01*
X133942857Y-66742857D01*
X134000000Y-66685714D01*
X134028571Y-66628571D01*
X134057142Y-66514285D01*
X134057142Y-66428571D01*
X134028571Y-66314285D01*
X134000000Y-66257142D01*
X133942857Y-66200000D01*
X133857142Y-66171428D01*
X133800000Y-66171428D01*
X133714285Y-66200000D01*
X133685714Y-66228571D01*
X133485714Y-66171428D02*
X133085714Y-66171428D01*
X133342857Y-66771428D01*
X132542857Y-66771428D02*
X132885714Y-66771428D01*
X132714285Y-66771428D02*
X132714285Y-66171428D01*
X132771428Y-66257142D01*
X132828571Y-66314285D01*
X132885714Y-66342857D01*
%TO.C,R55*%
X126085714Y-65371428D02*
X126285714Y-65085714D01*
X126428571Y-65371428D02*
X126428571Y-64771428D01*
X126200000Y-64771428D01*
X126142857Y-64800000D01*
X126114285Y-64828571D01*
X126085714Y-64885714D01*
X126085714Y-64971428D01*
X126114285Y-65028571D01*
X126142857Y-65057142D01*
X126200000Y-65085714D01*
X126428571Y-65085714D01*
X125542857Y-64771428D02*
X125828571Y-64771428D01*
X125857142Y-65057142D01*
X125828571Y-65028571D01*
X125771428Y-65000000D01*
X125628571Y-65000000D01*
X125571428Y-65028571D01*
X125542857Y-65057142D01*
X125514285Y-65114285D01*
X125514285Y-65257142D01*
X125542857Y-65314285D01*
X125571428Y-65342857D01*
X125628571Y-65371428D01*
X125771428Y-65371428D01*
X125828571Y-65342857D01*
X125857142Y-65314285D01*
X124971428Y-64771428D02*
X125257142Y-64771428D01*
X125285714Y-65057142D01*
X125257142Y-65028571D01*
X125200000Y-65000000D01*
X125057142Y-65000000D01*
X125000000Y-65028571D01*
X124971428Y-65057142D01*
X124942857Y-65114285D01*
X124942857Y-65257142D01*
X124971428Y-65314285D01*
X125000000Y-65342857D01*
X125057142Y-65371428D01*
X125200000Y-65371428D01*
X125257142Y-65342857D01*
X125285714Y-65314285D01*
%TO.C,C48*%
X131685714Y-71614285D02*
X131714285Y-71642857D01*
X131800000Y-71671428D01*
X131857142Y-71671428D01*
X131942857Y-71642857D01*
X132000000Y-71585714D01*
X132028571Y-71528571D01*
X132057142Y-71414285D01*
X132057142Y-71328571D01*
X132028571Y-71214285D01*
X132000000Y-71157142D01*
X131942857Y-71100000D01*
X131857142Y-71071428D01*
X131800000Y-71071428D01*
X131714285Y-71100000D01*
X131685714Y-71128571D01*
X131171428Y-71271428D02*
X131171428Y-71671428D01*
X131314285Y-71042857D02*
X131457142Y-71471428D01*
X131085714Y-71471428D01*
X130771428Y-71328571D02*
X130828571Y-71300000D01*
X130857142Y-71271428D01*
X130885714Y-71214285D01*
X130885714Y-71185714D01*
X130857142Y-71128571D01*
X130828571Y-71100000D01*
X130771428Y-71071428D01*
X130657142Y-71071428D01*
X130600000Y-71100000D01*
X130571428Y-71128571D01*
X130542857Y-71185714D01*
X130542857Y-71214285D01*
X130571428Y-71271428D01*
X130600000Y-71300000D01*
X130657142Y-71328571D01*
X130771428Y-71328571D01*
X130828571Y-71357142D01*
X130857142Y-71385714D01*
X130885714Y-71442857D01*
X130885714Y-71557142D01*
X130857142Y-71614285D01*
X130828571Y-71642857D01*
X130771428Y-71671428D01*
X130657142Y-71671428D01*
X130600000Y-71642857D01*
X130571428Y-71614285D01*
X130542857Y-71557142D01*
X130542857Y-71442857D01*
X130571428Y-71385714D01*
X130600000Y-71357142D01*
X130657142Y-71328571D01*
%TO.C,C55*%
X122985714Y-54914285D02*
X123014285Y-54942857D01*
X123100000Y-54971428D01*
X123157142Y-54971428D01*
X123242857Y-54942857D01*
X123300000Y-54885714D01*
X123328571Y-54828571D01*
X123357142Y-54714285D01*
X123357142Y-54628571D01*
X123328571Y-54514285D01*
X123300000Y-54457142D01*
X123242857Y-54400000D01*
X123157142Y-54371428D01*
X123100000Y-54371428D01*
X123014285Y-54400000D01*
X122985714Y-54428571D01*
X122442857Y-54371428D02*
X122728571Y-54371428D01*
X122757142Y-54657142D01*
X122728571Y-54628571D01*
X122671428Y-54600000D01*
X122528571Y-54600000D01*
X122471428Y-54628571D01*
X122442857Y-54657142D01*
X122414285Y-54714285D01*
X122414285Y-54857142D01*
X122442857Y-54914285D01*
X122471428Y-54942857D01*
X122528571Y-54971428D01*
X122671428Y-54971428D01*
X122728571Y-54942857D01*
X122757142Y-54914285D01*
X121871428Y-54371428D02*
X122157142Y-54371428D01*
X122185714Y-54657142D01*
X122157142Y-54628571D01*
X122100000Y-54600000D01*
X121957142Y-54600000D01*
X121900000Y-54628571D01*
X121871428Y-54657142D01*
X121842857Y-54714285D01*
X121842857Y-54857142D01*
X121871428Y-54914285D01*
X121900000Y-54942857D01*
X121957142Y-54971428D01*
X122100000Y-54971428D01*
X122157142Y-54942857D01*
X122185714Y-54914285D01*
%TO.C,R25*%
X148471428Y-95414285D02*
X148185714Y-95214285D01*
X148471428Y-95071428D02*
X147871428Y-95071428D01*
X147871428Y-95300000D01*
X147900000Y-95357142D01*
X147928571Y-95385714D01*
X147985714Y-95414285D01*
X148071428Y-95414285D01*
X148128571Y-95385714D01*
X148157142Y-95357142D01*
X148185714Y-95300000D01*
X148185714Y-95071428D01*
X147928571Y-95642857D02*
X147900000Y-95671428D01*
X147871428Y-95728571D01*
X147871428Y-95871428D01*
X147900000Y-95928571D01*
X147928571Y-95957142D01*
X147985714Y-95985714D01*
X148042857Y-95985714D01*
X148128571Y-95957142D01*
X148471428Y-95614285D01*
X148471428Y-95985714D01*
X147871428Y-96528571D02*
X147871428Y-96242857D01*
X148157142Y-96214285D01*
X148128571Y-96242857D01*
X148100000Y-96300000D01*
X148100000Y-96442857D01*
X148128571Y-96500000D01*
X148157142Y-96528571D01*
X148214285Y-96557142D01*
X148357142Y-96557142D01*
X148414285Y-96528571D01*
X148442857Y-96500000D01*
X148471428Y-96442857D01*
X148471428Y-96300000D01*
X148442857Y-96242857D01*
X148414285Y-96214285D01*
%TO.C,R8*%
X126771428Y-75600000D02*
X126485714Y-75400000D01*
X126771428Y-75257142D02*
X126171428Y-75257142D01*
X126171428Y-75485714D01*
X126200000Y-75542857D01*
X126228571Y-75571428D01*
X126285714Y-75600000D01*
X126371428Y-75600000D01*
X126428571Y-75571428D01*
X126457142Y-75542857D01*
X126485714Y-75485714D01*
X126485714Y-75257142D01*
X126428571Y-75942857D02*
X126400000Y-75885714D01*
X126371428Y-75857142D01*
X126314285Y-75828571D01*
X126285714Y-75828571D01*
X126228571Y-75857142D01*
X126200000Y-75885714D01*
X126171428Y-75942857D01*
X126171428Y-76057142D01*
X126200000Y-76114285D01*
X126228571Y-76142857D01*
X126285714Y-76171428D01*
X126314285Y-76171428D01*
X126371428Y-76142857D01*
X126400000Y-76114285D01*
X126428571Y-76057142D01*
X126428571Y-75942857D01*
X126457142Y-75885714D01*
X126485714Y-75857142D01*
X126542857Y-75828571D01*
X126657142Y-75828571D01*
X126714285Y-75857142D01*
X126742857Y-75885714D01*
X126771428Y-75942857D01*
X126771428Y-76057142D01*
X126742857Y-76114285D01*
X126714285Y-76142857D01*
X126657142Y-76171428D01*
X126542857Y-76171428D01*
X126485714Y-76142857D01*
X126457142Y-76114285D01*
X126428571Y-76057142D01*
%TO.C,C20*%
X123285714Y-51914285D02*
X123314285Y-51942857D01*
X123400000Y-51971428D01*
X123457142Y-51971428D01*
X123542857Y-51942857D01*
X123600000Y-51885714D01*
X123628571Y-51828571D01*
X123657142Y-51714285D01*
X123657142Y-51628571D01*
X123628571Y-51514285D01*
X123600000Y-51457142D01*
X123542857Y-51400000D01*
X123457142Y-51371428D01*
X123400000Y-51371428D01*
X123314285Y-51400000D01*
X123285714Y-51428571D01*
X123057142Y-51428571D02*
X123028571Y-51400000D01*
X122971428Y-51371428D01*
X122828571Y-51371428D01*
X122771428Y-51400000D01*
X122742857Y-51428571D01*
X122714285Y-51485714D01*
X122714285Y-51542857D01*
X122742857Y-51628571D01*
X123085714Y-51971428D01*
X122714285Y-51971428D01*
X122342857Y-51371428D02*
X122285714Y-51371428D01*
X122228571Y-51400000D01*
X122200000Y-51428571D01*
X122171428Y-51485714D01*
X122142857Y-51600000D01*
X122142857Y-51742857D01*
X122171428Y-51857142D01*
X122200000Y-51914285D01*
X122228571Y-51942857D01*
X122285714Y-51971428D01*
X122342857Y-51971428D01*
X122400000Y-51942857D01*
X122428571Y-51914285D01*
X122457142Y-51857142D01*
X122485714Y-51742857D01*
X122485714Y-51600000D01*
X122457142Y-51485714D01*
X122428571Y-51428571D01*
X122400000Y-51400000D01*
X122342857Y-51371428D01*
%TO.C,C101*%
X118571428Y-70414285D02*
X118600000Y-70442857D01*
X118685714Y-70471428D01*
X118742857Y-70471428D01*
X118828571Y-70442857D01*
X118885714Y-70385714D01*
X118914285Y-70328571D01*
X118942857Y-70214285D01*
X118942857Y-70128571D01*
X118914285Y-70014285D01*
X118885714Y-69957142D01*
X118828571Y-69900000D01*
X118742857Y-69871428D01*
X118685714Y-69871428D01*
X118600000Y-69900000D01*
X118571428Y-69928571D01*
X118000000Y-70471428D02*
X118342857Y-70471428D01*
X118171428Y-70471428D02*
X118171428Y-69871428D01*
X118228571Y-69957142D01*
X118285714Y-70014285D01*
X118342857Y-70042857D01*
X117628571Y-69871428D02*
X117571428Y-69871428D01*
X117514285Y-69900000D01*
X117485714Y-69928571D01*
X117457142Y-69985714D01*
X117428571Y-70100000D01*
X117428571Y-70242857D01*
X117457142Y-70357142D01*
X117485714Y-70414285D01*
X117514285Y-70442857D01*
X117571428Y-70471428D01*
X117628571Y-70471428D01*
X117685714Y-70442857D01*
X117714285Y-70414285D01*
X117742857Y-70357142D01*
X117771428Y-70242857D01*
X117771428Y-70100000D01*
X117742857Y-69985714D01*
X117714285Y-69928571D01*
X117685714Y-69900000D01*
X117628571Y-69871428D01*
X116857142Y-70471428D02*
X117200000Y-70471428D01*
X117028571Y-70471428D02*
X117028571Y-69871428D01*
X117085714Y-69957142D01*
X117142857Y-70014285D01*
X117200000Y-70042857D01*
%TO.C,D5*%
X149571428Y-92457142D02*
X148971428Y-92457142D01*
X148971428Y-92600000D01*
X149000000Y-92685714D01*
X149057142Y-92742857D01*
X149114285Y-92771428D01*
X149228571Y-92800000D01*
X149314285Y-92800000D01*
X149428571Y-92771428D01*
X149485714Y-92742857D01*
X149542857Y-92685714D01*
X149571428Y-92600000D01*
X149571428Y-92457142D01*
X148971428Y-93342857D02*
X148971428Y-93057142D01*
X149257142Y-93028571D01*
X149228571Y-93057142D01*
X149200000Y-93114285D01*
X149200000Y-93257142D01*
X149228571Y-93314285D01*
X149257142Y-93342857D01*
X149314285Y-93371428D01*
X149457142Y-93371428D01*
X149514285Y-93342857D01*
X149542857Y-93314285D01*
X149571428Y-93257142D01*
X149571428Y-93114285D01*
X149542857Y-93057142D01*
X149514285Y-93028571D01*
%TO.C,D7*%
X141642857Y-63371428D02*
X141642857Y-62771428D01*
X141500000Y-62771428D01*
X141414285Y-62800000D01*
X141357142Y-62857142D01*
X141328571Y-62914285D01*
X141300000Y-63028571D01*
X141300000Y-63114285D01*
X141328571Y-63228571D01*
X141357142Y-63285714D01*
X141414285Y-63342857D01*
X141500000Y-63371428D01*
X141642857Y-63371428D01*
X141100000Y-62771428D02*
X140700000Y-62771428D01*
X140957142Y-63371428D01*
%TO.C,D8*%
X141642857Y-69271428D02*
X141642857Y-68671428D01*
X141500000Y-68671428D01*
X141414285Y-68700000D01*
X141357142Y-68757142D01*
X141328571Y-68814285D01*
X141300000Y-68928571D01*
X141300000Y-69014285D01*
X141328571Y-69128571D01*
X141357142Y-69185714D01*
X141414285Y-69242857D01*
X141500000Y-69271428D01*
X141642857Y-69271428D01*
X140957142Y-68928571D02*
X141014285Y-68900000D01*
X141042857Y-68871428D01*
X141071428Y-68814285D01*
X141071428Y-68785714D01*
X141042857Y-68728571D01*
X141014285Y-68700000D01*
X140957142Y-68671428D01*
X140842857Y-68671428D01*
X140785714Y-68700000D01*
X140757142Y-68728571D01*
X140728571Y-68785714D01*
X140728571Y-68814285D01*
X140757142Y-68871428D01*
X140785714Y-68900000D01*
X140842857Y-68928571D01*
X140957142Y-68928571D01*
X141014285Y-68957142D01*
X141042857Y-68985714D01*
X141071428Y-69042857D01*
X141071428Y-69157142D01*
X141042857Y-69214285D01*
X141014285Y-69242857D01*
X140957142Y-69271428D01*
X140842857Y-69271428D01*
X140785714Y-69242857D01*
X140757142Y-69214285D01*
X140728571Y-69157142D01*
X140728571Y-69042857D01*
X140757142Y-68985714D01*
X140785714Y-68957142D01*
X140842857Y-68928571D01*
%TO.C,R56*%
X122771428Y-60514285D02*
X122485714Y-60314285D01*
X122771428Y-60171428D02*
X122171428Y-60171428D01*
X122171428Y-60400000D01*
X122200000Y-60457142D01*
X122228571Y-60485714D01*
X122285714Y-60514285D01*
X122371428Y-60514285D01*
X122428571Y-60485714D01*
X122457142Y-60457142D01*
X122485714Y-60400000D01*
X122485714Y-60171428D01*
X122171428Y-61057142D02*
X122171428Y-60771428D01*
X122457142Y-60742857D01*
X122428571Y-60771428D01*
X122400000Y-60828571D01*
X122400000Y-60971428D01*
X122428571Y-61028571D01*
X122457142Y-61057142D01*
X122514285Y-61085714D01*
X122657142Y-61085714D01*
X122714285Y-61057142D01*
X122742857Y-61028571D01*
X122771428Y-60971428D01*
X122771428Y-60828571D01*
X122742857Y-60771428D01*
X122714285Y-60742857D01*
X122171428Y-61600000D02*
X122171428Y-61485714D01*
X122200000Y-61428571D01*
X122228571Y-61400000D01*
X122314285Y-61342857D01*
X122428571Y-61314285D01*
X122657142Y-61314285D01*
X122714285Y-61342857D01*
X122742857Y-61371428D01*
X122771428Y-61428571D01*
X122771428Y-61542857D01*
X122742857Y-61600000D01*
X122714285Y-61628571D01*
X122657142Y-61657142D01*
X122514285Y-61657142D01*
X122457142Y-61628571D01*
X122428571Y-61600000D01*
X122400000Y-61542857D01*
X122400000Y-61428571D01*
X122428571Y-61371428D01*
X122457142Y-61342857D01*
X122514285Y-61314285D01*
%TO.C,C35*%
X129485714Y-71614285D02*
X129514285Y-71642857D01*
X129600000Y-71671428D01*
X129657142Y-71671428D01*
X129742857Y-71642857D01*
X129800000Y-71585714D01*
X129828571Y-71528571D01*
X129857142Y-71414285D01*
X129857142Y-71328571D01*
X129828571Y-71214285D01*
X129800000Y-71157142D01*
X129742857Y-71100000D01*
X129657142Y-71071428D01*
X129600000Y-71071428D01*
X129514285Y-71100000D01*
X129485714Y-71128571D01*
X129285714Y-71071428D02*
X128914285Y-71071428D01*
X129114285Y-71300000D01*
X129028571Y-71300000D01*
X128971428Y-71328571D01*
X128942857Y-71357142D01*
X128914285Y-71414285D01*
X128914285Y-71557142D01*
X128942857Y-71614285D01*
X128971428Y-71642857D01*
X129028571Y-71671428D01*
X129200000Y-71671428D01*
X129257142Y-71642857D01*
X129285714Y-71614285D01*
X128371428Y-71071428D02*
X128657142Y-71071428D01*
X128685714Y-71357142D01*
X128657142Y-71328571D01*
X128600000Y-71300000D01*
X128457142Y-71300000D01*
X128400000Y-71328571D01*
X128371428Y-71357142D01*
X128342857Y-71414285D01*
X128342857Y-71557142D01*
X128371428Y-71614285D01*
X128400000Y-71642857D01*
X128457142Y-71671428D01*
X128600000Y-71671428D01*
X128657142Y-71642857D01*
X128685714Y-71614285D01*
%TO.C,R28*%
X132885714Y-61271428D02*
X133085714Y-60985714D01*
X133228571Y-61271428D02*
X133228571Y-60671428D01*
X133000000Y-60671428D01*
X132942857Y-60700000D01*
X132914285Y-60728571D01*
X132885714Y-60785714D01*
X132885714Y-60871428D01*
X132914285Y-60928571D01*
X132942857Y-60957142D01*
X133000000Y-60985714D01*
X133228571Y-60985714D01*
X132657142Y-60728571D02*
X132628571Y-60700000D01*
X132571428Y-60671428D01*
X132428571Y-60671428D01*
X132371428Y-60700000D01*
X132342857Y-60728571D01*
X132314285Y-60785714D01*
X132314285Y-60842857D01*
X132342857Y-60928571D01*
X132685714Y-61271428D01*
X132314285Y-61271428D01*
X131971428Y-60928571D02*
X132028571Y-60900000D01*
X132057142Y-60871428D01*
X132085714Y-60814285D01*
X132085714Y-60785714D01*
X132057142Y-60728571D01*
X132028571Y-60700000D01*
X131971428Y-60671428D01*
X131857142Y-60671428D01*
X131800000Y-60700000D01*
X131771428Y-60728571D01*
X131742857Y-60785714D01*
X131742857Y-60814285D01*
X131771428Y-60871428D01*
X131800000Y-60900000D01*
X131857142Y-60928571D01*
X131971428Y-60928571D01*
X132028571Y-60957142D01*
X132057142Y-60985714D01*
X132085714Y-61042857D01*
X132085714Y-61157142D01*
X132057142Y-61214285D01*
X132028571Y-61242857D01*
X131971428Y-61271428D01*
X131857142Y-61271428D01*
X131800000Y-61242857D01*
X131771428Y-61214285D01*
X131742857Y-61157142D01*
X131742857Y-61042857D01*
X131771428Y-60985714D01*
X131800000Y-60957142D01*
X131857142Y-60928571D01*
%TO.C,C90*%
X118185714Y-55514285D02*
X118214285Y-55542857D01*
X118300000Y-55571428D01*
X118357142Y-55571428D01*
X118442857Y-55542857D01*
X118500000Y-55485714D01*
X118528571Y-55428571D01*
X118557142Y-55314285D01*
X118557142Y-55228571D01*
X118528571Y-55114285D01*
X118500000Y-55057142D01*
X118442857Y-55000000D01*
X118357142Y-54971428D01*
X118300000Y-54971428D01*
X118214285Y-55000000D01*
X118185714Y-55028571D01*
X117900000Y-55571428D02*
X117785714Y-55571428D01*
X117728571Y-55542857D01*
X117700000Y-55514285D01*
X117642857Y-55428571D01*
X117614285Y-55314285D01*
X117614285Y-55085714D01*
X117642857Y-55028571D01*
X117671428Y-55000000D01*
X117728571Y-54971428D01*
X117842857Y-54971428D01*
X117900000Y-55000000D01*
X117928571Y-55028571D01*
X117957142Y-55085714D01*
X117957142Y-55228571D01*
X117928571Y-55285714D01*
X117900000Y-55314285D01*
X117842857Y-55342857D01*
X117728571Y-55342857D01*
X117671428Y-55314285D01*
X117642857Y-55285714D01*
X117614285Y-55228571D01*
X117242857Y-54971428D02*
X117185714Y-54971428D01*
X117128571Y-55000000D01*
X117100000Y-55028571D01*
X117071428Y-55085714D01*
X117042857Y-55200000D01*
X117042857Y-55342857D01*
X117071428Y-55457142D01*
X117100000Y-55514285D01*
X117128571Y-55542857D01*
X117185714Y-55571428D01*
X117242857Y-55571428D01*
X117300000Y-55542857D01*
X117328571Y-55514285D01*
X117357142Y-55457142D01*
X117385714Y-55342857D01*
X117385714Y-55200000D01*
X117357142Y-55085714D01*
X117328571Y-55028571D01*
X117300000Y-55000000D01*
X117242857Y-54971428D01*
%TO.C,X1*%
X125985714Y-51671428D02*
X125585714Y-52271428D01*
X125585714Y-51671428D02*
X125985714Y-52271428D01*
X125042857Y-52271428D02*
X125385714Y-52271428D01*
X125214285Y-52271428D02*
X125214285Y-51671428D01*
X125271428Y-51757142D01*
X125328571Y-51814285D01*
X125385714Y-51842857D01*
%TO.C,C84*%
X127485714Y-64314285D02*
X127514285Y-64342857D01*
X127600000Y-64371428D01*
X127657142Y-64371428D01*
X127742857Y-64342857D01*
X127800000Y-64285714D01*
X127828571Y-64228571D01*
X127857142Y-64114285D01*
X127857142Y-64028571D01*
X127828571Y-63914285D01*
X127800000Y-63857142D01*
X127742857Y-63800000D01*
X127657142Y-63771428D01*
X127600000Y-63771428D01*
X127514285Y-63800000D01*
X127485714Y-63828571D01*
X127142857Y-64028571D02*
X127200000Y-64000000D01*
X127228571Y-63971428D01*
X127257142Y-63914285D01*
X127257142Y-63885714D01*
X127228571Y-63828571D01*
X127200000Y-63800000D01*
X127142857Y-63771428D01*
X127028571Y-63771428D01*
X126971428Y-63800000D01*
X126942857Y-63828571D01*
X126914285Y-63885714D01*
X126914285Y-63914285D01*
X126942857Y-63971428D01*
X126971428Y-64000000D01*
X127028571Y-64028571D01*
X127142857Y-64028571D01*
X127200000Y-64057142D01*
X127228571Y-64085714D01*
X127257142Y-64142857D01*
X127257142Y-64257142D01*
X127228571Y-64314285D01*
X127200000Y-64342857D01*
X127142857Y-64371428D01*
X127028571Y-64371428D01*
X126971428Y-64342857D01*
X126942857Y-64314285D01*
X126914285Y-64257142D01*
X126914285Y-64142857D01*
X126942857Y-64085714D01*
X126971428Y-64057142D01*
X127028571Y-64028571D01*
X126400000Y-63971428D02*
X126400000Y-64371428D01*
X126542857Y-63742857D02*
X126685714Y-64171428D01*
X126314285Y-64171428D01*
%TO.C,C85*%
X127885714Y-65314285D02*
X127914285Y-65342857D01*
X128000000Y-65371428D01*
X128057142Y-65371428D01*
X128142857Y-65342857D01*
X128200000Y-65285714D01*
X128228571Y-65228571D01*
X128257142Y-65114285D01*
X128257142Y-65028571D01*
X128228571Y-64914285D01*
X128200000Y-64857142D01*
X128142857Y-64800000D01*
X128057142Y-64771428D01*
X128000000Y-64771428D01*
X127914285Y-64800000D01*
X127885714Y-64828571D01*
X127542857Y-65028571D02*
X127600000Y-65000000D01*
X127628571Y-64971428D01*
X127657142Y-64914285D01*
X127657142Y-64885714D01*
X127628571Y-64828571D01*
X127600000Y-64800000D01*
X127542857Y-64771428D01*
X127428571Y-64771428D01*
X127371428Y-64800000D01*
X127342857Y-64828571D01*
X127314285Y-64885714D01*
X127314285Y-64914285D01*
X127342857Y-64971428D01*
X127371428Y-65000000D01*
X127428571Y-65028571D01*
X127542857Y-65028571D01*
X127600000Y-65057142D01*
X127628571Y-65085714D01*
X127657142Y-65142857D01*
X127657142Y-65257142D01*
X127628571Y-65314285D01*
X127600000Y-65342857D01*
X127542857Y-65371428D01*
X127428571Y-65371428D01*
X127371428Y-65342857D01*
X127342857Y-65314285D01*
X127314285Y-65257142D01*
X127314285Y-65142857D01*
X127342857Y-65085714D01*
X127371428Y-65057142D01*
X127428571Y-65028571D01*
X126771428Y-64771428D02*
X127057142Y-64771428D01*
X127085714Y-65057142D01*
X127057142Y-65028571D01*
X127000000Y-65000000D01*
X126857142Y-65000000D01*
X126800000Y-65028571D01*
X126771428Y-65057142D01*
X126742857Y-65114285D01*
X126742857Y-65257142D01*
X126771428Y-65314285D01*
X126800000Y-65342857D01*
X126857142Y-65371428D01*
X127000000Y-65371428D01*
X127057142Y-65342857D01*
X127085714Y-65314285D01*
%TO.C,J8*%
X137200000Y-64671428D02*
X137200000Y-65100000D01*
X137228571Y-65185714D01*
X137285714Y-65242857D01*
X137371428Y-65271428D01*
X137428571Y-65271428D01*
X136828571Y-64928571D02*
X136885714Y-64900000D01*
X136914285Y-64871428D01*
X136942857Y-64814285D01*
X136942857Y-64785714D01*
X136914285Y-64728571D01*
X136885714Y-64700000D01*
X136828571Y-64671428D01*
X136714285Y-64671428D01*
X136657142Y-64700000D01*
X136628571Y-64728571D01*
X136600000Y-64785714D01*
X136600000Y-64814285D01*
X136628571Y-64871428D01*
X136657142Y-64900000D01*
X136714285Y-64928571D01*
X136828571Y-64928571D01*
X136885714Y-64957142D01*
X136914285Y-64985714D01*
X136942857Y-65042857D01*
X136942857Y-65157142D01*
X136914285Y-65214285D01*
X136885714Y-65242857D01*
X136828571Y-65271428D01*
X136714285Y-65271428D01*
X136657142Y-65242857D01*
X136628571Y-65214285D01*
X136600000Y-65157142D01*
X136600000Y-65042857D01*
X136628571Y-64985714D01*
X136657142Y-64957142D01*
X136714285Y-64928571D01*
%TO.C,C74*%
X125985714Y-67414285D02*
X126014285Y-67442857D01*
X126100000Y-67471428D01*
X126157142Y-67471428D01*
X126242857Y-67442857D01*
X126300000Y-67385714D01*
X126328571Y-67328571D01*
X126357142Y-67214285D01*
X126357142Y-67128571D01*
X126328571Y-67014285D01*
X126300000Y-66957142D01*
X126242857Y-66900000D01*
X126157142Y-66871428D01*
X126100000Y-66871428D01*
X126014285Y-66900000D01*
X125985714Y-66928571D01*
X125785714Y-66871428D02*
X125385714Y-66871428D01*
X125642857Y-67471428D01*
X124900000Y-67071428D02*
X124900000Y-67471428D01*
X125042857Y-66842857D02*
X125185714Y-67271428D01*
X124814285Y-67271428D01*
%TO.C,C77*%
X125785714Y-58714285D02*
X125814285Y-58742857D01*
X125900000Y-58771428D01*
X125957142Y-58771428D01*
X126042857Y-58742857D01*
X126100000Y-58685714D01*
X126128571Y-58628571D01*
X126157142Y-58514285D01*
X126157142Y-58428571D01*
X126128571Y-58314285D01*
X126100000Y-58257142D01*
X126042857Y-58200000D01*
X125957142Y-58171428D01*
X125900000Y-58171428D01*
X125814285Y-58200000D01*
X125785714Y-58228571D01*
X125585714Y-58171428D02*
X125185714Y-58171428D01*
X125442857Y-58771428D01*
X125014285Y-58171428D02*
X124614285Y-58171428D01*
X124871428Y-58771428D01*
%TO.C,C95*%
X146335714Y-92964285D02*
X146364285Y-92992857D01*
X146450000Y-93021428D01*
X146507142Y-93021428D01*
X146592857Y-92992857D01*
X146650000Y-92935714D01*
X146678571Y-92878571D01*
X146707142Y-92764285D01*
X146707142Y-92678571D01*
X146678571Y-92564285D01*
X146650000Y-92507142D01*
X146592857Y-92450000D01*
X146507142Y-92421428D01*
X146450000Y-92421428D01*
X146364285Y-92450000D01*
X146335714Y-92478571D01*
X146050000Y-93021428D02*
X145935714Y-93021428D01*
X145878571Y-92992857D01*
X145850000Y-92964285D01*
X145792857Y-92878571D01*
X145764285Y-92764285D01*
X145764285Y-92535714D01*
X145792857Y-92478571D01*
X145821428Y-92450000D01*
X145878571Y-92421428D01*
X145992857Y-92421428D01*
X146050000Y-92450000D01*
X146078571Y-92478571D01*
X146107142Y-92535714D01*
X146107142Y-92678571D01*
X146078571Y-92735714D01*
X146050000Y-92764285D01*
X145992857Y-92792857D01*
X145878571Y-92792857D01*
X145821428Y-92764285D01*
X145792857Y-92735714D01*
X145764285Y-92678571D01*
X145221428Y-92421428D02*
X145507142Y-92421428D01*
X145535714Y-92707142D01*
X145507142Y-92678571D01*
X145450000Y-92650000D01*
X145307142Y-92650000D01*
X145250000Y-92678571D01*
X145221428Y-92707142D01*
X145192857Y-92764285D01*
X145192857Y-92907142D01*
X145221428Y-92964285D01*
X145250000Y-92992857D01*
X145307142Y-93021428D01*
X145450000Y-93021428D01*
X145507142Y-92992857D01*
X145535714Y-92964285D01*
%TO.C,R27*%
X128540714Y-53571428D02*
X128740714Y-53285714D01*
X128883571Y-53571428D02*
X128883571Y-52971428D01*
X128655000Y-52971428D01*
X128597857Y-53000000D01*
X128569285Y-53028571D01*
X128540714Y-53085714D01*
X128540714Y-53171428D01*
X128569285Y-53228571D01*
X128597857Y-53257142D01*
X128655000Y-53285714D01*
X128883571Y-53285714D01*
X128312142Y-53028571D02*
X128283571Y-53000000D01*
X128226428Y-52971428D01*
X128083571Y-52971428D01*
X128026428Y-53000000D01*
X127997857Y-53028571D01*
X127969285Y-53085714D01*
X127969285Y-53142857D01*
X127997857Y-53228571D01*
X128340714Y-53571428D01*
X127969285Y-53571428D01*
X127769285Y-52971428D02*
X127369285Y-52971428D01*
X127626428Y-53571428D01*
%TO.C,D1*%
X144671428Y-56557142D02*
X144071428Y-56557142D01*
X144071428Y-56700000D01*
X144100000Y-56785714D01*
X144157142Y-56842857D01*
X144214285Y-56871428D01*
X144328571Y-56900000D01*
X144414285Y-56900000D01*
X144528571Y-56871428D01*
X144585714Y-56842857D01*
X144642857Y-56785714D01*
X144671428Y-56700000D01*
X144671428Y-56557142D01*
X144671428Y-57471428D02*
X144671428Y-57128571D01*
X144671428Y-57300000D02*
X144071428Y-57300000D01*
X144157142Y-57242857D01*
X144214285Y-57185714D01*
X144242857Y-57128571D01*
%TO.C,J13*%
X125485714Y-96921428D02*
X125485714Y-97350000D01*
X125514285Y-97435714D01*
X125571428Y-97492857D01*
X125657142Y-97521428D01*
X125714285Y-97521428D01*
X124885714Y-97521428D02*
X125228571Y-97521428D01*
X125057142Y-97521428D02*
X125057142Y-96921428D01*
X125114285Y-97007142D01*
X125171428Y-97064285D01*
X125228571Y-97092857D01*
X124685714Y-96921428D02*
X124314285Y-96921428D01*
X124514285Y-97150000D01*
X124428571Y-97150000D01*
X124371428Y-97178571D01*
X124342857Y-97207142D01*
X124314285Y-97264285D01*
X124314285Y-97407142D01*
X124342857Y-97464285D01*
X124371428Y-97492857D01*
X124428571Y-97521428D01*
X124600000Y-97521428D01*
X124657142Y-97492857D01*
X124685714Y-97464285D01*
%TO.C,R13*%
X145171428Y-60314285D02*
X144885714Y-60114285D01*
X145171428Y-59971428D02*
X144571428Y-59971428D01*
X144571428Y-60200000D01*
X144600000Y-60257142D01*
X144628571Y-60285714D01*
X144685714Y-60314285D01*
X144771428Y-60314285D01*
X144828571Y-60285714D01*
X144857142Y-60257142D01*
X144885714Y-60200000D01*
X144885714Y-59971428D01*
X145171428Y-60885714D02*
X145171428Y-60542857D01*
X145171428Y-60714285D02*
X144571428Y-60714285D01*
X144657142Y-60657142D01*
X144714285Y-60600000D01*
X144742857Y-60542857D01*
X144571428Y-61085714D02*
X144571428Y-61457142D01*
X144800000Y-61257142D01*
X144800000Y-61342857D01*
X144828571Y-61400000D01*
X144857142Y-61428571D01*
X144914285Y-61457142D01*
X145057142Y-61457142D01*
X145114285Y-61428571D01*
X145142857Y-61400000D01*
X145171428Y-61342857D01*
X145171428Y-61171428D01*
X145142857Y-61114285D01*
X145114285Y-61085714D01*
%TO.C,U15*%
X133642857Y-80671428D02*
X133642857Y-81157142D01*
X133614285Y-81214285D01*
X133585714Y-81242857D01*
X133528571Y-81271428D01*
X133414285Y-81271428D01*
X133357142Y-81242857D01*
X133328571Y-81214285D01*
X133300000Y-81157142D01*
X133300000Y-80671428D01*
X132700000Y-81271428D02*
X133042857Y-81271428D01*
X132871428Y-81271428D02*
X132871428Y-80671428D01*
X132928571Y-80757142D01*
X132985714Y-80814285D01*
X133042857Y-80842857D01*
X132157142Y-80671428D02*
X132442857Y-80671428D01*
X132471428Y-80957142D01*
X132442857Y-80928571D01*
X132385714Y-80900000D01*
X132242857Y-80900000D01*
X132185714Y-80928571D01*
X132157142Y-80957142D01*
X132128571Y-81014285D01*
X132128571Y-81157142D01*
X132157142Y-81214285D01*
X132185714Y-81242857D01*
X132242857Y-81271428D01*
X132385714Y-81271428D01*
X132442857Y-81242857D01*
X132471428Y-81214285D01*
%TO.C,C96*%
X131035714Y-92964285D02*
X131064285Y-92992857D01*
X131150000Y-93021428D01*
X131207142Y-93021428D01*
X131292857Y-92992857D01*
X131350000Y-92935714D01*
X131378571Y-92878571D01*
X131407142Y-92764285D01*
X131407142Y-92678571D01*
X131378571Y-92564285D01*
X131350000Y-92507142D01*
X131292857Y-92450000D01*
X131207142Y-92421428D01*
X131150000Y-92421428D01*
X131064285Y-92450000D01*
X131035714Y-92478571D01*
X130750000Y-93021428D02*
X130635714Y-93021428D01*
X130578571Y-92992857D01*
X130550000Y-92964285D01*
X130492857Y-92878571D01*
X130464285Y-92764285D01*
X130464285Y-92535714D01*
X130492857Y-92478571D01*
X130521428Y-92450000D01*
X130578571Y-92421428D01*
X130692857Y-92421428D01*
X130750000Y-92450000D01*
X130778571Y-92478571D01*
X130807142Y-92535714D01*
X130807142Y-92678571D01*
X130778571Y-92735714D01*
X130750000Y-92764285D01*
X130692857Y-92792857D01*
X130578571Y-92792857D01*
X130521428Y-92764285D01*
X130492857Y-92735714D01*
X130464285Y-92678571D01*
X129950000Y-92421428D02*
X130064285Y-92421428D01*
X130121428Y-92450000D01*
X130150000Y-92478571D01*
X130207142Y-92564285D01*
X130235714Y-92678571D01*
X130235714Y-92907142D01*
X130207142Y-92964285D01*
X130178571Y-92992857D01*
X130121428Y-93021428D01*
X130007142Y-93021428D01*
X129950000Y-92992857D01*
X129921428Y-92964285D01*
X129892857Y-92907142D01*
X129892857Y-92764285D01*
X129921428Y-92707142D01*
X129950000Y-92678571D01*
X130007142Y-92650000D01*
X130121428Y-92650000D01*
X130178571Y-92678571D01*
X130207142Y-92707142D01*
X130235714Y-92764285D01*
%TO.C,R68*%
X109785714Y-58471428D02*
X109985714Y-58185714D01*
X110128571Y-58471428D02*
X110128571Y-57871428D01*
X109900000Y-57871428D01*
X109842857Y-57900000D01*
X109814285Y-57928571D01*
X109785714Y-57985714D01*
X109785714Y-58071428D01*
X109814285Y-58128571D01*
X109842857Y-58157142D01*
X109900000Y-58185714D01*
X110128571Y-58185714D01*
X109271428Y-57871428D02*
X109385714Y-57871428D01*
X109442857Y-57900000D01*
X109471428Y-57928571D01*
X109528571Y-58014285D01*
X109557142Y-58128571D01*
X109557142Y-58357142D01*
X109528571Y-58414285D01*
X109500000Y-58442857D01*
X109442857Y-58471428D01*
X109328571Y-58471428D01*
X109271428Y-58442857D01*
X109242857Y-58414285D01*
X109214285Y-58357142D01*
X109214285Y-58214285D01*
X109242857Y-58157142D01*
X109271428Y-58128571D01*
X109328571Y-58100000D01*
X109442857Y-58100000D01*
X109500000Y-58128571D01*
X109528571Y-58157142D01*
X109557142Y-58214285D01*
X108871428Y-58128571D02*
X108928571Y-58100000D01*
X108957142Y-58071428D01*
X108985714Y-58014285D01*
X108985714Y-57985714D01*
X108957142Y-57928571D01*
X108928571Y-57900000D01*
X108871428Y-57871428D01*
X108757142Y-57871428D01*
X108700000Y-57900000D01*
X108671428Y-57928571D01*
X108642857Y-57985714D01*
X108642857Y-58014285D01*
X108671428Y-58071428D01*
X108700000Y-58100000D01*
X108757142Y-58128571D01*
X108871428Y-58128571D01*
X108928571Y-58157142D01*
X108957142Y-58185714D01*
X108985714Y-58242857D01*
X108985714Y-58357142D01*
X108957142Y-58414285D01*
X108928571Y-58442857D01*
X108871428Y-58471428D01*
X108757142Y-58471428D01*
X108700000Y-58442857D01*
X108671428Y-58414285D01*
X108642857Y-58357142D01*
X108642857Y-58242857D01*
X108671428Y-58185714D01*
X108700000Y-58157142D01*
X108757142Y-58128571D01*
%TO.C,R59*%
X108985714Y-60971428D02*
X109185714Y-60685714D01*
X109328571Y-60971428D02*
X109328571Y-60371428D01*
X109100000Y-60371428D01*
X109042857Y-60400000D01*
X109014285Y-60428571D01*
X108985714Y-60485714D01*
X108985714Y-60571428D01*
X109014285Y-60628571D01*
X109042857Y-60657142D01*
X109100000Y-60685714D01*
X109328571Y-60685714D01*
X108442857Y-60371428D02*
X108728571Y-60371428D01*
X108757142Y-60657142D01*
X108728571Y-60628571D01*
X108671428Y-60600000D01*
X108528571Y-60600000D01*
X108471428Y-60628571D01*
X108442857Y-60657142D01*
X108414285Y-60714285D01*
X108414285Y-60857142D01*
X108442857Y-60914285D01*
X108471428Y-60942857D01*
X108528571Y-60971428D01*
X108671428Y-60971428D01*
X108728571Y-60942857D01*
X108757142Y-60914285D01*
X108128571Y-60971428D02*
X108014285Y-60971428D01*
X107957142Y-60942857D01*
X107928571Y-60914285D01*
X107871428Y-60828571D01*
X107842857Y-60714285D01*
X107842857Y-60485714D01*
X107871428Y-60428571D01*
X107900000Y-60400000D01*
X107957142Y-60371428D01*
X108071428Y-60371428D01*
X108128571Y-60400000D01*
X108157142Y-60428571D01*
X108185714Y-60485714D01*
X108185714Y-60628571D01*
X108157142Y-60685714D01*
X108128571Y-60714285D01*
X108071428Y-60742857D01*
X107957142Y-60742857D01*
X107900000Y-60714285D01*
X107871428Y-60685714D01*
X107842857Y-60628571D01*
%TO.C,R60*%
X103085714Y-60951428D02*
X103285714Y-60665714D01*
X103428571Y-60951428D02*
X103428571Y-60351428D01*
X103200000Y-60351428D01*
X103142857Y-60380000D01*
X103114285Y-60408571D01*
X103085714Y-60465714D01*
X103085714Y-60551428D01*
X103114285Y-60608571D01*
X103142857Y-60637142D01*
X103200000Y-60665714D01*
X103428571Y-60665714D01*
X102571428Y-60351428D02*
X102685714Y-60351428D01*
X102742857Y-60380000D01*
X102771428Y-60408571D01*
X102828571Y-60494285D01*
X102857142Y-60608571D01*
X102857142Y-60837142D01*
X102828571Y-60894285D01*
X102800000Y-60922857D01*
X102742857Y-60951428D01*
X102628571Y-60951428D01*
X102571428Y-60922857D01*
X102542857Y-60894285D01*
X102514285Y-60837142D01*
X102514285Y-60694285D01*
X102542857Y-60637142D01*
X102571428Y-60608571D01*
X102628571Y-60580000D01*
X102742857Y-60580000D01*
X102800000Y-60608571D01*
X102828571Y-60637142D01*
X102857142Y-60694285D01*
X102142857Y-60351428D02*
X102085714Y-60351428D01*
X102028571Y-60380000D01*
X102000000Y-60408571D01*
X101971428Y-60465714D01*
X101942857Y-60580000D01*
X101942857Y-60722857D01*
X101971428Y-60837142D01*
X102000000Y-60894285D01*
X102028571Y-60922857D01*
X102085714Y-60951428D01*
X102142857Y-60951428D01*
X102200000Y-60922857D01*
X102228571Y-60894285D01*
X102257142Y-60837142D01*
X102285714Y-60722857D01*
X102285714Y-60580000D01*
X102257142Y-60465714D01*
X102228571Y-60408571D01*
X102200000Y-60380000D01*
X102142857Y-60351428D01*
%TO.C,R57*%
X136471428Y-77514285D02*
X136185714Y-77314285D01*
X136471428Y-77171428D02*
X135871428Y-77171428D01*
X135871428Y-77400000D01*
X135900000Y-77457142D01*
X135928571Y-77485714D01*
X135985714Y-77514285D01*
X136071428Y-77514285D01*
X136128571Y-77485714D01*
X136157142Y-77457142D01*
X136185714Y-77400000D01*
X136185714Y-77171428D01*
X135871428Y-78057142D02*
X135871428Y-77771428D01*
X136157142Y-77742857D01*
X136128571Y-77771428D01*
X136100000Y-77828571D01*
X136100000Y-77971428D01*
X136128571Y-78028571D01*
X136157142Y-78057142D01*
X136214285Y-78085714D01*
X136357142Y-78085714D01*
X136414285Y-78057142D01*
X136442857Y-78028571D01*
X136471428Y-77971428D01*
X136471428Y-77828571D01*
X136442857Y-77771428D01*
X136414285Y-77742857D01*
X135871428Y-78285714D02*
X135871428Y-78685714D01*
X136471428Y-78428571D01*
%TO.C,C98*%
X134014285Y-76014285D02*
X134042857Y-75985714D01*
X134071428Y-75900000D01*
X134071428Y-75842857D01*
X134042857Y-75757142D01*
X133985714Y-75700000D01*
X133928571Y-75671428D01*
X133814285Y-75642857D01*
X133728571Y-75642857D01*
X133614285Y-75671428D01*
X133557142Y-75700000D01*
X133500000Y-75757142D01*
X133471428Y-75842857D01*
X133471428Y-75900000D01*
X133500000Y-75985714D01*
X133528571Y-76014285D01*
X134071428Y-76300000D02*
X134071428Y-76414285D01*
X134042857Y-76471428D01*
X134014285Y-76500000D01*
X133928571Y-76557142D01*
X133814285Y-76585714D01*
X133585714Y-76585714D01*
X133528571Y-76557142D01*
X133500000Y-76528571D01*
X133471428Y-76471428D01*
X133471428Y-76357142D01*
X133500000Y-76300000D01*
X133528571Y-76271428D01*
X133585714Y-76242857D01*
X133728571Y-76242857D01*
X133785714Y-76271428D01*
X133814285Y-76300000D01*
X133842857Y-76357142D01*
X133842857Y-76471428D01*
X133814285Y-76528571D01*
X133785714Y-76557142D01*
X133728571Y-76585714D01*
X133728571Y-76928571D02*
X133700000Y-76871428D01*
X133671428Y-76842857D01*
X133614285Y-76814285D01*
X133585714Y-76814285D01*
X133528571Y-76842857D01*
X133500000Y-76871428D01*
X133471428Y-76928571D01*
X133471428Y-77042857D01*
X133500000Y-77100000D01*
X133528571Y-77128571D01*
X133585714Y-77157142D01*
X133614285Y-77157142D01*
X133671428Y-77128571D01*
X133700000Y-77100000D01*
X133728571Y-77042857D01*
X133728571Y-76928571D01*
X133757142Y-76871428D01*
X133785714Y-76842857D01*
X133842857Y-76814285D01*
X133957142Y-76814285D01*
X134014285Y-76842857D01*
X134042857Y-76871428D01*
X134071428Y-76928571D01*
X134071428Y-77042857D01*
X134042857Y-77100000D01*
X134014285Y-77128571D01*
X133957142Y-77157142D01*
X133842857Y-77157142D01*
X133785714Y-77128571D01*
X133757142Y-77100000D01*
X133728571Y-77042857D01*
%TO.C,C18*%
X146985714Y-84014285D02*
X147014285Y-84042857D01*
X147100000Y-84071428D01*
X147157142Y-84071428D01*
X147242857Y-84042857D01*
X147300000Y-83985714D01*
X147328571Y-83928571D01*
X147357142Y-83814285D01*
X147357142Y-83728571D01*
X147328571Y-83614285D01*
X147300000Y-83557142D01*
X147242857Y-83500000D01*
X147157142Y-83471428D01*
X147100000Y-83471428D01*
X147014285Y-83500000D01*
X146985714Y-83528571D01*
X146414285Y-84071428D02*
X146757142Y-84071428D01*
X146585714Y-84071428D02*
X146585714Y-83471428D01*
X146642857Y-83557142D01*
X146700000Y-83614285D01*
X146757142Y-83642857D01*
X146071428Y-83728571D02*
X146128571Y-83700000D01*
X146157142Y-83671428D01*
X146185714Y-83614285D01*
X146185714Y-83585714D01*
X146157142Y-83528571D01*
X146128571Y-83500000D01*
X146071428Y-83471428D01*
X145957142Y-83471428D01*
X145900000Y-83500000D01*
X145871428Y-83528571D01*
X145842857Y-83585714D01*
X145842857Y-83614285D01*
X145871428Y-83671428D01*
X145900000Y-83700000D01*
X145957142Y-83728571D01*
X146071428Y-83728571D01*
X146128571Y-83757142D01*
X146157142Y-83785714D01*
X146185714Y-83842857D01*
X146185714Y-83957142D01*
X146157142Y-84014285D01*
X146128571Y-84042857D01*
X146071428Y-84071428D01*
X145957142Y-84071428D01*
X145900000Y-84042857D01*
X145871428Y-84014285D01*
X145842857Y-83957142D01*
X145842857Y-83842857D01*
X145871428Y-83785714D01*
X145900000Y-83757142D01*
X145957142Y-83728571D01*
%TO.C,R58*%
X137271428Y-77514285D02*
X136985714Y-77314285D01*
X137271428Y-77171428D02*
X136671428Y-77171428D01*
X136671428Y-77400000D01*
X136700000Y-77457142D01*
X136728571Y-77485714D01*
X136785714Y-77514285D01*
X136871428Y-77514285D01*
X136928571Y-77485714D01*
X136957142Y-77457142D01*
X136985714Y-77400000D01*
X136985714Y-77171428D01*
X136671428Y-78057142D02*
X136671428Y-77771428D01*
X136957142Y-77742857D01*
X136928571Y-77771428D01*
X136900000Y-77828571D01*
X136900000Y-77971428D01*
X136928571Y-78028571D01*
X136957142Y-78057142D01*
X137014285Y-78085714D01*
X137157142Y-78085714D01*
X137214285Y-78057142D01*
X137242857Y-78028571D01*
X137271428Y-77971428D01*
X137271428Y-77828571D01*
X137242857Y-77771428D01*
X137214285Y-77742857D01*
X136928571Y-78428571D02*
X136900000Y-78371428D01*
X136871428Y-78342857D01*
X136814285Y-78314285D01*
X136785714Y-78314285D01*
X136728571Y-78342857D01*
X136700000Y-78371428D01*
X136671428Y-78428571D01*
X136671428Y-78542857D01*
X136700000Y-78600000D01*
X136728571Y-78628571D01*
X136785714Y-78657142D01*
X136814285Y-78657142D01*
X136871428Y-78628571D01*
X136900000Y-78600000D01*
X136928571Y-78542857D01*
X136928571Y-78428571D01*
X136957142Y-78371428D01*
X136985714Y-78342857D01*
X137042857Y-78314285D01*
X137157142Y-78314285D01*
X137214285Y-78342857D01*
X137242857Y-78371428D01*
X137271428Y-78428571D01*
X137271428Y-78542857D01*
X137242857Y-78600000D01*
X137214285Y-78628571D01*
X137157142Y-78657142D01*
X137042857Y-78657142D01*
X136985714Y-78628571D01*
X136957142Y-78600000D01*
X136928571Y-78542857D01*
%TO.C,R61*%
X120385714Y-74871428D02*
X120585714Y-74585714D01*
X120728571Y-74871428D02*
X120728571Y-74271428D01*
X120500000Y-74271428D01*
X120442857Y-74300000D01*
X120414285Y-74328571D01*
X120385714Y-74385714D01*
X120385714Y-74471428D01*
X120414285Y-74528571D01*
X120442857Y-74557142D01*
X120500000Y-74585714D01*
X120728571Y-74585714D01*
X119871428Y-74271428D02*
X119985714Y-74271428D01*
X120042857Y-74300000D01*
X120071428Y-74328571D01*
X120128571Y-74414285D01*
X120157142Y-74528571D01*
X120157142Y-74757142D01*
X120128571Y-74814285D01*
X120100000Y-74842857D01*
X120042857Y-74871428D01*
X119928571Y-74871428D01*
X119871428Y-74842857D01*
X119842857Y-74814285D01*
X119814285Y-74757142D01*
X119814285Y-74614285D01*
X119842857Y-74557142D01*
X119871428Y-74528571D01*
X119928571Y-74500000D01*
X120042857Y-74500000D01*
X120100000Y-74528571D01*
X120128571Y-74557142D01*
X120157142Y-74614285D01*
X119242857Y-74871428D02*
X119585714Y-74871428D01*
X119414285Y-74871428D02*
X119414285Y-74271428D01*
X119471428Y-74357142D01*
X119528571Y-74414285D01*
X119585714Y-74442857D01*
%TO.C,R49*%
X120985714Y-82471428D02*
X121185714Y-82185714D01*
X121328571Y-82471428D02*
X121328571Y-81871428D01*
X121100000Y-81871428D01*
X121042857Y-81900000D01*
X121014285Y-81928571D01*
X120985714Y-81985714D01*
X120985714Y-82071428D01*
X121014285Y-82128571D01*
X121042857Y-82157142D01*
X121100000Y-82185714D01*
X121328571Y-82185714D01*
X120471428Y-82071428D02*
X120471428Y-82471428D01*
X120614285Y-81842857D02*
X120757142Y-82271428D01*
X120385714Y-82271428D01*
X120128571Y-82471428D02*
X120014285Y-82471428D01*
X119957142Y-82442857D01*
X119928571Y-82414285D01*
X119871428Y-82328571D01*
X119842857Y-82214285D01*
X119842857Y-81985714D01*
X119871428Y-81928571D01*
X119900000Y-81900000D01*
X119957142Y-81871428D01*
X120071428Y-81871428D01*
X120128571Y-81900000D01*
X120157142Y-81928571D01*
X120185714Y-81985714D01*
X120185714Y-82128571D01*
X120157142Y-82185714D01*
X120128571Y-82214285D01*
X120071428Y-82242857D01*
X119957142Y-82242857D01*
X119900000Y-82214285D01*
X119871428Y-82185714D01*
X119842857Y-82128571D01*
%TO.C,C57*%
X119735714Y-92964285D02*
X119764285Y-92992857D01*
X119850000Y-93021428D01*
X119907142Y-93021428D01*
X119992857Y-92992857D01*
X120050000Y-92935714D01*
X120078571Y-92878571D01*
X120107142Y-92764285D01*
X120107142Y-92678571D01*
X120078571Y-92564285D01*
X120050000Y-92507142D01*
X119992857Y-92450000D01*
X119907142Y-92421428D01*
X119850000Y-92421428D01*
X119764285Y-92450000D01*
X119735714Y-92478571D01*
X119192857Y-92421428D02*
X119478571Y-92421428D01*
X119507142Y-92707142D01*
X119478571Y-92678571D01*
X119421428Y-92650000D01*
X119278571Y-92650000D01*
X119221428Y-92678571D01*
X119192857Y-92707142D01*
X119164285Y-92764285D01*
X119164285Y-92907142D01*
X119192857Y-92964285D01*
X119221428Y-92992857D01*
X119278571Y-93021428D01*
X119421428Y-93021428D01*
X119478571Y-92992857D01*
X119507142Y-92964285D01*
X118964285Y-92421428D02*
X118564285Y-92421428D01*
X118821428Y-93021428D01*
%TO.C,R48*%
X122685714Y-79571428D02*
X122885714Y-79285714D01*
X123028571Y-79571428D02*
X123028571Y-78971428D01*
X122800000Y-78971428D01*
X122742857Y-79000000D01*
X122714285Y-79028571D01*
X122685714Y-79085714D01*
X122685714Y-79171428D01*
X122714285Y-79228571D01*
X122742857Y-79257142D01*
X122800000Y-79285714D01*
X123028571Y-79285714D01*
X122171428Y-79171428D02*
X122171428Y-79571428D01*
X122314285Y-78942857D02*
X122457142Y-79371428D01*
X122085714Y-79371428D01*
X121771428Y-79228571D02*
X121828571Y-79200000D01*
X121857142Y-79171428D01*
X121885714Y-79114285D01*
X121885714Y-79085714D01*
X121857142Y-79028571D01*
X121828571Y-79000000D01*
X121771428Y-78971428D01*
X121657142Y-78971428D01*
X121600000Y-79000000D01*
X121571428Y-79028571D01*
X121542857Y-79085714D01*
X121542857Y-79114285D01*
X121571428Y-79171428D01*
X121600000Y-79200000D01*
X121657142Y-79228571D01*
X121771428Y-79228571D01*
X121828571Y-79257142D01*
X121857142Y-79285714D01*
X121885714Y-79342857D01*
X121885714Y-79457142D01*
X121857142Y-79514285D01*
X121828571Y-79542857D01*
X121771428Y-79571428D01*
X121657142Y-79571428D01*
X121600000Y-79542857D01*
X121571428Y-79514285D01*
X121542857Y-79457142D01*
X121542857Y-79342857D01*
X121571428Y-79285714D01*
X121600000Y-79257142D01*
X121657142Y-79228571D01*
%TO.C,C97*%
X129185714Y-81414285D02*
X129214285Y-81442857D01*
X129300000Y-81471428D01*
X129357142Y-81471428D01*
X129442857Y-81442857D01*
X129500000Y-81385714D01*
X129528571Y-81328571D01*
X129557142Y-81214285D01*
X129557142Y-81128571D01*
X129528571Y-81014285D01*
X129500000Y-80957142D01*
X129442857Y-80900000D01*
X129357142Y-80871428D01*
X129300000Y-80871428D01*
X129214285Y-80900000D01*
X129185714Y-80928571D01*
X128900000Y-81471428D02*
X128785714Y-81471428D01*
X128728571Y-81442857D01*
X128700000Y-81414285D01*
X128642857Y-81328571D01*
X128614285Y-81214285D01*
X128614285Y-80985714D01*
X128642857Y-80928571D01*
X128671428Y-80900000D01*
X128728571Y-80871428D01*
X128842857Y-80871428D01*
X128900000Y-80900000D01*
X128928571Y-80928571D01*
X128957142Y-80985714D01*
X128957142Y-81128571D01*
X128928571Y-81185714D01*
X128900000Y-81214285D01*
X128842857Y-81242857D01*
X128728571Y-81242857D01*
X128671428Y-81214285D01*
X128642857Y-81185714D01*
X128614285Y-81128571D01*
X128414285Y-80871428D02*
X128014285Y-80871428D01*
X128271428Y-81471428D01*
%TO.C,C56*%
X104435714Y-92964285D02*
X104464285Y-92992857D01*
X104550000Y-93021428D01*
X104607142Y-93021428D01*
X104692857Y-92992857D01*
X104750000Y-92935714D01*
X104778571Y-92878571D01*
X104807142Y-92764285D01*
X104807142Y-92678571D01*
X104778571Y-92564285D01*
X104750000Y-92507142D01*
X104692857Y-92450000D01*
X104607142Y-92421428D01*
X104550000Y-92421428D01*
X104464285Y-92450000D01*
X104435714Y-92478571D01*
X103892857Y-92421428D02*
X104178571Y-92421428D01*
X104207142Y-92707142D01*
X104178571Y-92678571D01*
X104121428Y-92650000D01*
X103978571Y-92650000D01*
X103921428Y-92678571D01*
X103892857Y-92707142D01*
X103864285Y-92764285D01*
X103864285Y-92907142D01*
X103892857Y-92964285D01*
X103921428Y-92992857D01*
X103978571Y-93021428D01*
X104121428Y-93021428D01*
X104178571Y-92992857D01*
X104207142Y-92964285D01*
X103350000Y-92421428D02*
X103464285Y-92421428D01*
X103521428Y-92450000D01*
X103550000Y-92478571D01*
X103607142Y-92564285D01*
X103635714Y-92678571D01*
X103635714Y-92907142D01*
X103607142Y-92964285D01*
X103578571Y-92992857D01*
X103521428Y-93021428D01*
X103407142Y-93021428D01*
X103350000Y-92992857D01*
X103321428Y-92964285D01*
X103292857Y-92907142D01*
X103292857Y-92764285D01*
X103321428Y-92707142D01*
X103350000Y-92678571D01*
X103407142Y-92650000D01*
X103521428Y-92650000D01*
X103578571Y-92678571D01*
X103607142Y-92707142D01*
X103635714Y-92764285D01*
%TO.C,U11*%
X117842857Y-80671428D02*
X117842857Y-81157142D01*
X117814285Y-81214285D01*
X117785714Y-81242857D01*
X117728571Y-81271428D01*
X117614285Y-81271428D01*
X117557142Y-81242857D01*
X117528571Y-81214285D01*
X117500000Y-81157142D01*
X117500000Y-80671428D01*
X116900000Y-81271428D02*
X117242857Y-81271428D01*
X117071428Y-81271428D02*
X117071428Y-80671428D01*
X117128571Y-80757142D01*
X117185714Y-80814285D01*
X117242857Y-80842857D01*
X116328571Y-81271428D02*
X116671428Y-81271428D01*
X116500000Y-81271428D02*
X116500000Y-80671428D01*
X116557142Y-80757142D01*
X116614285Y-80814285D01*
X116671428Y-80842857D01*
%TO.C,R63*%
X125385714Y-92171428D02*
X125585714Y-91885714D01*
X125728571Y-92171428D02*
X125728571Y-91571428D01*
X125500000Y-91571428D01*
X125442857Y-91600000D01*
X125414285Y-91628571D01*
X125385714Y-91685714D01*
X125385714Y-91771428D01*
X125414285Y-91828571D01*
X125442857Y-91857142D01*
X125500000Y-91885714D01*
X125728571Y-91885714D01*
X124871428Y-91571428D02*
X124985714Y-91571428D01*
X125042857Y-91600000D01*
X125071428Y-91628571D01*
X125128571Y-91714285D01*
X125157142Y-91828571D01*
X125157142Y-92057142D01*
X125128571Y-92114285D01*
X125100000Y-92142857D01*
X125042857Y-92171428D01*
X124928571Y-92171428D01*
X124871428Y-92142857D01*
X124842857Y-92114285D01*
X124814285Y-92057142D01*
X124814285Y-91914285D01*
X124842857Y-91857142D01*
X124871428Y-91828571D01*
X124928571Y-91800000D01*
X125042857Y-91800000D01*
X125100000Y-91828571D01*
X125128571Y-91857142D01*
X125157142Y-91914285D01*
X124614285Y-91571428D02*
X124242857Y-91571428D01*
X124442857Y-91800000D01*
X124357142Y-91800000D01*
X124300000Y-91828571D01*
X124271428Y-91857142D01*
X124242857Y-91914285D01*
X124242857Y-92057142D01*
X124271428Y-92114285D01*
X124300000Y-92142857D01*
X124357142Y-92171428D01*
X124528571Y-92171428D01*
X124585714Y-92142857D01*
X124614285Y-92114285D01*
%TO.C,C12*%
X144114285Y-60314285D02*
X144142857Y-60285714D01*
X144171428Y-60200000D01*
X144171428Y-60142857D01*
X144142857Y-60057142D01*
X144085714Y-60000000D01*
X144028571Y-59971428D01*
X143914285Y-59942857D01*
X143828571Y-59942857D01*
X143714285Y-59971428D01*
X143657142Y-60000000D01*
X143600000Y-60057142D01*
X143571428Y-60142857D01*
X143571428Y-60200000D01*
X143600000Y-60285714D01*
X143628571Y-60314285D01*
X144171428Y-60885714D02*
X144171428Y-60542857D01*
X144171428Y-60714285D02*
X143571428Y-60714285D01*
X143657142Y-60657142D01*
X143714285Y-60600000D01*
X143742857Y-60542857D01*
X143628571Y-61114285D02*
X143600000Y-61142857D01*
X143571428Y-61200000D01*
X143571428Y-61342857D01*
X143600000Y-61400000D01*
X143628571Y-61428571D01*
X143685714Y-61457142D01*
X143742857Y-61457142D01*
X143828571Y-61428571D01*
X144171428Y-61085714D01*
X144171428Y-61457142D01*
%TO.C,C58*%
X123885714Y-81414285D02*
X123914285Y-81442857D01*
X124000000Y-81471428D01*
X124057142Y-81471428D01*
X124142857Y-81442857D01*
X124200000Y-81385714D01*
X124228571Y-81328571D01*
X124257142Y-81214285D01*
X124257142Y-81128571D01*
X124228571Y-81014285D01*
X124200000Y-80957142D01*
X124142857Y-80900000D01*
X124057142Y-80871428D01*
X124000000Y-80871428D01*
X123914285Y-80900000D01*
X123885714Y-80928571D01*
X123342857Y-80871428D02*
X123628571Y-80871428D01*
X123657142Y-81157142D01*
X123628571Y-81128571D01*
X123571428Y-81100000D01*
X123428571Y-81100000D01*
X123371428Y-81128571D01*
X123342857Y-81157142D01*
X123314285Y-81214285D01*
X123314285Y-81357142D01*
X123342857Y-81414285D01*
X123371428Y-81442857D01*
X123428571Y-81471428D01*
X123571428Y-81471428D01*
X123628571Y-81442857D01*
X123657142Y-81414285D01*
X122971428Y-81128571D02*
X123028571Y-81100000D01*
X123057142Y-81071428D01*
X123085714Y-81014285D01*
X123085714Y-80985714D01*
X123057142Y-80928571D01*
X123028571Y-80900000D01*
X122971428Y-80871428D01*
X122857142Y-80871428D01*
X122800000Y-80900000D01*
X122771428Y-80928571D01*
X122742857Y-80985714D01*
X122742857Y-81014285D01*
X122771428Y-81071428D01*
X122800000Y-81100000D01*
X122857142Y-81128571D01*
X122971428Y-81128571D01*
X123028571Y-81157142D01*
X123057142Y-81185714D01*
X123085714Y-81242857D01*
X123085714Y-81357142D01*
X123057142Y-81414285D01*
X123028571Y-81442857D01*
X122971428Y-81471428D01*
X122857142Y-81471428D01*
X122800000Y-81442857D01*
X122771428Y-81414285D01*
X122742857Y-81357142D01*
X122742857Y-81242857D01*
X122771428Y-81185714D01*
X122800000Y-81157142D01*
X122857142Y-81128571D01*
%TO.C,R50*%
X121885714Y-80371428D02*
X122085714Y-80085714D01*
X122228571Y-80371428D02*
X122228571Y-79771428D01*
X122000000Y-79771428D01*
X121942857Y-79800000D01*
X121914285Y-79828571D01*
X121885714Y-79885714D01*
X121885714Y-79971428D01*
X121914285Y-80028571D01*
X121942857Y-80057142D01*
X122000000Y-80085714D01*
X122228571Y-80085714D01*
X121342857Y-79771428D02*
X121628571Y-79771428D01*
X121657142Y-80057142D01*
X121628571Y-80028571D01*
X121571428Y-80000000D01*
X121428571Y-80000000D01*
X121371428Y-80028571D01*
X121342857Y-80057142D01*
X121314285Y-80114285D01*
X121314285Y-80257142D01*
X121342857Y-80314285D01*
X121371428Y-80342857D01*
X121428571Y-80371428D01*
X121571428Y-80371428D01*
X121628571Y-80342857D01*
X121657142Y-80314285D01*
X120942857Y-79771428D02*
X120885714Y-79771428D01*
X120828571Y-79800000D01*
X120800000Y-79828571D01*
X120771428Y-79885714D01*
X120742857Y-80000000D01*
X120742857Y-80142857D01*
X120771428Y-80257142D01*
X120800000Y-80314285D01*
X120828571Y-80342857D01*
X120885714Y-80371428D01*
X120942857Y-80371428D01*
X121000000Y-80342857D01*
X121028571Y-80314285D01*
X121057142Y-80257142D01*
X121085714Y-80142857D01*
X121085714Y-80000000D01*
X121057142Y-79885714D01*
X121028571Y-79828571D01*
X121000000Y-79800000D01*
X120942857Y-79771428D01*
%TO.C,C59*%
X128385714Y-78714285D02*
X128414285Y-78742857D01*
X128500000Y-78771428D01*
X128557142Y-78771428D01*
X128642857Y-78742857D01*
X128700000Y-78685714D01*
X128728571Y-78628571D01*
X128757142Y-78514285D01*
X128757142Y-78428571D01*
X128728571Y-78314285D01*
X128700000Y-78257142D01*
X128642857Y-78200000D01*
X128557142Y-78171428D01*
X128500000Y-78171428D01*
X128414285Y-78200000D01*
X128385714Y-78228571D01*
X127842857Y-78171428D02*
X128128571Y-78171428D01*
X128157142Y-78457142D01*
X128128571Y-78428571D01*
X128071428Y-78400000D01*
X127928571Y-78400000D01*
X127871428Y-78428571D01*
X127842857Y-78457142D01*
X127814285Y-78514285D01*
X127814285Y-78657142D01*
X127842857Y-78714285D01*
X127871428Y-78742857D01*
X127928571Y-78771428D01*
X128071428Y-78771428D01*
X128128571Y-78742857D01*
X128157142Y-78714285D01*
X127528571Y-78771428D02*
X127414285Y-78771428D01*
X127357142Y-78742857D01*
X127328571Y-78714285D01*
X127271428Y-78628571D01*
X127242857Y-78514285D01*
X127242857Y-78285714D01*
X127271428Y-78228571D01*
X127300000Y-78200000D01*
X127357142Y-78171428D01*
X127471428Y-78171428D01*
X127528571Y-78200000D01*
X127557142Y-78228571D01*
X127585714Y-78285714D01*
X127585714Y-78428571D01*
X127557142Y-78485714D01*
X127528571Y-78514285D01*
X127471428Y-78542857D01*
X127357142Y-78542857D01*
X127300000Y-78514285D01*
X127271428Y-78485714D01*
X127242857Y-78428571D01*
D12*
%TO.C,J9*%
X115500000Y-59500000D02*
X111500000Y-59500000D01*
X110500000Y-60500000D02*
X110500000Y-69500000D01*
X115500000Y-70500000D02*
X115500000Y-59500000D01*
X111500000Y-59500000D02*
X110500000Y-60500000D01*
X110500000Y-69500000D02*
X111500000Y-70500000D01*
X111500000Y-70500000D02*
X115500000Y-70500000D01*
D11*
%TO.C,C50*%
X128850000Y-65200000D02*
X129150000Y-65200000D01*
X129150000Y-65200000D02*
X129150000Y-64600000D01*
X128850000Y-64600000D02*
X128850000Y-65200000D01*
X129150000Y-64600000D02*
X128850000Y-64600000D01*
%TO.C,C47*%
X130250000Y-69920000D02*
X130550000Y-69920000D01*
X130550000Y-69320000D02*
X130250000Y-69320000D01*
X130250000Y-69320000D02*
X130250000Y-69920000D01*
X130550000Y-69920000D02*
X130550000Y-69320000D01*
%TO.C,C83*%
X127100000Y-66650000D02*
X127700000Y-66650000D01*
X127100000Y-66350000D02*
X127100000Y-66650000D01*
X127700000Y-66350000D02*
X127100000Y-66350000D01*
X127700000Y-66650000D02*
X127700000Y-66350000D01*
%TO.C,C94*%
X131900000Y-55450000D02*
X132500000Y-55450000D01*
X132500000Y-55150000D02*
X131900000Y-55150000D01*
X131900000Y-55150000D02*
X131900000Y-55450000D01*
X132500000Y-55450000D02*
X132500000Y-55150000D01*
%TO.C,C93*%
X132350000Y-64600000D02*
X132050000Y-64600000D01*
X132050000Y-65200000D02*
X132350000Y-65200000D01*
X132050000Y-64600000D02*
X132050000Y-65200000D01*
X132350000Y-65200000D02*
X132350000Y-64600000D01*
%TO.C,C92*%
X126750000Y-69400000D02*
X126450000Y-69400000D01*
X126450000Y-69400000D02*
X126450000Y-70000000D01*
X126450000Y-70000000D02*
X126750000Y-70000000D01*
X126750000Y-70000000D02*
X126750000Y-69400000D01*
%TO.C,C91*%
X117500000Y-69050000D02*
X118100000Y-69050000D01*
X117500000Y-68750000D02*
X117500000Y-69050000D01*
X118100000Y-69050000D02*
X118100000Y-68750000D01*
X118100000Y-68750000D02*
X117500000Y-68750000D01*
%TO.C,C89*%
X120850000Y-57400000D02*
X120850000Y-58000000D01*
X121150000Y-57400000D02*
X120850000Y-57400000D01*
X120850000Y-58000000D02*
X121150000Y-58000000D01*
X121150000Y-58000000D02*
X121150000Y-57400000D01*
%TO.C,C86*%
X127700000Y-59150000D02*
X127100000Y-59150000D01*
X127100000Y-59150000D02*
X127100000Y-59450000D01*
X127100000Y-59450000D02*
X127700000Y-59450000D01*
X127700000Y-59450000D02*
X127700000Y-59150000D01*
%TO.C,C81*%
X121150000Y-65400000D02*
X120850000Y-65400000D01*
X120850000Y-66000000D02*
X121150000Y-66000000D01*
X121150000Y-66000000D02*
X121150000Y-65400000D01*
X120850000Y-65400000D02*
X120850000Y-66000000D01*
%TO.C,C82*%
X122300000Y-65850000D02*
X122900000Y-65850000D01*
X122900000Y-65850000D02*
X122900000Y-65550000D01*
X122900000Y-65550000D02*
X122300000Y-65550000D01*
X122300000Y-65550000D02*
X122300000Y-65850000D01*
%TO.C,C80*%
X121150000Y-62200000D02*
X120850000Y-62200000D01*
X121150000Y-62800000D02*
X121150000Y-62200000D01*
X120850000Y-62800000D02*
X121150000Y-62800000D01*
X120850000Y-62200000D02*
X120850000Y-62800000D01*
%TO.C,C78*%
X122900000Y-59450000D02*
X122900000Y-59150000D01*
X122300000Y-59150000D02*
X122300000Y-59450000D01*
X122300000Y-59450000D02*
X122900000Y-59450000D01*
X122900000Y-59150000D02*
X122300000Y-59150000D01*
%TO.C,C76*%
X129150000Y-59600000D02*
X129150000Y-59000000D01*
X129150000Y-59000000D02*
X128850000Y-59000000D01*
X128850000Y-59000000D02*
X128850000Y-59600000D01*
X128850000Y-59600000D02*
X129150000Y-59600000D01*
%TO.C,C75*%
X128350000Y-62200000D02*
X128050000Y-62200000D01*
X128350000Y-62800000D02*
X128350000Y-62200000D01*
X128050000Y-62800000D02*
X128350000Y-62800000D01*
X128050000Y-62200000D02*
X128050000Y-62800000D01*
%TO.C,C73*%
X120850000Y-63800000D02*
X120850000Y-64400000D01*
X121150000Y-64400000D02*
X121150000Y-63800000D01*
X120850000Y-64400000D02*
X121150000Y-64400000D01*
X121150000Y-63800000D02*
X120850000Y-63800000D01*
%TO.C,C63*%
X130950000Y-64400000D02*
X130450000Y-64400000D01*
X130450000Y-64400000D02*
X130450000Y-65400000D01*
X130950000Y-65400000D02*
X130950000Y-64400000D01*
X130450000Y-65400000D02*
X130950000Y-65400000D01*
%TO.C,C2*%
X140800000Y-65525000D02*
X140800000Y-65225000D01*
X140200000Y-65525000D02*
X140800000Y-65525000D01*
X140800000Y-65225000D02*
X140200000Y-65225000D01*
X140200000Y-65225000D02*
X140200000Y-65525000D01*
%TO.C,C52*%
X128300000Y-61450000D02*
X128900000Y-61450000D01*
X128300000Y-61150000D02*
X128300000Y-61450000D01*
X128900000Y-61150000D02*
X128300000Y-61150000D01*
X128900000Y-61450000D02*
X128900000Y-61150000D01*
%TO.C,C61*%
X123900000Y-65550000D02*
X123900000Y-65850000D01*
X124500000Y-65550000D02*
X123900000Y-65550000D01*
X123900000Y-65850000D02*
X124500000Y-65850000D01*
X124500000Y-65850000D02*
X124500000Y-65550000D01*
%TO.C,C51*%
X128850000Y-66200000D02*
X128850000Y-66800000D01*
X129150000Y-66800000D02*
X129150000Y-66200000D01*
X129150000Y-66200000D02*
X128850000Y-66200000D01*
X128850000Y-66800000D02*
X129150000Y-66800000D01*
%TO.C,C70*%
X128620000Y-69950000D02*
X128620000Y-69450000D01*
X128620000Y-69450000D02*
X127620000Y-69450000D01*
X127620000Y-69950000D02*
X128620000Y-69950000D01*
X127620000Y-69450000D02*
X127620000Y-69950000D01*
%TO.C,C60*%
X123500000Y-66350000D02*
X123500000Y-66850000D01*
X124500000Y-66350000D02*
X123500000Y-66350000D01*
X123500000Y-66850000D02*
X124500000Y-66850000D01*
X124500000Y-66850000D02*
X124500000Y-66350000D01*
%TO.C,C66*%
X123220000Y-62750000D02*
X124220000Y-62750000D01*
X124220000Y-62250000D02*
X123220000Y-62250000D01*
X124220000Y-62750000D02*
X124220000Y-62250000D01*
X123220000Y-62250000D02*
X123220000Y-62750000D01*
%TO.C,C53*%
X128900000Y-60650000D02*
X128900000Y-60350000D01*
X128900000Y-60350000D02*
X128300000Y-60350000D01*
X128300000Y-60650000D02*
X128900000Y-60650000D01*
X128300000Y-60350000D02*
X128300000Y-60650000D01*
%TO.C,C54*%
X122300000Y-57550000D02*
X122300000Y-57850000D01*
X122900000Y-57850000D02*
X122900000Y-57550000D01*
X122300000Y-57850000D02*
X122900000Y-57850000D01*
X122900000Y-57550000D02*
X122300000Y-57550000D01*
%TO.C,C79*%
X120850000Y-59600000D02*
X121150000Y-59600000D01*
X120850000Y-59000000D02*
X120850000Y-59600000D01*
X121150000Y-59000000D02*
X120850000Y-59000000D01*
X121150000Y-59600000D02*
X121150000Y-59000000D01*
%TO.C,C72*%
X121150000Y-61200000D02*
X121150000Y-60600000D01*
X121150000Y-60600000D02*
X120850000Y-60600000D01*
X120850000Y-61200000D02*
X121150000Y-61200000D01*
X120850000Y-60600000D02*
X120850000Y-61200000D01*
%TO.C,R6*%
X141600000Y-65525000D02*
X142200000Y-65525000D01*
X142200000Y-65525000D02*
X142200000Y-65225000D01*
X142200000Y-65225000D02*
X141600000Y-65225000D01*
X141600000Y-65225000D02*
X141600000Y-65525000D01*
%TO.C,R16*%
X134150000Y-54550000D02*
X133850000Y-54550000D01*
X133850000Y-54550000D02*
X133850000Y-55150000D01*
X133850000Y-55150000D02*
X134150000Y-55150000D01*
X134150000Y-55150000D02*
X134150000Y-54550000D01*
%TO.C,R24*%
X147930000Y-91565000D02*
X147930000Y-92615000D01*
X148470000Y-91565000D02*
X147930000Y-91565000D01*
X147930000Y-92615000D02*
X148470000Y-92615000D01*
X148470000Y-92615000D02*
X148470000Y-91565000D01*
%TO.C,U8*%
X124105000Y-57680000D02*
X123825000Y-57400000D01*
X125385000Y-57680000D02*
X125385000Y-56120000D01*
X123825000Y-56120000D02*
X125385000Y-56120000D01*
X123825000Y-57400000D02*
X123825000Y-56120000D01*
X125385000Y-57680000D02*
X124105000Y-57680000D01*
%TO.C,C13*%
X133850000Y-55950000D02*
X133850000Y-56550000D01*
X133850000Y-56550000D02*
X134150000Y-56550000D01*
X134150000Y-55950000D02*
X133850000Y-55950000D01*
X134150000Y-56550000D02*
X134150000Y-55950000D01*
%TO.C,U17*%
X116425000Y-74200000D02*
X119325000Y-74200000D01*
X119325000Y-72600000D02*
X116825000Y-72600000D01*
X116825000Y-72600000D02*
X116425000Y-73000000D01*
X116425000Y-73000000D02*
X116425000Y-74200000D01*
X119325000Y-74200000D02*
X119325000Y-72600000D01*
%TO.C,C15*%
X101000000Y-80950000D02*
X101000000Y-86650000D01*
X101000000Y-86650000D02*
X106000000Y-86650000D01*
X106000000Y-80950000D02*
X101000000Y-80950000D01*
X106000000Y-86650000D02*
X106000000Y-80950000D01*
%TO.C,C16*%
X112700000Y-86650000D02*
X112700000Y-80950000D01*
X107700000Y-86650000D02*
X112700000Y-86650000D01*
X112700000Y-80950000D02*
X107700000Y-80950000D01*
X107700000Y-80950000D02*
X107700000Y-86650000D01*
%TO.C,C1*%
X140800000Y-66475000D02*
X140200000Y-66475000D01*
X140200000Y-66475000D02*
X140200000Y-66775000D01*
X140800000Y-66775000D02*
X140800000Y-66475000D01*
X140200000Y-66775000D02*
X140800000Y-66775000D01*
%TO.C,R11*%
X123350000Y-74100000D02*
X123350000Y-74700000D01*
X123350000Y-74700000D02*
X123650000Y-74700000D01*
X123650000Y-74700000D02*
X123650000Y-74100000D01*
X123650000Y-74100000D02*
X123350000Y-74100000D01*
%TO.C,R9*%
X125350000Y-74100000D02*
X125350000Y-74700000D01*
X125650000Y-74100000D02*
X125350000Y-74100000D01*
X125650000Y-74700000D02*
X125650000Y-74100000D01*
X125350000Y-74700000D02*
X125650000Y-74700000D01*
%TO.C,R12*%
X122350000Y-74100000D02*
X122350000Y-74700000D01*
X122650000Y-74700000D02*
X122650000Y-74100000D01*
X122650000Y-74100000D02*
X122350000Y-74100000D01*
X122350000Y-74700000D02*
X122650000Y-74700000D01*
%TO.C,C10*%
X123650000Y-72800000D02*
X123650000Y-72200000D01*
X123350000Y-72800000D02*
X123650000Y-72800000D01*
X123350000Y-72200000D02*
X123350000Y-72800000D01*
X123650000Y-72200000D02*
X123350000Y-72200000D01*
%TO.C,C6*%
X125350000Y-72200000D02*
X125350000Y-72800000D01*
X125350000Y-72800000D02*
X125650000Y-72800000D01*
X125650000Y-72200000D02*
X125350000Y-72200000D01*
X125650000Y-72800000D02*
X125650000Y-72200000D01*
%TO.C,C11*%
X122350000Y-72800000D02*
X122650000Y-72800000D01*
X122650000Y-72200000D02*
X122350000Y-72200000D01*
X122350000Y-72200000D02*
X122350000Y-72800000D01*
X122650000Y-72800000D02*
X122650000Y-72200000D01*
%TO.C,R10*%
X124350000Y-74100000D02*
X124350000Y-74700000D01*
X124350000Y-74700000D02*
X124650000Y-74700000D01*
X124650000Y-74700000D02*
X124650000Y-74100000D01*
X124650000Y-74100000D02*
X124350000Y-74100000D01*
%TO.C,C5*%
X126350000Y-72800000D02*
X126650000Y-72800000D01*
X126650000Y-72200000D02*
X126350000Y-72200000D01*
X126650000Y-72800000D02*
X126650000Y-72200000D01*
X126350000Y-72200000D02*
X126350000Y-72800000D01*
%TO.C,C9*%
X124650000Y-72800000D02*
X124650000Y-72200000D01*
X124350000Y-72800000D02*
X124650000Y-72800000D01*
X124650000Y-72200000D02*
X124350000Y-72200000D01*
X124350000Y-72200000D02*
X124350000Y-72800000D01*
%TO.C,C4*%
X127350000Y-72800000D02*
X127650000Y-72800000D01*
X127650000Y-72200000D02*
X127350000Y-72200000D01*
X127650000Y-72800000D02*
X127650000Y-72200000D01*
X127350000Y-72200000D02*
X127350000Y-72800000D01*
%TO.C,C64*%
X129650000Y-64600000D02*
X129650000Y-65200000D01*
X129950000Y-64600000D02*
X129650000Y-64600000D01*
X129650000Y-65200000D02*
X129950000Y-65200000D01*
X129950000Y-65200000D02*
X129950000Y-64600000D01*
%TO.C,C21*%
X127100000Y-58650000D02*
X127700000Y-58650000D01*
X127700000Y-58650000D02*
X127700000Y-58350000D01*
X127100000Y-58350000D02*
X127100000Y-58650000D01*
X127700000Y-58350000D02*
X127100000Y-58350000D01*
%TO.C,U7*%
X128980000Y-55715000D02*
X127420000Y-55715000D01*
X128980000Y-55715000D02*
X128980000Y-56995000D01*
X128980000Y-56995000D02*
X128700000Y-57275000D01*
X127420000Y-57275000D02*
X127420000Y-55715000D01*
X128700000Y-57275000D02*
X127420000Y-57275000D01*
%TO.C,C17*%
X137400000Y-86650000D02*
X142400000Y-86650000D01*
X142400000Y-86650000D02*
X142400000Y-80950000D01*
X137400000Y-80950000D02*
X137400000Y-86650000D01*
X142400000Y-80950000D02*
X137400000Y-80950000D01*
%TO.C,C88*%
X117250000Y-63200000D02*
X117550000Y-63200000D01*
X117250000Y-62600000D02*
X117250000Y-63200000D01*
X117550000Y-62600000D02*
X117250000Y-62600000D01*
X117550000Y-63200000D02*
X117550000Y-62600000D01*
%TO.C,C87*%
X125500000Y-59450000D02*
X126100000Y-59450000D01*
X125500000Y-59150000D02*
X125500000Y-59450000D01*
X126100000Y-59450000D02*
X126100000Y-59150000D01*
X126100000Y-59150000D02*
X125500000Y-59150000D01*
%TO.C,C67*%
X124500000Y-59450000D02*
X124500000Y-59150000D01*
X124500000Y-59150000D02*
X123900000Y-59150000D01*
X123900000Y-59150000D02*
X123900000Y-59450000D01*
X123900000Y-59450000D02*
X124500000Y-59450000D01*
%TO.C,C22*%
X122900000Y-55950000D02*
X122300000Y-55950000D01*
X122900000Y-56250000D02*
X122900000Y-55950000D01*
X122300000Y-56250000D02*
X122900000Y-56250000D01*
X122300000Y-55950000D02*
X122300000Y-56250000D01*
%TO.C,R14*%
X134150000Y-58750000D02*
X133850000Y-58750000D01*
X134150000Y-59350000D02*
X134150000Y-58750000D01*
X133850000Y-59350000D02*
X134150000Y-59350000D01*
X133850000Y-58750000D02*
X133850000Y-59350000D01*
%TO.C,C34*%
X132450000Y-68680000D02*
X132150000Y-68680000D01*
X132150000Y-69280000D02*
X132450000Y-69280000D01*
X132450000Y-69280000D02*
X132450000Y-68680000D01*
X132150000Y-68680000D02*
X132150000Y-69280000D01*
%TO.C,C33*%
X127780000Y-67750000D02*
X127180000Y-67750000D01*
X127780000Y-68050000D02*
X127780000Y-67750000D01*
X127180000Y-68050000D02*
X127780000Y-68050000D01*
X127180000Y-67750000D02*
X127180000Y-68050000D01*
%TO.C,R67*%
X112870000Y-58050000D02*
X112270000Y-58050000D01*
X112270000Y-58350000D02*
X112870000Y-58350000D01*
X112270000Y-58050000D02*
X112270000Y-58350000D01*
X112870000Y-58350000D02*
X112870000Y-58050000D01*
%TO.C,U4*%
X140800000Y-59100000D02*
X140800000Y-54100000D01*
X136400000Y-54100000D02*
X136400000Y-58100000D01*
X137400000Y-59100000D02*
X140800000Y-59100000D01*
X136400000Y-58100000D02*
X137400000Y-59100000D01*
X140800000Y-54100000D02*
X136400000Y-54100000D01*
%TO.C,R15*%
X134150000Y-57350000D02*
X133850000Y-57350000D01*
X134150000Y-57950000D02*
X134150000Y-57350000D01*
X133850000Y-57950000D02*
X134150000Y-57950000D01*
X133850000Y-57350000D02*
X133850000Y-57950000D01*
%TO.C,R5*%
X142200000Y-66475000D02*
X141600000Y-66475000D01*
X141600000Y-66475000D02*
X141600000Y-66775000D01*
X142200000Y-66775000D02*
X142200000Y-66475000D01*
X141600000Y-66775000D02*
X142200000Y-66775000D01*
%TO.C,J1*%
X149800000Y-70300000D02*
X144400000Y-70300000D01*
X144400000Y-70300000D02*
X144400000Y-61700000D01*
X144400000Y-61700000D02*
X149800000Y-61700000D01*
X149800000Y-61700000D02*
X149800000Y-70300000D01*
%TO.C,J14*%
X116000000Y-50200000D02*
X106000000Y-50200000D01*
X106000000Y-50200000D02*
X106000000Y-55500000D01*
X106000000Y-55500000D02*
X116000000Y-55500000D01*
X116000000Y-55500000D02*
X116000000Y-50200000D01*
%TO.C,J2*%
X133300000Y-100050000D02*
X143300000Y-100050000D01*
X143300000Y-100050000D02*
X143300000Y-94750000D01*
X143300000Y-94750000D02*
X133300000Y-94750000D01*
X133300000Y-94750000D02*
X133300000Y-100050000D01*
%TO.C,J3*%
X106700000Y-100050000D02*
X116700000Y-100050000D01*
X116700000Y-100050000D02*
X116700000Y-94750000D01*
X116700000Y-94750000D02*
X106700000Y-94750000D01*
X106700000Y-94750000D02*
X106700000Y-100050000D01*
%TO.C,J4*%
X146200000Y-54900000D02*
X146900000Y-55350000D01*
X146900000Y-55350000D02*
X146200000Y-55800000D01*
X149800000Y-54900000D02*
X146200000Y-54900000D01*
X146200000Y-54900000D02*
X146200000Y-60600000D01*
X146200000Y-60600000D02*
X149800000Y-60600000D01*
X149800000Y-60600000D02*
X149800000Y-54900000D01*
%TO.C,C46*%
X129380000Y-67750000D02*
X128780000Y-67750000D01*
X128780000Y-68050000D02*
X129380000Y-68050000D01*
X129380000Y-68050000D02*
X129380000Y-67750000D01*
X128780000Y-67750000D02*
X128780000Y-68050000D01*
%TO.C,R7*%
X127650000Y-74100000D02*
X127350000Y-74100000D01*
X127350000Y-74700000D02*
X127650000Y-74700000D01*
X127650000Y-74700000D02*
X127650000Y-74100000D01*
X127350000Y-74100000D02*
X127350000Y-74700000D01*
%TO.C,C19*%
X130550000Y-67900000D02*
X130250000Y-67900000D01*
X130250000Y-68500000D02*
X130550000Y-68500000D01*
X130250000Y-67900000D02*
X130250000Y-68500000D01*
X130550000Y-68500000D02*
X130550000Y-67900000D01*
%TO.C,C71*%
X132350000Y-66800000D02*
X132350000Y-66200000D01*
X132050000Y-66200000D02*
X132050000Y-66800000D01*
X132050000Y-66800000D02*
X132350000Y-66800000D01*
X132350000Y-66200000D02*
X132050000Y-66200000D01*
%TO.C,R55*%
X126100000Y-65550000D02*
X125500000Y-65550000D01*
X126100000Y-65850000D02*
X126100000Y-65550000D01*
X125500000Y-65550000D02*
X125500000Y-65850000D01*
X125500000Y-65850000D02*
X126100000Y-65850000D01*
%TO.C,C48*%
X131020000Y-70850000D02*
X131620000Y-70850000D01*
X131620000Y-70850000D02*
X131620000Y-70550000D01*
X131620000Y-70550000D02*
X131020000Y-70550000D01*
X131020000Y-70550000D02*
X131020000Y-70850000D01*
%TO.C,C55*%
X122300000Y-57050000D02*
X122900000Y-57050000D01*
X122900000Y-57050000D02*
X122900000Y-56750000D01*
X122300000Y-56750000D02*
X122300000Y-57050000D01*
X122900000Y-56750000D02*
X122300000Y-56750000D01*
%TO.C,R25*%
X147930000Y-93575000D02*
X147930000Y-94625000D01*
X148470000Y-94625000D02*
X148470000Y-93575000D01*
X147930000Y-94625000D02*
X148470000Y-94625000D01*
X148470000Y-93575000D02*
X147930000Y-93575000D01*
%TO.C,R8*%
X126350000Y-74700000D02*
X126650000Y-74700000D01*
X126650000Y-74700000D02*
X126650000Y-74100000D01*
X126350000Y-74100000D02*
X126350000Y-74700000D01*
X126650000Y-74100000D02*
X126350000Y-74100000D01*
%TO.C,C20*%
X124150000Y-51970000D02*
X124150000Y-51370000D01*
X124150000Y-51370000D02*
X123850000Y-51370000D01*
X123850000Y-51970000D02*
X124150000Y-51970000D01*
X123850000Y-51370000D02*
X123850000Y-51970000D01*
%TO.C,C101*%
X117580000Y-70950000D02*
X118180000Y-70950000D01*
X117580000Y-70650000D02*
X117580000Y-70950000D01*
X118180000Y-70950000D02*
X118180000Y-70650000D01*
X118180000Y-70650000D02*
X117580000Y-70650000D01*
%TO.C,D5*%
X149050000Y-93575000D02*
X149050000Y-94575000D01*
X149050000Y-94575000D02*
X149550000Y-94575000D01*
X149550000Y-93775000D02*
X149050000Y-93775000D01*
X149550000Y-93575000D02*
X149050000Y-93575000D01*
X149550000Y-93675000D02*
X149050000Y-93675000D01*
X149550000Y-94575000D02*
X149550000Y-93575000D01*
%TO.C,D7*%
X141450000Y-64500000D02*
X141450000Y-63500000D01*
X140950000Y-64300000D02*
X141450000Y-64300000D01*
X140950000Y-64500000D02*
X141450000Y-64500000D01*
X141450000Y-63500000D02*
X140950000Y-63500000D01*
X140950000Y-63500000D02*
X140950000Y-64500000D01*
X140950000Y-64400000D02*
X141450000Y-64400000D01*
%TO.C,D8*%
X140950000Y-68500000D02*
X141450000Y-68500000D01*
X140950000Y-67500000D02*
X140950000Y-68500000D01*
X141450000Y-68500000D02*
X141450000Y-67500000D01*
X141450000Y-67500000D02*
X140950000Y-67500000D01*
X141450000Y-67700000D02*
X140950000Y-67700000D01*
X141450000Y-67600000D02*
X140950000Y-67600000D01*
%TO.C,R56*%
X121950000Y-60600000D02*
X121650000Y-60600000D01*
X121650000Y-60600000D02*
X121650000Y-61200000D01*
X121950000Y-61200000D02*
X121950000Y-60600000D01*
X121650000Y-61200000D02*
X121950000Y-61200000D01*
%TO.C,C35*%
X129380000Y-70550000D02*
X128780000Y-70550000D01*
X129380000Y-70850000D02*
X129380000Y-70550000D01*
X128780000Y-70550000D02*
X128780000Y-70850000D01*
X128780000Y-70850000D02*
X129380000Y-70850000D01*
%TO.C,R28*%
X132650000Y-61500000D02*
X132350000Y-61500000D01*
X132350000Y-61500000D02*
X132350000Y-62100000D01*
X132650000Y-62100000D02*
X132650000Y-61500000D01*
X132350000Y-62100000D02*
X132650000Y-62100000D01*
%TO.C,C90*%
X117950000Y-55800000D02*
X117650000Y-55800000D01*
X117650000Y-56400000D02*
X117950000Y-56400000D01*
X117650000Y-55800000D02*
X117650000Y-56400000D01*
X117950000Y-56400000D02*
X117950000Y-55800000D01*
%TO.C,X1*%
X124700000Y-53000000D02*
X124700000Y-51000000D01*
X126300000Y-53000000D02*
X126300000Y-51500000D01*
X124700000Y-53000000D02*
X126300000Y-53000000D01*
X125800000Y-51000000D02*
X126300000Y-51500000D01*
X124700000Y-51000000D02*
X125800000Y-51000000D01*
%TO.C,C84*%
X128350000Y-64400000D02*
X128350000Y-63800000D01*
X128050000Y-63800000D02*
X128050000Y-64400000D01*
X128350000Y-63800000D02*
X128050000Y-63800000D01*
X128050000Y-64400000D02*
X128350000Y-64400000D01*
%TO.C,C85*%
X127700000Y-65550000D02*
X127100000Y-65550000D01*
X127700000Y-65850000D02*
X127700000Y-65550000D01*
X127100000Y-65850000D02*
X127700000Y-65850000D01*
X127100000Y-65550000D02*
X127100000Y-65850000D01*
D12*
%TO.C,J8*%
X134500000Y-69500000D02*
X135500000Y-70500000D01*
X135500000Y-59500000D02*
X134500000Y-60500000D01*
X139500000Y-70500000D02*
X139500000Y-59500000D01*
X135500000Y-70500000D02*
X139500000Y-70500000D01*
X139500000Y-59500000D02*
X135500000Y-59500000D01*
X134500000Y-60500000D02*
X134500000Y-69500000D01*
D11*
%TO.C,C74*%
X125500000Y-66350000D02*
X125500000Y-66650000D01*
X126100000Y-66350000D02*
X125500000Y-66350000D01*
X125500000Y-66650000D02*
X126100000Y-66650000D01*
X126100000Y-66650000D02*
X126100000Y-66350000D01*
%TO.C,C77*%
X123900000Y-58350000D02*
X123900000Y-58650000D01*
X124500000Y-58350000D02*
X123900000Y-58350000D01*
X124500000Y-58650000D02*
X124500000Y-58350000D01*
X123900000Y-58650000D02*
X124500000Y-58650000D01*
%TO.C,C95*%
X144700000Y-91150000D02*
X144700000Y-94350000D01*
X147200000Y-91150000D02*
X144700000Y-91150000D01*
X147200000Y-94350000D02*
X147200000Y-91150000D01*
X144700000Y-94350000D02*
X147200000Y-94350000D01*
%TO.C,R27*%
X127855000Y-53850000D02*
X127855000Y-54150000D01*
X128455000Y-54150000D02*
X128455000Y-53850000D01*
X128455000Y-53850000D02*
X127855000Y-53850000D01*
X127855000Y-54150000D02*
X128455000Y-54150000D01*
D13*
%TO.C,D1*%
X143675000Y-55200001D02*
X143675000Y-58799999D01*
X143675000Y-58799999D02*
X145125000Y-58799999D01*
X143675000Y-55200001D02*
X145125000Y-55200001D01*
X145125000Y-55200001D02*
X145125000Y-58799999D01*
X144226775Y-58400000D02*
G75*
G03*
X144226775Y-58400000I-176774J0D01*
G01*
D11*
%TO.C,J13*%
X122000000Y-100050000D02*
X128000000Y-100050000D01*
X128000000Y-100050000D02*
X128000000Y-94750000D01*
X128000000Y-94750000D02*
X122000000Y-94750000D01*
X122000000Y-94750000D02*
X122000000Y-100050000D01*
%TO.C,R13*%
X145050000Y-59820000D02*
X145050000Y-59220000D01*
X144750000Y-59220000D02*
X144750000Y-59820000D01*
X145050000Y-59220000D02*
X144750000Y-59220000D01*
X144750000Y-59820000D02*
X145050000Y-59820000D01*
%TO.C,U15*%
X130400000Y-83300000D02*
X131000000Y-83800000D01*
X135400000Y-78250000D02*
X135400000Y-83800000D01*
X130400000Y-78250000D02*
X135400000Y-78250000D01*
X131000000Y-83800000D02*
X135400000Y-83800000D01*
X130400000Y-78250000D02*
X130400000Y-83300000D01*
%TO.C,C96*%
X131900000Y-91150000D02*
X129400000Y-91150000D01*
X129400000Y-91150000D02*
X129400000Y-94350000D01*
X129400000Y-94350000D02*
X131900000Y-94350000D01*
X131900000Y-94350000D02*
X131900000Y-91150000D01*
%TO.C,R68*%
X110380000Y-58050000D02*
X110380000Y-58350000D01*
X110380000Y-58350000D02*
X110980000Y-58350000D01*
X110980000Y-58050000D02*
X110380000Y-58050000D01*
X110980000Y-58350000D02*
X110980000Y-58050000D01*
%TO.C,R59*%
X109550000Y-60380000D02*
X109550000Y-60980000D01*
X109850000Y-60380000D02*
X109550000Y-60380000D01*
X109550000Y-60980000D02*
X109850000Y-60980000D01*
X109850000Y-60980000D02*
X109850000Y-60380000D01*
%TO.C,R60*%
X103950000Y-60980000D02*
X103950000Y-60380000D01*
X103950000Y-60380000D02*
X103650000Y-60380000D01*
X103650000Y-60980000D02*
X103950000Y-60980000D01*
X103650000Y-60380000D02*
X103650000Y-60980000D01*
%TO.C,R57*%
X136050000Y-78950000D02*
X136050000Y-79550000D01*
X136050000Y-79550000D02*
X136350000Y-79550000D01*
X136350000Y-79550000D02*
X136350000Y-78950000D01*
X136350000Y-78950000D02*
X136050000Y-78950000D01*
%TO.C,C98*%
X133175000Y-77400000D02*
X134425000Y-77400000D01*
X134425000Y-75400000D02*
X133175000Y-75400000D01*
X134425000Y-77400000D02*
X134425000Y-75400000D01*
X133175000Y-75400000D02*
X133175000Y-77400000D01*
%TO.C,C18*%
X144100000Y-80950000D02*
X144100000Y-86650000D01*
X144100000Y-86650000D02*
X149100000Y-86650000D01*
X149100000Y-80950000D02*
X144100000Y-80950000D01*
X149100000Y-86650000D02*
X149100000Y-80950000D01*
%TO.C,R58*%
X136850000Y-79550000D02*
X137150000Y-79550000D01*
X137150000Y-79550000D02*
X137150000Y-78950000D01*
X136850000Y-78950000D02*
X136850000Y-79550000D01*
X137150000Y-78950000D02*
X136850000Y-78950000D01*
%TO.C,R61*%
X120150000Y-73420000D02*
X119850000Y-73420000D01*
X119850000Y-74020000D02*
X120150000Y-74020000D01*
X119850000Y-73420000D02*
X119850000Y-74020000D01*
X120150000Y-74020000D02*
X120150000Y-73420000D01*
%TO.C,R49*%
X120550000Y-81695000D02*
X120550000Y-81095000D01*
X120250000Y-81095000D02*
X120250000Y-81695000D01*
X120550000Y-81095000D02*
X120250000Y-81095000D01*
X120250000Y-81695000D02*
X120550000Y-81695000D01*
%TO.C,C57*%
X120600000Y-91150000D02*
X118100000Y-91150000D01*
X120600000Y-94350000D02*
X120600000Y-91150000D01*
X118100000Y-91150000D02*
X118100000Y-94350000D01*
X118100000Y-94350000D02*
X120600000Y-94350000D01*
%TO.C,R48*%
X121250000Y-79550000D02*
X121250000Y-78950000D01*
X121250000Y-78950000D02*
X120950000Y-78950000D01*
X120950000Y-79550000D02*
X121250000Y-79550000D01*
X120950000Y-78950000D02*
X120950000Y-79550000D01*
%TO.C,C97*%
X128350000Y-83300000D02*
X129150000Y-83300000D01*
X129150000Y-83300000D02*
X129150000Y-81700000D01*
X128350000Y-81700000D02*
X128350000Y-83300000D01*
X129150000Y-81700000D02*
X128350000Y-81700000D01*
%TO.C,C56*%
X105300000Y-91150000D02*
X102800000Y-91150000D01*
X102800000Y-91150000D02*
X102800000Y-94350000D01*
X105300000Y-94350000D02*
X105300000Y-91150000D01*
X102800000Y-94350000D02*
X105300000Y-94350000D01*
%TO.C,U11*%
X114600000Y-78250000D02*
X114600000Y-83300000D01*
X114600000Y-83300000D02*
X115200000Y-83800000D01*
X114600000Y-78250000D02*
X119600000Y-78250000D01*
X119600000Y-78250000D02*
X119600000Y-83800000D01*
X115200000Y-83800000D02*
X119600000Y-83800000D01*
%TO.C,R63*%
X123200000Y-91100000D02*
X126800000Y-91100000D01*
X126800000Y-91100000D02*
X126800000Y-92700000D01*
X127540000Y-91900000D02*
X126800000Y-91900000D01*
X126800000Y-92700000D02*
X123200000Y-92700000D01*
X123200000Y-92700000D02*
X123200000Y-91100000D01*
X122460000Y-91900000D02*
X123200000Y-91900000D01*
%TO.C,C12*%
X144050000Y-59220000D02*
X143750000Y-59220000D01*
X144050000Y-59820000D02*
X144050000Y-59220000D01*
X143750000Y-59220000D02*
X143750000Y-59820000D01*
X143750000Y-59820000D02*
X144050000Y-59820000D01*
%TO.C,C58*%
X123900000Y-81700000D02*
X123100000Y-81700000D01*
X123900000Y-83300000D02*
X123900000Y-81700000D01*
X123100000Y-81700000D02*
X123100000Y-83300000D01*
X123100000Y-83300000D02*
X123900000Y-83300000D01*
%TO.C,R50*%
X120250000Y-79590000D02*
X120250000Y-80190000D01*
X120550000Y-80190000D02*
X120550000Y-79590000D01*
X120250000Y-80190000D02*
X120550000Y-80190000D01*
X120550000Y-79590000D02*
X120250000Y-79590000D01*
%TO.C,C59*%
X129000000Y-77875000D02*
X127000000Y-77875000D01*
X127000000Y-79125000D02*
X129000000Y-79125000D01*
X127000000Y-77875000D02*
X127000000Y-79125000D01*
X129000000Y-79125000D02*
X129000000Y-77875000D01*
%TD*%
M02*
