%TF.GenerationSoftware,KiCad,Pcbnew,(5.1.6)-1*%
%TF.CreationDate,2020-12-14T17:26:25+01:00*%
%TF.ProjectId,omodri_laas,6f6d6f64-7269-45f6-9c61-61732e6b6963,1.0*%
%TF.SameCoordinates,Original*%
%TF.FileFunction,Legend,Top*%
%TF.FilePolarity,Positive*%
%FSLAX46Y46*%
G04 Gerber Fmt 4.6, Leading zero omitted, Abs format (unit mm)*
G04 Created by KiCad (PCBNEW (5.1.6)-1) date 2020-12-14 17:26:25*
%MOMM*%
%LPD*%
G01*
G04 APERTURE LIST*
%ADD10C,0.120000*%
%ADD11C,0.300000*%
%ADD12C,0.152400*%
%ADD13C,0.100000*%
%ADD14C,0.010000*%
%ADD15C,0.150000*%
G04 APERTURE END LIST*
D10*
X141457142Y-81571428D02*
X141457142Y-80971428D01*
X141685714Y-80971428D01*
X141742857Y-81000000D01*
X141771428Y-81028571D01*
X141800000Y-81085714D01*
X141800000Y-81171428D01*
X141771428Y-81228571D01*
X141742857Y-81257142D01*
X141685714Y-81285714D01*
X141457142Y-81285714D01*
X142171428Y-80971428D02*
X142285714Y-80971428D01*
X142342857Y-81000000D01*
X142400000Y-81057142D01*
X142428571Y-81171428D01*
X142428571Y-81371428D01*
X142400000Y-81485714D01*
X142342857Y-81542857D01*
X142285714Y-81571428D01*
X142171428Y-81571428D01*
X142114285Y-81542857D01*
X142057142Y-81485714D01*
X142028571Y-81371428D01*
X142028571Y-81171428D01*
X142057142Y-81057142D01*
X142114285Y-81000000D01*
X142171428Y-80971428D01*
X142628571Y-80971428D02*
X142771428Y-81571428D01*
X142885714Y-81142857D01*
X143000000Y-81571428D01*
X143142857Y-80971428D01*
X143371428Y-81257142D02*
X143571428Y-81257142D01*
X143657142Y-81571428D02*
X143371428Y-81571428D01*
X143371428Y-80971428D01*
X143657142Y-80971428D01*
X144257142Y-81571428D02*
X144057142Y-81285714D01*
X143914285Y-81571428D02*
X143914285Y-80971428D01*
X144142857Y-80971428D01*
X144200000Y-81000000D01*
X144228571Y-81028571D01*
X144257142Y-81085714D01*
X144257142Y-81171428D01*
X144228571Y-81228571D01*
X144200000Y-81257142D01*
X144142857Y-81285714D01*
X143914285Y-81285714D01*
X144371428Y-81628571D02*
X144828571Y-81628571D01*
X144971428Y-81571428D02*
X144971428Y-80971428D01*
X145171428Y-81400000D01*
X145371428Y-80971428D01*
X145371428Y-81571428D01*
X145628571Y-81028571D02*
X145657142Y-81000000D01*
X145714285Y-80971428D01*
X145857142Y-80971428D01*
X145914285Y-81000000D01*
X145942857Y-81028571D01*
X145971428Y-81085714D01*
X145971428Y-81142857D01*
X145942857Y-81228571D01*
X145600000Y-81571428D01*
X145971428Y-81571428D01*
X103657142Y-81371428D02*
X103657142Y-80771428D01*
X103885714Y-80771428D01*
X103942857Y-80800000D01*
X103971428Y-80828571D01*
X104000000Y-80885714D01*
X104000000Y-80971428D01*
X103971428Y-81028571D01*
X103942857Y-81057142D01*
X103885714Y-81085714D01*
X103657142Y-81085714D01*
X104371428Y-80771428D02*
X104485714Y-80771428D01*
X104542857Y-80800000D01*
X104600000Y-80857142D01*
X104628571Y-80971428D01*
X104628571Y-81171428D01*
X104600000Y-81285714D01*
X104542857Y-81342857D01*
X104485714Y-81371428D01*
X104371428Y-81371428D01*
X104314285Y-81342857D01*
X104257142Y-81285714D01*
X104228571Y-81171428D01*
X104228571Y-80971428D01*
X104257142Y-80857142D01*
X104314285Y-80800000D01*
X104371428Y-80771428D01*
X104828571Y-80771428D02*
X104971428Y-81371428D01*
X105085714Y-80942857D01*
X105200000Y-81371428D01*
X105342857Y-80771428D01*
X105571428Y-81057142D02*
X105771428Y-81057142D01*
X105857142Y-81371428D02*
X105571428Y-81371428D01*
X105571428Y-80771428D01*
X105857142Y-80771428D01*
X106457142Y-81371428D02*
X106257142Y-81085714D01*
X106114285Y-81371428D02*
X106114285Y-80771428D01*
X106342857Y-80771428D01*
X106400000Y-80800000D01*
X106428571Y-80828571D01*
X106457142Y-80885714D01*
X106457142Y-80971428D01*
X106428571Y-81028571D01*
X106400000Y-81057142D01*
X106342857Y-81085714D01*
X106114285Y-81085714D01*
X106571428Y-81428571D02*
X107028571Y-81428571D01*
X107171428Y-81371428D02*
X107171428Y-80771428D01*
X107371428Y-81200000D01*
X107571428Y-80771428D01*
X107571428Y-81371428D01*
X108171428Y-81371428D02*
X107828571Y-81371428D01*
X108000000Y-81371428D02*
X108000000Y-80771428D01*
X107942857Y-80857142D01*
X107885714Y-80914285D01*
X107828571Y-80942857D01*
X141628571Y-95428571D02*
X141571428Y-95400000D01*
X141514285Y-95342857D01*
X141428571Y-95257142D01*
X141371428Y-95228571D01*
X141314285Y-95228571D01*
X141342857Y-95371428D02*
X141285714Y-95342857D01*
X141228571Y-95285714D01*
X141200000Y-95171428D01*
X141200000Y-94971428D01*
X141228571Y-94857142D01*
X141285714Y-94800000D01*
X141342857Y-94771428D01*
X141457142Y-94771428D01*
X141514285Y-94800000D01*
X141571428Y-94857142D01*
X141600000Y-94971428D01*
X141600000Y-95171428D01*
X141571428Y-95285714D01*
X141514285Y-95342857D01*
X141457142Y-95371428D01*
X141342857Y-95371428D01*
X142114285Y-94971428D02*
X142114285Y-95371428D01*
X141857142Y-94971428D02*
X141857142Y-95285714D01*
X141885714Y-95342857D01*
X141942857Y-95371428D01*
X142028571Y-95371428D01*
X142085714Y-95342857D01*
X142114285Y-95314285D01*
X142657142Y-95371428D02*
X142657142Y-95057142D01*
X142628571Y-95000000D01*
X142571428Y-94971428D01*
X142457142Y-94971428D01*
X142400000Y-95000000D01*
X142657142Y-95342857D02*
X142600000Y-95371428D01*
X142457142Y-95371428D01*
X142400000Y-95342857D01*
X142371428Y-95285714D01*
X142371428Y-95228571D01*
X142400000Y-95171428D01*
X142457142Y-95142857D01*
X142600000Y-95142857D01*
X142657142Y-95114285D01*
X143200000Y-95371428D02*
X143200000Y-94771428D01*
X143200000Y-95342857D02*
X143142857Y-95371428D01*
X143028571Y-95371428D01*
X142971428Y-95342857D01*
X142942857Y-95314285D01*
X142914285Y-95257142D01*
X142914285Y-95085714D01*
X142942857Y-95028571D01*
X142971428Y-95000000D01*
X143028571Y-94971428D01*
X143142857Y-94971428D01*
X143200000Y-95000000D01*
X143485714Y-95057142D02*
X143685714Y-95057142D01*
X143771428Y-95371428D02*
X143485714Y-95371428D01*
X143485714Y-94771428D01*
X143771428Y-94771428D01*
X144028571Y-94971428D02*
X144028571Y-95371428D01*
X144028571Y-95028571D02*
X144057142Y-95000000D01*
X144114285Y-94971428D01*
X144200000Y-94971428D01*
X144257142Y-95000000D01*
X144285714Y-95057142D01*
X144285714Y-95371428D01*
X144828571Y-95342857D02*
X144771428Y-95371428D01*
X144657142Y-95371428D01*
X144600000Y-95342857D01*
X144571428Y-95314285D01*
X144542857Y-95257142D01*
X144542857Y-95085714D01*
X144571428Y-95028571D01*
X144600000Y-95000000D01*
X144657142Y-94971428D01*
X144771428Y-94971428D01*
X144828571Y-95000000D01*
X145057142Y-94828571D02*
X145085714Y-94800000D01*
X145142857Y-94771428D01*
X145285714Y-94771428D01*
X145342857Y-94800000D01*
X145371428Y-94828571D01*
X145400000Y-94885714D01*
X145400000Y-94942857D01*
X145371428Y-95028571D01*
X145028571Y-95371428D01*
X145400000Y-95371428D01*
X105028571Y-95428571D02*
X104971428Y-95400000D01*
X104914285Y-95342857D01*
X104828571Y-95257142D01*
X104771428Y-95228571D01*
X104714285Y-95228571D01*
X104742857Y-95371428D02*
X104685714Y-95342857D01*
X104628571Y-95285714D01*
X104600000Y-95171428D01*
X104600000Y-94971428D01*
X104628571Y-94857142D01*
X104685714Y-94800000D01*
X104742857Y-94771428D01*
X104857142Y-94771428D01*
X104914285Y-94800000D01*
X104971428Y-94857142D01*
X105000000Y-94971428D01*
X105000000Y-95171428D01*
X104971428Y-95285714D01*
X104914285Y-95342857D01*
X104857142Y-95371428D01*
X104742857Y-95371428D01*
X105514285Y-94971428D02*
X105514285Y-95371428D01*
X105257142Y-94971428D02*
X105257142Y-95285714D01*
X105285714Y-95342857D01*
X105342857Y-95371428D01*
X105428571Y-95371428D01*
X105485714Y-95342857D01*
X105514285Y-95314285D01*
X106057142Y-95371428D02*
X106057142Y-95057142D01*
X106028571Y-95000000D01*
X105971428Y-94971428D01*
X105857142Y-94971428D01*
X105800000Y-95000000D01*
X106057142Y-95342857D02*
X106000000Y-95371428D01*
X105857142Y-95371428D01*
X105800000Y-95342857D01*
X105771428Y-95285714D01*
X105771428Y-95228571D01*
X105800000Y-95171428D01*
X105857142Y-95142857D01*
X106000000Y-95142857D01*
X106057142Y-95114285D01*
X106600000Y-95371428D02*
X106600000Y-94771428D01*
X106600000Y-95342857D02*
X106542857Y-95371428D01*
X106428571Y-95371428D01*
X106371428Y-95342857D01*
X106342857Y-95314285D01*
X106314285Y-95257142D01*
X106314285Y-95085714D01*
X106342857Y-95028571D01*
X106371428Y-95000000D01*
X106428571Y-94971428D01*
X106542857Y-94971428D01*
X106600000Y-95000000D01*
X106885714Y-95057142D02*
X107085714Y-95057142D01*
X107171428Y-95371428D02*
X106885714Y-95371428D01*
X106885714Y-94771428D01*
X107171428Y-94771428D01*
X107428571Y-94971428D02*
X107428571Y-95371428D01*
X107428571Y-95028571D02*
X107457142Y-95000000D01*
X107514285Y-94971428D01*
X107600000Y-94971428D01*
X107657142Y-95000000D01*
X107685714Y-95057142D01*
X107685714Y-95371428D01*
X108228571Y-95342857D02*
X108171428Y-95371428D01*
X108057142Y-95371428D01*
X108000000Y-95342857D01*
X107971428Y-95314285D01*
X107942857Y-95257142D01*
X107942857Y-95085714D01*
X107971428Y-95028571D01*
X108000000Y-95000000D01*
X108057142Y-94971428D01*
X108171428Y-94971428D01*
X108228571Y-95000000D01*
X108800000Y-95371428D02*
X108457142Y-95371428D01*
X108628571Y-95371428D02*
X108628571Y-94771428D01*
X108571428Y-94857142D01*
X108514285Y-94914285D01*
X108457142Y-94942857D01*
X133671428Y-51800000D02*
X134100000Y-51800000D01*
X134185714Y-51828571D01*
X134242857Y-51885714D01*
X134271428Y-51971428D01*
X134271428Y-52028571D01*
X133671428Y-51600000D02*
X133671428Y-51257142D01*
X134271428Y-51428571D02*
X133671428Y-51428571D01*
X134100000Y-51085714D02*
X134100000Y-50800000D01*
X134271428Y-51142857D02*
X133671428Y-50942857D01*
X134271428Y-50742857D01*
X133700000Y-50228571D02*
X133671428Y-50285714D01*
X133671428Y-50371428D01*
X133700000Y-50457142D01*
X133757142Y-50514285D01*
X133814285Y-50542857D01*
X133928571Y-50571428D01*
X134014285Y-50571428D01*
X134128571Y-50542857D01*
X134185714Y-50514285D01*
X134242857Y-50457142D01*
X134271428Y-50371428D01*
X134271428Y-50314285D01*
X134242857Y-50228571D01*
X134214285Y-50200000D01*
X134014285Y-50200000D01*
X134014285Y-50314285D01*
X143014285Y-56057142D02*
X142814285Y-56057142D01*
X142814285Y-56371428D02*
X142814285Y-55771428D01*
X143100000Y-55771428D01*
X143300000Y-56342857D02*
X143385714Y-56371428D01*
X143528571Y-56371428D01*
X143585714Y-56342857D01*
X143614285Y-56314285D01*
X143642857Y-56257142D01*
X143642857Y-56200000D01*
X143614285Y-56142857D01*
X143585714Y-56114285D01*
X143528571Y-56085714D01*
X143414285Y-56057142D01*
X143357142Y-56028571D01*
X143328571Y-56000000D01*
X143300000Y-55942857D01*
X143300000Y-55885714D01*
X143328571Y-55828571D01*
X143357142Y-55800000D01*
X143414285Y-55771428D01*
X143557142Y-55771428D01*
X143642857Y-55800000D01*
X143900000Y-56371428D02*
X143900000Y-55771428D01*
X144042857Y-56428571D02*
X144500000Y-56428571D01*
X144557142Y-55771428D02*
X144900000Y-55771428D01*
X144728571Y-56371428D02*
X144728571Y-55771428D01*
X145042857Y-55771428D02*
X145442857Y-56371428D01*
X145442857Y-55771428D02*
X145042857Y-56371428D01*
X134242857Y-55757142D02*
X134042857Y-55757142D01*
X134042857Y-56071428D02*
X134042857Y-55471428D01*
X134328571Y-55471428D01*
X134528571Y-56042857D02*
X134614285Y-56071428D01*
X134757142Y-56071428D01*
X134814285Y-56042857D01*
X134842857Y-56014285D01*
X134871428Y-55957142D01*
X134871428Y-55900000D01*
X134842857Y-55842857D01*
X134814285Y-55814285D01*
X134757142Y-55785714D01*
X134642857Y-55757142D01*
X134585714Y-55728571D01*
X134557142Y-55700000D01*
X134528571Y-55642857D01*
X134528571Y-55585714D01*
X134557142Y-55528571D01*
X134585714Y-55500000D01*
X134642857Y-55471428D01*
X134785714Y-55471428D01*
X134871428Y-55500000D01*
X135128571Y-56071428D02*
X135128571Y-55471428D01*
X135271428Y-56128571D02*
X135728571Y-56128571D01*
X136214285Y-56071428D02*
X136014285Y-55785714D01*
X135871428Y-56071428D02*
X135871428Y-55471428D01*
X136100000Y-55471428D01*
X136157142Y-55500000D01*
X136185714Y-55528571D01*
X136214285Y-55585714D01*
X136214285Y-55671428D01*
X136185714Y-55728571D01*
X136157142Y-55757142D01*
X136100000Y-55785714D01*
X135871428Y-55785714D01*
X136414285Y-55471428D02*
X136814285Y-56071428D01*
X136814285Y-55471428D02*
X136414285Y-56071428D01*
X109714285Y-59342857D02*
X109800000Y-59371428D01*
X109942857Y-59371428D01*
X110000000Y-59342857D01*
X110028571Y-59314285D01*
X110057142Y-59257142D01*
X110057142Y-59200000D01*
X110028571Y-59142857D01*
X110000000Y-59114285D01*
X109942857Y-59085714D01*
X109828571Y-59057142D01*
X109771428Y-59028571D01*
X109742857Y-59000000D01*
X109714285Y-58942857D01*
X109714285Y-58885714D01*
X109742857Y-58828571D01*
X109771428Y-58800000D01*
X109828571Y-58771428D01*
X109971428Y-58771428D01*
X110057142Y-58800000D01*
X110314285Y-59371428D02*
X110314285Y-58771428D01*
X110542857Y-58771428D01*
X110600000Y-58800000D01*
X110628571Y-58828571D01*
X110657142Y-58885714D01*
X110657142Y-58971428D01*
X110628571Y-59028571D01*
X110600000Y-59057142D01*
X110542857Y-59085714D01*
X110314285Y-59085714D01*
X110914285Y-59371428D02*
X110914285Y-58771428D01*
X111685714Y-59371428D02*
X111657142Y-59371428D01*
X111600000Y-59342857D01*
X111514285Y-59257142D01*
X111371428Y-59085714D01*
X111314285Y-59000000D01*
X111285714Y-58914285D01*
X111285714Y-58857142D01*
X111314285Y-58800000D01*
X111371428Y-58771428D01*
X111400000Y-58771428D01*
X111457142Y-58800000D01*
X111485714Y-58857142D01*
X111485714Y-58885714D01*
X111457142Y-58942857D01*
X111428571Y-58971428D01*
X111257142Y-59085714D01*
X111228571Y-59114285D01*
X111200000Y-59171428D01*
X111200000Y-59257142D01*
X111228571Y-59314285D01*
X111257142Y-59342857D01*
X111314285Y-59371428D01*
X111400000Y-59371428D01*
X111457142Y-59342857D01*
X111485714Y-59314285D01*
X111571428Y-59200000D01*
X111600000Y-59114285D01*
X111600000Y-59057142D01*
X112257142Y-58800000D02*
X112200000Y-58771428D01*
X112114285Y-58771428D01*
X112028571Y-58800000D01*
X111971428Y-58857142D01*
X111942857Y-58914285D01*
X111914285Y-59028571D01*
X111914285Y-59114285D01*
X111942857Y-59228571D01*
X111971428Y-59285714D01*
X112028571Y-59342857D01*
X112114285Y-59371428D01*
X112171428Y-59371428D01*
X112257142Y-59342857D01*
X112285714Y-59314285D01*
X112285714Y-59114285D01*
X112171428Y-59114285D01*
X112542857Y-59371428D02*
X112542857Y-58771428D01*
X112771428Y-58771428D01*
X112828571Y-58800000D01*
X112857142Y-58828571D01*
X112885714Y-58885714D01*
X112885714Y-58971428D01*
X112857142Y-59028571D01*
X112828571Y-59057142D01*
X112771428Y-59085714D01*
X112542857Y-59085714D01*
X113142857Y-59371428D02*
X113142857Y-58771428D01*
X113542857Y-58771428D02*
X113657142Y-58771428D01*
X113714285Y-58800000D01*
X113771428Y-58857142D01*
X113800000Y-58971428D01*
X113800000Y-59171428D01*
X113771428Y-59285714D01*
X113714285Y-59342857D01*
X113657142Y-59371428D01*
X113542857Y-59371428D01*
X113485714Y-59342857D01*
X113428571Y-59285714D01*
X113400000Y-59171428D01*
X113400000Y-58971428D01*
X113428571Y-58857142D01*
X113485714Y-58800000D01*
X113542857Y-58771428D01*
X114028571Y-59342857D02*
X114085714Y-59371428D01*
X114200000Y-59371428D01*
X114257142Y-59342857D01*
X114285714Y-59285714D01*
X114285714Y-59257142D01*
X114257142Y-59200000D01*
X114200000Y-59171428D01*
X114114285Y-59171428D01*
X114057142Y-59142857D01*
X114028571Y-59085714D01*
X114028571Y-59057142D01*
X114057142Y-59000000D01*
X114114285Y-58971428D01*
X114200000Y-58971428D01*
X114257142Y-59000000D01*
X107371428Y-54714285D02*
X107342857Y-54742857D01*
X107257142Y-54771428D01*
X107200000Y-54771428D01*
X107114285Y-54742857D01*
X107057142Y-54685714D01*
X107028571Y-54628571D01*
X107000000Y-54514285D01*
X107000000Y-54428571D01*
X107028571Y-54314285D01*
X107057142Y-54257142D01*
X107114285Y-54200000D01*
X107200000Y-54171428D01*
X107257142Y-54171428D01*
X107342857Y-54200000D01*
X107371428Y-54228571D01*
X107742857Y-54171428D02*
X107857142Y-54171428D01*
X107914285Y-54200000D01*
X107971428Y-54257142D01*
X108000000Y-54371428D01*
X108000000Y-54571428D01*
X107971428Y-54685714D01*
X107914285Y-54742857D01*
X107857142Y-54771428D01*
X107742857Y-54771428D01*
X107685714Y-54742857D01*
X107628571Y-54685714D01*
X107600000Y-54571428D01*
X107600000Y-54371428D01*
X107628571Y-54257142D01*
X107685714Y-54200000D01*
X107742857Y-54171428D01*
X108257142Y-54771428D02*
X108257142Y-54171428D01*
X108457142Y-54600000D01*
X108657142Y-54171428D01*
X108657142Y-54771428D01*
X108800000Y-54828571D02*
X109257142Y-54828571D01*
X109371428Y-54742857D02*
X109457142Y-54771428D01*
X109600000Y-54771428D01*
X109657142Y-54742857D01*
X109685714Y-54714285D01*
X109714285Y-54657142D01*
X109714285Y-54600000D01*
X109685714Y-54542857D01*
X109657142Y-54514285D01*
X109600000Y-54485714D01*
X109485714Y-54457142D01*
X109428571Y-54428571D01*
X109400000Y-54400000D01*
X109371428Y-54342857D01*
X109371428Y-54285714D01*
X109400000Y-54228571D01*
X109428571Y-54200000D01*
X109485714Y-54171428D01*
X109628571Y-54171428D01*
X109714285Y-54200000D01*
X109971428Y-54771428D02*
X109971428Y-54171428D01*
X110200000Y-54171428D01*
X110257142Y-54200000D01*
X110285714Y-54228571D01*
X110314285Y-54285714D01*
X110314285Y-54371428D01*
X110285714Y-54428571D01*
X110257142Y-54457142D01*
X110200000Y-54485714D01*
X109971428Y-54485714D01*
X110571428Y-54771428D02*
X110571428Y-54171428D01*
X100714285Y-65514285D02*
X100685714Y-65542857D01*
X100600000Y-65571428D01*
X100542857Y-65571428D01*
X100457142Y-65542857D01*
X100400000Y-65485714D01*
X100371428Y-65428571D01*
X100342857Y-65314285D01*
X100342857Y-65228571D01*
X100371428Y-65114285D01*
X100400000Y-65057142D01*
X100457142Y-65000000D01*
X100542857Y-64971428D01*
X100600000Y-64971428D01*
X100685714Y-65000000D01*
X100714285Y-65028571D01*
X100942857Y-65400000D02*
X101228571Y-65400000D01*
X100885714Y-65571428D02*
X101085714Y-64971428D01*
X101285714Y-65571428D01*
X101485714Y-65571428D02*
X101485714Y-64971428D01*
X101828571Y-65571428D01*
X101828571Y-64971428D01*
X140357142Y-67400000D02*
X140642857Y-67400000D01*
X140300000Y-67571428D02*
X140500000Y-66971428D01*
X140700000Y-67571428D01*
X140900000Y-67571428D02*
X140900000Y-66971428D01*
X141242857Y-67571428D01*
X141242857Y-66971428D01*
X141500000Y-67400000D02*
X141785714Y-67400000D01*
X141442857Y-67571428D02*
X141642857Y-66971428D01*
X141842857Y-67571428D01*
X142328571Y-67571428D02*
X142042857Y-67571428D01*
X142042857Y-66971428D01*
X142642857Y-66971428D02*
X142757142Y-66971428D01*
X142814285Y-67000000D01*
X142871428Y-67057142D01*
X142900000Y-67171428D01*
X142900000Y-67371428D01*
X142871428Y-67485714D01*
X142814285Y-67542857D01*
X142757142Y-67571428D01*
X142642857Y-67571428D01*
X142585714Y-67542857D01*
X142528571Y-67485714D01*
X142500000Y-67371428D01*
X142500000Y-67171428D01*
X142528571Y-67057142D01*
X142585714Y-67000000D01*
X142642857Y-66971428D01*
X143471428Y-67000000D02*
X143414285Y-66971428D01*
X143328571Y-66971428D01*
X143242857Y-67000000D01*
X143185714Y-67057142D01*
X143157142Y-67114285D01*
X143128571Y-67228571D01*
X143128571Y-67314285D01*
X143157142Y-67428571D01*
X143185714Y-67485714D01*
X143242857Y-67542857D01*
X143328571Y-67571428D01*
X143385714Y-67571428D01*
X143471428Y-67542857D01*
X143500000Y-67514285D01*
X143500000Y-67314285D01*
X143385714Y-67314285D01*
X143614285Y-67628571D02*
X144071428Y-67628571D01*
X144214285Y-67571428D02*
X144214285Y-66971428D01*
X144500000Y-67571428D02*
X144500000Y-66971428D01*
X144842857Y-67571428D01*
X144842857Y-66971428D01*
X145100000Y-67028571D02*
X145128571Y-67000000D01*
X145185714Y-66971428D01*
X145328571Y-66971428D01*
X145385714Y-67000000D01*
X145414285Y-67028571D01*
X145442857Y-67085714D01*
X145442857Y-67142857D01*
X145414285Y-67228571D01*
X145071428Y-67571428D01*
X145442857Y-67571428D01*
X104657142Y-72600000D02*
X104942857Y-72600000D01*
X104600000Y-72771428D02*
X104800000Y-72171428D01*
X105000000Y-72771428D01*
X105200000Y-72771428D02*
X105200000Y-72171428D01*
X105542857Y-72771428D01*
X105542857Y-72171428D01*
X105800000Y-72600000D02*
X106085714Y-72600000D01*
X105742857Y-72771428D02*
X105942857Y-72171428D01*
X106142857Y-72771428D01*
X106628571Y-72771428D02*
X106342857Y-72771428D01*
X106342857Y-72171428D01*
X106942857Y-72171428D02*
X107057142Y-72171428D01*
X107114285Y-72200000D01*
X107171428Y-72257142D01*
X107200000Y-72371428D01*
X107200000Y-72571428D01*
X107171428Y-72685714D01*
X107114285Y-72742857D01*
X107057142Y-72771428D01*
X106942857Y-72771428D01*
X106885714Y-72742857D01*
X106828571Y-72685714D01*
X106800000Y-72571428D01*
X106800000Y-72371428D01*
X106828571Y-72257142D01*
X106885714Y-72200000D01*
X106942857Y-72171428D01*
X107771428Y-72200000D02*
X107714285Y-72171428D01*
X107628571Y-72171428D01*
X107542857Y-72200000D01*
X107485714Y-72257142D01*
X107457142Y-72314285D01*
X107428571Y-72428571D01*
X107428571Y-72514285D01*
X107457142Y-72628571D01*
X107485714Y-72685714D01*
X107542857Y-72742857D01*
X107628571Y-72771428D01*
X107685714Y-72771428D01*
X107771428Y-72742857D01*
X107800000Y-72714285D01*
X107800000Y-72514285D01*
X107685714Y-72514285D01*
X107914285Y-72828571D02*
X108371428Y-72828571D01*
X108514285Y-72771428D02*
X108514285Y-72171428D01*
X108800000Y-72771428D02*
X108800000Y-72171428D01*
X109142857Y-72771428D01*
X109142857Y-72171428D01*
X109742857Y-72771428D02*
X109400000Y-72771428D01*
X109571428Y-72771428D02*
X109571428Y-72171428D01*
X109514285Y-72257142D01*
X109457142Y-72314285D01*
X109400000Y-72342857D01*
D11*
X122685714Y-76378571D02*
X122685714Y-77878571D01*
X123400000Y-77164285D02*
X123471428Y-77307142D01*
X123614285Y-77378571D01*
X122685714Y-77164285D02*
X122757142Y-77307142D01*
X122900000Y-77378571D01*
X123185714Y-77378571D01*
X123328571Y-77307142D01*
X123400000Y-77164285D01*
X123400000Y-76378571D01*
X124542857Y-75878571D02*
X124828571Y-75878571D01*
X124971428Y-75950000D01*
X125114285Y-76092857D01*
X125185714Y-76378571D01*
X125185714Y-76878571D01*
X125114285Y-77164285D01*
X124971428Y-77307142D01*
X124828571Y-77378571D01*
X124542857Y-77378571D01*
X124400000Y-77307142D01*
X124257142Y-77164285D01*
X124185714Y-76878571D01*
X124185714Y-76378571D01*
X124257142Y-76092857D01*
X124400000Y-75950000D01*
X124542857Y-75878571D01*
X125828571Y-77378571D02*
X125828571Y-75878571D01*
X126328571Y-76950000D01*
X126828571Y-75878571D01*
X126828571Y-77378571D01*
X127828571Y-75878571D02*
X128114285Y-75878571D01*
X128257142Y-75950000D01*
X128400000Y-76092857D01*
X128471428Y-76378571D01*
X128471428Y-76878571D01*
X128400000Y-77164285D01*
X128257142Y-77307142D01*
X128114285Y-77378571D01*
X127828571Y-77378571D01*
X127685714Y-77307142D01*
X127542857Y-77164285D01*
X127471428Y-76878571D01*
X127471428Y-76378571D01*
X127542857Y-76092857D01*
X127685714Y-75950000D01*
X127828571Y-75878571D01*
X129114285Y-77378571D02*
X129114285Y-75878571D01*
X129471428Y-75878571D01*
X129685714Y-75950000D01*
X129828571Y-76092857D01*
X129900000Y-76235714D01*
X129971428Y-76521428D01*
X129971428Y-76735714D01*
X129900000Y-77021428D01*
X129828571Y-77164285D01*
X129685714Y-77307142D01*
X129471428Y-77378571D01*
X129114285Y-77378571D01*
X131471428Y-77378571D02*
X130971428Y-76664285D01*
X130614285Y-77378571D02*
X130614285Y-75878571D01*
X131185714Y-75878571D01*
X131328571Y-75950000D01*
X131400000Y-76021428D01*
X131471428Y-76164285D01*
X131471428Y-76378571D01*
X131400000Y-76521428D01*
X131328571Y-76592857D01*
X131185714Y-76664285D01*
X130614285Y-76664285D01*
X132114285Y-77378571D02*
X132114285Y-75878571D01*
D12*
%TO.C,U1*%
X120999500Y-70551800D02*
X120999500Y-70805800D01*
X120999500Y-54448200D02*
X120999500Y-54194200D01*
X125000000Y-70551800D02*
X125000000Y-70805800D01*
X125000000Y-54448200D02*
X125000000Y-54194200D01*
X129000500Y-70551800D02*
X129000500Y-70805800D01*
X129000500Y-54448200D02*
X129000500Y-54194200D01*
X116948200Y-66499992D02*
X116694200Y-66499992D01*
X133051800Y-66499992D02*
X133305800Y-66499992D01*
X116948200Y-62500000D02*
X116694200Y-62500000D01*
X133051800Y-62500000D02*
X133305800Y-62500000D01*
X116948200Y-58500008D02*
X116694200Y-58500008D01*
X133051800Y-58500008D02*
X133305800Y-58500008D01*
X133178800Y-70678800D02*
X133178800Y-54321200D01*
X133178800Y-54321200D02*
X116821200Y-54321200D01*
X116821200Y-54321200D02*
X116821200Y-70678800D01*
X116821200Y-70678800D02*
X133178800Y-70678800D01*
D10*
%TO.C,J1*%
X114200000Y-55400000D02*
X115400000Y-55400000D01*
X114200000Y-55100000D02*
X114200000Y-55400000D01*
X113450000Y-55100000D02*
X114200000Y-55100000D01*
X113450000Y-55400000D02*
X113450000Y-55100000D01*
X102950000Y-55400000D02*
X113450000Y-55400000D01*
X102950000Y-55100000D02*
X102950000Y-55400000D01*
X102200000Y-55100000D02*
X102950000Y-55100000D01*
X102200000Y-55400000D02*
X102200000Y-55100000D01*
X101000000Y-55400000D02*
X102200000Y-55400000D01*
X115400000Y-55400000D02*
X115400000Y-54950000D01*
X115700000Y-55400000D02*
X115400000Y-55400000D01*
X115700000Y-56500000D02*
X115700000Y-55400000D01*
X116000000Y-56500000D02*
X115700000Y-56500000D01*
X101000000Y-55400000D02*
X101000000Y-54950000D01*
X100700000Y-55400000D02*
X101000000Y-55400000D01*
X100700000Y-56500000D02*
X100700000Y-55400000D01*
X100400000Y-56500000D02*
X100700000Y-56500000D01*
X115700000Y-57250000D02*
X116000000Y-57250000D01*
X115700000Y-58250000D02*
X115700000Y-57250000D01*
X100700000Y-58250000D02*
X115700000Y-58250000D01*
X100700000Y-57250000D02*
X100700000Y-58250000D01*
X100400000Y-57250000D02*
X100700000Y-57250000D01*
X100090000Y-58860000D02*
X102000000Y-58860000D01*
X100090000Y-56950000D02*
X100090000Y-58860000D01*
X116000000Y-54950000D02*
X100400000Y-54950000D01*
X116000000Y-58550000D02*
X116000000Y-54950000D01*
X100400000Y-58550000D02*
X116000000Y-58550000D01*
X100400000Y-54950000D02*
X100400000Y-58550000D01*
%TO.C,J13*%
X130060000Y-101710000D02*
X119940000Y-101710000D01*
X130060000Y-92490000D02*
X119940000Y-92490000D01*
X130060000Y-97390000D02*
X130060000Y-92490000D01*
X130060000Y-101710000D02*
X130060000Y-99610000D01*
X119940000Y-97390000D02*
X119940000Y-92490000D01*
X119940000Y-97390000D02*
X119350000Y-97390000D01*
X119940000Y-99610000D02*
X119350000Y-99610000D01*
X130650000Y-99610000D02*
X130060000Y-99610000D01*
X130650000Y-97390000D02*
X130060000Y-97390000D01*
X119940000Y-101710000D02*
X119940000Y-99610000D01*
X119350000Y-99610000D02*
G75*
G02*
X119350000Y-97390000I0J1110000D01*
G01*
X130650000Y-97390000D02*
G75*
G02*
X130650000Y-99610000I0J-1110000D01*
G01*
%TO.C,J12*%
X157510000Y-92260000D02*
X151410000Y-92260000D01*
X157510000Y-81740000D02*
X157510000Y-92260000D01*
X157510000Y-81740000D02*
X151410000Y-81740000D01*
X151410000Y-81140000D02*
X151410000Y-81740000D01*
X151410000Y-81140000D02*
X149360000Y-81140000D01*
X149360000Y-80300000D02*
X149360000Y-81140000D01*
X149360000Y-92860000D02*
X149360000Y-93700000D01*
X151410000Y-92860000D02*
X149360000Y-92860000D01*
X147140000Y-80300000D02*
X147140000Y-93700000D01*
X151410000Y-92260000D02*
X151410000Y-92860000D01*
X149360000Y-80300000D02*
G75*
G03*
X147140000Y-80300000I-1110000J0D01*
G01*
X147140000Y-93700000D02*
G75*
G03*
X149360000Y-93700000I1110000J0D01*
G01*
%TO.C,J11*%
X92490000Y-81740000D02*
X98590000Y-81740000D01*
X92490000Y-92260000D02*
X92490000Y-81740000D01*
X92490000Y-92260000D02*
X98590000Y-92260000D01*
X98590000Y-92860000D02*
X98590000Y-92260000D01*
X98590000Y-92860000D02*
X100640000Y-92860000D01*
X100640000Y-93700000D02*
X100640000Y-92860000D01*
X100640000Y-81140000D02*
X100640000Y-80300000D01*
X98590000Y-81140000D02*
X100640000Y-81140000D01*
X102860000Y-93700000D02*
X102860000Y-80300000D01*
X98590000Y-81740000D02*
X98590000Y-81140000D01*
X100640000Y-93700000D02*
G75*
G03*
X102860000Y-93700000I1110000J0D01*
G01*
X102860000Y-80300000D02*
G75*
G03*
X100640000Y-80300000I-1110000J0D01*
G01*
%TO.C,L1*%
X126250000Y-83962500D02*
X125500000Y-83962500D01*
X125500000Y-77962500D02*
X127000000Y-77962500D01*
X127000000Y-83962500D02*
X126250000Y-83962500D01*
D12*
%TO.C,Q1*%
X110200001Y-79850001D02*
X113399999Y-79850001D01*
X110200001Y-86149999D02*
X113399999Y-86149999D01*
%TO.C,Q3*%
X110200001Y-86850001D02*
X113399999Y-86850001D01*
X110200001Y-93149999D02*
X113399999Y-93149999D01*
%TO.C,Q4*%
X139799999Y-94149998D02*
X136600001Y-94149998D01*
X139799999Y-87850000D02*
X136600001Y-87850000D01*
%TO.C,Q6*%
X139799999Y-87149998D02*
X136600001Y-87149998D01*
X139799999Y-80850000D02*
X136600001Y-80850000D01*
D10*
%TO.C,U9*%
X138324999Y-54900000D02*
X138324999Y-56500000D01*
X141924999Y-54900000D02*
X141924999Y-56500000D01*
%TO.C,J2*%
X104950000Y-50400000D02*
X104950000Y-54000000D01*
X104950000Y-54000000D02*
X113050000Y-54000000D01*
X113050000Y-54000000D02*
X113050000Y-50400000D01*
X113050000Y-50400000D02*
X104950000Y-50400000D01*
X104640000Y-52400000D02*
X104640000Y-54310000D01*
X104640000Y-54310000D02*
X106550000Y-54310000D01*
X104950000Y-52700000D02*
X105250000Y-52700000D01*
X105250000Y-52700000D02*
X105250000Y-53700000D01*
X105250000Y-53700000D02*
X112750000Y-53700000D01*
X112750000Y-53700000D02*
X112750000Y-52700000D01*
X112750000Y-52700000D02*
X113050000Y-52700000D01*
X104950000Y-51950000D02*
X105250000Y-51950000D01*
X105250000Y-51950000D02*
X105250000Y-50850000D01*
X105250000Y-50850000D02*
X105550000Y-50850000D01*
X105550000Y-50850000D02*
X105550000Y-50400000D01*
X113050000Y-51950000D02*
X112750000Y-51950000D01*
X112750000Y-51950000D02*
X112750000Y-50850000D01*
X112750000Y-50850000D02*
X112450000Y-50850000D01*
X112450000Y-50850000D02*
X112450000Y-50400000D01*
X105550000Y-50850000D02*
X106750000Y-50850000D01*
X106750000Y-50850000D02*
X106750000Y-50550000D01*
X106750000Y-50550000D02*
X107500000Y-50550000D01*
X107500000Y-50550000D02*
X107500000Y-50850000D01*
X107500000Y-50850000D02*
X110500000Y-50850000D01*
X110500000Y-50850000D02*
X110500000Y-50550000D01*
X110500000Y-50550000D02*
X111250000Y-50550000D01*
X111250000Y-50550000D02*
X111250000Y-50850000D01*
X111250000Y-50850000D02*
X112450000Y-50850000D01*
%TO.C,J5*%
X113050000Y-99550000D02*
X113050000Y-95950000D01*
X113050000Y-95950000D02*
X104950000Y-95950000D01*
X104950000Y-95950000D02*
X104950000Y-99550000D01*
X104950000Y-99550000D02*
X113050000Y-99550000D01*
X113360000Y-97550000D02*
X113360000Y-95640000D01*
X113360000Y-95640000D02*
X111450000Y-95640000D01*
X113050000Y-97250000D02*
X112750000Y-97250000D01*
X112750000Y-97250000D02*
X112750000Y-96250000D01*
X112750000Y-96250000D02*
X105250000Y-96250000D01*
X105250000Y-96250000D02*
X105250000Y-97250000D01*
X105250000Y-97250000D02*
X104950000Y-97250000D01*
X113050000Y-98000000D02*
X112750000Y-98000000D01*
X112750000Y-98000000D02*
X112750000Y-99100000D01*
X112750000Y-99100000D02*
X112450000Y-99100000D01*
X112450000Y-99100000D02*
X112450000Y-99550000D01*
X104950000Y-98000000D02*
X105250000Y-98000000D01*
X105250000Y-98000000D02*
X105250000Y-99100000D01*
X105250000Y-99100000D02*
X105550000Y-99100000D01*
X105550000Y-99100000D02*
X105550000Y-99550000D01*
X112450000Y-99100000D02*
X111250000Y-99100000D01*
X111250000Y-99100000D02*
X111250000Y-99400000D01*
X111250000Y-99400000D02*
X110500000Y-99400000D01*
X110500000Y-99400000D02*
X110500000Y-99100000D01*
X110500000Y-99100000D02*
X107500000Y-99100000D01*
X107500000Y-99100000D02*
X107500000Y-99400000D01*
X107500000Y-99400000D02*
X106750000Y-99400000D01*
X106750000Y-99400000D02*
X106750000Y-99100000D01*
X106750000Y-99100000D02*
X105550000Y-99100000D01*
%TO.C,J6*%
X145050000Y-99550000D02*
X145050000Y-95950000D01*
X145050000Y-95950000D02*
X136950000Y-95950000D01*
X136950000Y-95950000D02*
X136950000Y-99550000D01*
X136950000Y-99550000D02*
X145050000Y-99550000D01*
X145360000Y-97550000D02*
X145360000Y-95640000D01*
X145360000Y-95640000D02*
X143450000Y-95640000D01*
X145050000Y-97250000D02*
X144750000Y-97250000D01*
X144750000Y-97250000D02*
X144750000Y-96250000D01*
X144750000Y-96250000D02*
X137250000Y-96250000D01*
X137250000Y-96250000D02*
X137250000Y-97250000D01*
X137250000Y-97250000D02*
X136950000Y-97250000D01*
X145050000Y-98000000D02*
X144750000Y-98000000D01*
X144750000Y-98000000D02*
X144750000Y-99100000D01*
X144750000Y-99100000D02*
X144450000Y-99100000D01*
X144450000Y-99100000D02*
X144450000Y-99550000D01*
X136950000Y-98000000D02*
X137250000Y-98000000D01*
X137250000Y-98000000D02*
X137250000Y-99100000D01*
X137250000Y-99100000D02*
X137550000Y-99100000D01*
X137550000Y-99100000D02*
X137550000Y-99550000D01*
X144450000Y-99100000D02*
X143250000Y-99100000D01*
X143250000Y-99100000D02*
X143250000Y-99400000D01*
X143250000Y-99400000D02*
X142500000Y-99400000D01*
X142500000Y-99400000D02*
X142500000Y-99100000D01*
X142500000Y-99100000D02*
X139500000Y-99100000D01*
X139500000Y-99100000D02*
X139500000Y-99400000D01*
X139500000Y-99400000D02*
X138750000Y-99400000D01*
X138750000Y-99400000D02*
X138750000Y-99100000D01*
X138750000Y-99100000D02*
X137550000Y-99100000D01*
%TO.C,U10*%
X139215000Y-62450000D02*
X139215000Y-64650000D01*
X139215000Y-62450000D02*
X139215000Y-60250000D01*
X144685000Y-62450000D02*
X144685000Y-64650000D01*
X144685000Y-62450000D02*
X144685000Y-58850000D01*
%TO.C,C91*%
X136027064Y-78260000D02*
X134822936Y-78260000D01*
X136027064Y-75540000D02*
X134822936Y-75540000D01*
%TO.C,C95*%
X137915000Y-73512779D02*
X137915000Y-73187221D01*
X138935000Y-73512779D02*
X138935000Y-73187221D01*
D13*
%TO.C,D3*%
X101730000Y-75205000D02*
G75*
G03*
X101730000Y-75205000I-50000J0D01*
G01*
%TO.C,D4*%
X147175000Y-73210000D02*
G75*
G03*
X147175000Y-73210000I-50000J0D01*
G01*
D10*
%TO.C,D5*%
X110905000Y-63490000D02*
X110905000Y-70790000D01*
X105405000Y-63490000D02*
X105405000Y-70790000D01*
X105405000Y-70790000D02*
X106555000Y-70790000D01*
%TO.C,R35*%
X115700000Y-80700000D02*
X115700000Y-80400000D01*
X116500000Y-79700000D02*
X118100000Y-79700000D01*
X118850000Y-80400000D02*
X118850000Y-80700000D01*
X118100000Y-86100000D02*
X116500000Y-86100000D01*
%TO.C,R44*%
X118900000Y-93300000D02*
X118900000Y-93600000D01*
X118100000Y-94300000D02*
X116500000Y-94300000D01*
X115750000Y-93600000D02*
X115750000Y-93300000D01*
X116500000Y-87900000D02*
X118100000Y-87900000D01*
%TO.C,R49*%
X134300000Y-93300000D02*
X134300000Y-93600000D01*
X133500000Y-94300000D02*
X131900000Y-94300000D01*
X131150000Y-93600000D02*
X131150000Y-93300000D01*
X131900000Y-87900000D02*
X133500000Y-87900000D01*
%TO.C,R58*%
X131100000Y-80700000D02*
X131100000Y-80400000D01*
X131900000Y-79700000D02*
X133500000Y-79700000D01*
X134250000Y-80400000D02*
X134250000Y-80700000D01*
X133500000Y-86100000D02*
X131900000Y-86100000D01*
%TO.C,SW1*%
X114450000Y-53140000D02*
X114450000Y-53440000D01*
X114450000Y-53440000D02*
X117750000Y-53440000D01*
X117750000Y-53440000D02*
X117750000Y-53140000D01*
X114450000Y-50940000D02*
X114450000Y-50640000D01*
X114450000Y-50640000D02*
X117750000Y-50640000D01*
X117750000Y-50640000D02*
X117750000Y-50940000D01*
%TO.C,U8*%
X108450000Y-59965000D02*
X106690000Y-59965000D01*
X106690000Y-63035000D02*
X109120000Y-63035000D01*
D13*
%TO.C,D1*%
X122490000Y-50700000D02*
G75*
G03*
X122490000Y-50700000I-50000J0D01*
G01*
D10*
%TO.C,Q7*%
X120455000Y-51890000D02*
X120455000Y-52390000D01*
X120455000Y-52390000D02*
X120955000Y-52390000D01*
%TO.C,U7*%
X115050000Y-97920000D02*
X116740000Y-97920000D01*
D13*
X115150000Y-95320000D02*
X116150000Y-95320000D01*
D10*
%TO.C,U17*%
X134140000Y-95645000D02*
X132450000Y-95645000D01*
D13*
X134040000Y-98245000D02*
X133040000Y-98245000D01*
D10*
%TO.C,J3*%
X100850000Y-68150000D02*
X100850000Y-66950000D01*
X100550000Y-68150000D02*
X100850000Y-68150000D01*
X100550000Y-68900000D02*
X100550000Y-68150000D01*
X100850000Y-68900000D02*
X100550000Y-68900000D01*
X100850000Y-69400000D02*
X100850000Y-68900000D01*
X100550000Y-69400000D02*
X100850000Y-69400000D01*
X100550000Y-70150000D02*
X100550000Y-69400000D01*
X100850000Y-70150000D02*
X100550000Y-70150000D01*
X100850000Y-71350000D02*
X100850000Y-70150000D01*
X100850000Y-66950000D02*
X100400000Y-66950000D01*
X100850000Y-66650000D02*
X100850000Y-66950000D01*
X101950000Y-66650000D02*
X100850000Y-66650000D01*
X101950000Y-66350000D02*
X101950000Y-66650000D01*
X100850000Y-71350000D02*
X100400000Y-71350000D01*
X100850000Y-71650000D02*
X100850000Y-71350000D01*
X101950000Y-71650000D02*
X100850000Y-71650000D01*
X101950000Y-71950000D02*
X101950000Y-71650000D01*
X102700000Y-66650000D02*
X102700000Y-66350000D01*
X103700000Y-66650000D02*
X102700000Y-66650000D01*
X103700000Y-71650000D02*
X103700000Y-66650000D01*
X102700000Y-71650000D02*
X103700000Y-71650000D01*
X102700000Y-71950000D02*
X102700000Y-71650000D01*
X104310000Y-72260000D02*
X104310000Y-70350000D01*
X102400000Y-72260000D02*
X104310000Y-72260000D01*
X100400000Y-66350000D02*
X100400000Y-71950000D01*
X104000000Y-66350000D02*
X100400000Y-66350000D01*
X104000000Y-71950000D02*
X104000000Y-66350000D01*
X100400000Y-71950000D02*
X104000000Y-71950000D01*
%TO.C,J4*%
X149150000Y-70150000D02*
X149150000Y-71350000D01*
X149450000Y-70150000D02*
X149150000Y-70150000D01*
X149450000Y-69400000D02*
X149450000Y-70150000D01*
X149150000Y-69400000D02*
X149450000Y-69400000D01*
X149150000Y-68900000D02*
X149150000Y-69400000D01*
X149450000Y-68900000D02*
X149150000Y-68900000D01*
X149450000Y-68150000D02*
X149450000Y-68900000D01*
X149150000Y-68150000D02*
X149450000Y-68150000D01*
X149150000Y-66950000D02*
X149150000Y-68150000D01*
X149150000Y-71350000D02*
X149600000Y-71350000D01*
X149150000Y-71650000D02*
X149150000Y-71350000D01*
X148050000Y-71650000D02*
X149150000Y-71650000D01*
X148050000Y-71950000D02*
X148050000Y-71650000D01*
X149150000Y-66950000D02*
X149600000Y-66950000D01*
X149150000Y-66650000D02*
X149150000Y-66950000D01*
X148050000Y-66650000D02*
X149150000Y-66650000D01*
X148050000Y-66350000D02*
X148050000Y-66650000D01*
X147300000Y-71650000D02*
X147300000Y-71950000D01*
X146300000Y-71650000D02*
X147300000Y-71650000D01*
X146300000Y-66650000D02*
X146300000Y-71650000D01*
X147300000Y-66650000D02*
X146300000Y-66650000D01*
X147300000Y-66350000D02*
X147300000Y-66650000D01*
X145690000Y-66040000D02*
X145690000Y-67950000D01*
X147600000Y-66040000D02*
X145690000Y-66040000D01*
X149600000Y-71950000D02*
X149600000Y-66350000D01*
X146000000Y-71950000D02*
X149600000Y-71950000D01*
X146000000Y-66350000D02*
X146000000Y-71950000D01*
X149600000Y-66350000D02*
X146000000Y-66350000D01*
%TO.C,J7*%
X100400000Y-63700000D02*
X104000000Y-63700000D01*
X104000000Y-63700000D02*
X104000000Y-59350000D01*
X104000000Y-59350000D02*
X100400000Y-59350000D01*
X100400000Y-59350000D02*
X100400000Y-63700000D01*
X102400000Y-64010000D02*
X104310000Y-64010000D01*
X104310000Y-64010000D02*
X104310000Y-62100000D01*
X102700000Y-63700000D02*
X102700000Y-63400000D01*
X102700000Y-63400000D02*
X103700000Y-63400000D01*
X103700000Y-63400000D02*
X103700000Y-59650000D01*
X103700000Y-59650000D02*
X102700000Y-59650000D01*
X102700000Y-59650000D02*
X102700000Y-59350000D01*
X101950000Y-63700000D02*
X101950000Y-63400000D01*
X101950000Y-63400000D02*
X100850000Y-63400000D01*
X100850000Y-63400000D02*
X100850000Y-63100000D01*
X100850000Y-63100000D02*
X100400000Y-63100000D01*
X101950000Y-59350000D02*
X101950000Y-59650000D01*
X101950000Y-59650000D02*
X100850000Y-59650000D01*
X100850000Y-59650000D02*
X100850000Y-59950000D01*
X100850000Y-59950000D02*
X100400000Y-59950000D01*
X100850000Y-63100000D02*
X100850000Y-61900000D01*
X100850000Y-61900000D02*
X100550000Y-61900000D01*
X100550000Y-61900000D02*
X100550000Y-61150000D01*
X100550000Y-61150000D02*
X100850000Y-61150000D01*
X100850000Y-61150000D02*
X100850000Y-59950000D01*
%TO.C,J8*%
X134450000Y-50400000D02*
X134450000Y-54000000D01*
X134450000Y-54000000D02*
X145050000Y-54000000D01*
X145050000Y-54000000D02*
X145050000Y-50400000D01*
X145050000Y-50400000D02*
X134450000Y-50400000D01*
X134140000Y-52400000D02*
X134140000Y-54310000D01*
X134140000Y-54310000D02*
X136050000Y-54310000D01*
X134450000Y-52700000D02*
X134750000Y-52700000D01*
X134750000Y-52700000D02*
X134750000Y-53700000D01*
X134750000Y-53700000D02*
X144750000Y-53700000D01*
X144750000Y-53700000D02*
X144750000Y-52700000D01*
X144750000Y-52700000D02*
X145050000Y-52700000D01*
X134450000Y-51950000D02*
X134750000Y-51950000D01*
X134750000Y-51950000D02*
X134750000Y-50850000D01*
X134750000Y-50850000D02*
X135050000Y-50850000D01*
X135050000Y-50850000D02*
X135050000Y-50400000D01*
X145050000Y-51950000D02*
X144750000Y-51950000D01*
X144750000Y-51950000D02*
X144750000Y-50850000D01*
X144750000Y-50850000D02*
X144450000Y-50850000D01*
X144450000Y-50850000D02*
X144450000Y-50400000D01*
X135050000Y-50850000D02*
X136250000Y-50850000D01*
X136250000Y-50850000D02*
X136250000Y-50550000D01*
X136250000Y-50550000D02*
X137000000Y-50550000D01*
X137000000Y-50550000D02*
X137000000Y-50850000D01*
X137000000Y-50850000D02*
X142500000Y-50850000D01*
X142500000Y-50850000D02*
X142500000Y-50550000D01*
X142500000Y-50550000D02*
X143250000Y-50550000D01*
X143250000Y-50550000D02*
X143250000Y-50850000D01*
X143250000Y-50850000D02*
X144450000Y-50850000D01*
%TO.C,J10*%
X149600000Y-54950000D02*
X146000000Y-54950000D01*
X146000000Y-54950000D02*
X146000000Y-65550000D01*
X146000000Y-65550000D02*
X149600000Y-65550000D01*
X149600000Y-65550000D02*
X149600000Y-54950000D01*
X147600000Y-54640000D02*
X145690000Y-54640000D01*
X145690000Y-54640000D02*
X145690000Y-56550000D01*
X147300000Y-54950000D02*
X147300000Y-55250000D01*
X147300000Y-55250000D02*
X146300000Y-55250000D01*
X146300000Y-55250000D02*
X146300000Y-65250000D01*
X146300000Y-65250000D02*
X147300000Y-65250000D01*
X147300000Y-65250000D02*
X147300000Y-65550000D01*
X148050000Y-54950000D02*
X148050000Y-55250000D01*
X148050000Y-55250000D02*
X149150000Y-55250000D01*
X149150000Y-55250000D02*
X149150000Y-55550000D01*
X149150000Y-55550000D02*
X149600000Y-55550000D01*
X148050000Y-65550000D02*
X148050000Y-65250000D01*
X148050000Y-65250000D02*
X149150000Y-65250000D01*
X149150000Y-65250000D02*
X149150000Y-64950000D01*
X149150000Y-64950000D02*
X149600000Y-64950000D01*
X149150000Y-55550000D02*
X149150000Y-56750000D01*
X149150000Y-56750000D02*
X149450000Y-56750000D01*
X149450000Y-56750000D02*
X149450000Y-57500000D01*
X149450000Y-57500000D02*
X149150000Y-57500000D01*
X149150000Y-57500000D02*
X149150000Y-63000000D01*
X149150000Y-63000000D02*
X149450000Y-63000000D01*
X149450000Y-63000000D02*
X149450000Y-63750000D01*
X149450000Y-63750000D02*
X149150000Y-63750000D01*
X149150000Y-63750000D02*
X149150000Y-64950000D01*
%TO.C,U20*%
X145635000Y-73340000D02*
X146110000Y-73340000D01*
X146110000Y-73340000D02*
X146110000Y-73815000D01*
X140365000Y-79560000D02*
X139890000Y-79560000D01*
X139890000Y-79560000D02*
X139890000Y-79085000D01*
X145635000Y-79560000D02*
X146110000Y-79560000D01*
X146110000Y-79560000D02*
X146110000Y-79085000D01*
X140365000Y-73340000D02*
X139890000Y-73340000D01*
%TO.C,X1*%
X125700000Y-53840000D02*
X125700000Y-51240000D01*
X125700000Y-51240000D02*
X122500000Y-51240000D01*
D14*
%TO.C,G1*%
G36*
X132271044Y-71350048D02*
G01*
X132158317Y-71537726D01*
X131976091Y-71795172D01*
X131746000Y-72094109D01*
X131489679Y-72406261D01*
X131228763Y-72703352D01*
X131024077Y-72918377D01*
X130782816Y-73163063D01*
X130654796Y-73304998D01*
X130631035Y-73358626D01*
X130702549Y-73338391D01*
X130789304Y-73295853D01*
X131014976Y-73167989D01*
X131310618Y-72985139D01*
X131576359Y-72810844D01*
X131824954Y-72651814D01*
X132015694Y-72547090D01*
X132109927Y-72517717D01*
X132112051Y-72519162D01*
X132078217Y-72592969D01*
X131912541Y-72728814D01*
X131635790Y-72915361D01*
X131268734Y-73141275D01*
X130832142Y-73395221D01*
X130346782Y-73665866D01*
X129833423Y-73941874D01*
X129312834Y-74211911D01*
X128805785Y-74464641D01*
X128333043Y-74688730D01*
X127915378Y-74872844D01*
X127573559Y-75005648D01*
X127527000Y-75021475D01*
X126659845Y-75272016D01*
X125749800Y-75468896D01*
X124838732Y-75606609D01*
X123968509Y-75679644D01*
X123180998Y-75682494D01*
X122764500Y-75648086D01*
X122555144Y-75587103D01*
X122489334Y-75467026D01*
X122489333Y-75466432D01*
X122502894Y-75411304D01*
X122559453Y-75371551D01*
X122682826Y-75344494D01*
X122896830Y-75327456D01*
X123225281Y-75317759D01*
X123691994Y-75312723D01*
X123865167Y-75311707D01*
X124650041Y-75295152D01*
X125327638Y-75249206D01*
X125958653Y-75165928D01*
X126603778Y-75037378D01*
X127297975Y-74862583D01*
X127661285Y-74757915D01*
X127879766Y-74682166D01*
X127949910Y-74640298D01*
X127868208Y-74637276D01*
X127631153Y-74678060D01*
X127391277Y-74730602D01*
X126838969Y-74832709D01*
X126157762Y-74917247D01*
X125387495Y-74980847D01*
X124568007Y-75020137D01*
X123829758Y-75031929D01*
X123303162Y-75029000D01*
X122922865Y-75017538D01*
X122665894Y-74993646D01*
X122509278Y-74953426D01*
X122430045Y-74892978D01*
X122405224Y-74808406D01*
X122404761Y-74790108D01*
X122418225Y-74747900D01*
X122471010Y-74715105D01*
X122581803Y-74690546D01*
X122769292Y-74673046D01*
X123052165Y-74661428D01*
X123449109Y-74654515D01*
X123978811Y-74651130D01*
X124627261Y-74650106D01*
X125353249Y-74647805D01*
X125935775Y-74640647D01*
X126400675Y-74627276D01*
X126773783Y-74606336D01*
X127080936Y-74576472D01*
X127242242Y-74552222D01*
X128105556Y-74552222D01*
X128117178Y-74602557D01*
X128162000Y-74608667D01*
X128231690Y-74577689D01*
X128218445Y-74552222D01*
X128117965Y-74542089D01*
X128105556Y-74552222D01*
X127242242Y-74552222D01*
X127347967Y-74536328D01*
X127545057Y-74496999D01*
X127606480Y-74481667D01*
X128331334Y-74481667D01*
X128373667Y-74524000D01*
X128416000Y-74481667D01*
X128373667Y-74439334D01*
X128331334Y-74481667D01*
X127606480Y-74481667D01*
X128343031Y-74297815D01*
X129038907Y-74074171D01*
X129605331Y-73835392D01*
X129813969Y-73723575D01*
X130119821Y-73511061D01*
X130493183Y-73201832D01*
X130896515Y-72831980D01*
X131292275Y-72437598D01*
X131642923Y-72054779D01*
X131910916Y-71719616D01*
X131937043Y-71682420D01*
X132102461Y-71455230D01*
X132230341Y-71303590D01*
X132292635Y-71260413D01*
X132271044Y-71350048D01*
G37*
X132271044Y-71350048D02*
X132158317Y-71537726D01*
X131976091Y-71795172D01*
X131746000Y-72094109D01*
X131489679Y-72406261D01*
X131228763Y-72703352D01*
X131024077Y-72918377D01*
X130782816Y-73163063D01*
X130654796Y-73304998D01*
X130631035Y-73358626D01*
X130702549Y-73338391D01*
X130789304Y-73295853D01*
X131014976Y-73167989D01*
X131310618Y-72985139D01*
X131576359Y-72810844D01*
X131824954Y-72651814D01*
X132015694Y-72547090D01*
X132109927Y-72517717D01*
X132112051Y-72519162D01*
X132078217Y-72592969D01*
X131912541Y-72728814D01*
X131635790Y-72915361D01*
X131268734Y-73141275D01*
X130832142Y-73395221D01*
X130346782Y-73665866D01*
X129833423Y-73941874D01*
X129312834Y-74211911D01*
X128805785Y-74464641D01*
X128333043Y-74688730D01*
X127915378Y-74872844D01*
X127573559Y-75005648D01*
X127527000Y-75021475D01*
X126659845Y-75272016D01*
X125749800Y-75468896D01*
X124838732Y-75606609D01*
X123968509Y-75679644D01*
X123180998Y-75682494D01*
X122764500Y-75648086D01*
X122555144Y-75587103D01*
X122489334Y-75467026D01*
X122489333Y-75466432D01*
X122502894Y-75411304D01*
X122559453Y-75371551D01*
X122682826Y-75344494D01*
X122896830Y-75327456D01*
X123225281Y-75317759D01*
X123691994Y-75312723D01*
X123865167Y-75311707D01*
X124650041Y-75295152D01*
X125327638Y-75249206D01*
X125958653Y-75165928D01*
X126603778Y-75037378D01*
X127297975Y-74862583D01*
X127661285Y-74757915D01*
X127879766Y-74682166D01*
X127949910Y-74640298D01*
X127868208Y-74637276D01*
X127631153Y-74678060D01*
X127391277Y-74730602D01*
X126838969Y-74832709D01*
X126157762Y-74917247D01*
X125387495Y-74980847D01*
X124568007Y-75020137D01*
X123829758Y-75031929D01*
X123303162Y-75029000D01*
X122922865Y-75017538D01*
X122665894Y-74993646D01*
X122509278Y-74953426D01*
X122430045Y-74892978D01*
X122405224Y-74808406D01*
X122404761Y-74790108D01*
X122418225Y-74747900D01*
X122471010Y-74715105D01*
X122581803Y-74690546D01*
X122769292Y-74673046D01*
X123052165Y-74661428D01*
X123449109Y-74654515D01*
X123978811Y-74651130D01*
X124627261Y-74650106D01*
X125353249Y-74647805D01*
X125935775Y-74640647D01*
X126400675Y-74627276D01*
X126773783Y-74606336D01*
X127080936Y-74576472D01*
X127242242Y-74552222D01*
X128105556Y-74552222D01*
X128117178Y-74602557D01*
X128162000Y-74608667D01*
X128231690Y-74577689D01*
X128218445Y-74552222D01*
X128117965Y-74542089D01*
X128105556Y-74552222D01*
X127242242Y-74552222D01*
X127347967Y-74536328D01*
X127545057Y-74496999D01*
X127606480Y-74481667D01*
X128331334Y-74481667D01*
X128373667Y-74524000D01*
X128416000Y-74481667D01*
X128373667Y-74439334D01*
X128331334Y-74481667D01*
X127606480Y-74481667D01*
X128343031Y-74297815D01*
X129038907Y-74074171D01*
X129605331Y-73835392D01*
X129813969Y-73723575D01*
X130119821Y-73511061D01*
X130493183Y-73201832D01*
X130896515Y-72831980D01*
X131292275Y-72437598D01*
X131642923Y-72054779D01*
X131910916Y-71719616D01*
X131937043Y-71682420D01*
X132102461Y-71455230D01*
X132230341Y-71303590D01*
X132292635Y-71260413D01*
X132271044Y-71350048D01*
G36*
X128700997Y-72853760D02*
G01*
X128754667Y-72918062D01*
X128685042Y-73012094D01*
X128564167Y-73078275D01*
X128373667Y-73151093D01*
X128585334Y-73200010D01*
X128845484Y-73249664D01*
X129007802Y-73272631D01*
X129191110Y-73358262D01*
X129253901Y-73525828D01*
X129176584Y-73721292D01*
X129172347Y-73726479D01*
X129018911Y-73802201D01*
X128748245Y-73839988D01*
X128407790Y-73841367D01*
X128044987Y-73807864D01*
X127707277Y-73741004D01*
X127505834Y-73672868D01*
X127287183Y-73582434D01*
X127181920Y-73561064D01*
X127148642Y-73609169D01*
X127146000Y-73676432D01*
X127085839Y-73809147D01*
X126925677Y-73840380D01*
X126695991Y-73776577D01*
X126427262Y-73624181D01*
X126299813Y-73523779D01*
X127887138Y-73523779D01*
X127925713Y-73605598D01*
X127930962Y-73609057D01*
X128097369Y-73644816D01*
X128147758Y-73634111D01*
X128298277Y-73608466D01*
X128540235Y-73593914D01*
X128634592Y-73592667D01*
X128859398Y-73575558D01*
X128992797Y-73532355D01*
X129008667Y-73508000D01*
X128933054Y-73457228D01*
X128742007Y-73427007D01*
X128632664Y-73423334D01*
X128393925Y-73406508D01*
X128234303Y-73364132D01*
X128206398Y-73342007D01*
X128113241Y-73326987D01*
X127991529Y-73401619D01*
X127887138Y-73523779D01*
X126299813Y-73523779D01*
X126254192Y-73487840D01*
X125876000Y-73154942D01*
X125876000Y-73825694D01*
X125239051Y-73838026D01*
X124885582Y-73835854D01*
X124671976Y-73809625D01*
X124569904Y-73754905D01*
X124556376Y-73731198D01*
X124533729Y-73576439D01*
X124532275Y-73343641D01*
X124775334Y-73343641D01*
X124788266Y-73489299D01*
X124856772Y-73564175D01*
X125025414Y-73597694D01*
X125177500Y-73609195D01*
X125420274Y-73619214D01*
X125541801Y-73589180D01*
X125589782Y-73490417D01*
X125606451Y-73351340D01*
X125613881Y-73147840D01*
X125596141Y-73031555D01*
X125593044Y-73027488D01*
X125492776Y-73015090D01*
X125284823Y-73029711D01*
X125164093Y-73045595D01*
X124926075Y-73091032D01*
X124811994Y-73155758D01*
X124777123Y-73274067D01*
X124775334Y-73343641D01*
X124532275Y-73343641D01*
X124532207Y-73332847D01*
X124537159Y-73242520D01*
X124563667Y-72873000D01*
X125228672Y-72860039D01*
X125567053Y-72857274D01*
X125788884Y-72874947D01*
X125946855Y-72927794D01*
X126093652Y-73030549D01*
X126212600Y-73135206D01*
X126404649Y-73300007D01*
X126544685Y-73404283D01*
X126584762Y-73423334D01*
X126620528Y-73349027D01*
X126637729Y-73167256D01*
X126637988Y-73139719D01*
X127146000Y-73139719D01*
X127170018Y-73236019D01*
X127270552Y-73274700D01*
X127490323Y-73270061D01*
X127527000Y-73267252D01*
X127754277Y-73234044D01*
X127890562Y-73184922D01*
X127908000Y-73160808D01*
X127834552Y-73106767D01*
X127660925Y-73084667D01*
X127431956Y-73067455D01*
X127279925Y-73033275D01*
X127169677Y-73040663D01*
X127146000Y-73139719D01*
X126637988Y-73139719D01*
X126638000Y-73138520D01*
X126638000Y-72853707D01*
X127263959Y-72839193D01*
X127657749Y-72844819D01*
X127904888Y-72885464D01*
X128007201Y-72941963D01*
X128121182Y-73016289D01*
X128227555Y-72948886D01*
X128231247Y-72944957D01*
X128370887Y-72864645D01*
X128550464Y-72833065D01*
X128700997Y-72853760D01*
G37*
X128700997Y-72853760D02*
X128754667Y-72918062D01*
X128685042Y-73012094D01*
X128564167Y-73078275D01*
X128373667Y-73151093D01*
X128585334Y-73200010D01*
X128845484Y-73249664D01*
X129007802Y-73272631D01*
X129191110Y-73358262D01*
X129253901Y-73525828D01*
X129176584Y-73721292D01*
X129172347Y-73726479D01*
X129018911Y-73802201D01*
X128748245Y-73839988D01*
X128407790Y-73841367D01*
X128044987Y-73807864D01*
X127707277Y-73741004D01*
X127505834Y-73672868D01*
X127287183Y-73582434D01*
X127181920Y-73561064D01*
X127148642Y-73609169D01*
X127146000Y-73676432D01*
X127085839Y-73809147D01*
X126925677Y-73840380D01*
X126695991Y-73776577D01*
X126427262Y-73624181D01*
X126299813Y-73523779D01*
X127887138Y-73523779D01*
X127925713Y-73605598D01*
X127930962Y-73609057D01*
X128097369Y-73644816D01*
X128147758Y-73634111D01*
X128298277Y-73608466D01*
X128540235Y-73593914D01*
X128634592Y-73592667D01*
X128859398Y-73575558D01*
X128992797Y-73532355D01*
X129008667Y-73508000D01*
X128933054Y-73457228D01*
X128742007Y-73427007D01*
X128632664Y-73423334D01*
X128393925Y-73406508D01*
X128234303Y-73364132D01*
X128206398Y-73342007D01*
X128113241Y-73326987D01*
X127991529Y-73401619D01*
X127887138Y-73523779D01*
X126299813Y-73523779D01*
X126254192Y-73487840D01*
X125876000Y-73154942D01*
X125876000Y-73825694D01*
X125239051Y-73838026D01*
X124885582Y-73835854D01*
X124671976Y-73809625D01*
X124569904Y-73754905D01*
X124556376Y-73731198D01*
X124533729Y-73576439D01*
X124532275Y-73343641D01*
X124775334Y-73343641D01*
X124788266Y-73489299D01*
X124856772Y-73564175D01*
X125025414Y-73597694D01*
X125177500Y-73609195D01*
X125420274Y-73619214D01*
X125541801Y-73589180D01*
X125589782Y-73490417D01*
X125606451Y-73351340D01*
X125613881Y-73147840D01*
X125596141Y-73031555D01*
X125593044Y-73027488D01*
X125492776Y-73015090D01*
X125284823Y-73029711D01*
X125164093Y-73045595D01*
X124926075Y-73091032D01*
X124811994Y-73155758D01*
X124777123Y-73274067D01*
X124775334Y-73343641D01*
X124532275Y-73343641D01*
X124532207Y-73332847D01*
X124537159Y-73242520D01*
X124563667Y-72873000D01*
X125228672Y-72860039D01*
X125567053Y-72857274D01*
X125788884Y-72874947D01*
X125946855Y-72927794D01*
X126093652Y-73030549D01*
X126212600Y-73135206D01*
X126404649Y-73300007D01*
X126544685Y-73404283D01*
X126584762Y-73423334D01*
X126620528Y-73349027D01*
X126637729Y-73167256D01*
X126637988Y-73139719D01*
X127146000Y-73139719D01*
X127170018Y-73236019D01*
X127270552Y-73274700D01*
X127490323Y-73270061D01*
X127527000Y-73267252D01*
X127754277Y-73234044D01*
X127890562Y-73184922D01*
X127908000Y-73160808D01*
X127834552Y-73106767D01*
X127660925Y-73084667D01*
X127431956Y-73067455D01*
X127279925Y-73033275D01*
X127169677Y-73040663D01*
X127146000Y-73139719D01*
X126637988Y-73139719D01*
X126638000Y-73138520D01*
X126638000Y-72853707D01*
X127263959Y-72839193D01*
X127657749Y-72844819D01*
X127904888Y-72885464D01*
X128007201Y-72941963D01*
X128121182Y-73016289D01*
X128227555Y-72948886D01*
X128231247Y-72944957D01*
X128370887Y-72864645D01*
X128550464Y-72833065D01*
X128700997Y-72853760D01*
G36*
X128444948Y-71008065D02*
G01*
X128560831Y-71105017D01*
X128562020Y-71108455D01*
X128512813Y-71191691D01*
X128349511Y-71260193D01*
X128335818Y-71263348D01*
X128132747Y-71327446D01*
X128095668Y-71391157D01*
X128221270Y-71450827D01*
X128506245Y-71502803D01*
X128558591Y-71509248D01*
X128925968Y-71572975D01*
X129148561Y-71667748D01*
X129249976Y-71806792D01*
X129262667Y-71903653D01*
X129225816Y-72087402D01*
X129100393Y-72211733D01*
X128864091Y-72285797D01*
X128494604Y-72318745D01*
X128241337Y-72322667D01*
X127872618Y-72318335D01*
X127635899Y-72300460D01*
X127493961Y-72261721D01*
X127409585Y-72194799D01*
X127380351Y-72153334D01*
X127280226Y-72050562D01*
X127113490Y-71998968D01*
X126831057Y-71984046D01*
X126807334Y-71984000D01*
X126515607Y-71997026D01*
X126342793Y-72045773D01*
X126239806Y-72144747D01*
X126234316Y-72153334D01*
X126062022Y-72289965D01*
X125830202Y-72322098D01*
X125612571Y-72249734D01*
X125517685Y-72153334D01*
X125357031Y-72036121D01*
X125100404Y-71978847D01*
X124810422Y-71982100D01*
X124549702Y-72046464D01*
X124403773Y-72142903D01*
X124301617Y-72222833D01*
X124145509Y-72273334D01*
X123897414Y-72301719D01*
X123519299Y-72315300D01*
X123505775Y-72315551D01*
X123143267Y-72319205D01*
X122910941Y-72308447D01*
X122769747Y-72274786D01*
X122680636Y-72209729D01*
X122615765Y-72122016D01*
X122538706Y-71925235D01*
X122501662Y-71666956D01*
X122502680Y-71397857D01*
X122539804Y-71168613D01*
X122611077Y-71029903D01*
X122658667Y-71010334D01*
X122738597Y-71060279D01*
X122792670Y-71227780D01*
X122828000Y-71518334D01*
X122870334Y-72026334D01*
X124099708Y-72111000D01*
X124381950Y-71678308D01*
X124738165Y-71678308D01*
X124794623Y-71723331D01*
X124946928Y-71730000D01*
X125119543Y-71717628D01*
X125156448Y-71658158D01*
X125114000Y-71560667D01*
X125018842Y-71427164D01*
X124962054Y-71391334D01*
X124874732Y-71454708D01*
X124794982Y-71560667D01*
X124738165Y-71678308D01*
X124381950Y-71678308D01*
X124458687Y-71560667D01*
X124644803Y-71298884D01*
X124812165Y-71104630D01*
X124929641Y-71013182D01*
X124944393Y-71010334D01*
X125050189Y-71074653D01*
X125220458Y-71245782D01*
X125423764Y-71490975D01*
X125489565Y-71578238D01*
X125908011Y-72146142D01*
X126221765Y-71678444D01*
X126593797Y-71678444D01*
X126660128Y-71723608D01*
X126805072Y-71730000D01*
X126977268Y-71719059D01*
X127011079Y-71663484D01*
X126957018Y-71560667D01*
X126851732Y-71428826D01*
X126789946Y-71391334D01*
X126706561Y-71456804D01*
X126638000Y-71560667D01*
X126593797Y-71678444D01*
X126221765Y-71678444D01*
X126270326Y-71606057D01*
X126455551Y-71339775D01*
X126613623Y-71130109D01*
X126714551Y-71016511D01*
X126723696Y-71009697D01*
X126828601Y-70996699D01*
X126962340Y-71086860D01*
X127141430Y-71295929D01*
X127378873Y-71634380D01*
X127696784Y-72111000D01*
X128310392Y-72086124D01*
X128658957Y-72061244D01*
X128857251Y-72018712D01*
X128923793Y-71954412D01*
X128924000Y-71949717D01*
X128841495Y-71869927D01*
X128593046Y-71812084D01*
X128421750Y-71792643D01*
X128082162Y-71754152D01*
X127878035Y-71701127D01*
X127775592Y-71613373D01*
X127741054Y-71470695D01*
X127738667Y-71384241D01*
X127779778Y-71177904D01*
X127933242Y-71059901D01*
X127965951Y-71046729D01*
X128229060Y-70986814D01*
X128444948Y-71008065D01*
G37*
X128444948Y-71008065D02*
X128560831Y-71105017D01*
X128562020Y-71108455D01*
X128512813Y-71191691D01*
X128349511Y-71260193D01*
X128335818Y-71263348D01*
X128132747Y-71327446D01*
X128095668Y-71391157D01*
X128221270Y-71450827D01*
X128506245Y-71502803D01*
X128558591Y-71509248D01*
X128925968Y-71572975D01*
X129148561Y-71667748D01*
X129249976Y-71806792D01*
X129262667Y-71903653D01*
X129225816Y-72087402D01*
X129100393Y-72211733D01*
X128864091Y-72285797D01*
X128494604Y-72318745D01*
X128241337Y-72322667D01*
X127872618Y-72318335D01*
X127635899Y-72300460D01*
X127493961Y-72261721D01*
X127409585Y-72194799D01*
X127380351Y-72153334D01*
X127280226Y-72050562D01*
X127113490Y-71998968D01*
X126831057Y-71984046D01*
X126807334Y-71984000D01*
X126515607Y-71997026D01*
X126342793Y-72045773D01*
X126239806Y-72144747D01*
X126234316Y-72153334D01*
X126062022Y-72289965D01*
X125830202Y-72322098D01*
X125612571Y-72249734D01*
X125517685Y-72153334D01*
X125357031Y-72036121D01*
X125100404Y-71978847D01*
X124810422Y-71982100D01*
X124549702Y-72046464D01*
X124403773Y-72142903D01*
X124301617Y-72222833D01*
X124145509Y-72273334D01*
X123897414Y-72301719D01*
X123519299Y-72315300D01*
X123505775Y-72315551D01*
X123143267Y-72319205D01*
X122910941Y-72308447D01*
X122769747Y-72274786D01*
X122680636Y-72209729D01*
X122615765Y-72122016D01*
X122538706Y-71925235D01*
X122501662Y-71666956D01*
X122502680Y-71397857D01*
X122539804Y-71168613D01*
X122611077Y-71029903D01*
X122658667Y-71010334D01*
X122738597Y-71060279D01*
X122792670Y-71227780D01*
X122828000Y-71518334D01*
X122870334Y-72026334D01*
X124099708Y-72111000D01*
X124381950Y-71678308D01*
X124738165Y-71678308D01*
X124794623Y-71723331D01*
X124946928Y-71730000D01*
X125119543Y-71717628D01*
X125156448Y-71658158D01*
X125114000Y-71560667D01*
X125018842Y-71427164D01*
X124962054Y-71391334D01*
X124874732Y-71454708D01*
X124794982Y-71560667D01*
X124738165Y-71678308D01*
X124381950Y-71678308D01*
X124458687Y-71560667D01*
X124644803Y-71298884D01*
X124812165Y-71104630D01*
X124929641Y-71013182D01*
X124944393Y-71010334D01*
X125050189Y-71074653D01*
X125220458Y-71245782D01*
X125423764Y-71490975D01*
X125489565Y-71578238D01*
X125908011Y-72146142D01*
X126221765Y-71678444D01*
X126593797Y-71678444D01*
X126660128Y-71723608D01*
X126805072Y-71730000D01*
X126977268Y-71719059D01*
X127011079Y-71663484D01*
X126957018Y-71560667D01*
X126851732Y-71428826D01*
X126789946Y-71391334D01*
X126706561Y-71456804D01*
X126638000Y-71560667D01*
X126593797Y-71678444D01*
X126221765Y-71678444D01*
X126270326Y-71606057D01*
X126455551Y-71339775D01*
X126613623Y-71130109D01*
X126714551Y-71016511D01*
X126723696Y-71009697D01*
X126828601Y-70996699D01*
X126962340Y-71086860D01*
X127141430Y-71295929D01*
X127378873Y-71634380D01*
X127696784Y-72111000D01*
X128310392Y-72086124D01*
X128658957Y-72061244D01*
X128857251Y-72018712D01*
X128923793Y-71954412D01*
X128924000Y-71949717D01*
X128841495Y-71869927D01*
X128593046Y-71812084D01*
X128421750Y-71792643D01*
X128082162Y-71754152D01*
X127878035Y-71701127D01*
X127775592Y-71613373D01*
X127741054Y-71470695D01*
X127738667Y-71384241D01*
X127779778Y-71177904D01*
X127933242Y-71059901D01*
X127965951Y-71046729D01*
X128229060Y-70986814D01*
X128444948Y-71008065D01*
%TO.C,G2*%
G36*
X111899119Y-77744928D02*
G01*
X112002495Y-77848549D01*
X112057161Y-78031354D01*
X112069339Y-78231999D01*
X112066029Y-78397314D01*
X112049819Y-78484709D01*
X112011287Y-78518009D01*
X111954810Y-78521607D01*
X111811817Y-78531157D01*
X111738477Y-78545633D01*
X111610441Y-78548908D01*
X111522144Y-78526299D01*
X111423558Y-78446842D01*
X111403383Y-78345848D01*
X111523747Y-78345848D01*
X111535265Y-78374587D01*
X111605293Y-78409219D01*
X111726501Y-78415366D01*
X111730529Y-78414993D01*
X111852471Y-78383243D01*
X111903419Y-78306695D01*
X111907448Y-78284870D01*
X111902843Y-78203076D01*
X111838390Y-78173085D01*
X111773701Y-78170341D01*
X111640649Y-78197123D01*
X111548831Y-78262906D01*
X111523747Y-78345848D01*
X111403383Y-78345848D01*
X111402160Y-78339727D01*
X111446428Y-78227231D01*
X111544835Y-78131633D01*
X111685858Y-78075211D01*
X111758943Y-78068537D01*
X111873038Y-78056673D01*
X111909433Y-78012133D01*
X111906713Y-77979459D01*
X111852567Y-77910177D01*
X111716856Y-77882278D01*
X111712099Y-77882041D01*
X111580122Y-77875218D01*
X111494791Y-77869711D01*
X111490461Y-77869315D01*
X111454801Y-77846388D01*
X111489514Y-77803692D01*
X111569534Y-77756892D01*
X111669797Y-77721651D01*
X111741823Y-77712225D01*
X111899119Y-77744928D01*
G37*
X111899119Y-77744928D02*
X112002495Y-77848549D01*
X112057161Y-78031354D01*
X112069339Y-78231999D01*
X112066029Y-78397314D01*
X112049819Y-78484709D01*
X112011287Y-78518009D01*
X111954810Y-78521607D01*
X111811817Y-78531157D01*
X111738477Y-78545633D01*
X111610441Y-78548908D01*
X111522144Y-78526299D01*
X111423558Y-78446842D01*
X111403383Y-78345848D01*
X111523747Y-78345848D01*
X111535265Y-78374587D01*
X111605293Y-78409219D01*
X111726501Y-78415366D01*
X111730529Y-78414993D01*
X111852471Y-78383243D01*
X111903419Y-78306695D01*
X111907448Y-78284870D01*
X111902843Y-78203076D01*
X111838390Y-78173085D01*
X111773701Y-78170341D01*
X111640649Y-78197123D01*
X111548831Y-78262906D01*
X111523747Y-78345848D01*
X111403383Y-78345848D01*
X111402160Y-78339727D01*
X111446428Y-78227231D01*
X111544835Y-78131633D01*
X111685858Y-78075211D01*
X111758943Y-78068537D01*
X111873038Y-78056673D01*
X111909433Y-78012133D01*
X111906713Y-77979459D01*
X111852567Y-77910177D01*
X111716856Y-77882278D01*
X111712099Y-77882041D01*
X111580122Y-77875218D01*
X111494791Y-77869711D01*
X111490461Y-77869315D01*
X111454801Y-77846388D01*
X111489514Y-77803692D01*
X111569534Y-77756892D01*
X111669797Y-77721651D01*
X111741823Y-77712225D01*
X111899119Y-77744928D01*
G36*
X113451779Y-77371558D02*
G01*
X113474108Y-77429066D01*
X113487292Y-77544291D01*
X113493402Y-77733088D01*
X113494589Y-77940713D01*
X113493840Y-78191521D01*
X113489330Y-78357665D01*
X113477665Y-78456286D01*
X113455453Y-78504521D01*
X113419300Y-78519511D01*
X113380060Y-78519196D01*
X113252630Y-78527438D01*
X113189179Y-78543848D01*
X113085181Y-78545778D01*
X113020926Y-78521176D01*
X112915693Y-78409410D01*
X112858714Y-78246652D01*
X112855693Y-78183471D01*
X112995001Y-78183471D01*
X113033188Y-78317502D01*
X113116754Y-78402004D01*
X113202396Y-78415600D01*
X113270782Y-78393805D01*
X113304748Y-78335582D01*
X113315826Y-78213556D01*
X113316433Y-78144890D01*
X113312261Y-77993804D01*
X113291159Y-77918430D01*
X113240245Y-77892753D01*
X113190404Y-77890381D01*
X113078977Y-77924484D01*
X113015869Y-78028310D01*
X112995001Y-78183471D01*
X112855693Y-78183471D01*
X112850036Y-78065216D01*
X112889702Y-77897418D01*
X112977760Y-77775573D01*
X113019841Y-77749847D01*
X113146850Y-77718506D01*
X113243852Y-77753669D01*
X113303789Y-77782728D01*
X113332509Y-77757839D01*
X113341360Y-77659521D01*
X113341884Y-77585402D01*
X113351840Y-77434270D01*
X113385705Y-77365334D01*
X113418237Y-77355912D01*
X113451779Y-77371558D01*
G37*
X113451779Y-77371558D02*
X113474108Y-77429066D01*
X113487292Y-77544291D01*
X113493402Y-77733088D01*
X113494589Y-77940713D01*
X113493840Y-78191521D01*
X113489330Y-78357665D01*
X113477665Y-78456286D01*
X113455453Y-78504521D01*
X113419300Y-78519511D01*
X113380060Y-78519196D01*
X113252630Y-78527438D01*
X113189179Y-78543848D01*
X113085181Y-78545778D01*
X113020926Y-78521176D01*
X112915693Y-78409410D01*
X112858714Y-78246652D01*
X112855693Y-78183471D01*
X112995001Y-78183471D01*
X113033188Y-78317502D01*
X113116754Y-78402004D01*
X113202396Y-78415600D01*
X113270782Y-78393805D01*
X113304748Y-78335582D01*
X113315826Y-78213556D01*
X113316433Y-78144890D01*
X113312261Y-77993804D01*
X113291159Y-77918430D01*
X113240245Y-77892753D01*
X113190404Y-77890381D01*
X113078977Y-77924484D01*
X113015869Y-78028310D01*
X112995001Y-78183471D01*
X112855693Y-78183471D01*
X112850036Y-78065216D01*
X112889702Y-77897418D01*
X112977760Y-77775573D01*
X113019841Y-77749847D01*
X113146850Y-77718506D01*
X113243852Y-77753669D01*
X113303789Y-77782728D01*
X113332509Y-77757839D01*
X113341360Y-77659521D01*
X113341884Y-77585402D01*
X113351840Y-77434270D01*
X113385705Y-77365334D01*
X113418237Y-77355912D01*
X113451779Y-77371558D01*
G36*
X115392593Y-77781046D02*
G01*
X115485304Y-77930391D01*
X115527457Y-78166465D01*
X115530662Y-78274888D01*
X115526016Y-78424676D01*
X115504197Y-78498270D01*
X115453382Y-78521138D01*
X115416132Y-78521607D01*
X115273140Y-78531157D01*
X115199800Y-78545633D01*
X115071764Y-78548908D01*
X114983467Y-78526299D01*
X114893295Y-78451573D01*
X114872710Y-78345848D01*
X114985069Y-78345848D01*
X114996588Y-78374587D01*
X115066615Y-78409219D01*
X115187823Y-78415366D01*
X115191851Y-78414993D01*
X115313794Y-78383243D01*
X115364742Y-78306695D01*
X115368771Y-78284870D01*
X115364166Y-78203076D01*
X115299712Y-78173085D01*
X115235024Y-78170341D01*
X115101971Y-78197123D01*
X115010153Y-78262906D01*
X114985069Y-78345848D01*
X114872710Y-78345848D01*
X114868938Y-78326478D01*
X114907336Y-78181686D01*
X115024789Y-78096523D01*
X115224689Y-78068538D01*
X115225637Y-78068537D01*
X115337288Y-78055805D01*
X115371254Y-78008485D01*
X115368524Y-77979459D01*
X115322866Y-77915473D01*
X115203949Y-77881549D01*
X115135733Y-77874729D01*
X114987971Y-77850641D01*
X114925630Y-77811742D01*
X114954364Y-77767061D01*
X115047094Y-77733127D01*
X115247223Y-77716076D01*
X115392593Y-77781046D01*
G37*
X115392593Y-77781046D02*
X115485304Y-77930391D01*
X115527457Y-78166465D01*
X115530662Y-78274888D01*
X115526016Y-78424676D01*
X115504197Y-78498270D01*
X115453382Y-78521138D01*
X115416132Y-78521607D01*
X115273140Y-78531157D01*
X115199800Y-78545633D01*
X115071764Y-78548908D01*
X114983467Y-78526299D01*
X114893295Y-78451573D01*
X114872710Y-78345848D01*
X114985069Y-78345848D01*
X114996588Y-78374587D01*
X115066615Y-78409219D01*
X115187823Y-78415366D01*
X115191851Y-78414993D01*
X115313794Y-78383243D01*
X115364742Y-78306695D01*
X115368771Y-78284870D01*
X115364166Y-78203076D01*
X115299712Y-78173085D01*
X115235024Y-78170341D01*
X115101971Y-78197123D01*
X115010153Y-78262906D01*
X114985069Y-78345848D01*
X114872710Y-78345848D01*
X114868938Y-78326478D01*
X114907336Y-78181686D01*
X115024789Y-78096523D01*
X115224689Y-78068538D01*
X115225637Y-78068537D01*
X115337288Y-78055805D01*
X115371254Y-78008485D01*
X115368524Y-77979459D01*
X115322866Y-77915473D01*
X115203949Y-77881549D01*
X115135733Y-77874729D01*
X114987971Y-77850641D01*
X114925630Y-77811742D01*
X114954364Y-77767061D01*
X115047094Y-77733127D01*
X115247223Y-77716076D01*
X115392593Y-77781046D01*
G36*
X116865391Y-77800421D02*
G01*
X116943243Y-77936930D01*
X116955912Y-78034369D01*
X116948753Y-78114959D01*
X116909842Y-78155157D01*
X116813025Y-78168934D01*
X116701403Y-78170341D01*
X116536236Y-78180024D01*
X116457862Y-78211530D01*
X116446894Y-78240461D01*
X116490482Y-78347092D01*
X116607187Y-78404761D01*
X116775921Y-78403100D01*
X116777198Y-78402862D01*
X116908815Y-78396114D01*
X116956433Y-78428920D01*
X116913539Y-78484369D01*
X116825344Y-78527913D01*
X116709670Y-78566062D01*
X116628230Y-78566593D01*
X116548698Y-78542230D01*
X116434034Y-78452452D01*
X116362534Y-78301309D01*
X116338791Y-78121647D01*
X116362616Y-77975611D01*
X116469240Y-77975611D01*
X116471942Y-78033898D01*
X116570392Y-78064755D01*
X116650501Y-78068537D01*
X116795692Y-78055806D01*
X116844269Y-78018004D01*
X116842595Y-78008547D01*
X116767176Y-77910723D01*
X116652216Y-77871640D01*
X116564453Y-77894278D01*
X116469240Y-77975611D01*
X116362616Y-77975611D01*
X116367396Y-77946316D01*
X116446894Y-77814028D01*
X116590900Y-77727579D01*
X116739171Y-77726840D01*
X116865391Y-77800421D01*
G37*
X116865391Y-77800421D02*
X116943243Y-77936930D01*
X116955912Y-78034369D01*
X116948753Y-78114959D01*
X116909842Y-78155157D01*
X116813025Y-78168934D01*
X116701403Y-78170341D01*
X116536236Y-78180024D01*
X116457862Y-78211530D01*
X116446894Y-78240461D01*
X116490482Y-78347092D01*
X116607187Y-78404761D01*
X116775921Y-78403100D01*
X116777198Y-78402862D01*
X116908815Y-78396114D01*
X116956433Y-78428920D01*
X116913539Y-78484369D01*
X116825344Y-78527913D01*
X116709670Y-78566062D01*
X116628230Y-78566593D01*
X116548698Y-78542230D01*
X116434034Y-78452452D01*
X116362534Y-78301309D01*
X116338791Y-78121647D01*
X116362616Y-77975611D01*
X116469240Y-77975611D01*
X116471942Y-78033898D01*
X116570392Y-78064755D01*
X116650501Y-78068537D01*
X116795692Y-78055806D01*
X116844269Y-78018004D01*
X116842595Y-78008547D01*
X116767176Y-77910723D01*
X116652216Y-77871640D01*
X116564453Y-77894278D01*
X116469240Y-77975611D01*
X116362616Y-77975611D01*
X116367396Y-77946316D01*
X116446894Y-77814028D01*
X116590900Y-77727579D01*
X116739171Y-77726840D01*
X116865391Y-77800421D01*
G36*
X111117926Y-76413821D02*
G01*
X111166552Y-76467477D01*
X111205212Y-76570582D01*
X111238836Y-76762626D01*
X111224469Y-76953712D01*
X111167283Y-77105696D01*
X111126182Y-77153528D01*
X111015932Y-77191507D01*
X110898471Y-77185366D01*
X110745892Y-77154850D01*
X110745892Y-77490672D01*
X110748835Y-77668135D01*
X110760648Y-77760601D01*
X110785804Y-77784784D01*
X110819443Y-77765452D01*
X110945438Y-77718439D01*
X111079637Y-77751385D01*
X111183360Y-77853887D01*
X111189258Y-77864930D01*
X111231022Y-77993880D01*
X111252471Y-78154125D01*
X111253979Y-78315471D01*
X111235918Y-78447729D01*
X111198661Y-78520705D01*
X111181098Y-78526654D01*
X111134039Y-78494659D01*
X111105190Y-78388602D01*
X111092019Y-78239237D01*
X111059739Y-78020846D01*
X110990719Y-77896781D01*
X110884329Y-77866182D01*
X110829163Y-77880683D01*
X110779991Y-77924878D01*
X110754057Y-78024143D01*
X110745935Y-78200564D01*
X110745892Y-78219645D01*
X110740082Y-78397508D01*
X110719475Y-78493228D01*
X110679304Y-78525969D01*
X110669539Y-78526654D01*
X110643692Y-78514425D01*
X110624286Y-78469624D01*
X110610447Y-78380075D01*
X110601299Y-78233603D01*
X110595968Y-78018036D01*
X110593578Y-77721196D01*
X110593187Y-77464411D01*
X110593187Y-76789300D01*
X110745892Y-76789300D01*
X110756921Y-76947419D01*
X110801009Y-77025610D01*
X110894657Y-77044392D01*
X110947594Y-77040113D01*
X111033625Y-77015096D01*
X111075810Y-76946381D01*
X111093189Y-76823473D01*
X111087956Y-76662165D01*
X111034423Y-76567701D01*
X111022531Y-76558211D01*
X110906332Y-76517599D01*
X110812168Y-76565667D01*
X110755495Y-76689502D01*
X110745892Y-76789300D01*
X110593187Y-76789300D01*
X110593187Y-76402168D01*
X110869308Y-76395803D01*
X111029105Y-76395269D01*
X111117926Y-76413821D01*
G37*
X111117926Y-76413821D02*
X111166552Y-76467477D01*
X111205212Y-76570582D01*
X111238836Y-76762626D01*
X111224469Y-76953712D01*
X111167283Y-77105696D01*
X111126182Y-77153528D01*
X111015932Y-77191507D01*
X110898471Y-77185366D01*
X110745892Y-77154850D01*
X110745892Y-77490672D01*
X110748835Y-77668135D01*
X110760648Y-77760601D01*
X110785804Y-77784784D01*
X110819443Y-77765452D01*
X110945438Y-77718439D01*
X111079637Y-77751385D01*
X111183360Y-77853887D01*
X111189258Y-77864930D01*
X111231022Y-77993880D01*
X111252471Y-78154125D01*
X111253979Y-78315471D01*
X111235918Y-78447729D01*
X111198661Y-78520705D01*
X111181098Y-78526654D01*
X111134039Y-78494659D01*
X111105190Y-78388602D01*
X111092019Y-78239237D01*
X111059739Y-78020846D01*
X110990719Y-77896781D01*
X110884329Y-77866182D01*
X110829163Y-77880683D01*
X110779991Y-77924878D01*
X110754057Y-78024143D01*
X110745935Y-78200564D01*
X110745892Y-78219645D01*
X110740082Y-78397508D01*
X110719475Y-78493228D01*
X110679304Y-78525969D01*
X110669539Y-78526654D01*
X110643692Y-78514425D01*
X110624286Y-78469624D01*
X110610447Y-78380075D01*
X110601299Y-78233603D01*
X110595968Y-78018036D01*
X110593578Y-77721196D01*
X110593187Y-77464411D01*
X110593187Y-76789300D01*
X110745892Y-76789300D01*
X110756921Y-76947419D01*
X110801009Y-77025610D01*
X110894657Y-77044392D01*
X110947594Y-77040113D01*
X111033625Y-77015096D01*
X111075810Y-76946381D01*
X111093189Y-76823473D01*
X111087956Y-76662165D01*
X111034423Y-76567701D01*
X111022531Y-76558211D01*
X110906332Y-76517599D01*
X110812168Y-76565667D01*
X110755495Y-76689502D01*
X110745892Y-76789300D01*
X110593187Y-76789300D01*
X110593187Y-76402168D01*
X110869308Y-76395803D01*
X111029105Y-76395269D01*
X111117926Y-76413821D01*
G36*
X112416984Y-77742999D02*
G01*
X112425652Y-77769359D01*
X112448378Y-77797868D01*
X112499202Y-77765452D01*
X112587637Y-77727897D01*
X112693435Y-77722882D01*
X112775730Y-77747232D01*
X112796693Y-77788577D01*
X112744307Y-77830090D01*
X112631116Y-77862880D01*
X112618536Y-77864930D01*
X112527087Y-77882937D01*
X112475680Y-77918613D01*
X112450836Y-77997324D01*
X112439075Y-78144433D01*
X112435948Y-78208517D01*
X112420358Y-78394586D01*
X112392885Y-78495243D01*
X112349015Y-78526612D01*
X112346870Y-78526654D01*
X112308676Y-78505506D01*
X112285766Y-78430464D01*
X112274979Y-78284127D01*
X112272946Y-78119439D01*
X112276542Y-77910501D01*
X112289591Y-77785109D01*
X112315480Y-77725188D01*
X112349299Y-77712225D01*
X112416984Y-77742999D01*
G37*
X112416984Y-77742999D02*
X112425652Y-77769359D01*
X112448378Y-77797868D01*
X112499202Y-77765452D01*
X112587637Y-77727897D01*
X112693435Y-77722882D01*
X112775730Y-77747232D01*
X112796693Y-77788577D01*
X112744307Y-77830090D01*
X112631116Y-77862880D01*
X112618536Y-77864930D01*
X112527087Y-77882937D01*
X112475680Y-77918613D01*
X112450836Y-77997324D01*
X112439075Y-78144433D01*
X112435948Y-78208517D01*
X112420358Y-78394586D01*
X112392885Y-78495243D01*
X112349015Y-78526612D01*
X112346870Y-78526654D01*
X112308676Y-78505506D01*
X112285766Y-78430464D01*
X112274979Y-78284127D01*
X112272946Y-78119439D01*
X112276542Y-77910501D01*
X112289591Y-77785109D01*
X112315480Y-77725188D01*
X112349299Y-77712225D01*
X112416984Y-77742999D01*
G36*
X114767528Y-77736693D02*
G01*
X114761935Y-77819207D01*
X114721590Y-77973430D01*
X114675421Y-78119439D01*
X114608367Y-78305002D01*
X114545479Y-78446267D01*
X114497292Y-78520620D01*
X114485668Y-78526654D01*
X114441277Y-78482112D01*
X114384522Y-78366858D01*
X114341164Y-78246694D01*
X114290508Y-78096142D01*
X114250190Y-77994513D01*
X114232666Y-77966734D01*
X114207836Y-78010959D01*
X114164390Y-78125467D01*
X114124167Y-78246694D01*
X114053404Y-78422634D01*
X113981108Y-78516976D01*
X113914671Y-78522229D01*
X113885591Y-78488477D01*
X113860506Y-78422156D01*
X113818385Y-78289641D01*
X113779910Y-78159503D01*
X113729597Y-77988478D01*
X113686699Y-77850062D01*
X113666427Y-77790465D01*
X113673079Y-77723809D01*
X113716240Y-77712225D01*
X113785327Y-77761550D01*
X113844113Y-77903430D01*
X113850793Y-77928557D01*
X113905748Y-78133607D01*
X113947540Y-78242593D01*
X113984467Y-78258964D01*
X114024828Y-78186172D01*
X114076922Y-78027667D01*
X114078288Y-78023159D01*
X114134635Y-77865350D01*
X114189264Y-77758903D01*
X114228427Y-77727376D01*
X114273300Y-77781419D01*
X114335147Y-77904228D01*
X114392199Y-78046925D01*
X114500830Y-78348497D01*
X114560659Y-78119439D01*
X114613855Y-77919695D01*
X114650860Y-77798884D01*
X114680410Y-77737233D01*
X114711240Y-77714969D01*
X114740555Y-77712225D01*
X114767528Y-77736693D01*
G37*
X114767528Y-77736693D02*
X114761935Y-77819207D01*
X114721590Y-77973430D01*
X114675421Y-78119439D01*
X114608367Y-78305002D01*
X114545479Y-78446267D01*
X114497292Y-78520620D01*
X114485668Y-78526654D01*
X114441277Y-78482112D01*
X114384522Y-78366858D01*
X114341164Y-78246694D01*
X114290508Y-78096142D01*
X114250190Y-77994513D01*
X114232666Y-77966734D01*
X114207836Y-78010959D01*
X114164390Y-78125467D01*
X114124167Y-78246694D01*
X114053404Y-78422634D01*
X113981108Y-78516976D01*
X113914671Y-78522229D01*
X113885591Y-78488477D01*
X113860506Y-78422156D01*
X113818385Y-78289641D01*
X113779910Y-78159503D01*
X113729597Y-77988478D01*
X113686699Y-77850062D01*
X113666427Y-77790465D01*
X113673079Y-77723809D01*
X113716240Y-77712225D01*
X113785327Y-77761550D01*
X113844113Y-77903430D01*
X113850793Y-77928557D01*
X113905748Y-78133607D01*
X113947540Y-78242593D01*
X113984467Y-78258964D01*
X114024828Y-78186172D01*
X114076922Y-78027667D01*
X114078288Y-78023159D01*
X114134635Y-77865350D01*
X114189264Y-77758903D01*
X114228427Y-77727376D01*
X114273300Y-77781419D01*
X114335147Y-77904228D01*
X114392199Y-78046925D01*
X114500830Y-78348497D01*
X114560659Y-78119439D01*
X114613855Y-77919695D01*
X114650860Y-77798884D01*
X114680410Y-77737233D01*
X114711240Y-77714969D01*
X114740555Y-77712225D01*
X114767528Y-77736693D01*
G36*
X115878270Y-77745070D02*
G01*
X115886974Y-77773307D01*
X115901998Y-77808720D01*
X115948056Y-77773307D01*
X116043613Y-77724977D01*
X116162674Y-77714862D01*
X116253927Y-77745167D01*
X116266564Y-77759609D01*
X116259643Y-77821510D01*
X116173803Y-77868588D01*
X116040956Y-77887735D01*
X115970427Y-77896067D01*
X115930182Y-77933120D01*
X115909653Y-78022491D01*
X115898271Y-78187773D01*
X115897271Y-78208517D01*
X115881681Y-78394586D01*
X115854208Y-78495243D01*
X115810338Y-78526612D01*
X115808193Y-78526654D01*
X115769999Y-78505506D01*
X115747088Y-78430464D01*
X115736302Y-78284127D01*
X115734269Y-78119439D01*
X115737865Y-77910501D01*
X115750913Y-77785109D01*
X115776803Y-77725188D01*
X115810621Y-77712225D01*
X115878270Y-77745070D01*
G37*
X115878270Y-77745070D02*
X115886974Y-77773307D01*
X115901998Y-77808720D01*
X115948056Y-77773307D01*
X116043613Y-77724977D01*
X116162674Y-77714862D01*
X116253927Y-77745167D01*
X116266564Y-77759609D01*
X116259643Y-77821510D01*
X116173803Y-77868588D01*
X116040956Y-77887735D01*
X115970427Y-77896067D01*
X115930182Y-77933120D01*
X115909653Y-78022491D01*
X115898271Y-78187773D01*
X115897271Y-78208517D01*
X115881681Y-78394586D01*
X115854208Y-78495243D01*
X115810338Y-78526612D01*
X115808193Y-78526654D01*
X115769999Y-78505506D01*
X115747088Y-78430464D01*
X115736302Y-78284127D01*
X115734269Y-78119439D01*
X115737865Y-77910501D01*
X115750913Y-77785109D01*
X115776803Y-77725188D01*
X115810621Y-77712225D01*
X115878270Y-77745070D01*
G36*
X110230469Y-76426403D02*
G01*
X110339840Y-76540945D01*
X110387172Y-76734901D01*
X110389579Y-76804837D01*
X110353761Y-77003159D01*
X110259233Y-77140688D01*
X110125385Y-77207464D01*
X109971608Y-77193529D01*
X109823710Y-77095454D01*
X109754261Y-77000852D01*
X109733178Y-76882519D01*
X109739443Y-76789300D01*
X109880561Y-76789300D01*
X109888766Y-76923212D01*
X109909043Y-77008602D01*
X109914496Y-77016567D01*
X110005038Y-77048711D01*
X110128065Y-77038192D01*
X110226103Y-76990005D01*
X110226694Y-76989419D01*
X110281327Y-76871658D01*
X110274600Y-76723354D01*
X110210645Y-76591905D01*
X110190207Y-76570766D01*
X110072230Y-76510783D01*
X109970207Y-76540699D01*
X109901000Y-76648612D01*
X109880561Y-76789300D01*
X109739443Y-76789300D01*
X109741102Y-76764620D01*
X109783361Y-76561610D01*
X109862144Y-76442619D01*
X109989994Y-76392728D01*
X110057061Y-76388778D01*
X110230469Y-76426403D01*
G37*
X110230469Y-76426403D02*
X110339840Y-76540945D01*
X110387172Y-76734901D01*
X110389579Y-76804837D01*
X110353761Y-77003159D01*
X110259233Y-77140688D01*
X110125385Y-77207464D01*
X109971608Y-77193529D01*
X109823710Y-77095454D01*
X109754261Y-77000852D01*
X109733178Y-76882519D01*
X109739443Y-76789300D01*
X109880561Y-76789300D01*
X109888766Y-76923212D01*
X109909043Y-77008602D01*
X109914496Y-77016567D01*
X110005038Y-77048711D01*
X110128065Y-77038192D01*
X110226103Y-76990005D01*
X110226694Y-76989419D01*
X110281327Y-76871658D01*
X110274600Y-76723354D01*
X110210645Y-76591905D01*
X110190207Y-76570766D01*
X110072230Y-76510783D01*
X109970207Y-76540699D01*
X109901000Y-76648612D01*
X109880561Y-76789300D01*
X109739443Y-76789300D01*
X109741102Y-76764620D01*
X109783361Y-76561610D01*
X109862144Y-76442619D01*
X109989994Y-76392728D01*
X110057061Y-76388778D01*
X110230469Y-76426403D01*
G36*
X111951025Y-76465988D02*
G01*
X112044410Y-76596198D01*
X112069339Y-76730965D01*
X112060334Y-76797525D01*
X112016849Y-76832193D01*
X111914178Y-76845199D01*
X111789379Y-76846894D01*
X111607498Y-76857603D01*
X111523597Y-76891028D01*
X111535993Y-76949115D01*
X111633260Y-77027495D01*
X111751260Y-77079515D01*
X111856539Y-77055407D01*
X111859229Y-77053981D01*
X111952007Y-77033373D01*
X112006892Y-77065258D01*
X111998778Y-77124253D01*
X111961331Y-77157216D01*
X111814353Y-77203498D01*
X111651097Y-77190253D01*
X111517611Y-77123999D01*
X111486854Y-77090077D01*
X111420934Y-76927219D01*
X111411462Y-76738179D01*
X111433133Y-76656187D01*
X111542060Y-76656187D01*
X111564670Y-76716102D01*
X111683487Y-76743257D01*
X111745214Y-76745090D01*
X111866782Y-76734079D01*
X111909174Y-76693854D01*
X111907640Y-76661468D01*
X111845320Y-76545723D01*
X111738941Y-76508029D01*
X111620086Y-76559012D01*
X111615403Y-76563151D01*
X111542060Y-76656187D01*
X111433133Y-76656187D01*
X111456791Y-76566681D01*
X111509419Y-76490581D01*
X111657097Y-76401832D01*
X111813110Y-76397417D01*
X111951025Y-76465988D01*
G37*
X111951025Y-76465988D02*
X112044410Y-76596198D01*
X112069339Y-76730965D01*
X112060334Y-76797525D01*
X112016849Y-76832193D01*
X111914178Y-76845199D01*
X111789379Y-76846894D01*
X111607498Y-76857603D01*
X111523597Y-76891028D01*
X111535993Y-76949115D01*
X111633260Y-77027495D01*
X111751260Y-77079515D01*
X111856539Y-77055407D01*
X111859229Y-77053981D01*
X111952007Y-77033373D01*
X112006892Y-77065258D01*
X111998778Y-77124253D01*
X111961331Y-77157216D01*
X111814353Y-77203498D01*
X111651097Y-77190253D01*
X111517611Y-77123999D01*
X111486854Y-77090077D01*
X111420934Y-76927219D01*
X111411462Y-76738179D01*
X111433133Y-76656187D01*
X111542060Y-76656187D01*
X111564670Y-76716102D01*
X111683487Y-76743257D01*
X111745214Y-76745090D01*
X111866782Y-76734079D01*
X111909174Y-76693854D01*
X111907640Y-76661468D01*
X111845320Y-76545723D01*
X111738941Y-76508029D01*
X111620086Y-76559012D01*
X111615403Y-76563151D01*
X111542060Y-76656187D01*
X111433133Y-76656187D01*
X111456791Y-76566681D01*
X111509419Y-76490581D01*
X111657097Y-76401832D01*
X111813110Y-76397417D01*
X111951025Y-76465988D01*
G36*
X112752041Y-76407150D02*
G01*
X112829319Y-76473370D01*
X112870141Y-76604089D01*
X112883559Y-76815960D01*
X112883768Y-76857074D01*
X112875502Y-77061612D01*
X112854603Y-77172950D01*
X112826913Y-77189171D01*
X112798277Y-77108363D01*
X112774538Y-76928610D01*
X112771816Y-76893751D01*
X112737392Y-76668255D01*
X112675028Y-76533792D01*
X112587480Y-76493171D01*
X112477506Y-76549202D01*
X112454738Y-76570570D01*
X112395963Y-76694992D01*
X112374811Y-76911866D01*
X112374750Y-76926883D01*
X112366278Y-77079061D01*
X112344449Y-77179423D01*
X112323848Y-77203207D01*
X112298640Y-77155582D01*
X112280926Y-77025560D01*
X112273116Y-76832421D01*
X112272946Y-76795992D01*
X112278899Y-76594330D01*
X112295152Y-76452617D01*
X112319294Y-76390135D01*
X112323848Y-76388778D01*
X112371588Y-76428719D01*
X112374750Y-76449860D01*
X112389774Y-76485273D01*
X112435832Y-76449860D01*
X112531015Y-76402824D01*
X112629259Y-76388778D01*
X112752041Y-76407150D01*
G37*
X112752041Y-76407150D02*
X112829319Y-76473370D01*
X112870141Y-76604089D01*
X112883559Y-76815960D01*
X112883768Y-76857074D01*
X112875502Y-77061612D01*
X112854603Y-77172950D01*
X112826913Y-77189171D01*
X112798277Y-77108363D01*
X112774538Y-76928610D01*
X112771816Y-76893751D01*
X112737392Y-76668255D01*
X112675028Y-76533792D01*
X112587480Y-76493171D01*
X112477506Y-76549202D01*
X112454738Y-76570570D01*
X112395963Y-76694992D01*
X112374811Y-76911866D01*
X112374750Y-76926883D01*
X112366278Y-77079061D01*
X112344449Y-77179423D01*
X112323848Y-77203207D01*
X112298640Y-77155582D01*
X112280926Y-77025560D01*
X112273116Y-76832421D01*
X112272946Y-76795992D01*
X112278899Y-76594330D01*
X112295152Y-76452617D01*
X112319294Y-76390135D01*
X112323848Y-76388778D01*
X112371588Y-76428719D01*
X112374750Y-76449860D01*
X112389774Y-76485273D01*
X112435832Y-76449860D01*
X112531015Y-76402824D01*
X112629259Y-76388778D01*
X112752041Y-76407150D01*
G36*
X113910934Y-76406860D02*
G01*
X114017023Y-76452016D01*
X114041065Y-76517383D01*
X114032490Y-76535930D01*
X113967632Y-76565934D01*
X113902061Y-76541621D01*
X113754443Y-76493640D01*
X113648120Y-76521783D01*
X113612829Y-76572071D01*
X113620767Y-76663106D01*
X113714309Y-76723700D01*
X113864719Y-76744311D01*
X114000194Y-76784765D01*
X114077316Y-76883468D01*
X114081640Y-77009084D01*
X114029245Y-77101196D01*
X113901487Y-77176705D01*
X113729836Y-77201447D01*
X113559978Y-77173020D01*
X113478818Y-77130122D01*
X113423052Y-77063802D01*
X113453446Y-77026762D01*
X113556628Y-77026911D01*
X113627322Y-77042309D01*
X113766059Y-77065088D01*
X113866533Y-77061993D01*
X113934785Y-77012465D01*
X113933573Y-76936174D01*
X113870927Y-76872384D01*
X113824867Y-76858222D01*
X113641060Y-76823862D01*
X113534584Y-76783038D01*
X113481069Y-76724617D01*
X113469711Y-76695993D01*
X113464418Y-76547451D01*
X113544061Y-76440823D01*
X113695349Y-76391284D01*
X113738164Y-76389557D01*
X113910934Y-76406860D01*
G37*
X113910934Y-76406860D02*
X114017023Y-76452016D01*
X114041065Y-76517383D01*
X114032490Y-76535930D01*
X113967632Y-76565934D01*
X113902061Y-76541621D01*
X113754443Y-76493640D01*
X113648120Y-76521783D01*
X113612829Y-76572071D01*
X113620767Y-76663106D01*
X113714309Y-76723700D01*
X113864719Y-76744311D01*
X114000194Y-76784765D01*
X114077316Y-76883468D01*
X114081640Y-77009084D01*
X114029245Y-77101196D01*
X113901487Y-77176705D01*
X113729836Y-77201447D01*
X113559978Y-77173020D01*
X113478818Y-77130122D01*
X113423052Y-77063802D01*
X113453446Y-77026762D01*
X113556628Y-77026911D01*
X113627322Y-77042309D01*
X113766059Y-77065088D01*
X113866533Y-77061993D01*
X113934785Y-77012465D01*
X113933573Y-76936174D01*
X113870927Y-76872384D01*
X113824867Y-76858222D01*
X113641060Y-76823862D01*
X113534584Y-76783038D01*
X113481069Y-76724617D01*
X113469711Y-76695993D01*
X113464418Y-76547451D01*
X113544061Y-76440823D01*
X113695349Y-76391284D01*
X113738164Y-76389557D01*
X113910934Y-76406860D01*
G36*
X114723701Y-76431425D02*
G01*
X114825585Y-76556507D01*
X114867891Y-76759736D01*
X114868938Y-76804837D01*
X114832955Y-77006229D01*
X114736766Y-77144399D01*
X114598008Y-77208643D01*
X114434317Y-77188261D01*
X114331473Y-77130957D01*
X114267770Y-77055488D01*
X114238022Y-76931399D01*
X114232666Y-76795992D01*
X114238888Y-76742718D01*
X114359920Y-76742718D01*
X114376607Y-76919882D01*
X114434329Y-77016618D01*
X114544576Y-77049923D01*
X114568003Y-77050501D01*
X114684229Y-77028016D01*
X114740505Y-76943885D01*
X114746232Y-76923247D01*
X114759277Y-76757135D01*
X114722346Y-76612477D01*
X114645369Y-76525637D01*
X114636632Y-76521829D01*
X114509036Y-76518626D01*
X114407347Y-76594097D01*
X114360487Y-76725154D01*
X114359920Y-76742718D01*
X114238888Y-76742718D01*
X114257349Y-76584654D01*
X114336638Y-76454133D01*
X114478392Y-76394809D01*
X114565367Y-76388778D01*
X114723701Y-76431425D01*
G37*
X114723701Y-76431425D02*
X114825585Y-76556507D01*
X114867891Y-76759736D01*
X114868938Y-76804837D01*
X114832955Y-77006229D01*
X114736766Y-77144399D01*
X114598008Y-77208643D01*
X114434317Y-77188261D01*
X114331473Y-77130957D01*
X114267770Y-77055488D01*
X114238022Y-76931399D01*
X114232666Y-76795992D01*
X114238888Y-76742718D01*
X114359920Y-76742718D01*
X114376607Y-76919882D01*
X114434329Y-77016618D01*
X114544576Y-77049923D01*
X114568003Y-77050501D01*
X114684229Y-77028016D01*
X114740505Y-76943885D01*
X114746232Y-76923247D01*
X114759277Y-76757135D01*
X114722346Y-76612477D01*
X114645369Y-76525637D01*
X114636632Y-76521829D01*
X114509036Y-76518626D01*
X114407347Y-76594097D01*
X114360487Y-76725154D01*
X114359920Y-76742718D01*
X114238888Y-76742718D01*
X114257349Y-76584654D01*
X114336638Y-76454133D01*
X114478392Y-76394809D01*
X114565367Y-76388778D01*
X114723701Y-76431425D01*
G36*
X115698897Y-76410212D02*
G01*
X115721853Y-76486173D01*
X115732457Y-76634153D01*
X115734269Y-76787309D01*
X115734269Y-77185841D01*
X115480493Y-77191622D01*
X115274414Y-77176739D01*
X115151918Y-77122543D01*
X115149632Y-77120316D01*
X115105372Y-77031115D01*
X115078050Y-76888877D01*
X115067795Y-76723593D01*
X115074735Y-76565257D01*
X115099003Y-76443860D01*
X115140725Y-76389395D01*
X115146469Y-76388778D01*
X115191084Y-76417727D01*
X115219122Y-76515323D01*
X115235098Y-76697691D01*
X115235547Y-76706914D01*
X115245835Y-76880281D01*
X115263968Y-76975420D01*
X115302331Y-77015804D01*
X115373310Y-77024909D01*
X115403407Y-77025050D01*
X115486825Y-77020822D01*
X115533841Y-76992487D01*
X115556842Y-76916571D01*
X115568213Y-76769601D01*
X115571267Y-76706914D01*
X115586857Y-76520845D01*
X115614330Y-76420188D01*
X115658200Y-76388819D01*
X115660345Y-76388778D01*
X115698897Y-76410212D01*
G37*
X115698897Y-76410212D02*
X115721853Y-76486173D01*
X115732457Y-76634153D01*
X115734269Y-76787309D01*
X115734269Y-77185841D01*
X115480493Y-77191622D01*
X115274414Y-77176739D01*
X115151918Y-77122543D01*
X115149632Y-77120316D01*
X115105372Y-77031115D01*
X115078050Y-76888877D01*
X115067795Y-76723593D01*
X115074735Y-76565257D01*
X115099003Y-76443860D01*
X115140725Y-76389395D01*
X115146469Y-76388778D01*
X115191084Y-76417727D01*
X115219122Y-76515323D01*
X115235098Y-76697691D01*
X115235547Y-76706914D01*
X115245835Y-76880281D01*
X115263968Y-76975420D01*
X115302331Y-77015804D01*
X115373310Y-77024909D01*
X115403407Y-77025050D01*
X115486825Y-77020822D01*
X115533841Y-76992487D01*
X115556842Y-76916571D01*
X115568213Y-76769601D01*
X115571267Y-76706914D01*
X115586857Y-76520845D01*
X115614330Y-76420188D01*
X115658200Y-76388819D01*
X115660345Y-76388778D01*
X115698897Y-76410212D01*
G36*
X116081877Y-76421623D02*
G01*
X116090581Y-76449860D01*
X116105606Y-76485273D01*
X116151664Y-76449860D01*
X116234465Y-76405869D01*
X116342742Y-76388959D01*
X116439178Y-76398845D01*
X116486456Y-76435241D01*
X116485120Y-76452405D01*
X116423875Y-76502555D01*
X116335760Y-76521065D01*
X116207808Y-76539159D01*
X116133414Y-76595063D01*
X116098900Y-76709965D01*
X116090581Y-76900800D01*
X116084614Y-77077148D01*
X116063482Y-77171401D01*
X116022343Y-77202745D01*
X116014229Y-77203207D01*
X115975053Y-77184027D01*
X115951542Y-77114436D01*
X115940307Y-76976358D01*
X115937876Y-76795992D01*
X115941472Y-76587054D01*
X115954520Y-76461662D01*
X115980410Y-76401741D01*
X116014229Y-76388778D01*
X116081877Y-76421623D01*
G37*
X116081877Y-76421623D02*
X116090581Y-76449860D01*
X116105606Y-76485273D01*
X116151664Y-76449860D01*
X116234465Y-76405869D01*
X116342742Y-76388959D01*
X116439178Y-76398845D01*
X116486456Y-76435241D01*
X116485120Y-76452405D01*
X116423875Y-76502555D01*
X116335760Y-76521065D01*
X116207808Y-76539159D01*
X116133414Y-76595063D01*
X116098900Y-76709965D01*
X116090581Y-76900800D01*
X116084614Y-77077148D01*
X116063482Y-77171401D01*
X116022343Y-77202745D01*
X116014229Y-77203207D01*
X115975053Y-77184027D01*
X115951542Y-77114436D01*
X115940307Y-76976358D01*
X115937876Y-76795992D01*
X115941472Y-76587054D01*
X115954520Y-76461662D01*
X115980410Y-76401741D01*
X116014229Y-76388778D01*
X116081877Y-76421623D01*
G36*
X117037916Y-76415235D02*
G01*
X117104856Y-76460599D01*
X117133146Y-76535907D01*
X117087048Y-76573779D01*
X116991540Y-76558936D01*
X116964834Y-76546258D01*
X116843997Y-76530210D01*
X116733875Y-76592266D01*
X116662752Y-76710256D01*
X116650501Y-76792646D01*
X116688683Y-76948449D01*
X116799680Y-77034288D01*
X116940623Y-77049213D01*
X117083044Y-77043887D01*
X117140611Y-77058261D01*
X117129543Y-77099831D01*
X117108617Y-77126854D01*
X117011874Y-77180041D01*
X116867328Y-77201662D01*
X116725212Y-77187588D01*
X116666411Y-77163215D01*
X116569528Y-77047076D01*
X116525369Y-76878343D01*
X116535457Y-76692415D01*
X116601317Y-76524690D01*
X116636905Y-76477856D01*
X116749230Y-76412415D01*
X116898481Y-76390966D01*
X117037916Y-76415235D01*
G37*
X117037916Y-76415235D02*
X117104856Y-76460599D01*
X117133146Y-76535907D01*
X117087048Y-76573779D01*
X116991540Y-76558936D01*
X116964834Y-76546258D01*
X116843997Y-76530210D01*
X116733875Y-76592266D01*
X116662752Y-76710256D01*
X116650501Y-76792646D01*
X116688683Y-76948449D01*
X116799680Y-77034288D01*
X116940623Y-77049213D01*
X117083044Y-77043887D01*
X117140611Y-77058261D01*
X117129543Y-77099831D01*
X117108617Y-77126854D01*
X117011874Y-77180041D01*
X116867328Y-77201662D01*
X116725212Y-77187588D01*
X116666411Y-77163215D01*
X116569528Y-77047076D01*
X116525369Y-76878343D01*
X116535457Y-76692415D01*
X116601317Y-76524690D01*
X116636905Y-76477856D01*
X116749230Y-76412415D01*
X116898481Y-76390966D01*
X117037916Y-76415235D01*
G36*
X117746784Y-76429181D02*
G01*
X117860695Y-76532927D01*
X117919875Y-76683372D01*
X117923046Y-76730965D01*
X117912967Y-76799976D01*
X117865558Y-76834410D01*
X117755062Y-76846000D01*
X117668537Y-76846894D01*
X117507280Y-76855437D01*
X117428975Y-76884519D01*
X117414028Y-76921456D01*
X117457231Y-77012337D01*
X117559595Y-77066625D01*
X117680249Y-77066653D01*
X117716350Y-77052154D01*
X117807651Y-77033024D01*
X117860577Y-77066971D01*
X117849883Y-77127120D01*
X117815039Y-77157216D01*
X117663558Y-77200778D01*
X117493358Y-77177784D01*
X117363126Y-77101403D01*
X117285803Y-76961297D01*
X117262297Y-76777495D01*
X117282473Y-76661468D01*
X117423021Y-76661468D01*
X117434933Y-76718948D01*
X117515398Y-76742611D01*
X117588452Y-76745090D01*
X117726266Y-76726807D01*
X117770341Y-76674970D01*
X117734395Y-76586847D01*
X117689721Y-76537942D01*
X117585140Y-76505154D01*
X117484025Y-76551220D01*
X117423536Y-76658932D01*
X117423021Y-76661468D01*
X117282473Y-76661468D01*
X117294254Y-76593721D01*
X117340562Y-76501907D01*
X117460329Y-76403294D01*
X117604533Y-76382511D01*
X117746784Y-76429181D01*
G37*
X117746784Y-76429181D02*
X117860695Y-76532927D01*
X117919875Y-76683372D01*
X117923046Y-76730965D01*
X117912967Y-76799976D01*
X117865558Y-76834410D01*
X117755062Y-76846000D01*
X117668537Y-76846894D01*
X117507280Y-76855437D01*
X117428975Y-76884519D01*
X117414028Y-76921456D01*
X117457231Y-77012337D01*
X117559595Y-77066625D01*
X117680249Y-77066653D01*
X117716350Y-77052154D01*
X117807651Y-77033024D01*
X117860577Y-77066971D01*
X117849883Y-77127120D01*
X117815039Y-77157216D01*
X117663558Y-77200778D01*
X117493358Y-77177784D01*
X117363126Y-77101403D01*
X117285803Y-76961297D01*
X117262297Y-76777495D01*
X117282473Y-76661468D01*
X117423021Y-76661468D01*
X117434933Y-76718948D01*
X117515398Y-76742611D01*
X117588452Y-76745090D01*
X117726266Y-76726807D01*
X117770341Y-76674970D01*
X117734395Y-76586847D01*
X117689721Y-76537942D01*
X117585140Y-76505154D01*
X117484025Y-76551220D01*
X117423536Y-76658932D01*
X117423021Y-76661468D01*
X117282473Y-76661468D01*
X117294254Y-76593721D01*
X117340562Y-76501907D01*
X117460329Y-76403294D01*
X117604533Y-76382511D01*
X117746784Y-76429181D01*
G36*
X114075199Y-70032415D02*
G01*
X114220792Y-70052234D01*
X114280663Y-70086602D01*
X114281874Y-70089680D01*
X114299579Y-70168756D01*
X114327035Y-70317712D01*
X114358603Y-70505796D01*
X114361716Y-70525236D01*
X114420995Y-70897166D01*
X114702202Y-71021529D01*
X114862680Y-71088153D01*
X114990202Y-71133287D01*
X115046143Y-71145892D01*
X115113943Y-71117060D01*
X115238358Y-71040478D01*
X115395742Y-70931021D01*
X115441614Y-70897166D01*
X115774352Y-70648440D01*
X116066756Y-70943927D01*
X116210379Y-71091899D01*
X116293071Y-71201052D01*
X116315997Y-71298190D01*
X116280325Y-71410118D01*
X116187219Y-71563643D01*
X116099386Y-71694099D01*
X115902166Y-71985772D01*
X116042908Y-72299393D01*
X116183650Y-72613013D01*
X116480703Y-72672687D01*
X116714232Y-72718527D01*
X116866566Y-72754725D01*
X116954859Y-72797945D01*
X116996262Y-72864854D01*
X117007926Y-72972115D01*
X117007003Y-73136395D01*
X117006814Y-73183874D01*
X117006814Y-73581961D01*
X116714128Y-73639696D01*
X116479441Y-73688095D01*
X116323041Y-73731747D01*
X116223159Y-73784672D01*
X116158023Y-73860892D01*
X116105863Y-73974426D01*
X116077888Y-74049455D01*
X116016059Y-74207899D01*
X115962356Y-74327161D01*
X115936259Y-74371014D01*
X115943019Y-74431402D01*
X116001615Y-74543061D01*
X116076552Y-74650974D01*
X116219584Y-74843110D01*
X116300515Y-74979982D01*
X116319749Y-75086679D01*
X116277694Y-75188292D01*
X116174756Y-75309909D01*
X116088654Y-75398144D01*
X115952292Y-75530725D01*
X115840927Y-75628947D01*
X115775192Y-75674834D01*
X115769549Y-75676153D01*
X115708694Y-75648772D01*
X115589980Y-75576639D01*
X115437961Y-75474766D01*
X115422481Y-75463948D01*
X115264903Y-75355482D01*
X115162603Y-75297868D01*
X115087595Y-75283385D01*
X115011893Y-75304311D01*
X114948949Y-75333295D01*
X114777935Y-75414846D01*
X114489348Y-74724170D01*
X114200762Y-74033494D01*
X114383206Y-73883108D01*
X114579897Y-73678374D01*
X114686828Y-73452803D01*
X114716233Y-73207915D01*
X114672140Y-72917309D01*
X114550036Y-72668171D01*
X114365179Y-72472905D01*
X114132830Y-72343916D01*
X113868248Y-72293609D01*
X113627154Y-72322575D01*
X113350578Y-72441808D01*
X113141066Y-72623177D01*
X113002437Y-72849254D01*
X112938510Y-73102605D01*
X112953102Y-73365802D01*
X113050034Y-73621412D01*
X113233123Y-73852006D01*
X113282581Y-73895378D01*
X113464512Y-74045341D01*
X113293753Y-74466258D01*
X113198307Y-74698970D01*
X113099938Y-74934664D01*
X113017108Y-75129184D01*
X113003546Y-75160371D01*
X112935094Y-75311802D01*
X112887390Y-75385465D01*
X112840476Y-75396901D01*
X112774396Y-75361655D01*
X112758469Y-75351253D01*
X112661803Y-75295159D01*
X112579759Y-75278583D01*
X112486208Y-75307584D01*
X112355021Y-75388218D01*
X112235297Y-75472545D01*
X112088960Y-75574430D01*
X111976376Y-75647425D01*
X111921452Y-75676047D01*
X111921073Y-75676061D01*
X111871790Y-75644379D01*
X111767423Y-75560313D01*
X111628003Y-75440194D01*
X111586339Y-75403154D01*
X111281495Y-75130339D01*
X111525695Y-74763097D01*
X111769895Y-74395854D01*
X111619039Y-74073481D01*
X111468182Y-73751108D01*
X111170664Y-73691338D01*
X110937012Y-73645472D01*
X110784561Y-73609267D01*
X110696168Y-73566075D01*
X110654688Y-73499252D01*
X110642979Y-73392150D01*
X110643894Y-73228124D01*
X110644088Y-73180055D01*
X110644088Y-72781967D01*
X110936774Y-72724947D01*
X111125960Y-72688117D01*
X111296609Y-72654943D01*
X111374523Y-72639824D01*
X111469593Y-72603157D01*
X111546967Y-72520151D01*
X111627696Y-72366833D01*
X111641757Y-72335472D01*
X111707544Y-72178310D01*
X111751897Y-72056262D01*
X111763928Y-72006167D01*
X111736073Y-71942156D01*
X111662206Y-71819988D01*
X111556880Y-71663338D01*
X111528867Y-71623704D01*
X111293806Y-71294296D01*
X111905486Y-70657294D01*
X112627274Y-71157740D01*
X112844599Y-71071768D01*
X113045635Y-70986854D01*
X113175219Y-70907196D01*
X113254326Y-70806131D01*
X113303934Y-70656998D01*
X113344490Y-70436395D01*
X113411128Y-70026052D01*
X113836220Y-70026052D01*
X114075199Y-70032415D01*
G37*
X114075199Y-70032415D02*
X114220792Y-70052234D01*
X114280663Y-70086602D01*
X114281874Y-70089680D01*
X114299579Y-70168756D01*
X114327035Y-70317712D01*
X114358603Y-70505796D01*
X114361716Y-70525236D01*
X114420995Y-70897166D01*
X114702202Y-71021529D01*
X114862680Y-71088153D01*
X114990202Y-71133287D01*
X115046143Y-71145892D01*
X115113943Y-71117060D01*
X115238358Y-71040478D01*
X115395742Y-70931021D01*
X115441614Y-70897166D01*
X115774352Y-70648440D01*
X116066756Y-70943927D01*
X116210379Y-71091899D01*
X116293071Y-71201052D01*
X116315997Y-71298190D01*
X116280325Y-71410118D01*
X116187219Y-71563643D01*
X116099386Y-71694099D01*
X115902166Y-71985772D01*
X116042908Y-72299393D01*
X116183650Y-72613013D01*
X116480703Y-72672687D01*
X116714232Y-72718527D01*
X116866566Y-72754725D01*
X116954859Y-72797945D01*
X116996262Y-72864854D01*
X117007926Y-72972115D01*
X117007003Y-73136395D01*
X117006814Y-73183874D01*
X117006814Y-73581961D01*
X116714128Y-73639696D01*
X116479441Y-73688095D01*
X116323041Y-73731747D01*
X116223159Y-73784672D01*
X116158023Y-73860892D01*
X116105863Y-73974426D01*
X116077888Y-74049455D01*
X116016059Y-74207899D01*
X115962356Y-74327161D01*
X115936259Y-74371014D01*
X115943019Y-74431402D01*
X116001615Y-74543061D01*
X116076552Y-74650974D01*
X116219584Y-74843110D01*
X116300515Y-74979982D01*
X116319749Y-75086679D01*
X116277694Y-75188292D01*
X116174756Y-75309909D01*
X116088654Y-75398144D01*
X115952292Y-75530725D01*
X115840927Y-75628947D01*
X115775192Y-75674834D01*
X115769549Y-75676153D01*
X115708694Y-75648772D01*
X115589980Y-75576639D01*
X115437961Y-75474766D01*
X115422481Y-75463948D01*
X115264903Y-75355482D01*
X115162603Y-75297868D01*
X115087595Y-75283385D01*
X115011893Y-75304311D01*
X114948949Y-75333295D01*
X114777935Y-75414846D01*
X114489348Y-74724170D01*
X114200762Y-74033494D01*
X114383206Y-73883108D01*
X114579897Y-73678374D01*
X114686828Y-73452803D01*
X114716233Y-73207915D01*
X114672140Y-72917309D01*
X114550036Y-72668171D01*
X114365179Y-72472905D01*
X114132830Y-72343916D01*
X113868248Y-72293609D01*
X113627154Y-72322575D01*
X113350578Y-72441808D01*
X113141066Y-72623177D01*
X113002437Y-72849254D01*
X112938510Y-73102605D01*
X112953102Y-73365802D01*
X113050034Y-73621412D01*
X113233123Y-73852006D01*
X113282581Y-73895378D01*
X113464512Y-74045341D01*
X113293753Y-74466258D01*
X113198307Y-74698970D01*
X113099938Y-74934664D01*
X113017108Y-75129184D01*
X113003546Y-75160371D01*
X112935094Y-75311802D01*
X112887390Y-75385465D01*
X112840476Y-75396901D01*
X112774396Y-75361655D01*
X112758469Y-75351253D01*
X112661803Y-75295159D01*
X112579759Y-75278583D01*
X112486208Y-75307584D01*
X112355021Y-75388218D01*
X112235297Y-75472545D01*
X112088960Y-75574430D01*
X111976376Y-75647425D01*
X111921452Y-75676047D01*
X111921073Y-75676061D01*
X111871790Y-75644379D01*
X111767423Y-75560313D01*
X111628003Y-75440194D01*
X111586339Y-75403154D01*
X111281495Y-75130339D01*
X111525695Y-74763097D01*
X111769895Y-74395854D01*
X111619039Y-74073481D01*
X111468182Y-73751108D01*
X111170664Y-73691338D01*
X110937012Y-73645472D01*
X110784561Y-73609267D01*
X110696168Y-73566075D01*
X110654688Y-73499252D01*
X110642979Y-73392150D01*
X110643894Y-73228124D01*
X110644088Y-73180055D01*
X110644088Y-72781967D01*
X110936774Y-72724947D01*
X111125960Y-72688117D01*
X111296609Y-72654943D01*
X111374523Y-72639824D01*
X111469593Y-72603157D01*
X111546967Y-72520151D01*
X111627696Y-72366833D01*
X111641757Y-72335472D01*
X111707544Y-72178310D01*
X111751897Y-72056262D01*
X111763928Y-72006167D01*
X111736073Y-71942156D01*
X111662206Y-71819988D01*
X111556880Y-71663338D01*
X111528867Y-71623704D01*
X111293806Y-71294296D01*
X111905486Y-70657294D01*
X112627274Y-71157740D01*
X112844599Y-71071768D01*
X113045635Y-70986854D01*
X113175219Y-70907196D01*
X113254326Y-70806131D01*
X113303934Y-70656998D01*
X113344490Y-70436395D01*
X113411128Y-70026052D01*
X113836220Y-70026052D01*
X114075199Y-70032415D01*
D13*
%TO.C,D13*%
X143460000Y-70330000D02*
G75*
G03*
X143460000Y-70330000I-50000J0D01*
G01*
%TO.C,D14*%
X120650000Y-53470000D02*
G75*
G03*
X120650000Y-53470000I-50000J0D01*
G01*
%TO.C,D15*%
X120425000Y-53470000D02*
G75*
G03*
X120425000Y-53470000I-50000J0D01*
G01*
D10*
%TO.C,J9*%
X128255000Y-53600000D02*
X128255000Y-52957530D01*
X128255000Y-52342470D02*
X128255000Y-52140000D01*
X128255000Y-53600000D02*
X133455000Y-53600000D01*
X133455000Y-51072470D02*
X133455000Y-50430000D01*
X133455000Y-53600000D02*
X133455000Y-52957530D01*
X133455000Y-52342470D02*
X133455000Y-51687530D01*
X129585000Y-50430000D02*
X133455000Y-50430000D01*
X129585000Y-50620000D02*
X129585000Y-50430000D01*
X128190000Y-50430000D02*
X128950000Y-50430000D01*
X128190000Y-51380000D02*
X128190000Y-50430000D01*
%TO.C,C92*%
X136000279Y-73615000D02*
X135674721Y-73615000D01*
X136000279Y-74635000D02*
X135674721Y-74635000D01*
%TO.C,U1*%
X133542857Y-70071428D02*
X133542857Y-70557142D01*
X133571428Y-70614285D01*
X133600000Y-70642857D01*
X133657142Y-70671428D01*
X133771428Y-70671428D01*
X133828571Y-70642857D01*
X133857142Y-70614285D01*
X133885714Y-70557142D01*
X133885714Y-70071428D01*
X134485714Y-70671428D02*
X134142857Y-70671428D01*
X134314285Y-70671428D02*
X134314285Y-70071428D01*
X134257142Y-70157142D01*
X134200000Y-70214285D01*
X134142857Y-70242857D01*
%TO.C,J1*%
X115500000Y-58771428D02*
X115500000Y-59200000D01*
X115471428Y-59285714D01*
X115414285Y-59342857D01*
X115328571Y-59371428D01*
X115271428Y-59371428D01*
X116100000Y-59371428D02*
X115757142Y-59371428D01*
X115928571Y-59371428D02*
X115928571Y-58771428D01*
X115871428Y-58857142D01*
X115814285Y-58914285D01*
X115757142Y-58942857D01*
%TO.C,C71*%
X118564285Y-52964285D02*
X118535714Y-52992857D01*
X118450000Y-53021428D01*
X118392857Y-53021428D01*
X118307142Y-52992857D01*
X118250000Y-52935714D01*
X118221428Y-52878571D01*
X118192857Y-52764285D01*
X118192857Y-52678571D01*
X118221428Y-52564285D01*
X118250000Y-52507142D01*
X118307142Y-52450000D01*
X118392857Y-52421428D01*
X118450000Y-52421428D01*
X118535714Y-52450000D01*
X118564285Y-52478571D01*
X118764285Y-52421428D02*
X119164285Y-52421428D01*
X118907142Y-53021428D01*
X119707142Y-53021428D02*
X119364285Y-53021428D01*
X119535714Y-53021428D02*
X119535714Y-52421428D01*
X119478571Y-52507142D01*
X119421428Y-52564285D01*
X119364285Y-52592857D01*
%TO.C,J13*%
X124514285Y-85471428D02*
X124514285Y-85900000D01*
X124485714Y-85985714D01*
X124428571Y-86042857D01*
X124342857Y-86071428D01*
X124285714Y-86071428D01*
X125114285Y-86071428D02*
X124771428Y-86071428D01*
X124942857Y-86071428D02*
X124942857Y-85471428D01*
X124885714Y-85557142D01*
X124828571Y-85614285D01*
X124771428Y-85642857D01*
X125314285Y-85471428D02*
X125685714Y-85471428D01*
X125485714Y-85700000D01*
X125571428Y-85700000D01*
X125628571Y-85728571D01*
X125657142Y-85757142D01*
X125685714Y-85814285D01*
X125685714Y-85957142D01*
X125657142Y-86014285D01*
X125628571Y-86042857D01*
X125571428Y-86071428D01*
X125400000Y-86071428D01*
X125342857Y-86042857D01*
X125314285Y-86014285D01*
D15*
X126928571Y-85807142D02*
X128071428Y-85807142D01*
X127500000Y-86378571D02*
X127500000Y-85235714D01*
X121928571Y-85807142D02*
X123071428Y-85807142D01*
%TO.C,J12*%
D10*
X141614285Y-80171428D02*
X141614285Y-80600000D01*
X141585714Y-80685714D01*
X141528571Y-80742857D01*
X141442857Y-80771428D01*
X141385714Y-80771428D01*
X142214285Y-80771428D02*
X141871428Y-80771428D01*
X142042857Y-80771428D02*
X142042857Y-80171428D01*
X141985714Y-80257142D01*
X141928571Y-80314285D01*
X141871428Y-80342857D01*
X142442857Y-80228571D02*
X142471428Y-80200000D01*
X142528571Y-80171428D01*
X142671428Y-80171428D01*
X142728571Y-80200000D01*
X142757142Y-80228571D01*
X142785714Y-80285714D01*
X142785714Y-80342857D01*
X142757142Y-80428571D01*
X142414285Y-80771428D01*
X142785714Y-80771428D01*
%TO.C,J11*%
X103814285Y-79871428D02*
X103814285Y-80300000D01*
X103785714Y-80385714D01*
X103728571Y-80442857D01*
X103642857Y-80471428D01*
X103585714Y-80471428D01*
X104414285Y-80471428D02*
X104071428Y-80471428D01*
X104242857Y-80471428D02*
X104242857Y-79871428D01*
X104185714Y-79957142D01*
X104128571Y-80014285D01*
X104071428Y-80042857D01*
X104985714Y-80471428D02*
X104642857Y-80471428D01*
X104814285Y-80471428D02*
X104814285Y-79871428D01*
X104757142Y-79957142D01*
X104700000Y-80014285D01*
X104642857Y-80042857D01*
%TO.C,L1*%
X126100000Y-84871428D02*
X125814285Y-84871428D01*
X125814285Y-84271428D01*
X126614285Y-84871428D02*
X126271428Y-84871428D01*
X126442857Y-84871428D02*
X126442857Y-84271428D01*
X126385714Y-84357142D01*
X126328571Y-84414285D01*
X126271428Y-84442857D01*
%TO.C,Q1*%
X110542857Y-79528571D02*
X110485714Y-79500000D01*
X110428571Y-79442857D01*
X110342857Y-79357142D01*
X110285714Y-79328571D01*
X110228571Y-79328571D01*
X110257142Y-79471428D02*
X110200000Y-79442857D01*
X110142857Y-79385714D01*
X110114285Y-79271428D01*
X110114285Y-79071428D01*
X110142857Y-78957142D01*
X110200000Y-78900000D01*
X110257142Y-78871428D01*
X110371428Y-78871428D01*
X110428571Y-78900000D01*
X110485714Y-78957142D01*
X110514285Y-79071428D01*
X110514285Y-79271428D01*
X110485714Y-79385714D01*
X110428571Y-79442857D01*
X110371428Y-79471428D01*
X110257142Y-79471428D01*
X111085714Y-79471428D02*
X110742857Y-79471428D01*
X110914285Y-79471428D02*
X110914285Y-78871428D01*
X110857142Y-78957142D01*
X110800000Y-79014285D01*
X110742857Y-79042857D01*
D15*
X108800000Y-79452380D02*
X108800000Y-79690476D01*
X108561904Y-79595238D02*
X108800000Y-79690476D01*
X109038095Y-79595238D01*
X108657142Y-79880952D02*
X108800000Y-79690476D01*
X108942857Y-79880952D01*
X108800000Y-79452380D02*
X108800000Y-79690476D01*
X108561904Y-79595238D02*
X108800000Y-79690476D01*
X109038095Y-79595238D01*
X108657142Y-79880952D02*
X108800000Y-79690476D01*
X108942857Y-79880952D01*
%TO.C,Q3*%
D10*
X109642857Y-94128571D02*
X109585714Y-94100000D01*
X109528571Y-94042857D01*
X109442857Y-93957142D01*
X109385714Y-93928571D01*
X109328571Y-93928571D01*
X109357142Y-94071428D02*
X109300000Y-94042857D01*
X109242857Y-93985714D01*
X109214285Y-93871428D01*
X109214285Y-93671428D01*
X109242857Y-93557142D01*
X109300000Y-93500000D01*
X109357142Y-93471428D01*
X109471428Y-93471428D01*
X109528571Y-93500000D01*
X109585714Y-93557142D01*
X109614285Y-93671428D01*
X109614285Y-93871428D01*
X109585714Y-93985714D01*
X109528571Y-94042857D01*
X109471428Y-94071428D01*
X109357142Y-94071428D01*
X109814285Y-93471428D02*
X110185714Y-93471428D01*
X109985714Y-93700000D01*
X110071428Y-93700000D01*
X110128571Y-93728571D01*
X110157142Y-93757142D01*
X110185714Y-93814285D01*
X110185714Y-93957142D01*
X110157142Y-94014285D01*
X110128571Y-94042857D01*
X110071428Y-94071428D01*
X109900000Y-94071428D01*
X109842857Y-94042857D01*
X109814285Y-94014285D01*
D15*
X108800000Y-86452380D02*
X108800000Y-86690476D01*
X108561904Y-86595238D02*
X108800000Y-86690476D01*
X109038095Y-86595238D01*
X108657142Y-86880952D02*
X108800000Y-86690476D01*
X108942857Y-86880952D01*
X108800000Y-86452380D02*
X108800000Y-86690476D01*
X108561904Y-86595238D02*
X108800000Y-86690476D01*
X109038095Y-86595238D01*
X108657142Y-86880952D02*
X108800000Y-86690476D01*
X108942857Y-86880952D01*
%TO.C,Q4*%
D10*
X136042857Y-95128571D02*
X135985714Y-95100000D01*
X135928571Y-95042857D01*
X135842857Y-94957142D01*
X135785714Y-94928571D01*
X135728571Y-94928571D01*
X135757142Y-95071428D02*
X135700000Y-95042857D01*
X135642857Y-94985714D01*
X135614285Y-94871428D01*
X135614285Y-94671428D01*
X135642857Y-94557142D01*
X135700000Y-94500000D01*
X135757142Y-94471428D01*
X135871428Y-94471428D01*
X135928571Y-94500000D01*
X135985714Y-94557142D01*
X136014285Y-94671428D01*
X136014285Y-94871428D01*
X135985714Y-94985714D01*
X135928571Y-95042857D01*
X135871428Y-95071428D01*
X135757142Y-95071428D01*
X136528571Y-94671428D02*
X136528571Y-95071428D01*
X136385714Y-94442857D02*
X136242857Y-94871428D01*
X136614285Y-94871428D01*
D15*
X141200000Y-93452379D02*
X141200000Y-93690475D01*
X140961904Y-93595237D02*
X141200000Y-93690475D01*
X141438095Y-93595237D01*
X141057142Y-93880951D02*
X141200000Y-93690475D01*
X141342857Y-93880951D01*
X141200000Y-93452379D02*
X141200000Y-93690475D01*
X140961904Y-93595237D02*
X141200000Y-93690475D01*
X141438095Y-93595237D01*
X141057142Y-93880951D02*
X141200000Y-93690475D01*
X141342857Y-93880951D01*
%TO.C,Q6*%
D10*
X136042857Y-80628571D02*
X135985714Y-80600000D01*
X135928571Y-80542857D01*
X135842857Y-80457142D01*
X135785714Y-80428571D01*
X135728571Y-80428571D01*
X135757142Y-80571428D02*
X135700000Y-80542857D01*
X135642857Y-80485714D01*
X135614285Y-80371428D01*
X135614285Y-80171428D01*
X135642857Y-80057142D01*
X135700000Y-80000000D01*
X135757142Y-79971428D01*
X135871428Y-79971428D01*
X135928571Y-80000000D01*
X135985714Y-80057142D01*
X136014285Y-80171428D01*
X136014285Y-80371428D01*
X135985714Y-80485714D01*
X135928571Y-80542857D01*
X135871428Y-80571428D01*
X135757142Y-80571428D01*
X136528571Y-79971428D02*
X136414285Y-79971428D01*
X136357142Y-80000000D01*
X136328571Y-80028571D01*
X136271428Y-80114285D01*
X136242857Y-80228571D01*
X136242857Y-80457142D01*
X136271428Y-80514285D01*
X136300000Y-80542857D01*
X136357142Y-80571428D01*
X136471428Y-80571428D01*
X136528571Y-80542857D01*
X136557142Y-80514285D01*
X136585714Y-80457142D01*
X136585714Y-80314285D01*
X136557142Y-80257142D01*
X136528571Y-80228571D01*
X136471428Y-80200000D01*
X136357142Y-80200000D01*
X136300000Y-80228571D01*
X136271428Y-80257142D01*
X136242857Y-80314285D01*
D15*
X141200000Y-86452379D02*
X141200000Y-86690475D01*
X140961904Y-86595237D02*
X141200000Y-86690475D01*
X141438095Y-86595237D01*
X141057142Y-86880951D02*
X141200000Y-86690475D01*
X141342857Y-86880951D01*
X141200000Y-86452379D02*
X141200000Y-86690475D01*
X140961904Y-86595237D02*
X141200000Y-86690475D01*
X141438095Y-86595237D01*
X141057142Y-86880951D02*
X141200000Y-86690475D01*
X141342857Y-86880951D01*
%TO.C,U9*%
D10*
X141442857Y-56771428D02*
X141442857Y-57257142D01*
X141471428Y-57314285D01*
X141500000Y-57342857D01*
X141557142Y-57371428D01*
X141671428Y-57371428D01*
X141728571Y-57342857D01*
X141757142Y-57314285D01*
X141785714Y-57257142D01*
X141785714Y-56771428D01*
X142100000Y-57371428D02*
X142214285Y-57371428D01*
X142271428Y-57342857D01*
X142300000Y-57314285D01*
X142357142Y-57228571D01*
X142385714Y-57114285D01*
X142385714Y-56885714D01*
X142357142Y-56828571D01*
X142328571Y-56800000D01*
X142271428Y-56771428D01*
X142157142Y-56771428D01*
X142100000Y-56800000D01*
X142071428Y-56828571D01*
X142042857Y-56885714D01*
X142042857Y-57028571D01*
X142071428Y-57085714D01*
X142100000Y-57114285D01*
X142157142Y-57142857D01*
X142271428Y-57142857D01*
X142328571Y-57114285D01*
X142357142Y-57085714D01*
X142385714Y-57028571D01*
%TO.C,J2*%
X112500000Y-54171428D02*
X112500000Y-54600000D01*
X112471428Y-54685714D01*
X112414285Y-54742857D01*
X112328571Y-54771428D01*
X112271428Y-54771428D01*
X112757142Y-54228571D02*
X112785714Y-54200000D01*
X112842857Y-54171428D01*
X112985714Y-54171428D01*
X113042857Y-54200000D01*
X113071428Y-54228571D01*
X113100000Y-54285714D01*
X113100000Y-54342857D01*
X113071428Y-54428571D01*
X112728571Y-54771428D01*
X113100000Y-54771428D01*
%TO.C,J5*%
X104800000Y-93971428D02*
X104800000Y-94400000D01*
X104771428Y-94485714D01*
X104714285Y-94542857D01*
X104628571Y-94571428D01*
X104571428Y-94571428D01*
X105371428Y-93971428D02*
X105085714Y-93971428D01*
X105057142Y-94257142D01*
X105085714Y-94228571D01*
X105142857Y-94200000D01*
X105285714Y-94200000D01*
X105342857Y-94228571D01*
X105371428Y-94257142D01*
X105400000Y-94314285D01*
X105400000Y-94457142D01*
X105371428Y-94514285D01*
X105342857Y-94542857D01*
X105285714Y-94571428D01*
X105142857Y-94571428D01*
X105085714Y-94542857D01*
X105057142Y-94514285D01*
%TO.C,J6*%
X144800000Y-93871428D02*
X144800000Y-94300000D01*
X144771428Y-94385714D01*
X144714285Y-94442857D01*
X144628571Y-94471428D01*
X144571428Y-94471428D01*
X145342857Y-93871428D02*
X145228571Y-93871428D01*
X145171428Y-93900000D01*
X145142857Y-93928571D01*
X145085714Y-94014285D01*
X145057142Y-94128571D01*
X145057142Y-94357142D01*
X145085714Y-94414285D01*
X145114285Y-94442857D01*
X145171428Y-94471428D01*
X145285714Y-94471428D01*
X145342857Y-94442857D01*
X145371428Y-94414285D01*
X145400000Y-94357142D01*
X145400000Y-94214285D01*
X145371428Y-94157142D01*
X145342857Y-94128571D01*
X145285714Y-94100000D01*
X145171428Y-94100000D01*
X145114285Y-94128571D01*
X145085714Y-94157142D01*
X145057142Y-94214285D01*
%TO.C,U10*%
X137357142Y-62171428D02*
X137357142Y-62657142D01*
X137385714Y-62714285D01*
X137414285Y-62742857D01*
X137471428Y-62771428D01*
X137585714Y-62771428D01*
X137642857Y-62742857D01*
X137671428Y-62714285D01*
X137700000Y-62657142D01*
X137700000Y-62171428D01*
X138300000Y-62771428D02*
X137957142Y-62771428D01*
X138128571Y-62771428D02*
X138128571Y-62171428D01*
X138071428Y-62257142D01*
X138014285Y-62314285D01*
X137957142Y-62342857D01*
X138671428Y-62171428D02*
X138728571Y-62171428D01*
X138785714Y-62200000D01*
X138814285Y-62228571D01*
X138842857Y-62285714D01*
X138871428Y-62400000D01*
X138871428Y-62542857D01*
X138842857Y-62657142D01*
X138814285Y-62714285D01*
X138785714Y-62742857D01*
X138728571Y-62771428D01*
X138671428Y-62771428D01*
X138614285Y-62742857D01*
X138585714Y-62714285D01*
X138557142Y-62657142D01*
X138528571Y-62542857D01*
X138528571Y-62400000D01*
X138557142Y-62285714D01*
X138585714Y-62228571D01*
X138614285Y-62200000D01*
X138671428Y-62171428D01*
%TO.C,R54*%
X147371428Y-76885714D02*
X147085714Y-77085714D01*
X147371428Y-77228571D02*
X146771428Y-77228571D01*
X146771428Y-77000000D01*
X146800000Y-76942857D01*
X146828571Y-76914285D01*
X146885714Y-76885714D01*
X146971428Y-76885714D01*
X147028571Y-76914285D01*
X147057142Y-76942857D01*
X147085714Y-77000000D01*
X147085714Y-77228571D01*
X146771428Y-76342857D02*
X146771428Y-76628571D01*
X147057142Y-76657142D01*
X147028571Y-76628571D01*
X147000000Y-76571428D01*
X147000000Y-76428571D01*
X147028571Y-76371428D01*
X147057142Y-76342857D01*
X147114285Y-76314285D01*
X147257142Y-76314285D01*
X147314285Y-76342857D01*
X147342857Y-76371428D01*
X147371428Y-76428571D01*
X147371428Y-76571428D01*
X147342857Y-76628571D01*
X147314285Y-76657142D01*
X146971428Y-75800000D02*
X147371428Y-75800000D01*
X146742857Y-75942857D02*
X147171428Y-76085714D01*
X147171428Y-75714285D01*
%TO.C,R55*%
X147371428Y-74885714D02*
X147085714Y-75085714D01*
X147371428Y-75228571D02*
X146771428Y-75228571D01*
X146771428Y-75000000D01*
X146800000Y-74942857D01*
X146828571Y-74914285D01*
X146885714Y-74885714D01*
X146971428Y-74885714D01*
X147028571Y-74914285D01*
X147057142Y-74942857D01*
X147085714Y-75000000D01*
X147085714Y-75228571D01*
X146771428Y-74342857D02*
X146771428Y-74628571D01*
X147057142Y-74657142D01*
X147028571Y-74628571D01*
X147000000Y-74571428D01*
X147000000Y-74428571D01*
X147028571Y-74371428D01*
X147057142Y-74342857D01*
X147114285Y-74314285D01*
X147257142Y-74314285D01*
X147314285Y-74342857D01*
X147342857Y-74371428D01*
X147371428Y-74428571D01*
X147371428Y-74571428D01*
X147342857Y-74628571D01*
X147314285Y-74657142D01*
X146771428Y-73771428D02*
X146771428Y-74057142D01*
X147057142Y-74085714D01*
X147028571Y-74057142D01*
X147000000Y-74000000D01*
X147000000Y-73857142D01*
X147028571Y-73800000D01*
X147057142Y-73771428D01*
X147114285Y-73742857D01*
X147257142Y-73742857D01*
X147314285Y-73771428D01*
X147342857Y-73800000D01*
X147371428Y-73857142D01*
X147371428Y-74000000D01*
X147342857Y-74057142D01*
X147314285Y-74085714D01*
%TO.C,R51*%
X147371428Y-78785714D02*
X147085714Y-78985714D01*
X147371428Y-79128571D02*
X146771428Y-79128571D01*
X146771428Y-78900000D01*
X146800000Y-78842857D01*
X146828571Y-78814285D01*
X146885714Y-78785714D01*
X146971428Y-78785714D01*
X147028571Y-78814285D01*
X147057142Y-78842857D01*
X147085714Y-78900000D01*
X147085714Y-79128571D01*
X146771428Y-78242857D02*
X146771428Y-78528571D01*
X147057142Y-78557142D01*
X147028571Y-78528571D01*
X147000000Y-78471428D01*
X147000000Y-78328571D01*
X147028571Y-78271428D01*
X147057142Y-78242857D01*
X147114285Y-78214285D01*
X147257142Y-78214285D01*
X147314285Y-78242857D01*
X147342857Y-78271428D01*
X147371428Y-78328571D01*
X147371428Y-78471428D01*
X147342857Y-78528571D01*
X147314285Y-78557142D01*
X147371428Y-77642857D02*
X147371428Y-77985714D01*
X147371428Y-77814285D02*
X146771428Y-77814285D01*
X146857142Y-77871428D01*
X146914285Y-77928571D01*
X146942857Y-77985714D01*
%TO.C,C101*%
X149814285Y-74371428D02*
X149842857Y-74400000D01*
X149871428Y-74485714D01*
X149871428Y-74542857D01*
X149842857Y-74628571D01*
X149785714Y-74685714D01*
X149728571Y-74714285D01*
X149614285Y-74742857D01*
X149528571Y-74742857D01*
X149414285Y-74714285D01*
X149357142Y-74685714D01*
X149300000Y-74628571D01*
X149271428Y-74542857D01*
X149271428Y-74485714D01*
X149300000Y-74400000D01*
X149328571Y-74371428D01*
X149871428Y-73800000D02*
X149871428Y-74142857D01*
X149871428Y-73971428D02*
X149271428Y-73971428D01*
X149357142Y-74028571D01*
X149414285Y-74085714D01*
X149442857Y-74142857D01*
X149271428Y-73428571D02*
X149271428Y-73371428D01*
X149300000Y-73314285D01*
X149328571Y-73285714D01*
X149385714Y-73257142D01*
X149500000Y-73228571D01*
X149642857Y-73228571D01*
X149757142Y-73257142D01*
X149814285Y-73285714D01*
X149842857Y-73314285D01*
X149871428Y-73371428D01*
X149871428Y-73428571D01*
X149842857Y-73485714D01*
X149814285Y-73514285D01*
X149757142Y-73542857D01*
X149642857Y-73571428D01*
X149500000Y-73571428D01*
X149385714Y-73542857D01*
X149328571Y-73514285D01*
X149300000Y-73485714D01*
X149271428Y-73428571D01*
X149871428Y-72657142D02*
X149871428Y-73000000D01*
X149871428Y-72828571D02*
X149271428Y-72828571D01*
X149357142Y-72885714D01*
X149414285Y-72942857D01*
X149442857Y-73000000D01*
%TO.C,C99*%
X149814285Y-78885714D02*
X149842857Y-78914285D01*
X149871428Y-79000000D01*
X149871428Y-79057142D01*
X149842857Y-79142857D01*
X149785714Y-79200000D01*
X149728571Y-79228571D01*
X149614285Y-79257142D01*
X149528571Y-79257142D01*
X149414285Y-79228571D01*
X149357142Y-79200000D01*
X149300000Y-79142857D01*
X149271428Y-79057142D01*
X149271428Y-79000000D01*
X149300000Y-78914285D01*
X149328571Y-78885714D01*
X149871428Y-78600000D02*
X149871428Y-78485714D01*
X149842857Y-78428571D01*
X149814285Y-78400000D01*
X149728571Y-78342857D01*
X149614285Y-78314285D01*
X149385714Y-78314285D01*
X149328571Y-78342857D01*
X149300000Y-78371428D01*
X149271428Y-78428571D01*
X149271428Y-78542857D01*
X149300000Y-78600000D01*
X149328571Y-78628571D01*
X149385714Y-78657142D01*
X149528571Y-78657142D01*
X149585714Y-78628571D01*
X149614285Y-78600000D01*
X149642857Y-78542857D01*
X149642857Y-78428571D01*
X149614285Y-78371428D01*
X149585714Y-78342857D01*
X149528571Y-78314285D01*
X149871428Y-78028571D02*
X149871428Y-77914285D01*
X149842857Y-77857142D01*
X149814285Y-77828571D01*
X149728571Y-77771428D01*
X149614285Y-77742857D01*
X149385714Y-77742857D01*
X149328571Y-77771428D01*
X149300000Y-77800000D01*
X149271428Y-77857142D01*
X149271428Y-77971428D01*
X149300000Y-78028571D01*
X149328571Y-78057142D01*
X149385714Y-78085714D01*
X149528571Y-78085714D01*
X149585714Y-78057142D01*
X149614285Y-78028571D01*
X149642857Y-77971428D01*
X149642857Y-77857142D01*
X149614285Y-77800000D01*
X149585714Y-77771428D01*
X149528571Y-77742857D01*
%TO.C,C100*%
X149814285Y-76866428D02*
X149842857Y-76895000D01*
X149871428Y-76980714D01*
X149871428Y-77037857D01*
X149842857Y-77123571D01*
X149785714Y-77180714D01*
X149728571Y-77209285D01*
X149614285Y-77237857D01*
X149528571Y-77237857D01*
X149414285Y-77209285D01*
X149357142Y-77180714D01*
X149300000Y-77123571D01*
X149271428Y-77037857D01*
X149271428Y-76980714D01*
X149300000Y-76895000D01*
X149328571Y-76866428D01*
X149871428Y-76295000D02*
X149871428Y-76637857D01*
X149871428Y-76466428D02*
X149271428Y-76466428D01*
X149357142Y-76523571D01*
X149414285Y-76580714D01*
X149442857Y-76637857D01*
X149271428Y-75923571D02*
X149271428Y-75866428D01*
X149300000Y-75809285D01*
X149328571Y-75780714D01*
X149385714Y-75752142D01*
X149500000Y-75723571D01*
X149642857Y-75723571D01*
X149757142Y-75752142D01*
X149814285Y-75780714D01*
X149842857Y-75809285D01*
X149871428Y-75866428D01*
X149871428Y-75923571D01*
X149842857Y-75980714D01*
X149814285Y-76009285D01*
X149757142Y-76037857D01*
X149642857Y-76066428D01*
X149500000Y-76066428D01*
X149385714Y-76037857D01*
X149328571Y-76009285D01*
X149300000Y-75980714D01*
X149271428Y-75923571D01*
X149271428Y-75352142D02*
X149271428Y-75295000D01*
X149300000Y-75237857D01*
X149328571Y-75209285D01*
X149385714Y-75180714D01*
X149500000Y-75152142D01*
X149642857Y-75152142D01*
X149757142Y-75180714D01*
X149814285Y-75209285D01*
X149842857Y-75237857D01*
X149871428Y-75295000D01*
X149871428Y-75352142D01*
X149842857Y-75409285D01*
X149814285Y-75437857D01*
X149757142Y-75466428D01*
X149642857Y-75495000D01*
X149500000Y-75495000D01*
X149385714Y-75466428D01*
X149328571Y-75437857D01*
X149300000Y-75409285D01*
X149271428Y-75352142D01*
%TO.C,C94*%
X142814285Y-72285714D02*
X142842857Y-72314285D01*
X142871428Y-72400000D01*
X142871428Y-72457142D01*
X142842857Y-72542857D01*
X142785714Y-72600000D01*
X142728571Y-72628571D01*
X142614285Y-72657142D01*
X142528571Y-72657142D01*
X142414285Y-72628571D01*
X142357142Y-72600000D01*
X142300000Y-72542857D01*
X142271428Y-72457142D01*
X142271428Y-72400000D01*
X142300000Y-72314285D01*
X142328571Y-72285714D01*
X142871428Y-72000000D02*
X142871428Y-71885714D01*
X142842857Y-71828571D01*
X142814285Y-71800000D01*
X142728571Y-71742857D01*
X142614285Y-71714285D01*
X142385714Y-71714285D01*
X142328571Y-71742857D01*
X142300000Y-71771428D01*
X142271428Y-71828571D01*
X142271428Y-71942857D01*
X142300000Y-72000000D01*
X142328571Y-72028571D01*
X142385714Y-72057142D01*
X142528571Y-72057142D01*
X142585714Y-72028571D01*
X142614285Y-72000000D01*
X142642857Y-71942857D01*
X142642857Y-71828571D01*
X142614285Y-71771428D01*
X142585714Y-71742857D01*
X142528571Y-71714285D01*
X142471428Y-71200000D02*
X142871428Y-71200000D01*
X142242857Y-71342857D02*
X142671428Y-71485714D01*
X142671428Y-71114285D01*
%TO.C,C2*%
X144514285Y-68900000D02*
X144542857Y-68928571D01*
X144571428Y-69014285D01*
X144571428Y-69071428D01*
X144542857Y-69157142D01*
X144485714Y-69214285D01*
X144428571Y-69242857D01*
X144314285Y-69271428D01*
X144228571Y-69271428D01*
X144114285Y-69242857D01*
X144057142Y-69214285D01*
X144000000Y-69157142D01*
X143971428Y-69071428D01*
X143971428Y-69014285D01*
X144000000Y-68928571D01*
X144028571Y-68900000D01*
X144028571Y-68671428D02*
X144000000Y-68642857D01*
X143971428Y-68585714D01*
X143971428Y-68442857D01*
X144000000Y-68385714D01*
X144028571Y-68357142D01*
X144085714Y-68328571D01*
X144142857Y-68328571D01*
X144228571Y-68357142D01*
X144571428Y-68700000D01*
X144571428Y-68328571D01*
%TO.C,C61*%
X117114285Y-99155714D02*
X117142857Y-99184285D01*
X117171428Y-99270000D01*
X117171428Y-99327142D01*
X117142857Y-99412857D01*
X117085714Y-99470000D01*
X117028571Y-99498571D01*
X116914285Y-99527142D01*
X116828571Y-99527142D01*
X116714285Y-99498571D01*
X116657142Y-99470000D01*
X116600000Y-99412857D01*
X116571428Y-99327142D01*
X116571428Y-99270000D01*
X116600000Y-99184285D01*
X116628571Y-99155714D01*
X116571428Y-98641428D02*
X116571428Y-98755714D01*
X116600000Y-98812857D01*
X116628571Y-98841428D01*
X116714285Y-98898571D01*
X116828571Y-98927142D01*
X117057142Y-98927142D01*
X117114285Y-98898571D01*
X117142857Y-98870000D01*
X117171428Y-98812857D01*
X117171428Y-98698571D01*
X117142857Y-98641428D01*
X117114285Y-98612857D01*
X117057142Y-98584285D01*
X116914285Y-98584285D01*
X116857142Y-98612857D01*
X116828571Y-98641428D01*
X116800000Y-98698571D01*
X116800000Y-98812857D01*
X116828571Y-98870000D01*
X116857142Y-98898571D01*
X116914285Y-98927142D01*
X117171428Y-98012857D02*
X117171428Y-98355714D01*
X117171428Y-98184285D02*
X116571428Y-98184285D01*
X116657142Y-98241428D01*
X116714285Y-98298571D01*
X116742857Y-98355714D01*
%TO.C,C62*%
X114414285Y-99155714D02*
X114442857Y-99184285D01*
X114471428Y-99270000D01*
X114471428Y-99327142D01*
X114442857Y-99412857D01*
X114385714Y-99470000D01*
X114328571Y-99498571D01*
X114214285Y-99527142D01*
X114128571Y-99527142D01*
X114014285Y-99498571D01*
X113957142Y-99470000D01*
X113900000Y-99412857D01*
X113871428Y-99327142D01*
X113871428Y-99270000D01*
X113900000Y-99184285D01*
X113928571Y-99155714D01*
X113871428Y-98641428D02*
X113871428Y-98755714D01*
X113900000Y-98812857D01*
X113928571Y-98841428D01*
X114014285Y-98898571D01*
X114128571Y-98927142D01*
X114357142Y-98927142D01*
X114414285Y-98898571D01*
X114442857Y-98870000D01*
X114471428Y-98812857D01*
X114471428Y-98698571D01*
X114442857Y-98641428D01*
X114414285Y-98612857D01*
X114357142Y-98584285D01*
X114214285Y-98584285D01*
X114157142Y-98612857D01*
X114128571Y-98641428D01*
X114100000Y-98698571D01*
X114100000Y-98812857D01*
X114128571Y-98870000D01*
X114157142Y-98898571D01*
X114214285Y-98927142D01*
X113928571Y-98355714D02*
X113900000Y-98327142D01*
X113871428Y-98270000D01*
X113871428Y-98127142D01*
X113900000Y-98070000D01*
X113928571Y-98041428D01*
X113985714Y-98012857D01*
X114042857Y-98012857D01*
X114128571Y-98041428D01*
X114471428Y-98384285D01*
X114471428Y-98012857D01*
%TO.C,C67*%
X110314285Y-62314285D02*
X110285714Y-62342857D01*
X110200000Y-62371428D01*
X110142857Y-62371428D01*
X110057142Y-62342857D01*
X110000000Y-62285714D01*
X109971428Y-62228571D01*
X109942857Y-62114285D01*
X109942857Y-62028571D01*
X109971428Y-61914285D01*
X110000000Y-61857142D01*
X110057142Y-61800000D01*
X110142857Y-61771428D01*
X110200000Y-61771428D01*
X110285714Y-61800000D01*
X110314285Y-61828571D01*
X110828571Y-61771428D02*
X110714285Y-61771428D01*
X110657142Y-61800000D01*
X110628571Y-61828571D01*
X110571428Y-61914285D01*
X110542857Y-62028571D01*
X110542857Y-62257142D01*
X110571428Y-62314285D01*
X110600000Y-62342857D01*
X110657142Y-62371428D01*
X110771428Y-62371428D01*
X110828571Y-62342857D01*
X110857142Y-62314285D01*
X110885714Y-62257142D01*
X110885714Y-62114285D01*
X110857142Y-62057142D01*
X110828571Y-62028571D01*
X110771428Y-62000000D01*
X110657142Y-62000000D01*
X110600000Y-62028571D01*
X110571428Y-62057142D01*
X110542857Y-62114285D01*
X111085714Y-61771428D02*
X111485714Y-61771428D01*
X111228571Y-62371428D01*
%TO.C,C69*%
X127214285Y-53585714D02*
X127242857Y-53614285D01*
X127271428Y-53700000D01*
X127271428Y-53757142D01*
X127242857Y-53842857D01*
X127185714Y-53900000D01*
X127128571Y-53928571D01*
X127014285Y-53957142D01*
X126928571Y-53957142D01*
X126814285Y-53928571D01*
X126757142Y-53900000D01*
X126700000Y-53842857D01*
X126671428Y-53757142D01*
X126671428Y-53700000D01*
X126700000Y-53614285D01*
X126728571Y-53585714D01*
X126671428Y-53071428D02*
X126671428Y-53185714D01*
X126700000Y-53242857D01*
X126728571Y-53271428D01*
X126814285Y-53328571D01*
X126928571Y-53357142D01*
X127157142Y-53357142D01*
X127214285Y-53328571D01*
X127242857Y-53300000D01*
X127271428Y-53242857D01*
X127271428Y-53128571D01*
X127242857Y-53071428D01*
X127214285Y-53042857D01*
X127157142Y-53014285D01*
X127014285Y-53014285D01*
X126957142Y-53042857D01*
X126928571Y-53071428D01*
X126900000Y-53128571D01*
X126900000Y-53242857D01*
X126928571Y-53300000D01*
X126957142Y-53328571D01*
X127014285Y-53357142D01*
X127271428Y-52728571D02*
X127271428Y-52614285D01*
X127242857Y-52557142D01*
X127214285Y-52528571D01*
X127128571Y-52471428D01*
X127014285Y-52442857D01*
X126785714Y-52442857D01*
X126728571Y-52471428D01*
X126700000Y-52500000D01*
X126671428Y-52557142D01*
X126671428Y-52671428D01*
X126700000Y-52728571D01*
X126728571Y-52757142D01*
X126785714Y-52785714D01*
X126928571Y-52785714D01*
X126985714Y-52757142D01*
X127014285Y-52728571D01*
X127042857Y-52671428D01*
X127042857Y-52557142D01*
X127014285Y-52500000D01*
X126985714Y-52471428D01*
X126928571Y-52442857D01*
%TO.C,C80*%
X118614285Y-79214285D02*
X118585714Y-79242857D01*
X118500000Y-79271428D01*
X118442857Y-79271428D01*
X118357142Y-79242857D01*
X118300000Y-79185714D01*
X118271428Y-79128571D01*
X118242857Y-79014285D01*
X118242857Y-78928571D01*
X118271428Y-78814285D01*
X118300000Y-78757142D01*
X118357142Y-78700000D01*
X118442857Y-78671428D01*
X118500000Y-78671428D01*
X118585714Y-78700000D01*
X118614285Y-78728571D01*
X118957142Y-78928571D02*
X118900000Y-78900000D01*
X118871428Y-78871428D01*
X118842857Y-78814285D01*
X118842857Y-78785714D01*
X118871428Y-78728571D01*
X118900000Y-78700000D01*
X118957142Y-78671428D01*
X119071428Y-78671428D01*
X119128571Y-78700000D01*
X119157142Y-78728571D01*
X119185714Y-78785714D01*
X119185714Y-78814285D01*
X119157142Y-78871428D01*
X119128571Y-78900000D01*
X119071428Y-78928571D01*
X118957142Y-78928571D01*
X118900000Y-78957142D01*
X118871428Y-78985714D01*
X118842857Y-79042857D01*
X118842857Y-79157142D01*
X118871428Y-79214285D01*
X118900000Y-79242857D01*
X118957142Y-79271428D01*
X119071428Y-79271428D01*
X119128571Y-79242857D01*
X119157142Y-79214285D01*
X119185714Y-79157142D01*
X119185714Y-79042857D01*
X119157142Y-78985714D01*
X119128571Y-78957142D01*
X119071428Y-78928571D01*
X119557142Y-78671428D02*
X119614285Y-78671428D01*
X119671428Y-78700000D01*
X119700000Y-78728571D01*
X119728571Y-78785714D01*
X119757142Y-78900000D01*
X119757142Y-79042857D01*
X119728571Y-79157142D01*
X119700000Y-79214285D01*
X119671428Y-79242857D01*
X119614285Y-79271428D01*
X119557142Y-79271428D01*
X119500000Y-79242857D01*
X119471428Y-79214285D01*
X119442857Y-79157142D01*
X119414285Y-79042857D01*
X119414285Y-78900000D01*
X119442857Y-78785714D01*
X119471428Y-78728571D01*
X119500000Y-78700000D01*
X119557142Y-78671428D01*
%TO.C,C82*%
X101914285Y-76205714D02*
X101942857Y-76234285D01*
X101971428Y-76320000D01*
X101971428Y-76377142D01*
X101942857Y-76462857D01*
X101885714Y-76520000D01*
X101828571Y-76548571D01*
X101714285Y-76577142D01*
X101628571Y-76577142D01*
X101514285Y-76548571D01*
X101457142Y-76520000D01*
X101400000Y-76462857D01*
X101371428Y-76377142D01*
X101371428Y-76320000D01*
X101400000Y-76234285D01*
X101428571Y-76205714D01*
X101628571Y-75862857D02*
X101600000Y-75920000D01*
X101571428Y-75948571D01*
X101514285Y-75977142D01*
X101485714Y-75977142D01*
X101428571Y-75948571D01*
X101400000Y-75920000D01*
X101371428Y-75862857D01*
X101371428Y-75748571D01*
X101400000Y-75691428D01*
X101428571Y-75662857D01*
X101485714Y-75634285D01*
X101514285Y-75634285D01*
X101571428Y-75662857D01*
X101600000Y-75691428D01*
X101628571Y-75748571D01*
X101628571Y-75862857D01*
X101657142Y-75920000D01*
X101685714Y-75948571D01*
X101742857Y-75977142D01*
X101857142Y-75977142D01*
X101914285Y-75948571D01*
X101942857Y-75920000D01*
X101971428Y-75862857D01*
X101971428Y-75748571D01*
X101942857Y-75691428D01*
X101914285Y-75662857D01*
X101857142Y-75634285D01*
X101742857Y-75634285D01*
X101685714Y-75662857D01*
X101657142Y-75691428D01*
X101628571Y-75748571D01*
X101428571Y-75405714D02*
X101400000Y-75377142D01*
X101371428Y-75320000D01*
X101371428Y-75177142D01*
X101400000Y-75120000D01*
X101428571Y-75091428D01*
X101485714Y-75062857D01*
X101542857Y-75062857D01*
X101628571Y-75091428D01*
X101971428Y-75434285D01*
X101971428Y-75062857D01*
%TO.C,C87*%
X118414285Y-95214285D02*
X118385714Y-95242857D01*
X118300000Y-95271428D01*
X118242857Y-95271428D01*
X118157142Y-95242857D01*
X118100000Y-95185714D01*
X118071428Y-95128571D01*
X118042857Y-95014285D01*
X118042857Y-94928571D01*
X118071428Y-94814285D01*
X118100000Y-94757142D01*
X118157142Y-94700000D01*
X118242857Y-94671428D01*
X118300000Y-94671428D01*
X118385714Y-94700000D01*
X118414285Y-94728571D01*
X118757142Y-94928571D02*
X118700000Y-94900000D01*
X118671428Y-94871428D01*
X118642857Y-94814285D01*
X118642857Y-94785714D01*
X118671428Y-94728571D01*
X118700000Y-94700000D01*
X118757142Y-94671428D01*
X118871428Y-94671428D01*
X118928571Y-94700000D01*
X118957142Y-94728571D01*
X118985714Y-94785714D01*
X118985714Y-94814285D01*
X118957142Y-94871428D01*
X118928571Y-94900000D01*
X118871428Y-94928571D01*
X118757142Y-94928571D01*
X118700000Y-94957142D01*
X118671428Y-94985714D01*
X118642857Y-95042857D01*
X118642857Y-95157142D01*
X118671428Y-95214285D01*
X118700000Y-95242857D01*
X118757142Y-95271428D01*
X118871428Y-95271428D01*
X118928571Y-95242857D01*
X118957142Y-95214285D01*
X118985714Y-95157142D01*
X118985714Y-95042857D01*
X118957142Y-94985714D01*
X118928571Y-94957142D01*
X118871428Y-94928571D01*
X119185714Y-94671428D02*
X119585714Y-94671428D01*
X119328571Y-95271428D01*
%TO.C,C90*%
X139414285Y-76385714D02*
X139442857Y-76414285D01*
X139471428Y-76500000D01*
X139471428Y-76557142D01*
X139442857Y-76642857D01*
X139385714Y-76700000D01*
X139328571Y-76728571D01*
X139214285Y-76757142D01*
X139128571Y-76757142D01*
X139014285Y-76728571D01*
X138957142Y-76700000D01*
X138900000Y-76642857D01*
X138871428Y-76557142D01*
X138871428Y-76500000D01*
X138900000Y-76414285D01*
X138928571Y-76385714D01*
X139471428Y-76100000D02*
X139471428Y-75985714D01*
X139442857Y-75928571D01*
X139414285Y-75900000D01*
X139328571Y-75842857D01*
X139214285Y-75814285D01*
X138985714Y-75814285D01*
X138928571Y-75842857D01*
X138900000Y-75871428D01*
X138871428Y-75928571D01*
X138871428Y-76042857D01*
X138900000Y-76100000D01*
X138928571Y-76128571D01*
X138985714Y-76157142D01*
X139128571Y-76157142D01*
X139185714Y-76128571D01*
X139214285Y-76100000D01*
X139242857Y-76042857D01*
X139242857Y-75928571D01*
X139214285Y-75871428D01*
X139185714Y-75842857D01*
X139128571Y-75814285D01*
X138871428Y-75442857D02*
X138871428Y-75385714D01*
X138900000Y-75328571D01*
X138928571Y-75300000D01*
X138985714Y-75271428D01*
X139100000Y-75242857D01*
X139242857Y-75242857D01*
X139357142Y-75271428D01*
X139414285Y-75300000D01*
X139442857Y-75328571D01*
X139471428Y-75385714D01*
X139471428Y-75442857D01*
X139442857Y-75500000D01*
X139414285Y-75528571D01*
X139357142Y-75557142D01*
X139242857Y-75585714D01*
X139100000Y-75585714D01*
X138985714Y-75557142D01*
X138928571Y-75528571D01*
X138900000Y-75500000D01*
X138871428Y-75442857D01*
%TO.C,C91*%
X135014285Y-79014285D02*
X134985714Y-79042857D01*
X134900000Y-79071428D01*
X134842857Y-79071428D01*
X134757142Y-79042857D01*
X134700000Y-78985714D01*
X134671428Y-78928571D01*
X134642857Y-78814285D01*
X134642857Y-78728571D01*
X134671428Y-78614285D01*
X134700000Y-78557142D01*
X134757142Y-78500000D01*
X134842857Y-78471428D01*
X134900000Y-78471428D01*
X134985714Y-78500000D01*
X135014285Y-78528571D01*
X135300000Y-79071428D02*
X135414285Y-79071428D01*
X135471428Y-79042857D01*
X135500000Y-79014285D01*
X135557142Y-78928571D01*
X135585714Y-78814285D01*
X135585714Y-78585714D01*
X135557142Y-78528571D01*
X135528571Y-78500000D01*
X135471428Y-78471428D01*
X135357142Y-78471428D01*
X135300000Y-78500000D01*
X135271428Y-78528571D01*
X135242857Y-78585714D01*
X135242857Y-78728571D01*
X135271428Y-78785714D01*
X135300000Y-78814285D01*
X135357142Y-78842857D01*
X135471428Y-78842857D01*
X135528571Y-78814285D01*
X135557142Y-78785714D01*
X135585714Y-78728571D01*
X136157142Y-79071428D02*
X135814285Y-79071428D01*
X135985714Y-79071428D02*
X135985714Y-78471428D01*
X135928571Y-78557142D01*
X135871428Y-78614285D01*
X135814285Y-78642857D01*
%TO.C,C93*%
X139864285Y-71514285D02*
X139835714Y-71542857D01*
X139750000Y-71571428D01*
X139692857Y-71571428D01*
X139607142Y-71542857D01*
X139550000Y-71485714D01*
X139521428Y-71428571D01*
X139492857Y-71314285D01*
X139492857Y-71228571D01*
X139521428Y-71114285D01*
X139550000Y-71057142D01*
X139607142Y-71000000D01*
X139692857Y-70971428D01*
X139750000Y-70971428D01*
X139835714Y-71000000D01*
X139864285Y-71028571D01*
X140150000Y-71571428D02*
X140264285Y-71571428D01*
X140321428Y-71542857D01*
X140350000Y-71514285D01*
X140407142Y-71428571D01*
X140435714Y-71314285D01*
X140435714Y-71085714D01*
X140407142Y-71028571D01*
X140378571Y-71000000D01*
X140321428Y-70971428D01*
X140207142Y-70971428D01*
X140150000Y-71000000D01*
X140121428Y-71028571D01*
X140092857Y-71085714D01*
X140092857Y-71228571D01*
X140121428Y-71285714D01*
X140150000Y-71314285D01*
X140207142Y-71342857D01*
X140321428Y-71342857D01*
X140378571Y-71314285D01*
X140407142Y-71285714D01*
X140435714Y-71228571D01*
X140635714Y-70971428D02*
X141007142Y-70971428D01*
X140807142Y-71200000D01*
X140892857Y-71200000D01*
X140950000Y-71228571D01*
X140978571Y-71257142D01*
X141007142Y-71314285D01*
X141007142Y-71457142D01*
X140978571Y-71514285D01*
X140950000Y-71542857D01*
X140892857Y-71571428D01*
X140721428Y-71571428D01*
X140664285Y-71542857D01*
X140635714Y-71514285D01*
%TO.C,C95*%
X138014285Y-71714285D02*
X137985714Y-71742857D01*
X137900000Y-71771428D01*
X137842857Y-71771428D01*
X137757142Y-71742857D01*
X137700000Y-71685714D01*
X137671428Y-71628571D01*
X137642857Y-71514285D01*
X137642857Y-71428571D01*
X137671428Y-71314285D01*
X137700000Y-71257142D01*
X137757142Y-71200000D01*
X137842857Y-71171428D01*
X137900000Y-71171428D01*
X137985714Y-71200000D01*
X138014285Y-71228571D01*
X138300000Y-71771428D02*
X138414285Y-71771428D01*
X138471428Y-71742857D01*
X138500000Y-71714285D01*
X138557142Y-71628571D01*
X138585714Y-71514285D01*
X138585714Y-71285714D01*
X138557142Y-71228571D01*
X138528571Y-71200000D01*
X138471428Y-71171428D01*
X138357142Y-71171428D01*
X138300000Y-71200000D01*
X138271428Y-71228571D01*
X138242857Y-71285714D01*
X138242857Y-71428571D01*
X138271428Y-71485714D01*
X138300000Y-71514285D01*
X138357142Y-71542857D01*
X138471428Y-71542857D01*
X138528571Y-71514285D01*
X138557142Y-71485714D01*
X138585714Y-71428571D01*
X139128571Y-71171428D02*
X138842857Y-71171428D01*
X138814285Y-71457142D01*
X138842857Y-71428571D01*
X138900000Y-71400000D01*
X139042857Y-71400000D01*
X139100000Y-71428571D01*
X139128571Y-71457142D01*
X139157142Y-71514285D01*
X139157142Y-71657142D01*
X139128571Y-71714285D01*
X139100000Y-71742857D01*
X139042857Y-71771428D01*
X138900000Y-71771428D01*
X138842857Y-71742857D01*
X138814285Y-71714285D01*
%TO.C,C96*%
X130714285Y-95214285D02*
X130685714Y-95242857D01*
X130600000Y-95271428D01*
X130542857Y-95271428D01*
X130457142Y-95242857D01*
X130400000Y-95185714D01*
X130371428Y-95128571D01*
X130342857Y-95014285D01*
X130342857Y-94928571D01*
X130371428Y-94814285D01*
X130400000Y-94757142D01*
X130457142Y-94700000D01*
X130542857Y-94671428D01*
X130600000Y-94671428D01*
X130685714Y-94700000D01*
X130714285Y-94728571D01*
X131000000Y-95271428D02*
X131114285Y-95271428D01*
X131171428Y-95242857D01*
X131200000Y-95214285D01*
X131257142Y-95128571D01*
X131285714Y-95014285D01*
X131285714Y-94785714D01*
X131257142Y-94728571D01*
X131228571Y-94700000D01*
X131171428Y-94671428D01*
X131057142Y-94671428D01*
X131000000Y-94700000D01*
X130971428Y-94728571D01*
X130942857Y-94785714D01*
X130942857Y-94928571D01*
X130971428Y-94985714D01*
X131000000Y-95014285D01*
X131057142Y-95042857D01*
X131171428Y-95042857D01*
X131228571Y-95014285D01*
X131257142Y-94985714D01*
X131285714Y-94928571D01*
X131800000Y-94671428D02*
X131685714Y-94671428D01*
X131628571Y-94700000D01*
X131600000Y-94728571D01*
X131542857Y-94814285D01*
X131514285Y-94928571D01*
X131514285Y-95157142D01*
X131542857Y-95214285D01*
X131571428Y-95242857D01*
X131628571Y-95271428D01*
X131742857Y-95271428D01*
X131800000Y-95242857D01*
X131828571Y-95214285D01*
X131857142Y-95157142D01*
X131857142Y-95014285D01*
X131828571Y-94957142D01*
X131800000Y-94928571D01*
X131742857Y-94900000D01*
X131628571Y-94900000D01*
X131571428Y-94928571D01*
X131542857Y-94957142D01*
X131514285Y-95014285D01*
%TO.C,C103*%
X130228571Y-79214285D02*
X130200000Y-79242857D01*
X130114285Y-79271428D01*
X130057142Y-79271428D01*
X129971428Y-79242857D01*
X129914285Y-79185714D01*
X129885714Y-79128571D01*
X129857142Y-79014285D01*
X129857142Y-78928571D01*
X129885714Y-78814285D01*
X129914285Y-78757142D01*
X129971428Y-78700000D01*
X130057142Y-78671428D01*
X130114285Y-78671428D01*
X130200000Y-78700000D01*
X130228571Y-78728571D01*
X130800000Y-79271428D02*
X130457142Y-79271428D01*
X130628571Y-79271428D02*
X130628571Y-78671428D01*
X130571428Y-78757142D01*
X130514285Y-78814285D01*
X130457142Y-78842857D01*
X131171428Y-78671428D02*
X131228571Y-78671428D01*
X131285714Y-78700000D01*
X131314285Y-78728571D01*
X131342857Y-78785714D01*
X131371428Y-78900000D01*
X131371428Y-79042857D01*
X131342857Y-79157142D01*
X131314285Y-79214285D01*
X131285714Y-79242857D01*
X131228571Y-79271428D01*
X131171428Y-79271428D01*
X131114285Y-79242857D01*
X131085714Y-79214285D01*
X131057142Y-79157142D01*
X131028571Y-79042857D01*
X131028571Y-78900000D01*
X131057142Y-78785714D01*
X131085714Y-78728571D01*
X131114285Y-78700000D01*
X131171428Y-78671428D01*
X131571428Y-78671428D02*
X131942857Y-78671428D01*
X131742857Y-78900000D01*
X131828571Y-78900000D01*
X131885714Y-78928571D01*
X131914285Y-78957142D01*
X131942857Y-79014285D01*
X131942857Y-79157142D01*
X131914285Y-79214285D01*
X131885714Y-79242857D01*
X131828571Y-79271428D01*
X131657142Y-79271428D01*
X131600000Y-79242857D01*
X131571428Y-79214285D01*
%TO.C,D3*%
X101021428Y-74557857D02*
X100421428Y-74557857D01*
X100421428Y-74415000D01*
X100450000Y-74329285D01*
X100507142Y-74272142D01*
X100564285Y-74243571D01*
X100678571Y-74215000D01*
X100764285Y-74215000D01*
X100878571Y-74243571D01*
X100935714Y-74272142D01*
X100992857Y-74329285D01*
X101021428Y-74415000D01*
X101021428Y-74557857D01*
X100421428Y-74015000D02*
X100421428Y-73643571D01*
X100650000Y-73843571D01*
X100650000Y-73757857D01*
X100678571Y-73700714D01*
X100707142Y-73672142D01*
X100764285Y-73643571D01*
X100907142Y-73643571D01*
X100964285Y-73672142D01*
X100992857Y-73700714D01*
X101021428Y-73757857D01*
X101021428Y-73929285D01*
X100992857Y-73986428D01*
X100964285Y-74015000D01*
%TO.C,D4*%
X147757142Y-72771428D02*
X147757142Y-72171428D01*
X147900000Y-72171428D01*
X147985714Y-72200000D01*
X148042857Y-72257142D01*
X148071428Y-72314285D01*
X148100000Y-72428571D01*
X148100000Y-72514285D01*
X148071428Y-72628571D01*
X148042857Y-72685714D01*
X147985714Y-72742857D01*
X147900000Y-72771428D01*
X147757142Y-72771428D01*
X148614285Y-72371428D02*
X148614285Y-72771428D01*
X148471428Y-72142857D02*
X148328571Y-72571428D01*
X148700000Y-72571428D01*
%TO.C,D5*%
X111257142Y-63971428D02*
X111257142Y-63371428D01*
X111400000Y-63371428D01*
X111485714Y-63400000D01*
X111542857Y-63457142D01*
X111571428Y-63514285D01*
X111600000Y-63628571D01*
X111600000Y-63714285D01*
X111571428Y-63828571D01*
X111542857Y-63885714D01*
X111485714Y-63942857D01*
X111400000Y-63971428D01*
X111257142Y-63971428D01*
X112142857Y-63371428D02*
X111857142Y-63371428D01*
X111828571Y-63657142D01*
X111857142Y-63628571D01*
X111914285Y-63600000D01*
X112057142Y-63600000D01*
X112114285Y-63628571D01*
X112142857Y-63657142D01*
X112171428Y-63714285D01*
X112171428Y-63857142D01*
X112142857Y-63914285D01*
X112114285Y-63942857D01*
X112057142Y-63971428D01*
X111914285Y-63971428D01*
X111857142Y-63942857D01*
X111828571Y-63914285D01*
%TO.C,R2*%
X145371428Y-71000000D02*
X145085714Y-71200000D01*
X145371428Y-71342857D02*
X144771428Y-71342857D01*
X144771428Y-71114285D01*
X144800000Y-71057142D01*
X144828571Y-71028571D01*
X144885714Y-71000000D01*
X144971428Y-71000000D01*
X145028571Y-71028571D01*
X145057142Y-71057142D01*
X145085714Y-71114285D01*
X145085714Y-71342857D01*
X144828571Y-70771428D02*
X144800000Y-70742857D01*
X144771428Y-70685714D01*
X144771428Y-70542857D01*
X144800000Y-70485714D01*
X144828571Y-70457142D01*
X144885714Y-70428571D01*
X144942857Y-70428571D01*
X145028571Y-70457142D01*
X145371428Y-70800000D01*
X145371428Y-70428571D01*
%TO.C,R3*%
X121159600Y-79671428D02*
X120959600Y-79385714D01*
X120816742Y-79671428D02*
X120816742Y-79071428D01*
X121045314Y-79071428D01*
X121102457Y-79100000D01*
X121131028Y-79128571D01*
X121159600Y-79185714D01*
X121159600Y-79271428D01*
X121131028Y-79328571D01*
X121102457Y-79357142D01*
X121045314Y-79385714D01*
X120816742Y-79385714D01*
X121359600Y-79071428D02*
X121731028Y-79071428D01*
X121531028Y-79300000D01*
X121616742Y-79300000D01*
X121673885Y-79328571D01*
X121702457Y-79357142D01*
X121731028Y-79414285D01*
X121731028Y-79557142D01*
X121702457Y-79614285D01*
X121673885Y-79642857D01*
X121616742Y-79671428D01*
X121445314Y-79671428D01*
X121388171Y-79642857D01*
X121359600Y-79614285D01*
%TO.C,R21*%
X104514285Y-60071428D02*
X104314285Y-59785714D01*
X104171428Y-60071428D02*
X104171428Y-59471428D01*
X104400000Y-59471428D01*
X104457142Y-59500000D01*
X104485714Y-59528571D01*
X104514285Y-59585714D01*
X104514285Y-59671428D01*
X104485714Y-59728571D01*
X104457142Y-59757142D01*
X104400000Y-59785714D01*
X104171428Y-59785714D01*
X104742857Y-59528571D02*
X104771428Y-59500000D01*
X104828571Y-59471428D01*
X104971428Y-59471428D01*
X105028571Y-59500000D01*
X105057142Y-59528571D01*
X105085714Y-59585714D01*
X105085714Y-59642857D01*
X105057142Y-59728571D01*
X104714285Y-60071428D01*
X105085714Y-60071428D01*
X105657142Y-60071428D02*
X105314285Y-60071428D01*
X105485714Y-60071428D02*
X105485714Y-59471428D01*
X105428571Y-59557142D01*
X105371428Y-59614285D01*
X105314285Y-59642857D01*
%TO.C,R22*%
X143514285Y-57671428D02*
X143314285Y-57385714D01*
X143171428Y-57671428D02*
X143171428Y-57071428D01*
X143400000Y-57071428D01*
X143457142Y-57100000D01*
X143485714Y-57128571D01*
X143514285Y-57185714D01*
X143514285Y-57271428D01*
X143485714Y-57328571D01*
X143457142Y-57357142D01*
X143400000Y-57385714D01*
X143171428Y-57385714D01*
X143742857Y-57128571D02*
X143771428Y-57100000D01*
X143828571Y-57071428D01*
X143971428Y-57071428D01*
X144028571Y-57100000D01*
X144057142Y-57128571D01*
X144085714Y-57185714D01*
X144085714Y-57242857D01*
X144057142Y-57328571D01*
X143714285Y-57671428D01*
X144085714Y-57671428D01*
X144314285Y-57128571D02*
X144342857Y-57100000D01*
X144400000Y-57071428D01*
X144542857Y-57071428D01*
X144600000Y-57100000D01*
X144628571Y-57128571D01*
X144657142Y-57185714D01*
X144657142Y-57242857D01*
X144628571Y-57328571D01*
X144285714Y-57671428D01*
X144657142Y-57671428D01*
%TO.C,R23*%
X140214285Y-58371428D02*
X140014285Y-58085714D01*
X139871428Y-58371428D02*
X139871428Y-57771428D01*
X140100000Y-57771428D01*
X140157142Y-57800000D01*
X140185714Y-57828571D01*
X140214285Y-57885714D01*
X140214285Y-57971428D01*
X140185714Y-58028571D01*
X140157142Y-58057142D01*
X140100000Y-58085714D01*
X139871428Y-58085714D01*
X140442857Y-57828571D02*
X140471428Y-57800000D01*
X140528571Y-57771428D01*
X140671428Y-57771428D01*
X140728571Y-57800000D01*
X140757142Y-57828571D01*
X140785714Y-57885714D01*
X140785714Y-57942857D01*
X140757142Y-58028571D01*
X140414285Y-58371428D01*
X140785714Y-58371428D01*
X140985714Y-57771428D02*
X141357142Y-57771428D01*
X141157142Y-58000000D01*
X141242857Y-58000000D01*
X141300000Y-58028571D01*
X141328571Y-58057142D01*
X141357142Y-58114285D01*
X141357142Y-58257142D01*
X141328571Y-58314285D01*
X141300000Y-58342857D01*
X141242857Y-58371428D01*
X141071428Y-58371428D01*
X141014285Y-58342857D01*
X140985714Y-58314285D01*
%TO.C,R24*%
X138214285Y-58371428D02*
X138014285Y-58085714D01*
X137871428Y-58371428D02*
X137871428Y-57771428D01*
X138100000Y-57771428D01*
X138157142Y-57800000D01*
X138185714Y-57828571D01*
X138214285Y-57885714D01*
X138214285Y-57971428D01*
X138185714Y-58028571D01*
X138157142Y-58057142D01*
X138100000Y-58085714D01*
X137871428Y-58085714D01*
X138442857Y-57828571D02*
X138471428Y-57800000D01*
X138528571Y-57771428D01*
X138671428Y-57771428D01*
X138728571Y-57800000D01*
X138757142Y-57828571D01*
X138785714Y-57885714D01*
X138785714Y-57942857D01*
X138757142Y-58028571D01*
X138414285Y-58371428D01*
X138785714Y-58371428D01*
X139300000Y-57971428D02*
X139300000Y-58371428D01*
X139157142Y-57742857D02*
X139014285Y-58171428D01*
X139385714Y-58171428D01*
%TO.C,R29*%
X119314285Y-50771428D02*
X119114285Y-50485714D01*
X118971428Y-50771428D02*
X118971428Y-50171428D01*
X119200000Y-50171428D01*
X119257142Y-50200000D01*
X119285714Y-50228571D01*
X119314285Y-50285714D01*
X119314285Y-50371428D01*
X119285714Y-50428571D01*
X119257142Y-50457142D01*
X119200000Y-50485714D01*
X118971428Y-50485714D01*
X119542857Y-50228571D02*
X119571428Y-50200000D01*
X119628571Y-50171428D01*
X119771428Y-50171428D01*
X119828571Y-50200000D01*
X119857142Y-50228571D01*
X119885714Y-50285714D01*
X119885714Y-50342857D01*
X119857142Y-50428571D01*
X119514285Y-50771428D01*
X119885714Y-50771428D01*
X120171428Y-50771428D02*
X120285714Y-50771428D01*
X120342857Y-50742857D01*
X120371428Y-50714285D01*
X120428571Y-50628571D01*
X120457142Y-50514285D01*
X120457142Y-50285714D01*
X120428571Y-50228571D01*
X120400000Y-50200000D01*
X120342857Y-50171428D01*
X120228571Y-50171428D01*
X120171428Y-50200000D01*
X120142857Y-50228571D01*
X120114285Y-50285714D01*
X120114285Y-50428571D01*
X120142857Y-50485714D01*
X120171428Y-50514285D01*
X120228571Y-50542857D01*
X120342857Y-50542857D01*
X120400000Y-50514285D01*
X120428571Y-50485714D01*
X120457142Y-50428571D01*
%TO.C,R30*%
X128071428Y-53585714D02*
X127785714Y-53785714D01*
X128071428Y-53928571D02*
X127471428Y-53928571D01*
X127471428Y-53700000D01*
X127500000Y-53642857D01*
X127528571Y-53614285D01*
X127585714Y-53585714D01*
X127671428Y-53585714D01*
X127728571Y-53614285D01*
X127757142Y-53642857D01*
X127785714Y-53700000D01*
X127785714Y-53928571D01*
X127471428Y-53385714D02*
X127471428Y-53014285D01*
X127700000Y-53214285D01*
X127700000Y-53128571D01*
X127728571Y-53071428D01*
X127757142Y-53042857D01*
X127814285Y-53014285D01*
X127957142Y-53014285D01*
X128014285Y-53042857D01*
X128042857Y-53071428D01*
X128071428Y-53128571D01*
X128071428Y-53300000D01*
X128042857Y-53357142D01*
X128014285Y-53385714D01*
X127471428Y-52642857D02*
X127471428Y-52585714D01*
X127500000Y-52528571D01*
X127528571Y-52500000D01*
X127585714Y-52471428D01*
X127700000Y-52442857D01*
X127842857Y-52442857D01*
X127957142Y-52471428D01*
X128014285Y-52500000D01*
X128042857Y-52528571D01*
X128071428Y-52585714D01*
X128071428Y-52642857D01*
X128042857Y-52700000D01*
X128014285Y-52728571D01*
X127957142Y-52757142D01*
X127842857Y-52785714D01*
X127700000Y-52785714D01*
X127585714Y-52757142D01*
X127528571Y-52728571D01*
X127500000Y-52700000D01*
X127471428Y-52642857D01*
%TO.C,R35*%
X118314285Y-87071428D02*
X118114285Y-86785714D01*
X117971428Y-87071428D02*
X117971428Y-86471428D01*
X118200000Y-86471428D01*
X118257142Y-86500000D01*
X118285714Y-86528571D01*
X118314285Y-86585714D01*
X118314285Y-86671428D01*
X118285714Y-86728571D01*
X118257142Y-86757142D01*
X118200000Y-86785714D01*
X117971428Y-86785714D01*
X118514285Y-86471428D02*
X118885714Y-86471428D01*
X118685714Y-86700000D01*
X118771428Y-86700000D01*
X118828571Y-86728571D01*
X118857142Y-86757142D01*
X118885714Y-86814285D01*
X118885714Y-86957142D01*
X118857142Y-87014285D01*
X118828571Y-87042857D01*
X118771428Y-87071428D01*
X118600000Y-87071428D01*
X118542857Y-87042857D01*
X118514285Y-87014285D01*
X119428571Y-86471428D02*
X119142857Y-86471428D01*
X119114285Y-86757142D01*
X119142857Y-86728571D01*
X119200000Y-86700000D01*
X119342857Y-86700000D01*
X119400000Y-86728571D01*
X119428571Y-86757142D01*
X119457142Y-86814285D01*
X119457142Y-86957142D01*
X119428571Y-87014285D01*
X119400000Y-87042857D01*
X119342857Y-87071428D01*
X119200000Y-87071428D01*
X119142857Y-87042857D01*
X119114285Y-87014285D01*
%TO.C,R44*%
X115514285Y-87571428D02*
X115314285Y-87285714D01*
X115171428Y-87571428D02*
X115171428Y-86971428D01*
X115400000Y-86971428D01*
X115457142Y-87000000D01*
X115485714Y-87028571D01*
X115514285Y-87085714D01*
X115514285Y-87171428D01*
X115485714Y-87228571D01*
X115457142Y-87257142D01*
X115400000Y-87285714D01*
X115171428Y-87285714D01*
X116028571Y-87171428D02*
X116028571Y-87571428D01*
X115885714Y-86942857D02*
X115742857Y-87371428D01*
X116114285Y-87371428D01*
X116600000Y-87171428D02*
X116600000Y-87571428D01*
X116457142Y-86942857D02*
X116314285Y-87371428D01*
X116685714Y-87371428D01*
%TO.C,R49*%
X130814285Y-87571428D02*
X130614285Y-87285714D01*
X130471428Y-87571428D02*
X130471428Y-86971428D01*
X130700000Y-86971428D01*
X130757142Y-87000000D01*
X130785714Y-87028571D01*
X130814285Y-87085714D01*
X130814285Y-87171428D01*
X130785714Y-87228571D01*
X130757142Y-87257142D01*
X130700000Y-87285714D01*
X130471428Y-87285714D01*
X131328571Y-87171428D02*
X131328571Y-87571428D01*
X131185714Y-86942857D02*
X131042857Y-87371428D01*
X131414285Y-87371428D01*
X131671428Y-87571428D02*
X131785714Y-87571428D01*
X131842857Y-87542857D01*
X131871428Y-87514285D01*
X131928571Y-87428571D01*
X131957142Y-87314285D01*
X131957142Y-87085714D01*
X131928571Y-87028571D01*
X131900000Y-87000000D01*
X131842857Y-86971428D01*
X131728571Y-86971428D01*
X131671428Y-87000000D01*
X131642857Y-87028571D01*
X131614285Y-87085714D01*
X131614285Y-87228571D01*
X131642857Y-87285714D01*
X131671428Y-87314285D01*
X131728571Y-87342857D01*
X131842857Y-87342857D01*
X131900000Y-87314285D01*
X131928571Y-87285714D01*
X131957142Y-87228571D01*
%TO.C,R58*%
X133714285Y-87071428D02*
X133514285Y-86785714D01*
X133371428Y-87071428D02*
X133371428Y-86471428D01*
X133600000Y-86471428D01*
X133657142Y-86500000D01*
X133685714Y-86528571D01*
X133714285Y-86585714D01*
X133714285Y-86671428D01*
X133685714Y-86728571D01*
X133657142Y-86757142D01*
X133600000Y-86785714D01*
X133371428Y-86785714D01*
X134257142Y-86471428D02*
X133971428Y-86471428D01*
X133942857Y-86757142D01*
X133971428Y-86728571D01*
X134028571Y-86700000D01*
X134171428Y-86700000D01*
X134228571Y-86728571D01*
X134257142Y-86757142D01*
X134285714Y-86814285D01*
X134285714Y-86957142D01*
X134257142Y-87014285D01*
X134228571Y-87042857D01*
X134171428Y-87071428D01*
X134028571Y-87071428D01*
X133971428Y-87042857D01*
X133942857Y-87014285D01*
X134628571Y-86728571D02*
X134571428Y-86700000D01*
X134542857Y-86671428D01*
X134514285Y-86614285D01*
X134514285Y-86585714D01*
X134542857Y-86528571D01*
X134571428Y-86500000D01*
X134628571Y-86471428D01*
X134742857Y-86471428D01*
X134800000Y-86500000D01*
X134828571Y-86528571D01*
X134857142Y-86585714D01*
X134857142Y-86614285D01*
X134828571Y-86671428D01*
X134800000Y-86700000D01*
X134742857Y-86728571D01*
X134628571Y-86728571D01*
X134571428Y-86757142D01*
X134542857Y-86785714D01*
X134514285Y-86842857D01*
X134514285Y-86957142D01*
X134542857Y-87014285D01*
X134571428Y-87042857D01*
X134628571Y-87071428D01*
X134742857Y-87071428D01*
X134800000Y-87042857D01*
X134828571Y-87014285D01*
X134857142Y-86957142D01*
X134857142Y-86842857D01*
X134828571Y-86785714D01*
X134800000Y-86757142D01*
X134742857Y-86728571D01*
%TO.C,SW1*%
X115300000Y-52342857D02*
X115385714Y-52371428D01*
X115528571Y-52371428D01*
X115585714Y-52342857D01*
X115614285Y-52314285D01*
X115642857Y-52257142D01*
X115642857Y-52200000D01*
X115614285Y-52142857D01*
X115585714Y-52114285D01*
X115528571Y-52085714D01*
X115414285Y-52057142D01*
X115357142Y-52028571D01*
X115328571Y-52000000D01*
X115300000Y-51942857D01*
X115300000Y-51885714D01*
X115328571Y-51828571D01*
X115357142Y-51800000D01*
X115414285Y-51771428D01*
X115557142Y-51771428D01*
X115642857Y-51800000D01*
X115842857Y-51771428D02*
X115985714Y-52371428D01*
X116100000Y-51942857D01*
X116214285Y-52371428D01*
X116357142Y-51771428D01*
X116900000Y-52371428D02*
X116557142Y-52371428D01*
X116728571Y-52371428D02*
X116728571Y-51771428D01*
X116671428Y-51857142D01*
X116614285Y-51914285D01*
X116557142Y-51942857D01*
%TO.C,U8*%
X107112857Y-59071428D02*
X107112857Y-59557142D01*
X107141428Y-59614285D01*
X107170000Y-59642857D01*
X107227142Y-59671428D01*
X107341428Y-59671428D01*
X107398571Y-59642857D01*
X107427142Y-59614285D01*
X107455714Y-59557142D01*
X107455714Y-59071428D01*
X107827142Y-59328571D02*
X107770000Y-59300000D01*
X107741428Y-59271428D01*
X107712857Y-59214285D01*
X107712857Y-59185714D01*
X107741428Y-59128571D01*
X107770000Y-59100000D01*
X107827142Y-59071428D01*
X107941428Y-59071428D01*
X107998571Y-59100000D01*
X108027142Y-59128571D01*
X108055714Y-59185714D01*
X108055714Y-59214285D01*
X108027142Y-59271428D01*
X107998571Y-59300000D01*
X107941428Y-59328571D01*
X107827142Y-59328571D01*
X107770000Y-59357142D01*
X107741428Y-59385714D01*
X107712857Y-59442857D01*
X107712857Y-59557142D01*
X107741428Y-59614285D01*
X107770000Y-59642857D01*
X107827142Y-59671428D01*
X107941428Y-59671428D01*
X107998571Y-59642857D01*
X108027142Y-59614285D01*
X108055714Y-59557142D01*
X108055714Y-59442857D01*
X108027142Y-59385714D01*
X107998571Y-59357142D01*
X107941428Y-59328571D01*
%TO.C,D1*%
X124607142Y-50981428D02*
X124607142Y-50381428D01*
X124750000Y-50381428D01*
X124835714Y-50410000D01*
X124892857Y-50467142D01*
X124921428Y-50524285D01*
X124950000Y-50638571D01*
X124950000Y-50724285D01*
X124921428Y-50838571D01*
X124892857Y-50895714D01*
X124835714Y-50952857D01*
X124750000Y-50981428D01*
X124607142Y-50981428D01*
X125521428Y-50981428D02*
X125178571Y-50981428D01*
X125350000Y-50981428D02*
X125350000Y-50381428D01*
X125292857Y-50467142D01*
X125235714Y-50524285D01*
X125178571Y-50552857D01*
%TO.C,Q7*%
X121142857Y-50828571D02*
X121085714Y-50800000D01*
X121028571Y-50742857D01*
X120942857Y-50657142D01*
X120885714Y-50628571D01*
X120828571Y-50628571D01*
X120857142Y-50771428D02*
X120800000Y-50742857D01*
X120742857Y-50685714D01*
X120714285Y-50571428D01*
X120714285Y-50371428D01*
X120742857Y-50257142D01*
X120800000Y-50200000D01*
X120857142Y-50171428D01*
X120971428Y-50171428D01*
X121028571Y-50200000D01*
X121085714Y-50257142D01*
X121114285Y-50371428D01*
X121114285Y-50571428D01*
X121085714Y-50685714D01*
X121028571Y-50742857D01*
X120971428Y-50771428D01*
X120857142Y-50771428D01*
X121314285Y-50171428D02*
X121714285Y-50171428D01*
X121457142Y-50771428D01*
%TO.C,R4*%
X122471428Y-52300000D02*
X122185714Y-52500000D01*
X122471428Y-52642857D02*
X121871428Y-52642857D01*
X121871428Y-52414285D01*
X121900000Y-52357142D01*
X121928571Y-52328571D01*
X121985714Y-52300000D01*
X122071428Y-52300000D01*
X122128571Y-52328571D01*
X122157142Y-52357142D01*
X122185714Y-52414285D01*
X122185714Y-52642857D01*
X122071428Y-51785714D02*
X122471428Y-51785714D01*
X121842857Y-51928571D02*
X122271428Y-52071428D01*
X122271428Y-51700000D01*
%TO.C,C20*%
X131104285Y-97014285D02*
X131075714Y-97042857D01*
X130990000Y-97071428D01*
X130932857Y-97071428D01*
X130847142Y-97042857D01*
X130790000Y-96985714D01*
X130761428Y-96928571D01*
X130732857Y-96814285D01*
X130732857Y-96728571D01*
X130761428Y-96614285D01*
X130790000Y-96557142D01*
X130847142Y-96500000D01*
X130932857Y-96471428D01*
X130990000Y-96471428D01*
X131075714Y-96500000D01*
X131104285Y-96528571D01*
X131332857Y-96528571D02*
X131361428Y-96500000D01*
X131418571Y-96471428D01*
X131561428Y-96471428D01*
X131618571Y-96500000D01*
X131647142Y-96528571D01*
X131675714Y-96585714D01*
X131675714Y-96642857D01*
X131647142Y-96728571D01*
X131304285Y-97071428D01*
X131675714Y-97071428D01*
X132047142Y-96471428D02*
X132104285Y-96471428D01*
X132161428Y-96500000D01*
X132190000Y-96528571D01*
X132218571Y-96585714D01*
X132247142Y-96700000D01*
X132247142Y-96842857D01*
X132218571Y-96957142D01*
X132190000Y-97014285D01*
X132161428Y-97042857D01*
X132104285Y-97071428D01*
X132047142Y-97071428D01*
X131990000Y-97042857D01*
X131961428Y-97014285D01*
X131932857Y-96957142D01*
X131904285Y-96842857D01*
X131904285Y-96700000D01*
X131932857Y-96585714D01*
X131961428Y-96528571D01*
X131990000Y-96500000D01*
X132047142Y-96471428D01*
%TO.C,C24*%
X135214285Y-97214285D02*
X135185714Y-97242857D01*
X135100000Y-97271428D01*
X135042857Y-97271428D01*
X134957142Y-97242857D01*
X134900000Y-97185714D01*
X134871428Y-97128571D01*
X134842857Y-97014285D01*
X134842857Y-96928571D01*
X134871428Y-96814285D01*
X134900000Y-96757142D01*
X134957142Y-96700000D01*
X135042857Y-96671428D01*
X135100000Y-96671428D01*
X135185714Y-96700000D01*
X135214285Y-96728571D01*
X135442857Y-96728571D02*
X135471428Y-96700000D01*
X135528571Y-96671428D01*
X135671428Y-96671428D01*
X135728571Y-96700000D01*
X135757142Y-96728571D01*
X135785714Y-96785714D01*
X135785714Y-96842857D01*
X135757142Y-96928571D01*
X135414285Y-97271428D01*
X135785714Y-97271428D01*
X136300000Y-96871428D02*
X136300000Y-97271428D01*
X136157142Y-96642857D02*
X136014285Y-97071428D01*
X136385714Y-97071428D01*
%TO.C,U7*%
X116842857Y-96271428D02*
X116842857Y-96757142D01*
X116871428Y-96814285D01*
X116900000Y-96842857D01*
X116957142Y-96871428D01*
X117071428Y-96871428D01*
X117128571Y-96842857D01*
X117157142Y-96814285D01*
X117185714Y-96757142D01*
X117185714Y-96271428D01*
X117414285Y-96271428D02*
X117814285Y-96271428D01*
X117557142Y-96871428D01*
%TO.C,U17*%
X132757142Y-98471428D02*
X132757142Y-98957142D01*
X132785714Y-99014285D01*
X132814285Y-99042857D01*
X132871428Y-99071428D01*
X132985714Y-99071428D01*
X133042857Y-99042857D01*
X133071428Y-99014285D01*
X133100000Y-98957142D01*
X133100000Y-98471428D01*
X133700000Y-99071428D02*
X133357142Y-99071428D01*
X133528571Y-99071428D02*
X133528571Y-98471428D01*
X133471428Y-98557142D01*
X133414285Y-98614285D01*
X133357142Y-98642857D01*
X133900000Y-98471428D02*
X134300000Y-98471428D01*
X134042857Y-99071428D01*
%TO.C,J3*%
X104900000Y-71271428D02*
X104900000Y-71700000D01*
X104871428Y-71785714D01*
X104814285Y-71842857D01*
X104728571Y-71871428D01*
X104671428Y-71871428D01*
X105128571Y-71271428D02*
X105500000Y-71271428D01*
X105300000Y-71500000D01*
X105385714Y-71500000D01*
X105442857Y-71528571D01*
X105471428Y-71557142D01*
X105500000Y-71614285D01*
X105500000Y-71757142D01*
X105471428Y-71814285D01*
X105442857Y-71842857D01*
X105385714Y-71871428D01*
X105214285Y-71871428D01*
X105157142Y-71842857D01*
X105128571Y-71814285D01*
%TO.C,J4*%
X144800000Y-66071428D02*
X144800000Y-66500000D01*
X144771428Y-66585714D01*
X144714285Y-66642857D01*
X144628571Y-66671428D01*
X144571428Y-66671428D01*
X145342857Y-66271428D02*
X145342857Y-66671428D01*
X145200000Y-66042857D02*
X145057142Y-66471428D01*
X145428571Y-66471428D01*
%TO.C,J7*%
X100600000Y-64071428D02*
X100600000Y-64500000D01*
X100571428Y-64585714D01*
X100514285Y-64642857D01*
X100428571Y-64671428D01*
X100371428Y-64671428D01*
X100828571Y-64071428D02*
X101228571Y-64071428D01*
X100971428Y-64671428D01*
%TO.C,J8*%
X134200002Y-54571428D02*
X134200002Y-55000000D01*
X134171430Y-55085714D01*
X134114287Y-55142857D01*
X134028573Y-55171428D01*
X133971430Y-55171428D01*
X134571430Y-54828571D02*
X134514287Y-54800000D01*
X134485716Y-54771428D01*
X134457144Y-54714285D01*
X134457144Y-54685714D01*
X134485716Y-54628571D01*
X134514287Y-54600000D01*
X134571430Y-54571428D01*
X134685716Y-54571428D01*
X134742859Y-54600000D01*
X134771430Y-54628571D01*
X134800002Y-54685714D01*
X134800002Y-54714285D01*
X134771430Y-54771428D01*
X134742859Y-54800000D01*
X134685716Y-54828571D01*
X134571430Y-54828571D01*
X134514287Y-54857142D01*
X134485716Y-54885714D01*
X134457144Y-54942857D01*
X134457144Y-55057142D01*
X134485716Y-55114285D01*
X134514287Y-55142857D01*
X134571430Y-55171428D01*
X134685716Y-55171428D01*
X134742859Y-55142857D01*
X134771430Y-55114285D01*
X134800002Y-55057142D01*
X134800002Y-54942857D01*
X134771430Y-54885714D01*
X134742859Y-54857142D01*
X134685716Y-54828571D01*
%TO.C,J10*%
X144314285Y-54871432D02*
X144314285Y-55300004D01*
X144285714Y-55385718D01*
X144228571Y-55442861D01*
X144142857Y-55471432D01*
X144085714Y-55471432D01*
X144914285Y-55471432D02*
X144571428Y-55471432D01*
X144742857Y-55471432D02*
X144742857Y-54871432D01*
X144685714Y-54957146D01*
X144628571Y-55014289D01*
X144571428Y-55042861D01*
X145285714Y-54871432D02*
X145342857Y-54871432D01*
X145400000Y-54900004D01*
X145428571Y-54928575D01*
X145457142Y-54985718D01*
X145485714Y-55100004D01*
X145485714Y-55242861D01*
X145457142Y-55357146D01*
X145428571Y-55414289D01*
X145400000Y-55442861D01*
X145342857Y-55471432D01*
X145285714Y-55471432D01*
X145228571Y-55442861D01*
X145200000Y-55414289D01*
X145171428Y-55357146D01*
X145142857Y-55242861D01*
X145142857Y-55100004D01*
X145171428Y-54985718D01*
X145200000Y-54928575D01*
X145228571Y-54900004D01*
X145285714Y-54871432D01*
%TO.C,U20*%
X145157142Y-72171428D02*
X145157142Y-72657142D01*
X145185714Y-72714285D01*
X145214285Y-72742857D01*
X145271428Y-72771428D01*
X145385714Y-72771428D01*
X145442857Y-72742857D01*
X145471428Y-72714285D01*
X145500000Y-72657142D01*
X145500000Y-72171428D01*
X145757142Y-72228571D02*
X145785714Y-72200000D01*
X145842857Y-72171428D01*
X145985714Y-72171428D01*
X146042857Y-72200000D01*
X146071428Y-72228571D01*
X146100000Y-72285714D01*
X146100000Y-72342857D01*
X146071428Y-72428571D01*
X145728571Y-72771428D01*
X146100000Y-72771428D01*
X146471428Y-72171428D02*
X146528571Y-72171428D01*
X146585714Y-72200000D01*
X146614285Y-72228571D01*
X146642857Y-72285714D01*
X146671428Y-72400000D01*
X146671428Y-72542857D01*
X146642857Y-72657142D01*
X146614285Y-72714285D01*
X146585714Y-72742857D01*
X146528571Y-72771428D01*
X146471428Y-72771428D01*
X146414285Y-72742857D01*
X146385714Y-72714285D01*
X146357142Y-72657142D01*
X146328571Y-72542857D01*
X146328571Y-72400000D01*
X146357142Y-72285714D01*
X146385714Y-72228571D01*
X146414285Y-72200000D01*
X146471428Y-72171428D01*
%TO.C,X1*%
X125914285Y-51271428D02*
X126314285Y-51871428D01*
X126314285Y-51271428D02*
X125914285Y-51871428D01*
X126857142Y-51871428D02*
X126514285Y-51871428D01*
X126685714Y-51871428D02*
X126685714Y-51271428D01*
X126628571Y-51357142D01*
X126571428Y-51414285D01*
X126514285Y-51442857D01*
%TO.C,D13*%
X142871428Y-70128571D02*
X142271428Y-70128571D01*
X142271428Y-69985714D01*
X142300000Y-69900000D01*
X142357142Y-69842857D01*
X142414285Y-69814285D01*
X142528571Y-69785714D01*
X142614285Y-69785714D01*
X142728571Y-69814285D01*
X142785714Y-69842857D01*
X142842857Y-69900000D01*
X142871428Y-69985714D01*
X142871428Y-70128571D01*
X142871428Y-69214285D02*
X142871428Y-69557142D01*
X142871428Y-69385714D02*
X142271428Y-69385714D01*
X142357142Y-69442857D01*
X142414285Y-69500000D01*
X142442857Y-69557142D01*
X142271428Y-69014285D02*
X142271428Y-68642857D01*
X142500000Y-68842857D01*
X142500000Y-68757142D01*
X142528571Y-68700000D01*
X142557142Y-68671428D01*
X142614285Y-68642857D01*
X142757142Y-68642857D01*
X142814285Y-68671428D01*
X142842857Y-68700000D01*
X142871428Y-68757142D01*
X142871428Y-68928571D01*
X142842857Y-68985714D01*
X142814285Y-69014285D01*
%TO.C,D14*%
X117221428Y-54271428D02*
X117221428Y-53671428D01*
X117364285Y-53671428D01*
X117450000Y-53700000D01*
X117507142Y-53757142D01*
X117535714Y-53814285D01*
X117564285Y-53928571D01*
X117564285Y-54014285D01*
X117535714Y-54128571D01*
X117507142Y-54185714D01*
X117450000Y-54242857D01*
X117364285Y-54271428D01*
X117221428Y-54271428D01*
X118135714Y-54271428D02*
X117792857Y-54271428D01*
X117964285Y-54271428D02*
X117964285Y-53671428D01*
X117907142Y-53757142D01*
X117850000Y-53814285D01*
X117792857Y-53842857D01*
X118650000Y-53871428D02*
X118650000Y-54271428D01*
X118507142Y-53642857D02*
X118364285Y-54071428D01*
X118735714Y-54071428D01*
%TO.C,D15*%
X122371428Y-54321428D02*
X122371428Y-53721428D01*
X122514285Y-53721428D01*
X122600000Y-53750000D01*
X122657142Y-53807142D01*
X122685714Y-53864285D01*
X122714285Y-53978571D01*
X122714285Y-54064285D01*
X122685714Y-54178571D01*
X122657142Y-54235714D01*
X122600000Y-54292857D01*
X122514285Y-54321428D01*
X122371428Y-54321428D01*
X123285714Y-54321428D02*
X122942857Y-54321428D01*
X123114285Y-54321428D02*
X123114285Y-53721428D01*
X123057142Y-53807142D01*
X123000000Y-53864285D01*
X122942857Y-53892857D01*
X123828571Y-53721428D02*
X123542857Y-53721428D01*
X123514285Y-54007142D01*
X123542857Y-53978571D01*
X123600000Y-53950000D01*
X123742857Y-53950000D01*
X123800000Y-53978571D01*
X123828571Y-54007142D01*
X123857142Y-54064285D01*
X123857142Y-54207142D01*
X123828571Y-54264285D01*
X123800000Y-54292857D01*
X123742857Y-54321428D01*
X123600000Y-54321428D01*
X123542857Y-54292857D01*
X123514285Y-54264285D01*
%TO.C,J9*%
X127400000Y-50271428D02*
X127400000Y-50700000D01*
X127371428Y-50785714D01*
X127314285Y-50842857D01*
X127228571Y-50871428D01*
X127171428Y-50871428D01*
X127714285Y-50871428D02*
X127828571Y-50871428D01*
X127885714Y-50842857D01*
X127914285Y-50814285D01*
X127971428Y-50728571D01*
X128000000Y-50614285D01*
X128000000Y-50385714D01*
X127971428Y-50328571D01*
X127942857Y-50300000D01*
X127885714Y-50271428D01*
X127771428Y-50271428D01*
X127714285Y-50300000D01*
X127685714Y-50328571D01*
X127657142Y-50385714D01*
X127657142Y-50528571D01*
X127685714Y-50585714D01*
X127714285Y-50614285D01*
X127771428Y-50642857D01*
X127885714Y-50642857D01*
X127942857Y-50614285D01*
X127971428Y-50585714D01*
X128000000Y-50528571D01*
%TO.C,C92*%
X135451785Y-73214285D02*
X135423214Y-73242857D01*
X135337500Y-73271428D01*
X135280357Y-73271428D01*
X135194642Y-73242857D01*
X135137500Y-73185714D01*
X135108928Y-73128571D01*
X135080357Y-73014285D01*
X135080357Y-72928571D01*
X135108928Y-72814285D01*
X135137500Y-72757142D01*
X135194642Y-72700000D01*
X135280357Y-72671428D01*
X135337500Y-72671428D01*
X135423214Y-72700000D01*
X135451785Y-72728571D01*
X135737500Y-73271428D02*
X135851785Y-73271428D01*
X135908928Y-73242857D01*
X135937500Y-73214285D01*
X135994642Y-73128571D01*
X136023214Y-73014285D01*
X136023214Y-72785714D01*
X135994642Y-72728571D01*
X135966071Y-72700000D01*
X135908928Y-72671428D01*
X135794642Y-72671428D01*
X135737500Y-72700000D01*
X135708928Y-72728571D01*
X135680357Y-72785714D01*
X135680357Y-72928571D01*
X135708928Y-72985714D01*
X135737500Y-73014285D01*
X135794642Y-73042857D01*
X135908928Y-73042857D01*
X135966071Y-73014285D01*
X135994642Y-72985714D01*
X136023214Y-72928571D01*
X136251785Y-72728571D02*
X136280357Y-72700000D01*
X136337500Y-72671428D01*
X136480357Y-72671428D01*
X136537500Y-72700000D01*
X136566071Y-72728571D01*
X136594642Y-72785714D01*
X136594642Y-72842857D01*
X136566071Y-72928571D01*
X136223214Y-73271428D01*
X136594642Y-73271428D01*
%TO.C,R11*%
X115414285Y-60271428D02*
X115214285Y-59985714D01*
X115071428Y-60271428D02*
X115071428Y-59671428D01*
X115300000Y-59671428D01*
X115357142Y-59700000D01*
X115385714Y-59728571D01*
X115414285Y-59785714D01*
X115414285Y-59871428D01*
X115385714Y-59928571D01*
X115357142Y-59957142D01*
X115300000Y-59985714D01*
X115071428Y-59985714D01*
X115985714Y-60271428D02*
X115642857Y-60271428D01*
X115814285Y-60271428D02*
X115814285Y-59671428D01*
X115757142Y-59757142D01*
X115700000Y-59814285D01*
X115642857Y-59842857D01*
X116557142Y-60271428D02*
X116214285Y-60271428D01*
X116385714Y-60271428D02*
X116385714Y-59671428D01*
X116328571Y-59757142D01*
X116271428Y-59814285D01*
X116214285Y-59842857D01*
%TO.C,R12*%
X115314285Y-62871428D02*
X115114285Y-62585714D01*
X114971428Y-62871428D02*
X114971428Y-62271428D01*
X115200000Y-62271428D01*
X115257142Y-62300000D01*
X115285714Y-62328571D01*
X115314285Y-62385714D01*
X115314285Y-62471428D01*
X115285714Y-62528571D01*
X115257142Y-62557142D01*
X115200000Y-62585714D01*
X114971428Y-62585714D01*
X115885714Y-62871428D02*
X115542857Y-62871428D01*
X115714285Y-62871428D02*
X115714285Y-62271428D01*
X115657142Y-62357142D01*
X115600000Y-62414285D01*
X115542857Y-62442857D01*
X116114285Y-62328571D02*
X116142857Y-62300000D01*
X116200000Y-62271428D01*
X116342857Y-62271428D01*
X116400000Y-62300000D01*
X116428571Y-62328571D01*
X116457142Y-62385714D01*
X116457142Y-62442857D01*
X116428571Y-62528571D01*
X116085714Y-62871428D01*
X116457142Y-62871428D01*
%TD*%
M02*
