M48
; DRILL file {KiCad (5.1.6)-1} date 11/12/20 15:50:57
; FORMAT={-:-/ absolute / metric / decimal}
; #@! TF.CreationDate,2020-11-12T15:50:57+01:00
; #@! TF.GenerationSoftware,Kicad,Pcbnew,(5.1.6)-1
; #@! TF.FileFunction,Plated,1,6,PTH
FMAT,2
METRIC
T1C0.200
T2C0.300
T3C0.350
T4C0.600
T5C0.700
T6C1.000
T7C1.900
%
G90
G05
T1
X100.68Y-72.92
X100.79Y-78.2
X100.79Y-74.4
X100.79Y-75.04
X100.79Y-76.94
X100.79Y-78.84
X100.8Y-76.3
X101.56Y-84.25
X101.57Y-87.75
X101.57Y-91.25
X101.65Y-71.98
X101.65Y-72.92
X101.78Y-75.5
X101.83Y-81.95
X101.84Y-85.45
X101.84Y-88.95
X103.035Y-86.08
X103.037Y-89.58
X103.049Y-82.585
X103.15Y-72.95
X103.15Y-73.95
X103.15Y-75.45
X103.4Y-73.45
X103.4Y-74.45
X103.4Y-75.95
X104.0Y-71.55
X104.0Y-72.263
X104.55Y-67.87
X104.7Y-82.58
X104.7Y-86.08
X104.7Y-89.58
X104.75Y-78.9
X104.98Y-68.97
X105.25Y-70.85
X105.25Y-79.4
X105.5Y-51.0
X105.5Y-52.5
X105.5Y-54.0
X105.5Y-55.0
X105.5Y-73.7
X105.5Y-74.7
X105.5Y-75.7
X105.5Y-76.7
X105.53Y-94.15
X105.57Y-93.51
X105.75Y-71.05
X105.75Y-78.9
X106.25Y-70.85
X106.31Y-67.87
X106.5Y-73.7
X106.5Y-74.7
X106.5Y-75.7
X106.5Y-76.7
X106.52Y-95.12
X106.555Y-68.54
X106.75Y-71.05
X106.75Y-78.9
X106.75Y-79.7
X107.0Y-54.0
X107.0Y-55.0
X107.11Y-99.03
X107.238Y-70.902
X107.25Y-79.35
X107.36Y-68.54
X107.5Y-51.0
X107.5Y-73.7
X107.5Y-74.7
X107.5Y-75.7
X107.5Y-76.7
X107.75Y-71.05
X107.75Y-78.9
X107.75Y-79.7
X107.9Y-93.51
X108.0Y-69.22
X108.03Y-61.855
X108.04Y-60.555
X108.04Y-62.495
X108.5Y-54.0
X108.5Y-55.0
X108.5Y-73.7
X108.5Y-74.7
X108.5Y-75.7
X108.5Y-76.7
X108.52Y-95.28
X108.7Y-87.5
X108.7Y-88.15
X108.75Y-71.05
X108.97Y-64.69
X108.97Y-65.735
X109.1Y-93.05
X109.48Y-99.22
X109.5Y-51.0
X109.72Y-61.855
X109.755Y-65.735
X109.78Y-95.28
X110.0Y-55.0
X110.161Y-77.986
X110.25Y-93.05
X110.37Y-71.05
X110.5Y-68.6
X110.72Y-60.555
X110.72Y-61.205
X110.73Y-99.22
X110.739Y-78.411
X110.75Y-75.95
X110.75Y-77.45
X110.77Y-63.095
X110.77Y-64.365
X110.77Y-66.905
X110.8Y-80.85
X110.8Y-81.85
X110.8Y-82.85
X110.8Y-83.85
X110.8Y-84.85
X110.8Y-85.85
X110.8Y-86.85
X110.8Y-87.85
X110.8Y-88.85
X110.8Y-89.85
X110.8Y-90.85
X110.8Y-91.85
X111.03Y-95.28
X111.45Y-75.95
X111.45Y-76.7
X111.45Y-77.45
X111.5Y-51.0
X111.5Y-55.0
X111.73Y-61.825
X111.73Y-62.46
X111.73Y-63.095
X111.73Y-63.73
X111.73Y-64.365
X111.73Y-65.0
X111.73Y-65.635
X111.73Y-66.27
X111.73Y-66.905
X111.73Y-68.175
X111.8Y-80.85
X111.8Y-81.85
X111.8Y-82.85
X111.8Y-83.85
X111.8Y-84.85
X111.8Y-85.85
X111.8Y-86.85
X111.8Y-87.85
X111.8Y-88.85
X111.8Y-89.85
X111.8Y-90.85
X111.8Y-91.85
X111.98Y-99.22
X112.5Y-97.5
X112.5Y-98.5
X112.69Y-61.825
X112.69Y-62.46
X112.69Y-63.73
X112.69Y-65.0
X112.69Y-65.635
X112.69Y-66.905
X112.69Y-68.175
X112.8Y-80.85
X112.8Y-81.85
X112.8Y-82.85
X112.8Y-83.85
X112.8Y-84.85
X112.8Y-85.85
X112.8Y-86.85
X112.8Y-87.85
X112.8Y-88.85
X112.8Y-89.85
X112.8Y-90.85
X112.8Y-91.85
X113.0Y-55.0
X113.31Y-63.095
X113.31Y-64.365
X113.31Y-65.0
X113.31Y-66.905
X113.31Y-68.175
X113.5Y-51.0
X114.27Y-62.46
X114.27Y-63.73
X114.27Y-65.635
X114.27Y-66.27
X114.27Y-66.905
X114.27Y-68.175
X114.3Y-97.086
X114.5Y-55.0
X115.23Y-62.46
X115.23Y-63.73
X115.23Y-65.635
X115.23Y-66.27
X115.23Y-67.54
X115.5Y-51.0
X115.5Y-52.0
X115.5Y-57.7
X115.5Y-74.0
X115.5Y-75.0
X115.5Y-76.0
X115.5Y-77.0
X115.65Y-96.3
X116.0Y-55.0
X116.5Y-77.0
X116.5Y-78.0
X116.7Y-87.5
X116.75Y-88.25
X116.75Y-89.0
X116.85Y-89.7
X116.975Y-82.025
X116.975Y-91.4
X116.98Y-78.47
X117.0Y-51.0
X117.0Y-52.0
X117.0Y-57.7
X117.0Y-81.0
X117.0Y-84.0
X117.0Y-85.0
X117.0Y-86.0
X117.256Y-97.066
X117.4Y-54.9
X117.4Y-55.7
X117.4Y-61.3
X117.4Y-62.1
X117.4Y-63.7
X117.4Y-64.5
X117.4Y-65.3
X117.4Y-66.1
X117.4Y-70.1
X117.5Y-74.0
X117.5Y-75.0
X117.5Y-76.0
X117.5Y-77.0
X117.5Y-84.5
X117.5Y-85.5
X117.5Y-86.5
X117.5Y-90.5
X117.613Y-91.4
X117.62Y-78.47
X117.625Y-82.025
X118.0Y-80.5
X118.0Y-81.5
X118.0Y-84.0
X118.0Y-85.0
X118.0Y-86.0
X118.0Y-87.0
X118.0Y-88.0
X118.0Y-89.0
X118.0Y-90.0
X118.0Y-91.0
X118.2Y-55.7
X118.2Y-56.5
X118.2Y-57.3
X118.2Y-59.7
X118.2Y-60.5
X118.2Y-61.3
X118.2Y-62.1
X118.2Y-63.7
X118.2Y-64.5
X118.2Y-65.3
X118.2Y-66.1
X118.2Y-66.9
X118.2Y-70.1
X118.2Y-96.8
X118.25Y-79.0
X118.5Y-75.0
X118.5Y-76.0
X118.6Y-96.4
X119.0Y-55.7
X119.0Y-58.905
X119.0Y-60.5
X119.0Y-61.3
X119.0Y-63.7
X119.0Y-64.5
X119.0Y-65.3
X119.0Y-66.1
X119.0Y-66.9
X119.0Y-68.5
X119.0Y-69.3
X119.0Y-96.0
X119.5Y-52.5
X119.622Y-78.0
X119.622Y-79.0
X119.8Y-55.7
X119.8Y-58.1
X119.8Y-58.9
X119.8Y-59.7
X119.8Y-60.5
X119.8Y-61.3
X119.8Y-62.1
X119.8Y-62.9
X119.8Y-63.7
X119.8Y-64.5
X119.8Y-65.3
X119.8Y-66.1
X119.8Y-66.9
X119.8Y-67.7
X119.8Y-69.3
X119.8Y-70.1
X120.0Y-83.0
X120.0Y-84.0
X120.0Y-85.0
X120.0Y-86.0
X120.0Y-87.0
X120.0Y-88.0
X120.0Y-89.0
X120.0Y-90.0
X120.0Y-91.0
X120.2Y-71.5
X120.2Y-72.1
X120.38Y-51.59
X120.6Y-55.7
X120.6Y-56.5
X120.6Y-57.3
X120.6Y-58.1
X120.6Y-58.9
X120.6Y-59.7
X120.6Y-60.5
X120.6Y-61.3
X120.6Y-62.1
X120.6Y-62.9
X120.6Y-63.7
X120.6Y-64.5
X120.6Y-65.3
X120.6Y-66.1
X120.6Y-66.9
X120.6Y-67.7
X120.6Y-69.3
X120.601Y-68.493
X120.914Y-70.85
X120.94Y-80.86
X121.0Y-83.0
X121.0Y-84.0
X121.0Y-85.0
X121.0Y-86.0
X121.0Y-91.0
X121.27Y-52.363
X121.27Y-54.197
X121.4Y-54.9
X121.4Y-55.7
X121.4Y-56.5
X121.4Y-57.3
X121.4Y-58.1
X121.4Y-58.9
X121.4Y-59.7
X121.4Y-60.5
X121.4Y-61.3
X121.4Y-62.1
X121.4Y-62.9
X121.4Y-63.7
X121.4Y-64.5
X121.4Y-65.3
X121.4Y-66.1
X121.4Y-68.5
X121.4Y-69.3
X121.4Y-70.1
X121.5Y-76.75
X121.6Y-70.85
X121.666Y-84.201
X121.83Y-51.915
X122.0Y-74.0
X122.0Y-75.0
X122.0Y-85.0
X122.0Y-86.0
X122.0Y-91.0
X122.174Y-79.375
X122.174Y-80.264
X122.174Y-81.788
X122.174Y-82.677
X122.2Y-56.5
X122.2Y-57.3
X122.2Y-58.9
X122.2Y-59.7
X122.2Y-62.1
X122.2Y-62.9
X122.2Y-65.3
X122.2Y-66.1
X122.2Y-67.7
X122.2Y-68.5
X122.2Y-69.3
X122.38Y-80.86
X122.4Y-77.5
X122.5Y-76.75
X122.6Y-61.7
X122.6Y-63.3
X122.682Y-79.756
X122.682Y-81.407
X122.682Y-82.169
X122.682Y-83.185
X122.682Y-84.201
X122.72Y-78.16
X122.9Y-70.85
X123.0Y-55.7
X123.0Y-58.9
X123.0Y-59.7
X123.0Y-65.3
X123.0Y-66.1
X123.0Y-67.7
X123.0Y-68.5
X123.0Y-69.3
X123.0Y-70.1
X123.0Y-74.0
X123.0Y-75.0
X123.0Y-91.0
X123.1Y-77.5
X123.19Y-83.693
X123.21Y-51.915
X123.5Y-70.85
X123.698Y-84.201
X123.767Y-73.68
X123.8Y-54.9
X123.8Y-56.5
X123.8Y-57.3
X123.8Y-58.1
X123.8Y-58.9
X123.8Y-59.7
X123.8Y-60.5
X123.8Y-61.3
X123.8Y-62.1
X123.8Y-62.9
X123.8Y-63.7
X123.8Y-64.5
X123.8Y-65.3
X123.8Y-66.1
X123.8Y-67.7
X123.8Y-68.5
X124.0Y-91.0
X124.067Y-74.18
X124.333Y-80.264
X124.333Y-81.026
X124.333Y-81.788
X124.4Y-74.68
X124.56Y-50.69
X124.6Y-57.3
X124.6Y-58.1
X124.6Y-58.9
X124.6Y-59.7
X124.6Y-60.5
X124.6Y-61.3
X124.6Y-63.7
X124.6Y-64.5
X124.6Y-65.3
X124.6Y-66.1
X124.6Y-67.7
X124.6Y-68.5
X124.6Y-69.3
X124.6Y-70.1
X124.667Y-75.18
X124.667Y-76.9
X124.8Y-79.883
X124.841Y-80.645
X124.841Y-81.407
X124.841Y-82.169
X125.0Y-54.73
X125.0Y-74.68
X125.112Y-53.365
X125.313Y-74.18
X125.4Y-57.3
X125.4Y-58.9
X125.4Y-59.7
X125.4Y-60.5
X125.4Y-61.3
X125.4Y-62.1
X125.4Y-62.9
X125.4Y-63.7
X125.4Y-64.5
X125.4Y-65.3
X125.4Y-66.1
X125.4Y-66.9
X125.4Y-67.7
X125.4Y-68.5
X125.4Y-69.3
X125.5Y-50.5
X125.5Y-51.5
X125.567Y-73.68
X125.603Y-83.82
X126.03Y-52.725
X126.2Y-54.9
X126.2Y-57.3
X126.2Y-58.1
X126.2Y-58.9
X126.2Y-59.7
X126.2Y-60.5
X126.2Y-61.3
X126.2Y-62.9
X126.2Y-63.7
X126.2Y-64.5
X126.2Y-65.3
X126.2Y-66.1
X126.2Y-66.9
X126.2Y-67.7
X126.2Y-68.5
X126.2Y-69.3
X126.2Y-70.1
X126.2Y-74.0
X126.2Y-74.6
X126.2Y-75.2
X126.203Y-55.697
X126.25Y-79.36
X126.32Y-78.135
X126.35Y-78.75
X126.74Y-52.02
X127.0Y-50.5
X127.0Y-54.9
X127.0Y-56.5
X127.0Y-57.3
X127.0Y-58.1
X127.0Y-58.9
X127.0Y-59.7
X127.0Y-60.5
X127.0Y-61.3
X127.0Y-62.9
X127.0Y-63.7
X127.0Y-64.5
X127.0Y-65.3
X127.0Y-66.9
X127.0Y-69.3
X127.0Y-70.1
X127.0Y-74.0
X127.0Y-74.6
X127.0Y-75.2
X127.003Y-55.697
X127.003Y-66.103
X127.17Y-53.2
X127.635Y-79.883
X127.635Y-80.645
X127.635Y-81.407
X127.8Y-54.9
X127.8Y-55.7
X127.8Y-57.3
X127.8Y-58.1
X127.8Y-58.9
X127.8Y-59.7
X127.8Y-60.5
X127.8Y-61.3
X127.8Y-62.1
X127.8Y-62.9
X127.8Y-63.7
X127.8Y-64.5
X127.8Y-65.3
X127.8Y-66.1
X127.8Y-66.9
X127.8Y-68.5
X127.8Y-69.3
X127.8Y-70.1
X127.8Y-74.0
X128.016Y-80.264
X128.016Y-81.026
X128.016Y-81.788
X128.25Y-85.0
X128.25Y-85.75
X128.5Y-74.0
X128.6Y-57.3
X128.6Y-58.1
X128.6Y-58.9
X128.6Y-62.1
X128.6Y-62.9
X128.6Y-63.7
X128.6Y-64.5
X128.6Y-65.3
X128.6Y-66.1
X128.6Y-66.9
X128.6Y-68.5
X128.6Y-69.3
X128.6Y-70.1
X128.603Y-59.697
X129.4Y-54.9
X129.4Y-55.7
X129.4Y-56.5
X129.4Y-57.3
X129.4Y-58.9
X129.4Y-59.7
X129.4Y-60.5
X129.4Y-61.3
X129.4Y-63.7
X129.4Y-64.5
X129.4Y-65.3
X129.4Y-66.1
X129.4Y-66.9
X129.4Y-68.5
X129.4Y-70.1
X129.5Y-74.0
X130.0Y-86.0
X130.0Y-87.0
X130.0Y-88.0
X130.0Y-89.0
X130.0Y-90.0
X130.0Y-91.0
X130.15Y-81.0
X130.15Y-82.0
X130.15Y-83.0
X130.197Y-59.703
X130.2Y-54.9
X130.2Y-55.7
X130.2Y-58.1
X130.2Y-62.1
X130.2Y-62.9
X130.2Y-63.7
X130.2Y-64.5
X130.2Y-65.3
X130.2Y-67.7
X130.2Y-68.5
X130.2Y-69.3
X130.2Y-74.0
X130.203Y-66.903
X130.203Y-66.103
X130.6Y-70.4
X130.72Y-95.97
X130.75Y-96.945
X131.0Y-55.7
X131.0Y-56.5
X131.0Y-58.1
X131.0Y-58.9
X131.0Y-61.3
X131.0Y-62.1
X131.0Y-62.9
X131.0Y-63.7
X131.0Y-64.5
X131.0Y-65.3
X131.0Y-66.1
X131.0Y-67.7
X131.0Y-68.5
X131.0Y-69.3
X131.0Y-74.0
X131.0Y-74.6
X131.0Y-75.2
X131.001Y-66.903
X131.2Y-70.4
X131.25Y-96.545
X131.25Y-97.345
X131.425Y-54.5
X131.75Y-77.0
X131.75Y-78.0
X131.75Y-79.0
X131.8Y-54.9
X131.8Y-55.7
X131.8Y-56.5
X131.8Y-58.9
X131.8Y-59.7
X131.8Y-61.3
X131.8Y-62.1
X131.8Y-63.7
X131.8Y-64.5
X131.8Y-65.3
X131.8Y-66.1
X131.8Y-66.9
X131.8Y-68.5
X131.8Y-69.3
X131.8Y-74.0
X131.8Y-74.6
X131.8Y-75.2
X132.3Y-95.995
X132.375Y-91.4
X132.38Y-82.02
X132.384Y-80.2
X132.5Y-81.0
X132.5Y-84.0
X132.5Y-85.0
X132.5Y-86.0
X132.5Y-87.0
X132.5Y-88.0
X132.5Y-89.0
X132.5Y-90.0
X132.6Y-54.9
X132.6Y-55.7
X132.6Y-56.5
X132.6Y-58.1
X132.6Y-58.9
X132.6Y-59.7
X132.6Y-62.1
X132.6Y-63.7
X132.6Y-64.5
X132.6Y-65.3
X132.6Y-66.9
X132.6Y-67.7
X132.6Y-69.3
X132.6Y-70.1
X132.601Y-66.12
X132.9Y-76.0
X132.9Y-77.0
X132.9Y-78.0
X133.02Y-82.02
X133.025Y-91.4
X133.05Y-80.2
X133.25Y-74.25
X133.25Y-84.0
X133.25Y-85.0
X133.25Y-85.75
X133.25Y-86.5
X133.25Y-87.25
X133.25Y-88.0
X133.25Y-89.0
X133.25Y-90.0
X133.25Y-90.75
X133.31Y-58.09
X133.41Y-54.21
X133.5Y-59.0
X133.5Y-78.5
X133.54Y-97.17
X134.0Y-60.5
X134.0Y-73.75
X134.0Y-74.75
X134.34Y-54.2
X134.34Y-56.15
X134.34Y-56.8
X134.34Y-58.75
X134.5Y-62.0
X134.5Y-78.5
X134.735Y-96.145
X134.77Y-62.46
X134.77Y-63.73
X134.77Y-65.0
X134.77Y-66.27
X134.77Y-66.905
X134.77Y-67.538
X135.0Y-76.0
X135.0Y-77.0
X135.0Y-78.0
X135.5Y-75.5
X135.5Y-76.5
X135.5Y-77.5
X135.5Y-78.5
X135.73Y-61.827
X135.73Y-62.46
X135.73Y-63.73
X135.73Y-65.0
X135.73Y-66.27
X135.73Y-66.905
X135.73Y-67.54
X135.91Y-96.57
X136.25Y-60.5
X136.41Y-54.2
X136.41Y-56.15
X136.41Y-56.8
X136.41Y-58.75
X136.5Y-97.0
X136.69Y-61.825
X136.69Y-63.095
X136.69Y-63.73
X136.69Y-65.0
X136.69Y-65.635
X136.69Y-66.905
X136.69Y-67.54
X137.2Y-81.85
X137.2Y-82.85
X137.2Y-83.85
X137.2Y-84.85
X137.2Y-85.85
X137.2Y-86.85
X137.2Y-87.85
X137.2Y-88.85
X137.2Y-89.85
X137.2Y-90.85
X137.2Y-91.85
X137.2Y-92.85
X137.2Y-93.85
X137.31Y-61.825
X137.31Y-63.095
X137.31Y-64.365
X137.31Y-65.0
X137.31Y-66.27
X137.31Y-66.905
X137.31Y-67.54
X137.5Y-97.5
X138.2Y-81.85
X138.2Y-82.85
X138.2Y-83.85
X138.2Y-84.85
X138.2Y-85.85
X138.2Y-86.85
X138.2Y-87.85
X138.2Y-88.85
X138.2Y-89.85
X138.2Y-90.85
X138.2Y-91.85
X138.2Y-92.85
X138.2Y-93.85
X138.25Y-77.7
X138.25Y-78.7
X138.27Y-61.825
X138.27Y-62.46
X138.27Y-63.095
X138.27Y-63.73
X138.27Y-64.365
X138.27Y-65.0
X138.27Y-65.635
X138.27Y-66.905
X138.27Y-67.54
X138.27Y-68.175
X138.5Y-59.0
X138.75Y-77.2
X138.75Y-78.2
X139.0Y-53.75
X139.11Y-98.98
X139.2Y-81.85
X139.2Y-82.85
X139.2Y-83.85
X139.2Y-84.85
X139.2Y-85.85
X139.2Y-86.85
X139.2Y-87.85
X139.2Y-88.85
X139.2Y-89.85
X139.2Y-90.85
X139.2Y-91.85
X139.2Y-92.85
X139.2Y-93.85
X139.23Y-62.46
X139.23Y-63.73
X139.23Y-68.175
X139.25Y-76.7
X139.5Y-61.0
X139.625Y-55.56
X139.625Y-56.8
X139.675Y-64.293
X139.675Y-66.325
X139.78Y-72.812
X139.81Y-69.155
X140.325Y-64.293
X140.47Y-70.4
X140.5Y-61.0
X140.517Y-69.82
X140.52Y-95.28
X140.63Y-62.12
X140.63Y-63.22
X140.752Y-80.152
X141.2Y-70.2
X141.22Y-69.155
X141.25Y-93.0
X141.25Y-72.812
X141.25Y-80.6
X141.25Y-94.0
X141.25Y-86.5
X141.4Y-67.2
X141.4Y-67.8
X141.48Y-99.22
X141.5Y-74.95
X141.5Y-75.95
X141.5Y-76.95
X141.5Y-77.95
X141.575Y-86.0
X141.625Y-64.293
X141.625Y-66.325
X141.67Y-62.98
X141.75Y-80.175
X141.77Y-95.28
X141.95Y-93.0
X142.0Y-70.2
X142.25Y-72.75
X142.275Y-66.325
X142.275Y-64.293
X142.5Y-74.95
X142.5Y-75.95
X142.5Y-76.95
X142.5Y-77.95
X142.73Y-99.22
X142.748Y-72.502
X142.75Y-80.175
X142.75Y-80.8
X142.8Y-70.2
X142.925Y-64.293
X142.98Y-61.625
X143.0Y-54.2
X143.03Y-95.28
X143.25Y-72.75
X143.25Y-80.5
X143.5Y-70.4
X143.5Y-74.95
X143.5Y-75.95
X143.5Y-76.95
X143.5Y-77.95
X143.565Y-63.22
X143.575Y-64.293
X143.75Y-72.502
X143.75Y-80.175
X143.84Y-69.15
X143.98Y-99.22
X144.0Y-55.5
X144.13Y-68.53
X144.14Y-67.58
X144.225Y-64.293
X144.225Y-66.325
X144.23Y-61.625
X144.25Y-72.75
X144.25Y-80.5
X144.5Y-74.95
X144.5Y-75.95
X144.5Y-76.95
X144.5Y-77.95
X144.69Y-70.43
X144.69Y-71.5
X144.75Y-72.502
X144.75Y-80.15
X144.98Y-67.02
X145.0Y-54.2
X145.0Y-57.0
X145.0Y-64.0
X145.0Y-65.0
X145.0Y-66.0
X145.11Y-71.0
X145.25Y-80.5
X145.75Y-72.5
X145.765Y-85.05
X145.77Y-92.05
X145.77Y-88.55
X146.0Y-55.5
X146.5Y-65.0
X146.5Y-66.0
X146.5Y-67.0
X146.6Y-74.2
X146.6Y-75.2
X146.6Y-76.2
X146.6Y-77.2
X146.967Y-87.925
X146.967Y-91.425
X146.974Y-84.425
X147.0Y-74.7
X147.0Y-75.7
X147.0Y-76.7
X147.25Y-78.24
X147.83Y-73.88
X148.17Y-92.05
X148.17Y-85.05
X148.18Y-88.55
X148.43Y-82.75
X148.44Y-86.25
X148.44Y-89.75
X148.5Y-55.5
X148.78Y-73.9
X148.8Y-72.56
X149.29Y-75.1
X149.29Y-76.015
X149.29Y-76.655
X149.29Y-77.56
X149.29Y-78.198
X149.3Y-74.46
T2
X125.55Y-80.962
X126.95Y-80.962
T3
X111.8Y-93.85
X112.8Y-93.85
X112.8Y-94.85
X113.0Y-99.5
X113.8Y-93.85
X113.8Y-94.85
X114.0Y-99.5
X115.0Y-99.5
X116.0Y-99.5
X116.69Y-71.15
X117.0Y-99.5
X118.0Y-99.5
X121.0Y-97.0
X121.0Y-98.25
X121.0Y-99.25
X121.8Y-92.85
X121.8Y-93.85
X121.8Y-94.85
X122.0Y-97.0
X122.0Y-98.25
X122.0Y-99.25
X122.8Y-94.85
X123.0Y-97.0
X123.0Y-99.25
X123.8Y-94.85
X124.0Y-97.0
X124.0Y-99.25
X124.8Y-94.85
X125.0Y-97.0
X125.0Y-99.25
X125.8Y-94.85
X126.0Y-97.0
X126.0Y-99.25
X126.8Y-94.85
X127.0Y-97.0
X127.0Y-99.25
X127.8Y-90.85
X127.8Y-91.85
X127.8Y-92.85
X127.8Y-93.85
X127.8Y-94.85
X128.0Y-97.0
X128.0Y-98.25
X128.0Y-99.25
X128.8Y-90.85
X128.8Y-91.85
X128.8Y-92.85
X128.8Y-93.85
X128.8Y-94.85
X129.0Y-97.0
X132.5Y-99.5
X133.5Y-99.5
X134.5Y-99.5
X135.5Y-99.5
X136.5Y-99.5
X137.5Y-99.5
X138.5Y-99.5
T4
X101.95Y-57.25
X103.2Y-57.25
X104.45Y-57.25
X105.7Y-57.25
X106.95Y-57.25
X108.2Y-57.25
X109.45Y-57.25
X110.7Y-57.25
X111.95Y-57.25
X113.2Y-57.25
X114.45Y-57.25
X147.3Y-67.9
X147.3Y-69.15
X147.3Y-70.4
X147.3Y-56.5
X147.3Y-57.75
X147.3Y-59.0
X147.3Y-60.25
X147.3Y-61.5
X147.3Y-62.75
X147.3Y-64.0
X136.0Y-52.7
X137.25Y-52.7
X138.5Y-52.7
X139.75Y-52.7
X141.0Y-52.7
X142.25Y-52.7
X143.5Y-52.7
X102.7Y-67.9
X102.7Y-69.15
X102.7Y-70.4
X106.5Y-52.7
X107.75Y-52.7
X109.0Y-52.7
X110.25Y-52.7
X111.5Y-52.7
X102.7Y-60.9
X102.7Y-62.15
X138.5Y-97.25
X139.75Y-97.25
X141.0Y-97.25
X142.25Y-97.25
X143.5Y-97.25
X106.5Y-97.25
X107.75Y-97.25
X109.0Y-97.25
X110.25Y-97.25
X111.5Y-97.25
T5
X128.95Y-51.38
X128.95Y-52.65
X130.22Y-51.38
X130.22Y-52.65
X131.49Y-51.38
X131.49Y-52.65
X132.76Y-51.38
X132.76Y-52.65
T6
X101.75Y-80.5
X101.75Y-93.5
X148.25Y-80.5
X148.25Y-93.5
X119.5Y-98.5
X130.5Y-98.5
T7
X106.75Y-83.5
X106.75Y-87.0
X106.75Y-90.5
X143.25Y-83.5
X143.25Y-87.0
X143.25Y-90.5
X122.5Y-88.5
X127.5Y-88.5
T0
M30
