%TF.GenerationSoftware,KiCad,Pcbnew,8.0.2-8.0.2-0~ubuntu22.04.1*%
%TF.CreationDate,2024-05-23T15:53:42+02:00*%
%TF.ProjectId,omodri_laas,6f6d6f64-7269-45f6-9c61-61732e6b6963,3.0*%
%TF.SameCoordinates,Original*%
%TF.FileFunction,Paste,Bot*%
%TF.FilePolarity,Positive*%
%FSLAX46Y46*%
G04 Gerber Fmt 4.6, Leading zero omitted, Abs format (unit mm)*
G04 Created by KiCad (PCBNEW 8.0.2-8.0.2-0~ubuntu22.04.1) date 2024-05-23 15:53:42*
%MOMM*%
%LPD*%
G01*
G04 APERTURE LIST*
G04 Aperture macros list*
%AMRoundRect*
0 Rectangle with rounded corners*
0 $1 Rounding radius*
0 $2 $3 $4 $5 $6 $7 $8 $9 X,Y pos of 4 corners*
0 Add a 4 corners polygon primitive as box body*
4,1,4,$2,$3,$4,$5,$6,$7,$8,$9,$2,$3,0*
0 Add four circle primitives for the rounded corners*
1,1,$1+$1,$2,$3*
1,1,$1+$1,$4,$5*
1,1,$1+$1,$6,$7*
1,1,$1+$1,$8,$9*
0 Add four rect primitives between the rounded corners*
20,1,$1+$1,$2,$3,$4,$5,0*
20,1,$1+$1,$4,$5,$6,$7,0*
20,1,$1+$1,$6,$7,$8,$9,0*
20,1,$1+$1,$8,$9,$2,$3,0*%
G04 Aperture macros list end*
%ADD10C,0.120000*%
%ADD11RoundRect,0.079500X0.100500X-0.079500X0.100500X0.079500X-0.100500X0.079500X-0.100500X-0.079500X0*%
%ADD12RoundRect,0.079500X-0.100500X0.079500X-0.100500X-0.079500X0.100500X-0.079500X0.100500X0.079500X0*%
%ADD13RoundRect,0.079500X-0.079500X-0.100500X0.079500X-0.100500X0.079500X0.100500X-0.079500X0.100500X0*%
%ADD14RoundRect,0.079500X0.079500X0.100500X-0.079500X0.100500X-0.079500X-0.100500X0.079500X-0.100500X0*%
%ADD15RoundRect,0.140000X0.170000X-0.140000X0.170000X0.140000X-0.170000X0.140000X-0.170000X-0.140000X0*%
%ADD16RoundRect,0.140000X0.140000X0.170000X-0.140000X0.170000X-0.140000X-0.170000X0.140000X-0.170000X0*%
%ADD17RoundRect,0.140000X-0.140000X-0.170000X0.140000X-0.170000X0.140000X0.170000X-0.140000X0.170000X0*%
%ADD18RoundRect,0.135000X-0.185000X0.135000X-0.185000X-0.135000X0.185000X-0.135000X0.185000X0.135000X0*%
%ADD19RoundRect,0.070000X0.355000X-0.070000X0.355000X0.070000X-0.355000X0.070000X-0.355000X-0.070000X0*%
%ADD20RoundRect,0.070000X0.305000X-0.070000X0.305000X0.070000X-0.305000X0.070000X-0.305000X-0.070000X0*%
%ADD21RoundRect,0.250000X2.450000X-0.650000X2.450000X0.650000X-2.450000X0.650000X-2.450000X-0.650000X0*%
%ADD22RoundRect,0.070000X0.070000X0.355000X-0.070000X0.355000X-0.070000X-0.355000X0.070000X-0.355000X0*%
%ADD23RoundRect,0.070000X0.070000X0.305000X-0.070000X0.305000X-0.070000X-0.305000X0.070000X-0.305000X0*%
%ADD24RoundRect,0.100000X-0.637500X-0.100000X0.637500X-0.100000X0.637500X0.100000X-0.637500X0.100000X0*%
%ADD25R,1.800000X0.700000*%
%ADD26R,2.200000X1.600000*%
%ADD27R,0.700000X1.800000*%
%ADD28R,1.600000X2.200000*%
%ADD29R,0.700000X0.300000*%
%ADD30R,1.000000X0.300000*%
%ADD31RoundRect,0.135000X-0.135000X-0.185000X0.135000X-0.185000X0.135000X0.185000X-0.135000X0.185000X0*%
%ADD32C,0.400000*%
%ADD33R,0.700000X0.800000*%
%ADD34RoundRect,0.250000X-1.100000X0.325000X-1.100000X-0.325000X1.100000X-0.325000X1.100000X0.325000X0*%
%ADD35R,0.499999X0.200000*%
%ADD36R,1.400000X0.500000*%
%ADD37R,0.700000X0.350000*%
%ADD38RoundRect,0.250000X0.475000X-0.250000X0.475000X0.250000X-0.475000X0.250000X-0.475000X-0.250000X0*%
%ADD39RoundRect,0.225000X0.250000X-0.225000X0.250000X0.225000X-0.250000X0.225000X-0.250000X-0.225000X0*%
%ADD40RoundRect,0.250000X-0.250000X-0.475000X0.250000X-0.475000X0.250000X0.475000X-0.250000X0.475000X0*%
G04 APERTURE END LIST*
%TO.C,U15*%
D10*
X132750000Y-80200000D02*
X131800000Y-80200000D01*
X131800000Y-80850000D01*
X132750000Y-80850000D01*
X132750000Y-80200000D01*
G36*
X132750000Y-80200000D02*
G01*
X131800000Y-80200000D01*
X131800000Y-80850000D01*
X132750000Y-80850000D01*
X132750000Y-80200000D01*
G37*
X132750000Y-81150000D02*
X131800000Y-81150000D01*
X131800000Y-81800000D01*
X132750000Y-81800000D01*
X132750000Y-81150000D01*
G36*
X132750000Y-81150000D02*
G01*
X131800000Y-81150000D01*
X131800000Y-81800000D01*
X132750000Y-81800000D01*
X132750000Y-81150000D01*
G37*
X132775000Y-78750000D02*
X132175000Y-78750000D01*
X132175000Y-79900000D01*
X132775000Y-79900000D01*
X132775000Y-78750000D01*
G36*
X132775000Y-78750000D02*
G01*
X132175000Y-78750000D01*
X132175000Y-79900000D01*
X132775000Y-79900000D01*
X132775000Y-78750000D01*
G37*
X132775000Y-82100000D02*
X132175000Y-82100000D01*
X132175000Y-83250000D01*
X132775000Y-83250000D01*
X132775000Y-82100000D01*
G36*
X132775000Y-82100000D02*
G01*
X132175000Y-82100000D01*
X132175000Y-83250000D01*
X132775000Y-83250000D01*
X132775000Y-82100000D01*
G37*
X133625000Y-78750000D02*
X133025000Y-78750000D01*
X133025000Y-79900000D01*
X133625000Y-79900000D01*
X133625000Y-78750000D01*
G36*
X133625000Y-78750000D02*
G01*
X133025000Y-78750000D01*
X133025000Y-79900000D01*
X133625000Y-79900000D01*
X133625000Y-78750000D01*
G37*
X133625000Y-82100000D02*
X133025000Y-82100000D01*
X133025000Y-83250000D01*
X133625000Y-83250000D01*
X133625000Y-82100000D01*
G36*
X133625000Y-82100000D02*
G01*
X133025000Y-82100000D01*
X133025000Y-83250000D01*
X133625000Y-83250000D01*
X133625000Y-82100000D01*
G37*
X134000000Y-80200000D02*
X133050000Y-80200000D01*
X133050000Y-80850000D01*
X134000000Y-80850000D01*
X134000000Y-80200000D01*
G36*
X134000000Y-80200000D02*
G01*
X133050000Y-80200000D01*
X133050000Y-80850000D01*
X134000000Y-80850000D01*
X134000000Y-80200000D01*
G37*
X134000000Y-81150000D02*
X133050000Y-81150000D01*
X133050000Y-81800000D01*
X134000000Y-81800000D01*
X134000000Y-81150000D01*
G36*
X134000000Y-81150000D02*
G01*
X133050000Y-81150000D01*
X133050000Y-81800000D01*
X134000000Y-81800000D01*
X134000000Y-81150000D01*
G37*
%TO.C,U11*%
X116950000Y-80200000D02*
X116000000Y-80200000D01*
X116000000Y-80850000D01*
X116950000Y-80850000D01*
X116950000Y-80200000D01*
G36*
X116950000Y-80200000D02*
G01*
X116000000Y-80200000D01*
X116000000Y-80850000D01*
X116950000Y-80850000D01*
X116950000Y-80200000D01*
G37*
X116950000Y-81150000D02*
X116000000Y-81150000D01*
X116000000Y-81800000D01*
X116950000Y-81800000D01*
X116950000Y-81150000D01*
G36*
X116950000Y-81150000D02*
G01*
X116000000Y-81150000D01*
X116000000Y-81800000D01*
X116950000Y-81800000D01*
X116950000Y-81150000D01*
G37*
X116975000Y-78750000D02*
X116375000Y-78750000D01*
X116375000Y-79900000D01*
X116975000Y-79900000D01*
X116975000Y-78750000D01*
G36*
X116975000Y-78750000D02*
G01*
X116375000Y-78750000D01*
X116375000Y-79900000D01*
X116975000Y-79900000D01*
X116975000Y-78750000D01*
G37*
X116975000Y-82100000D02*
X116375000Y-82100000D01*
X116375000Y-83250000D01*
X116975000Y-83250000D01*
X116975000Y-82100000D01*
G36*
X116975000Y-82100000D02*
G01*
X116375000Y-82100000D01*
X116375000Y-83250000D01*
X116975000Y-83250000D01*
X116975000Y-82100000D01*
G37*
X117825000Y-78750000D02*
X117225000Y-78750000D01*
X117225000Y-79900000D01*
X117825000Y-79900000D01*
X117825000Y-78750000D01*
G36*
X117825000Y-78750000D02*
G01*
X117225000Y-78750000D01*
X117225000Y-79900000D01*
X117825000Y-79900000D01*
X117825000Y-78750000D01*
G37*
X117825000Y-82100000D02*
X117225000Y-82100000D01*
X117225000Y-83250000D01*
X117825000Y-83250000D01*
X117825000Y-82100000D01*
G36*
X117825000Y-82100000D02*
G01*
X117225000Y-82100000D01*
X117225000Y-83250000D01*
X117825000Y-83250000D01*
X117825000Y-82100000D01*
G37*
X118200000Y-80200000D02*
X117250000Y-80200000D01*
X117250000Y-80850000D01*
X118200000Y-80850000D01*
X118200000Y-80200000D01*
G36*
X118200000Y-80200000D02*
G01*
X117250000Y-80200000D01*
X117250000Y-80850000D01*
X118200000Y-80850000D01*
X118200000Y-80200000D01*
G37*
X118200000Y-81150000D02*
X117250000Y-81150000D01*
X117250000Y-81800000D01*
X118200000Y-81800000D01*
X118200000Y-81150000D01*
G36*
X118200000Y-81150000D02*
G01*
X117250000Y-81150000D01*
X117250000Y-81800000D01*
X118200000Y-81800000D01*
X118200000Y-81150000D01*
G37*
%TD*%
D11*
%TO.C,C50*%
X129000000Y-65245000D03*
X129000000Y-64555000D03*
%TD*%
D12*
%TO.C,C47*%
X130400000Y-69275000D03*
X130400000Y-69965000D03*
%TD*%
D13*
%TO.C,C83*%
X127055000Y-66500000D03*
X127745000Y-66500000D03*
%TD*%
%TO.C,C94*%
X131855000Y-55300000D03*
X132545000Y-55300000D03*
%TD*%
D12*
%TO.C,C93*%
X132200000Y-64555000D03*
X132200000Y-65245000D03*
%TD*%
D11*
%TO.C,C92*%
X126600000Y-70045000D03*
X126600000Y-69355000D03*
%TD*%
D14*
%TO.C,C91*%
X118145000Y-69700000D03*
X117455000Y-69700000D03*
%TD*%
D12*
%TO.C,C89*%
X121000000Y-57355000D03*
X121000000Y-58045000D03*
%TD*%
D14*
%TO.C,C86*%
X127745000Y-59300000D03*
X127055000Y-59300000D03*
%TD*%
D12*
%TO.C,C81*%
X121000000Y-65355000D03*
X121000000Y-66045000D03*
%TD*%
D14*
%TO.C,C82*%
X122945000Y-65700000D03*
X122255000Y-65700000D03*
%TD*%
D11*
%TO.C,C80*%
X121000000Y-62845000D03*
X121000000Y-62155000D03*
%TD*%
D13*
%TO.C,C78*%
X122255000Y-59300000D03*
X122945000Y-59300000D03*
%TD*%
D11*
%TO.C,C76*%
X129000000Y-59645000D03*
X129000000Y-58955000D03*
%TD*%
%TO.C,C75*%
X128200000Y-62845000D03*
X128200000Y-62155000D03*
%TD*%
D12*
%TO.C,C73*%
X121000000Y-63755000D03*
X121000000Y-64445000D03*
%TD*%
D15*
%TO.C,C63*%
X130700000Y-65380000D03*
X130700000Y-64420000D03*
%TD*%
D14*
%TO.C,C2*%
X140845000Y-65375000D03*
X140155000Y-65375000D03*
%TD*%
%TO.C,C52*%
X128945000Y-61300000D03*
X128255000Y-61300000D03*
%TD*%
D13*
%TO.C,C61*%
X123855000Y-65700000D03*
X124545000Y-65700000D03*
%TD*%
D12*
%TO.C,C51*%
X129000000Y-66155000D03*
X129000000Y-66845000D03*
%TD*%
D16*
%TO.C,C70*%
X128600000Y-69700000D03*
X127640000Y-69700000D03*
%TD*%
D17*
%TO.C,C60*%
X123520000Y-66600000D03*
X124480000Y-66600000D03*
%TD*%
%TO.C,C66*%
X123240000Y-62500000D03*
X124200000Y-62500000D03*
%TD*%
D14*
%TO.C,C53*%
X128945000Y-60500000D03*
X128255000Y-60500000D03*
%TD*%
%TO.C,C54*%
X122945000Y-57700000D03*
X122255000Y-57700000D03*
%TD*%
D11*
%TO.C,C79*%
X121000000Y-59645000D03*
X121000000Y-58955000D03*
%TD*%
%TO.C,C72*%
X121000000Y-61245000D03*
X121000000Y-60555000D03*
%TD*%
D13*
%TO.C,R6*%
X141555000Y-65375000D03*
X142245000Y-65375000D03*
%TD*%
D12*
%TO.C,R16*%
X134000000Y-54505000D03*
X134000000Y-55195000D03*
%TD*%
D18*
%TO.C,R24*%
X148100000Y-91690000D03*
X148100000Y-92710000D03*
%TD*%
D19*
%TO.C,U8*%
X124075000Y-57400000D03*
D20*
X124025000Y-56900000D03*
X124025000Y-56400000D03*
X125175000Y-56400000D03*
X125175000Y-56900000D03*
X125175000Y-57400000D03*
%TD*%
D11*
%TO.C,C13*%
X134000000Y-56595000D03*
X134000000Y-55905000D03*
%TD*%
D21*
%TO.C,C15*%
X104000000Y-85050000D03*
X104000000Y-79950000D03*
%TD*%
%TO.C,C16*%
X110200000Y-85050000D03*
X110200000Y-79950000D03*
%TD*%
D14*
%TO.C,C1*%
X140845000Y-66625000D03*
X140155000Y-66625000D03*
%TD*%
D11*
%TO.C,R11*%
X123825000Y-74845000D03*
X123825000Y-74155000D03*
%TD*%
%TO.C,R9*%
X125825000Y-74845000D03*
X125825000Y-74155000D03*
%TD*%
%TO.C,R12*%
X122825000Y-74845000D03*
X122825000Y-74155000D03*
%TD*%
%TO.C,C10*%
X123825000Y-72845000D03*
X123825000Y-72155000D03*
%TD*%
%TO.C,C6*%
X125825000Y-72845000D03*
X125825000Y-72155000D03*
%TD*%
%TO.C,C11*%
X122825000Y-72845000D03*
X122825000Y-72155000D03*
%TD*%
%TO.C,R10*%
X124825000Y-74845000D03*
X124825000Y-74155000D03*
%TD*%
%TO.C,C5*%
X126825000Y-72845000D03*
X126825000Y-72155000D03*
%TD*%
%TO.C,C9*%
X124825000Y-72845000D03*
X124825000Y-72155000D03*
%TD*%
%TO.C,C4*%
X127825000Y-72845000D03*
X127825000Y-72155000D03*
%TD*%
%TO.C,C64*%
X129800000Y-65245000D03*
X129800000Y-64555000D03*
%TD*%
D14*
%TO.C,C21*%
X127745000Y-58500000D03*
X127055000Y-58500000D03*
%TD*%
D22*
%TO.C,U7*%
X128700000Y-57025000D03*
D23*
X128200000Y-57075000D03*
X127700000Y-57075000D03*
X127700000Y-55925000D03*
X128200000Y-55925000D03*
X128700000Y-55925000D03*
%TD*%
D21*
%TO.C,C17*%
X140000000Y-85050000D03*
X140000000Y-79950000D03*
%TD*%
D11*
%TO.C,C88*%
X117400000Y-63245000D03*
X117400000Y-62555000D03*
%TD*%
D14*
%TO.C,C87*%
X126145000Y-59300000D03*
X125455000Y-59300000D03*
%TD*%
D13*
%TO.C,C67*%
X123855000Y-59300000D03*
X124545000Y-59300000D03*
%TD*%
D14*
%TO.C,C22*%
X122945000Y-56100000D03*
X122255000Y-56100000D03*
%TD*%
D11*
%TO.C,R14*%
X134000000Y-59395000D03*
X134000000Y-58705000D03*
%TD*%
%TO.C,C34*%
X132300000Y-69325000D03*
X132300000Y-68635000D03*
%TD*%
D14*
%TO.C,C33*%
X127825000Y-67900000D03*
X127135000Y-67900000D03*
%TD*%
%TO.C,R67*%
X112275000Y-57800000D03*
X111585000Y-57800000D03*
%TD*%
D24*
%TO.C,U4*%
X135737500Y-58875000D03*
X135737500Y-58225000D03*
X135737500Y-57575000D03*
X135737500Y-56925000D03*
X135737500Y-56275000D03*
X135737500Y-55625000D03*
X135737500Y-54975000D03*
X135737500Y-54325000D03*
X141462500Y-54325000D03*
X141462500Y-54975000D03*
X141462500Y-55625000D03*
X141462500Y-56275000D03*
X141462500Y-56925000D03*
X141462500Y-57575000D03*
X141462500Y-58225000D03*
X141462500Y-58875000D03*
%TD*%
D12*
%TO.C,R15*%
X134000000Y-57305000D03*
X134000000Y-57995000D03*
%TD*%
D13*
%TO.C,R5*%
X141555000Y-66625000D03*
X142245000Y-66625000D03*
%TD*%
D25*
%TO.C,J1*%
X143700000Y-67875000D03*
X143700000Y-66625000D03*
X143700000Y-65375000D03*
X143700000Y-64125000D03*
D26*
X147000000Y-70225000D03*
X147000000Y-61775000D03*
%TD*%
D27*
%TO.C,J14*%
X113500000Y-56400000D03*
X112250000Y-56400000D03*
X111000000Y-56400000D03*
X109750000Y-56400000D03*
X108500000Y-56400000D03*
D28*
X115850000Y-53100000D03*
X106150000Y-53100000D03*
%TD*%
D27*
%TO.C,J2*%
X135800000Y-93950000D03*
X137050000Y-93950000D03*
X138300000Y-93950000D03*
X139550000Y-93950000D03*
X140800000Y-93950000D03*
D28*
X133450000Y-97250000D03*
X143150000Y-97250000D03*
%TD*%
D27*
%TO.C,J3*%
X109200000Y-93950000D03*
X110450000Y-93950000D03*
X111700000Y-93950000D03*
X112950000Y-93950000D03*
X114200000Y-93950000D03*
D28*
X106850000Y-97250000D03*
X116550000Y-97250000D03*
%TD*%
D29*
%TO.C,J4*%
X146500000Y-56000000D03*
X146500000Y-56500000D03*
X146500000Y-57000000D03*
X146500000Y-57500000D03*
X146500000Y-58000000D03*
X146500000Y-58500000D03*
X146500000Y-59000000D03*
X146500000Y-59500000D03*
D30*
X149150000Y-55210000D03*
X149150000Y-60290000D03*
%TD*%
D14*
%TO.C,C46*%
X129425000Y-67900000D03*
X128735000Y-67900000D03*
%TD*%
D11*
%TO.C,R7*%
X127825000Y-74845000D03*
X127825000Y-74155000D03*
%TD*%
D12*
%TO.C,C19*%
X130400000Y-67855000D03*
X130400000Y-68545000D03*
%TD*%
D11*
%TO.C,C71*%
X132200000Y-66845000D03*
X132200000Y-66155000D03*
%TD*%
D13*
%TO.C,R55*%
X125455000Y-65700000D03*
X126145000Y-65700000D03*
%TD*%
%TO.C,C48*%
X130975000Y-70700000D03*
X131665000Y-70700000D03*
%TD*%
D14*
%TO.C,C55*%
X122945000Y-56900000D03*
X122255000Y-56900000D03*
%TD*%
D31*
%TO.C,R25*%
X148100000Y-93950000D03*
X149120000Y-93950000D03*
%TD*%
D11*
%TO.C,R8*%
X126825000Y-74845000D03*
X126825000Y-74155000D03*
%TD*%
D12*
%TO.C,C20*%
X124000000Y-51325000D03*
X124000000Y-52015000D03*
%TD*%
D13*
%TO.C,D5*%
X148240000Y-94950000D03*
X148930000Y-94950000D03*
%TD*%
D11*
%TO.C,D7*%
X141200000Y-64345000D03*
X141200000Y-63655000D03*
%TD*%
D12*
%TO.C,D8*%
X141200000Y-67655000D03*
X141200000Y-68345000D03*
%TD*%
D11*
%TO.C,R56*%
X121800000Y-61245000D03*
X121800000Y-60555000D03*
%TD*%
D14*
%TO.C,C35*%
X129425000Y-70700000D03*
X128735000Y-70700000D03*
%TD*%
D32*
%TO.C,J9*%
X111250000Y-62142500D03*
X111250000Y-62777500D03*
X111250000Y-63412500D03*
X111250000Y-64047500D03*
X111250000Y-64682500D03*
X111250000Y-65317500D03*
X111250000Y-65952500D03*
X111250000Y-66587500D03*
X111250000Y-67222500D03*
X111250000Y-67857500D03*
X112210000Y-62142500D03*
X112210000Y-62777500D03*
X112210000Y-63412500D03*
X112210000Y-64047500D03*
X112210000Y-64682500D03*
X112210000Y-65317500D03*
X112210000Y-65952500D03*
X112210000Y-66587500D03*
X112210000Y-67222500D03*
X112210000Y-67857500D03*
X113790000Y-62142500D03*
X113790000Y-62777500D03*
X113790000Y-63412500D03*
X113790000Y-64047500D03*
X113790000Y-64682500D03*
X113790000Y-65317500D03*
X113790000Y-65952500D03*
X113790000Y-66587500D03*
X113790000Y-67222500D03*
X113790000Y-67857500D03*
X114750000Y-62142500D03*
X114750000Y-62777500D03*
X114750000Y-63412500D03*
X114750000Y-64047500D03*
X114750000Y-64682500D03*
X114750000Y-65317500D03*
X114750000Y-65952500D03*
X114750000Y-66587500D03*
X114750000Y-67222500D03*
X114750000Y-67857500D03*
%TD*%
D14*
%TO.C,R36*%
X120945000Y-68500000D03*
X120255000Y-68500000D03*
%TD*%
D12*
%TO.C,R28*%
X132500000Y-61455000D03*
X132500000Y-62145000D03*
%TD*%
D11*
%TO.C,C90*%
X117800000Y-56445000D03*
X117800000Y-55755000D03*
%TD*%
D33*
%TO.C,X1*%
X126000000Y-51350000D03*
X126000000Y-52650000D03*
X125000000Y-52650000D03*
X125000000Y-51350000D03*
%TD*%
D12*
%TO.C,C84*%
X128200000Y-63755000D03*
X128200000Y-64445000D03*
%TD*%
D13*
%TO.C,C85*%
X127055000Y-65700000D03*
X127745000Y-65700000D03*
%TD*%
D32*
%TO.C,J8*%
X135250000Y-62142500D03*
X135250000Y-62777500D03*
X135250000Y-63412500D03*
X135250000Y-64047500D03*
X135250000Y-64682500D03*
X135250000Y-65317500D03*
X135250000Y-65952500D03*
X135250000Y-66587500D03*
X135250000Y-67222500D03*
X135250000Y-67857500D03*
X136210000Y-62142500D03*
X136210000Y-62777500D03*
X136210000Y-63412500D03*
X136210000Y-64047500D03*
X136210000Y-64682500D03*
X136210000Y-65317500D03*
X136210000Y-65952500D03*
X136210000Y-66587500D03*
X136210000Y-67222500D03*
X136210000Y-67857500D03*
X137790000Y-62142500D03*
X137790000Y-62777500D03*
X137790000Y-63412500D03*
X137790000Y-64047500D03*
X137790000Y-64682500D03*
X137790000Y-65317500D03*
X137790000Y-65952500D03*
X137790000Y-66587500D03*
X137790000Y-67222500D03*
X137790000Y-67857500D03*
X138750000Y-62142500D03*
X138750000Y-62777500D03*
X138750000Y-63412500D03*
X138750000Y-64047500D03*
X138750000Y-64682500D03*
X138750000Y-65317500D03*
X138750000Y-65952500D03*
X138750000Y-66587500D03*
X138750000Y-67222500D03*
X138750000Y-67857500D03*
%TD*%
D13*
%TO.C,C74*%
X125455000Y-66500000D03*
X126145000Y-66500000D03*
%TD*%
%TO.C,C77*%
X123855000Y-58500000D03*
X124545000Y-58500000D03*
%TD*%
D34*
%TO.C,C95*%
X145950000Y-91275000D03*
X145950000Y-94225000D03*
%TD*%
D13*
%TO.C,R27*%
X127810000Y-54000000D03*
X128500000Y-54000000D03*
%TD*%
D35*
%TO.C,D1*%
X143775000Y-58500000D03*
X143775000Y-58000001D03*
X143775000Y-57499999D03*
X143775000Y-57000000D03*
X143775000Y-56499998D03*
X143775000Y-55999999D03*
X143775000Y-55500000D03*
X145025000Y-55500000D03*
X145025000Y-55999999D03*
X145025000Y-56499998D03*
X145025000Y-57000000D03*
X145025000Y-57499999D03*
X145025000Y-58000001D03*
X145025000Y-58500000D03*
%TD*%
D27*
%TO.C,J13*%
X124375000Y-93950000D03*
X125625000Y-93950000D03*
D28*
X122125000Y-97250000D03*
X127875000Y-97250000D03*
%TD*%
D12*
%TO.C,R13*%
X144900000Y-59175000D03*
X144900000Y-59865000D03*
%TD*%
D36*
%TO.C,U15*%
X130900000Y-83145000D03*
D37*
X130550000Y-82170000D03*
X130550000Y-81520000D03*
X130550000Y-80870000D03*
X130550000Y-80220000D03*
X130550000Y-79570000D03*
D36*
X130900000Y-78845000D03*
X134900000Y-78845000D03*
D37*
X135250000Y-79570000D03*
X135250000Y-80220000D03*
X135250000Y-80870000D03*
X135250000Y-81520000D03*
X135250000Y-82170000D03*
D36*
X134900000Y-83145000D03*
%TD*%
D34*
%TO.C,C96*%
X131275000Y-89875000D03*
X131275000Y-92825000D03*
%TD*%
D13*
%TO.C,R68*%
X108475000Y-57800000D03*
X109165000Y-57800000D03*
%TD*%
D12*
%TO.C,R79*%
X109750000Y-58860000D03*
X109750000Y-59550000D03*
%TD*%
%TO.C,R59*%
X109700000Y-61125000D03*
X109700000Y-61815000D03*
%TD*%
D11*
%TO.C,R60*%
X103800000Y-60845000D03*
X103800000Y-60155000D03*
%TD*%
D12*
%TO.C,R57*%
X136200000Y-78100000D03*
X136200000Y-78790000D03*
%TD*%
D38*
%TO.C,C98*%
X133800000Y-77350000D03*
X133800000Y-75450000D03*
%TD*%
D21*
%TO.C,C18*%
X146000000Y-85050000D03*
X146000000Y-79950000D03*
%TD*%
D11*
%TO.C,R58*%
X136200000Y-80235000D03*
X136200000Y-79545000D03*
%TD*%
D13*
%TO.C,R61*%
X118860000Y-75000000D03*
X119550000Y-75000000D03*
%TD*%
D11*
%TO.C,R49*%
X120400000Y-81645000D03*
X120400000Y-80955000D03*
%TD*%
D34*
%TO.C,C57*%
X118725000Y-89850000D03*
X118725000Y-92800000D03*
%TD*%
D12*
%TO.C,R48*%
X121100000Y-78905000D03*
X121100000Y-79595000D03*
%TD*%
D39*
%TO.C,C97*%
X128750000Y-83275000D03*
X128750000Y-81725000D03*
%TD*%
D34*
%TO.C,C56*%
X104050000Y-91275000D03*
X104050000Y-94225000D03*
%TD*%
D36*
%TO.C,U11*%
X115100000Y-83145000D03*
D37*
X114750000Y-82170000D03*
X114750000Y-81520000D03*
X114750000Y-80870000D03*
X114750000Y-80220000D03*
X114750000Y-79570000D03*
D36*
X115100000Y-78845000D03*
X119100000Y-78845000D03*
D37*
X119450000Y-79570000D03*
X119450000Y-80220000D03*
X119450000Y-80870000D03*
X119450000Y-81520000D03*
X119450000Y-82170000D03*
D36*
X119100000Y-83145000D03*
%TD*%
D14*
%TO.C,R63*%
X122845000Y-84700000D03*
X122155000Y-84700000D03*
%TD*%
D12*
%TO.C,C12*%
X143900000Y-59175000D03*
X143900000Y-59865000D03*
%TD*%
D39*
%TO.C,C58*%
X125000000Y-83275000D03*
X125000000Y-81725000D03*
%TD*%
D11*
%TO.C,R50*%
X120400000Y-80235000D03*
X120400000Y-79545000D03*
%TD*%
D40*
%TO.C,C59*%
X127050000Y-78500000D03*
X128950000Y-78500000D03*
%TD*%
M02*
