%TF.GenerationSoftware,KiCad,Pcbnew,(6.0.5)*%
%TF.CreationDate,2022-11-28T14:04:54+01:00*%
%TF.ProjectId,omodri_laas,6f6d6f64-7269-45f6-9c61-61732e6b6963,2.0*%
%TF.SameCoordinates,Original*%
%TF.FileFunction,AssemblyDrawing,Top*%
%FSLAX46Y46*%
G04 Gerber Fmt 4.6, Leading zero omitted, Abs format (unit mm)*
G04 Created by KiCad (PCBNEW (6.0.5)) date 2022-11-28 14:04:54*
%MOMM*%
%LPD*%
G01*
G04 APERTURE LIST*
%ADD10C,0.100000*%
%ADD11C,0.120000*%
%ADD12C,0.152400*%
G04 APERTURE END LIST*
D10*
%TO.C,C41*%
X142014285Y-68085714D02*
X142042857Y-68114285D01*
X142071428Y-68200000D01*
X142071428Y-68257142D01*
X142042857Y-68342857D01*
X141985714Y-68400000D01*
X141928571Y-68428571D01*
X141814285Y-68457142D01*
X141728571Y-68457142D01*
X141614285Y-68428571D01*
X141557142Y-68400000D01*
X141500000Y-68342857D01*
X141471428Y-68257142D01*
X141471428Y-68200000D01*
X141500000Y-68114285D01*
X141528571Y-68085714D01*
X141671428Y-67571428D02*
X142071428Y-67571428D01*
X141442857Y-67714285D02*
X141871428Y-67857142D01*
X141871428Y-67485714D01*
X142071428Y-66942857D02*
X142071428Y-67285714D01*
X142071428Y-67114285D02*
X141471428Y-67114285D01*
X141557142Y-67171428D01*
X141614285Y-67228571D01*
X141642857Y-67285714D01*
%TO.C,C49*%
X145514285Y-78985714D02*
X145542857Y-79014285D01*
X145571428Y-79100000D01*
X145571428Y-79157142D01*
X145542857Y-79242857D01*
X145485714Y-79300000D01*
X145428571Y-79328571D01*
X145314285Y-79357142D01*
X145228571Y-79357142D01*
X145114285Y-79328571D01*
X145057142Y-79300000D01*
X145000000Y-79242857D01*
X144971428Y-79157142D01*
X144971428Y-79100000D01*
X145000000Y-79014285D01*
X145028571Y-78985714D01*
X145171428Y-78471428D02*
X145571428Y-78471428D01*
X144942857Y-78614285D02*
X145371428Y-78757142D01*
X145371428Y-78385714D01*
X145571428Y-78128571D02*
X145571428Y-78014285D01*
X145542857Y-77957142D01*
X145514285Y-77928571D01*
X145428571Y-77871428D01*
X145314285Y-77842857D01*
X145085714Y-77842857D01*
X145028571Y-77871428D01*
X145000000Y-77900000D01*
X144971428Y-77957142D01*
X144971428Y-78071428D01*
X145000000Y-78128571D01*
X145028571Y-78157142D01*
X145085714Y-78185714D01*
X145228571Y-78185714D01*
X145285714Y-78157142D01*
X145314285Y-78128571D01*
X145342857Y-78071428D01*
X145342857Y-77957142D01*
X145314285Y-77900000D01*
X145285714Y-77871428D01*
X145228571Y-77842857D01*
%TO.C,C65*%
X120964285Y-76714285D02*
X120935714Y-76742857D01*
X120850000Y-76771428D01*
X120792857Y-76771428D01*
X120707142Y-76742857D01*
X120650000Y-76685714D01*
X120621428Y-76628571D01*
X120592857Y-76514285D01*
X120592857Y-76428571D01*
X120621428Y-76314285D01*
X120650000Y-76257142D01*
X120707142Y-76200000D01*
X120792857Y-76171428D01*
X120850000Y-76171428D01*
X120935714Y-76200000D01*
X120964285Y-76228571D01*
X121478571Y-76171428D02*
X121364285Y-76171428D01*
X121307142Y-76200000D01*
X121278571Y-76228571D01*
X121221428Y-76314285D01*
X121192857Y-76428571D01*
X121192857Y-76657142D01*
X121221428Y-76714285D01*
X121250000Y-76742857D01*
X121307142Y-76771428D01*
X121421428Y-76771428D01*
X121478571Y-76742857D01*
X121507142Y-76714285D01*
X121535714Y-76657142D01*
X121535714Y-76514285D01*
X121507142Y-76457142D01*
X121478571Y-76428571D01*
X121421428Y-76400000D01*
X121307142Y-76400000D01*
X121250000Y-76428571D01*
X121221428Y-76457142D01*
X121192857Y-76514285D01*
X122078571Y-76171428D02*
X121792857Y-76171428D01*
X121764285Y-76457142D01*
X121792857Y-76428571D01*
X121850000Y-76400000D01*
X121992857Y-76400000D01*
X122050000Y-76428571D01*
X122078571Y-76457142D01*
X122107142Y-76514285D01*
X122107142Y-76657142D01*
X122078571Y-76714285D01*
X122050000Y-76742857D01*
X121992857Y-76771428D01*
X121850000Y-76771428D01*
X121792857Y-76742857D01*
X121764285Y-76714285D01*
%TO.C,C69*%
X132714285Y-76585714D02*
X132742857Y-76614285D01*
X132771428Y-76700000D01*
X132771428Y-76757142D01*
X132742857Y-76842857D01*
X132685714Y-76900000D01*
X132628571Y-76928571D01*
X132514285Y-76957142D01*
X132428571Y-76957142D01*
X132314285Y-76928571D01*
X132257142Y-76900000D01*
X132200000Y-76842857D01*
X132171428Y-76757142D01*
X132171428Y-76700000D01*
X132200000Y-76614285D01*
X132228571Y-76585714D01*
X132171428Y-76071428D02*
X132171428Y-76185714D01*
X132200000Y-76242857D01*
X132228571Y-76271428D01*
X132314285Y-76328571D01*
X132428571Y-76357142D01*
X132657142Y-76357142D01*
X132714285Y-76328571D01*
X132742857Y-76300000D01*
X132771428Y-76242857D01*
X132771428Y-76128571D01*
X132742857Y-76071428D01*
X132714285Y-76042857D01*
X132657142Y-76014285D01*
X132514285Y-76014285D01*
X132457142Y-76042857D01*
X132428571Y-76071428D01*
X132400000Y-76128571D01*
X132400000Y-76242857D01*
X132428571Y-76300000D01*
X132457142Y-76328571D01*
X132514285Y-76357142D01*
X132771428Y-75728571D02*
X132771428Y-75614285D01*
X132742857Y-75557142D01*
X132714285Y-75528571D01*
X132628571Y-75471428D01*
X132514285Y-75442857D01*
X132285714Y-75442857D01*
X132228571Y-75471428D01*
X132200000Y-75500000D01*
X132171428Y-75557142D01*
X132171428Y-75671428D01*
X132200000Y-75728571D01*
X132228571Y-75757142D01*
X132285714Y-75785714D01*
X132428571Y-75785714D01*
X132485714Y-75757142D01*
X132514285Y-75728571D01*
X132542857Y-75671428D01*
X132542857Y-75557142D01*
X132514285Y-75500000D01*
X132485714Y-75471428D01*
X132428571Y-75442857D01*
%TO.C,FB3*%
X122500000Y-75657142D02*
X122300000Y-75657142D01*
X122300000Y-75971428D02*
X122300000Y-75371428D01*
X122585714Y-75371428D01*
X123014285Y-75657142D02*
X123100000Y-75685714D01*
X123128571Y-75714285D01*
X123157142Y-75771428D01*
X123157142Y-75857142D01*
X123128571Y-75914285D01*
X123100000Y-75942857D01*
X123042857Y-75971428D01*
X122814285Y-75971428D01*
X122814285Y-75371428D01*
X123014285Y-75371428D01*
X123071428Y-75400000D01*
X123100000Y-75428571D01*
X123128571Y-75485714D01*
X123128571Y-75542857D01*
X123100000Y-75600000D01*
X123071428Y-75628571D01*
X123014285Y-75657142D01*
X122814285Y-75657142D01*
X123357142Y-75371428D02*
X123728571Y-75371428D01*
X123528571Y-75600000D01*
X123614285Y-75600000D01*
X123671428Y-75628571D01*
X123700000Y-75657142D01*
X123728571Y-75714285D01*
X123728571Y-75857142D01*
X123700000Y-75914285D01*
X123671428Y-75942857D01*
X123614285Y-75971428D01*
X123442857Y-75971428D01*
X123385714Y-75942857D01*
X123357142Y-75914285D01*
%TO.C,R26*%
X128614285Y-54071428D02*
X128414285Y-53785714D01*
X128271428Y-54071428D02*
X128271428Y-53471428D01*
X128500000Y-53471428D01*
X128557142Y-53500000D01*
X128585714Y-53528571D01*
X128614285Y-53585714D01*
X128614285Y-53671428D01*
X128585714Y-53728571D01*
X128557142Y-53757142D01*
X128500000Y-53785714D01*
X128271428Y-53785714D01*
X128842857Y-53528571D02*
X128871428Y-53500000D01*
X128928571Y-53471428D01*
X129071428Y-53471428D01*
X129128571Y-53500000D01*
X129157142Y-53528571D01*
X129185714Y-53585714D01*
X129185714Y-53642857D01*
X129157142Y-53728571D01*
X128814285Y-54071428D01*
X129185714Y-54071428D01*
X129700000Y-53471428D02*
X129585714Y-53471428D01*
X129528571Y-53500000D01*
X129500000Y-53528571D01*
X129442857Y-53614285D01*
X129414285Y-53728571D01*
X129414285Y-53957142D01*
X129442857Y-54014285D01*
X129471428Y-54042857D01*
X129528571Y-54071428D01*
X129642857Y-54071428D01*
X129700000Y-54042857D01*
X129728571Y-54014285D01*
X129757142Y-53957142D01*
X129757142Y-53814285D01*
X129728571Y-53757142D01*
X129700000Y-53728571D01*
X129642857Y-53700000D01*
X129528571Y-53700000D01*
X129471428Y-53728571D01*
X129442857Y-53757142D01*
X129414285Y-53814285D01*
%TO.C,R40*%
X132214285Y-81371428D02*
X132014285Y-81085714D01*
X131871428Y-81371428D02*
X131871428Y-80771428D01*
X132100000Y-80771428D01*
X132157142Y-80800000D01*
X132185714Y-80828571D01*
X132214285Y-80885714D01*
X132214285Y-80971428D01*
X132185714Y-81028571D01*
X132157142Y-81057142D01*
X132100000Y-81085714D01*
X131871428Y-81085714D01*
X132728571Y-80971428D02*
X132728571Y-81371428D01*
X132585714Y-80742857D02*
X132442857Y-81171428D01*
X132814285Y-81171428D01*
X133157142Y-80771428D02*
X133214285Y-80771428D01*
X133271428Y-80800000D01*
X133300000Y-80828571D01*
X133328571Y-80885714D01*
X133357142Y-81000000D01*
X133357142Y-81142857D01*
X133328571Y-81257142D01*
X133300000Y-81314285D01*
X133271428Y-81342857D01*
X133214285Y-81371428D01*
X133157142Y-81371428D01*
X133100000Y-81342857D01*
X133071428Y-81314285D01*
X133042857Y-81257142D01*
X133014285Y-81142857D01*
X133014285Y-81000000D01*
X133042857Y-80885714D01*
X133071428Y-80828571D01*
X133100000Y-80800000D01*
X133157142Y-80771428D01*
%TO.C,U13*%
X122257142Y-79671428D02*
X122257142Y-80157142D01*
X122285714Y-80214285D01*
X122314285Y-80242857D01*
X122371428Y-80271428D01*
X122485714Y-80271428D01*
X122542857Y-80242857D01*
X122571428Y-80214285D01*
X122600000Y-80157142D01*
X122600000Y-79671428D01*
X123200000Y-80271428D02*
X122857142Y-80271428D01*
X123028571Y-80271428D02*
X123028571Y-79671428D01*
X122971428Y-79757142D01*
X122914285Y-79814285D01*
X122857142Y-79842857D01*
X123400000Y-79671428D02*
X123771428Y-79671428D01*
X123571428Y-79900000D01*
X123657142Y-79900000D01*
X123714285Y-79928571D01*
X123742857Y-79957142D01*
X123771428Y-80014285D01*
X123771428Y-80157142D01*
X123742857Y-80214285D01*
X123714285Y-80242857D01*
X123657142Y-80271428D01*
X123485714Y-80271428D01*
X123428571Y-80242857D01*
X123400000Y-80214285D01*
%TO.C,R44*%
X148971428Y-76785714D02*
X148685714Y-76985714D01*
X148971428Y-77128571D02*
X148371428Y-77128571D01*
X148371428Y-76900000D01*
X148400000Y-76842857D01*
X148428571Y-76814285D01*
X148485714Y-76785714D01*
X148571428Y-76785714D01*
X148628571Y-76814285D01*
X148657142Y-76842857D01*
X148685714Y-76900000D01*
X148685714Y-77128571D01*
X148571428Y-76271428D02*
X148971428Y-76271428D01*
X148342857Y-76414285D02*
X148771428Y-76557142D01*
X148771428Y-76185714D01*
X148571428Y-75700000D02*
X148971428Y-75700000D01*
X148342857Y-75842857D02*
X148771428Y-75985714D01*
X148771428Y-75614285D01*
%TO.C,R23*%
X134714285Y-59371428D02*
X134514285Y-59085714D01*
X134371428Y-59371428D02*
X134371428Y-58771428D01*
X134600000Y-58771428D01*
X134657142Y-58800000D01*
X134685714Y-58828571D01*
X134714285Y-58885714D01*
X134714285Y-58971428D01*
X134685714Y-59028571D01*
X134657142Y-59057142D01*
X134600000Y-59085714D01*
X134371428Y-59085714D01*
X134942857Y-58828571D02*
X134971428Y-58800000D01*
X135028571Y-58771428D01*
X135171428Y-58771428D01*
X135228571Y-58800000D01*
X135257142Y-58828571D01*
X135285714Y-58885714D01*
X135285714Y-58942857D01*
X135257142Y-59028571D01*
X134914285Y-59371428D01*
X135285714Y-59371428D01*
X135485714Y-58771428D02*
X135857142Y-58771428D01*
X135657142Y-59000000D01*
X135742857Y-59000000D01*
X135800000Y-59028571D01*
X135828571Y-59057142D01*
X135857142Y-59114285D01*
X135857142Y-59257142D01*
X135828571Y-59314285D01*
X135800000Y-59342857D01*
X135742857Y-59371428D01*
X135571428Y-59371428D01*
X135514285Y-59342857D01*
X135485714Y-59314285D01*
%TO.C,C45*%
X141614285Y-77714285D02*
X141585714Y-77742857D01*
X141500000Y-77771428D01*
X141442857Y-77771428D01*
X141357142Y-77742857D01*
X141300000Y-77685714D01*
X141271428Y-77628571D01*
X141242857Y-77514285D01*
X141242857Y-77428571D01*
X141271428Y-77314285D01*
X141300000Y-77257142D01*
X141357142Y-77200000D01*
X141442857Y-77171428D01*
X141500000Y-77171428D01*
X141585714Y-77200000D01*
X141614285Y-77228571D01*
X142128571Y-77371428D02*
X142128571Y-77771428D01*
X141985714Y-77142857D02*
X141842857Y-77571428D01*
X142214285Y-77571428D01*
X142728571Y-77171428D02*
X142442857Y-77171428D01*
X142414285Y-77457142D01*
X142442857Y-77428571D01*
X142500000Y-77400000D01*
X142642857Y-77400000D01*
X142700000Y-77428571D01*
X142728571Y-77457142D01*
X142757142Y-77514285D01*
X142757142Y-77657142D01*
X142728571Y-77714285D01*
X142700000Y-77742857D01*
X142642857Y-77771428D01*
X142500000Y-77771428D01*
X142442857Y-77742857D01*
X142414285Y-77714285D01*
%TO.C,U5*%
X138142857Y-56271428D02*
X138142857Y-56757142D01*
X138171428Y-56814285D01*
X138200000Y-56842857D01*
X138257142Y-56871428D01*
X138371428Y-56871428D01*
X138428571Y-56842857D01*
X138457142Y-56814285D01*
X138485714Y-56757142D01*
X138485714Y-56271428D01*
X139057142Y-56271428D02*
X138771428Y-56271428D01*
X138742857Y-56557142D01*
X138771428Y-56528571D01*
X138828571Y-56500000D01*
X138971428Y-56500000D01*
X139028571Y-56528571D01*
X139057142Y-56557142D01*
X139085714Y-56614285D01*
X139085714Y-56757142D01*
X139057142Y-56814285D01*
X139028571Y-56842857D01*
X138971428Y-56871428D01*
X138828571Y-56871428D01*
X138771428Y-56842857D01*
X138742857Y-56814285D01*
%TO.C,R20*%
X141314285Y-56071428D02*
X141114285Y-55785714D01*
X140971428Y-56071428D02*
X140971428Y-55471428D01*
X141200000Y-55471428D01*
X141257142Y-55500000D01*
X141285714Y-55528571D01*
X141314285Y-55585714D01*
X141314285Y-55671428D01*
X141285714Y-55728571D01*
X141257142Y-55757142D01*
X141200000Y-55785714D01*
X140971428Y-55785714D01*
X141542857Y-55528571D02*
X141571428Y-55500000D01*
X141628571Y-55471428D01*
X141771428Y-55471428D01*
X141828571Y-55500000D01*
X141857142Y-55528571D01*
X141885714Y-55585714D01*
X141885714Y-55642857D01*
X141857142Y-55728571D01*
X141514285Y-56071428D01*
X141885714Y-56071428D01*
X142257142Y-55471428D02*
X142314285Y-55471428D01*
X142371428Y-55500000D01*
X142400000Y-55528571D01*
X142428571Y-55585714D01*
X142457142Y-55700000D01*
X142457142Y-55842857D01*
X142428571Y-55957142D01*
X142400000Y-56014285D01*
X142371428Y-56042857D01*
X142314285Y-56071428D01*
X142257142Y-56071428D01*
X142200000Y-56042857D01*
X142171428Y-56014285D01*
X142142857Y-55957142D01*
X142114285Y-55842857D01*
X142114285Y-55700000D01*
X142142857Y-55585714D01*
X142171428Y-55528571D01*
X142200000Y-55500000D01*
X142257142Y-55471428D01*
%TO.C,R21*%
X134714285Y-55171428D02*
X134514285Y-54885714D01*
X134371428Y-55171428D02*
X134371428Y-54571428D01*
X134600000Y-54571428D01*
X134657142Y-54600000D01*
X134685714Y-54628571D01*
X134714285Y-54685714D01*
X134714285Y-54771428D01*
X134685714Y-54828571D01*
X134657142Y-54857142D01*
X134600000Y-54885714D01*
X134371428Y-54885714D01*
X134942857Y-54628571D02*
X134971428Y-54600000D01*
X135028571Y-54571428D01*
X135171428Y-54571428D01*
X135228571Y-54600000D01*
X135257142Y-54628571D01*
X135285714Y-54685714D01*
X135285714Y-54742857D01*
X135257142Y-54828571D01*
X134914285Y-55171428D01*
X135285714Y-55171428D01*
X135857142Y-55171428D02*
X135514285Y-55171428D01*
X135685714Y-55171428D02*
X135685714Y-54571428D01*
X135628571Y-54657142D01*
X135571428Y-54714285D01*
X135514285Y-54742857D01*
%TO.C,C37*%
X137789285Y-74914285D02*
X137760714Y-74942857D01*
X137675000Y-74971428D01*
X137617857Y-74971428D01*
X137532142Y-74942857D01*
X137475000Y-74885714D01*
X137446428Y-74828571D01*
X137417857Y-74714285D01*
X137417857Y-74628571D01*
X137446428Y-74514285D01*
X137475000Y-74457142D01*
X137532142Y-74400000D01*
X137617857Y-74371428D01*
X137675000Y-74371428D01*
X137760714Y-74400000D01*
X137789285Y-74428571D01*
X137989285Y-74371428D02*
X138360714Y-74371428D01*
X138160714Y-74600000D01*
X138246428Y-74600000D01*
X138303571Y-74628571D01*
X138332142Y-74657142D01*
X138360714Y-74714285D01*
X138360714Y-74857142D01*
X138332142Y-74914285D01*
X138303571Y-74942857D01*
X138246428Y-74971428D01*
X138075000Y-74971428D01*
X138017857Y-74942857D01*
X137989285Y-74914285D01*
X138560714Y-74371428D02*
X138960714Y-74371428D01*
X138703571Y-74971428D01*
%TO.C,Q1*%
X130342857Y-51328571D02*
X130285714Y-51300000D01*
X130228571Y-51242857D01*
X130142857Y-51157142D01*
X130085714Y-51128571D01*
X130028571Y-51128571D01*
X130057142Y-51271428D02*
X130000000Y-51242857D01*
X129942857Y-51185714D01*
X129914285Y-51071428D01*
X129914285Y-50871428D01*
X129942857Y-50757142D01*
X130000000Y-50700000D01*
X130057142Y-50671428D01*
X130171428Y-50671428D01*
X130228571Y-50700000D01*
X130285714Y-50757142D01*
X130314285Y-50871428D01*
X130314285Y-51071428D01*
X130285714Y-51185714D01*
X130228571Y-51242857D01*
X130171428Y-51271428D01*
X130057142Y-51271428D01*
X130885714Y-51271428D02*
X130542857Y-51271428D01*
X130714285Y-51271428D02*
X130714285Y-50671428D01*
X130657142Y-50757142D01*
X130600000Y-50814285D01*
X130542857Y-50842857D01*
%TO.C,C43*%
X138664285Y-77014285D02*
X138635714Y-77042857D01*
X138550000Y-77071428D01*
X138492857Y-77071428D01*
X138407142Y-77042857D01*
X138350000Y-76985714D01*
X138321428Y-76928571D01*
X138292857Y-76814285D01*
X138292857Y-76728571D01*
X138321428Y-76614285D01*
X138350000Y-76557142D01*
X138407142Y-76500000D01*
X138492857Y-76471428D01*
X138550000Y-76471428D01*
X138635714Y-76500000D01*
X138664285Y-76528571D01*
X139178571Y-76671428D02*
X139178571Y-77071428D01*
X139035714Y-76442857D02*
X138892857Y-76871428D01*
X139264285Y-76871428D01*
X139435714Y-76471428D02*
X139807142Y-76471428D01*
X139607142Y-76700000D01*
X139692857Y-76700000D01*
X139750000Y-76728571D01*
X139778571Y-76757142D01*
X139807142Y-76814285D01*
X139807142Y-76957142D01*
X139778571Y-77014285D01*
X139750000Y-77042857D01*
X139692857Y-77071428D01*
X139521428Y-77071428D01*
X139464285Y-77042857D01*
X139435714Y-77014285D01*
%TO.C,R41*%
X139014285Y-81371428D02*
X138814285Y-81085714D01*
X138671428Y-81371428D02*
X138671428Y-80771428D01*
X138900000Y-80771428D01*
X138957142Y-80800000D01*
X138985714Y-80828571D01*
X139014285Y-80885714D01*
X139014285Y-80971428D01*
X138985714Y-81028571D01*
X138957142Y-81057142D01*
X138900000Y-81085714D01*
X138671428Y-81085714D01*
X139528571Y-80971428D02*
X139528571Y-81371428D01*
X139385714Y-80742857D02*
X139242857Y-81171428D01*
X139614285Y-81171428D01*
X140157142Y-81371428D02*
X139814285Y-81371428D01*
X139985714Y-81371428D02*
X139985714Y-80771428D01*
X139928571Y-80857142D01*
X139871428Y-80914285D01*
X139814285Y-80942857D01*
%TO.C,R37*%
X115271428Y-72485714D02*
X114985714Y-72685714D01*
X115271428Y-72828571D02*
X114671428Y-72828571D01*
X114671428Y-72600000D01*
X114700000Y-72542857D01*
X114728571Y-72514285D01*
X114785714Y-72485714D01*
X114871428Y-72485714D01*
X114928571Y-72514285D01*
X114957142Y-72542857D01*
X114985714Y-72600000D01*
X114985714Y-72828571D01*
X114671428Y-72285714D02*
X114671428Y-71914285D01*
X114900000Y-72114285D01*
X114900000Y-72028571D01*
X114928571Y-71971428D01*
X114957142Y-71942857D01*
X115014285Y-71914285D01*
X115157142Y-71914285D01*
X115214285Y-71942857D01*
X115242857Y-71971428D01*
X115271428Y-72028571D01*
X115271428Y-72200000D01*
X115242857Y-72257142D01*
X115214285Y-72285714D01*
X114671428Y-71714285D02*
X114671428Y-71314285D01*
X115271428Y-71571428D01*
%TO.C,R45*%
X147671428Y-72885714D02*
X147385714Y-73085714D01*
X147671428Y-73228571D02*
X147071428Y-73228571D01*
X147071428Y-73000000D01*
X147100000Y-72942857D01*
X147128571Y-72914285D01*
X147185714Y-72885714D01*
X147271428Y-72885714D01*
X147328571Y-72914285D01*
X147357142Y-72942857D01*
X147385714Y-73000000D01*
X147385714Y-73228571D01*
X147271428Y-72371428D02*
X147671428Y-72371428D01*
X147042857Y-72514285D02*
X147471428Y-72657142D01*
X147471428Y-72285714D01*
X147071428Y-71771428D02*
X147071428Y-72057142D01*
X147357142Y-72085714D01*
X147328571Y-72057142D01*
X147300000Y-72000000D01*
X147300000Y-71857142D01*
X147328571Y-71800000D01*
X147357142Y-71771428D01*
X147414285Y-71742857D01*
X147557142Y-71742857D01*
X147614285Y-71771428D01*
X147642857Y-71800000D01*
X147671428Y-71857142D01*
X147671428Y-72000000D01*
X147642857Y-72057142D01*
X147614285Y-72085714D01*
%TO.C,R46*%
X149171428Y-72085714D02*
X148885714Y-72285714D01*
X149171428Y-72428571D02*
X148571428Y-72428571D01*
X148571428Y-72200000D01*
X148600000Y-72142857D01*
X148628571Y-72114285D01*
X148685714Y-72085714D01*
X148771428Y-72085714D01*
X148828571Y-72114285D01*
X148857142Y-72142857D01*
X148885714Y-72200000D01*
X148885714Y-72428571D01*
X148771428Y-71571428D02*
X149171428Y-71571428D01*
X148542857Y-71714285D02*
X148971428Y-71857142D01*
X148971428Y-71485714D01*
X148571428Y-71000000D02*
X148571428Y-71114285D01*
X148600000Y-71171428D01*
X148628571Y-71200000D01*
X148714285Y-71257142D01*
X148828571Y-71285714D01*
X149057142Y-71285714D01*
X149114285Y-71257142D01*
X149142857Y-71228571D01*
X149171428Y-71171428D01*
X149171428Y-71057142D01*
X149142857Y-71000000D01*
X149114285Y-70971428D01*
X149057142Y-70942857D01*
X148914285Y-70942857D01*
X148857142Y-70971428D01*
X148828571Y-71000000D01*
X148800000Y-71057142D01*
X148800000Y-71171428D01*
X148828571Y-71228571D01*
X148857142Y-71257142D01*
X148914285Y-71285714D01*
%TO.C,D9*%
X115271428Y-76742857D02*
X114671428Y-76742857D01*
X114671428Y-76600000D01*
X114700000Y-76514285D01*
X114757142Y-76457142D01*
X114814285Y-76428571D01*
X114928571Y-76400000D01*
X115014285Y-76400000D01*
X115128571Y-76428571D01*
X115185714Y-76457142D01*
X115242857Y-76514285D01*
X115271428Y-76600000D01*
X115271428Y-76742857D01*
X115271428Y-76114285D02*
X115271428Y-76000000D01*
X115242857Y-75942857D01*
X115214285Y-75914285D01*
X115128571Y-75857142D01*
X115014285Y-75828571D01*
X114785714Y-75828571D01*
X114728571Y-75857142D01*
X114700000Y-75885714D01*
X114671428Y-75942857D01*
X114671428Y-76057142D01*
X114700000Y-76114285D01*
X114728571Y-76142857D01*
X114785714Y-76171428D01*
X114928571Y-76171428D01*
X114985714Y-76142857D01*
X115014285Y-76114285D01*
X115042857Y-76057142D01*
X115042857Y-75942857D01*
X115014285Y-75885714D01*
X114985714Y-75857142D01*
X114928571Y-75828571D01*
%TO.C,C27*%
X105514285Y-68285714D02*
X105542857Y-68314285D01*
X105571428Y-68400000D01*
X105571428Y-68457142D01*
X105542857Y-68542857D01*
X105485714Y-68600000D01*
X105428571Y-68628571D01*
X105314285Y-68657142D01*
X105228571Y-68657142D01*
X105114285Y-68628571D01*
X105057142Y-68600000D01*
X105000000Y-68542857D01*
X104971428Y-68457142D01*
X104971428Y-68400000D01*
X105000000Y-68314285D01*
X105028571Y-68285714D01*
X105028571Y-68057142D02*
X105000000Y-68028571D01*
X104971428Y-67971428D01*
X104971428Y-67828571D01*
X105000000Y-67771428D01*
X105028571Y-67742857D01*
X105085714Y-67714285D01*
X105142857Y-67714285D01*
X105228571Y-67742857D01*
X105571428Y-68085714D01*
X105571428Y-67714285D01*
X104971428Y-67514285D02*
X104971428Y-67114285D01*
X105571428Y-67371428D01*
%TO.C,J11*%
X137814285Y-95996428D02*
X137814285Y-96425000D01*
X137785714Y-96510714D01*
X137728571Y-96567857D01*
X137642857Y-96596428D01*
X137585714Y-96596428D01*
X138414285Y-96596428D02*
X138071428Y-96596428D01*
X138242857Y-96596428D02*
X138242857Y-95996428D01*
X138185714Y-96082142D01*
X138128571Y-96139285D01*
X138071428Y-96167857D01*
X138985714Y-96596428D02*
X138642857Y-96596428D01*
X138814285Y-96596428D02*
X138814285Y-95996428D01*
X138757142Y-96082142D01*
X138700000Y-96139285D01*
X138642857Y-96167857D01*
%TO.C,R53*%
X119814285Y-78371428D02*
X119614285Y-78085714D01*
X119471428Y-78371428D02*
X119471428Y-77771428D01*
X119700000Y-77771428D01*
X119757142Y-77800000D01*
X119785714Y-77828571D01*
X119814285Y-77885714D01*
X119814285Y-77971428D01*
X119785714Y-78028571D01*
X119757142Y-78057142D01*
X119700000Y-78085714D01*
X119471428Y-78085714D01*
X120357142Y-77771428D02*
X120071428Y-77771428D01*
X120042857Y-78057142D01*
X120071428Y-78028571D01*
X120128571Y-78000000D01*
X120271428Y-78000000D01*
X120328571Y-78028571D01*
X120357142Y-78057142D01*
X120385714Y-78114285D01*
X120385714Y-78257142D01*
X120357142Y-78314285D01*
X120328571Y-78342857D01*
X120271428Y-78371428D01*
X120128571Y-78371428D01*
X120071428Y-78342857D01*
X120042857Y-78314285D01*
X120585714Y-77771428D02*
X120957142Y-77771428D01*
X120757142Y-78000000D01*
X120842857Y-78000000D01*
X120900000Y-78028571D01*
X120928571Y-78057142D01*
X120957142Y-78114285D01*
X120957142Y-78257142D01*
X120928571Y-78314285D01*
X120900000Y-78342857D01*
X120842857Y-78371428D01*
X120671428Y-78371428D01*
X120614285Y-78342857D01*
X120585714Y-78314285D01*
%TO.C,C62*%
X131514285Y-79214285D02*
X131485714Y-79242857D01*
X131400000Y-79271428D01*
X131342857Y-79271428D01*
X131257142Y-79242857D01*
X131200000Y-79185714D01*
X131171428Y-79128571D01*
X131142857Y-79014285D01*
X131142857Y-78928571D01*
X131171428Y-78814285D01*
X131200000Y-78757142D01*
X131257142Y-78700000D01*
X131342857Y-78671428D01*
X131400000Y-78671428D01*
X131485714Y-78700000D01*
X131514285Y-78728571D01*
X132028571Y-78671428D02*
X131914285Y-78671428D01*
X131857142Y-78700000D01*
X131828571Y-78728571D01*
X131771428Y-78814285D01*
X131742857Y-78928571D01*
X131742857Y-79157142D01*
X131771428Y-79214285D01*
X131800000Y-79242857D01*
X131857142Y-79271428D01*
X131971428Y-79271428D01*
X132028571Y-79242857D01*
X132057142Y-79214285D01*
X132085714Y-79157142D01*
X132085714Y-79014285D01*
X132057142Y-78957142D01*
X132028571Y-78928571D01*
X131971428Y-78900000D01*
X131857142Y-78900000D01*
X131800000Y-78928571D01*
X131771428Y-78957142D01*
X131742857Y-79014285D01*
X132314285Y-78728571D02*
X132342857Y-78700000D01*
X132400000Y-78671428D01*
X132542857Y-78671428D01*
X132600000Y-78700000D01*
X132628571Y-78728571D01*
X132657142Y-78785714D01*
X132657142Y-78842857D01*
X132628571Y-78928571D01*
X132285714Y-79271428D01*
X132657142Y-79271428D01*
%TO.C,R52*%
X125771428Y-79685714D02*
X125485714Y-79885714D01*
X125771428Y-80028571D02*
X125171428Y-80028571D01*
X125171428Y-79800000D01*
X125200000Y-79742857D01*
X125228571Y-79714285D01*
X125285714Y-79685714D01*
X125371428Y-79685714D01*
X125428571Y-79714285D01*
X125457142Y-79742857D01*
X125485714Y-79800000D01*
X125485714Y-80028571D01*
X125171428Y-79142857D02*
X125171428Y-79428571D01*
X125457142Y-79457142D01*
X125428571Y-79428571D01*
X125400000Y-79371428D01*
X125400000Y-79228571D01*
X125428571Y-79171428D01*
X125457142Y-79142857D01*
X125514285Y-79114285D01*
X125657142Y-79114285D01*
X125714285Y-79142857D01*
X125742857Y-79171428D01*
X125771428Y-79228571D01*
X125771428Y-79371428D01*
X125742857Y-79428571D01*
X125714285Y-79457142D01*
X125228571Y-78885714D02*
X125200000Y-78857142D01*
X125171428Y-78800000D01*
X125171428Y-78657142D01*
X125200000Y-78600000D01*
X125228571Y-78571428D01*
X125285714Y-78542857D01*
X125342857Y-78542857D01*
X125428571Y-78571428D01*
X125771428Y-78914285D01*
X125771428Y-78542857D01*
%TO.C,C25*%
X101114285Y-75014285D02*
X101085714Y-75042857D01*
X101000000Y-75071428D01*
X100942857Y-75071428D01*
X100857142Y-75042857D01*
X100800000Y-74985714D01*
X100771428Y-74928571D01*
X100742857Y-74814285D01*
X100742857Y-74728571D01*
X100771428Y-74614285D01*
X100800000Y-74557142D01*
X100857142Y-74500000D01*
X100942857Y-74471428D01*
X101000000Y-74471428D01*
X101085714Y-74500000D01*
X101114285Y-74528571D01*
X101342857Y-74528571D02*
X101371428Y-74500000D01*
X101428571Y-74471428D01*
X101571428Y-74471428D01*
X101628571Y-74500000D01*
X101657142Y-74528571D01*
X101685714Y-74585714D01*
X101685714Y-74642857D01*
X101657142Y-74728571D01*
X101314285Y-75071428D01*
X101685714Y-75071428D01*
X102228571Y-74471428D02*
X101942857Y-74471428D01*
X101914285Y-74757142D01*
X101942857Y-74728571D01*
X102000000Y-74700000D01*
X102142857Y-74700000D01*
X102200000Y-74728571D01*
X102228571Y-74757142D01*
X102257142Y-74814285D01*
X102257142Y-74957142D01*
X102228571Y-75014285D01*
X102200000Y-75042857D01*
X102142857Y-75071428D01*
X102000000Y-75071428D01*
X101942857Y-75042857D01*
X101914285Y-75014285D01*
%TO.C,C29*%
X102414285Y-69714285D02*
X102385714Y-69742857D01*
X102300000Y-69771428D01*
X102242857Y-69771428D01*
X102157142Y-69742857D01*
X102100000Y-69685714D01*
X102071428Y-69628571D01*
X102042857Y-69514285D01*
X102042857Y-69428571D01*
X102071428Y-69314285D01*
X102100000Y-69257142D01*
X102157142Y-69200000D01*
X102242857Y-69171428D01*
X102300000Y-69171428D01*
X102385714Y-69200000D01*
X102414285Y-69228571D01*
X102642857Y-69228571D02*
X102671428Y-69200000D01*
X102728571Y-69171428D01*
X102871428Y-69171428D01*
X102928571Y-69200000D01*
X102957142Y-69228571D01*
X102985714Y-69285714D01*
X102985714Y-69342857D01*
X102957142Y-69428571D01*
X102614285Y-69771428D01*
X102985714Y-69771428D01*
X103271428Y-69771428D02*
X103385714Y-69771428D01*
X103442857Y-69742857D01*
X103471428Y-69714285D01*
X103528571Y-69628571D01*
X103557142Y-69514285D01*
X103557142Y-69285714D01*
X103528571Y-69228571D01*
X103500000Y-69200000D01*
X103442857Y-69171428D01*
X103328571Y-69171428D01*
X103271428Y-69200000D01*
X103242857Y-69228571D01*
X103214285Y-69285714D01*
X103214285Y-69428571D01*
X103242857Y-69485714D01*
X103271428Y-69514285D01*
X103328571Y-69542857D01*
X103442857Y-69542857D01*
X103500000Y-69514285D01*
X103528571Y-69485714D01*
X103557142Y-69428571D01*
%TO.C,C28*%
X107514285Y-69214285D02*
X107485714Y-69242857D01*
X107400000Y-69271428D01*
X107342857Y-69271428D01*
X107257142Y-69242857D01*
X107200000Y-69185714D01*
X107171428Y-69128571D01*
X107142857Y-69014285D01*
X107142857Y-68928571D01*
X107171428Y-68814285D01*
X107200000Y-68757142D01*
X107257142Y-68700000D01*
X107342857Y-68671428D01*
X107400000Y-68671428D01*
X107485714Y-68700000D01*
X107514285Y-68728571D01*
X107742857Y-68728571D02*
X107771428Y-68700000D01*
X107828571Y-68671428D01*
X107971428Y-68671428D01*
X108028571Y-68700000D01*
X108057142Y-68728571D01*
X108085714Y-68785714D01*
X108085714Y-68842857D01*
X108057142Y-68928571D01*
X107714285Y-69271428D01*
X108085714Y-69271428D01*
X108428571Y-68928571D02*
X108371428Y-68900000D01*
X108342857Y-68871428D01*
X108314285Y-68814285D01*
X108314285Y-68785714D01*
X108342857Y-68728571D01*
X108371428Y-68700000D01*
X108428571Y-68671428D01*
X108542857Y-68671428D01*
X108600000Y-68700000D01*
X108628571Y-68728571D01*
X108657142Y-68785714D01*
X108657142Y-68814285D01*
X108628571Y-68871428D01*
X108600000Y-68900000D01*
X108542857Y-68928571D01*
X108428571Y-68928571D01*
X108371428Y-68957142D01*
X108342857Y-68985714D01*
X108314285Y-69042857D01*
X108314285Y-69157142D01*
X108342857Y-69214285D01*
X108371428Y-69242857D01*
X108428571Y-69271428D01*
X108542857Y-69271428D01*
X108600000Y-69242857D01*
X108628571Y-69214285D01*
X108657142Y-69157142D01*
X108657142Y-69042857D01*
X108628571Y-68985714D01*
X108600000Y-68957142D01*
X108542857Y-68928571D01*
%TO.C,C68*%
X131114285Y-76585714D02*
X131142857Y-76614285D01*
X131171428Y-76700000D01*
X131171428Y-76757142D01*
X131142857Y-76842857D01*
X131085714Y-76900000D01*
X131028571Y-76928571D01*
X130914285Y-76957142D01*
X130828571Y-76957142D01*
X130714285Y-76928571D01*
X130657142Y-76900000D01*
X130600000Y-76842857D01*
X130571428Y-76757142D01*
X130571428Y-76700000D01*
X130600000Y-76614285D01*
X130628571Y-76585714D01*
X130571428Y-76071428D02*
X130571428Y-76185714D01*
X130600000Y-76242857D01*
X130628571Y-76271428D01*
X130714285Y-76328571D01*
X130828571Y-76357142D01*
X131057142Y-76357142D01*
X131114285Y-76328571D01*
X131142857Y-76300000D01*
X131171428Y-76242857D01*
X131171428Y-76128571D01*
X131142857Y-76071428D01*
X131114285Y-76042857D01*
X131057142Y-76014285D01*
X130914285Y-76014285D01*
X130857142Y-76042857D01*
X130828571Y-76071428D01*
X130800000Y-76128571D01*
X130800000Y-76242857D01*
X130828571Y-76300000D01*
X130857142Y-76328571D01*
X130914285Y-76357142D01*
X130828571Y-75671428D02*
X130800000Y-75728571D01*
X130771428Y-75757142D01*
X130714285Y-75785714D01*
X130685714Y-75785714D01*
X130628571Y-75757142D01*
X130600000Y-75728571D01*
X130571428Y-75671428D01*
X130571428Y-75557142D01*
X130600000Y-75500000D01*
X130628571Y-75471428D01*
X130685714Y-75442857D01*
X130714285Y-75442857D01*
X130771428Y-75471428D01*
X130800000Y-75500000D01*
X130828571Y-75557142D01*
X130828571Y-75671428D01*
X130857142Y-75728571D01*
X130885714Y-75757142D01*
X130942857Y-75785714D01*
X131057142Y-75785714D01*
X131114285Y-75757142D01*
X131142857Y-75728571D01*
X131171428Y-75671428D01*
X131171428Y-75557142D01*
X131142857Y-75500000D01*
X131114285Y-75471428D01*
X131057142Y-75442857D01*
X130942857Y-75442857D01*
X130885714Y-75471428D01*
X130857142Y-75500000D01*
X130828571Y-75557142D01*
%TO.C,R51*%
X126771428Y-77385714D02*
X126485714Y-77585714D01*
X126771428Y-77728571D02*
X126171428Y-77728571D01*
X126171428Y-77500000D01*
X126200000Y-77442857D01*
X126228571Y-77414285D01*
X126285714Y-77385714D01*
X126371428Y-77385714D01*
X126428571Y-77414285D01*
X126457142Y-77442857D01*
X126485714Y-77500000D01*
X126485714Y-77728571D01*
X126171428Y-76842857D02*
X126171428Y-77128571D01*
X126457142Y-77157142D01*
X126428571Y-77128571D01*
X126400000Y-77071428D01*
X126400000Y-76928571D01*
X126428571Y-76871428D01*
X126457142Y-76842857D01*
X126514285Y-76814285D01*
X126657142Y-76814285D01*
X126714285Y-76842857D01*
X126742857Y-76871428D01*
X126771428Y-76928571D01*
X126771428Y-77071428D01*
X126742857Y-77128571D01*
X126714285Y-77157142D01*
X126771428Y-76242857D02*
X126771428Y-76585714D01*
X126771428Y-76414285D02*
X126171428Y-76414285D01*
X126257142Y-76471428D01*
X126314285Y-76528571D01*
X126342857Y-76585714D01*
%TO.C,C31*%
X112114285Y-73814285D02*
X112085714Y-73842857D01*
X112000000Y-73871428D01*
X111942857Y-73871428D01*
X111857142Y-73842857D01*
X111800000Y-73785714D01*
X111771428Y-73728571D01*
X111742857Y-73614285D01*
X111742857Y-73528571D01*
X111771428Y-73414285D01*
X111800000Y-73357142D01*
X111857142Y-73300000D01*
X111942857Y-73271428D01*
X112000000Y-73271428D01*
X112085714Y-73300000D01*
X112114285Y-73328571D01*
X112314285Y-73271428D02*
X112685714Y-73271428D01*
X112485714Y-73500000D01*
X112571428Y-73500000D01*
X112628571Y-73528571D01*
X112657142Y-73557142D01*
X112685714Y-73614285D01*
X112685714Y-73757142D01*
X112657142Y-73814285D01*
X112628571Y-73842857D01*
X112571428Y-73871428D01*
X112400000Y-73871428D01*
X112342857Y-73842857D01*
X112314285Y-73814285D01*
X113257142Y-73871428D02*
X112914285Y-73871428D01*
X113085714Y-73871428D02*
X113085714Y-73271428D01*
X113028571Y-73357142D01*
X112971428Y-73414285D01*
X112914285Y-73442857D01*
%TO.C,D10*%
X148271428Y-70128571D02*
X147671428Y-70128571D01*
X147671428Y-69985714D01*
X147700000Y-69900000D01*
X147757142Y-69842857D01*
X147814285Y-69814285D01*
X147928571Y-69785714D01*
X148014285Y-69785714D01*
X148128571Y-69814285D01*
X148185714Y-69842857D01*
X148242857Y-69900000D01*
X148271428Y-69985714D01*
X148271428Y-70128571D01*
X148271428Y-69214285D02*
X148271428Y-69557142D01*
X148271428Y-69385714D02*
X147671428Y-69385714D01*
X147757142Y-69442857D01*
X147814285Y-69500000D01*
X147842857Y-69557142D01*
X147671428Y-68842857D02*
X147671428Y-68785714D01*
X147700000Y-68728571D01*
X147728571Y-68700000D01*
X147785714Y-68671428D01*
X147900000Y-68642857D01*
X148042857Y-68642857D01*
X148157142Y-68671428D01*
X148214285Y-68700000D01*
X148242857Y-68728571D01*
X148271428Y-68785714D01*
X148271428Y-68842857D01*
X148242857Y-68900000D01*
X148214285Y-68928571D01*
X148157142Y-68957142D01*
X148042857Y-68985714D01*
X147900000Y-68985714D01*
X147785714Y-68957142D01*
X147728571Y-68928571D01*
X147700000Y-68900000D01*
X147671428Y-68842857D01*
%TO.C,C40*%
X140764285Y-67785714D02*
X140792857Y-67814285D01*
X140821428Y-67900000D01*
X140821428Y-67957142D01*
X140792857Y-68042857D01*
X140735714Y-68100000D01*
X140678571Y-68128571D01*
X140564285Y-68157142D01*
X140478571Y-68157142D01*
X140364285Y-68128571D01*
X140307142Y-68100000D01*
X140250000Y-68042857D01*
X140221428Y-67957142D01*
X140221428Y-67900000D01*
X140250000Y-67814285D01*
X140278571Y-67785714D01*
X140421428Y-67271428D02*
X140821428Y-67271428D01*
X140192857Y-67414285D02*
X140621428Y-67557142D01*
X140621428Y-67185714D01*
X140221428Y-66842857D02*
X140221428Y-66785714D01*
X140250000Y-66728571D01*
X140278571Y-66700000D01*
X140335714Y-66671428D01*
X140450000Y-66642857D01*
X140592857Y-66642857D01*
X140707142Y-66671428D01*
X140764285Y-66700000D01*
X140792857Y-66728571D01*
X140821428Y-66785714D01*
X140821428Y-66842857D01*
X140792857Y-66900000D01*
X140764285Y-66928571D01*
X140707142Y-66957142D01*
X140592857Y-66985714D01*
X140450000Y-66985714D01*
X140335714Y-66957142D01*
X140278571Y-66928571D01*
X140250000Y-66900000D01*
X140221428Y-66842857D01*
%TO.C,C38*%
X137114285Y-70085714D02*
X137142857Y-70114285D01*
X137171428Y-70200000D01*
X137171428Y-70257142D01*
X137142857Y-70342857D01*
X137085714Y-70400000D01*
X137028571Y-70428571D01*
X136914285Y-70457142D01*
X136828571Y-70457142D01*
X136714285Y-70428571D01*
X136657142Y-70400000D01*
X136600000Y-70342857D01*
X136571428Y-70257142D01*
X136571428Y-70200000D01*
X136600000Y-70114285D01*
X136628571Y-70085714D01*
X136571428Y-69885714D02*
X136571428Y-69514285D01*
X136800000Y-69714285D01*
X136800000Y-69628571D01*
X136828571Y-69571428D01*
X136857142Y-69542857D01*
X136914285Y-69514285D01*
X137057142Y-69514285D01*
X137114285Y-69542857D01*
X137142857Y-69571428D01*
X137171428Y-69628571D01*
X137171428Y-69800000D01*
X137142857Y-69857142D01*
X137114285Y-69885714D01*
X136828571Y-69171428D02*
X136800000Y-69228571D01*
X136771428Y-69257142D01*
X136714285Y-69285714D01*
X136685714Y-69285714D01*
X136628571Y-69257142D01*
X136600000Y-69228571D01*
X136571428Y-69171428D01*
X136571428Y-69057142D01*
X136600000Y-69000000D01*
X136628571Y-68971428D01*
X136685714Y-68942857D01*
X136714285Y-68942857D01*
X136771428Y-68971428D01*
X136800000Y-69000000D01*
X136828571Y-69057142D01*
X136828571Y-69171428D01*
X136857142Y-69228571D01*
X136885714Y-69257142D01*
X136942857Y-69285714D01*
X137057142Y-69285714D01*
X137114285Y-69257142D01*
X137142857Y-69228571D01*
X137171428Y-69171428D01*
X137171428Y-69057142D01*
X137142857Y-69000000D01*
X137114285Y-68971428D01*
X137057142Y-68942857D01*
X136942857Y-68942857D01*
X136885714Y-68971428D01*
X136857142Y-69000000D01*
X136828571Y-69057142D01*
%TO.C,J6*%
X124800000Y-93371428D02*
X124800000Y-93800000D01*
X124771428Y-93885714D01*
X124714285Y-93942857D01*
X124628571Y-93971428D01*
X124571428Y-93971428D01*
X125342857Y-93371428D02*
X125228571Y-93371428D01*
X125171428Y-93400000D01*
X125142857Y-93428571D01*
X125085714Y-93514285D01*
X125057142Y-93628571D01*
X125057142Y-93857142D01*
X125085714Y-93914285D01*
X125114285Y-93942857D01*
X125171428Y-93971428D01*
X125285714Y-93971428D01*
X125342857Y-93942857D01*
X125371428Y-93914285D01*
X125400000Y-93857142D01*
X125400000Y-93714285D01*
X125371428Y-93657142D01*
X125342857Y-93628571D01*
X125285714Y-93600000D01*
X125171428Y-93600000D01*
X125114285Y-93628571D01*
X125085714Y-93657142D01*
X125057142Y-93714285D01*
%TO.C,R39*%
X116214285Y-81371428D02*
X116014285Y-81085714D01*
X115871428Y-81371428D02*
X115871428Y-80771428D01*
X116100000Y-80771428D01*
X116157142Y-80800000D01*
X116185714Y-80828571D01*
X116214285Y-80885714D01*
X116214285Y-80971428D01*
X116185714Y-81028571D01*
X116157142Y-81057142D01*
X116100000Y-81085714D01*
X115871428Y-81085714D01*
X116414285Y-80771428D02*
X116785714Y-80771428D01*
X116585714Y-81000000D01*
X116671428Y-81000000D01*
X116728571Y-81028571D01*
X116757142Y-81057142D01*
X116785714Y-81114285D01*
X116785714Y-81257142D01*
X116757142Y-81314285D01*
X116728571Y-81342857D01*
X116671428Y-81371428D01*
X116500000Y-81371428D01*
X116442857Y-81342857D01*
X116414285Y-81314285D01*
X117071428Y-81371428D02*
X117185714Y-81371428D01*
X117242857Y-81342857D01*
X117271428Y-81314285D01*
X117328571Y-81228571D01*
X117357142Y-81114285D01*
X117357142Y-80885714D01*
X117328571Y-80828571D01*
X117300000Y-80800000D01*
X117242857Y-80771428D01*
X117128571Y-80771428D01*
X117071428Y-80800000D01*
X117042857Y-80828571D01*
X117014285Y-80885714D01*
X117014285Y-81028571D01*
X117042857Y-81085714D01*
X117071428Y-81114285D01*
X117128571Y-81142857D01*
X117242857Y-81142857D01*
X117300000Y-81114285D01*
X117328571Y-81085714D01*
X117357142Y-81028571D01*
%TO.C,C36*%
X108614285Y-77714285D02*
X108585714Y-77742857D01*
X108500000Y-77771428D01*
X108442857Y-77771428D01*
X108357142Y-77742857D01*
X108300000Y-77685714D01*
X108271428Y-77628571D01*
X108242857Y-77514285D01*
X108242857Y-77428571D01*
X108271428Y-77314285D01*
X108300000Y-77257142D01*
X108357142Y-77200000D01*
X108442857Y-77171428D01*
X108500000Y-77171428D01*
X108585714Y-77200000D01*
X108614285Y-77228571D01*
X108814285Y-77171428D02*
X109185714Y-77171428D01*
X108985714Y-77400000D01*
X109071428Y-77400000D01*
X109128571Y-77428571D01*
X109157142Y-77457142D01*
X109185714Y-77514285D01*
X109185714Y-77657142D01*
X109157142Y-77714285D01*
X109128571Y-77742857D01*
X109071428Y-77771428D01*
X108900000Y-77771428D01*
X108842857Y-77742857D01*
X108814285Y-77714285D01*
X109700000Y-77171428D02*
X109585714Y-77171428D01*
X109528571Y-77200000D01*
X109500000Y-77228571D01*
X109442857Y-77314285D01*
X109414285Y-77428571D01*
X109414285Y-77657142D01*
X109442857Y-77714285D01*
X109471428Y-77742857D01*
X109528571Y-77771428D01*
X109642857Y-77771428D01*
X109700000Y-77742857D01*
X109728571Y-77714285D01*
X109757142Y-77657142D01*
X109757142Y-77514285D01*
X109728571Y-77457142D01*
X109700000Y-77428571D01*
X109642857Y-77400000D01*
X109528571Y-77400000D01*
X109471428Y-77428571D01*
X109442857Y-77457142D01*
X109414285Y-77514285D01*
%TO.C,C30*%
X103614285Y-75414285D02*
X103585714Y-75442857D01*
X103500000Y-75471428D01*
X103442857Y-75471428D01*
X103357142Y-75442857D01*
X103300000Y-75385714D01*
X103271428Y-75328571D01*
X103242857Y-75214285D01*
X103242857Y-75128571D01*
X103271428Y-75014285D01*
X103300000Y-74957142D01*
X103357142Y-74900000D01*
X103442857Y-74871428D01*
X103500000Y-74871428D01*
X103585714Y-74900000D01*
X103614285Y-74928571D01*
X103814285Y-74871428D02*
X104185714Y-74871428D01*
X103985714Y-75100000D01*
X104071428Y-75100000D01*
X104128571Y-75128571D01*
X104157142Y-75157142D01*
X104185714Y-75214285D01*
X104185714Y-75357142D01*
X104157142Y-75414285D01*
X104128571Y-75442857D01*
X104071428Y-75471428D01*
X103900000Y-75471428D01*
X103842857Y-75442857D01*
X103814285Y-75414285D01*
X104557142Y-74871428D02*
X104614285Y-74871428D01*
X104671428Y-74900000D01*
X104700000Y-74928571D01*
X104728571Y-74985714D01*
X104757142Y-75100000D01*
X104757142Y-75242857D01*
X104728571Y-75357142D01*
X104700000Y-75414285D01*
X104671428Y-75442857D01*
X104614285Y-75471428D01*
X104557142Y-75471428D01*
X104500000Y-75442857D01*
X104471428Y-75414285D01*
X104442857Y-75357142D01*
X104414285Y-75242857D01*
X104414285Y-75100000D01*
X104442857Y-74985714D01*
X104471428Y-74928571D01*
X104500000Y-74900000D01*
X104557142Y-74871428D01*
%TO.C,C32*%
X104114285Y-77714285D02*
X104085714Y-77742857D01*
X104000000Y-77771428D01*
X103942857Y-77771428D01*
X103857142Y-77742857D01*
X103800000Y-77685714D01*
X103771428Y-77628571D01*
X103742857Y-77514285D01*
X103742857Y-77428571D01*
X103771428Y-77314285D01*
X103800000Y-77257142D01*
X103857142Y-77200000D01*
X103942857Y-77171428D01*
X104000000Y-77171428D01*
X104085714Y-77200000D01*
X104114285Y-77228571D01*
X104314285Y-77171428D02*
X104685714Y-77171428D01*
X104485714Y-77400000D01*
X104571428Y-77400000D01*
X104628571Y-77428571D01*
X104657142Y-77457142D01*
X104685714Y-77514285D01*
X104685714Y-77657142D01*
X104657142Y-77714285D01*
X104628571Y-77742857D01*
X104571428Y-77771428D01*
X104400000Y-77771428D01*
X104342857Y-77742857D01*
X104314285Y-77714285D01*
X104914285Y-77228571D02*
X104942857Y-77200000D01*
X105000000Y-77171428D01*
X105142857Y-77171428D01*
X105200000Y-77200000D01*
X105228571Y-77228571D01*
X105257142Y-77285714D01*
X105257142Y-77342857D01*
X105228571Y-77428571D01*
X104885714Y-77771428D01*
X105257142Y-77771428D01*
%TO.C,R32*%
X109314285Y-81371428D02*
X109114285Y-81085714D01*
X108971428Y-81371428D02*
X108971428Y-80771428D01*
X109200000Y-80771428D01*
X109257142Y-80800000D01*
X109285714Y-80828571D01*
X109314285Y-80885714D01*
X109314285Y-80971428D01*
X109285714Y-81028571D01*
X109257142Y-81057142D01*
X109200000Y-81085714D01*
X108971428Y-81085714D01*
X109514285Y-80771428D02*
X109885714Y-80771428D01*
X109685714Y-81000000D01*
X109771428Y-81000000D01*
X109828571Y-81028571D01*
X109857142Y-81057142D01*
X109885714Y-81114285D01*
X109885714Y-81257142D01*
X109857142Y-81314285D01*
X109828571Y-81342857D01*
X109771428Y-81371428D01*
X109600000Y-81371428D01*
X109542857Y-81342857D01*
X109514285Y-81314285D01*
X110114285Y-80828571D02*
X110142857Y-80800000D01*
X110200000Y-80771428D01*
X110342857Y-80771428D01*
X110400000Y-80800000D01*
X110428571Y-80828571D01*
X110457142Y-80885714D01*
X110457142Y-80942857D01*
X110428571Y-81028571D01*
X110085714Y-81371428D01*
X110457142Y-81371428D01*
%TO.C,R42*%
X147371428Y-77785714D02*
X147085714Y-77985714D01*
X147371428Y-78128571D02*
X146771428Y-78128571D01*
X146771428Y-77900000D01*
X146800000Y-77842857D01*
X146828571Y-77814285D01*
X146885714Y-77785714D01*
X146971428Y-77785714D01*
X147028571Y-77814285D01*
X147057142Y-77842857D01*
X147085714Y-77900000D01*
X147085714Y-78128571D01*
X146971428Y-77271428D02*
X147371428Y-77271428D01*
X146742857Y-77414285D02*
X147171428Y-77557142D01*
X147171428Y-77185714D01*
X146828571Y-76985714D02*
X146800000Y-76957142D01*
X146771428Y-76900000D01*
X146771428Y-76757142D01*
X146800000Y-76700000D01*
X146828571Y-76671428D01*
X146885714Y-76642857D01*
X146942857Y-76642857D01*
X147028571Y-76671428D01*
X147371428Y-77014285D01*
X147371428Y-76642857D01*
%TO.C,R34*%
X113171428Y-77285714D02*
X112885714Y-77485714D01*
X113171428Y-77628571D02*
X112571428Y-77628571D01*
X112571428Y-77400000D01*
X112600000Y-77342857D01*
X112628571Y-77314285D01*
X112685714Y-77285714D01*
X112771428Y-77285714D01*
X112828571Y-77314285D01*
X112857142Y-77342857D01*
X112885714Y-77400000D01*
X112885714Y-77628571D01*
X112571428Y-77085714D02*
X112571428Y-76714285D01*
X112800000Y-76914285D01*
X112800000Y-76828571D01*
X112828571Y-76771428D01*
X112857142Y-76742857D01*
X112914285Y-76714285D01*
X113057142Y-76714285D01*
X113114285Y-76742857D01*
X113142857Y-76771428D01*
X113171428Y-76828571D01*
X113171428Y-77000000D01*
X113142857Y-77057142D01*
X113114285Y-77085714D01*
X112771428Y-76200000D02*
X113171428Y-76200000D01*
X112542857Y-76342857D02*
X112971428Y-76485714D01*
X112971428Y-76114285D01*
%TO.C,J10*%
X111214285Y-96096428D02*
X111214285Y-96525000D01*
X111185714Y-96610714D01*
X111128571Y-96667857D01*
X111042857Y-96696428D01*
X110985714Y-96696428D01*
X111814285Y-96696428D02*
X111471428Y-96696428D01*
X111642857Y-96696428D02*
X111642857Y-96096428D01*
X111585714Y-96182142D01*
X111528571Y-96239285D01*
X111471428Y-96267857D01*
X112185714Y-96096428D02*
X112242857Y-96096428D01*
X112300000Y-96125000D01*
X112328571Y-96153571D01*
X112357142Y-96210714D01*
X112385714Y-96325000D01*
X112385714Y-96467857D01*
X112357142Y-96582142D01*
X112328571Y-96639285D01*
X112300000Y-96667857D01*
X112242857Y-96696428D01*
X112185714Y-96696428D01*
X112128571Y-96667857D01*
X112100000Y-96639285D01*
X112071428Y-96582142D01*
X112042857Y-96467857D01*
X112042857Y-96325000D01*
X112071428Y-96210714D01*
X112100000Y-96153571D01*
X112128571Y-96125000D01*
X112185714Y-96096428D01*
%TO.C,R54*%
X121471428Y-80985714D02*
X121185714Y-81185714D01*
X121471428Y-81328571D02*
X120871428Y-81328571D01*
X120871428Y-81100000D01*
X120900000Y-81042857D01*
X120928571Y-81014285D01*
X120985714Y-80985714D01*
X121071428Y-80985714D01*
X121128571Y-81014285D01*
X121157142Y-81042857D01*
X121185714Y-81100000D01*
X121185714Y-81328571D01*
X120871428Y-80442857D02*
X120871428Y-80728571D01*
X121157142Y-80757142D01*
X121128571Y-80728571D01*
X121100000Y-80671428D01*
X121100000Y-80528571D01*
X121128571Y-80471428D01*
X121157142Y-80442857D01*
X121214285Y-80414285D01*
X121357142Y-80414285D01*
X121414285Y-80442857D01*
X121442857Y-80471428D01*
X121471428Y-80528571D01*
X121471428Y-80671428D01*
X121442857Y-80728571D01*
X121414285Y-80757142D01*
X121071428Y-79900000D02*
X121471428Y-79900000D01*
X120842857Y-80042857D02*
X121271428Y-80185714D01*
X121271428Y-79814285D01*
%TO.C,FB1*%
X127957142Y-75800000D02*
X127957142Y-76000000D01*
X128271428Y-76000000D02*
X127671428Y-76000000D01*
X127671428Y-75714285D01*
X127957142Y-75285714D02*
X127985714Y-75200000D01*
X128014285Y-75171428D01*
X128071428Y-75142857D01*
X128157142Y-75142857D01*
X128214285Y-75171428D01*
X128242857Y-75200000D01*
X128271428Y-75257142D01*
X128271428Y-75485714D01*
X127671428Y-75485714D01*
X127671428Y-75285714D01*
X127700000Y-75228571D01*
X127728571Y-75200000D01*
X127785714Y-75171428D01*
X127842857Y-75171428D01*
X127900000Y-75200000D01*
X127928571Y-75228571D01*
X127957142Y-75285714D01*
X127957142Y-75485714D01*
X128271428Y-74571428D02*
X128271428Y-74914285D01*
X128271428Y-74742857D02*
X127671428Y-74742857D01*
X127757142Y-74800000D01*
X127814285Y-74857142D01*
X127842857Y-74914285D01*
%TO.C,FB2*%
X129457142Y-75800000D02*
X129457142Y-76000000D01*
X129771428Y-76000000D02*
X129171428Y-76000000D01*
X129171428Y-75714285D01*
X129457142Y-75285714D02*
X129485714Y-75200000D01*
X129514285Y-75171428D01*
X129571428Y-75142857D01*
X129657142Y-75142857D01*
X129714285Y-75171428D01*
X129742857Y-75200000D01*
X129771428Y-75257142D01*
X129771428Y-75485714D01*
X129171428Y-75485714D01*
X129171428Y-75285714D01*
X129200000Y-75228571D01*
X129228571Y-75200000D01*
X129285714Y-75171428D01*
X129342857Y-75171428D01*
X129400000Y-75200000D01*
X129428571Y-75228571D01*
X129457142Y-75285714D01*
X129457142Y-75485714D01*
X129228571Y-74914285D02*
X129200000Y-74885714D01*
X129171428Y-74828571D01*
X129171428Y-74685714D01*
X129200000Y-74628571D01*
X129228571Y-74600000D01*
X129285714Y-74571428D01*
X129342857Y-74571428D01*
X129428571Y-74600000D01*
X129771428Y-74942857D01*
X129771428Y-74571428D01*
%TO.C,R29*%
X132614285Y-52171428D02*
X132414285Y-51885714D01*
X132271428Y-52171428D02*
X132271428Y-51571428D01*
X132500000Y-51571428D01*
X132557142Y-51600000D01*
X132585714Y-51628571D01*
X132614285Y-51685714D01*
X132614285Y-51771428D01*
X132585714Y-51828571D01*
X132557142Y-51857142D01*
X132500000Y-51885714D01*
X132271428Y-51885714D01*
X132842857Y-51628571D02*
X132871428Y-51600000D01*
X132928571Y-51571428D01*
X133071428Y-51571428D01*
X133128571Y-51600000D01*
X133157142Y-51628571D01*
X133185714Y-51685714D01*
X133185714Y-51742857D01*
X133157142Y-51828571D01*
X132814285Y-52171428D01*
X133185714Y-52171428D01*
X133471428Y-52171428D02*
X133585714Y-52171428D01*
X133642857Y-52142857D01*
X133671428Y-52114285D01*
X133728571Y-52028571D01*
X133757142Y-51914285D01*
X133757142Y-51685714D01*
X133728571Y-51628571D01*
X133700000Y-51600000D01*
X133642857Y-51571428D01*
X133528571Y-51571428D01*
X133471428Y-51600000D01*
X133442857Y-51628571D01*
X133414285Y-51685714D01*
X133414285Y-51828571D01*
X133442857Y-51885714D01*
X133471428Y-51914285D01*
X133528571Y-51942857D01*
X133642857Y-51942857D01*
X133700000Y-51914285D01*
X133728571Y-51885714D01*
X133757142Y-51828571D01*
%TO.C,C14*%
X134714285Y-56514285D02*
X134685714Y-56542857D01*
X134600000Y-56571428D01*
X134542857Y-56571428D01*
X134457142Y-56542857D01*
X134400000Y-56485714D01*
X134371428Y-56428571D01*
X134342857Y-56314285D01*
X134342857Y-56228571D01*
X134371428Y-56114285D01*
X134400000Y-56057142D01*
X134457142Y-56000000D01*
X134542857Y-55971428D01*
X134600000Y-55971428D01*
X134685714Y-56000000D01*
X134714285Y-56028571D01*
X135285714Y-56571428D02*
X134942857Y-56571428D01*
X135114285Y-56571428D02*
X135114285Y-55971428D01*
X135057142Y-56057142D01*
X135000000Y-56114285D01*
X134942857Y-56142857D01*
X135800000Y-56171428D02*
X135800000Y-56571428D01*
X135657142Y-55942857D02*
X135514285Y-56371428D01*
X135885714Y-56371428D01*
%TO.C,R33*%
X112371428Y-77785714D02*
X112085714Y-77985714D01*
X112371428Y-78128571D02*
X111771428Y-78128571D01*
X111771428Y-77900000D01*
X111800000Y-77842857D01*
X111828571Y-77814285D01*
X111885714Y-77785714D01*
X111971428Y-77785714D01*
X112028571Y-77814285D01*
X112057142Y-77842857D01*
X112085714Y-77900000D01*
X112085714Y-78128571D01*
X111771428Y-77585714D02*
X111771428Y-77214285D01*
X112000000Y-77414285D01*
X112000000Y-77328571D01*
X112028571Y-77271428D01*
X112057142Y-77242857D01*
X112114285Y-77214285D01*
X112257142Y-77214285D01*
X112314285Y-77242857D01*
X112342857Y-77271428D01*
X112371428Y-77328571D01*
X112371428Y-77500000D01*
X112342857Y-77557142D01*
X112314285Y-77585714D01*
X111771428Y-77014285D02*
X111771428Y-76642857D01*
X112000000Y-76842857D01*
X112000000Y-76757142D01*
X112028571Y-76700000D01*
X112057142Y-76671428D01*
X112114285Y-76642857D01*
X112257142Y-76642857D01*
X112314285Y-76671428D01*
X112342857Y-76700000D01*
X112371428Y-76757142D01*
X112371428Y-76928571D01*
X112342857Y-76985714D01*
X112314285Y-77014285D01*
%TO.C,R43*%
X148171428Y-77285714D02*
X147885714Y-77485714D01*
X148171428Y-77628571D02*
X147571428Y-77628571D01*
X147571428Y-77400000D01*
X147600000Y-77342857D01*
X147628571Y-77314285D01*
X147685714Y-77285714D01*
X147771428Y-77285714D01*
X147828571Y-77314285D01*
X147857142Y-77342857D01*
X147885714Y-77400000D01*
X147885714Y-77628571D01*
X147771428Y-76771428D02*
X148171428Y-76771428D01*
X147542857Y-76914285D02*
X147971428Y-77057142D01*
X147971428Y-76685714D01*
X147571428Y-76514285D02*
X147571428Y-76142857D01*
X147800000Y-76342857D01*
X147800000Y-76257142D01*
X147828571Y-76200000D01*
X147857142Y-76171428D01*
X147914285Y-76142857D01*
X148057142Y-76142857D01*
X148114285Y-76171428D01*
X148142857Y-76200000D01*
X148171428Y-76257142D01*
X148171428Y-76428571D01*
X148142857Y-76485714D01*
X148114285Y-76514285D01*
%TO.C,R35*%
X113971428Y-76785714D02*
X113685714Y-76985714D01*
X113971428Y-77128571D02*
X113371428Y-77128571D01*
X113371428Y-76900000D01*
X113400000Y-76842857D01*
X113428571Y-76814285D01*
X113485714Y-76785714D01*
X113571428Y-76785714D01*
X113628571Y-76814285D01*
X113657142Y-76842857D01*
X113685714Y-76900000D01*
X113685714Y-77128571D01*
X113371428Y-76585714D02*
X113371428Y-76214285D01*
X113600000Y-76414285D01*
X113600000Y-76328571D01*
X113628571Y-76271428D01*
X113657142Y-76242857D01*
X113714285Y-76214285D01*
X113857142Y-76214285D01*
X113914285Y-76242857D01*
X113942857Y-76271428D01*
X113971428Y-76328571D01*
X113971428Y-76500000D01*
X113942857Y-76557142D01*
X113914285Y-76585714D01*
X113371428Y-75671428D02*
X113371428Y-75957142D01*
X113657142Y-75985714D01*
X113628571Y-75957142D01*
X113600000Y-75900000D01*
X113600000Y-75757142D01*
X113628571Y-75700000D01*
X113657142Y-75671428D01*
X113714285Y-75642857D01*
X113857142Y-75642857D01*
X113914285Y-75671428D01*
X113942857Y-75700000D01*
X113971428Y-75757142D01*
X113971428Y-75900000D01*
X113942857Y-75957142D01*
X113914285Y-75985714D01*
%TO.C,R19*%
X141314285Y-57471428D02*
X141114285Y-57185714D01*
X140971428Y-57471428D02*
X140971428Y-56871428D01*
X141200000Y-56871428D01*
X141257142Y-56900000D01*
X141285714Y-56928571D01*
X141314285Y-56985714D01*
X141314285Y-57071428D01*
X141285714Y-57128571D01*
X141257142Y-57157142D01*
X141200000Y-57185714D01*
X140971428Y-57185714D01*
X141885714Y-57471428D02*
X141542857Y-57471428D01*
X141714285Y-57471428D02*
X141714285Y-56871428D01*
X141657142Y-56957142D01*
X141600000Y-57014285D01*
X141542857Y-57042857D01*
X142171428Y-57471428D02*
X142285714Y-57471428D01*
X142342857Y-57442857D01*
X142371428Y-57414285D01*
X142428571Y-57328571D01*
X142457142Y-57214285D01*
X142457142Y-56985714D01*
X142428571Y-56928571D01*
X142400000Y-56900000D01*
X142342857Y-56871428D01*
X142228571Y-56871428D01*
X142171428Y-56900000D01*
X142142857Y-56928571D01*
X142114285Y-56985714D01*
X142114285Y-57128571D01*
X142142857Y-57185714D01*
X142171428Y-57214285D01*
X142228571Y-57242857D01*
X142342857Y-57242857D01*
X142400000Y-57214285D01*
X142428571Y-57185714D01*
X142457142Y-57128571D01*
%TO.C,R31*%
X102614285Y-81371428D02*
X102414285Y-81085714D01*
X102271428Y-81371428D02*
X102271428Y-80771428D01*
X102500000Y-80771428D01*
X102557142Y-80800000D01*
X102585714Y-80828571D01*
X102614285Y-80885714D01*
X102614285Y-80971428D01*
X102585714Y-81028571D01*
X102557142Y-81057142D01*
X102500000Y-81085714D01*
X102271428Y-81085714D01*
X102814285Y-80771428D02*
X103185714Y-80771428D01*
X102985714Y-81000000D01*
X103071428Y-81000000D01*
X103128571Y-81028571D01*
X103157142Y-81057142D01*
X103185714Y-81114285D01*
X103185714Y-81257142D01*
X103157142Y-81314285D01*
X103128571Y-81342857D01*
X103071428Y-81371428D01*
X102900000Y-81371428D01*
X102842857Y-81342857D01*
X102814285Y-81314285D01*
X103757142Y-81371428D02*
X103414285Y-81371428D01*
X103585714Y-81371428D02*
X103585714Y-80771428D01*
X103528571Y-80857142D01*
X103471428Y-80914285D01*
X103414285Y-80942857D01*
%TO.C,J5*%
X148250000Y-57421428D02*
X148250000Y-57850000D01*
X148221428Y-57935714D01*
X148164285Y-57992857D01*
X148078571Y-58021428D01*
X148021428Y-58021428D01*
X148821428Y-57421428D02*
X148535714Y-57421428D01*
X148507142Y-57707142D01*
X148535714Y-57678571D01*
X148592857Y-57650000D01*
X148735714Y-57650000D01*
X148792857Y-57678571D01*
X148821428Y-57707142D01*
X148850000Y-57764285D01*
X148850000Y-57907142D01*
X148821428Y-57964285D01*
X148792857Y-57992857D01*
X148735714Y-58021428D01*
X148592857Y-58021428D01*
X148535714Y-57992857D01*
X148507142Y-57964285D01*
%TO.C,R47*%
X145814285Y-81371428D02*
X145614285Y-81085714D01*
X145471428Y-81371428D02*
X145471428Y-80771428D01*
X145700000Y-80771428D01*
X145757142Y-80800000D01*
X145785714Y-80828571D01*
X145814285Y-80885714D01*
X145814285Y-80971428D01*
X145785714Y-81028571D01*
X145757142Y-81057142D01*
X145700000Y-81085714D01*
X145471428Y-81085714D01*
X146328571Y-80971428D02*
X146328571Y-81371428D01*
X146185714Y-80742857D02*
X146042857Y-81171428D01*
X146414285Y-81171428D01*
X146585714Y-80771428D02*
X146985714Y-80771428D01*
X146728571Y-81371428D01*
%TO.C,U9*%
X107542857Y-73171428D02*
X107542857Y-73657142D01*
X107571428Y-73714285D01*
X107600000Y-73742857D01*
X107657142Y-73771428D01*
X107771428Y-73771428D01*
X107828571Y-73742857D01*
X107857142Y-73714285D01*
X107885714Y-73657142D01*
X107885714Y-73171428D01*
X108200000Y-73771428D02*
X108314285Y-73771428D01*
X108371428Y-73742857D01*
X108400000Y-73714285D01*
X108457142Y-73628571D01*
X108485714Y-73514285D01*
X108485714Y-73285714D01*
X108457142Y-73228571D01*
X108428571Y-73200000D01*
X108371428Y-73171428D01*
X108257142Y-73171428D01*
X108200000Y-73200000D01*
X108171428Y-73228571D01*
X108142857Y-73285714D01*
X108142857Y-73428571D01*
X108171428Y-73485714D01*
X108200000Y-73514285D01*
X108257142Y-73542857D01*
X108371428Y-73542857D01*
X108428571Y-73514285D01*
X108457142Y-73485714D01*
X108485714Y-73428571D01*
%TO.C,U10*%
X142257142Y-73171428D02*
X142257142Y-73657142D01*
X142285714Y-73714285D01*
X142314285Y-73742857D01*
X142371428Y-73771428D01*
X142485714Y-73771428D01*
X142542857Y-73742857D01*
X142571428Y-73714285D01*
X142600000Y-73657142D01*
X142600000Y-73171428D01*
X143200000Y-73771428D02*
X142857142Y-73771428D01*
X143028571Y-73771428D02*
X143028571Y-73171428D01*
X142971428Y-73257142D01*
X142914285Y-73314285D01*
X142857142Y-73342857D01*
X143571428Y-73171428D02*
X143628571Y-73171428D01*
X143685714Y-73200000D01*
X143714285Y-73228571D01*
X143742857Y-73285714D01*
X143771428Y-73400000D01*
X143771428Y-73542857D01*
X143742857Y-73657142D01*
X143714285Y-73714285D01*
X143685714Y-73742857D01*
X143628571Y-73771428D01*
X143571428Y-73771428D01*
X143514285Y-73742857D01*
X143485714Y-73714285D01*
X143457142Y-73657142D01*
X143428571Y-73542857D01*
X143428571Y-73400000D01*
X143457142Y-73285714D01*
X143485714Y-73228571D01*
X143514285Y-73200000D01*
X143571428Y-73171428D01*
%TO.C,R18*%
X141314285Y-58871428D02*
X141114285Y-58585714D01*
X140971428Y-58871428D02*
X140971428Y-58271428D01*
X141200000Y-58271428D01*
X141257142Y-58300000D01*
X141285714Y-58328571D01*
X141314285Y-58385714D01*
X141314285Y-58471428D01*
X141285714Y-58528571D01*
X141257142Y-58557142D01*
X141200000Y-58585714D01*
X140971428Y-58585714D01*
X141885714Y-58871428D02*
X141542857Y-58871428D01*
X141714285Y-58871428D02*
X141714285Y-58271428D01*
X141657142Y-58357142D01*
X141600000Y-58414285D01*
X141542857Y-58442857D01*
X142228571Y-58528571D02*
X142171428Y-58500000D01*
X142142857Y-58471428D01*
X142114285Y-58414285D01*
X142114285Y-58385714D01*
X142142857Y-58328571D01*
X142171428Y-58300000D01*
X142228571Y-58271428D01*
X142342857Y-58271428D01*
X142400000Y-58300000D01*
X142428571Y-58328571D01*
X142457142Y-58385714D01*
X142457142Y-58414285D01*
X142428571Y-58471428D01*
X142400000Y-58500000D01*
X142342857Y-58528571D01*
X142228571Y-58528571D01*
X142171428Y-58557142D01*
X142142857Y-58585714D01*
X142114285Y-58642857D01*
X142114285Y-58757142D01*
X142142857Y-58814285D01*
X142171428Y-58842857D01*
X142228571Y-58871428D01*
X142342857Y-58871428D01*
X142400000Y-58842857D01*
X142428571Y-58814285D01*
X142457142Y-58757142D01*
X142457142Y-58642857D01*
X142428571Y-58585714D01*
X142400000Y-58557142D01*
X142342857Y-58528571D01*
%TO.C,Q2*%
X103342857Y-85928571D02*
X103285714Y-85900000D01*
X103228571Y-85842857D01*
X103142857Y-85757142D01*
X103085714Y-85728571D01*
X103028571Y-85728571D01*
X103057142Y-85871428D02*
X103000000Y-85842857D01*
X102942857Y-85785714D01*
X102914285Y-85671428D01*
X102914285Y-85471428D01*
X102942857Y-85357142D01*
X103000000Y-85300000D01*
X103057142Y-85271428D01*
X103171428Y-85271428D01*
X103228571Y-85300000D01*
X103285714Y-85357142D01*
X103314285Y-85471428D01*
X103314285Y-85671428D01*
X103285714Y-85785714D01*
X103228571Y-85842857D01*
X103171428Y-85871428D01*
X103057142Y-85871428D01*
X103542857Y-85328571D02*
X103571428Y-85300000D01*
X103628571Y-85271428D01*
X103771428Y-85271428D01*
X103828571Y-85300000D01*
X103857142Y-85328571D01*
X103885714Y-85385714D01*
X103885714Y-85442857D01*
X103857142Y-85528571D01*
X103514285Y-85871428D01*
X103885714Y-85871428D01*
%TO.C,Q3*%
X110142857Y-85928571D02*
X110085714Y-85900000D01*
X110028571Y-85842857D01*
X109942857Y-85757142D01*
X109885714Y-85728571D01*
X109828571Y-85728571D01*
X109857142Y-85871428D02*
X109800000Y-85842857D01*
X109742857Y-85785714D01*
X109714285Y-85671428D01*
X109714285Y-85471428D01*
X109742857Y-85357142D01*
X109800000Y-85300000D01*
X109857142Y-85271428D01*
X109971428Y-85271428D01*
X110028571Y-85300000D01*
X110085714Y-85357142D01*
X110114285Y-85471428D01*
X110114285Y-85671428D01*
X110085714Y-85785714D01*
X110028571Y-85842857D01*
X109971428Y-85871428D01*
X109857142Y-85871428D01*
X110314285Y-85271428D02*
X110685714Y-85271428D01*
X110485714Y-85500000D01*
X110571428Y-85500000D01*
X110628571Y-85528571D01*
X110657142Y-85557142D01*
X110685714Y-85614285D01*
X110685714Y-85757142D01*
X110657142Y-85814285D01*
X110628571Y-85842857D01*
X110571428Y-85871428D01*
X110400000Y-85871428D01*
X110342857Y-85842857D01*
X110314285Y-85814285D01*
%TO.C,Q4*%
X116942857Y-85928571D02*
X116885714Y-85900000D01*
X116828571Y-85842857D01*
X116742857Y-85757142D01*
X116685714Y-85728571D01*
X116628571Y-85728571D01*
X116657142Y-85871428D02*
X116600000Y-85842857D01*
X116542857Y-85785714D01*
X116514285Y-85671428D01*
X116514285Y-85471428D01*
X116542857Y-85357142D01*
X116600000Y-85300000D01*
X116657142Y-85271428D01*
X116771428Y-85271428D01*
X116828571Y-85300000D01*
X116885714Y-85357142D01*
X116914285Y-85471428D01*
X116914285Y-85671428D01*
X116885714Y-85785714D01*
X116828571Y-85842857D01*
X116771428Y-85871428D01*
X116657142Y-85871428D01*
X117428571Y-85471428D02*
X117428571Y-85871428D01*
X117285714Y-85242857D02*
X117142857Y-85671428D01*
X117514285Y-85671428D01*
%TO.C,Q5*%
X132942857Y-85928571D02*
X132885714Y-85900000D01*
X132828571Y-85842857D01*
X132742857Y-85757142D01*
X132685714Y-85728571D01*
X132628571Y-85728571D01*
X132657142Y-85871428D02*
X132600000Y-85842857D01*
X132542857Y-85785714D01*
X132514285Y-85671428D01*
X132514285Y-85471428D01*
X132542857Y-85357142D01*
X132600000Y-85300000D01*
X132657142Y-85271428D01*
X132771428Y-85271428D01*
X132828571Y-85300000D01*
X132885714Y-85357142D01*
X132914285Y-85471428D01*
X132914285Y-85671428D01*
X132885714Y-85785714D01*
X132828571Y-85842857D01*
X132771428Y-85871428D01*
X132657142Y-85871428D01*
X133457142Y-85271428D02*
X133171428Y-85271428D01*
X133142857Y-85557142D01*
X133171428Y-85528571D01*
X133228571Y-85500000D01*
X133371428Y-85500000D01*
X133428571Y-85528571D01*
X133457142Y-85557142D01*
X133485714Y-85614285D01*
X133485714Y-85757142D01*
X133457142Y-85814285D01*
X133428571Y-85842857D01*
X133371428Y-85871428D01*
X133228571Y-85871428D01*
X133171428Y-85842857D01*
X133142857Y-85814285D01*
%TO.C,Q6*%
X139742857Y-85928571D02*
X139685714Y-85900000D01*
X139628571Y-85842857D01*
X139542857Y-85757142D01*
X139485714Y-85728571D01*
X139428571Y-85728571D01*
X139457142Y-85871428D02*
X139400000Y-85842857D01*
X139342857Y-85785714D01*
X139314285Y-85671428D01*
X139314285Y-85471428D01*
X139342857Y-85357142D01*
X139400000Y-85300000D01*
X139457142Y-85271428D01*
X139571428Y-85271428D01*
X139628571Y-85300000D01*
X139685714Y-85357142D01*
X139714285Y-85471428D01*
X139714285Y-85671428D01*
X139685714Y-85785714D01*
X139628571Y-85842857D01*
X139571428Y-85871428D01*
X139457142Y-85871428D01*
X140228571Y-85271428D02*
X140114285Y-85271428D01*
X140057142Y-85300000D01*
X140028571Y-85328571D01*
X139971428Y-85414285D01*
X139942857Y-85528571D01*
X139942857Y-85757142D01*
X139971428Y-85814285D01*
X140000000Y-85842857D01*
X140057142Y-85871428D01*
X140171428Y-85871428D01*
X140228571Y-85842857D01*
X140257142Y-85814285D01*
X140285714Y-85757142D01*
X140285714Y-85614285D01*
X140257142Y-85557142D01*
X140228571Y-85528571D01*
X140171428Y-85500000D01*
X140057142Y-85500000D01*
X140000000Y-85528571D01*
X139971428Y-85557142D01*
X139942857Y-85614285D01*
%TO.C,Q7*%
X146542857Y-85928571D02*
X146485714Y-85900000D01*
X146428571Y-85842857D01*
X146342857Y-85757142D01*
X146285714Y-85728571D01*
X146228571Y-85728571D01*
X146257142Y-85871428D02*
X146200000Y-85842857D01*
X146142857Y-85785714D01*
X146114285Y-85671428D01*
X146114285Y-85471428D01*
X146142857Y-85357142D01*
X146200000Y-85300000D01*
X146257142Y-85271428D01*
X146371428Y-85271428D01*
X146428571Y-85300000D01*
X146485714Y-85357142D01*
X146514285Y-85471428D01*
X146514285Y-85671428D01*
X146485714Y-85785714D01*
X146428571Y-85842857D01*
X146371428Y-85871428D01*
X146257142Y-85871428D01*
X146714285Y-85271428D02*
X147114285Y-85271428D01*
X146857142Y-85871428D01*
%TO.C,U14*%
X130171428Y-73742857D02*
X130657142Y-73742857D01*
X130714285Y-73714285D01*
X130742857Y-73685714D01*
X130771428Y-73628571D01*
X130771428Y-73514285D01*
X130742857Y-73457142D01*
X130714285Y-73428571D01*
X130657142Y-73400000D01*
X130171428Y-73400000D01*
X130771428Y-72800000D02*
X130771428Y-73142857D01*
X130771428Y-72971428D02*
X130171428Y-72971428D01*
X130257142Y-73028571D01*
X130314285Y-73085714D01*
X130342857Y-73142857D01*
X130371428Y-72285714D02*
X130771428Y-72285714D01*
X130142857Y-72428571D02*
X130571428Y-72571428D01*
X130571428Y-72200000D01*
%TO.C,D6*%
X128157142Y-52386428D02*
X128157142Y-51786428D01*
X128300000Y-51786428D01*
X128385714Y-51815000D01*
X128442857Y-51872142D01*
X128471428Y-51929285D01*
X128500000Y-52043571D01*
X128500000Y-52129285D01*
X128471428Y-52243571D01*
X128442857Y-52300714D01*
X128385714Y-52357857D01*
X128300000Y-52386428D01*
X128157142Y-52386428D01*
X129014285Y-51786428D02*
X128900000Y-51786428D01*
X128842857Y-51815000D01*
X128814285Y-51843571D01*
X128757142Y-51929285D01*
X128728571Y-52043571D01*
X128728571Y-52272142D01*
X128757142Y-52329285D01*
X128785714Y-52357857D01*
X128842857Y-52386428D01*
X128957142Y-52386428D01*
X129014285Y-52357857D01*
X129042857Y-52329285D01*
X129071428Y-52272142D01*
X129071428Y-52129285D01*
X129042857Y-52072142D01*
X129014285Y-52043571D01*
X128957142Y-52015000D01*
X128842857Y-52015000D01*
X128785714Y-52043571D01*
X128757142Y-52072142D01*
X128728571Y-52129285D01*
%TO.C,C44*%
X146714285Y-74214285D02*
X146685714Y-74242857D01*
X146600000Y-74271428D01*
X146542857Y-74271428D01*
X146457142Y-74242857D01*
X146400000Y-74185714D01*
X146371428Y-74128571D01*
X146342857Y-74014285D01*
X146342857Y-73928571D01*
X146371428Y-73814285D01*
X146400000Y-73757142D01*
X146457142Y-73700000D01*
X146542857Y-73671428D01*
X146600000Y-73671428D01*
X146685714Y-73700000D01*
X146714285Y-73728571D01*
X147228571Y-73871428D02*
X147228571Y-74271428D01*
X147085714Y-73642857D02*
X146942857Y-74071428D01*
X147314285Y-74071428D01*
X147800000Y-73871428D02*
X147800000Y-74271428D01*
X147657142Y-73642857D02*
X147514285Y-74071428D01*
X147885714Y-74071428D01*
%TO.C,U12*%
X127257142Y-79571428D02*
X127257142Y-80057142D01*
X127285714Y-80114285D01*
X127314285Y-80142857D01*
X127371428Y-80171428D01*
X127485714Y-80171428D01*
X127542857Y-80142857D01*
X127571428Y-80114285D01*
X127600000Y-80057142D01*
X127600000Y-79571428D01*
X128200000Y-80171428D02*
X127857142Y-80171428D01*
X128028571Y-80171428D02*
X128028571Y-79571428D01*
X127971428Y-79657142D01*
X127914285Y-79714285D01*
X127857142Y-79742857D01*
X128428571Y-79628571D02*
X128457142Y-79600000D01*
X128514285Y-79571428D01*
X128657142Y-79571428D01*
X128714285Y-79600000D01*
X128742857Y-79628571D01*
X128771428Y-79685714D01*
X128771428Y-79742857D01*
X128742857Y-79828571D01*
X128400000Y-80171428D01*
X128771428Y-80171428D01*
%TO.C,C42*%
X138714285Y-68985714D02*
X138742857Y-69014285D01*
X138771428Y-69100000D01*
X138771428Y-69157142D01*
X138742857Y-69242857D01*
X138685714Y-69300000D01*
X138628571Y-69328571D01*
X138514285Y-69357142D01*
X138428571Y-69357142D01*
X138314285Y-69328571D01*
X138257142Y-69300000D01*
X138200000Y-69242857D01*
X138171428Y-69157142D01*
X138171428Y-69100000D01*
X138200000Y-69014285D01*
X138228571Y-68985714D01*
X138371428Y-68471428D02*
X138771428Y-68471428D01*
X138142857Y-68614285D02*
X138571428Y-68757142D01*
X138571428Y-68385714D01*
X138228571Y-68185714D02*
X138200000Y-68157142D01*
X138171428Y-68100000D01*
X138171428Y-67957142D01*
X138200000Y-67900000D01*
X138228571Y-67871428D01*
X138285714Y-67842857D01*
X138342857Y-67842857D01*
X138428571Y-67871428D01*
X138771428Y-68214285D01*
X138771428Y-67842857D01*
%TO.C,R38*%
X113971428Y-72685714D02*
X113685714Y-72885714D01*
X113971428Y-73028571D02*
X113371428Y-73028571D01*
X113371428Y-72800000D01*
X113400000Y-72742857D01*
X113428571Y-72714285D01*
X113485714Y-72685714D01*
X113571428Y-72685714D01*
X113628571Y-72714285D01*
X113657142Y-72742857D01*
X113685714Y-72800000D01*
X113685714Y-73028571D01*
X113371428Y-72485714D02*
X113371428Y-72114285D01*
X113600000Y-72314285D01*
X113600000Y-72228571D01*
X113628571Y-72171428D01*
X113657142Y-72142857D01*
X113714285Y-72114285D01*
X113857142Y-72114285D01*
X113914285Y-72142857D01*
X113942857Y-72171428D01*
X113971428Y-72228571D01*
X113971428Y-72400000D01*
X113942857Y-72457142D01*
X113914285Y-72485714D01*
X113628571Y-71771428D02*
X113600000Y-71828571D01*
X113571428Y-71857142D01*
X113514285Y-71885714D01*
X113485714Y-71885714D01*
X113428571Y-71857142D01*
X113400000Y-71828571D01*
X113371428Y-71771428D01*
X113371428Y-71657142D01*
X113400000Y-71600000D01*
X113428571Y-71571428D01*
X113485714Y-71542857D01*
X113514285Y-71542857D01*
X113571428Y-71571428D01*
X113600000Y-71600000D01*
X113628571Y-71657142D01*
X113628571Y-71771428D01*
X113657142Y-71828571D01*
X113685714Y-71857142D01*
X113742857Y-71885714D01*
X113857142Y-71885714D01*
X113914285Y-71857142D01*
X113942857Y-71828571D01*
X113971428Y-71771428D01*
X113971428Y-71657142D01*
X113942857Y-71600000D01*
X113914285Y-71571428D01*
X113857142Y-71542857D01*
X113742857Y-71542857D01*
X113685714Y-71571428D01*
X113657142Y-71600000D01*
X113628571Y-71657142D01*
%TO.C,C24*%
X102814285Y-72814285D02*
X102785714Y-72842857D01*
X102700000Y-72871428D01*
X102642857Y-72871428D01*
X102557142Y-72842857D01*
X102500000Y-72785714D01*
X102471428Y-72728571D01*
X102442857Y-72614285D01*
X102442857Y-72528571D01*
X102471428Y-72414285D01*
X102500000Y-72357142D01*
X102557142Y-72300000D01*
X102642857Y-72271428D01*
X102700000Y-72271428D01*
X102785714Y-72300000D01*
X102814285Y-72328571D01*
X103042857Y-72328571D02*
X103071428Y-72300000D01*
X103128571Y-72271428D01*
X103271428Y-72271428D01*
X103328571Y-72300000D01*
X103357142Y-72328571D01*
X103385714Y-72385714D01*
X103385714Y-72442857D01*
X103357142Y-72528571D01*
X103014285Y-72871428D01*
X103385714Y-72871428D01*
X103900000Y-72471428D02*
X103900000Y-72871428D01*
X103757142Y-72242857D02*
X103614285Y-72671428D01*
X103985714Y-72671428D01*
%TO.C,C104*%
X113714285Y-58771428D02*
X113742857Y-58800000D01*
X113771428Y-58885714D01*
X113771428Y-58942857D01*
X113742857Y-59028571D01*
X113685714Y-59085714D01*
X113628571Y-59114285D01*
X113514285Y-59142857D01*
X113428571Y-59142857D01*
X113314285Y-59114285D01*
X113257142Y-59085714D01*
X113200000Y-59028571D01*
X113171428Y-58942857D01*
X113171428Y-58885714D01*
X113200000Y-58800000D01*
X113228571Y-58771428D01*
X113771428Y-58200000D02*
X113771428Y-58542857D01*
X113771428Y-58371428D02*
X113171428Y-58371428D01*
X113257142Y-58428571D01*
X113314285Y-58485714D01*
X113342857Y-58542857D01*
X113171428Y-57828571D02*
X113171428Y-57771428D01*
X113200000Y-57714285D01*
X113228571Y-57685714D01*
X113285714Y-57657142D01*
X113400000Y-57628571D01*
X113542857Y-57628571D01*
X113657142Y-57657142D01*
X113714285Y-57685714D01*
X113742857Y-57714285D01*
X113771428Y-57771428D01*
X113771428Y-57828571D01*
X113742857Y-57885714D01*
X113714285Y-57914285D01*
X113657142Y-57942857D01*
X113542857Y-57971428D01*
X113400000Y-57971428D01*
X113285714Y-57942857D01*
X113228571Y-57914285D01*
X113200000Y-57885714D01*
X113171428Y-57828571D01*
X113371428Y-57114285D02*
X113771428Y-57114285D01*
X113142857Y-57257142D02*
X113571428Y-57400000D01*
X113571428Y-57028571D01*
%TO.C,J15*%
X110184285Y-51871428D02*
X110184285Y-52300000D01*
X110155714Y-52385714D01*
X110098571Y-52442857D01*
X110012857Y-52471428D01*
X109955714Y-52471428D01*
X110784285Y-52471428D02*
X110441428Y-52471428D01*
X110612857Y-52471428D02*
X110612857Y-51871428D01*
X110555714Y-51957142D01*
X110498571Y-52014285D01*
X110441428Y-52042857D01*
X111327142Y-51871428D02*
X111041428Y-51871428D01*
X111012857Y-52157142D01*
X111041428Y-52128571D01*
X111098571Y-52100000D01*
X111241428Y-52100000D01*
X111298571Y-52128571D01*
X111327142Y-52157142D01*
X111355714Y-52214285D01*
X111355714Y-52357142D01*
X111327142Y-52414285D01*
X111298571Y-52442857D01*
X111241428Y-52471428D01*
X111098571Y-52471428D01*
X111041428Y-52442857D01*
X111012857Y-52414285D01*
%TO.C,D11*%
X111371428Y-56171428D02*
X111371428Y-55571428D01*
X111514285Y-55571428D01*
X111600000Y-55600000D01*
X111657142Y-55657142D01*
X111685714Y-55714285D01*
X111714285Y-55828571D01*
X111714285Y-55914285D01*
X111685714Y-56028571D01*
X111657142Y-56085714D01*
X111600000Y-56142857D01*
X111514285Y-56171428D01*
X111371428Y-56171428D01*
X112285714Y-56171428D02*
X111942857Y-56171428D01*
X112114285Y-56171428D02*
X112114285Y-55571428D01*
X112057142Y-55657142D01*
X112000000Y-55714285D01*
X111942857Y-55742857D01*
X112857142Y-56171428D02*
X112514285Y-56171428D01*
X112685714Y-56171428D02*
X112685714Y-55571428D01*
X112628571Y-55657142D01*
X112571428Y-55714285D01*
X112514285Y-55742857D01*
%TO.C,D12*%
X109171428Y-56171428D02*
X109171428Y-55571428D01*
X109314285Y-55571428D01*
X109400000Y-55600000D01*
X109457142Y-55657142D01*
X109485714Y-55714285D01*
X109514285Y-55828571D01*
X109514285Y-55914285D01*
X109485714Y-56028571D01*
X109457142Y-56085714D01*
X109400000Y-56142857D01*
X109314285Y-56171428D01*
X109171428Y-56171428D01*
X110085714Y-56171428D02*
X109742857Y-56171428D01*
X109914285Y-56171428D02*
X109914285Y-55571428D01*
X109857142Y-55657142D01*
X109800000Y-55714285D01*
X109742857Y-55742857D01*
X110314285Y-55628571D02*
X110342857Y-55600000D01*
X110400000Y-55571428D01*
X110542857Y-55571428D01*
X110600000Y-55600000D01*
X110628571Y-55628571D01*
X110657142Y-55685714D01*
X110657142Y-55742857D01*
X110628571Y-55828571D01*
X110285714Y-56171428D01*
X110657142Y-56171428D01*
%TO.C,SW1*%
X135200000Y-52242857D02*
X135285714Y-52271428D01*
X135428571Y-52271428D01*
X135485714Y-52242857D01*
X135514285Y-52214285D01*
X135542857Y-52157142D01*
X135542857Y-52100000D01*
X135514285Y-52042857D01*
X135485714Y-52014285D01*
X135428571Y-51985714D01*
X135314285Y-51957142D01*
X135257142Y-51928571D01*
X135228571Y-51900000D01*
X135200000Y-51842857D01*
X135200000Y-51785714D01*
X135228571Y-51728571D01*
X135257142Y-51700000D01*
X135314285Y-51671428D01*
X135457142Y-51671428D01*
X135542857Y-51700000D01*
X135742857Y-51671428D02*
X135885714Y-52271428D01*
X136000000Y-51842857D01*
X136114285Y-52271428D01*
X136257142Y-51671428D01*
X136800000Y-52271428D02*
X136457142Y-52271428D01*
X136628571Y-52271428D02*
X136628571Y-51671428D01*
X136571428Y-51757142D01*
X136514285Y-51814285D01*
X136457142Y-51842857D01*
%TO.C,C23*%
X132614285Y-54014285D02*
X132585714Y-54042857D01*
X132500000Y-54071428D01*
X132442857Y-54071428D01*
X132357142Y-54042857D01*
X132300000Y-53985714D01*
X132271428Y-53928571D01*
X132242857Y-53814285D01*
X132242857Y-53728571D01*
X132271428Y-53614285D01*
X132300000Y-53557142D01*
X132357142Y-53500000D01*
X132442857Y-53471428D01*
X132500000Y-53471428D01*
X132585714Y-53500000D01*
X132614285Y-53528571D01*
X132842857Y-53528571D02*
X132871428Y-53500000D01*
X132928571Y-53471428D01*
X133071428Y-53471428D01*
X133128571Y-53500000D01*
X133157142Y-53528571D01*
X133185714Y-53585714D01*
X133185714Y-53642857D01*
X133157142Y-53728571D01*
X132814285Y-54071428D01*
X133185714Y-54071428D01*
X133385714Y-53471428D02*
X133757142Y-53471428D01*
X133557142Y-53700000D01*
X133642857Y-53700000D01*
X133700000Y-53728571D01*
X133728571Y-53757142D01*
X133757142Y-53814285D01*
X133757142Y-53957142D01*
X133728571Y-54014285D01*
X133700000Y-54042857D01*
X133642857Y-54071428D01*
X133471428Y-54071428D01*
X133414285Y-54042857D01*
X133385714Y-54014285D01*
%TO.C,C26*%
X102114285Y-71814285D02*
X102085714Y-71842857D01*
X102000000Y-71871428D01*
X101942857Y-71871428D01*
X101857142Y-71842857D01*
X101800000Y-71785714D01*
X101771428Y-71728571D01*
X101742857Y-71614285D01*
X101742857Y-71528571D01*
X101771428Y-71414285D01*
X101800000Y-71357142D01*
X101857142Y-71300000D01*
X101942857Y-71271428D01*
X102000000Y-71271428D01*
X102085714Y-71300000D01*
X102114285Y-71328571D01*
X102342857Y-71328571D02*
X102371428Y-71300000D01*
X102428571Y-71271428D01*
X102571428Y-71271428D01*
X102628571Y-71300000D01*
X102657142Y-71328571D01*
X102685714Y-71385714D01*
X102685714Y-71442857D01*
X102657142Y-71528571D01*
X102314285Y-71871428D01*
X102685714Y-71871428D01*
X103200000Y-71271428D02*
X103085714Y-71271428D01*
X103028571Y-71300000D01*
X103000000Y-71328571D01*
X102942857Y-71414285D01*
X102914285Y-71528571D01*
X102914285Y-71757142D01*
X102942857Y-71814285D01*
X102971428Y-71842857D01*
X103028571Y-71871428D01*
X103142857Y-71871428D01*
X103200000Y-71842857D01*
X103228571Y-71814285D01*
X103257142Y-71757142D01*
X103257142Y-71614285D01*
X103228571Y-71557142D01*
X103200000Y-71528571D01*
X103142857Y-71500000D01*
X103028571Y-71500000D01*
X102971428Y-71528571D01*
X102942857Y-71557142D01*
X102914285Y-71614285D01*
%TO.C,C39*%
X133214285Y-72514285D02*
X133185714Y-72542857D01*
X133100000Y-72571428D01*
X133042857Y-72571428D01*
X132957142Y-72542857D01*
X132900000Y-72485714D01*
X132871428Y-72428571D01*
X132842857Y-72314285D01*
X132842857Y-72228571D01*
X132871428Y-72114285D01*
X132900000Y-72057142D01*
X132957142Y-72000000D01*
X133042857Y-71971428D01*
X133100000Y-71971428D01*
X133185714Y-72000000D01*
X133214285Y-72028571D01*
X133414285Y-71971428D02*
X133785714Y-71971428D01*
X133585714Y-72200000D01*
X133671428Y-72200000D01*
X133728571Y-72228571D01*
X133757142Y-72257142D01*
X133785714Y-72314285D01*
X133785714Y-72457142D01*
X133757142Y-72514285D01*
X133728571Y-72542857D01*
X133671428Y-72571428D01*
X133500000Y-72571428D01*
X133442857Y-72542857D01*
X133414285Y-72514285D01*
X134071428Y-72571428D02*
X134185714Y-72571428D01*
X134242857Y-72542857D01*
X134271428Y-72514285D01*
X134328571Y-72428571D01*
X134357142Y-72314285D01*
X134357142Y-72085714D01*
X134328571Y-72028571D01*
X134300000Y-72000000D01*
X134242857Y-71971428D01*
X134128571Y-71971428D01*
X134071428Y-72000000D01*
X134042857Y-72028571D01*
X134014285Y-72085714D01*
X134014285Y-72228571D01*
X134042857Y-72285714D01*
X134071428Y-72314285D01*
X134128571Y-72342857D01*
X134242857Y-72342857D01*
X134300000Y-72314285D01*
X134328571Y-72285714D01*
X134357142Y-72228571D01*
%TO.C,J7*%
X141705000Y-51706428D02*
X141705000Y-52135000D01*
X141676428Y-52220714D01*
X141619285Y-52277857D01*
X141533571Y-52306428D01*
X141476428Y-52306428D01*
X141933571Y-51706428D02*
X142333571Y-51706428D01*
X142076428Y-52306428D01*
%TO.C,R36*%
X112851428Y-71985714D02*
X112565714Y-72185714D01*
X112851428Y-72328571D02*
X112251428Y-72328571D01*
X112251428Y-72100000D01*
X112280000Y-72042857D01*
X112308571Y-72014285D01*
X112365714Y-71985714D01*
X112451428Y-71985714D01*
X112508571Y-72014285D01*
X112537142Y-72042857D01*
X112565714Y-72100000D01*
X112565714Y-72328571D01*
X112251428Y-71785714D02*
X112251428Y-71414285D01*
X112480000Y-71614285D01*
X112480000Y-71528571D01*
X112508571Y-71471428D01*
X112537142Y-71442857D01*
X112594285Y-71414285D01*
X112737142Y-71414285D01*
X112794285Y-71442857D01*
X112822857Y-71471428D01*
X112851428Y-71528571D01*
X112851428Y-71700000D01*
X112822857Y-71757142D01*
X112794285Y-71785714D01*
X112251428Y-70900000D02*
X112251428Y-71014285D01*
X112280000Y-71071428D01*
X112308571Y-71100000D01*
X112394285Y-71157142D01*
X112508571Y-71185714D01*
X112737142Y-71185714D01*
X112794285Y-71157142D01*
X112822857Y-71128571D01*
X112851428Y-71071428D01*
X112851428Y-70957142D01*
X112822857Y-70900000D01*
X112794285Y-70871428D01*
X112737142Y-70842857D01*
X112594285Y-70842857D01*
X112537142Y-70871428D01*
X112508571Y-70900000D01*
X112480000Y-70957142D01*
X112480000Y-71071428D01*
X112508571Y-71128571D01*
X112537142Y-71157142D01*
X112594285Y-71185714D01*
%TO.C,R22*%
X134714285Y-57971428D02*
X134514285Y-57685714D01*
X134371428Y-57971428D02*
X134371428Y-57371428D01*
X134600000Y-57371428D01*
X134657142Y-57400000D01*
X134685714Y-57428571D01*
X134714285Y-57485714D01*
X134714285Y-57571428D01*
X134685714Y-57628571D01*
X134657142Y-57657142D01*
X134600000Y-57685714D01*
X134371428Y-57685714D01*
X134942857Y-57428571D02*
X134971428Y-57400000D01*
X135028571Y-57371428D01*
X135171428Y-57371428D01*
X135228571Y-57400000D01*
X135257142Y-57428571D01*
X135285714Y-57485714D01*
X135285714Y-57542857D01*
X135257142Y-57628571D01*
X134914285Y-57971428D01*
X135285714Y-57971428D01*
X135514285Y-57428571D02*
X135542857Y-57400000D01*
X135600000Y-57371428D01*
X135742857Y-57371428D01*
X135800000Y-57400000D01*
X135828571Y-57428571D01*
X135857142Y-57485714D01*
X135857142Y-57542857D01*
X135828571Y-57628571D01*
X135485714Y-57971428D01*
X135857142Y-57971428D01*
%TO.C,R30*%
X130444285Y-52271428D02*
X130244285Y-51985714D01*
X130101428Y-52271428D02*
X130101428Y-51671428D01*
X130330000Y-51671428D01*
X130387142Y-51700000D01*
X130415714Y-51728571D01*
X130444285Y-51785714D01*
X130444285Y-51871428D01*
X130415714Y-51928571D01*
X130387142Y-51957142D01*
X130330000Y-51985714D01*
X130101428Y-51985714D01*
X130644285Y-51671428D02*
X131015714Y-51671428D01*
X130815714Y-51900000D01*
X130901428Y-51900000D01*
X130958571Y-51928571D01*
X130987142Y-51957142D01*
X131015714Y-52014285D01*
X131015714Y-52157142D01*
X130987142Y-52214285D01*
X130958571Y-52242857D01*
X130901428Y-52271428D01*
X130730000Y-52271428D01*
X130672857Y-52242857D01*
X130644285Y-52214285D01*
X131387142Y-51671428D02*
X131444285Y-51671428D01*
X131501428Y-51700000D01*
X131530000Y-51728571D01*
X131558571Y-51785714D01*
X131587142Y-51900000D01*
X131587142Y-52042857D01*
X131558571Y-52157142D01*
X131530000Y-52214285D01*
X131501428Y-52242857D01*
X131444285Y-52271428D01*
X131387142Y-52271428D01*
X131330000Y-52242857D01*
X131301428Y-52214285D01*
X131272857Y-52157142D01*
X131244285Y-52042857D01*
X131244285Y-51900000D01*
X131272857Y-51785714D01*
X131301428Y-51728571D01*
X131330000Y-51700000D01*
X131387142Y-51671428D01*
%TO.C,C102*%
X120528571Y-74714285D02*
X120500000Y-74742857D01*
X120414285Y-74771428D01*
X120357142Y-74771428D01*
X120271428Y-74742857D01*
X120214285Y-74685714D01*
X120185714Y-74628571D01*
X120157142Y-74514285D01*
X120157142Y-74428571D01*
X120185714Y-74314285D01*
X120214285Y-74257142D01*
X120271428Y-74200000D01*
X120357142Y-74171428D01*
X120414285Y-74171428D01*
X120500000Y-74200000D01*
X120528571Y-74228571D01*
X121100000Y-74771428D02*
X120757142Y-74771428D01*
X120928571Y-74771428D02*
X120928571Y-74171428D01*
X120871428Y-74257142D01*
X120814285Y-74314285D01*
X120757142Y-74342857D01*
X121471428Y-74171428D02*
X121528571Y-74171428D01*
X121585714Y-74200000D01*
X121614285Y-74228571D01*
X121642857Y-74285714D01*
X121671428Y-74400000D01*
X121671428Y-74542857D01*
X121642857Y-74657142D01*
X121614285Y-74714285D01*
X121585714Y-74742857D01*
X121528571Y-74771428D01*
X121471428Y-74771428D01*
X121414285Y-74742857D01*
X121385714Y-74714285D01*
X121357142Y-74657142D01*
X121328571Y-74542857D01*
X121328571Y-74400000D01*
X121357142Y-74285714D01*
X121385714Y-74228571D01*
X121414285Y-74200000D01*
X121471428Y-74171428D01*
X121900000Y-74228571D02*
X121928571Y-74200000D01*
X121985714Y-74171428D01*
X122128571Y-74171428D01*
X122185714Y-74200000D01*
X122214285Y-74228571D01*
X122242857Y-74285714D01*
X122242857Y-74342857D01*
X122214285Y-74428571D01*
X121871428Y-74771428D01*
X122242857Y-74771428D01*
%TO.C,R17*%
X142614285Y-61071428D02*
X142414285Y-60785714D01*
X142271428Y-61071428D02*
X142271428Y-60471428D01*
X142500000Y-60471428D01*
X142557142Y-60500000D01*
X142585714Y-60528571D01*
X142614285Y-60585714D01*
X142614285Y-60671428D01*
X142585714Y-60728571D01*
X142557142Y-60757142D01*
X142500000Y-60785714D01*
X142271428Y-60785714D01*
X143185714Y-61071428D02*
X142842857Y-61071428D01*
X143014285Y-61071428D02*
X143014285Y-60471428D01*
X142957142Y-60557142D01*
X142900000Y-60614285D01*
X142842857Y-60642857D01*
X143385714Y-60471428D02*
X143785714Y-60471428D01*
X143528571Y-61071428D01*
%TO.C,J12*%
X100721428Y-61760714D02*
X101150000Y-61760714D01*
X101235714Y-61789285D01*
X101292857Y-61846428D01*
X101321428Y-61932142D01*
X101321428Y-61989285D01*
X101321428Y-61160714D02*
X101321428Y-61503571D01*
X101321428Y-61332142D02*
X100721428Y-61332142D01*
X100807142Y-61389285D01*
X100864285Y-61446428D01*
X100892857Y-61503571D01*
X100778571Y-60932142D02*
X100750000Y-60903571D01*
X100721428Y-60846428D01*
X100721428Y-60703571D01*
X100750000Y-60646428D01*
X100778571Y-60617857D01*
X100835714Y-60589285D01*
X100892857Y-60589285D01*
X100978571Y-60617857D01*
X101321428Y-60960714D01*
X101321428Y-60589285D01*
%TO.C,R2*%
X120100000Y-54071428D02*
X119900000Y-53785714D01*
X119757142Y-54071428D02*
X119757142Y-53471428D01*
X119985714Y-53471428D01*
X120042857Y-53500000D01*
X120071428Y-53528571D01*
X120100000Y-53585714D01*
X120100000Y-53671428D01*
X120071428Y-53728571D01*
X120042857Y-53757142D01*
X119985714Y-53785714D01*
X119757142Y-53785714D01*
X120328571Y-53528571D02*
X120357142Y-53500000D01*
X120414285Y-53471428D01*
X120557142Y-53471428D01*
X120614285Y-53500000D01*
X120642857Y-53528571D01*
X120671428Y-53585714D01*
X120671428Y-53642857D01*
X120642857Y-53728571D01*
X120300000Y-54071428D01*
X120671428Y-54071428D01*
%TO.C,U16*%
X144257142Y-64171428D02*
X144257142Y-64657142D01*
X144285714Y-64714285D01*
X144314285Y-64742857D01*
X144371428Y-64771428D01*
X144485714Y-64771428D01*
X144542857Y-64742857D01*
X144571428Y-64714285D01*
X144600000Y-64657142D01*
X144600000Y-64171428D01*
X145200000Y-64771428D02*
X144857142Y-64771428D01*
X145028571Y-64771428D02*
X145028571Y-64171428D01*
X144971428Y-64257142D01*
X144914285Y-64314285D01*
X144857142Y-64342857D01*
X145714285Y-64171428D02*
X145600000Y-64171428D01*
X145542857Y-64200000D01*
X145514285Y-64228571D01*
X145457142Y-64314285D01*
X145428571Y-64428571D01*
X145428571Y-64657142D01*
X145457142Y-64714285D01*
X145485714Y-64742857D01*
X145542857Y-64771428D01*
X145657142Y-64771428D01*
X145714285Y-64742857D01*
X145742857Y-64714285D01*
X145771428Y-64657142D01*
X145771428Y-64514285D01*
X145742857Y-64457142D01*
X145714285Y-64428571D01*
X145657142Y-64400000D01*
X145542857Y-64400000D01*
X145485714Y-64428571D01*
X145457142Y-64457142D01*
X145428571Y-64514285D01*
%TO.C,R64*%
X119171428Y-76885714D02*
X118885714Y-77085714D01*
X119171428Y-77228571D02*
X118571428Y-77228571D01*
X118571428Y-77000000D01*
X118600000Y-76942857D01*
X118628571Y-76914285D01*
X118685714Y-76885714D01*
X118771428Y-76885714D01*
X118828571Y-76914285D01*
X118857142Y-76942857D01*
X118885714Y-77000000D01*
X118885714Y-77228571D01*
X118571428Y-76371428D02*
X118571428Y-76485714D01*
X118600000Y-76542857D01*
X118628571Y-76571428D01*
X118714285Y-76628571D01*
X118828571Y-76657142D01*
X119057142Y-76657142D01*
X119114285Y-76628571D01*
X119142857Y-76600000D01*
X119171428Y-76542857D01*
X119171428Y-76428571D01*
X119142857Y-76371428D01*
X119114285Y-76342857D01*
X119057142Y-76314285D01*
X118914285Y-76314285D01*
X118857142Y-76342857D01*
X118828571Y-76371428D01*
X118800000Y-76428571D01*
X118800000Y-76542857D01*
X118828571Y-76600000D01*
X118857142Y-76628571D01*
X118914285Y-76657142D01*
X118771428Y-75800000D02*
X119171428Y-75800000D01*
X118542857Y-75942857D02*
X118971428Y-76085714D01*
X118971428Y-75714285D01*
%TO.C,U19*%
X114171428Y-59142857D02*
X114657142Y-59142857D01*
X114714285Y-59114285D01*
X114742857Y-59085714D01*
X114771428Y-59028571D01*
X114771428Y-58914285D01*
X114742857Y-58857142D01*
X114714285Y-58828571D01*
X114657142Y-58800000D01*
X114171428Y-58800000D01*
X114771428Y-58200000D02*
X114771428Y-58542857D01*
X114771428Y-58371428D02*
X114171428Y-58371428D01*
X114257142Y-58428571D01*
X114314285Y-58485714D01*
X114342857Y-58542857D01*
X114771428Y-57914285D02*
X114771428Y-57800000D01*
X114742857Y-57742857D01*
X114714285Y-57714285D01*
X114628571Y-57657142D01*
X114514285Y-57628571D01*
X114285714Y-57628571D01*
X114228571Y-57657142D01*
X114200000Y-57685714D01*
X114171428Y-57742857D01*
X114171428Y-57857142D01*
X114200000Y-57914285D01*
X114228571Y-57942857D01*
X114285714Y-57971428D01*
X114428571Y-57971428D01*
X114485714Y-57942857D01*
X114514285Y-57914285D01*
X114542857Y-57857142D01*
X114542857Y-57742857D01*
X114514285Y-57685714D01*
X114485714Y-57657142D01*
X114428571Y-57628571D01*
%TO.C,U1*%
X122542857Y-72271428D02*
X122542857Y-72757142D01*
X122571428Y-72814285D01*
X122600000Y-72842857D01*
X122657142Y-72871428D01*
X122771428Y-72871428D01*
X122828571Y-72842857D01*
X122857142Y-72814285D01*
X122885714Y-72757142D01*
X122885714Y-72271428D01*
X123485714Y-72871428D02*
X123142857Y-72871428D01*
X123314285Y-72871428D02*
X123314285Y-72271428D01*
X123257142Y-72357142D01*
X123200000Y-72414285D01*
X123142857Y-72442857D01*
%TO.C,D4*%
X108771428Y-64442857D02*
X108171428Y-64442857D01*
X108171428Y-64300000D01*
X108200000Y-64214285D01*
X108257142Y-64157142D01*
X108314285Y-64128571D01*
X108428571Y-64100000D01*
X108514285Y-64100000D01*
X108628571Y-64128571D01*
X108685714Y-64157142D01*
X108742857Y-64214285D01*
X108771428Y-64300000D01*
X108771428Y-64442857D01*
X108371428Y-63585714D02*
X108771428Y-63585714D01*
X108142857Y-63728571D02*
X108571428Y-63871428D01*
X108571428Y-63500000D01*
%TO.C,R65*%
X119514285Y-71471428D02*
X119314285Y-71185714D01*
X119171428Y-71471428D02*
X119171428Y-70871428D01*
X119400000Y-70871428D01*
X119457142Y-70900000D01*
X119485714Y-70928571D01*
X119514285Y-70985714D01*
X119514285Y-71071428D01*
X119485714Y-71128571D01*
X119457142Y-71157142D01*
X119400000Y-71185714D01*
X119171428Y-71185714D01*
X120028571Y-70871428D02*
X119914285Y-70871428D01*
X119857142Y-70900000D01*
X119828571Y-70928571D01*
X119771428Y-71014285D01*
X119742857Y-71128571D01*
X119742857Y-71357142D01*
X119771428Y-71414285D01*
X119800000Y-71442857D01*
X119857142Y-71471428D01*
X119971428Y-71471428D01*
X120028571Y-71442857D01*
X120057142Y-71414285D01*
X120085714Y-71357142D01*
X120085714Y-71214285D01*
X120057142Y-71157142D01*
X120028571Y-71128571D01*
X119971428Y-71100000D01*
X119857142Y-71100000D01*
X119800000Y-71128571D01*
X119771428Y-71157142D01*
X119742857Y-71214285D01*
X120628571Y-70871428D02*
X120342857Y-70871428D01*
X120314285Y-71157142D01*
X120342857Y-71128571D01*
X120400000Y-71100000D01*
X120542857Y-71100000D01*
X120600000Y-71128571D01*
X120628571Y-71157142D01*
X120657142Y-71214285D01*
X120657142Y-71357142D01*
X120628571Y-71414285D01*
X120600000Y-71442857D01*
X120542857Y-71471428D01*
X120400000Y-71471428D01*
X120342857Y-71442857D01*
X120314285Y-71414285D01*
%TO.C,D2*%
X143657142Y-59971428D02*
X143657142Y-59371428D01*
X143800000Y-59371428D01*
X143885714Y-59400000D01*
X143942857Y-59457142D01*
X143971428Y-59514285D01*
X144000000Y-59628571D01*
X144000000Y-59714285D01*
X143971428Y-59828571D01*
X143942857Y-59885714D01*
X143885714Y-59942857D01*
X143800000Y-59971428D01*
X143657142Y-59971428D01*
X144228571Y-59428571D02*
X144257142Y-59400000D01*
X144314285Y-59371428D01*
X144457142Y-59371428D01*
X144514285Y-59400000D01*
X144542857Y-59428571D01*
X144571428Y-59485714D01*
X144571428Y-59542857D01*
X144542857Y-59628571D01*
X144200000Y-59971428D01*
X144571428Y-59971428D01*
%TO.C,U18*%
X117132142Y-73071428D02*
X117132142Y-73557142D01*
X117160714Y-73614285D01*
X117189285Y-73642857D01*
X117246428Y-73671428D01*
X117360714Y-73671428D01*
X117417857Y-73642857D01*
X117446428Y-73614285D01*
X117475000Y-73557142D01*
X117475000Y-73071428D01*
X118075000Y-73671428D02*
X117732142Y-73671428D01*
X117903571Y-73671428D02*
X117903571Y-73071428D01*
X117846428Y-73157142D01*
X117789285Y-73214285D01*
X117732142Y-73242857D01*
X118417857Y-73328571D02*
X118360714Y-73300000D01*
X118332142Y-73271428D01*
X118303571Y-73214285D01*
X118303571Y-73185714D01*
X118332142Y-73128571D01*
X118360714Y-73100000D01*
X118417857Y-73071428D01*
X118532142Y-73071428D01*
X118589285Y-73100000D01*
X118617857Y-73128571D01*
X118646428Y-73185714D01*
X118646428Y-73214285D01*
X118617857Y-73271428D01*
X118589285Y-73300000D01*
X118532142Y-73328571D01*
X118417857Y-73328571D01*
X118360714Y-73357142D01*
X118332142Y-73385714D01*
X118303571Y-73442857D01*
X118303571Y-73557142D01*
X118332142Y-73614285D01*
X118360714Y-73642857D01*
X118417857Y-73671428D01*
X118532142Y-73671428D01*
X118589285Y-73642857D01*
X118617857Y-73614285D01*
X118646428Y-73557142D01*
X118646428Y-73442857D01*
X118617857Y-73385714D01*
X118589285Y-73357142D01*
X118532142Y-73328571D01*
%TO.C,R1*%
X117200000Y-54071428D02*
X117000000Y-53785714D01*
X116857142Y-54071428D02*
X116857142Y-53471428D01*
X117085714Y-53471428D01*
X117142857Y-53500000D01*
X117171428Y-53528571D01*
X117200000Y-53585714D01*
X117200000Y-53671428D01*
X117171428Y-53728571D01*
X117142857Y-53757142D01*
X117085714Y-53785714D01*
X116857142Y-53785714D01*
X117771428Y-54071428D02*
X117428571Y-54071428D01*
X117600000Y-54071428D02*
X117600000Y-53471428D01*
X117542857Y-53557142D01*
X117485714Y-53614285D01*
X117428571Y-53642857D01*
%TO.C,C7*%
X126200000Y-71714285D02*
X126171428Y-71742857D01*
X126085714Y-71771428D01*
X126028571Y-71771428D01*
X125942857Y-71742857D01*
X125885714Y-71685714D01*
X125857142Y-71628571D01*
X125828571Y-71514285D01*
X125828571Y-71428571D01*
X125857142Y-71314285D01*
X125885714Y-71257142D01*
X125942857Y-71200000D01*
X126028571Y-71171428D01*
X126085714Y-71171428D01*
X126171428Y-71200000D01*
X126200000Y-71228571D01*
X126400000Y-71171428D02*
X126800000Y-71171428D01*
X126542857Y-71771428D01*
%TO.C,R3*%
X123100000Y-54071428D02*
X122900000Y-53785714D01*
X122757142Y-54071428D02*
X122757142Y-53471428D01*
X122985714Y-53471428D01*
X123042857Y-53500000D01*
X123071428Y-53528571D01*
X123100000Y-53585714D01*
X123100000Y-53671428D01*
X123071428Y-53728571D01*
X123042857Y-53757142D01*
X122985714Y-53785714D01*
X122757142Y-53785714D01*
X123300000Y-53471428D02*
X123671428Y-53471428D01*
X123471428Y-53700000D01*
X123557142Y-53700000D01*
X123614285Y-53728571D01*
X123642857Y-53757142D01*
X123671428Y-53814285D01*
X123671428Y-53957142D01*
X123642857Y-54014285D01*
X123614285Y-54042857D01*
X123557142Y-54071428D01*
X123385714Y-54071428D01*
X123328571Y-54042857D01*
X123300000Y-54014285D01*
%TO.C,R66*%
X116314285Y-70871428D02*
X116114285Y-70585714D01*
X115971428Y-70871428D02*
X115971428Y-70271428D01*
X116200000Y-70271428D01*
X116257142Y-70300000D01*
X116285714Y-70328571D01*
X116314285Y-70385714D01*
X116314285Y-70471428D01*
X116285714Y-70528571D01*
X116257142Y-70557142D01*
X116200000Y-70585714D01*
X115971428Y-70585714D01*
X116828571Y-70271428D02*
X116714285Y-70271428D01*
X116657142Y-70300000D01*
X116628571Y-70328571D01*
X116571428Y-70414285D01*
X116542857Y-70528571D01*
X116542857Y-70757142D01*
X116571428Y-70814285D01*
X116600000Y-70842857D01*
X116657142Y-70871428D01*
X116771428Y-70871428D01*
X116828571Y-70842857D01*
X116857142Y-70814285D01*
X116885714Y-70757142D01*
X116885714Y-70614285D01*
X116857142Y-70557142D01*
X116828571Y-70528571D01*
X116771428Y-70500000D01*
X116657142Y-70500000D01*
X116600000Y-70528571D01*
X116571428Y-70557142D01*
X116542857Y-70614285D01*
X117400000Y-70271428D02*
X117285714Y-70271428D01*
X117228571Y-70300000D01*
X117200000Y-70328571D01*
X117142857Y-70414285D01*
X117114285Y-70528571D01*
X117114285Y-70757142D01*
X117142857Y-70814285D01*
X117171428Y-70842857D01*
X117228571Y-70871428D01*
X117342857Y-70871428D01*
X117400000Y-70842857D01*
X117428571Y-70814285D01*
X117457142Y-70757142D01*
X117457142Y-70614285D01*
X117428571Y-70557142D01*
X117400000Y-70528571D01*
X117342857Y-70500000D01*
X117228571Y-70500000D01*
X117171428Y-70528571D01*
X117142857Y-70557142D01*
X117114285Y-70614285D01*
%TO.C,U2*%
X124542857Y-72271428D02*
X124542857Y-72757142D01*
X124571428Y-72814285D01*
X124600000Y-72842857D01*
X124657142Y-72871428D01*
X124771428Y-72871428D01*
X124828571Y-72842857D01*
X124857142Y-72814285D01*
X124885714Y-72757142D01*
X124885714Y-72271428D01*
X125142857Y-72328571D02*
X125171428Y-72300000D01*
X125228571Y-72271428D01*
X125371428Y-72271428D01*
X125428571Y-72300000D01*
X125457142Y-72328571D01*
X125485714Y-72385714D01*
X125485714Y-72442857D01*
X125457142Y-72528571D01*
X125114285Y-72871428D01*
X125485714Y-72871428D01*
%TO.C,D3*%
X144671428Y-57442857D02*
X144071428Y-57442857D01*
X144071428Y-57300000D01*
X144100000Y-57214285D01*
X144157142Y-57157142D01*
X144214285Y-57128571D01*
X144328571Y-57100000D01*
X144414285Y-57100000D01*
X144528571Y-57128571D01*
X144585714Y-57157142D01*
X144642857Y-57214285D01*
X144671428Y-57300000D01*
X144671428Y-57442857D01*
X144071428Y-56900000D02*
X144071428Y-56528571D01*
X144300000Y-56728571D01*
X144300000Y-56642857D01*
X144328571Y-56585714D01*
X144357142Y-56557142D01*
X144414285Y-56528571D01*
X144557142Y-56528571D01*
X144614285Y-56557142D01*
X144642857Y-56585714D01*
X144671428Y-56642857D01*
X144671428Y-56814285D01*
X144642857Y-56871428D01*
X144614285Y-56900000D01*
%TO.C,C100*%
X147928571Y-63894285D02*
X147900000Y-63922857D01*
X147814285Y-63951428D01*
X147757142Y-63951428D01*
X147671428Y-63922857D01*
X147614285Y-63865714D01*
X147585714Y-63808571D01*
X147557142Y-63694285D01*
X147557142Y-63608571D01*
X147585714Y-63494285D01*
X147614285Y-63437142D01*
X147671428Y-63380000D01*
X147757142Y-63351428D01*
X147814285Y-63351428D01*
X147900000Y-63380000D01*
X147928571Y-63408571D01*
X148500000Y-63951428D02*
X148157142Y-63951428D01*
X148328571Y-63951428D02*
X148328571Y-63351428D01*
X148271428Y-63437142D01*
X148214285Y-63494285D01*
X148157142Y-63522857D01*
X148871428Y-63351428D02*
X148928571Y-63351428D01*
X148985714Y-63380000D01*
X149014285Y-63408571D01*
X149042857Y-63465714D01*
X149071428Y-63580000D01*
X149071428Y-63722857D01*
X149042857Y-63837142D01*
X149014285Y-63894285D01*
X148985714Y-63922857D01*
X148928571Y-63951428D01*
X148871428Y-63951428D01*
X148814285Y-63922857D01*
X148785714Y-63894285D01*
X148757142Y-63837142D01*
X148728571Y-63722857D01*
X148728571Y-63580000D01*
X148757142Y-63465714D01*
X148785714Y-63408571D01*
X148814285Y-63380000D01*
X148871428Y-63351428D01*
X149442857Y-63351428D02*
X149500000Y-63351428D01*
X149557142Y-63380000D01*
X149585714Y-63408571D01*
X149614285Y-63465714D01*
X149642857Y-63580000D01*
X149642857Y-63722857D01*
X149614285Y-63837142D01*
X149585714Y-63894285D01*
X149557142Y-63922857D01*
X149500000Y-63951428D01*
X149442857Y-63951428D01*
X149385714Y-63922857D01*
X149357142Y-63894285D01*
X149328571Y-63837142D01*
X149300000Y-63722857D01*
X149300000Y-63580000D01*
X149328571Y-63465714D01*
X149357142Y-63408571D01*
X149385714Y-63380000D01*
X149442857Y-63351428D01*
%TO.C,C103*%
X115714285Y-58771428D02*
X115742857Y-58800000D01*
X115771428Y-58885714D01*
X115771428Y-58942857D01*
X115742857Y-59028571D01*
X115685714Y-59085714D01*
X115628571Y-59114285D01*
X115514285Y-59142857D01*
X115428571Y-59142857D01*
X115314285Y-59114285D01*
X115257142Y-59085714D01*
X115200000Y-59028571D01*
X115171428Y-58942857D01*
X115171428Y-58885714D01*
X115200000Y-58800000D01*
X115228571Y-58771428D01*
X115771428Y-58200000D02*
X115771428Y-58542857D01*
X115771428Y-58371428D02*
X115171428Y-58371428D01*
X115257142Y-58428571D01*
X115314285Y-58485714D01*
X115342857Y-58542857D01*
X115171428Y-57828571D02*
X115171428Y-57771428D01*
X115200000Y-57714285D01*
X115228571Y-57685714D01*
X115285714Y-57657142D01*
X115400000Y-57628571D01*
X115542857Y-57628571D01*
X115657142Y-57657142D01*
X115714285Y-57685714D01*
X115742857Y-57714285D01*
X115771428Y-57771428D01*
X115771428Y-57828571D01*
X115742857Y-57885714D01*
X115714285Y-57914285D01*
X115657142Y-57942857D01*
X115542857Y-57971428D01*
X115400000Y-57971428D01*
X115285714Y-57942857D01*
X115228571Y-57914285D01*
X115200000Y-57885714D01*
X115171428Y-57828571D01*
X115171428Y-57428571D02*
X115171428Y-57057142D01*
X115400000Y-57257142D01*
X115400000Y-57171428D01*
X115428571Y-57114285D01*
X115457142Y-57085714D01*
X115514285Y-57057142D01*
X115657142Y-57057142D01*
X115714285Y-57085714D01*
X115742857Y-57114285D01*
X115771428Y-57171428D01*
X115771428Y-57342857D01*
X115742857Y-57400000D01*
X115714285Y-57428571D01*
%TO.C,C3*%
X124200000Y-71714285D02*
X124171428Y-71742857D01*
X124085714Y-71771428D01*
X124028571Y-71771428D01*
X123942857Y-71742857D01*
X123885714Y-71685714D01*
X123857142Y-71628571D01*
X123828571Y-71514285D01*
X123828571Y-71428571D01*
X123857142Y-71314285D01*
X123885714Y-71257142D01*
X123942857Y-71200000D01*
X124028571Y-71171428D01*
X124085714Y-71171428D01*
X124171428Y-71200000D01*
X124200000Y-71228571D01*
X124400000Y-71171428D02*
X124771428Y-71171428D01*
X124571428Y-71400000D01*
X124657142Y-71400000D01*
X124714285Y-71428571D01*
X124742857Y-71457142D01*
X124771428Y-71514285D01*
X124771428Y-71657142D01*
X124742857Y-71714285D01*
X124714285Y-71742857D01*
X124657142Y-71771428D01*
X124485714Y-71771428D01*
X124428571Y-71742857D01*
X124400000Y-71714285D01*
%TO.C,U6*%
X124542857Y-62171428D02*
X124542857Y-62657142D01*
X124571428Y-62714285D01*
X124600000Y-62742857D01*
X124657142Y-62771428D01*
X124771428Y-62771428D01*
X124828571Y-62742857D01*
X124857142Y-62714285D01*
X124885714Y-62657142D01*
X124885714Y-62171428D01*
X125428571Y-62171428D02*
X125314285Y-62171428D01*
X125257142Y-62200000D01*
X125228571Y-62228571D01*
X125171428Y-62314285D01*
X125142857Y-62428571D01*
X125142857Y-62657142D01*
X125171428Y-62714285D01*
X125200000Y-62742857D01*
X125257142Y-62771428D01*
X125371428Y-62771428D01*
X125428571Y-62742857D01*
X125457142Y-62714285D01*
X125485714Y-62657142D01*
X125485714Y-62514285D01*
X125457142Y-62457142D01*
X125428571Y-62428571D01*
X125371428Y-62400000D01*
X125257142Y-62400000D01*
X125200000Y-62428571D01*
X125171428Y-62457142D01*
X125142857Y-62514285D01*
%TO.C,R4*%
X126100000Y-54071428D02*
X125900000Y-53785714D01*
X125757142Y-54071428D02*
X125757142Y-53471428D01*
X125985714Y-53471428D01*
X126042857Y-53500000D01*
X126071428Y-53528571D01*
X126100000Y-53585714D01*
X126100000Y-53671428D01*
X126071428Y-53728571D01*
X126042857Y-53757142D01*
X125985714Y-53785714D01*
X125757142Y-53785714D01*
X126614285Y-53671428D02*
X126614285Y-54071428D01*
X126471428Y-53442857D02*
X126328571Y-53871428D01*
X126700000Y-53871428D01*
%TO.C,U3*%
X126542857Y-72271428D02*
X126542857Y-72757142D01*
X126571428Y-72814285D01*
X126600000Y-72842857D01*
X126657142Y-72871428D01*
X126771428Y-72871428D01*
X126828571Y-72842857D01*
X126857142Y-72814285D01*
X126885714Y-72757142D01*
X126885714Y-72271428D01*
X127114285Y-72271428D02*
X127485714Y-72271428D01*
X127285714Y-72500000D01*
X127371428Y-72500000D01*
X127428571Y-72528571D01*
X127457142Y-72557142D01*
X127485714Y-72614285D01*
X127485714Y-72757142D01*
X127457142Y-72814285D01*
X127428571Y-72842857D01*
X127371428Y-72871428D01*
X127200000Y-72871428D01*
X127142857Y-72842857D01*
X127114285Y-72814285D01*
%TO.C,R62*%
X117171428Y-76885714D02*
X116885714Y-77085714D01*
X117171428Y-77228571D02*
X116571428Y-77228571D01*
X116571428Y-77000000D01*
X116600000Y-76942857D01*
X116628571Y-76914285D01*
X116685714Y-76885714D01*
X116771428Y-76885714D01*
X116828571Y-76914285D01*
X116857142Y-76942857D01*
X116885714Y-77000000D01*
X116885714Y-77228571D01*
X116571428Y-76371428D02*
X116571428Y-76485714D01*
X116600000Y-76542857D01*
X116628571Y-76571428D01*
X116714285Y-76628571D01*
X116828571Y-76657142D01*
X117057142Y-76657142D01*
X117114285Y-76628571D01*
X117142857Y-76600000D01*
X117171428Y-76542857D01*
X117171428Y-76428571D01*
X117142857Y-76371428D01*
X117114285Y-76342857D01*
X117057142Y-76314285D01*
X116914285Y-76314285D01*
X116857142Y-76342857D01*
X116828571Y-76371428D01*
X116800000Y-76428571D01*
X116800000Y-76542857D01*
X116828571Y-76600000D01*
X116857142Y-76628571D01*
X116914285Y-76657142D01*
X116628571Y-76085714D02*
X116600000Y-76057142D01*
X116571428Y-76000000D01*
X116571428Y-75857142D01*
X116600000Y-75800000D01*
X116628571Y-75771428D01*
X116685714Y-75742857D01*
X116742857Y-75742857D01*
X116828571Y-75771428D01*
X117171428Y-76114285D01*
X117171428Y-75742857D01*
%TO.C,C8*%
X128200000Y-71714285D02*
X128171428Y-71742857D01*
X128085714Y-71771428D01*
X128028571Y-71771428D01*
X127942857Y-71742857D01*
X127885714Y-71685714D01*
X127857142Y-71628571D01*
X127828571Y-71514285D01*
X127828571Y-71428571D01*
X127857142Y-71314285D01*
X127885714Y-71257142D01*
X127942857Y-71200000D01*
X128028571Y-71171428D01*
X128085714Y-71171428D01*
X128171428Y-71200000D01*
X128200000Y-71228571D01*
X128542857Y-71428571D02*
X128485714Y-71400000D01*
X128457142Y-71371428D01*
X128428571Y-71314285D01*
X128428571Y-71285714D01*
X128457142Y-71228571D01*
X128485714Y-71200000D01*
X128542857Y-71171428D01*
X128657142Y-71171428D01*
X128714285Y-71200000D01*
X128742857Y-71228571D01*
X128771428Y-71285714D01*
X128771428Y-71314285D01*
X128742857Y-71371428D01*
X128714285Y-71400000D01*
X128657142Y-71428571D01*
X128542857Y-71428571D01*
X128485714Y-71457142D01*
X128457142Y-71485714D01*
X128428571Y-71542857D01*
X128428571Y-71657142D01*
X128457142Y-71714285D01*
X128485714Y-71742857D01*
X128542857Y-71771428D01*
X128657142Y-71771428D01*
X128714285Y-71742857D01*
X128742857Y-71714285D01*
X128771428Y-71657142D01*
X128771428Y-71542857D01*
X128742857Y-71485714D01*
X128714285Y-71457142D01*
X128657142Y-71428571D01*
%TO.C,C99*%
X141214285Y-65534285D02*
X141185714Y-65562857D01*
X141100000Y-65591428D01*
X141042857Y-65591428D01*
X140957142Y-65562857D01*
X140900000Y-65505714D01*
X140871428Y-65448571D01*
X140842857Y-65334285D01*
X140842857Y-65248571D01*
X140871428Y-65134285D01*
X140900000Y-65077142D01*
X140957142Y-65020000D01*
X141042857Y-64991428D01*
X141100000Y-64991428D01*
X141185714Y-65020000D01*
X141214285Y-65048571D01*
X141500000Y-65591428D02*
X141614285Y-65591428D01*
X141671428Y-65562857D01*
X141700000Y-65534285D01*
X141757142Y-65448571D01*
X141785714Y-65334285D01*
X141785714Y-65105714D01*
X141757142Y-65048571D01*
X141728571Y-65020000D01*
X141671428Y-64991428D01*
X141557142Y-64991428D01*
X141500000Y-65020000D01*
X141471428Y-65048571D01*
X141442857Y-65105714D01*
X141442857Y-65248571D01*
X141471428Y-65305714D01*
X141500000Y-65334285D01*
X141557142Y-65362857D01*
X141671428Y-65362857D01*
X141728571Y-65334285D01*
X141757142Y-65305714D01*
X141785714Y-65248571D01*
X142071428Y-65591428D02*
X142185714Y-65591428D01*
X142242857Y-65562857D01*
X142271428Y-65534285D01*
X142328571Y-65448571D01*
X142357142Y-65334285D01*
X142357142Y-65105714D01*
X142328571Y-65048571D01*
X142300000Y-65020000D01*
X142242857Y-64991428D01*
X142128571Y-64991428D01*
X142071428Y-65020000D01*
X142042857Y-65048571D01*
X142014285Y-65105714D01*
X142014285Y-65248571D01*
X142042857Y-65305714D01*
X142071428Y-65334285D01*
X142128571Y-65362857D01*
X142242857Y-65362857D01*
X142300000Y-65334285D01*
X142328571Y-65305714D01*
X142357142Y-65248571D01*
%TO.C,C41*%
X141900000Y-69300000D02*
X141600000Y-69300000D01*
X141900000Y-68700000D02*
X141900000Y-69300000D01*
X141600000Y-68700000D02*
X141900000Y-68700000D01*
X141600000Y-69300000D02*
X141600000Y-68700000D01*
%TO.C,C49*%
X144950000Y-77300000D02*
X145550000Y-77300000D01*
X145550000Y-77600000D02*
X144950000Y-77600000D01*
X144950000Y-77600000D02*
X144950000Y-77300000D01*
X145550000Y-77300000D02*
X145550000Y-77600000D01*
%TO.C,C65*%
X120850000Y-77500000D02*
X120850000Y-77000000D01*
X120850000Y-77000000D02*
X121850000Y-77000000D01*
X121850000Y-77500000D02*
X120850000Y-77500000D01*
X121850000Y-77000000D02*
X121850000Y-77500000D01*
%TO.C,C69*%
X132800000Y-74950000D02*
X132800000Y-75250000D01*
X132200000Y-75250000D02*
X132200000Y-74950000D01*
X132200000Y-74950000D02*
X132800000Y-74950000D01*
X132800000Y-75250000D02*
X132200000Y-75250000D01*
%TO.C,FB3*%
X123400000Y-76200000D02*
X123400000Y-77800000D01*
X123400000Y-77800000D02*
X122600000Y-77800000D01*
X122600000Y-76200000D02*
X123400000Y-76200000D01*
X122600000Y-77800000D02*
X122600000Y-76200000D01*
%TO.C,R26*%
X130580000Y-53950000D02*
X129980000Y-53950000D01*
X129980000Y-53950000D02*
X129980000Y-53650000D01*
X130580000Y-53650000D02*
X130580000Y-53950000D01*
X129980000Y-53650000D02*
X130580000Y-53650000D01*
%TO.C,R40*%
X131000000Y-81900000D02*
X134200000Y-81900000D01*
X134200000Y-81900000D02*
X134200000Y-80300000D01*
X134200000Y-80300000D02*
X131000000Y-80300000D01*
X131000000Y-80300000D02*
X131000000Y-81900000D01*
D11*
%TO.C,U13*%
X124000000Y-79000000D02*
X124000000Y-81000000D01*
X124000000Y-81000000D02*
X122500000Y-81000000D01*
X122000000Y-79000000D02*
X124000000Y-79000000D01*
X122000000Y-80500000D02*
X122000000Y-79000000D01*
X122500000Y-81000000D02*
X122000000Y-80500000D01*
D10*
%TO.C,R44*%
X148850000Y-75370000D02*
X148550000Y-75370000D01*
X148550000Y-75370000D02*
X148550000Y-74770000D01*
X148550000Y-74770000D02*
X148850000Y-74770000D01*
X148850000Y-74770000D02*
X148850000Y-75370000D01*
%TO.C,R23*%
X133850000Y-58750000D02*
X134150000Y-58750000D01*
X134150000Y-58750000D02*
X134150000Y-59350000D01*
X133850000Y-59350000D02*
X133850000Y-58750000D01*
X134150000Y-59350000D02*
X133850000Y-59350000D01*
%TO.C,C45*%
X140450000Y-77300000D02*
X141050000Y-77300000D01*
X141050000Y-77600000D02*
X140450000Y-77600000D01*
X141050000Y-77300000D02*
X141050000Y-77600000D01*
X140450000Y-77600000D02*
X140450000Y-77300000D01*
%TO.C,U5*%
X136400000Y-59100000D02*
X136400000Y-54100000D01*
X140800000Y-58100000D02*
X139800000Y-59100000D01*
X139800000Y-59100000D02*
X136400000Y-59100000D01*
X140800000Y-54100000D02*
X140800000Y-58100000D01*
X136400000Y-54100000D02*
X140800000Y-54100000D01*
%TO.C,R20*%
X142650000Y-56100000D02*
X142650000Y-55500000D01*
X142950000Y-56100000D02*
X142650000Y-56100000D01*
X142950000Y-55500000D02*
X142950000Y-56100000D01*
X142650000Y-55500000D02*
X142950000Y-55500000D01*
%TO.C,R21*%
X133850000Y-54550000D02*
X134150000Y-54550000D01*
X133850000Y-55150000D02*
X133850000Y-54550000D01*
X134150000Y-55150000D02*
X133850000Y-55150000D01*
X134150000Y-54550000D02*
X134150000Y-55150000D01*
%TO.C,C37*%
X138450000Y-73100000D02*
X138450000Y-74100000D01*
X137950000Y-74100000D02*
X137950000Y-73100000D01*
X138450000Y-74100000D02*
X137950000Y-74100000D01*
X137950000Y-73100000D02*
X138450000Y-73100000D01*
%TO.C,Q1*%
X131000000Y-51300000D02*
X131000000Y-50700000D01*
X132000000Y-50700000D02*
X132000000Y-51150000D01*
X131000000Y-50700000D02*
X132000000Y-50700000D01*
X131850000Y-51300000D02*
X132000000Y-51150000D01*
X131850000Y-51300000D02*
X131000000Y-51300000D01*
%TO.C,C43*%
X139200000Y-76250000D02*
X138900000Y-76250000D01*
X139200000Y-75650000D02*
X139200000Y-76250000D01*
X138900000Y-76250000D02*
X138900000Y-75650000D01*
X138900000Y-75650000D02*
X139200000Y-75650000D01*
%TO.C,R41*%
X137800000Y-81900000D02*
X141000000Y-81900000D01*
X141000000Y-81900000D02*
X141000000Y-80300000D01*
X141000000Y-80300000D02*
X137800000Y-80300000D01*
X137800000Y-80300000D02*
X137800000Y-81900000D01*
%TO.C,R37*%
X114600000Y-73100000D02*
X115200000Y-73100000D01*
X114600000Y-73400000D02*
X114600000Y-73100000D01*
X115200000Y-73400000D02*
X114600000Y-73400000D01*
X115200000Y-73100000D02*
X115200000Y-73400000D01*
%TO.C,R45*%
X148150000Y-73230000D02*
X147850000Y-73230000D01*
X148150000Y-72630000D02*
X148150000Y-73230000D01*
X147850000Y-73230000D02*
X147850000Y-72630000D01*
X147850000Y-72630000D02*
X148150000Y-72630000D01*
%TO.C,R46*%
X149025000Y-72630000D02*
X149025000Y-73230000D01*
X149025000Y-73230000D02*
X148725000Y-73230000D01*
X148725000Y-73230000D02*
X148725000Y-72630000D01*
X148725000Y-72630000D02*
X149025000Y-72630000D01*
%TO.C,D9*%
X115250000Y-74300000D02*
X115250000Y-75300000D01*
X114750000Y-74400000D02*
X115250000Y-74400000D01*
X114750000Y-75300000D02*
X114750000Y-74300000D01*
X114750000Y-74500000D02*
X115250000Y-74500000D01*
X115250000Y-75300000D02*
X114750000Y-75300000D01*
X114750000Y-74300000D02*
X115250000Y-74300000D01*
%TO.C,C27*%
X105770000Y-68950000D02*
X105770000Y-69450000D01*
X105770000Y-69450000D02*
X104770000Y-69450000D01*
X104770000Y-68950000D02*
X105770000Y-68950000D01*
X104770000Y-69450000D02*
X104770000Y-68950000D01*
%TO.C,J11*%
X143450000Y-105125000D02*
X133150000Y-105125000D01*
X132545000Y-96975000D02*
X131600000Y-96975000D01*
X144050000Y-99025000D02*
X144050000Y-97025000D01*
X145000000Y-94975000D02*
X131600000Y-94975000D01*
X144050000Y-99025000D02*
X132550000Y-99025000D01*
X136550000Y-105125000D02*
X136550000Y-99025000D01*
X132550000Y-99025000D02*
X132550000Y-96975000D01*
X133150000Y-105125000D02*
X133150000Y-99025000D01*
X145000000Y-96975000D02*
X144050000Y-96975000D01*
X143450000Y-105125000D02*
X143450000Y-99025000D01*
X131600000Y-94975000D02*
G75*
G03*
X131600000Y-96975000I0J-1000000D01*
G01*
X145000000Y-96975000D02*
G75*
G03*
X145000000Y-94975000I0J1000000D01*
G01*
%TO.C,R53*%
X121820000Y-77950000D02*
X121820000Y-78250000D01*
X121220000Y-78250000D02*
X121220000Y-77950000D01*
X121820000Y-78250000D02*
X121220000Y-78250000D01*
X121220000Y-77950000D02*
X121820000Y-77950000D01*
%TO.C,C62*%
X130900000Y-79250000D02*
X129900000Y-79250000D01*
X129900000Y-79250000D02*
X129900000Y-78750000D01*
X129900000Y-78750000D02*
X130900000Y-78750000D01*
X130900000Y-78750000D02*
X130900000Y-79250000D01*
%TO.C,R52*%
X126050000Y-79620000D02*
X126050000Y-79020000D01*
X126050000Y-79020000D02*
X126350000Y-79020000D01*
X126350000Y-79620000D02*
X126050000Y-79620000D01*
X126350000Y-79020000D02*
X126350000Y-79620000D01*
%TO.C,C25*%
X101900000Y-72700000D02*
X101900000Y-74300000D01*
X101100000Y-74300000D02*
X101100000Y-72700000D01*
X101900000Y-74300000D02*
X101100000Y-74300000D01*
X101100000Y-72700000D02*
X101900000Y-72700000D01*
%TO.C,C29*%
X103600000Y-70800000D02*
X102000000Y-70800000D01*
X103600000Y-70000000D02*
X103600000Y-70800000D01*
X102000000Y-70800000D02*
X102000000Y-70000000D01*
X102000000Y-70000000D02*
X103600000Y-70000000D01*
%TO.C,C28*%
X106900000Y-69300000D02*
X106600000Y-69300000D01*
X106600000Y-69300000D02*
X106600000Y-68700000D01*
X106900000Y-68700000D02*
X106900000Y-69300000D01*
X106600000Y-68700000D02*
X106900000Y-68700000D01*
%TO.C,C68*%
X130550000Y-74950000D02*
X131150000Y-74950000D01*
X131150000Y-74950000D02*
X131150000Y-75250000D01*
X130550000Y-75250000D02*
X130550000Y-74950000D01*
X131150000Y-75250000D02*
X130550000Y-75250000D01*
%TO.C,R51*%
X126820000Y-78250000D02*
X126220000Y-78250000D01*
X126220000Y-77950000D02*
X126820000Y-77950000D01*
X126220000Y-78250000D02*
X126220000Y-77950000D01*
X126820000Y-77950000D02*
X126820000Y-78250000D01*
%TO.C,C31*%
X112300000Y-74400000D02*
X112300000Y-74100000D01*
X112900000Y-74100000D02*
X112900000Y-74400000D01*
X112900000Y-74400000D02*
X112300000Y-74400000D01*
X112300000Y-74100000D02*
X112900000Y-74100000D01*
%TO.C,D10*%
X148250000Y-71185000D02*
X147750000Y-71185000D01*
X147750000Y-71385000D02*
X147750000Y-70385000D01*
X147750000Y-70385000D02*
X148250000Y-70385000D01*
X148250000Y-71385000D02*
X147750000Y-71385000D01*
X148250000Y-70385000D02*
X148250000Y-71385000D01*
X148250000Y-71285000D02*
X147750000Y-71285000D01*
%TO.C,C40*%
X140750000Y-69400000D02*
X140250000Y-69400000D01*
X140250000Y-68400000D02*
X140750000Y-68400000D01*
X140250000Y-69400000D02*
X140250000Y-68400000D01*
X140750000Y-68400000D02*
X140750000Y-69400000D01*
%TO.C,C38*%
X136500000Y-70675000D02*
X137300000Y-70675000D01*
X137300000Y-70675000D02*
X137300000Y-72275000D01*
X136500000Y-72275000D02*
X136500000Y-70675000D01*
X137300000Y-72275000D02*
X136500000Y-72275000D01*
%TO.C,J6*%
X129950000Y-101600000D02*
X120050000Y-101600000D01*
X129950000Y-92600000D02*
X120050000Y-92600000D01*
X129950000Y-101600000D02*
X129950000Y-99500000D01*
X120050000Y-101600000D02*
X120050000Y-99500000D01*
X120050000Y-99500000D02*
X119350000Y-99500000D01*
X130650000Y-97500000D02*
X129950000Y-97500000D01*
X130650000Y-99500000D02*
X129950000Y-99500000D01*
X129950000Y-97500000D02*
X129950000Y-92600000D01*
X120050000Y-97500000D02*
X120050000Y-92600000D01*
X120050000Y-97500000D02*
X119350000Y-97500000D01*
X119350000Y-97500000D02*
G75*
G03*
X119350000Y-99500000I0J-1000000D01*
G01*
X130650000Y-99500000D02*
G75*
G03*
X130650000Y-97500000I0J1000000D01*
G01*
%TO.C,R39*%
X115000000Y-81900000D02*
X118200000Y-81900000D01*
X118200000Y-81900000D02*
X118200000Y-80300000D01*
X118200000Y-80300000D02*
X115000000Y-80300000D01*
X115000000Y-80300000D02*
X115000000Y-81900000D01*
%TO.C,C36*%
X109950000Y-77300000D02*
X110550000Y-77300000D01*
X109950000Y-77600000D02*
X109950000Y-77300000D01*
X110550000Y-77300000D02*
X110550000Y-77600000D01*
X110550000Y-77600000D02*
X109950000Y-77600000D01*
%TO.C,C30*%
X103900000Y-75650000D02*
X104200000Y-75650000D01*
X104200000Y-75650000D02*
X104200000Y-76250000D01*
X103900000Y-76250000D02*
X103900000Y-75650000D01*
X104200000Y-76250000D02*
X103900000Y-76250000D01*
%TO.C,C32*%
X106050000Y-77300000D02*
X106050000Y-77600000D01*
X106050000Y-77600000D02*
X105450000Y-77600000D01*
X105450000Y-77300000D02*
X106050000Y-77300000D01*
X105450000Y-77600000D02*
X105450000Y-77300000D01*
%TO.C,R32*%
X108200000Y-81900000D02*
X111400000Y-81900000D01*
X111400000Y-81900000D02*
X111400000Y-80300000D01*
X111400000Y-80300000D02*
X108200000Y-80300000D01*
X108200000Y-80300000D02*
X108200000Y-81900000D01*
%TO.C,R42*%
X147250000Y-76370000D02*
X146950000Y-76370000D01*
X146950000Y-76370000D02*
X146950000Y-75770000D01*
X146950000Y-75770000D02*
X147250000Y-75770000D01*
X147250000Y-75770000D02*
X147250000Y-76370000D01*
%TO.C,R34*%
X112750000Y-75270000D02*
X113050000Y-75270000D01*
X112750000Y-75870000D02*
X112750000Y-75270000D01*
X113050000Y-75870000D02*
X112750000Y-75870000D01*
X113050000Y-75270000D02*
X113050000Y-75870000D01*
%TO.C,J10*%
X105950000Y-99025000D02*
X105950000Y-96975000D01*
X116850000Y-105125000D02*
X116850000Y-99025000D01*
X116850000Y-105125000D02*
X106550000Y-105125000D01*
X105945000Y-96975000D02*
X105000000Y-96975000D01*
X117450000Y-99025000D02*
X105950000Y-99025000D01*
X106550000Y-105125000D02*
X106550000Y-99025000D01*
X117450000Y-99025000D02*
X117450000Y-97025000D01*
X118400000Y-94975000D02*
X105000000Y-94975000D01*
X118400000Y-96975000D02*
X117450000Y-96975000D01*
X109950000Y-105125000D02*
X109950000Y-99025000D01*
X105000000Y-94975000D02*
G75*
G03*
X105000000Y-96975000I0J-1000000D01*
G01*
X118400000Y-96975000D02*
G75*
G03*
X118400000Y-94975000I0J1000000D01*
G01*
%TO.C,R54*%
X121050000Y-79020000D02*
X121350000Y-79020000D01*
X121050000Y-79620000D02*
X121050000Y-79020000D01*
X121350000Y-79020000D02*
X121350000Y-79620000D01*
X121350000Y-79620000D02*
X121050000Y-79620000D01*
%TO.C,FB1*%
X127600000Y-77800000D02*
X127600000Y-76200000D01*
X127600000Y-76200000D02*
X128400000Y-76200000D01*
X128400000Y-76200000D02*
X128400000Y-77800000D01*
X128400000Y-77800000D02*
X127600000Y-77800000D01*
%TO.C,FB2*%
X129900000Y-77800000D02*
X129100000Y-77800000D01*
X129900000Y-76200000D02*
X129900000Y-77800000D01*
X129100000Y-76200000D02*
X129900000Y-76200000D01*
X129100000Y-77800000D02*
X129100000Y-76200000D01*
%TO.C,R29*%
X132850000Y-50800000D02*
X133150000Y-50800000D01*
X133150000Y-51400000D02*
X132850000Y-51400000D01*
X132850000Y-51400000D02*
X132850000Y-50800000D01*
X133150000Y-50800000D02*
X133150000Y-51400000D01*
%TO.C,C14*%
X134150000Y-56550000D02*
X133850000Y-56550000D01*
X133850000Y-56550000D02*
X133850000Y-55950000D01*
X134150000Y-55950000D02*
X134150000Y-56550000D01*
X133850000Y-55950000D02*
X134150000Y-55950000D01*
%TO.C,R33*%
X112250000Y-76370000D02*
X111950000Y-76370000D01*
X111950000Y-75770000D02*
X112250000Y-75770000D01*
X111950000Y-76370000D02*
X111950000Y-75770000D01*
X112250000Y-75770000D02*
X112250000Y-76370000D01*
%TO.C,R43*%
X148050000Y-75870000D02*
X147750000Y-75870000D01*
X147750000Y-75870000D02*
X147750000Y-75270000D01*
X148050000Y-75270000D02*
X148050000Y-75870000D01*
X147750000Y-75270000D02*
X148050000Y-75270000D01*
%TO.C,R35*%
X113550000Y-74770000D02*
X113850000Y-74770000D01*
X113550000Y-75370000D02*
X113550000Y-74770000D01*
X113850000Y-74770000D02*
X113850000Y-75370000D01*
X113850000Y-75370000D02*
X113550000Y-75370000D01*
%TO.C,R19*%
X142950000Y-56900000D02*
X142950000Y-57500000D01*
X142650000Y-57500000D02*
X142650000Y-56900000D01*
X142650000Y-56900000D02*
X142950000Y-56900000D01*
X142950000Y-57500000D02*
X142650000Y-57500000D01*
%TO.C,R31*%
X101400000Y-81900000D02*
X104600000Y-81900000D01*
X104600000Y-81900000D02*
X104600000Y-80300000D01*
X104600000Y-80300000D02*
X101400000Y-80300000D01*
X101400000Y-80300000D02*
X101400000Y-81900000D01*
%TO.C,J5*%
X146900000Y-60150000D02*
X146200000Y-59700000D01*
X146200000Y-60600000D02*
X146900000Y-60150000D01*
X149800000Y-60600000D02*
X146200000Y-60600000D01*
X146200000Y-60600000D02*
X146200000Y-54900000D01*
X146200000Y-54900000D02*
X149800000Y-54900000D01*
X149800000Y-54900000D02*
X149800000Y-60600000D01*
%TO.C,R47*%
X144600000Y-81900000D02*
X147800000Y-81900000D01*
X147800000Y-81900000D02*
X147800000Y-80300000D01*
X147800000Y-80300000D02*
X144600000Y-80300000D01*
X144600000Y-80300000D02*
X144600000Y-81900000D01*
%TO.C,U9*%
X106000000Y-70500000D02*
X111000000Y-70500000D01*
X105000000Y-76500000D02*
X105000000Y-71500000D01*
X111000000Y-76500000D02*
X105000000Y-76500000D01*
X105000000Y-71500000D02*
X106000000Y-70500000D01*
X111000000Y-70500000D02*
X111000000Y-76500000D01*
%TO.C,U10*%
X146000000Y-70500000D02*
X146000000Y-76500000D01*
X146000000Y-76500000D02*
X140000000Y-76500000D01*
X140000000Y-76500000D02*
X140000000Y-71500000D01*
X140000000Y-71500000D02*
X141000000Y-70500000D01*
X141000000Y-70500000D02*
X146000000Y-70500000D01*
%TO.C,R18*%
X142650000Y-58300000D02*
X142950000Y-58300000D01*
X142950000Y-58300000D02*
X142950000Y-58900000D01*
X142650000Y-58900000D02*
X142650000Y-58300000D01*
X142950000Y-58900000D02*
X142650000Y-58900000D01*
D12*
%TO.C,Q2*%
X106449999Y-83050000D02*
X100350001Y-83050000D01*
X106449999Y-88150000D02*
X106449999Y-83050000D01*
X100900000Y-88150000D02*
X100350001Y-87600000D01*
X100350001Y-87600000D02*
X100350001Y-83050000D01*
X106449999Y-88150000D02*
X100900000Y-88150000D01*
%TO.C,Q3*%
X107150001Y-87600000D02*
X107150001Y-83050000D01*
X113249999Y-88150000D02*
X113249999Y-83050000D01*
X113249999Y-88150000D02*
X107700000Y-88150000D01*
X107700000Y-88150000D02*
X107150001Y-87600000D01*
X113249999Y-83050000D02*
X107150001Y-83050000D01*
%TO.C,Q4*%
X113950001Y-87600000D02*
X113950001Y-83050000D01*
X114500000Y-88150000D02*
X113950001Y-87600000D01*
X120049999Y-88150000D02*
X114500000Y-88150000D01*
X120049999Y-88150000D02*
X120049999Y-83050000D01*
X120049999Y-83050000D02*
X113950001Y-83050000D01*
%TO.C,Q5*%
X136049999Y-88150000D02*
X136049999Y-83050000D01*
X130500000Y-88150000D02*
X129950001Y-87600000D01*
X136049999Y-88150000D02*
X130500000Y-88150000D01*
X129950001Y-87600000D02*
X129950001Y-83050000D01*
X136049999Y-83050000D02*
X129950001Y-83050000D01*
%TO.C,Q6*%
X136750001Y-87600000D02*
X136750001Y-83050000D01*
X142849999Y-88150000D02*
X137300000Y-88150000D01*
X137300000Y-88150000D02*
X136750001Y-87600000D01*
X142849999Y-83050000D02*
X136750001Y-83050000D01*
X142849999Y-88150000D02*
X142849999Y-83050000D01*
%TO.C,Q7*%
X149649999Y-83050000D02*
X143550001Y-83050000D01*
X144100000Y-88150000D02*
X143550001Y-87600000D01*
X149649999Y-88150000D02*
X149649999Y-83050000D01*
X149649999Y-88150000D02*
X144100000Y-88150000D01*
X143550001Y-87600000D02*
X143550001Y-83050000D01*
D10*
%TO.C,U14*%
X129700000Y-74450000D02*
X129700000Y-71950000D01*
X131300000Y-74450000D02*
X129700000Y-74450000D01*
X130100000Y-71550000D02*
X131300000Y-71550000D01*
X131300000Y-71550000D02*
X131300000Y-74450000D01*
X129700000Y-71950000D02*
X130100000Y-71550000D01*
%TO.C,D6*%
X129750000Y-52615000D02*
X129250000Y-52615000D01*
X129750000Y-51615000D02*
X129750000Y-52615000D01*
X129250000Y-52615000D02*
X129250000Y-51615000D01*
X129750000Y-52415000D02*
X129250000Y-52415000D01*
X129250000Y-51615000D02*
X129750000Y-51615000D01*
X129750000Y-52515000D02*
X129250000Y-52515000D01*
%TO.C,C44*%
X148100000Y-74150000D02*
X148100000Y-73850000D01*
X148700000Y-73850000D02*
X148700000Y-74150000D01*
X148700000Y-74150000D02*
X148100000Y-74150000D01*
X148100000Y-73850000D02*
X148700000Y-73850000D01*
D11*
%TO.C,U12*%
X129000000Y-79000000D02*
X129000000Y-81000000D01*
X127000000Y-80500000D02*
X127000000Y-79000000D01*
X127000000Y-79000000D02*
X129000000Y-79000000D01*
X129000000Y-81000000D02*
X127500000Y-81000000D01*
X127500000Y-81000000D02*
X127000000Y-80500000D01*
D10*
%TO.C,C42*%
X138050000Y-69550000D02*
X138850000Y-69550000D01*
X138850000Y-69550000D02*
X138850000Y-71150000D01*
X138850000Y-71150000D02*
X138050000Y-71150000D01*
X138050000Y-71150000D02*
X138050000Y-69550000D01*
%TO.C,R38*%
X113850000Y-73870000D02*
X113550000Y-73870000D01*
X113550000Y-73870000D02*
X113550000Y-73270000D01*
X113850000Y-73270000D02*
X113850000Y-73870000D01*
X113550000Y-73270000D02*
X113850000Y-73270000D01*
%TO.C,C24*%
X102950000Y-74100000D02*
X102950000Y-73100000D01*
X102950000Y-73100000D02*
X103450000Y-73100000D01*
X103450000Y-74100000D02*
X102950000Y-74100000D01*
X103450000Y-73100000D02*
X103450000Y-74100000D01*
%TO.C,C104*%
X113350000Y-56800000D02*
X113350000Y-56200000D01*
X113650000Y-56200000D02*
X113650000Y-56800000D01*
X113350000Y-56200000D02*
X113650000Y-56200000D01*
X113650000Y-56800000D02*
X113350000Y-56800000D01*
%TO.C,J15*%
X114420000Y-55050000D02*
X106920000Y-55050000D01*
X114420000Y-50200000D02*
X114420000Y-55050000D01*
X113920000Y-50750000D02*
X107420000Y-50750000D01*
X106920000Y-55050000D02*
X106920000Y-50200000D01*
X106920000Y-50200000D02*
X114420000Y-50200000D01*
%TO.C,D11*%
X112600000Y-57000000D02*
X111600000Y-57000000D01*
X111800000Y-57000000D02*
X111800000Y-56500000D01*
X111700000Y-57000000D02*
X111700000Y-56500000D01*
X111600000Y-56500000D02*
X112600000Y-56500000D01*
X111600000Y-57000000D02*
X111600000Y-56500000D01*
X112600000Y-56500000D02*
X112600000Y-57000000D01*
%TO.C,D12*%
X110200000Y-56500000D02*
X110200000Y-57000000D01*
X110400000Y-56500000D02*
X110400000Y-57000000D01*
X109400000Y-56500000D02*
X110400000Y-56500000D01*
X110400000Y-57000000D02*
X109400000Y-57000000D01*
X109400000Y-57000000D02*
X109400000Y-56500000D01*
X110300000Y-56500000D02*
X110300000Y-57000000D01*
%TO.C,SW1*%
X137500000Y-53250000D02*
X134500000Y-53250000D01*
X134500000Y-53250000D02*
X134500000Y-50750000D01*
X137500000Y-50750000D02*
X137500000Y-53250000D01*
X134500000Y-50750000D02*
X137500000Y-50750000D01*
X136750000Y-52000000D02*
G75*
G03*
X136750000Y-52000000I-750000J0D01*
G01*
%TO.C,C23*%
X133150000Y-52600000D02*
X133150000Y-53200000D01*
X133150000Y-53200000D02*
X132850000Y-53200000D01*
X132850000Y-52600000D02*
X133150000Y-52600000D01*
X132850000Y-53200000D02*
X132850000Y-52600000D01*
%TO.C,C26*%
X100900000Y-71450000D02*
X101500000Y-71450000D01*
X100900000Y-71750000D02*
X100900000Y-71450000D01*
X101500000Y-71450000D02*
X101500000Y-71750000D01*
X101500000Y-71750000D02*
X100900000Y-71750000D01*
%TO.C,C39*%
X135400000Y-72100000D02*
X135400000Y-72400000D01*
X134800000Y-72100000D02*
X135400000Y-72100000D01*
X134800000Y-72400000D02*
X134800000Y-72100000D01*
X135400000Y-72400000D02*
X134800000Y-72400000D01*
%TO.C,J7*%
X144445000Y-53560000D02*
X139365000Y-53560000D01*
X139365000Y-51272500D02*
X140127500Y-50510000D01*
X140127500Y-50510000D02*
X144445000Y-50510000D01*
X144445000Y-50510000D02*
X144445000Y-53560000D01*
X139365000Y-53560000D02*
X139365000Y-51272500D01*
%TO.C,R36*%
X112900000Y-72900000D02*
X112300000Y-72900000D01*
X112900000Y-72600000D02*
X112900000Y-72900000D01*
X112300000Y-72900000D02*
X112300000Y-72600000D01*
X112300000Y-72600000D02*
X112900000Y-72600000D01*
%TO.C,R22*%
X133850000Y-57350000D02*
X134150000Y-57350000D01*
X134150000Y-57950000D02*
X133850000Y-57950000D01*
X134150000Y-57350000D02*
X134150000Y-57950000D01*
X133850000Y-57950000D02*
X133850000Y-57350000D01*
%TO.C,R30*%
X131130000Y-52450000D02*
X131130000Y-52750000D01*
X130530000Y-52450000D02*
X131130000Y-52450000D01*
X131130000Y-52750000D02*
X130530000Y-52750000D01*
X130530000Y-52750000D02*
X130530000Y-52450000D01*
%TO.C,C102*%
X119650000Y-74780000D02*
X119650000Y-74180000D01*
X119650000Y-74180000D02*
X119950000Y-74180000D01*
X119950000Y-74780000D02*
X119650000Y-74780000D01*
X119950000Y-74180000D02*
X119950000Y-74780000D01*
%TO.C,R17*%
X143950000Y-61105000D02*
X143950000Y-60505000D01*
X144250000Y-60505000D02*
X144250000Y-61105000D01*
X143950000Y-60505000D02*
X144250000Y-60505000D01*
X144250000Y-61105000D02*
X143950000Y-61105000D01*
%TO.C,J12*%
X103750000Y-68975000D02*
X103750000Y-54825000D01*
X103042893Y-67525000D02*
X103750000Y-67025000D01*
X100350000Y-68975000D02*
X103750000Y-68975000D01*
X103750000Y-54825000D02*
X100350000Y-54825000D01*
X103750000Y-68025000D02*
X103042893Y-67525000D01*
X100350000Y-54825000D02*
X100350000Y-68975000D01*
%TO.C,R2*%
X121480000Y-53650000D02*
X121480000Y-53950000D01*
X120880000Y-53650000D02*
X121480000Y-53650000D01*
X121480000Y-53950000D02*
X120880000Y-53950000D01*
X120880000Y-53950000D02*
X120880000Y-53650000D01*
%TO.C,U16*%
X143500000Y-62250000D02*
X145750000Y-62250000D01*
X143500000Y-66750000D02*
X143500000Y-62250000D01*
X145750000Y-62250000D02*
X146500000Y-63000000D01*
X146500000Y-63000000D02*
X146500000Y-66750000D01*
X146500000Y-66750000D02*
X143500000Y-66750000D01*
%TO.C,R64*%
X118400000Y-76800000D02*
X118100000Y-76800000D01*
X118100000Y-76800000D02*
X118100000Y-76200000D01*
X118400000Y-76200000D02*
X118400000Y-76800000D01*
X118100000Y-76200000D02*
X118400000Y-76200000D01*
%TO.C,U19*%
X115000000Y-57380000D02*
X114000000Y-57380000D01*
X114400000Y-55980000D02*
X115000000Y-55980000D01*
X114000000Y-56380000D02*
X114400000Y-55980000D01*
X114000000Y-56380000D02*
X114000000Y-57380000D01*
X115000000Y-55980000D02*
X115000000Y-57380000D01*
%TO.C,U1*%
X123700000Y-72100000D02*
X123700000Y-73100000D01*
X122700000Y-73100000D02*
X122300000Y-72700000D01*
X122300000Y-72700000D02*
X122300000Y-72100000D01*
X122300000Y-72100000D02*
X123700000Y-72100000D01*
X122700000Y-73100000D02*
X123700000Y-73100000D01*
%TO.C,D4*%
X106000000Y-61500000D02*
X106000000Y-66500000D01*
X111000000Y-66500000D02*
X111000000Y-61500000D01*
X111000000Y-61500000D02*
X106000000Y-61500000D01*
X106000000Y-66500000D02*
X111000000Y-66500000D01*
X107000000Y-66500000D02*
X106000000Y-65500000D01*
X110500000Y-64000000D02*
G75*
G03*
X110500000Y-64000000I-2000000J0D01*
G01*
%TO.C,R65*%
X118900000Y-71350000D02*
X118300000Y-71350000D01*
X118300000Y-71050000D02*
X118900000Y-71050000D01*
X118900000Y-71050000D02*
X118900000Y-71350000D01*
X118300000Y-71350000D02*
X118300000Y-71050000D01*
%TO.C,D2*%
X145250000Y-60500000D02*
X144750000Y-60500000D01*
X144750000Y-59700000D02*
X145250000Y-59700000D01*
X145250000Y-59500000D02*
X145250000Y-60500000D01*
X144750000Y-60500000D02*
X144750000Y-59500000D01*
X144750000Y-59600000D02*
X145250000Y-59600000D01*
X144750000Y-59500000D02*
X145250000Y-59500000D01*
%TO.C,U18*%
X118775000Y-71900000D02*
X119375000Y-72500000D01*
X116375000Y-74900000D02*
X116375000Y-71900000D01*
X119375000Y-74900000D02*
X116375000Y-74900000D01*
X116375000Y-71900000D02*
X118775000Y-71900000D01*
X119375000Y-72500000D02*
X119375000Y-74900000D01*
%TO.C,R1*%
X117880000Y-53950000D02*
X117880000Y-53650000D01*
X118480000Y-53950000D02*
X117880000Y-53950000D01*
X118480000Y-53650000D02*
X118480000Y-53950000D01*
X117880000Y-53650000D02*
X118480000Y-53650000D01*
%TO.C,C7*%
X125620000Y-71650000D02*
X125020000Y-71650000D01*
X125020000Y-71650000D02*
X125020000Y-71350000D01*
X125020000Y-71350000D02*
X125620000Y-71350000D01*
X125620000Y-71350000D02*
X125620000Y-71650000D01*
%TO.C,R3*%
X123880000Y-53650000D02*
X124480000Y-53650000D01*
X123880000Y-53950000D02*
X123880000Y-53650000D01*
X124480000Y-53650000D02*
X124480000Y-53950000D01*
X124480000Y-53950000D02*
X123880000Y-53950000D01*
%TO.C,R66*%
X116850000Y-71350000D02*
X116850000Y-71050000D01*
X117450000Y-71050000D02*
X117450000Y-71350000D01*
X116850000Y-71050000D02*
X117450000Y-71050000D01*
X117450000Y-71350000D02*
X116850000Y-71350000D01*
%TO.C,U2*%
X124300000Y-72700000D02*
X124300000Y-72100000D01*
X124700000Y-73100000D02*
X124300000Y-72700000D01*
X125700000Y-72100000D02*
X125700000Y-73100000D01*
X124300000Y-72100000D02*
X125700000Y-72100000D01*
X124700000Y-73100000D02*
X125700000Y-73100000D01*
D12*
%TO.C,D3*%
X143675000Y-55200001D02*
X143675000Y-58799999D01*
X145125000Y-55200001D02*
X145125000Y-58799999D01*
X145125000Y-55200001D02*
X143675000Y-55200001D01*
X145125000Y-58799999D02*
X143675000Y-58799999D01*
X144926773Y-58400000D02*
G75*
G03*
X144926773Y-58400000I-176774J0D01*
G01*
D10*
%TO.C,C100*%
X147050000Y-63380000D02*
X147350000Y-63380000D01*
X147350000Y-63380000D02*
X147350000Y-63980000D01*
X147050000Y-63980000D02*
X147050000Y-63380000D01*
X147350000Y-63980000D02*
X147050000Y-63980000D01*
%TO.C,C103*%
X115350000Y-56060000D02*
X115650000Y-56060000D01*
X115650000Y-56660000D02*
X115350000Y-56660000D01*
X115650000Y-56060000D02*
X115650000Y-56660000D01*
X115350000Y-56660000D02*
X115350000Y-56060000D01*
%TO.C,C3*%
X123020000Y-71650000D02*
X123020000Y-71350000D01*
X123620000Y-71350000D02*
X123620000Y-71650000D01*
X123620000Y-71650000D02*
X123020000Y-71650000D01*
X123020000Y-71350000D02*
X123620000Y-71350000D01*
%TO.C,U6*%
X116948200Y-69600000D02*
X117900000Y-70551800D01*
X133051800Y-54448200D02*
X133051800Y-70551800D01*
X133051800Y-54448200D02*
X116948200Y-54448200D01*
X117900000Y-70551800D02*
X133051800Y-70551800D01*
X116948200Y-54448200D02*
X116948200Y-69600000D01*
%TO.C,R4*%
X127480000Y-53950000D02*
X126880000Y-53950000D01*
X126880000Y-53950000D02*
X126880000Y-53650000D01*
X127480000Y-53650000D02*
X127480000Y-53950000D01*
X126880000Y-53650000D02*
X127480000Y-53650000D01*
%TO.C,U3*%
X126300000Y-72100000D02*
X127700000Y-72100000D01*
X126300000Y-72700000D02*
X126300000Y-72100000D01*
X127700000Y-72100000D02*
X127700000Y-73100000D01*
X126700000Y-73100000D02*
X126300000Y-72700000D01*
X126700000Y-73100000D02*
X127700000Y-73100000D01*
%TO.C,R62*%
X117650000Y-76800000D02*
X117350000Y-76800000D01*
X117350000Y-76800000D02*
X117350000Y-76200000D01*
X117350000Y-76200000D02*
X117650000Y-76200000D01*
X117650000Y-76200000D02*
X117650000Y-76800000D01*
%TO.C,C8*%
X127620000Y-71350000D02*
X127620000Y-71650000D01*
X127020000Y-71350000D02*
X127620000Y-71350000D01*
X127020000Y-71650000D02*
X127020000Y-71350000D01*
X127620000Y-71650000D02*
X127020000Y-71650000D01*
%TO.C,C99*%
X142550000Y-65020000D02*
X142850000Y-65020000D01*
X142850000Y-65620000D02*
X142550000Y-65620000D01*
X142850000Y-65020000D02*
X142850000Y-65620000D01*
X142550000Y-65620000D02*
X142550000Y-65020000D01*
%TD*%
M02*
