%TF.GenerationSoftware,KiCad,Pcbnew,8.0.2-8.0.2-0~ubuntu22.04.1*%
%TF.CreationDate,2024-05-23T17:41:41+02:00*%
%TF.ProjectId,omodri_sa_laas,6f6d6f64-7269-45f7-9361-5f6c6161732e,1.0*%
%TF.SameCoordinates,Original*%
%TF.FileFunction,Paste,Top*%
%TF.FilePolarity,Positive*%
%FSLAX46Y46*%
G04 Gerber Fmt 4.6, Leading zero omitted, Abs format (unit mm)*
G04 Created by KiCad (PCBNEW 8.0.2-8.0.2-0~ubuntu22.04.1) date 2024-05-23 17:41:41*
%MOMM*%
%LPD*%
G01*
G04 APERTURE LIST*
G04 Aperture macros list*
%AMRoundRect*
0 Rectangle with rounded corners*
0 $1 Rounding radius*
0 $2 $3 $4 $5 $6 $7 $8 $9 X,Y pos of 4 corners*
0 Add a 4 corners polygon primitive as box body*
4,1,4,$2,$3,$4,$5,$6,$7,$8,$9,$2,$3,0*
0 Add four circle primitives for the rounded corners*
1,1,$1+$1,$2,$3*
1,1,$1+$1,$4,$5*
1,1,$1+$1,$6,$7*
1,1,$1+$1,$8,$9*
0 Add four rect primitives between the rounded corners*
20,1,$1+$1,$2,$3,$4,$5,0*
20,1,$1+$1,$4,$5,$6,$7,0*
20,1,$1+$1,$6,$7,$8,$9,0*
20,1,$1+$1,$8,$9,$2,$3,0*%
G04 Aperture macros list end*
%ADD10C,0.250000*%
%ADD11C,0.300000*%
%ADD12C,0.100000*%
%ADD13RoundRect,0.140000X0.140000X0.170000X-0.140000X0.170000X-0.140000X-0.170000X0.140000X-0.170000X0*%
%ADD14RoundRect,0.079500X-0.079500X-0.100500X0.079500X-0.100500X0.079500X0.100500X-0.079500X0.100500X0*%
%ADD15RoundRect,0.250000X-0.325000X-1.100000X0.325000X-1.100000X0.325000X1.100000X-0.325000X1.100000X0*%
%ADD16RoundRect,0.225000X-0.225000X-0.250000X0.225000X-0.250000X0.225000X0.250000X-0.225000X0.250000X0*%
%ADD17RoundRect,0.079500X0.100500X-0.079500X0.100500X0.079500X-0.100500X0.079500X-0.100500X-0.079500X0*%
%ADD18RoundRect,0.200000X-0.200000X-0.275000X0.200000X-0.275000X0.200000X0.275000X-0.200000X0.275000X0*%
%ADD19RoundRect,0.079500X-0.100500X0.079500X-0.100500X-0.079500X0.100500X-0.079500X0.100500X0.079500X0*%
%ADD20R,0.250000X0.800000*%
%ADD21R,0.250000X0.700000*%
%ADD22R,1.100000X0.250000*%
%ADD23R,0.700000X0.250000*%
%ADD24R,2.700000X1.150000*%
%ADD25R,0.350000X1.150000*%
%ADD26R,0.250000X0.550000*%
%ADD27R,0.200000X0.550000*%
%ADD28R,0.600000X0.300000*%
%ADD29R,0.249999X0.700001*%
%ADD30R,0.375001X0.429999*%
%ADD31RoundRect,0.079500X0.079500X0.100500X-0.079500X0.100500X-0.079500X-0.100500X0.079500X-0.100500X0*%
%ADD32RoundRect,0.250000X-0.450000X0.262500X-0.450000X-0.262500X0.450000X-0.262500X0.450000X0.262500X0*%
%ADD33R,0.675000X0.250000*%
%ADD34R,0.250000X0.675000*%
%ADD35RoundRect,0.125000X-0.125000X0.537500X-0.125000X-0.537500X0.125000X-0.537500X0.125000X0.537500X0*%
%ADD36R,0.250000X0.400000*%
%ADD37R,0.700000X0.400000*%
%ADD38R,0.800000X0.250000*%
%ADD39R,0.250000X1.100000*%
%ADD40RoundRect,0.147500X-0.172500X0.147500X-0.172500X-0.147500X0.172500X-0.147500X0.172500X0.147500X0*%
%ADD41RoundRect,0.140000X-0.170000X0.140000X-0.170000X-0.140000X0.170000X-0.140000X0.170000X0.140000X0*%
%ADD42R,0.550000X0.550000*%
%ADD43R,0.550000X0.250000*%
%ADD44R,0.900000X2.900000*%
%ADD45R,1.500000X0.700000*%
%ADD46R,0.800000X0.700000*%
%ADD47RoundRect,0.140000X0.170000X-0.140000X0.170000X0.140000X-0.170000X0.140000X-0.170000X-0.140000X0*%
%ADD48C,0.350000*%
%ADD49RoundRect,0.150000X-0.512500X-0.150000X0.512500X-0.150000X0.512500X0.150000X-0.512500X0.150000X0*%
%ADD50R,0.508000X0.762000*%
%ADD51RoundRect,0.225000X0.225000X0.250000X-0.225000X0.250000X-0.225000X-0.250000X0.225000X-0.250000X0*%
%ADD52RoundRect,0.232500X-0.232500X0.232500X-0.232500X-0.232500X0.232500X-0.232500X0.232500X0.232500X0*%
%ADD53RoundRect,0.062500X-0.062500X0.350000X-0.062500X-0.350000X0.062500X-0.350000X0.062500X0.350000X0*%
%ADD54RoundRect,0.062500X-0.350000X0.062500X-0.350000X-0.062500X0.350000X-0.062500X0.350000X0.062500X0*%
%ADD55RoundRect,0.140000X-0.140000X-0.170000X0.140000X-0.170000X0.140000X0.170000X-0.140000X0.170000X0*%
%ADD56R,3.800000X2.000000*%
%ADD57RoundRect,0.100000X-0.100000X0.225000X-0.100000X-0.225000X0.100000X-0.225000X0.100000X0.225000X0*%
G04 APERTURE END LIST*
D10*
%TO.C,U13*%
X142250000Y-128475000D02*
X143250000Y-128475000D01*
X142250000Y-130025000D02*
X143250000Y-130025000D01*
D11*
%TO.C,Q1*%
X157530000Y-102050000D02*
X161470000Y-102050000D01*
X157530000Y-106350000D02*
X161470000Y-106350000D01*
D12*
X158550000Y-104050000D02*
X157550000Y-104050000D01*
X157550000Y-102800000D01*
X158550000Y-102800000D01*
X158550000Y-104050000D01*
G36*
X158550000Y-104050000D02*
G01*
X157550000Y-104050000D01*
X157550000Y-102800000D01*
X158550000Y-102800000D01*
X158550000Y-104050000D01*
G37*
X158550000Y-105650000D02*
X157550000Y-105650000D01*
X157550000Y-104350000D01*
X158550000Y-104350000D01*
X158550000Y-105650000D01*
G36*
X158550000Y-105650000D02*
G01*
X157550000Y-105650000D01*
X157550000Y-104350000D01*
X158550000Y-104350000D01*
X158550000Y-105650000D01*
G37*
X159850000Y-104050000D02*
X158850000Y-104050000D01*
X158850000Y-102800000D01*
X159850000Y-102800000D01*
X159850000Y-104050000D01*
G36*
X159850000Y-104050000D02*
G01*
X158850000Y-104050000D01*
X158850000Y-102800000D01*
X159850000Y-102800000D01*
X159850000Y-104050000D01*
G37*
X159850000Y-105650000D02*
X158850000Y-105650000D01*
X158850000Y-104350000D01*
X159850000Y-104350000D01*
X159850000Y-105650000D01*
G36*
X159850000Y-105650000D02*
G01*
X158850000Y-105650000D01*
X158850000Y-104350000D01*
X159850000Y-104350000D01*
X159850000Y-105650000D01*
G37*
X161150000Y-104050000D02*
X160150000Y-104050000D01*
X160150000Y-102800000D01*
X161150000Y-102800000D01*
X161150000Y-104050000D01*
G36*
X161150000Y-104050000D02*
G01*
X160150000Y-104050000D01*
X160150000Y-102800000D01*
X161150000Y-102800000D01*
X161150000Y-104050000D01*
G37*
X161150000Y-105650000D02*
X160150000Y-105650000D01*
X160150000Y-104350000D01*
X161150000Y-104350000D01*
X161150000Y-105650000D01*
G36*
X161150000Y-105650000D02*
G01*
X160150000Y-105650000D01*
X160150000Y-104350000D01*
X161150000Y-104350000D01*
X161150000Y-105650000D01*
G37*
X162450000Y-104050000D02*
X161450000Y-104050000D01*
X161450000Y-102800000D01*
X162450000Y-102800000D01*
X162450000Y-104050000D01*
G36*
X162450000Y-104050000D02*
G01*
X161450000Y-104050000D01*
X161450000Y-102800000D01*
X162450000Y-102800000D01*
X162450000Y-104050000D01*
G37*
X162450000Y-105650000D02*
X161450000Y-105650000D01*
X161450000Y-104350000D01*
X162450000Y-104350000D01*
X162450000Y-105650000D01*
G36*
X162450000Y-105650000D02*
G01*
X161450000Y-105650000D01*
X161450000Y-104350000D01*
X162450000Y-104350000D01*
X162450000Y-105650000D01*
G37*
D11*
%TO.C,Q2*%
X147530000Y-102050000D02*
X151470000Y-102050000D01*
X147530000Y-106350000D02*
X151470000Y-106350000D01*
D12*
X148550000Y-104050000D02*
X147550000Y-104050000D01*
X147550000Y-102800000D01*
X148550000Y-102800000D01*
X148550000Y-104050000D01*
G36*
X148550000Y-104050000D02*
G01*
X147550000Y-104050000D01*
X147550000Y-102800000D01*
X148550000Y-102800000D01*
X148550000Y-104050000D01*
G37*
X148550000Y-105650000D02*
X147550000Y-105650000D01*
X147550000Y-104350000D01*
X148550000Y-104350000D01*
X148550000Y-105650000D01*
G36*
X148550000Y-105650000D02*
G01*
X147550000Y-105650000D01*
X147550000Y-104350000D01*
X148550000Y-104350000D01*
X148550000Y-105650000D01*
G37*
X149850000Y-104050000D02*
X148850000Y-104050000D01*
X148850000Y-102800000D01*
X149850000Y-102800000D01*
X149850000Y-104050000D01*
G36*
X149850000Y-104050000D02*
G01*
X148850000Y-104050000D01*
X148850000Y-102800000D01*
X149850000Y-102800000D01*
X149850000Y-104050000D01*
G37*
X149850000Y-105650000D02*
X148850000Y-105650000D01*
X148850000Y-104350000D01*
X149850000Y-104350000D01*
X149850000Y-105650000D01*
G36*
X149850000Y-105650000D02*
G01*
X148850000Y-105650000D01*
X148850000Y-104350000D01*
X149850000Y-104350000D01*
X149850000Y-105650000D01*
G37*
X151150000Y-104050000D02*
X150150000Y-104050000D01*
X150150000Y-102800000D01*
X151150000Y-102800000D01*
X151150000Y-104050000D01*
G36*
X151150000Y-104050000D02*
G01*
X150150000Y-104050000D01*
X150150000Y-102800000D01*
X151150000Y-102800000D01*
X151150000Y-104050000D01*
G37*
X151150000Y-105650000D02*
X150150000Y-105650000D01*
X150150000Y-104350000D01*
X151150000Y-104350000D01*
X151150000Y-105650000D01*
G36*
X151150000Y-105650000D02*
G01*
X150150000Y-105650000D01*
X150150000Y-104350000D01*
X151150000Y-104350000D01*
X151150000Y-105650000D01*
G37*
X152450000Y-104050000D02*
X151450000Y-104050000D01*
X151450000Y-102800000D01*
X152450000Y-102800000D01*
X152450000Y-104050000D01*
G36*
X152450000Y-104050000D02*
G01*
X151450000Y-104050000D01*
X151450000Y-102800000D01*
X152450000Y-102800000D01*
X152450000Y-104050000D01*
G37*
X152450000Y-105650000D02*
X151450000Y-105650000D01*
X151450000Y-104350000D01*
X152450000Y-104350000D01*
X152450000Y-105650000D01*
G36*
X152450000Y-105650000D02*
G01*
X151450000Y-105650000D01*
X151450000Y-104350000D01*
X152450000Y-104350000D01*
X152450000Y-105650000D01*
G37*
D11*
%TO.C,Q3*%
X137530000Y-102050000D02*
X141470000Y-102050000D01*
X137530000Y-106350000D02*
X141470000Y-106350000D01*
D12*
X138550000Y-104050000D02*
X137550000Y-104050000D01*
X137550000Y-102800000D01*
X138550000Y-102800000D01*
X138550000Y-104050000D01*
G36*
X138550000Y-104050000D02*
G01*
X137550000Y-104050000D01*
X137550000Y-102800000D01*
X138550000Y-102800000D01*
X138550000Y-104050000D01*
G37*
X138550000Y-105650000D02*
X137550000Y-105650000D01*
X137550000Y-104350000D01*
X138550000Y-104350000D01*
X138550000Y-105650000D01*
G36*
X138550000Y-105650000D02*
G01*
X137550000Y-105650000D01*
X137550000Y-104350000D01*
X138550000Y-104350000D01*
X138550000Y-105650000D01*
G37*
X139850000Y-104050000D02*
X138850000Y-104050000D01*
X138850000Y-102800000D01*
X139850000Y-102800000D01*
X139850000Y-104050000D01*
G36*
X139850000Y-104050000D02*
G01*
X138850000Y-104050000D01*
X138850000Y-102800000D01*
X139850000Y-102800000D01*
X139850000Y-104050000D01*
G37*
X139850000Y-105650000D02*
X138850000Y-105650000D01*
X138850000Y-104350000D01*
X139850000Y-104350000D01*
X139850000Y-105650000D01*
G36*
X139850000Y-105650000D02*
G01*
X138850000Y-105650000D01*
X138850000Y-104350000D01*
X139850000Y-104350000D01*
X139850000Y-105650000D01*
G37*
X141150000Y-104050000D02*
X140150000Y-104050000D01*
X140150000Y-102800000D01*
X141150000Y-102800000D01*
X141150000Y-104050000D01*
G36*
X141150000Y-104050000D02*
G01*
X140150000Y-104050000D01*
X140150000Y-102800000D01*
X141150000Y-102800000D01*
X141150000Y-104050000D01*
G37*
X141150000Y-105650000D02*
X140150000Y-105650000D01*
X140150000Y-104350000D01*
X141150000Y-104350000D01*
X141150000Y-105650000D01*
G36*
X141150000Y-105650000D02*
G01*
X140150000Y-105650000D01*
X140150000Y-104350000D01*
X141150000Y-104350000D01*
X141150000Y-105650000D01*
G37*
X142450000Y-104050000D02*
X141450000Y-104050000D01*
X141450000Y-102800000D01*
X142450000Y-102800000D01*
X142450000Y-104050000D01*
G36*
X142450000Y-104050000D02*
G01*
X141450000Y-104050000D01*
X141450000Y-102800000D01*
X142450000Y-102800000D01*
X142450000Y-104050000D01*
G37*
X142450000Y-105650000D02*
X141450000Y-105650000D01*
X141450000Y-104350000D01*
X142450000Y-104350000D01*
X142450000Y-105650000D01*
G36*
X142450000Y-105650000D02*
G01*
X141450000Y-105650000D01*
X141450000Y-104350000D01*
X142450000Y-104350000D01*
X142450000Y-105650000D01*
G37*
D10*
%TO.C,U14*%
X141725000Y-134250000D02*
X141725000Y-135250000D01*
X143275000Y-134250000D02*
X143275000Y-135250000D01*
%TD*%
D13*
%TO.C,C50*%
X174580000Y-109750000D03*
X173620000Y-109750000D03*
%TD*%
D14*
%TO.C,C49*%
X170725000Y-106500000D03*
X171415000Y-106500000D03*
%TD*%
%TO.C,C47*%
X168585000Y-116100000D03*
X169275000Y-116100000D03*
%TD*%
D15*
%TO.C,C75*%
X131025000Y-110000000D03*
X133975000Y-110000000D03*
%TD*%
D16*
%TO.C,C52*%
X171575000Y-107600000D03*
X173125000Y-107600000D03*
%TD*%
D14*
%TO.C,C51*%
X173655000Y-110750000D03*
X174345000Y-110750000D03*
%TD*%
D15*
%TO.C,C70*%
X131025000Y-126000000D03*
X133975000Y-126000000D03*
%TD*%
D17*
%TO.C,C65*%
X137900000Y-121525000D03*
X137900000Y-120835000D03*
%TD*%
%TO.C,C54*%
X152800000Y-109345000D03*
X152800000Y-108655000D03*
%TD*%
D18*
%TO.C,FB3*%
X145675000Y-134000000D03*
X147325000Y-134000000D03*
%TD*%
D19*
%TO.C,R26*%
X142100000Y-122155000D03*
X142100000Y-122845000D03*
%TD*%
D20*
%TO.C,U13*%
X141750000Y-130200000D03*
D21*
X142250000Y-130250000D03*
X142750000Y-130250000D03*
X143250000Y-130250000D03*
D22*
X143250000Y-129250000D03*
D21*
X143250000Y-128250000D03*
X142750000Y-128250000D03*
X142250000Y-128250000D03*
X141750000Y-128250000D03*
D23*
X141550000Y-129250000D03*
%TD*%
D24*
%TO.C,R23*%
X140275000Y-108225000D03*
D25*
X142100000Y-108225000D03*
X142100000Y-109775000D03*
D24*
X140275000Y-109775000D03*
%TD*%
D26*
%TO.C,U5*%
X160400000Y-140325000D03*
D27*
X159900000Y-140325000D03*
X159400000Y-140325000D03*
D26*
X158900000Y-140325000D03*
D28*
X158750000Y-141000000D03*
D26*
X158900000Y-141675000D03*
D27*
X159400000Y-141675000D03*
X159900000Y-141675000D03*
D26*
X160400000Y-141675000D03*
D28*
X160550000Y-141000000D03*
%TD*%
D29*
%TO.C,Q1*%
X162500000Y-101850000D03*
X162000001Y-101850000D03*
X161500000Y-101850000D03*
X161000001Y-101850000D03*
X160499999Y-101850000D03*
X160000000Y-101850000D03*
X159500001Y-101850000D03*
X158999999Y-101850000D03*
X158500000Y-101850000D03*
X157999999Y-101850000D03*
X157500000Y-101850000D03*
X157500000Y-106550000D03*
X157999999Y-106550000D03*
X158500000Y-106550000D03*
X158999999Y-106550000D03*
X159500001Y-106550000D03*
X160000000Y-106550000D03*
X160499999Y-106550000D03*
X161000001Y-106550000D03*
X161500000Y-106550000D03*
X162000001Y-106550000D03*
X162500000Y-106550000D03*
D30*
X163012999Y-102085000D03*
X156987001Y-102085000D03*
X156987001Y-106315000D03*
X163012999Y-106315000D03*
%TD*%
D31*
%TO.C,R45*%
X139740000Y-133000000D03*
X139050000Y-133000000D03*
%TD*%
%TO.C,R46*%
X140545000Y-131700000D03*
X139855000Y-131700000D03*
%TD*%
D32*
%TO.C,R11*%
X164500000Y-99087500D03*
X164500000Y-100912500D03*
%TD*%
D24*
%TO.C,R12*%
X160275000Y-108225000D03*
D25*
X162100000Y-108225000D03*
X162100000Y-109775000D03*
D24*
X160275000Y-109775000D03*
%TD*%
D14*
%TO.C,R53*%
X145305000Y-118000000D03*
X145995000Y-118000000D03*
%TD*%
D17*
%TO.C,C62*%
X161350000Y-141025000D03*
X161350000Y-140335000D03*
%TD*%
%TO.C,R52*%
X144200000Y-119075000D03*
X144200000Y-118385000D03*
%TD*%
%TO.C,C64*%
X142100000Y-120525000D03*
X142100000Y-119835000D03*
%TD*%
D33*
%TO.C,U7*%
X141262500Y-119500000D03*
X141262500Y-120000000D03*
X141262500Y-120500000D03*
X141262500Y-121000000D03*
X141262500Y-121500000D03*
X141262500Y-122000000D03*
X141262500Y-122500000D03*
D34*
X140000000Y-123012500D03*
D33*
X138737500Y-122500000D03*
X138737500Y-122000000D03*
X138737500Y-121500000D03*
X138737500Y-121000000D03*
X138737500Y-120500000D03*
X138737500Y-120000000D03*
X138737500Y-119500000D03*
D34*
X140000000Y-118987500D03*
%TD*%
D17*
%TO.C,R51*%
X144400000Y-132945000D03*
X144400000Y-132255000D03*
%TD*%
%TO.C,R39*%
X164000000Y-138845000D03*
X164000000Y-138155000D03*
%TD*%
D19*
%TO.C,R54*%
X143500000Y-118385000D03*
X143500000Y-119075000D03*
%TD*%
D18*
%TO.C,FB1*%
X144675000Y-128500000D03*
X146325000Y-128500000D03*
%TD*%
%TO.C,FB2*%
X144675000Y-126000000D03*
X146325000Y-126000000D03*
%TD*%
D17*
%TO.C,R29*%
X154025000Y-139645000D03*
X154025000Y-138955000D03*
%TD*%
D32*
%TO.C,R14*%
X154500000Y-99087500D03*
X154500000Y-100912500D03*
%TD*%
D35*
%TO.C,U4*%
X155975000Y-135362500D03*
X155325000Y-135362500D03*
X154675000Y-135362500D03*
X154025000Y-135362500D03*
X154025000Y-137637500D03*
X154675000Y-137637500D03*
X155325000Y-137637500D03*
X155975000Y-137637500D03*
%TD*%
D24*
%TO.C,R15*%
X150275000Y-108225000D03*
D25*
X152100000Y-108225000D03*
X152100000Y-109775000D03*
D24*
X150275000Y-109775000D03*
%TD*%
D31*
%TO.C,R47*%
X140545000Y-131000000D03*
X139855000Y-131000000D03*
%TD*%
D17*
%TO.C,C46*%
X162800000Y-109345000D03*
X162800000Y-108655000D03*
%TD*%
D29*
%TO.C,Q2*%
X152500000Y-101850000D03*
X152000001Y-101850000D03*
X151500000Y-101850000D03*
X151000001Y-101850000D03*
X150499999Y-101850000D03*
X150000000Y-101850000D03*
X149500001Y-101850000D03*
X148999999Y-101850000D03*
X148500000Y-101850000D03*
X147999999Y-101850000D03*
X147500000Y-101850000D03*
X147500000Y-106550000D03*
X147999999Y-106550000D03*
X148500000Y-106550000D03*
X148999999Y-106550000D03*
X149500001Y-106550000D03*
X150000000Y-106550000D03*
X150499999Y-106550000D03*
X151000001Y-106550000D03*
X151500000Y-106550000D03*
X152000001Y-106550000D03*
X152500000Y-106550000D03*
D30*
X153012999Y-102085000D03*
X146987001Y-102085000D03*
X146987001Y-106315000D03*
X153012999Y-106315000D03*
%TD*%
D29*
%TO.C,Q3*%
X142500000Y-101850000D03*
X142000001Y-101850000D03*
X141500000Y-101850000D03*
X141000001Y-101850000D03*
X140499999Y-101850000D03*
X140000000Y-101850000D03*
X139500001Y-101850000D03*
X138999999Y-101850000D03*
X138500000Y-101850000D03*
X137999999Y-101850000D03*
X137500000Y-101850000D03*
X137500000Y-106550000D03*
X137999999Y-106550000D03*
X138500000Y-106550000D03*
X138999999Y-106550000D03*
X139500001Y-106550000D03*
X140000000Y-106550000D03*
X140499999Y-106550000D03*
X141000001Y-106550000D03*
X141500000Y-106550000D03*
X142000001Y-106550000D03*
X142500000Y-106550000D03*
D30*
X143012999Y-102085000D03*
X136987001Y-102085000D03*
X136987001Y-106315000D03*
X143012999Y-106315000D03*
%TD*%
D36*
%TO.C,Q4*%
X164225000Y-136650000D03*
X163775000Y-136650000D03*
D37*
X164000000Y-137350000D03*
%TD*%
D19*
%TO.C,R55*%
X144200000Y-120285000D03*
X144200000Y-120975000D03*
%TD*%
D38*
%TO.C,U14*%
X141550000Y-133750000D03*
D23*
X141500000Y-134250000D03*
X141500000Y-134750000D03*
X141500000Y-135250000D03*
D39*
X142500000Y-135250000D03*
D23*
X143500000Y-135250000D03*
X143500000Y-134750000D03*
X143500000Y-134250000D03*
X143500000Y-133750000D03*
D21*
X142500000Y-133550000D03*
%TD*%
D16*
%TO.C,C48*%
X170750000Y-105400000D03*
X172300000Y-105400000D03*
%TD*%
D40*
%TO.C,D6*%
X164000000Y-140015000D03*
X164000000Y-140985000D03*
%TD*%
D41*
%TO.C,C44*%
X169565000Y-106940000D03*
X169565000Y-107900000D03*
%TD*%
D42*
%TO.C,U12*%
X136925000Y-129837500D03*
D43*
X136925000Y-130500000D03*
X136925000Y-131000000D03*
X136925000Y-131500000D03*
D42*
X136925000Y-132162500D03*
X139075000Y-132162500D03*
D43*
X139075000Y-131500000D03*
X139075000Y-131000000D03*
X139075000Y-130500000D03*
D42*
X139075000Y-129837500D03*
D44*
X138000000Y-131000000D03*
%TD*%
D45*
%TO.C,J9*%
X175100000Y-123595000D03*
X171900000Y-123595000D03*
X175100000Y-124865000D03*
X171900000Y-124865000D03*
X175100000Y-126135000D03*
X171900000Y-126135000D03*
X175100000Y-127405000D03*
X171900000Y-127405000D03*
%TD*%
D31*
%TO.C,R28*%
X137845000Y-122500000D03*
X137155000Y-122500000D03*
%TD*%
D46*
%TO.C,X1*%
X162700000Y-134800000D03*
X164000000Y-134800000D03*
X164000000Y-133800000D03*
X162700000Y-133800000D03*
%TD*%
D15*
%TO.C,C74*%
X131025000Y-113200000D03*
X133975000Y-113200000D03*
%TD*%
D19*
%TO.C,C104*%
X143500000Y-120285000D03*
X143500000Y-120975000D03*
%TD*%
D32*
%TO.C,R17*%
X144500000Y-99087500D03*
X144500000Y-100912500D03*
%TD*%
D17*
%TO.C,R2*%
X153000000Y-126465000D03*
X153000000Y-125775000D03*
%TD*%
%TO.C,R27*%
X137900000Y-119525000D03*
X137900000Y-118835000D03*
%TD*%
D14*
%TO.C,R56*%
X143555000Y-121700000D03*
X144245000Y-121700000D03*
%TD*%
D47*
%TO.C,C94*%
X140500000Y-129880000D03*
X140500000Y-128920000D03*
%TD*%
D15*
%TO.C,C73*%
X131025000Y-116400000D03*
X133975000Y-116400000D03*
%TD*%
D48*
%TO.C,U1*%
X169200000Y-117800000D03*
X169200000Y-118600000D03*
X169200000Y-119400000D03*
X169200000Y-120200000D03*
X169200000Y-121000000D03*
X169200000Y-121800000D03*
X169200000Y-122600000D03*
X169200000Y-123400000D03*
X169200000Y-124200000D03*
X169200000Y-125000000D03*
X169200000Y-125800000D03*
X169200000Y-126600000D03*
X169200000Y-127400000D03*
X169200000Y-128200000D03*
X169200000Y-129000000D03*
X169200000Y-129800000D03*
X169200000Y-130600000D03*
X169200000Y-131400000D03*
X169200000Y-132200000D03*
X168400000Y-117800000D03*
X168400000Y-118600000D03*
X168400000Y-119400000D03*
X168400000Y-120200000D03*
X168400000Y-121000000D03*
X168400000Y-121800000D03*
X168400000Y-122600000D03*
X168400000Y-123400000D03*
X168400000Y-124200000D03*
X168400000Y-125000000D03*
X168400000Y-125800000D03*
X168400000Y-126600000D03*
X168400000Y-127400000D03*
X168400000Y-128200000D03*
X168400000Y-129000000D03*
X168400000Y-129800000D03*
X168400000Y-130600000D03*
X168400000Y-131400000D03*
X168400000Y-132200000D03*
X167600000Y-117800000D03*
X167600000Y-118600000D03*
X167600000Y-119400000D03*
X167600000Y-120200000D03*
X167600000Y-121000000D03*
X167600000Y-121800000D03*
X167600000Y-122600000D03*
X167600000Y-123400000D03*
X167600000Y-124200000D03*
X167600000Y-125000000D03*
X167600000Y-125800000D03*
X167600000Y-126600000D03*
X167600000Y-127400000D03*
X167600000Y-128200000D03*
X167600000Y-129000000D03*
X167600000Y-129800000D03*
X167600000Y-130600000D03*
X167600000Y-131400000D03*
X167600000Y-132200000D03*
X166800000Y-117800000D03*
X166800000Y-118600000D03*
X166800000Y-119400000D03*
X166800000Y-120200000D03*
X166800000Y-121000000D03*
X166800000Y-121800000D03*
X166800000Y-122600000D03*
X166800000Y-123400000D03*
X166800000Y-124200000D03*
X166800000Y-125000000D03*
X166800000Y-125800000D03*
X166800000Y-126600000D03*
X166800000Y-127400000D03*
X166800000Y-128200000D03*
X166800000Y-129000000D03*
X166800000Y-129800000D03*
X166800000Y-130600000D03*
X166800000Y-131400000D03*
X166800000Y-132200000D03*
X166000000Y-117800000D03*
X166000000Y-118600000D03*
X166000000Y-119400000D03*
X166000000Y-120200000D03*
X166000000Y-121000000D03*
X166000000Y-121800000D03*
X166000000Y-122600000D03*
X166000000Y-123400000D03*
X166000000Y-124200000D03*
X166000000Y-125000000D03*
X166000000Y-125800000D03*
X166000000Y-126600000D03*
X166000000Y-127400000D03*
X166000000Y-128200000D03*
X166000000Y-129000000D03*
X166000000Y-129800000D03*
X166000000Y-130600000D03*
X166000000Y-131400000D03*
X166000000Y-132200000D03*
X165200000Y-117800000D03*
X165200000Y-118600000D03*
X165200000Y-119400000D03*
X165200000Y-120200000D03*
X165200000Y-121000000D03*
X165200000Y-121800000D03*
X165200000Y-122600000D03*
X165200000Y-123400000D03*
X165200000Y-124200000D03*
X165200000Y-125000000D03*
X165200000Y-125800000D03*
X165200000Y-126600000D03*
X165200000Y-127400000D03*
X165200000Y-128200000D03*
X165200000Y-129000000D03*
X165200000Y-129800000D03*
X165200000Y-130600000D03*
X165200000Y-131400000D03*
X165200000Y-132200000D03*
X164400000Y-117800000D03*
X164400000Y-118600000D03*
X164400000Y-119400000D03*
X164400000Y-120200000D03*
X164400000Y-121000000D03*
X164400000Y-121800000D03*
X164400000Y-128200000D03*
X164400000Y-129000000D03*
X164400000Y-129800000D03*
X164400000Y-130600000D03*
X164400000Y-131400000D03*
X164400000Y-132200000D03*
X163600000Y-117800000D03*
X163600000Y-118600000D03*
X163600000Y-119400000D03*
X163600000Y-120200000D03*
X163600000Y-121000000D03*
X163600000Y-121800000D03*
X163600000Y-123400000D03*
X163600000Y-124200000D03*
X163600000Y-125000000D03*
X163600000Y-125800000D03*
X163600000Y-126600000D03*
X163600000Y-128200000D03*
X163600000Y-129000000D03*
X163600000Y-129800000D03*
X163600000Y-130600000D03*
X163600000Y-131400000D03*
X163600000Y-132200000D03*
X162800000Y-117800000D03*
X162800000Y-118600000D03*
X162800000Y-119400000D03*
X162800000Y-120200000D03*
X162800000Y-121000000D03*
X162800000Y-121800000D03*
X162800000Y-123400000D03*
X162800000Y-124200000D03*
X162800000Y-125000000D03*
X162800000Y-125800000D03*
X162800000Y-126600000D03*
X162800000Y-128200000D03*
X162800000Y-129000000D03*
X162800000Y-129800000D03*
X162800000Y-130600000D03*
X162800000Y-131400000D03*
X162800000Y-132200000D03*
X162000000Y-117800000D03*
X162000000Y-118600000D03*
X162000000Y-119400000D03*
X162000000Y-120200000D03*
X162000000Y-121000000D03*
X162000000Y-121800000D03*
X162000000Y-123400000D03*
X162000000Y-124200000D03*
X162000000Y-125000000D03*
X162000000Y-125800000D03*
X162000000Y-126600000D03*
X162000000Y-128200000D03*
X162000000Y-129000000D03*
X162000000Y-129800000D03*
X162000000Y-130600000D03*
X162000000Y-131400000D03*
X162000000Y-132200000D03*
X161200000Y-117800000D03*
X161200000Y-118600000D03*
X161200000Y-119400000D03*
X161200000Y-120200000D03*
X161200000Y-121000000D03*
X161200000Y-121800000D03*
X161200000Y-123400000D03*
X161200000Y-124200000D03*
X161200000Y-125000000D03*
X161200000Y-125800000D03*
X161200000Y-126600000D03*
X161200000Y-128200000D03*
X161200000Y-129000000D03*
X161200000Y-129800000D03*
X161200000Y-130600000D03*
X161200000Y-131400000D03*
X161200000Y-132200000D03*
X160400000Y-117800000D03*
X160400000Y-118600000D03*
X160400000Y-119400000D03*
X160400000Y-120200000D03*
X160400000Y-121000000D03*
X160400000Y-121800000D03*
X160400000Y-123400000D03*
X160400000Y-124200000D03*
X160400000Y-125000000D03*
X160400000Y-125800000D03*
X160400000Y-126600000D03*
X160400000Y-128200000D03*
X160400000Y-129000000D03*
X160400000Y-129800000D03*
X160400000Y-130600000D03*
X160400000Y-131400000D03*
X160400000Y-132200000D03*
X159600000Y-117800000D03*
X159600000Y-118600000D03*
X159600000Y-119400000D03*
X159600000Y-120200000D03*
X159600000Y-121000000D03*
X159600000Y-121800000D03*
X159600000Y-128200000D03*
X159600000Y-129000000D03*
X159600000Y-129800000D03*
X159600000Y-130600000D03*
X159600000Y-131400000D03*
X159600000Y-132200000D03*
X158800000Y-117800000D03*
X158800000Y-118600000D03*
X158800000Y-119400000D03*
X158800000Y-120200000D03*
X158800000Y-121000000D03*
X158800000Y-121800000D03*
X158800000Y-122600000D03*
X158800000Y-123400000D03*
X158800000Y-124200000D03*
X158800000Y-125000000D03*
X158800000Y-125800000D03*
X158800000Y-126600000D03*
X158800000Y-127400000D03*
X158800000Y-128200000D03*
X158800000Y-129000000D03*
X158800000Y-129800000D03*
X158800000Y-130600000D03*
X158800000Y-131400000D03*
X158800000Y-132200000D03*
X158000000Y-117800000D03*
X158000000Y-118600000D03*
X158000000Y-119400000D03*
X158000000Y-120200000D03*
X158000000Y-121000000D03*
X158000000Y-121800000D03*
X158000000Y-122600000D03*
X158000000Y-123400000D03*
X158000000Y-124200000D03*
X158000000Y-125000000D03*
X158000000Y-125800000D03*
X158000000Y-126600000D03*
X158000000Y-127400000D03*
X158000000Y-128200000D03*
X158000000Y-129000000D03*
X158000000Y-129800000D03*
X158000000Y-130600000D03*
X158000000Y-131400000D03*
X158000000Y-132200000D03*
X157200000Y-117800000D03*
X157200000Y-118600000D03*
X157200000Y-119400000D03*
X157200000Y-120200000D03*
X157200000Y-121000000D03*
X157200000Y-121800000D03*
X157200000Y-122600000D03*
X157200000Y-123400000D03*
X157200000Y-124200000D03*
X157200000Y-125000000D03*
X157200000Y-125800000D03*
X157200000Y-126600000D03*
X157200000Y-127400000D03*
X157200000Y-128200000D03*
X157200000Y-129000000D03*
X157200000Y-129800000D03*
X157200000Y-130600000D03*
X157200000Y-131400000D03*
X157200000Y-132200000D03*
X156400000Y-117800000D03*
X156400000Y-118600000D03*
X156400000Y-119400000D03*
X156400000Y-120200000D03*
X156400000Y-121000000D03*
X156400000Y-121800000D03*
X156400000Y-122600000D03*
X156400000Y-123400000D03*
X156400000Y-124200000D03*
X156400000Y-125000000D03*
X156400000Y-125800000D03*
X156400000Y-126600000D03*
X156400000Y-127400000D03*
X156400000Y-128200000D03*
X156400000Y-129000000D03*
X156400000Y-129800000D03*
X156400000Y-130600000D03*
X156400000Y-131400000D03*
X156400000Y-132200000D03*
X155600000Y-117800000D03*
X155600000Y-118600000D03*
X155600000Y-119400000D03*
X155600000Y-120200000D03*
X155600000Y-121000000D03*
X155600000Y-121800000D03*
X155600000Y-122600000D03*
X155600000Y-123400000D03*
X155600000Y-124200000D03*
X155600000Y-125000000D03*
X155600000Y-125800000D03*
X155600000Y-126600000D03*
X155600000Y-127400000D03*
X155600000Y-128200000D03*
X155600000Y-129000000D03*
X155600000Y-129800000D03*
X155600000Y-130600000D03*
X155600000Y-131400000D03*
X155600000Y-132200000D03*
X154800000Y-117800000D03*
X154800000Y-118600000D03*
X154800000Y-119400000D03*
X154800000Y-120200000D03*
X154800000Y-121000000D03*
X154800000Y-121800000D03*
X154800000Y-122600000D03*
X154800000Y-123400000D03*
X154800000Y-124200000D03*
X154800000Y-125000000D03*
X154800000Y-125800000D03*
X154800000Y-126600000D03*
X154800000Y-127400000D03*
X154800000Y-128200000D03*
X154800000Y-129000000D03*
X154800000Y-129800000D03*
X154800000Y-130600000D03*
X154800000Y-131400000D03*
X154800000Y-132200000D03*
%TD*%
D49*
%TO.C,U15*%
X150362500Y-119050000D03*
X150362500Y-120000000D03*
X150362500Y-120950000D03*
X152637500Y-120950000D03*
X152637500Y-120000000D03*
X152637500Y-119050000D03*
%TD*%
D41*
%TO.C,C100*%
X144500000Y-135220000D03*
X144500000Y-136180000D03*
%TD*%
D50*
%TO.C,D4*%
X152025000Y-139427799D03*
X152025000Y-140572201D03*
X152975000Y-140572201D03*
X152975000Y-139427799D03*
%TD*%
D41*
%TO.C,C97*%
X140500000Y-134020000D03*
X140500000Y-134980000D03*
%TD*%
D51*
%TO.C,C92*%
X134775000Y-131000000D03*
X133225000Y-131000000D03*
%TD*%
D16*
%TO.C,C91*%
X136725000Y-126500000D03*
X138275000Y-126500000D03*
%TD*%
D19*
%TO.C,C98*%
X136100000Y-132137500D03*
X136100000Y-132827500D03*
%TD*%
D14*
%TO.C,D2*%
X145155000Y-122000000D03*
X145845000Y-122000000D03*
%TD*%
D17*
%TO.C,R3*%
X153000000Y-128965000D03*
X153000000Y-128275000D03*
%TD*%
D52*
%TO.C,U2*%
X171225000Y-110275000D03*
X170075000Y-110275000D03*
X168925000Y-110275000D03*
X167775000Y-110275000D03*
X171225000Y-111425000D03*
X170075000Y-111425000D03*
X168925000Y-111425000D03*
X167775000Y-111425000D03*
X171225000Y-112575000D03*
X170075000Y-112575000D03*
X168925000Y-112575000D03*
X167775000Y-112575000D03*
X171225000Y-113725000D03*
X170075000Y-113725000D03*
X168925000Y-113725000D03*
X167775000Y-113725000D03*
D53*
X171750000Y-109062500D03*
X171250000Y-109062500D03*
X170750000Y-109062500D03*
X170250000Y-109062500D03*
X169750000Y-109062500D03*
X169250000Y-109062500D03*
X168750000Y-109062500D03*
X168250000Y-109062500D03*
X167750000Y-109062500D03*
X167250000Y-109062500D03*
D54*
X166562500Y-109750000D03*
X166562500Y-110250000D03*
X166562500Y-110750000D03*
X166562500Y-111250000D03*
X166562500Y-111750000D03*
X166562500Y-112250000D03*
X166562500Y-112750000D03*
X166562500Y-113250000D03*
X166562500Y-113750000D03*
X166562500Y-114250000D03*
D53*
X167250000Y-114937500D03*
X167750000Y-114937500D03*
X168250000Y-114937500D03*
X168750000Y-114937500D03*
X169250000Y-114937500D03*
X169750000Y-114937500D03*
X170250000Y-114937500D03*
X170750000Y-114937500D03*
X171250000Y-114937500D03*
X171750000Y-114937500D03*
D54*
X172437500Y-114250000D03*
X172437500Y-113750000D03*
X172437500Y-113250000D03*
X172437500Y-112750000D03*
X172437500Y-112250000D03*
X172437500Y-111750000D03*
X172437500Y-111250000D03*
X172437500Y-110750000D03*
X172437500Y-110250000D03*
X172437500Y-109750000D03*
%TD*%
D55*
%TO.C,C95*%
X141520000Y-131500000D03*
X142480000Y-131500000D03*
%TD*%
D19*
%TO.C,C69*%
X161700000Y-133775000D03*
X161700000Y-134465000D03*
%TD*%
D51*
%TO.C,C93*%
X134775000Y-129500000D03*
X133225000Y-129500000D03*
%TD*%
D47*
%TO.C,C43*%
X153000000Y-117480000D03*
X153000000Y-116520000D03*
%TD*%
D31*
%TO.C,R49*%
X141775000Y-126650000D03*
X141085000Y-126650000D03*
%TD*%
%TO.C,R48*%
X142415000Y-127350000D03*
X141725000Y-127350000D03*
%TD*%
D17*
%TO.C,C103*%
X147800000Y-120975000D03*
X147800000Y-120285000D03*
%TD*%
D31*
%TO.C,C101*%
X152662500Y-122100000D03*
X151972500Y-122100000D03*
%TD*%
D55*
%TO.C,C99*%
X144820000Y-127250000D03*
X145780000Y-127250000D03*
%TD*%
%TO.C,C96*%
X141520000Y-132500000D03*
X142480000Y-132500000D03*
%TD*%
D16*
%TO.C,C90*%
X136725000Y-128500000D03*
X138275000Y-128500000D03*
%TD*%
D56*
%TO.C,TP5*%
X140000000Y-115000000D03*
%TD*%
D57*
%TO.C,U16*%
X146650000Y-119050000D03*
X146000000Y-119050000D03*
X145350000Y-119050000D03*
X145350000Y-120950000D03*
X146650000Y-120950000D03*
%TD*%
D15*
%TO.C,C71*%
X131025000Y-122800000D03*
X133975000Y-122800000D03*
%TD*%
D17*
%TO.C,R50*%
X144400000Y-134415000D03*
X144400000Y-133725000D03*
%TD*%
%TO.C,C59*%
X142800000Y-109345000D03*
X142800000Y-108655000D03*
%TD*%
D15*
%TO.C,C72*%
X131025000Y-119600000D03*
X133975000Y-119600000D03*
%TD*%
D31*
%TO.C,C87*%
X144245000Y-122400000D03*
X143555000Y-122400000D03*
%TD*%
D13*
%TO.C,C40*%
X145980000Y-124500000D03*
X145020000Y-124500000D03*
%TD*%
D31*
%TO.C,C102*%
X152662500Y-122800000D03*
X151972500Y-122800000D03*
%TD*%
D14*
%TO.C,C61*%
X154650000Y-134000000D03*
X155340000Y-134000000D03*
%TD*%
M02*
