M48
; DRILL file {KiCad 8.0.2-8.0.2-0~ubuntu22.04.1} date 2024-05-23T15:32:28+0200
; FORMAT={-:-/ absolute / metric / decimal}
; #@! TF.CreationDate,2024-05-23T15:32:28+02:00
; #@! TF.GenerationSoftware,Kicad,Pcbnew,8.0.2-8.0.2-0~ubuntu22.04.1
; #@! TF.FileFunction,Plated,1,8,PTH
FMAT,2
METRIC
; #@! TA.AperFunction,Plated,PTH,ViaDrill
T1C0.200
; #@! TA.AperFunction,Plated,PTH,ComponentDrill
T2C0.600
%
G90
G05
T1
X124.0Y-113.0
X124.0Y-115.0
X124.0Y-117.0
X124.0Y-123.0
X124.0Y-125.0
X124.0Y-127.0
X125.0Y-110.0
X125.0Y-112.0
X125.0Y-114.0
X125.0Y-116.0
X125.0Y-124.0
X125.0Y-126.0
X125.0Y-128.0
X125.0Y-130.0
X126.0Y-109.0
X126.0Y-111.0
X126.0Y-113.0
X126.0Y-115.0
X126.0Y-117.0
X126.0Y-123.0
X126.0Y-125.0
X126.0Y-127.0
X126.0Y-129.0
X126.0Y-131.0
X127.0Y-106.0
X127.0Y-108.0
X127.0Y-110.0
X127.0Y-112.0
X127.0Y-114.0
X127.0Y-116.0
X127.0Y-118.0
X127.0Y-120.0
X127.0Y-122.0
X127.0Y-124.0
X127.0Y-126.0
X127.0Y-128.0
X127.0Y-130.0
X127.0Y-132.0
X127.0Y-134.0
X128.0Y-105.0
X128.0Y-107.0
X128.0Y-109.0
X128.0Y-111.0
X128.0Y-113.0
X128.0Y-115.0
X128.0Y-117.0
X128.0Y-119.0
X128.0Y-121.0
X128.0Y-123.0
X128.0Y-125.0
X128.0Y-127.0
X128.0Y-129.0
X128.0Y-131.0
X128.0Y-133.0
X128.0Y-135.0
X129.0Y-104.0
X129.0Y-106.0
X129.0Y-108.0
X129.0Y-110.0
X129.0Y-112.0
X129.0Y-114.0
X129.0Y-116.0
X129.0Y-118.0
X129.0Y-120.0
X129.0Y-122.0
X129.0Y-124.0
X129.0Y-126.0
X129.0Y-128.0
X129.0Y-130.0
X129.0Y-132.0
X129.0Y-134.0
X129.0Y-136.0
X130.0Y-102.0
X130.0Y-103.0
X130.0Y-105.0
X130.0Y-107.0
X130.0Y-109.0
X130.0Y-111.0
X130.0Y-113.0
X130.0Y-115.0
X130.0Y-117.0
X130.0Y-119.0
X130.0Y-121.0
X130.0Y-123.0
X130.0Y-125.0
X130.0Y-127.0
X130.0Y-129.0
X130.0Y-131.0
X130.0Y-133.0
X130.0Y-135.0
X130.0Y-137.0
X131.0Y-104.0
X131.0Y-106.0
X131.0Y-108.0
X131.0Y-110.0
X131.0Y-112.0
X131.0Y-114.0
X131.0Y-116.0
X131.0Y-118.0
X131.0Y-120.0
X131.0Y-122.0
X131.0Y-124.0
X131.0Y-130.0
X131.0Y-132.0
X131.0Y-134.0
X131.0Y-136.0
X132.0Y-100.0
X132.0Y-105.0
X132.0Y-107.0
X132.0Y-133.0
X132.0Y-135.0
X132.48Y-125.0
X132.48Y-131.8
X132.5Y-127.5
X132.5Y-128.5
X133.0Y-99.0
X133.0Y-104.0
X133.0Y-106.0
X133.0Y-108.0
X133.0Y-110.0
X133.0Y-112.0
X133.0Y-114.0
X133.0Y-116.0
X133.0Y-118.0
X133.0Y-120.0
X133.0Y-122.0
X133.0Y-124.0
X133.0Y-127.0
X133.0Y-128.0
X133.0Y-129.0
X133.0Y-134.0
X133.0Y-136.0
X133.0Y-140.0
X133.25Y-132.0
X133.5Y-127.5
X133.5Y-128.5
X134.0Y-98.0
X134.0Y-100.0
X134.0Y-103.0
X134.0Y-105.0
X134.0Y-107.0
X134.0Y-109.0
X134.0Y-111.0
X134.0Y-113.0
X134.0Y-115.0
X134.0Y-117.0
X134.0Y-119.0
X134.0Y-121.0
X134.0Y-123.0
X134.0Y-127.0
X134.0Y-128.0
X134.0Y-129.0
X134.0Y-133.0
X134.0Y-135.0
X134.0Y-137.0
X134.0Y-139.0
X134.0Y-141.0
X134.5Y-127.5
X134.5Y-128.5
X135.0Y-97.5
X135.0Y-99.0
X135.0Y-102.0
X135.0Y-104.0
X135.0Y-106.0
X135.0Y-108.0
X135.0Y-128.0
X135.0Y-130.5
X135.0Y-132.25
X135.0Y-134.0
X135.0Y-136.0
X135.0Y-138.0
X135.0Y-140.0
X135.0Y-142.0
X135.25Y-120.0
X135.25Y-122.0
X135.5Y-110.0
X135.5Y-112.0
X135.5Y-114.0
X135.5Y-125.5
X135.5Y-129.5
X135.5Y-131.5
X136.0Y-98.0
X136.0Y-100.0
X136.0Y-103.0
X136.0Y-105.0
X136.0Y-106.9
X136.0Y-109.0
X136.0Y-111.0
X136.0Y-113.0
X136.0Y-115.75
X136.0Y-116.75
X136.0Y-117.75
X136.0Y-126.5
X136.0Y-128.5
X136.0Y-131.0
X136.0Y-133.0
X136.0Y-135.0
X136.0Y-137.0
X136.0Y-139.0
X136.0Y-141.0
X136.0Y-143.0
X136.5Y-125.5
X136.5Y-127.5
X136.5Y-129.5
X136.5Y-131.5
X136.75Y-119.0
X136.75Y-123.0
X137.0Y-98.0
X137.0Y-100.0
X137.0Y-104.0
X137.0Y-110.0
X137.0Y-112.0
X137.0Y-114.0
X137.0Y-126.5
X137.0Y-128.5
X137.0Y-130.5
X137.0Y-134.0
X137.0Y-136.0
X137.0Y-138.0
X137.0Y-140.0
X137.0Y-142.0
X137.18Y-122.1
X137.4Y-120.86
X137.4Y-121.5
X137.5Y-97.0
X137.5Y-99.0
X137.5Y-101.0
X137.9Y-120.2
X138.0Y-96.0
X138.0Y-98.0
X138.0Y-100.0
X138.0Y-103.0
X138.0Y-105.0
X138.0Y-109.2
X138.0Y-111.0
X138.0Y-116.75
X138.0Y-124.0
X138.0Y-126.5
X138.0Y-128.5
X138.0Y-130.0
X138.0Y-131.0
X138.0Y-132.0
X138.0Y-133.0
X138.0Y-135.0
X138.0Y-137.0
X138.0Y-139.0
X138.0Y-141.0
X138.0Y-143.0
X138.0Y-145.0
X138.0Y-147.0
X138.2Y-122.5
X138.45Y-118.86
X138.5Y-97.0
X138.5Y-99.0
X138.5Y-101.0
X138.6Y-133.0
X139.0Y-96.0
X139.0Y-98.0
X139.0Y-100.0
X139.0Y-104.0
X139.0Y-110.0
X139.0Y-113.25
X139.0Y-125.0
X139.0Y-127.5
X139.0Y-136.0
X139.0Y-138.0
X139.0Y-140.0
X139.0Y-142.0
X139.0Y-144.0
X139.0Y-146.0
X139.4Y-119.5
X139.4Y-122.0
X139.5Y-95.0
X139.5Y-97.0
X139.5Y-99.0
X139.5Y-101.0
X139.75Y-130.0
X140.0Y-96.0
X140.0Y-98.0
X140.0Y-100.0
X140.0Y-103.0
X140.0Y-105.0
X140.0Y-111.0
X140.0Y-116.75
X140.0Y-123.6
X140.0Y-126.0
X140.0Y-135.0
X140.0Y-137.0
X140.0Y-139.0
X140.0Y-141.0
X140.0Y-143.0
X140.0Y-145.0
X140.0Y-147.0
X140.5Y-95.0
X140.5Y-97.0
X140.5Y-99.0
X140.5Y-101.0
X140.52Y-130.5
X140.7Y-119.2
X140.7Y-120.0
X140.7Y-121.0
X140.7Y-122.0
X140.7Y-122.5
X141.0Y-96.0
X141.0Y-98.0
X141.0Y-100.0
X141.0Y-104.0
X141.0Y-110.0
X141.0Y-113.25
X141.0Y-124.0
X141.0Y-127.5
X141.0Y-136.0
X141.0Y-138.0
X141.0Y-140.0
X141.0Y-141.9
X141.0Y-144.0
X141.0Y-146.0
X141.0Y-148.0
X141.2Y-130.0
X141.5Y-95.0
X141.5Y-97.0
X141.5Y-99.0
X141.9Y-121.5
X142.0Y-94.0
X142.0Y-96.0
X142.0Y-98.0
X142.0Y-100.0
X142.0Y-101.2
X142.0Y-103.0
X142.0Y-105.0
X142.0Y-111.0
X142.0Y-119.0
X142.0Y-125.0
X142.0Y-137.0
X142.0Y-139.0
X142.0Y-141.0
X142.0Y-143.0
X142.0Y-145.0
X142.0Y-147.0
X142.1Y-140.0
X142.5Y-95.0
X142.5Y-97.0
X142.5Y-99.0
X142.5Y-134.0
X142.5Y-136.1
X142.6Y-120.5
X142.6Y-122.18
X142.6Y-122.82
X143.0Y-94.0
X143.0Y-96.0
X143.0Y-98.0
X143.0Y-100.0
X143.0Y-107.5
X143.0Y-110.0
X143.0Y-112.25
X143.0Y-113.25
X143.0Y-114.25
X143.0Y-124.0
X143.0Y-132.0
X143.0Y-138.0
X143.3Y-108.68
X143.3Y-109.32
X143.8Y-119.6
X144.0Y-93.5
X144.0Y-95.5
X144.0Y-97.5
X144.0Y-103.0
X144.0Y-105.0
X144.0Y-108.0
X144.0Y-111.0
X144.0Y-115.75
X144.0Y-116.75
X144.0Y-117.75
X144.0Y-123.0
X144.0Y-131.0
X144.0Y-137.0
X144.0Y-139.0
X144.0Y-143.0
X144.0Y-145.0
X144.0Y-147.0
X144.1Y-129.25
X144.5Y-94.4
X144.5Y-96.5
X144.5Y-140.25
X144.7Y-121.7
X145.0Y-93.5
X145.0Y-95.5
X145.0Y-97.5
X145.0Y-104.0
X145.0Y-110.0
X145.0Y-112.0
X145.0Y-114.0
X145.0Y-124.0
X145.0Y-130.0
X145.0Y-132.0
X145.0Y-136.0
X145.0Y-138.0
X145.0Y-144.0
X145.0Y-146.0
X145.0Y-148.0
X145.5Y-94.4
X145.5Y-96.5
X145.5Y-127.5
X145.75Y-99.087
X145.75Y-140.25
X146.0Y-93.5
X146.0Y-95.5
X146.0Y-97.5
X146.0Y-103.0
X146.0Y-105.0
X146.0Y-108.0
X146.0Y-111.0
X146.0Y-113.0
X146.0Y-119.0
X146.0Y-121.0
X146.0Y-123.0
X146.0Y-124.5
X146.0Y-127.0
X146.0Y-128.0
X146.0Y-129.0
X146.0Y-130.0
X146.0Y-131.0
X146.0Y-137.0
X146.0Y-139.0
X146.0Y-143.0
X146.0Y-145.0
X146.0Y-147.0
X146.0Y-149.0
X146.4Y-128.5
X146.5Y-118.0
X146.5Y-129.5
X147.0Y-94.0
X147.0Y-96.0
X147.0Y-98.0
X147.0Y-100.0
X147.0Y-110.0
X147.0Y-112.0
X147.0Y-114.0
X147.0Y-120.0
X147.0Y-122.0
X147.0Y-124.5
X147.0Y-127.0
X147.0Y-128.0
X147.0Y-129.0
X147.0Y-130.0
X147.0Y-132.0
X147.0Y-134.0
X147.0Y-135.0
X147.0Y-136.0
X147.0Y-138.0
X147.0Y-144.0
X147.0Y-146.0
X147.0Y-148.0
X147.3Y-116.75
X147.4Y-133.5
X147.5Y-93.0
X147.5Y-95.0
X147.5Y-97.0
X147.5Y-99.0
X147.5Y-101.0
X147.5Y-128.5
X147.5Y-129.5
X147.5Y-134.5
X147.5Y-135.5
X147.8Y-121.5
X148.0Y-94.0
X148.0Y-96.0
X148.0Y-98.0
X148.0Y-100.0
X148.0Y-103.0
X148.0Y-105.0
X148.0Y-111.0
X148.0Y-113.0
X148.0Y-115.0
X148.0Y-119.0
X148.0Y-124.5
X148.0Y-127.0
X148.0Y-128.0
X148.0Y-129.0
X148.0Y-130.0
X148.0Y-131.0
X148.0Y-134.0
X148.0Y-135.0
X148.0Y-136.0
X148.0Y-137.0
X148.0Y-141.0
X148.0Y-145.0
X148.0Y-147.0
X148.0Y-149.0
X148.05Y-123.8
X148.1Y-140.0
X148.5Y-93.0
X148.5Y-95.0
X148.5Y-97.0
X148.5Y-99.0
X148.5Y-101.0
X148.5Y-133.5
X148.5Y-134.5
X148.5Y-135.5
X148.7Y-123.8
X149.0Y-94.0
X149.0Y-96.0
X149.0Y-98.0
X149.0Y-100.0
X149.0Y-104.0
X149.0Y-110.0
X149.0Y-112.0
X149.0Y-114.0
X149.0Y-116.0
X149.0Y-120.0
X149.0Y-124.4
X149.0Y-128.0
X149.0Y-130.0
X149.0Y-132.0
X149.0Y-134.0
X149.0Y-135.0
X149.0Y-136.0
X149.0Y-138.0
X149.0Y-142.0
X149.35Y-123.8
X149.5Y-93.0
X149.5Y-95.0
X149.5Y-97.0
X149.5Y-99.0
X149.5Y-101.0
X149.5Y-121.5
X150.0Y-94.0
X150.0Y-96.0
X150.0Y-98.0
X150.0Y-100.0
X150.0Y-103.0
X150.0Y-105.0
X150.0Y-111.0
X150.0Y-113.0
X150.0Y-115.0
X150.0Y-116.15
X150.0Y-118.1
X150.0Y-119.0
X150.0Y-123.8
X150.0Y-127.0
X150.0Y-129.0
X150.0Y-141.0
X150.0Y-143.0
X150.5Y-93.0
X150.5Y-95.0
X150.5Y-97.0
X150.5Y-99.0
X150.5Y-101.0
X150.65Y-116.15
X150.65Y-118.1
X150.65Y-123.8
X151.0Y-94.0
X151.0Y-96.0
X151.0Y-98.0
X151.0Y-100.0
X151.0Y-104.0
X151.0Y-110.0
X151.0Y-112.0
X151.0Y-114.0
X151.0Y-120.0
X151.0Y-124.4
X151.0Y-130.0
X151.0Y-138.0
X151.0Y-142.0
X151.29Y-115.2
X151.3Y-116.15
X151.3Y-118.1
X151.3Y-123.8
X151.5Y-93.0
X151.5Y-95.0
X151.5Y-97.0
X151.5Y-99.0
X151.5Y-101.0
X151.5Y-121.5
X151.95Y-116.15
X151.95Y-123.8
X152.0Y-94.0
X152.0Y-96.0
X152.0Y-98.0
X152.0Y-100.0
X152.0Y-103.0
X152.0Y-105.0
X152.0Y-107.25
X152.0Y-111.0
X152.0Y-113.0
X152.0Y-115.0
X152.0Y-127.0
X152.0Y-131.0
X152.0Y-133.0
X152.0Y-135.0
X152.0Y-137.0
X152.025Y-141.2
X152.1Y-144.3
X152.5Y-93.0
X152.5Y-95.0
X152.5Y-97.0
X152.5Y-99.0
X152.5Y-117.5
X152.5Y-118.5
X152.637Y-123.5
X153.0Y-94.0
X153.0Y-96.0
X153.0Y-98.0
X153.0Y-112.0
X153.0Y-114.0
X153.0Y-116.0
X153.0Y-118.0
X153.0Y-124.5
X153.0Y-126.9
X153.0Y-129.4
X153.0Y-134.0
X153.0Y-136.0
X153.0Y-138.0
X153.1Y-144.3
X153.3Y-108.68
X153.3Y-109.32
X153.3Y-122.8
X153.4Y-142.0
X153.5Y-117.5
X153.5Y-118.5
X154.0Y-93.5
X154.0Y-95.5
X154.0Y-97.5
X154.0Y-103.0
X154.0Y-105.0
X154.0Y-107.0
X154.0Y-113.0
X154.0Y-115.0
X154.0Y-128.0
X154.0Y-141.0
X154.0Y-142.0
X154.25Y-109.75
X154.4Y-117.4
X154.4Y-118.2
X154.4Y-120.6
X154.4Y-122.2
X154.4Y-123.0
X154.4Y-124.6
X154.4Y-128.6
X154.4Y-129.4
X154.4Y-131.0
X154.4Y-131.8
X154.4Y-132.6
X154.5Y-94.4
X154.5Y-96.5
X154.5Y-107.5
X154.5Y-139.62
X154.675Y-133.5
X155.0Y-93.5
X155.0Y-95.5
X155.0Y-97.5
X155.0Y-104.0
X155.0Y-112.0
X155.0Y-114.0
X155.0Y-116.0
X155.036Y-141.555
X155.2Y-117.4
X155.2Y-118.2
X155.2Y-119.0
X155.2Y-120.6
X155.2Y-121.4
X155.2Y-123.0
X155.2Y-123.8
X155.2Y-124.6
X155.2Y-127.8
X155.2Y-128.6
X155.2Y-131.8
X155.2Y-132.6
X155.3Y-140.0
X155.315Y-133.5
X155.325Y-134.45
X155.325Y-136.3
X155.5Y-94.4
X155.5Y-96.5
X155.5Y-107.5
X155.613Y-141.555
X155.75Y-99.087
X155.75Y-100.0
X155.975Y-136.7
X155.975Y-138.6
X156.0Y-93.5
X156.0Y-95.5
X156.0Y-97.5
X156.0Y-103.0
X156.0Y-105.0
X156.0Y-109.75
X156.0Y-113.0
X156.0Y-115.0
X156.0Y-117.4
X156.0Y-118.2
X156.0Y-120.6
X156.0Y-122.2
X156.0Y-123.0
X156.0Y-123.8
X156.0Y-126.2
X156.0Y-127.8
X156.0Y-128.6
X156.0Y-131.0
X156.0Y-132.6
X156.5Y-107.0
X156.5Y-140.0
X156.7Y-137.7
X156.8Y-119.0
X156.8Y-120.6
X156.8Y-121.4
X156.8Y-122.2
X156.8Y-123.0
X156.8Y-123.8
X156.8Y-125.4
X156.94Y-141.3
X157.0Y-94.0
X157.0Y-96.0
X157.0Y-98.0
X157.0Y-100.0
X157.0Y-104.0
X157.0Y-112.0
X157.0Y-114.0
X157.0Y-116.0
X157.5Y-95.0
X157.5Y-97.0
X157.5Y-99.0
X157.5Y-101.0
X157.5Y-137.2
X157.6Y-118.2
X157.6Y-119.0
X157.6Y-120.6
X157.6Y-121.4
X157.6Y-122.2
X157.6Y-123.0
X157.6Y-123.8
X157.6Y-124.6
X157.6Y-126.2
X157.6Y-127.0
X157.6Y-127.8
X157.6Y-128.6
X157.6Y-129.4
X157.6Y-130.2
X157.6Y-131.0
X157.6Y-135.76
X157.6Y-136.4
X158.0Y-94.0
X158.0Y-96.0
X158.0Y-98.0
X158.0Y-100.0
X158.0Y-103.0
X158.0Y-105.0
X158.0Y-109.75
X158.0Y-113.0
X158.0Y-115.0
X158.0Y-141.0
X158.1Y-134.8
X158.14Y-137.2
X158.4Y-117.4
X158.4Y-118.2
X158.4Y-120.6
X158.4Y-121.4
X158.4Y-122.2
X158.4Y-123.0
X158.4Y-123.8
X158.4Y-124.6
X158.4Y-125.4
X158.4Y-127.8
X158.4Y-128.6
X158.4Y-129.4
X158.4Y-130.2
X158.4Y-132.6
X158.5Y-95.0
X158.5Y-97.0
X158.5Y-99.0
X158.5Y-101.0
X158.9Y-142.2
X159.0Y-96.0
X159.0Y-98.0
X159.0Y-100.0
X159.0Y-104.0
X159.0Y-112.0
X159.0Y-114.0
X159.0Y-116.0
X159.0Y-135.0
X159.0Y-138.0
X159.2Y-117.4
X159.2Y-118.2
X159.2Y-119.0
X159.2Y-120.6
X159.2Y-121.4
X159.2Y-122.2
X159.2Y-123.0
X159.2Y-123.8
X159.2Y-124.6
X159.2Y-125.4
X159.2Y-126.2
X159.2Y-127.0
X159.2Y-127.8
X159.2Y-128.6
X159.2Y-129.4
X159.2Y-132.6
X159.2Y-144.3
X159.35Y-141.0
X159.5Y-95.0
X159.5Y-97.0
X159.5Y-99.0
X159.5Y-101.0
X159.5Y-134.5
X159.5Y-135.5
X159.675Y-133.0
X159.712Y-137.6
X160.0Y-96.0
X160.0Y-98.0
X160.0Y-100.0
X160.0Y-103.0
X160.0Y-105.0
X160.0Y-109.75
X160.0Y-113.0
X160.0Y-115.0
X160.0Y-117.4
X160.0Y-118.2
X160.0Y-120.6
X160.0Y-121.4
X160.0Y-122.2
X160.0Y-123.8
X160.0Y-124.6
X160.0Y-125.4
X160.0Y-126.2
X160.0Y-127.0
X160.0Y-127.8
X160.0Y-128.6
X160.0Y-129.4
X160.0Y-131.8
X160.0Y-135.0
X160.1Y-144.3
X160.288Y-137.6
X160.5Y-95.0
X160.5Y-97.0
X160.5Y-99.0
X160.5Y-101.0
X160.5Y-134.5
X160.5Y-135.5
X160.8Y-117.4
X160.8Y-118.2
X160.8Y-119.0
X160.8Y-120.6
X160.8Y-121.4
X160.8Y-122.2
X160.8Y-123.8
X160.8Y-124.6
X160.8Y-125.4
X160.8Y-126.2
X160.8Y-127.0
X160.8Y-128.6
X160.8Y-129.4
X160.8Y-130.2
X160.8Y-132.6
X160.8Y-141.675
X161.0Y-96.0
X161.0Y-98.0
X161.0Y-100.0
X161.0Y-104.0
X161.0Y-112.0
X161.0Y-114.0
X161.0Y-116.0
X161.0Y-135.0
X161.0Y-136.0
X161.0Y-138.0
X161.5Y-97.0
X161.5Y-99.0
X161.6Y-120.6
X161.6Y-121.4
X161.6Y-122.2
X161.6Y-123.8
X161.6Y-124.6
X161.6Y-125.4
X161.6Y-126.2
X161.6Y-127.0
X161.6Y-128.6
X161.6Y-129.4
X161.6Y-130.2
X161.6Y-131.8
X161.6Y-132.6
X161.7Y-133.3
X161.7Y-134.9
X161.85Y-141.0
X162.0Y-96.0
X162.0Y-98.0
X162.0Y-100.0
X162.0Y-101.2
X162.0Y-103.0
X162.0Y-105.0
X162.0Y-113.0
X162.0Y-115.0
X162.0Y-137.0
X162.0Y-139.0
X162.0Y-142.0
X162.4Y-117.4
X162.4Y-120.6
X162.4Y-121.4
X162.4Y-122.2
X162.4Y-123.8
X162.4Y-124.6
X162.4Y-125.4
X162.4Y-126.2
X162.4Y-127.0
X162.4Y-127.8
X162.4Y-128.6
X162.4Y-129.4
X162.4Y-130.2
X162.4Y-131.0
X162.4Y-132.6
X162.5Y-97.0
X162.5Y-99.0
X163.0Y-98.0
X163.0Y-100.0
X163.0Y-107.0
X163.0Y-108.0
X163.0Y-114.0
X163.0Y-116.0
X163.0Y-136.0
X163.0Y-138.0
X163.0Y-140.0
X163.2Y-119.0
X163.2Y-120.6
X163.2Y-121.4
X163.2Y-122.2
X163.2Y-123.8
X163.2Y-124.6
X163.2Y-125.4
X163.2Y-126.2
X163.2Y-127.0
X163.2Y-127.8
X163.2Y-128.6
X163.2Y-129.4
X163.2Y-131.8
X163.2Y-132.6
X163.4Y-140.6
X163.4Y-141.3
X163.5Y-109.6
X164.0Y-98.0
X164.0Y-102.0
X164.0Y-103.0
X164.0Y-105.0
X164.0Y-107.0
X164.0Y-115.0
X164.0Y-118.2
X164.0Y-120.6
X164.0Y-121.4
X164.0Y-122.2
X164.0Y-124.6
X164.0Y-125.4
X164.0Y-127.8
X164.0Y-128.6
X164.0Y-129.4
X164.0Y-130.2
X164.0Y-131.0
X164.0Y-135.4
X164.0Y-143.0
X164.2Y-109.6
X164.4Y-125.0
X164.5Y-97.0
X164.7Y-134.8
X164.75Y-109.0
X164.8Y-117.4
X164.8Y-119.0
X164.8Y-121.4
X164.8Y-122.2
X164.8Y-123.0
X164.8Y-123.8
X164.8Y-124.6
X164.8Y-125.4
X164.8Y-126.2
X164.8Y-127.0
X164.8Y-127.8
X164.8Y-128.6
X164.8Y-129.4
X164.8Y-130.2
X164.8Y-131.0
X165.0Y-98.0
X165.0Y-102.0
X165.0Y-104.0
X165.0Y-136.0
X165.0Y-138.0
X165.0Y-140.0
X165.0Y-142.0
X165.2Y-110.75
X165.25Y-111.75
X165.25Y-112.75
X165.25Y-113.75
X165.5Y-99.087
X165.5Y-115.0
X165.6Y-118.2
X165.6Y-119.8
X165.6Y-121.4
X165.6Y-122.2
X165.6Y-123.0
X165.6Y-123.8
X165.6Y-124.6
X165.6Y-125.4
X165.6Y-126.2
X165.6Y-127.0
X165.6Y-127.8
X165.6Y-128.6
X165.6Y-129.4
X165.6Y-130.2
X165.6Y-131.8
X165.6Y-132.6
X165.75Y-109.0
X165.75Y-111.25
X165.8Y-112.25
X165.8Y-113.25
X165.8Y-114.25
X166.0Y-98.0
X166.0Y-100.0
X166.0Y-102.0
X166.0Y-103.0
X166.0Y-105.0
X166.0Y-116.0
X166.0Y-135.0
X166.0Y-141.0
X166.4Y-117.4
X166.4Y-119.0
X166.4Y-119.8
X166.4Y-121.4
X166.4Y-122.2
X166.4Y-123.0
X166.4Y-123.8
X166.4Y-124.6
X166.4Y-125.4
X166.4Y-126.2
X166.4Y-127.0
X166.4Y-127.8
X166.4Y-128.6
X166.4Y-129.4
X166.4Y-130.2
X166.5Y-99.0
X166.5Y-101.0
X166.674Y-134.0
X166.75Y-109.0
X166.75Y-116.0
X166.911Y-133.09
X167.0Y-100.0
X167.0Y-104.0
X167.0Y-140.0
X167.2Y-122.2
X167.2Y-123.0
X167.2Y-127.0
X167.2Y-131.8
X167.488Y-133.09
X167.5Y-107.5
X167.5Y-110.0
X167.5Y-112.0
X167.5Y-114.0
X167.5Y-116.0
X168.0Y-100.0
X168.0Y-105.0
X168.0Y-111.0
X168.0Y-113.0
X168.0Y-118.2
X168.0Y-119.0
X168.0Y-122.2
X168.0Y-123.0
X168.0Y-127.0
X168.0Y-130.2
X168.0Y-135.0
X168.357Y-107.85
X168.5Y-110.0
X168.5Y-112.0
X168.5Y-114.0
X168.75Y-115.6
X168.8Y-118.2
X168.8Y-119.0
X168.8Y-122.2
X168.8Y-124.6
X168.8Y-125.4
X168.8Y-126.2
X168.8Y-129.4
X168.8Y-131.0
X168.8Y-131.8
X168.9Y-107.5
X169.0Y-104.0
X169.0Y-111.0
X169.0Y-113.0
X169.0Y-134.0
X169.0Y-136.0
X169.5Y-110.0
X169.5Y-112.0
X169.5Y-114.0
X169.6Y-122.2
X169.6Y-124.6
X169.6Y-125.4
X169.6Y-131.0
X169.6Y-131.8
X170.0Y-102.0
X170.0Y-103.0
X170.0Y-111.0
X170.0Y-113.0
X170.0Y-124.0
X170.0Y-126.0
X170.0Y-129.0
X170.0Y-133.0
X170.0Y-135.0
X170.0Y-137.0
X170.5Y-110.0
X170.5Y-112.0
X170.5Y-114.0
X170.75Y-106.1
X170.9Y-123.595
X171.0Y-111.0
X171.0Y-113.0
X171.0Y-125.0
X171.0Y-128.25
X171.0Y-130.0
X171.0Y-132.0
X171.0Y-134.0
X171.0Y-136.0
X171.5Y-110.0
X171.5Y-112.0
X171.9Y-128.0
X172.0Y-105.5
X172.0Y-106.5
X172.0Y-122.0
X172.0Y-129.0
X172.0Y-131.0
X172.0Y-133.0
X172.0Y-135.0
X172.5Y-105.0
X172.5Y-106.0
X172.5Y-109.0
X173.0Y-105.5
X173.0Y-106.5
X173.0Y-121.0
X173.0Y-128.0
X173.0Y-130.0
X173.0Y-132.0
X173.0Y-134.0
X173.25Y-111.25
X173.5Y-123.2
X173.75Y-111.75
X174.0Y-122.0
X174.0Y-129.0
X174.0Y-131.0
X174.25Y-112.25
X174.25Y-116.0
X174.25Y-118.0
X174.75Y-112.75
X175.0Y-111.5
X175.0Y-130.0
X175.25Y-113.25
X175.25Y-115.0
X175.25Y-117.0
X175.75Y-113.75
X176.0Y-112.5
X176.1Y-123.595
X176.1Y-124.865
X176.1Y-126.135
X176.1Y-127.405
X176.25Y-116.0
T2
X150.6Y-131.6
X150.6Y-132.85
X150.6Y-134.1
X150.6Y-135.35
X150.6Y-136.6
M30
