%TF.GenerationSoftware,KiCad,Pcbnew,8.0.2-8.0.2-0~ubuntu22.04.1*%
%TF.CreationDate,2024-05-26T19:12:22+02:00*%
%TF.ProjectId,omodri_sa_laas,6f6d6f64-7269-45f7-9361-5f6c6161732e,1.0*%
%TF.SameCoordinates,Original*%
%TF.FileFunction,Soldermask,Bot*%
%TF.FilePolarity,Negative*%
%FSLAX46Y46*%
G04 Gerber Fmt 4.6, Leading zero omitted, Abs format (unit mm)*
G04 Created by KiCad (PCBNEW 8.0.2-8.0.2-0~ubuntu22.04.1) date 2024-05-26 19:12:22*
%MOMM*%
%LPD*%
G01*
G04 APERTURE LIST*
G04 Aperture macros list*
%AMRoundRect*
0 Rectangle with rounded corners*
0 $1 Rounding radius*
0 $2 $3 $4 $5 $6 $7 $8 $9 X,Y pos of 4 corners*
0 Add a 4 corners polygon primitive as box body*
4,1,4,$2,$3,$4,$5,$6,$7,$8,$9,$2,$3,0*
0 Add four circle primitives for the rounded corners*
1,1,$1+$1,$2,$3*
1,1,$1+$1,$4,$5*
1,1,$1+$1,$6,$7*
1,1,$1+$1,$8,$9*
0 Add four rect primitives between the rounded corners*
20,1,$1+$1,$2,$3,$4,$5,0*
20,1,$1+$1,$4,$5,$6,$7,0*
20,1,$1+$1,$6,$7,$8,$9,0*
20,1,$1+$1,$8,$9,$2,$3,0*%
%AMFreePoly0*
4,1,29,0.792426,2.342426,0.810000,2.300000,0.810000,1.310000,1.250000,1.310000,1.292426,1.292426,1.310000,1.250000,1.310000,-1.250000,1.292426,-1.292426,1.250000,-1.310000,0.810000,-1.310000,0.810000,-2.300000,0.792426,-2.342426,0.750000,-2.360000,-0.750000,-2.360000,-0.792426,-2.342426,-0.810000,-2.300000,-0.810000,-1.310000,-1.250000,-1.310000,-1.292426,-1.292426,-1.310000,-1.250000,
-1.310000,1.250000,-1.292426,1.292426,-1.250000,1.310000,-0.810000,1.310000,-0.810000,2.300000,-0.792426,2.342426,-0.750000,2.360000,0.750000,2.360000,0.792426,2.342426,0.792426,2.342426,$1*%
G04 Aperture macros list end*
%ADD10C,0.800000*%
%ADD11R,0.200000X0.550000*%
%ADD12R,0.200000X0.500000*%
%ADD13C,3.400000*%
%ADD14RoundRect,0.250000X-0.450000X0.250000X-0.450000X-0.250000X0.450000X-0.250000X0.450000X0.250000X0*%
%ADD15O,1.400000X1.000000*%
%ADD16RoundRect,0.250000X-1.100000X0.325000X-1.100000X-0.325000X1.100000X-0.325000X1.100000X0.325000X0*%
%ADD17RoundRect,0.250000X-0.325000X-1.100000X0.325000X-1.100000X0.325000X1.100000X-0.325000X1.100000X0*%
%ADD18RoundRect,0.100000X0.100000X-0.130000X0.100000X0.130000X-0.100000X0.130000X-0.100000X-0.130000X0*%
%ADD19RoundRect,0.100000X0.130000X0.100000X-0.130000X0.100000X-0.130000X-0.100000X0.130000X-0.100000X0*%
%ADD20RoundRect,0.100000X-0.130000X-0.100000X0.130000X-0.100000X0.130000X0.100000X-0.130000X0.100000X0*%
%ADD21RoundRect,0.100000X-0.100000X0.130000X-0.100000X-0.130000X0.100000X-0.130000X0.100000X0.130000X0*%
%ADD22RoundRect,0.140000X-0.140000X-0.170000X0.140000X-0.170000X0.140000X0.170000X-0.140000X0.170000X0*%
%ADD23RoundRect,0.250000X-0.450000X0.262500X-0.450000X-0.262500X0.450000X-0.262500X0.450000X0.262500X0*%
%ADD24RoundRect,0.135000X-0.135000X-0.185000X0.135000X-0.185000X0.135000X0.185000X-0.135000X0.185000X0*%
%ADD25RoundRect,0.135000X0.135000X0.185000X-0.135000X0.185000X-0.135000X-0.185000X0.135000X-0.185000X0*%
%ADD26RoundRect,0.070000X-0.355000X0.070000X-0.355000X-0.070000X0.355000X-0.070000X0.355000X0.070000X0*%
%ADD27RoundRect,0.070000X-0.305000X0.070000X-0.305000X-0.070000X0.305000X-0.070000X0.305000X0.070000X0*%
%ADD28RoundRect,0.070000X-0.070000X-0.355000X0.070000X-0.355000X0.070000X0.355000X-0.070000X0.355000X0*%
%ADD29RoundRect,0.070000X-0.070000X-0.305000X0.070000X-0.305000X0.070000X0.305000X-0.070000X0.305000X0*%
%ADD30R,0.450000X1.380000*%
%ADD31R,1.650000X1.300000*%
%ADD32R,1.425000X1.550000*%
%ADD33R,1.800000X1.900000*%
%ADD34R,1.000000X1.900000*%
%ADD35R,0.508000X0.762000*%
%ADD36RoundRect,0.062500X-0.062500X-0.137500X0.062500X-0.137500X0.062500X0.137500X-0.062500X0.137500X0*%
%ADD37RoundRect,0.225000X0.017678X-0.335876X0.335876X-0.017678X-0.017678X0.335876X-0.335876X0.017678X0*%
%ADD38R,0.300000X0.600000*%
%ADD39R,2.400000X1.650000*%
%ADD40R,0.500000X1.400000*%
%ADD41R,0.350000X0.700000*%
%ADD42FreePoly0,270.000000*%
%ADD43RoundRect,0.140000X0.140000X0.170000X-0.140000X0.170000X-0.140000X-0.170000X0.140000X-0.170000X0*%
%ADD44RoundRect,0.100000X0.100000X-0.637500X0.100000X0.637500X-0.100000X0.637500X-0.100000X-0.637500X0*%
%ADD45RoundRect,0.150000X-0.600000X1.350000X-0.600000X-1.350000X0.600000X-1.350000X0.600000X1.350000X0*%
%ADD46C,0.900000*%
%ADD47R,0.700000X1.800000*%
%ADD48R,1.600000X2.200000*%
G04 APERTURE END LIST*
D10*
%TO.C,J9*%
X173500000Y-124230000D03*
X173500000Y-126770000D03*
%TD*%
D11*
%TO.C,U8*%
X158000000Y-138875000D03*
D12*
X157500000Y-138900000D03*
X157000000Y-138900000D03*
X157000000Y-138100000D03*
X157500000Y-138100000D03*
X158000000Y-138100000D03*
%TD*%
D13*
%TO.C,H3*%
X132000000Y-101937607D03*
%TD*%
%TO.C,H4*%
X168000000Y-138062391D03*
%TD*%
%TO.C,H1*%
X132000000Y-138062391D03*
%TD*%
%TO.C,H2*%
X168000000Y-101937607D03*
%TD*%
D14*
%TO.C,J2*%
X150600000Y-131600000D03*
D15*
X150600000Y-132850000D03*
X150600000Y-134100000D03*
X150600000Y-135350000D03*
X150600000Y-136600000D03*
%TD*%
D16*
%TO.C,C81*%
X137200000Y-105325000D03*
X137200000Y-108275000D03*
%TD*%
%TO.C,C82*%
X140400000Y-104225000D03*
X140400000Y-107175000D03*
%TD*%
D17*
%TO.C,C76*%
X131025000Y-121500000D03*
X133975000Y-121500000D03*
%TD*%
D18*
%TO.C,C63*%
X158100000Y-136400000D03*
X158100000Y-135760000D03*
%TD*%
D19*
%TO.C,C2*%
X161520000Y-121000000D03*
X160880000Y-121000000D03*
%TD*%
D20*
%TO.C,C60*%
X150650000Y-115700000D03*
X151290000Y-115700000D03*
%TD*%
D21*
%TO.C,C66*%
X158700000Y-138100000D03*
X158700000Y-138740000D03*
%TD*%
D22*
%TO.C,C53*%
X146020000Y-101000000D03*
X146980000Y-101000000D03*
%TD*%
D21*
%TO.C,R6*%
X168300000Y-125080000D03*
X168300000Y-125720000D03*
%TD*%
D23*
%TO.C,R16*%
X144600000Y-99175000D03*
X144600000Y-101000000D03*
%TD*%
%TO.C,R24*%
X134580000Y-99175000D03*
X134580000Y-101000000D03*
%TD*%
D24*
%TO.C,R40*%
X170190000Y-106800000D03*
X171210000Y-106800000D03*
%TD*%
D20*
%TO.C,R44*%
X133790000Y-130000000D03*
X134430000Y-130000000D03*
%TD*%
D22*
%TO.C,C45*%
X156020000Y-101000000D03*
X156980000Y-101000000D03*
%TD*%
D19*
%TO.C,R20*%
X157120000Y-117400000D03*
X156480000Y-117400000D03*
%TD*%
D21*
%TO.C,R21*%
X165600000Y-118680000D03*
X165600000Y-119320000D03*
%TD*%
D19*
%TO.C,C1*%
X143320000Y-119600000D03*
X142680000Y-119600000D03*
%TD*%
D25*
%TO.C,R41*%
X171210000Y-107900000D03*
X170190000Y-107900000D03*
%TD*%
D19*
%TO.C,R37*%
X175420000Y-123595000D03*
X174780000Y-123595000D03*
%TD*%
D20*
%TO.C,C27*%
X159280200Y-129000000D03*
X159920200Y-129000000D03*
%TD*%
D19*
%TO.C,R9*%
X161520000Y-121800000D03*
X160880000Y-121800000D03*
%TD*%
D21*
%TO.C,C10*%
X158799200Y-124680000D03*
X158799200Y-125320000D03*
%TD*%
%TO.C,C6*%
X166000000Y-126280000D03*
X166000000Y-126920000D03*
%TD*%
D19*
%TO.C,C11*%
X163119200Y-128200000D03*
X162479200Y-128200000D03*
%TD*%
D21*
%TO.C,R10*%
X165200000Y-126280000D03*
X165200000Y-126920000D03*
%TD*%
%TO.C,C5*%
X158000000Y-124680000D03*
X158000000Y-125320000D03*
%TD*%
D19*
%TO.C,C9*%
X163119200Y-129000000D03*
X162479200Y-129000000D03*
%TD*%
D18*
%TO.C,C4*%
X165200000Y-123720000D03*
X165200000Y-123080000D03*
%TD*%
D21*
%TO.C,C25*%
X166000000Y-127880000D03*
X166000000Y-128520000D03*
%TD*%
D20*
%TO.C,C29*%
X164080000Y-130600000D03*
X164720000Y-130600000D03*
%TD*%
D18*
%TO.C,C28*%
X166000000Y-130120000D03*
X166000000Y-129480000D03*
%TD*%
%TO.C,C68*%
X164800000Y-132300000D03*
X164800000Y-131660000D03*
%TD*%
D21*
%TO.C,C21*%
X169200000Y-124680000D03*
X169200000Y-125320000D03*
%TD*%
D19*
%TO.C,C31*%
X155120000Y-132200000D03*
X154480000Y-132200000D03*
%TD*%
D21*
%TO.C,C30*%
X169200000Y-131080000D03*
X169200000Y-131720000D03*
%TD*%
D19*
%TO.C,C32*%
X159920000Y-121800000D03*
X159280000Y-121800000D03*
%TD*%
D18*
%TO.C,R32*%
X154400000Y-124120000D03*
X154400000Y-123480000D03*
%TD*%
D19*
%TO.C,R42*%
X135070000Y-129300000D03*
X134430000Y-129300000D03*
%TD*%
D21*
%TO.C,R34*%
X162400000Y-131480000D03*
X162400000Y-132120000D03*
%TD*%
D19*
%TO.C,C67*%
X158340000Y-141600000D03*
X157700000Y-141600000D03*
%TD*%
D21*
%TO.C,C22*%
X166000000Y-124680000D03*
X166000000Y-125320000D03*
%TD*%
%TO.C,R33*%
X157200000Y-125480000D03*
X157200000Y-126120000D03*
%TD*%
D20*
%TO.C,R43*%
X132480000Y-129300000D03*
X133120000Y-129300000D03*
%TD*%
%TO.C,C34*%
X159280200Y-128200000D03*
X159920200Y-128200000D03*
%TD*%
%TO.C,R35*%
X143250000Y-140000000D03*
X143890000Y-140000000D03*
%TD*%
D21*
%TO.C,C33*%
X165200000Y-124680000D03*
X165200000Y-125320000D03*
%TD*%
D20*
%TO.C,R19*%
X155680000Y-119000000D03*
X156320000Y-119000000D03*
%TD*%
D19*
%TO.C,R31*%
X161120000Y-131800000D03*
X160480000Y-131800000D03*
%TD*%
D18*
%TO.C,R7*%
X168000000Y-131720000D03*
X168000000Y-131080000D03*
%TD*%
D20*
%TO.C,C19*%
X155280000Y-122600000D03*
X155920000Y-122600000D03*
%TD*%
D26*
%TO.C,U9*%
X166925000Y-131300000D03*
D27*
X166975000Y-131800000D03*
X166975000Y-132300000D03*
X165825000Y-132300000D03*
X165825000Y-131800000D03*
X165825000Y-131300000D03*
%TD*%
D28*
%TO.C,U10*%
X167100000Y-128075000D03*
D29*
X167600000Y-128025000D03*
X168100000Y-128025000D03*
X168100000Y-129175000D03*
X167600000Y-129175000D03*
X167100000Y-129175000D03*
%TD*%
D20*
%TO.C,R18*%
X159680000Y-119000000D03*
X160320000Y-119000000D03*
%TD*%
D22*
%TO.C,C55*%
X136020000Y-101000000D03*
X136980000Y-101000000D03*
%TD*%
D19*
%TO.C,R25*%
X166320000Y-120200000D03*
X165680000Y-120200000D03*
%TD*%
D18*
%TO.C,R8*%
X156000000Y-132120000D03*
X156000000Y-131480000D03*
%TD*%
%TO.C,C20*%
X158800000Y-123720000D03*
X158800000Y-123080000D03*
%TD*%
D21*
%TO.C,C42*%
X154800000Y-120680000D03*
X154800000Y-121320000D03*
%TD*%
%TO.C,R38*%
X164000000Y-131660000D03*
X164000000Y-132300000D03*
%TD*%
D20*
%TO.C,C24*%
X158080000Y-127000000D03*
X158720000Y-127000000D03*
%TD*%
D19*
%TO.C,D7*%
X171210000Y-109000000D03*
X170570000Y-109000000D03*
%TD*%
D20*
%TO.C,C23*%
X158080000Y-126200000D03*
X158720000Y-126200000D03*
%TD*%
%TO.C,C35*%
X164080000Y-129800000D03*
X164720000Y-129800000D03*
%TD*%
%TO.C,C26*%
X160880000Y-129000000D03*
X161520000Y-129000000D03*
%TD*%
%TO.C,R36*%
X147000000Y-140000000D03*
X147640000Y-140000000D03*
%TD*%
D21*
%TO.C,R22*%
X164800000Y-117880000D03*
X164800000Y-118520000D03*
%TD*%
%TO.C,R30*%
X158100000Y-133600000D03*
X158100000Y-134240000D03*
%TD*%
D30*
%TO.C,J8*%
X157700000Y-142840000D03*
X157050000Y-142840000D03*
X156400000Y-142840000D03*
X155750000Y-142840000D03*
X155100000Y-142840000D03*
D31*
X159775000Y-145500000D03*
D32*
X158887500Y-142925000D03*
D33*
X157550000Y-145500000D03*
D34*
X154850000Y-145500000D03*
D32*
X153912500Y-142925000D03*
D31*
X153025000Y-145500000D03*
%TD*%
D22*
%TO.C,C36*%
X164020000Y-121800000D03*
X164980000Y-121800000D03*
%TD*%
D16*
%TO.C,C85*%
X166000000Y-106525000D03*
X166000000Y-109475000D03*
%TD*%
D20*
%TO.C,C13*%
X168080000Y-118600000D03*
X168720000Y-118600000D03*
%TD*%
D35*
%TO.C,D5*%
X151775000Y-142177799D03*
X151775000Y-143322201D03*
X150825000Y-143322201D03*
X150825000Y-142177799D03*
%TD*%
D21*
%TO.C,D1*%
X143320000Y-120360000D03*
X143320000Y-121000000D03*
%TD*%
D19*
%TO.C,C16*%
X159920000Y-121000000D03*
X159280000Y-121000000D03*
%TD*%
D23*
%TO.C,R13*%
X154600000Y-99175000D03*
X154600000Y-101000000D03*
%TD*%
D16*
%TO.C,C83*%
X159600000Y-104225000D03*
X159600000Y-107175000D03*
%TD*%
%TO.C,C84*%
X162800000Y-105325000D03*
X162800000Y-108275000D03*
%TD*%
D18*
%TO.C,C38*%
X158000000Y-121320000D03*
X158000000Y-120680000D03*
%TD*%
D16*
%TO.C,C80*%
X134000000Y-106525000D03*
X134000000Y-109475000D03*
%TD*%
D19*
%TO.C,R1*%
X143320000Y-118900000D03*
X142680000Y-118900000D03*
%TD*%
D21*
%TO.C,C7*%
X158000200Y-127880000D03*
X158000200Y-128520000D03*
%TD*%
D19*
%TO.C,C14*%
X160720000Y-117800000D03*
X160080000Y-117800000D03*
%TD*%
D36*
%TO.C,D3*%
X156700000Y-140300000D03*
X157200000Y-140700000D03*
X156200000Y-140700000D03*
%TD*%
D37*
%TO.C,C89*%
X135451992Y-134348008D03*
X136548008Y-133251992D03*
%TD*%
D19*
%TO.C,C41*%
X155120000Y-117800000D03*
X154480000Y-117800000D03*
%TD*%
%TO.C,C86*%
X156320000Y-121400000D03*
X155680000Y-121400000D03*
%TD*%
D21*
%TO.C,C39*%
X157200000Y-122280000D03*
X157200000Y-122920000D03*
%TD*%
D19*
%TO.C,C18*%
X163120000Y-121800000D03*
X162480000Y-121800000D03*
%TD*%
D18*
%TO.C,C3*%
X166000000Y-123720000D03*
X166000000Y-123080000D03*
%TD*%
D19*
%TO.C,C57*%
X154720000Y-119000000D03*
X154080000Y-119000000D03*
%TD*%
D21*
%TO.C,C37*%
X158000000Y-122280000D03*
X158000000Y-122920000D03*
%TD*%
D19*
%TO.C,C56*%
X158720000Y-119000000D03*
X158080000Y-119000000D03*
%TD*%
D38*
%TO.C,U6*%
X159025000Y-133600000D03*
X159675000Y-133600000D03*
X160325000Y-133600000D03*
X160975000Y-133600000D03*
X160975000Y-136400000D03*
X160325000Y-136400000D03*
X159675000Y-136400000D03*
X159025000Y-136400000D03*
D39*
X160000000Y-135000000D03*
%TD*%
D20*
%TO.C,C88*%
X158480000Y-117800000D03*
X159120000Y-117800000D03*
%TD*%
D40*
%TO.C,U11*%
X130855000Y-124000000D03*
D41*
X131830000Y-123650000D03*
X132480000Y-123650000D03*
X133130000Y-123650000D03*
X133780000Y-123650000D03*
X134430000Y-123650000D03*
D40*
X135155000Y-124000000D03*
X135155000Y-128000000D03*
D41*
X134430000Y-128350000D03*
X133780000Y-128350000D03*
X133130000Y-128350000D03*
X132480000Y-128350000D03*
X131830000Y-128350000D03*
D40*
X130855000Y-128000000D03*
D42*
X133000000Y-126000000D03*
%TD*%
D17*
%TO.C,C78*%
X131025000Y-115100000D03*
X133975000Y-115100000D03*
%TD*%
D43*
%TO.C,C12*%
X164080000Y-125000000D03*
X163120000Y-125000000D03*
%TD*%
D44*
%TO.C,U3*%
X151950000Y-122862500D03*
X151300000Y-122862500D03*
X150650000Y-122862500D03*
X150000000Y-122862500D03*
X149350000Y-122862500D03*
X148700000Y-122862500D03*
X148050000Y-122862500D03*
X148050000Y-117137500D03*
X148700000Y-117137500D03*
X149350000Y-117137500D03*
X150000000Y-117137500D03*
X150650000Y-117137500D03*
X151300000Y-117137500D03*
X151950000Y-117137500D03*
%TD*%
D19*
%TO.C,C8*%
X164720000Y-128200000D03*
X164080000Y-128200000D03*
%TD*%
D45*
%TO.C,J4*%
X136000000Y-116750000D03*
X137000000Y-113250000D03*
X138000000Y-116750000D03*
X139000000Y-113250000D03*
X140000000Y-116750000D03*
X141000000Y-113250000D03*
X142000000Y-116750000D03*
X143000000Y-113250000D03*
X144000000Y-116750000D03*
X145000000Y-113250000D03*
X146000000Y-116750000D03*
%TD*%
D17*
%TO.C,C79*%
X131025000Y-111900000D03*
X133975000Y-111900000D03*
%TD*%
D19*
%TO.C,C58*%
X157120000Y-118200000D03*
X156480000Y-118200000D03*
%TD*%
%TO.C,C15*%
X163119800Y-121000000D03*
X162479800Y-121000000D03*
%TD*%
D17*
%TO.C,C77*%
X131025000Y-118300000D03*
X133975000Y-118300000D03*
%TD*%
D18*
%TO.C,C17*%
X166000000Y-122120000D03*
X166000000Y-121480000D03*
%TD*%
D46*
%TO.C,J1*%
X140950000Y-142837500D03*
X148050000Y-142837500D03*
D47*
X142000000Y-141437500D03*
X143250000Y-141437500D03*
X144500000Y-141437500D03*
X145750000Y-141437500D03*
X147000000Y-141437500D03*
D48*
X139650000Y-144737500D03*
X149350000Y-144737500D03*
%TD*%
G36*
X150525939Y-92352538D02*
G01*
X151567684Y-92392008D01*
X151572372Y-92392275D01*
X152385383Y-92453972D01*
X152450741Y-92478672D01*
X152492369Y-92534787D01*
X152500000Y-92577616D01*
X152500000Y-100876000D01*
X152480315Y-100943039D01*
X152427511Y-100988794D01*
X152376000Y-101000000D01*
X147624000Y-101000000D01*
X147556961Y-100980315D01*
X147511206Y-100927511D01*
X147500000Y-100876000D01*
X147500000Y-92577616D01*
X147519685Y-92510577D01*
X147572489Y-92464822D01*
X147614617Y-92453972D01*
X148427627Y-92392275D01*
X148432315Y-92392008D01*
X149474061Y-92352538D01*
X149478756Y-92352449D01*
X150521244Y-92352449D01*
X150525939Y-92352538D01*
G37*
G36*
X142413366Y-93431747D02*
G01*
X142471357Y-93470718D01*
X142499074Y-93534855D01*
X142500000Y-93549983D01*
X142500000Y-100876000D01*
X142480315Y-100943039D01*
X142427511Y-100988794D01*
X142376000Y-101000000D01*
X137624000Y-101000000D01*
X137556961Y-100980315D01*
X137511206Y-100927511D01*
X137500000Y-100876000D01*
X137500000Y-95413673D01*
X137519685Y-95346634D01*
X137569567Y-95302259D01*
X138331723Y-94929896D01*
X138335980Y-94927915D01*
X139289325Y-94506074D01*
X139293655Y-94504256D01*
X140262234Y-94118835D01*
X140266629Y-94117181D01*
X141249179Y-93768683D01*
X141253634Y-93767198D01*
X142248612Y-93456172D01*
X142253119Y-93454856D01*
X142343511Y-93430315D01*
X142413366Y-93431747D01*
G37*
G36*
X157656490Y-93430315D02*
G01*
X157746881Y-93454856D01*
X157751387Y-93456172D01*
X158746365Y-93767198D01*
X158750820Y-93768683D01*
X159733370Y-94117181D01*
X159737765Y-94118835D01*
X160706344Y-94504256D01*
X160710674Y-94506074D01*
X161664019Y-94927915D01*
X161668276Y-94929896D01*
X162430433Y-95302259D01*
X162482027Y-95349374D01*
X162500000Y-95413673D01*
X162500000Y-100876000D01*
X162480315Y-100943039D01*
X162427511Y-100988794D01*
X162376000Y-101000000D01*
X157624000Y-101000000D01*
X157556961Y-100980315D01*
X157511206Y-100927511D01*
X157500000Y-100876000D01*
X157500000Y-93549983D01*
X157519685Y-93482944D01*
X157572489Y-93437189D01*
X157641647Y-93427245D01*
X157656490Y-93430315D01*
G37*
M02*
